<svg width="74" height="80" viewBox="0 0 74 80" fill="none" xmlns="http://www.w3.org/2000/svg">
<g id="Capa 2">
<g id="Capa 1">
<path id="Vector" d="M58.1757 0C58.3129 0.0635388 58.4538 0.118767 58.5976 0.165387C59.7863 0.45428 60.8417 1.13821 61.591 2.1052C62.3403 3.07219 62.7391 4.26494 62.7221 5.48814C62.7458 10.0987 62.7221 14.7059 62.7221 19.3266V20.3797C63.3128 19.7992 63.7347 19.3401 64.2174 18.9149C65.7835 17.4871 67.5926 16.9842 69.6346 17.6086C70.5875 17.8617 71.4483 18.3813 72.1161 19.1065C72.7839 19.8317 73.231 20.7324 73.4048 21.7028C73.6162 22.5968 73.5897 23.5306 73.3279 24.4112C73.0662 25.2918 72.5783 26.0884 71.9129 26.7218C69.0136 29.6414 66.0906 32.5373 63.2014 35.467C62.9381 35.734 62.7779 36.0855 62.7491 36.4594C62.7266 45.703 62.7266 54.9478 62.7491 64.1937C62.7491 64.322 62.7491 64.4469 62.7795 64.7102H65.3244C66.6172 64.7102 67.0796 65.1658 67.0829 66.4383C67.0829 69.0676 67.0829 71.6969 67.0829 74.3262C67.0627 77.6306 64.7203 79.9966 61.4159 80C45.712 80 30.0093 80 14.3077 80C10.9797 80 8.65412 77.6373 8.65412 74.2621C8.65412 59.2895 8.65412 44.3169 8.65412 29.3444V28.244H7.42553C5.49827 28.244 3.57101 28.244 1.64374 28.244C0.479284 28.2305 0 27.7647 0 26.6172C0 23.1047 0 19.5899 0 16.0729C0 15.1751 0.405029 14.6958 1.12058 14.6756C1.83613 14.6553 2.34242 15.1582 2.36267 16.0729C2.36267 19.0161 2.36267 21.9593 2.36267 24.9025V25.8577H8.56637C8.59762 25.6587 8.6179 25.4582 8.62712 25.2569C8.62712 18.7202 8.62712 12.1835 8.62712 5.64678C8.62712 3.34824 6.60197 1.82263 4.50257 2.50443C3.88754 2.69467 3.34886 3.07539 2.96424 3.59165C2.57962 4.10791 2.36897 4.73301 2.36267 5.37676C2.32892 6.9665 2.36267 8.55624 2.34242 10.1426C2.34242 11.0134 1.80238 11.5771 1.09695 11.5298C0.793965 11.5115 0.510467 11.3743 0.308179 11.148C0.105891 10.9217 0.00119232 10.6246 0.0168762 10.3215C0.0168762 8.52249 -0.0337524 6.72348 0.0472534 4.9211C0.148511 2.74407 1.85301 0.799933 4.07729 0.178888C4.24605 0.131634 4.41482 0.0607544 4.57683 0H58.1757ZM51.2429 47.2196L51.4421 47.4795C52.6639 47.4795 53.8891 47.4795 55.111 47.4795C55.2613 47.4745 55.4112 47.5 55.5515 47.5543C55.6918 47.6086 55.8197 47.6907 55.9275 47.7957C56.0353 47.9006 56.1208 48.0263 56.1788 48.1651C56.2369 48.3039 56.2663 48.453 56.2653 48.6035C56.2734 48.8946 56.1705 49.178 55.9775 49.3961C55.7845 49.6142 55.5157 49.7508 55.2257 49.7781C54.9932 49.8102 54.7581 49.8203 54.5237 49.8085C52.9103 49.8085 51.2936 49.8388 49.6802 49.8085C49.3995 49.793 49.1191 49.8421 48.8604 49.9522C48.6018 50.0622 48.3718 50.2301 48.1883 50.443C46.1632 52.5053 44.138 54.5642 42.0488 56.5657C41.4881 57.0978 40.8256 57.5111 40.1013 57.7808C37.688 58.6651 35.2375 59.4684 32.7972 60.2751C32.4142 60.4374 32.0093 60.542 31.5956 60.5856C29.3815 60.6149 27.1673 60.6149 24.9532 60.5856C24.7756 60.5988 24.5975 60.5697 24.4333 60.5008C24.2691 60.4318 24.1236 60.325 24.0087 60.189C23.8938 60.053 23.8127 59.8917 23.7721 59.7184C23.7316 59.545 23.7326 59.3645 23.7752 59.1916C23.9102 58.5166 24.3726 58.2567 25.024 58.2567C26.6644 58.2567 28.3048 58.2567 29.9452 58.2567C30.1848 58.2567 30.5729 58.1251 30.6202 57.9597C31.0826 56.7277 31.4843 55.4721 31.9399 54.1186H31.0151C26.9648 54.1186 22.9021 54.1186 18.8271 54.1186C17.99 54.1186 17.5243 53.7069 17.477 53.0149C17.4298 52.323 17.936 51.8235 18.7832 51.783C19.1207 51.7661 19.4583 51.783 19.7958 51.783C23.8832 51.783 27.9706 51.783 32.0614 51.783C32.202 51.787 32.3417 51.761 32.4715 51.7069C32.6013 51.6528 32.718 51.5717 32.8141 51.4691C33.0588 50.9361 33.2598 50.3841 33.4149 49.8186H32.4597C28.0584 49.8186 23.6571 49.8186 19.2558 49.8186C18.9441 49.8326 18.632 49.8054 18.3276 49.7376C18.0713 49.6638 17.8488 49.503 17.6982 49.283C17.5476 49.0629 17.4783 48.7973 17.5023 48.5317C17.5262 48.2661 17.6419 48.0172 17.8295 47.8276C18.0171 47.6381 18.2648 47.5198 18.5301 47.493C18.7898 47.4795 19.05 47.4795 19.3098 47.493C24.5189 47.493 29.7269 47.493 34.9338 47.493C35.2137 47.5289 35.498 47.4807 35.7506 47.3547C36.3885 46.8517 36.969 46.278 37.5732 45.7312L37.4078 45.5084H25.473C25.2388 45.5203 25.004 45.5135 24.7709 45.4881C24.4943 45.47 24.2351 45.3465 24.0467 45.1431C23.8584 44.9397 23.7551 44.6718 23.7583 44.3946C23.7296 44.1177 23.8076 43.8403 23.9763 43.619C24.145 43.3976 24.3917 43.2489 24.6663 43.2031C24.9225 43.1584 25.1833 43.146 25.4426 43.166C30.0802 43.166 34.7144 43.166 39.3519 43.1457C39.7488 43.1274 40.1265 42.9696 40.4185 42.7002C42.9095 40.2565 45.37 37.7825 47.8441 35.3118C47.9959 35.1599 48.1276 34.9743 48.3503 34.7177H19.3233C19.0904 34.7177 18.8541 34.7177 18.6212 34.7177C18.4769 34.7191 18.3337 34.6919 18.1999 34.6378C18.0661 34.5837 17.9442 34.5037 17.8414 34.4024C17.7385 34.3012 17.6567 34.1806 17.6005 34.0476C17.5444 33.9146 17.515 33.7719 17.5141 33.6275C17.4969 33.4753 17.5107 33.3212 17.5547 33.1745C17.5986 33.0277 17.6719 32.8914 17.77 32.7738C17.8681 32.6561 17.989 32.5596 18.1254 32.4899C18.2619 32.4203 18.411 32.379 18.5638 32.3686C18.8242 32.346 19.0858 32.3404 19.3469 32.3517C29.5806 32.3517 39.8189 32.3517 50.0616 32.3517C50.364 32.3839 50.6692 32.3264 50.9392 32.1863C51.5535 31.7138 52.1036 31.1737 52.6774 30.6405L52.5188 30.3772H25.5978C25.2854 30.3903 24.9724 30.3745 24.6629 30.3299C24.4083 30.2781 24.179 30.141 24.0129 29.9411C23.8469 29.7413 23.754 29.4908 23.7497 29.231C23.7453 28.9712 23.8298 28.7177 23.9891 28.5125C24.1484 28.3072 24.373 28.1625 24.6258 28.1023C24.9603 28.0468 25.2995 28.0253 25.6383 28.0381C35.197 28.0381 44.7602 28.0381 54.3279 28.0381C54.5703 28.0533 54.813 28.0142 55.0384 27.9237C55.2638 27.8332 55.4661 27.6935 55.6307 27.515C57.045 26.0569 58.5132 24.6528 59.9173 23.1845C60.1999 22.8706 60.3655 22.4689 60.3865 22.0471C60.4168 16.6467 60.4101 11.2666 60.4067 5.87292C60.3831 3.56088 59.1511 2.36267 56.8053 2.36267H9.95696C11.0202 3.84103 10.9695 5.40039 10.9695 6.96988C10.9695 29.2465 10.9695 51.513 10.9695 73.7693C10.9695 74.0832 10.9695 74.3971 10.9695 74.7076C11.0074 75.5253 11.3641 76.2955 11.9632 76.8532C12.5623 77.4109 13.3561 77.7116 14.1744 77.6908C14.9926 77.6701 15.7702 77.3295 16.3402 76.7422C16.9103 76.1548 17.2275 75.3675 17.2239 74.549C17.2509 71.815 17.2239 69.0777 17.2239 66.3438C17.2239 65.4156 17.6255 64.8418 18.3951 64.7642C19.0423 64.6933 19.6953 64.6933 20.3426 64.7642C20.488 64.7731 20.63 64.8119 20.7598 64.878C20.8896 64.9441 21.0044 65.0362 21.0972 65.1486C21.1899 65.2609 21.2586 65.3911 21.2989 65.5311C21.3392 65.6711 21.3503 65.8179 21.3315 65.9624C21.3347 66.2396 21.2315 66.5075 21.0431 66.7109C20.8548 66.9143 20.5956 67.0378 20.319 67.0559C20.0962 67.0897 19.8667 67.0965 19.573 67.1201C19.573 69.0338 19.573 70.9037 19.573 72.7736C19.573 74.4342 19.6945 76.1117 18.5875 77.6778H61.3113C63.1845 77.6778 64.6156 76.5505 64.6865 74.8055C64.781 72.2842 64.7034 69.7426 64.6865 67.2315C64.6865 67.191 64.6224 67.1538 64.5549 67.0728H26.5463C26.2864 67.0728 26.0265 67.0728 25.7666 67.0728C25.0038 67.0357 24.5481 66.6138 24.5313 65.9455C24.5144 65.2772 24.9937 64.781 25.7734 64.7405C26.0096 64.7405 26.2425 64.7405 26.4788 64.7405H60.3358V38.3529L59.924 38.7208C59.249 39.3553 58.574 39.4296 58.071 38.9368C57.5681 38.444 57.5884 37.7285 58.2972 37.0399C59.006 36.3514 59.6473 35.7708 60.265 35.2072L55.8231 30.7687L36.348 50.2405L40.7358 54.6283C40.8506 54.5 41.0126 54.2908 41.1948 54.1119C45.3936 49.9086 49.5924 45.7098 53.7912 41.5155C54.5169 40.7898 55.1413 40.6717 55.6982 41.1408C56.2552 41.61 56.2349 42.231 55.5936 43.0546C55.5717 43.1014 55.558 43.1517 55.5531 43.2031C56.0493 43.5575 56.4037 43.9862 56.1877 44.6477C55.9716 45.3093 55.4249 45.5118 54.7667 45.4814C54.4812 45.4645 54.1949 45.4645 53.9094 45.4814C53.609 45.5084 53.2343 45.4814 53.0217 45.6367C52.4074 46.1227 51.837 46.6864 51.2429 47.2196ZM65.0814 30.2388C66.769 28.5512 68.541 26.8197 70.2624 25.0544C70.553 24.7626 70.7832 24.4163 70.9399 24.0355C71.0966 23.6546 71.1768 23.2466 71.1759 22.8348C71.1749 22.423 71.0929 22.0153 70.9344 21.6352C70.776 21.2551 70.5442 20.9099 70.2523 20.6194C69.9604 20.3288 69.6142 20.0986 69.2333 19.9419C68.8525 19.7851 68.4445 19.7049 68.0327 19.7059C67.6208 19.7068 67.2132 19.7889 66.8331 19.9473C66.453 20.1058 66.1078 20.3376 65.8172 20.6295C64.5616 21.8344 63.3567 23.0934 62.1045 24.3119C61.5914 24.8148 61.0311 25.2704 60.5248 25.716L65.0814 30.2388ZM61.9323 33.2495L63.1879 32.1256L58.8541 27.7782L57.5681 28.8988L61.9323 33.2495ZM34.9506 52.5863L33.263 57.6491L38.2921 55.9446L34.9506 52.5863Z" fill="white"/>
<path id="Vector_2" d="M35.6426 23.9136H16.9032C15.4924 23.9136 15.0874 23.512 15.084 22.1079C15.084 21.0908 15.084 20.0782 15.084 19.0702C15.084 17.6694 15.4924 17.2644 16.91 17.2644H52.4344C53.1905 17.2644 53.9431 17.2644 54.6992 17.2644C55.8029 17.2847 56.2687 17.7437 56.2788 18.8373C56.2788 19.9815 56.2788 21.1257 56.2788 22.2733C56.2788 23.4208 55.8164 23.9136 54.6148 23.917L35.6426 23.9136ZM17.4669 21.5071H53.8891V19.6575H17.4669V21.5071Z" fill="white"/>
<path id="Vector_3" d="M35.7572 13.1263H23.3498C23.1161 13.1432 22.8814 13.1432 22.6477 13.1263C22.5032 13.1203 22.3613 13.0856 22.2302 13.0243C22.0991 12.963 21.9816 12.8764 21.8842 12.7693C21.7869 12.6623 21.7118 12.537 21.6633 12.4007C21.6147 12.2644 21.5937 12.1198 21.6014 11.9754C21.5818 11.6858 21.6771 11.4001 21.8666 11.1803C22.0561 10.9604 22.3246 10.8241 22.614 10.8008C22.8475 10.7803 23.0824 10.7803 23.316 10.8008H48.0532C48.3124 10.7814 48.5729 10.7927 48.8295 10.8345C49.0986 10.886 49.3408 11.0309 49.5133 11.2436C49.6859 11.4564 49.7777 11.7233 49.7724 11.9972C49.7672 12.2711 49.6652 12.5344 49.4847 12.7404C49.3041 12.9464 49.0564 13.0819 48.7856 13.1229C48.5539 13.1517 48.3199 13.1584 48.0869 13.1432L35.7572 13.1263Z" fill="white"/>
<path id="Vector_4" d="M29.422 36.682H39.3452C39.6321 36.682 39.9898 36.5977 40.189 36.7327C40.5874 36.9652 40.908 37.3105 41.1104 37.725C41.2927 38.2684 40.945 38.7376 40.3814 38.9266C40.1315 38.9988 39.8717 39.0307 39.6118 39.0211C32.7623 39.0211 25.9128 39.0211 19.0633 39.0211C18.779 39.0303 18.495 38.9927 18.2229 38.9097C17.9927 38.8201 17.7977 38.6584 17.6671 38.4487C17.5364 38.2391 17.4771 37.9928 17.498 37.7467C17.5189 37.5006 17.6189 37.2678 17.783 37.0832C17.9471 36.8986 18.1666 36.7721 18.4085 36.7226C18.6925 36.6837 18.9794 36.6701 19.2659 36.682H29.422Z" fill="white"/>
<path id="Vector_5" d="M35.6762 8.8026C34.3261 8.8026 32.976 8.8026 31.6259 8.8026C30.7382 8.8026 30.2387 8.3942 30.2083 7.69552C30.1779 6.99685 30.7044 6.47368 31.5989 6.47031C34.3306 6.45456 37.06 6.45456 39.7872 6.47031C40.6648 6.47031 41.1373 6.91922 41.1373 7.63139C41.1373 8.34357 40.6479 8.79585 39.7163 8.8026C38.3764 8.80935 37.0263 8.8026 35.6762 8.8026Z" fill="white"/>
</g>
</g>
</svg>
