<svg width="68" height="80" viewBox="0 0 68 80" fill="none" xmlns="http://www.w3.org/2000/svg">
<g id="Capa 15">
<path id="Vector" d="M4.89793 80C2.80418 79.2899 2.0213 77.8092 2.05772 75.6304C2.14268 71.1516 2.09413 66.6728 2.06985 62.188C2.06985 61.138 2.23978 60.1731 2.94377 59.3174C1.88172 57.8245 1.71179 56.2951 2.84667 54.7779C3.97547 53.2607 5.6444 53.3881 7.32547 53.4428V45.614C6.77321 45.614 6.2088 45.62 5.6444 45.614C3.64168 45.5775 2.09413 44.0543 2.08806 42.1183C2.08199 40.1763 3.61134 38.6105 5.60799 38.5923C8.02946 38.568 10.4509 38.5923 12.9998 38.5923V37.8034C12.9998 33.3488 12.9877 28.8943 13.012 24.4398C13.012 23.8996 12.8299 23.669 12.3626 23.4627C8.81234 21.9091 5.2742 20.3251 1.73 18.7654C0.619401 18.2617 -0.0178267 17.4667 0.000379792 16.2286C0.0185863 15.1605 0.540507 14.3837 1.49938 13.9528C4.70373 12.5145 7.91415 11.0944 11.1246 9.68035C11.8407 9.36477 12.5022 9.59538 12.7814 10.2023C13.0848 10.8456 12.8178 11.4889 12.0288 11.8348C9.06116 13.1639 6.08743 14.4687 3.11369 15.7856C2.8406 15.907 2.57964 16.0526 2.31868 16.1861C2.31868 16.265 2.30654 16.35 2.30047 16.4289C5.8204 17.9947 9.33426 19.5604 12.927 21.1565C13.5824 18.377 15.7551 17.2118 18.0552 16.2347C21.3445 14.8449 24.8341 14.238 28.3661 13.8982C32.056 13.5401 35.7519 13.528 39.4418 13.8861C39.5692 13.8982 39.7027 13.8982 39.8302 13.9103C40.7891 14.0074 41.311 14.499 41.2321 15.2333C41.1593 15.9555 40.6191 16.3318 39.6785 16.2468C35.9583 15.907 32.2381 15.8645 28.5239 16.2347C25.095 16.5746 21.7208 17.1693 18.5346 18.5712C18.1098 18.7593 17.6971 18.9839 17.2844 19.2084C15.9189 19.9549 15.1846 20.9623 15.2939 22.6616C15.4456 24.9192 15.3303 27.189 15.3303 29.4587C15.3303 29.7439 15.3303 30.0231 15.3303 30.3387C15.567 30.369 15.743 30.4054 15.9189 30.4115C18.8623 30.4115 21.8057 30.4054 24.7491 30.4236C25.2225 30.4236 25.4288 30.3023 25.5199 29.8046C26.3088 25.5504 29.8348 22.522 33.9495 22.5099C38.0581 22.5038 41.6144 25.5564 42.4094 29.7743C42.4762 30.1263 42.5065 30.4236 42.992 30.4176C44.5821 30.3933 46.1661 30.4115 47.8228 30.4115C47.9685 29.8774 48.0474 29.3313 48.2719 28.8518C48.8606 27.5531 49.5221 26.2908 50.129 25.0042C50.2504 24.7493 50.2807 24.4398 50.2868 24.1545C50.2989 22.959 50.2443 21.7634 50.2868 20.5678C50.305 20.1491 50.5417 19.7364 50.6934 19.2691C49.1823 18.3345 47.5073 17.8005 45.8019 17.3332C45.5774 17.2725 45.3407 17.23 45.1222 17.1511C44.485 16.9144 44.1694 16.3197 44.3575 15.7249C44.5457 15.112 45.0979 14.766 45.7594 14.9238C47.9442 15.4336 50.0622 16.1376 51.9982 17.3089C52.1499 17.3999 52.3016 17.4909 52.5869 17.6609C52.5869 16.7263 52.5869 15.907 52.5869 15.0938C52.5869 13.7161 52.5747 12.3324 52.593 10.9548C52.599 10.53 52.4716 10.3115 52.071 10.1355C46.4088 7.64122 40.7466 5.13479 35.0965 2.61015C34.2651 2.23995 33.5065 2.29457 32.6993 2.6587C27.7107 4.88596 22.716 7.09502 17.7275 9.31015C17.4908 9.41332 17.2541 9.53469 16.9992 9.59538C16.3802 9.74104 15.925 9.49828 15.658 8.93388C15.397 8.38161 15.573 7.91431 16.0221 7.55018C16.1981 7.40453 16.4287 7.31957 16.6411 7.22854C21.7026 4.98306 26.77 2.74366 31.8314 0.486053C33.2212 -0.132968 34.5867 -0.17545 35.9825 0.443572C46.0872 4.92844 56.1918 9.40725 66.2964 13.8921C67.3524 14.3594 67.9411 15.1544 67.935 16.3197C67.935 17.4909 67.322 18.2678 66.2661 18.729C63.4865 19.961 60.707 21.2111 57.9153 22.4249C57.4662 22.6191 57.3509 22.8679 57.2842 23.3413C57.1446 24.3002 57.4237 25.0406 57.9335 25.8477C59.032 27.5834 59.6389 29.5133 59.8027 31.5767C59.8998 32.7844 59.4447 33.719 58.3948 34.2167C57.4966 34.6476 56.5013 34.9024 55.5242 35.1331C55.0812 35.2423 54.9113 35.3698 54.9234 35.831C54.9537 36.711 54.9295 37.5909 54.9295 38.5802C55.2693 38.5802 55.5485 38.5802 55.8216 38.5802C57.9335 38.5802 60.0394 38.568 62.1514 38.5802C64.3544 38.5923 65.8352 40.067 65.8412 42.2579C65.8534 47.1008 65.8716 51.9498 65.817 56.7928C65.8048 57.6363 65.4225 58.4678 65.1615 59.5116C66.0536 60.7678 66.2114 62.2972 65.0705 63.8083C63.9417 65.3134 62.2667 65.186 60.5978 65.1435V72.9662C61.15 72.9662 61.6901 72.9662 62.2303 72.9662C64.0752 72.9905 65.5196 74.1921 65.8109 75.9399C66.0901 77.6089 65.0826 79.2232 63.3773 79.8361C63.2559 79.8786 63.1467 79.9454 63.0314 80H4.89793ZM34.0102 40.9167C24.7612 40.9167 15.5123 40.9167 6.26342 40.9167C6.00246 40.9167 5.73543 40.8924 5.48054 40.9349C4.82511 41.032 4.4367 41.4325 4.4367 42.094C4.4367 42.7555 4.83725 43.15 5.48661 43.2471C5.76578 43.2896 6.05708 43.2653 6.34232 43.2653C24.0573 43.2653 41.7722 43.2653 59.4872 43.2653C60.8162 43.2653 61.1682 43.6112 61.1682 44.91C61.1682 47.908 61.1682 50.8999 61.1682 53.8979C61.1682 55.488 60.8891 55.7732 59.3233 55.7732C41.6326 55.7732 23.948 55.7732 6.25735 55.7732C5.99639 55.7732 5.72937 55.7489 5.47447 55.7853C4.81904 55.8824 4.4367 56.283 4.43063 56.9445C4.43063 57.5696 4.80083 57.958 5.40772 58.0854C5.63226 58.134 5.87502 58.1097 6.1117 58.1097C24.6884 58.1097 43.2591 58.1097 61.8358 58.1097C63.1588 58.1097 63.5169 57.7577 63.5169 56.459C63.5169 51.877 63.5169 47.289 63.5169 42.707C63.5169 41.2201 63.2134 40.9106 61.7508 40.9106C52.5019 40.9106 43.253 40.9106 34.0041 40.9106L34.0102 40.9167ZM34.0587 60.4583C24.7612 60.4583 15.4577 60.4583 6.16025 60.4583C4.74621 60.4583 4.4367 60.7739 4.4367 62.2122C4.4367 66.7942 4.4367 71.3823 4.4367 75.9642C4.4367 77.3176 4.77656 77.6514 6.15418 77.6514C24.7006 77.6514 43.253 77.6514 61.7994 77.6514C62.0361 77.6514 62.2728 77.6756 62.5034 77.6332C63.1467 77.5118 63.529 77.1112 63.5169 76.4437C63.4987 75.8186 63.1224 75.4362 62.5094 75.327C62.2303 75.2785 61.939 75.3027 61.6537 75.3027C43.9934 75.3027 26.327 75.3027 8.66668 75.3027C7.06451 75.3027 6.78534 75.0296 6.78534 73.4639C6.78534 70.4962 6.78534 67.5225 6.78534 64.5548C6.78534 63.0922 7.08879 62.7948 8.58172 62.7948C26.2724 62.7948 43.957 62.7948 61.6477 62.7948C61.9572 62.7948 62.2849 62.8252 62.5823 62.7584C63.1831 62.6188 63.5411 62.2122 63.5169 61.5871C63.4926 60.9621 63.1224 60.5797 62.5094 60.4765C62.2545 60.4341 61.9875 60.4583 61.7266 60.4583C52.5019 60.4583 43.2834 60.4583 34.0587 60.4583ZM9.14612 67.8745H10.2142C21.2353 67.8745 32.2563 67.8745 43.2773 67.8745C43.6171 67.8745 43.957 67.8684 44.2908 67.923C44.9159 68.0262 45.2497 68.4267 45.2436 69.064C45.2375 69.7012 44.8916 70.0896 44.2665 70.1806C43.957 70.2292 43.6414 70.211 43.3319 70.211C32.2866 70.211 21.2353 70.211 10.19 70.211H9.1704V72.8995H58.1763V70.211C57.8546 70.211 57.5694 70.211 57.2902 70.211C54.893 70.211 52.4959 70.211 50.0987 70.211C49.8377 70.211 49.5707 70.211 49.3218 70.1624C48.7271 70.041 48.3448 69.6041 48.4419 69.0579C48.5147 68.6513 48.9031 68.2447 49.2551 67.9655C49.4554 67.8016 49.8559 67.8684 50.1654 67.8684C52.5626 67.8623 54.9598 67.8684 57.357 67.8684C57.6301 67.8684 57.9032 67.8441 58.1702 67.8259V65.1981H9.14612V67.8684V67.8745ZM9.77728 48.3085C10.0989 48.3085 10.3781 48.3085 10.6573 48.3085C12.6903 48.3085 14.7234 48.3085 16.7504 48.3085C17.7275 48.3085 18.2919 48.7394 18.304 49.4677C18.3222 50.202 17.7639 50.645 16.7929 50.6511C14.7355 50.6572 12.6782 50.6511 10.6209 50.6511C10.3417 50.6511 10.0686 50.6511 9.78335 50.6511V53.3699H58.771V50.6511C58.3826 50.6511 58.0428 50.6511 57.709 50.6511C46.2753 50.6511 34.8416 50.6511 23.4018 50.6511C23.0923 50.6511 22.7767 50.6632 22.4672 50.6268C21.8785 50.554 21.5205 50.202 21.4598 49.6133C21.393 48.9882 21.6843 48.5391 22.2973 48.3813C22.6189 48.2964 22.9649 48.3085 23.3047 48.3085C34.793 48.3085 46.2814 48.3085 57.7636 48.3085C58.0913 48.3085 58.4251 48.3085 58.7832 48.3085V45.6504H9.77728V48.3085ZM15.3788 38.5255H52.5505V35.2241C52.2652 35.1877 52.0346 35.1695 51.8101 35.127C50.4446 34.86 49.0609 34.5869 48.2052 33.3428C47.8957 32.8937 47.6044 32.748 47.0824 32.748C36.7958 32.7601 26.5091 32.7601 16.2224 32.7601H15.3788V38.5255ZM40.0426 30.363C40.0851 27.5834 36.9414 24.7978 33.8888 24.8585C30.8544 24.9192 27.8017 27.7109 27.917 30.363H40.0426ZM57.2478 20.1612C60.0758 18.905 62.8614 17.6669 65.641 16.4289C65.641 16.3379 65.641 16.2468 65.641 16.1497C62.1089 14.584 58.5829 13.0182 54.9477 11.4039C54.9477 13.6251 54.9477 15.6521 54.9598 17.6851C54.9598 17.8308 55.069 18.0614 55.1843 18.1039C56.1736 18.468 56.829 19.1599 57.2417 20.1612H57.2478ZM51.9375 26.5396C50.9483 27.9718 50.3353 29.6408 50.1229 31.4493C50.0926 31.7224 50.3171 32.214 50.5417 32.2989C52.7083 33.1668 54.8991 33.1607 57.0718 32.2928C57.2538 32.22 57.4662 31.9044 57.4541 31.7102C57.3266 29.75 56.6409 27.99 55.6456 26.5335H51.9375V26.5396ZM54.9901 22.3035C54.9901 21.9151 55.0023 21.5267 54.9901 21.1383C54.9537 20.2523 54.3044 20.3251 53.6975 20.313C53.0785 20.3008 52.6051 20.4465 52.599 21.1869C52.599 21.8605 52.593 22.5342 52.599 23.2078C52.6051 24.0878 52.8114 24.288 53.7096 24.3002C54.8384 24.3184 54.9962 24.1606 54.9962 23.0015C54.9962 22.7708 54.9962 22.5342 54.9962 22.3035H54.9901Z" fill="white"/>
</g>
</svg>
