<svg width="81" height="80" viewBox="0 0 81 80" fill="none" xmlns="http://www.w3.org/2000/svg">
<g id="Capa 13">
<g id="Group">
<path id="Vector" d="M0.0242663 35.9324C0.503526 35.6654 0.952453 35.2711 1.46205 35.1498C3.53682 34.6584 5.62979 34.2398 7.71669 33.8333C8.22022 33.7363 8.46288 33.5421 8.56601 33.0265C8.76014 32.0861 9.00887 31.1519 9.30614 30.2419C9.4578 29.7869 9.3486 29.5321 9.01494 29.2349C7.3527 27.7728 5.70865 26.2926 4.05248 24.8184C3.30629 24.1511 3.23349 23.7264 3.74308 22.8407C4.829 20.9479 5.92098 19.0551 7.01903 17.1624C7.55289 16.2402 7.91689 16.1068 8.95427 16.4465C11.029 17.126 13.1099 17.7872 15.1725 18.5031C15.6336 18.6608 15.9126 18.6305 16.2463 18.2543C16.8894 17.5385 17.5749 16.853 18.2907 16.2099C18.6669 15.8702 18.6911 15.579 18.5334 15.1301C17.8236 13.0674 17.1502 10.9866 16.4708 8.91181C16.131 7.88049 16.2706 7.52256 17.1988 6.9887C19.0915 5.89065 20.9782 4.79867 22.8771 3.71275C23.7567 3.20922 24.1814 3.28202 24.8548 4.03428C26.329 5.68439 27.8092 7.32843 29.2713 8.99067C29.5685 9.3304 29.8294 9.4214 30.2783 9.2758C31.2186 8.97247 32.1771 8.72981 33.1357 8.50535C33.5421 8.41435 33.7363 8.26875 33.8212 7.82589C34.2519 5.62979 34.7251 3.44582 35.1862 1.25578C35.3864 0.291196 35.7261 0 36.7331 0C38.9232 0 41.1072 0 43.2972 0C44.3406 0 44.6561 0.279063 44.8745 1.32251C45.3295 3.48828 45.7966 5.64192 46.2273 7.81376C46.3123 8.23842 46.47 8.42041 46.8947 8.51141C47.8835 8.72981 48.8663 8.98461 49.8309 9.294C50.2616 9.43353 50.4982 9.31827 50.7652 9.01494C52.209 7.3709 53.671 5.74505 55.127 4.11314C55.8793 3.26989 56.2615 3.19102 57.22 3.74308C59.0703 4.80473 60.9206 5.86638 62.7648 6.9341C63.7962 7.52863 63.9175 7.86229 63.5535 8.97247C62.874 11.0472 62.1946 13.122 61.4909 15.1907C61.3513 15.6093 61.3877 15.8884 61.7396 16.2038C62.4555 16.8469 63.141 17.5324 63.784 18.2422C64.1116 18.6001 64.3846 18.6851 64.8578 18.5213C66.9205 17.8115 69.0013 17.1381 71.0761 16.4586C72.1498 16.1068 72.4835 16.2342 73.0538 17.217C74.1397 19.0855 75.2195 20.954 76.2933 22.8285C76.8211 23.7446 76.7483 24.1511 75.9475 24.8669C74.3156 26.3229 72.6898 27.7849 71.0457 29.2288C70.6817 29.5443 70.5968 29.8233 70.7545 30.3026C71.0639 31.2368 71.2459 32.2135 71.5493 33.1539C71.6281 33.4026 71.9193 33.6999 72.168 33.7545C74.3459 34.2519 76.542 34.6948 78.726 35.1558C79.7513 35.3682 80.0182 35.6958 80.0182 36.7574C80.0182 38.9171 80.0182 41.0768 80.0182 43.2426C80.0182 44.3042 79.7452 44.6318 78.72 44.8442C76.5299 45.3052 74.3399 45.7481 72.162 46.2455C71.9193 46.3001 71.6221 46.6035 71.5432 46.8522C71.2399 47.7925 71.0579 48.7692 70.7485 49.7035C70.5907 50.1828 70.6817 50.4618 71.0397 50.7773C72.6655 52.2029 74.2732 53.6468 75.8869 55.0846C76.7605 55.8611 76.8272 56.2433 76.2509 57.2443C75.171 59.1128 74.1215 60.9995 72.987 62.8376C72.7504 63.2259 72.1984 63.693 71.8223 63.6688C71.0579 63.6263 70.1782 63.4989 69.7171 62.7042C69.2864 61.9641 69.8446 61.0237 70.7242 61.0662C71.2459 61.0905 71.4522 60.8903 71.6706 60.4959C72.4046 59.1795 73.169 57.8812 73.9577 56.5102C72.8657 55.5335 71.7919 54.5628 70.706 53.5922C69.9902 52.9491 69.2682 52.3061 68.5463 51.6751C68.067 51.2505 67.9457 50.7712 68.1277 50.1403C68.5888 48.5448 69.0195 46.9371 69.4078 45.3234C69.5958 44.5348 70.0872 44.2254 70.8152 44.0798C72.8839 43.6673 74.9405 43.2365 77.0031 42.8058C77.2033 42.7633 77.4035 42.7027 77.634 42.642V37.3155C76.1902 37.0122 74.7221 36.7028 73.26 36.3995C72.3682 36.2114 71.4825 36.0112 70.5847 35.8474C69.9052 35.72 69.5715 35.3136 69.4138 34.6644C69.0195 33.075 68.607 31.4916 68.1459 29.9264C67.9457 29.2349 68.067 28.7313 68.607 28.2581C70.3845 26.693 72.1438 25.1096 73.9638 23.4837C73.078 21.9428 72.1984 20.4262 71.2945 18.861C69.0802 19.589 66.9083 20.2988 64.7426 21.0146C63.5838 21.3968 63.4322 21.324 62.5768 20.4201C61.594 19.3827 60.5991 18.3514 59.5314 17.399C58.858 16.7984 58.6456 16.222 58.955 15.3484C59.6345 13.4375 60.2411 11.5022 60.8781 9.57913C60.9691 9.3122 61.0419 9.03921 61.139 8.72374C59.6102 7.83802 58.1057 6.9705 56.5345 6.06051C56.1462 6.49124 55.7701 6.90984 55.394 7.3345C54.1806 8.69341 52.9613 10.0463 51.754 11.4112C51.3111 11.9087 50.838 12.0907 50.1646 11.8966C48.5448 11.4294 46.9129 10.9987 45.2749 10.5983C44.5166 10.4103 44.2436 9.90673 44.104 9.21514C43.6915 7.1525 43.2547 5.08986 42.8301 3.02722C42.7876 2.82703 42.733 2.62683 42.6723 2.39023H37.3519C37.0486 3.82801 36.7392 5.29613 36.4298 6.75817C36.2418 7.64996 36.0416 8.53568 35.8778 9.43353C35.7504 10.113 35.3439 10.4467 34.6948 10.6104C33.1357 10.9987 31.5705 11.393 30.0296 11.8541C29.2834 12.0786 28.7435 11.9512 28.2278 11.3627C26.6869 9.59733 25.1156 7.86229 23.508 6.06658C21.9671 6.9523 20.4444 7.82589 18.8792 8.72981C19.6072 10.9441 20.323 13.1099 21.0328 15.2757C21.415 16.4344 21.3422 16.586 20.4383 17.4414C19.4009 18.4242 18.3696 19.4252 17.4172 20.4868C16.8166 21.1542 16.2342 21.3786 15.3606 21.0632C13.4557 20.3776 11.5204 19.771 9.59126 19.134C9.32434 19.043 9.05134 18.9763 8.72981 18.8792C7.84409 20.408 6.97657 21.9125 6.06658 23.4837C6.47911 23.8477 6.8795 24.2117 7.2799 24.5697C8.65701 25.8012 10.0341 27.0388 11.4234 28.2581C11.9572 28.7253 12.0907 29.2349 11.8844 29.9264C11.4234 31.4977 10.9987 33.075 10.6226 34.6644C10.4345 35.4531 9.94919 35.7686 9.2212 35.9081C7.12823 36.3206 5.04133 36.7635 2.95442 37.1942C2.77849 37.2306 2.60256 37.2913 2.3963 37.3519V42.6541C3.10002 42.8058 3.82801 42.9635 4.556 43.1213C6.13331 43.4489 7.71062 43.7947 9.294 44.098C10.0948 44.2496 10.4709 44.6864 10.6529 45.4751C10.9987 46.9917 11.4112 48.4963 11.8602 49.9886C12.0907 50.7348 11.9572 51.2747 11.3688 51.7904C9.60947 53.3313 7.86836 54.9026 6.06658 56.5102C6.9523 58.045 7.83196 59.5678 8.73588 61.139C10.9441 60.411 13.1159 59.6952 15.2817 58.9854C16.4465 58.6032 16.5921 58.676 17.4475 59.5799C18.4121 60.5991 19.407 61.594 20.4262 62.5586C21.3301 63.414 21.409 63.5656 21.0268 64.7183C20.3109 66.8841 19.6011 69.0559 18.8671 71.2702C20.414 72.162 21.9125 73.0295 23.4898 73.9395C24.1693 73.1812 24.8366 72.435 25.51 71.6827C26.3957 70.6939 27.2996 69.7232 28.155 68.704C28.6949 68.061 29.2652 67.9093 30.0781 68.1702C31.5098 68.6252 32.9658 69.0316 34.44 69.341C35.35 69.5291 35.7686 69.9841 35.9384 70.8637C36.3388 72.9567 36.7878 75.0436 37.2185 77.1305C37.2488 77.2822 37.3095 77.4278 37.3641 77.6158H42.6723C42.9757 76.1781 43.2851 74.716 43.5945 73.2479C43.7764 72.3804 43.9706 71.5189 44.1222 70.6514C44.2557 69.9173 44.6743 69.5534 45.4023 69.3835C46.9432 69.0195 48.4781 68.613 49.9886 68.158C50.7348 67.9336 51.2747 68.0549 51.7904 68.6434C53.3313 70.4087 54.9026 72.1438 56.5163 73.9456C58.0511 73.0598 59.5738 72.1862 61.139 71.2763C60.411 69.068 59.7012 66.9023 58.9854 64.7304C58.5971 63.5596 58.6699 63.414 59.5738 62.5646C60.6112 61.5819 61.6486 60.5869 62.595 59.5192C63.2259 58.8094 63.8508 58.5789 64.7183 58.9732C65.0701 59.131 65.4584 59.2159 65.8224 59.3554C66.5019 59.6224 66.7931 60.1502 66.6232 60.7568C66.4412 61.412 65.8527 61.8245 65.1733 61.5515C64.3422 61.2179 63.8993 61.5394 63.4079 62.1279C62.9104 62.7224 62.3341 63.2623 61.7396 63.7719C61.3635 64.0995 61.321 64.3907 61.4787 64.8457C62.1825 66.8841 62.8376 68.9406 63.511 70.9911C63.8872 72.1316 63.7719 72.4592 62.7648 73.0416C60.9206 74.1094 59.0703 75.1771 57.22 76.2387C56.2493 76.7968 55.855 76.7301 55.121 75.9051C53.6832 74.2914 52.2333 72.6898 50.8137 71.0639C50.48 70.6817 50.1949 70.5604 49.6792 70.7363C48.8238 71.0336 47.9321 71.2399 47.0463 71.4401C46.5428 71.5493 46.2698 71.7313 46.1606 72.3076C45.7724 74.4006 45.3356 76.4935 44.8442 78.5622C44.7228 79.0718 44.3285 79.5207 44.0616 80H35.9384C35.6715 79.5207 35.2772 79.0779 35.1558 78.5622C34.6584 76.4632 34.2216 74.352 33.8151 72.2287C33.7181 71.7191 33.4754 71.5614 33.0265 71.4583C32.1165 71.252 31.2004 71.0336 30.3147 70.7303C29.8051 70.5543 29.52 70.6757 29.1803 71.0639C27.7425 72.714 26.2804 74.3338 24.8184 75.9657C24.145 76.718 23.7203 76.7847 22.8407 76.2812C20.9661 75.2074 19.1037 74.1215 17.2352 73.0416C16.222 72.4592 16.1068 72.1377 16.4768 71.0033C17.1381 68.977 17.7872 66.9447 18.4849 64.9367C18.6608 64.4271 18.6365 64.0995 18.2058 63.7294C17.5385 63.1531 16.9076 62.5222 16.3252 61.8549C15.949 61.4241 15.6336 61.3089 15.0633 61.5091C13.0553 62.2189 11.023 62.8558 8.99674 63.5232C7.86229 63.8932 7.54076 63.778 6.9523 62.7648C5.88458 60.9206 4.81687 59.0703 3.75521 57.2261C3.19709 56.2615 3.26989 55.8671 4.09494 55.127C5.72685 53.671 7.3527 52.209 8.99674 50.7652C9.3304 50.474 9.43353 50.2131 9.28794 49.7581C8.99067 48.8481 8.74194 47.9139 8.54781 46.9735C8.43861 46.4579 8.19595 46.2637 7.69242 46.1667C5.59945 45.7602 3.51255 45.3356 1.43778 44.8502C0.928187 44.7289 0.47926 44.3346 0 44.0676C0 41.3619 0 38.6502 0 35.9445L0.0242663 35.9324Z" fill="white"/>
<path id="Vector_2" d="M48.3567 38.7897C48.114 38.1103 48.0109 37.5279 47.7197 37.0607C46.3851 34.9556 46.7248 32.2378 48.5872 30.5998C50.4436 28.9619 53.2282 28.9497 55.0906 30.5634C56.9894 32.2075 57.3474 34.9617 55.9945 37.0789C55.7033 37.54 55.6063 38.1224 55.3757 38.7776H62.6253C62.2916 37.0789 62.0732 35.4106 61.6243 33.803C60.2775 29.0165 57.5779 25.1156 53.6346 22.0824C53.5133 21.9853 53.3859 21.8943 53.2646 21.7912C52.67 21.2755 52.5669 20.6082 53.0098 20.0743C53.4102 19.5829 54.1381 19.4677 54.6841 19.953C56.1401 21.2452 57.7053 22.4645 58.9429 23.9509C70.6756 37.995 64.2026 58.9914 46.5671 63.9296C38.8868 66.0772 31.7221 64.6152 25.2552 59.9318C24.9033 59.677 24.6364 59.0824 24.6364 58.6456C24.6364 58.3423 25.1156 57.8691 25.4553 57.7781C25.8072 57.6871 26.3229 57.8752 26.6505 58.1118C29.702 60.3139 33.075 61.7275 36.8059 62.2613C37.4429 62.3523 38.086 62.4008 38.814 62.4797C38.8322 62.1339 38.8625 61.8609 38.8625 61.5819C38.8625 59.3676 38.8625 57.1533 38.8625 54.945C38.8625 53.4769 39.1719 53.1736 40.6703 53.1736C41.1678 53.1736 41.6592 53.1978 42.1566 53.1736C42.8907 53.1311 43.4913 53.3192 44.0737 53.8348C45.1293 54.7752 46.7187 54.6174 47.653 53.5861C48.569 52.573 48.5508 51.0321 47.6105 50.0372C46.6459 49.018 45.0807 48.9148 44.0252 49.8734C43.5156 50.3344 42.9938 50.5164 42.3386 50.4861C41.6349 50.4558 40.9312 50.4861 40.2275 50.474C39.2872 50.4558 38.8807 50.0432 38.8746 49.0544C38.8625 46.7369 38.8746 44.4195 38.8746 42.1021C38.8746 41.8412 38.8746 41.5864 38.8746 41.2528H31.7767C31.9648 41.8412 32.0376 42.4297 32.3227 42.8847C33.6877 45.014 33.354 47.7622 31.4734 49.4062C29.5806 51.0563 26.7718 51.0381 24.9094 49.3638C23.0408 47.6833 22.7375 44.9473 24.1328 42.8301C24.4058 42.4175 24.4786 41.8655 24.691 41.2467H17.5991C17.7083 43.6126 18.2058 45.8512 19.0308 48.0231C19.862 50.201 21.0146 52.1969 22.4524 54.035C22.6951 54.3444 22.9802 54.7994 22.9256 55.127C22.8589 55.5153 22.5009 55.9642 22.143 56.1583C21.6273 56.4435 21.1481 56.128 20.7901 55.6851C19.1522 53.671 17.8479 51.4628 16.9136 49.0362C11.3687 34.6523 19.8862 18.8792 34.9556 15.676C39.8453 14.6387 44.6379 15.0876 49.2909 16.9258C50.1645 17.2716 50.5043 17.8479 50.2616 18.5152C49.9947 19.2432 49.3516 19.4677 48.4477 19.1097C46.3547 18.2847 44.1889 17.7569 41.9443 17.5749C41.7441 17.5567 41.5379 17.5567 41.2649 17.5446C41.2467 17.8661 41.2224 18.1391 41.2224 18.4181C41.2224 20.681 41.2224 22.9499 41.2224 25.2127C41.2224 26.4382 40.8523 26.7961 39.6329 26.8143C39.0324 26.8204 38.4318 26.7961 37.8372 26.8204C37.1578 26.8507 36.5997 26.6748 36.0658 26.1955C35.0041 25.243 33.439 25.3522 32.4744 26.3593C31.5159 27.3663 31.5159 28.9558 32.4804 29.9628C33.4511 30.976 35.0102 31.073 36.0719 30.1024C36.5815 29.6352 37.1093 29.4714 37.7644 29.5018C38.4136 29.5321 39.0688 29.5018 39.7179 29.5078C40.822 29.52 41.2103 29.8961 41.2163 31.0184C41.2285 33.3116 41.2163 35.5987 41.2163 37.8919C41.2163 38.1709 41.2163 38.45 41.2163 38.7776H48.3749L48.3567 38.7897ZM38.7958 38.8322V31.6736C38.1406 31.9041 37.5582 32.0073 37.0971 32.2985C34.9617 33.6453 32.2075 33.2813 30.5816 31.3824C28.9679 29.4957 28.9922 26.7294 30.6423 24.879C32.3106 23.0045 35.0587 22.6829 37.1699 24.0661C37.6006 24.3513 38.1709 24.4301 38.7897 24.6485V17.587C26.6444 18.0541 17.6598 28.7253 17.6719 38.8382C17.951 38.8382 18.2361 38.8382 18.5152 38.8382C20.8083 38.8382 23.0954 38.8322 25.3886 38.8382C26.4199 38.8382 26.8082 39.2265 26.8385 40.2457C26.8507 40.6886 26.8264 41.1314 26.8446 41.5743C26.8931 42.551 26.7839 43.4125 26.062 44.2314C25.1884 45.2142 25.4857 46.7976 26.4988 47.6651C27.5119 48.5326 29.0164 48.4902 29.9871 47.5681C30.9577 46.6459 31.1397 45.1111 30.2419 44.1101C29.6534 43.4549 29.5018 42.7876 29.5442 41.9807C29.5746 41.4347 29.5442 40.8888 29.5503 40.3428C29.5564 39.2204 29.9264 38.8443 31.0487 38.8382C33.3419 38.8322 35.629 38.8382 37.9222 38.8382C38.2012 38.8382 38.4803 38.8382 38.7958 38.8382V38.8322ZM41.2588 41.18V48.3203C41.92 48.0837 42.5024 47.9745 42.9635 47.6833C45.0868 46.3365 47.8592 46.7127 49.4729 48.6115C51.0806 50.5043 51.0503 53.2646 49.4062 55.1149C47.7379 56.9895 44.9897 57.3049 42.8786 55.9217C42.4478 55.6366 41.8837 55.5577 41.2588 55.3454V62.4069C52.7974 61.958 62.0975 52.1423 62.4251 41.2164C62.1521 41.2042 61.873 41.18 61.594 41.18C59.3008 41.18 57.0137 41.186 54.7205 41.1739C53.5982 41.1678 53.2282 40.7796 53.2039 39.6572C53.1978 39.2386 53.2221 38.8261 53.2039 38.4075C53.1554 37.4308 53.2646 36.5694 53.9925 35.7504C54.8661 34.7615 54.5567 33.1842 53.5436 32.3167C52.5548 31.4734 51.0867 31.4977 50.116 32.3713C49.1211 33.2631 48.8784 34.8222 49.7763 35.8171C50.4315 36.5451 50.5467 37.2973 50.5103 38.1709C50.4861 38.6381 50.5103 39.1052 50.5103 39.5784C50.5103 40.7917 50.1463 41.1678 48.933 41.1739C47.2404 41.186 45.5479 41.1739 43.8553 41.1739C43.006 41.1739 42.1506 41.1739 41.2649 41.1739L41.2588 41.18Z" fill="white"/>
</g>
</g>
</svg>
