<svg width="62" height="80" viewBox="0 0 62 80" fill="none" xmlns="http://www.w3.org/2000/svg">
<g id="Capa 2">
<g id="Capa 1">
<path id="Vector" d="M49.6856 0C51.0912 0.434423 52.5745 0.704386 53.8871 1.3312C61.7998 5.10757 63.5064 15.7385 57.1887 21.8111C57.0036 21.9642 56.8692 22.1698 56.8033 22.4008C56.7374 22.6318 56.743 22.8774 56.8194 23.1051C57.831 27.6448 58.7991 32.1969 59.7797 36.7584C59.8076 36.8856 59.8294 37.0128 59.8511 37.1432C59.9721 37.8444 59.8107 38.4433 59.1746 38.8343C58.5385 39.2253 57.9768 39.0919 57.4183 38.7102L55.3393 37.2797V38.2106C55.3393 40.7613 55.3393 43.312 55.3393 45.8627C55.3393 46.4833 55.1655 47.0015 54.5015 47.1939C53.6605 47.4359 53.012 46.8587 52.9996 45.813C52.9779 44.2615 52.9996 42.6883 52.9996 41.1274V40.2307C50.6103 40.9413 50.691 39.0453 50.1728 37.7327V38.5612C50.1728 47.4669 50.1541 56.3695 50.1728 65.2752C50.1728 66.7119 49.6856 67.7079 48.4195 68.3782C46.429 69.4421 44.8033 71.0786 43.7526 73.0762C43.0544 74.3701 42.0552 74.879 40.5813 74.8697C31.9653 74.8304 23.3471 74.8304 14.7269 74.8697C13.2871 74.8697 12.2973 74.3763 11.6239 73.1041C10.5719 71.1077 8.94363 69.474 6.95077 68.4154C5.65371 67.7203 5.14791 66.6963 5.15102 65.2379C5.17791 51.6219 5.17791 38.0058 5.15102 24.3897C5.15102 22.9375 5.63509 21.9073 6.94146 21.206C8.93633 20.1526 10.5647 18.5188 11.6115 16.5205C12.3035 15.2048 13.343 14.7238 14.7921 14.7331C21.4326 14.7673 28.0699 14.7331 34.7104 14.7331H35.6041V12.0242C35.2689 12.0025 34.9835 11.9715 34.7228 11.9715H3.72363C2.53207 11.9715 2.3583 12.1452 2.3583 13.3182C2.3583 34.3049 2.3583 55.2896 2.3583 76.2723C2.3583 77.4731 2.54448 77.65 3.77948 77.6531H24.3215C25.5317 77.6531 26.0933 78.0131 26.1119 78.7981C26.1305 79.5832 25.5503 79.9959 24.2967 79.9959H3.66157C1.24121 79.9959 0 78.7578 0 76.3529V13.2406C0 10.8606 1.24121 9.61937 3.60571 9.61937C14.1001 9.61937 24.5935 9.61937 35.0859 9.61937C35.7344 9.61937 35.9981 9.43629 36.2247 8.80017C37.9624 3.87671 41.416 0.980555 46.5857 0.111709C46.736 0.0847793 46.8842 0.0474534 47.0294 0L49.6856 0ZM41.6177 37.0439C40.8202 37.5931 40.0879 38.0834 39.368 38.5954C38.7257 39.0546 38.0679 39.278 37.3573 38.7723C36.6467 38.2665 36.6498 37.6365 36.8142 36.8887C37.8165 32.318 38.794 27.741 39.7962 23.1703C39.8796 22.9299 39.8871 22.6697 39.8178 22.425C39.7484 22.1802 39.6055 21.9627 39.4084 21.8018C38.1888 20.6957 37.2415 19.3225 36.6405 17.7896C36.4202 17.2342 36.1192 17.0759 35.542 17.079C28.6161 17.0976 21.686 17.0976 14.7518 17.079C14.5112 17.057 14.2699 17.1118 14.0625 17.2356C13.8551 17.3594 13.6923 17.5458 13.5974 17.7679C12.3491 20.0671 10.4678 21.9602 8.17646 23.223C7.95599 23.3181 7.77154 23.481 7.64991 23.688C7.52827 23.895 7.47576 24.1354 7.5 24.3742C7.51448 37.9924 7.51448 51.6105 7.5 65.2286C7.47122 65.4706 7.52079 65.7153 7.64143 65.927C7.76207 66.1387 7.94743 66.3061 8.17026 66.4047C10.4704 67.6591 12.3593 69.5512 13.6099 71.8536C13.7052 72.074 13.868 72.2586 14.0749 72.3807C14.2817 72.5028 14.522 72.5562 14.7611 72.5331C23.3544 72.5145 31.9477 72.5145 40.541 72.5331C40.7917 72.5619 41.045 72.5092 41.2635 72.3829C41.482 72.2566 41.654 72.0634 41.7543 71.8318C42.997 69.5554 44.8651 67.6819 47.138 66.4326C47.3689 66.3306 47.5614 66.1577 47.6875 65.939C47.8136 65.7203 47.8667 65.4671 47.8393 65.2162C47.8186 54.1756 47.8186 43.1351 47.8393 32.0946V31.3405C47.7866 31.3642 47.7411 31.4013 47.7073 31.4482C47.6736 31.495 47.6527 31.5499 47.6469 31.6074C47.1318 33.9688 46.6105 36.3302 46.1109 38.6978C45.9402 39.5077 45.6858 40.2245 44.7425 40.3765C43.7991 40.5286 43.3337 39.9142 42.9241 39.2005C42.5145 38.4868 42.0832 37.8258 41.6146 37.0439H41.6177ZM48.3544 23.1299C50.4075 23.1226 52.4124 22.5072 54.1161 21.3616C55.8198 20.2159 57.146 18.5912 57.9273 16.6926C58.7086 14.794 58.91 12.7065 58.5061 10.6935C58.1021 8.68052 57.111 6.83229 55.6577 5.38205C54.2045 3.9318 52.3542 2.94453 50.3404 2.54481C48.3266 2.14509 46.2395 2.35084 44.3425 3.13609C42.4455 3.92134 40.8236 5.25091 39.6815 6.95701C38.5394 8.66311 37.9282 10.6693 37.9251 12.7224C37.9325 15.4836 39.0339 18.1293 40.9882 20.08C42.9424 22.0308 45.5901 23.1275 48.3513 23.1299H48.3544ZM46.5453 25.513L42.0025 23.9801C41.1771 27.7782 40.3393 31.626 39.5356 35.3744C40.4075 35.0393 41.3602 34.3194 42.1204 34.4839C42.8807 34.6483 43.5137 35.6847 44.1994 36.3457C44.969 32.7896 45.7603 29.125 46.5453 25.513ZM57.0708 35.3372C56.2578 31.5794 55.4293 27.7472 54.6163 23.9833L50.0766 25.5099C50.8616 29.1343 51.6529 32.7989 52.4193 36.3705C53.102 35.7003 53.6792 34.6763 54.4487 34.5087C55.2183 34.3411 56.1647 35.0114 57.0677 35.3372H57.0708Z" fill="white"/>
<path id="Vector_2" d="M55.3393 64.3725C55.3393 68.3816 55.3393 72.3897 55.3393 76.3967C55.3393 78.7736 54.0981 79.9931 51.7274 79.9962H30.9588C30.7518 80.0054 30.5444 79.9992 30.3382 79.9776C30.0415 79.9575 29.7639 79.8238 29.5631 79.6045C29.3622 79.3852 29.2535 79.0969 29.2595 78.7996C29.2655 78.5022 29.3857 78.2186 29.5952 78.0075C29.8048 77.7964 30.0875 77.6741 30.3848 77.6659C30.6442 77.6519 30.9042 77.6519 31.1636 77.6659H51.4667C52.9065 77.6659 52.9996 77.5728 52.9996 76.0988C52.9996 68.1861 52.9996 60.2734 52.9996 52.3607C52.9901 52.0239 53.015 51.6871 53.0741 51.3554C53.1305 51.0881 53.2813 50.8501 53.4989 50.685C53.7166 50.5199 53.9864 50.4388 54.259 50.4565C54.5316 50.4742 54.7886 50.5896 54.9831 50.7815C55.1775 50.9733 55.2962 51.2289 55.3176 51.5012C55.3388 51.7613 55.346 52.0223 55.3393 52.2832V64.3725Z" fill="white"/>
<path id="Vector_3" d="M27.1235 55.8547H14.3235C13.1133 55.8547 12.5455 55.4885 12.5238 54.7128C12.502 53.937 13.0947 53.5088 14.339 53.5088H39.8583C41.0809 53.5088 41.6332 53.8656 41.658 54.6507C41.6829 55.4358 41.0964 55.8547 39.8428 55.8547H27.1235Z" fill="white"/>
<path id="Vector_4" d="M27.0739 50.0084H14.3515C14.0906 50.0183 13.8294 50.011 13.5695 49.9867C13.2915 49.9717 13.0296 49.8514 12.837 49.6503C12.6445 49.4491 12.5358 49.1822 12.5331 48.9037C12.5048 48.6248 12.5862 48.3458 12.7599 48.1258C12.9336 47.9057 13.1861 47.7618 13.464 47.7246C13.7184 47.6754 13.9777 47.6556 14.2367 47.6656C22.8237 47.6656 31.4088 47.6656 39.9917 47.6656C40.2253 47.6567 40.4592 47.6713 40.6899 47.7091C40.9679 47.7555 41.2192 47.9024 41.3961 48.1217C41.5731 48.3411 41.6634 48.6177 41.65 48.8992C41.6367 49.1807 41.5205 49.4476 41.3235 49.6491C41.1265 49.8507 40.8624 49.973 40.5813 49.9929C40.3219 50.0069 40.0619 50.0069 39.8024 49.9929L27.0739 50.0084Z" fill="white"/>
<path id="Vector_5" d="M27.0675 59.3636H39.8706C40.1561 59.3636 40.5191 59.2767 40.7115 59.4164C41.0746 59.6801 41.5555 60.0618 41.5897 60.4311C41.6238 60.8003 41.2235 61.2782 40.8915 61.5668C40.6836 61.7499 40.2492 61.7033 39.914 61.7033C31.3807 61.7033 22.8474 61.7033 14.3141 61.7033C13.1195 61.7033 12.5361 61.3278 12.5206 60.5459C12.5051 59.7639 13.0822 59.3605 14.2676 59.3605L27.0675 59.3636Z" fill="white"/>
<path id="Vector_6" d="M27.0647 44.1872H14.3423C13.1011 44.1872 12.4991 43.7838 12.5208 42.977C12.5426 42.1702 13.1073 41.8413 14.3175 41.8413H39.8367C40.0966 41.8346 40.3565 41.8418 40.6156 41.863C40.8946 41.8736 41.1583 41.9933 41.3499 42.1965C41.5414 42.3996 41.6455 42.6699 41.6396 42.9491C41.6712 43.2126 41.6002 43.4782 41.4414 43.6908C41.2825 43.9034 41.0479 44.0467 40.7863 44.091C40.4803 44.1556 40.168 44.1858 39.8553 44.181L27.0647 44.1872Z" fill="white"/>
<path id="Vector_7" d="M27.0675 30.9401C24.9885 30.9401 22.9095 30.9401 20.8305 30.9401C19.9958 30.9401 19.5086 30.5398 19.4527 29.8695C19.3876 29.1155 19.9368 28.6097 20.8801 28.6035C23.1919 28.6035 25.5036 28.6035 27.8185 28.6035C29.6617 28.6035 31.508 28.6035 33.3543 28.6035C34.1921 28.6035 34.6699 29.0131 34.7196 29.6865C34.7754 30.4405 34.2728 30.9277 33.3822 30.9277C31.2783 30.9494 29.1683 30.9401 27.0675 30.9401Z" fill="white"/>
<path id="Vector_8" d="M43.2406 17.4395C43.3678 16.6917 43.5664 15.7452 43.6781 14.7926C43.7012 14.4764 43.6024 14.1633 43.402 13.9176C42.8093 13.2628 42.1421 12.6763 41.5153 12.0557C41.0654 11.6089 40.8141 11.0938 41.0375 10.436C41.2609 9.77813 41.7822 9.47713 42.4493 9.38404C43.0343 9.259 43.6275 9.17604 44.2243 9.1358C45.2266 9.1358 45.7758 8.69517 46.1047 7.76427C46.3277 7.20949 46.5879 6.67041 46.8836 6.1507C47.1939 5.55181 47.6128 5.14221 48.3327 5.15152C49.0526 5.16083 49.428 5.54871 49.7135 6.12587C50.0549 6.82715 50.4489 7.50672 50.7406 8.22662C50.8197 8.47174 50.9742 8.68562 51.1821 8.83774C51.3899 8.98986 51.6405 9.07246 51.898 9.07374C52.6738 9.1358 53.4496 9.27854 54.216 9.38404C54.8521 9.47403 55.3641 9.76261 55.5689 10.4018C55.666 10.6882 55.6744 10.9972 55.5931 11.2884C55.5117 11.5796 55.3443 11.8395 55.1128 12.034C54.6345 12.5491 54.1269 13.0361 53.5923 13.4924C52.9003 14.0106 52.8103 14.6126 53.0089 15.3853C53.2188 16.056 53.3347 16.7525 53.3534 17.455C53.3378 17.967 53.1268 18.6342 52.7607 18.9258C52.3945 19.2175 51.7088 19.1958 51.2557 19.0406C50.4546 18.7331 49.688 18.342 48.9688 17.8739C48.7676 17.7368 48.5287 17.6656 48.2853 17.6701C48.0418 17.6745 47.8058 17.7544 47.6097 17.8987C46.8713 18.3356 46.1088 18.7303 45.3258 19.081C44.1995 19.5837 43.1817 18.8638 43.2406 17.4395ZM50.7841 16.1641C49.9897 14.172 50.5544 12.6826 52.2673 11.4724C50.0952 11.5934 48.8912 10.6066 48.3172 8.59277C47.7307 10.6035 46.4957 11.6058 44.3329 11.4879C46.1481 12.6546 46.505 14.203 45.8844 16.1766C47.5631 14.7678 49.1302 14.926 50.7841 16.1641Z" fill="white"/>
</g>
</g>
</svg>
