<svg width="80" height="80" viewBox="0 0 80 80" fill="none" xmlns="http://www.w3.org/2000/svg">
<g id="Capa 2">
<g id="Capa 1">
<path id="Vector" d="M58.4179 0.0101227C59.5314 0.570243 59.8283 1.49478 59.8249 2.7095C59.7979 15.9612 59.7979 29.2117 59.8249 42.4612V43.4228C62.1695 43.731 64.4136 44.5674 66.3878 45.8691C69.0631 47.6264 71.1126 50.1862 72.2421 53.1811C72.5795 54.0415 72.377 54.7029 71.7224 54.966C71.0678 55.2292 70.4335 54.9121 70.0556 54.0111C67.8623 48.7541 63.2869 45.6465 57.743 45.6532C50.3366 45.6532 44.1989 52.6075 45.0998 59.9633C45.8422 66.0369 50.0262 70.447 56.0087 71.4964C62.9393 72.7111 69.9813 67.4473 70.7878 60.4761C70.8384 60.0375 70.8755 59.5955 70.9194 59.1568C70.922 58.9965 70.9576 58.8384 71.0239 58.6923C71.0902 58.5463 71.1858 58.4154 71.3048 58.3079C71.4237 58.2003 71.5635 58.1183 71.7155 58.067C71.8674 58.0157 72.0283 57.9962 72.1881 58.0096C72.3479 58.023 72.5033 58.0691 72.6446 58.1451C72.7858 58.2211 72.91 58.3252 73.0093 58.4511C73.1086 58.5771 73.181 58.722 73.222 58.8771C73.263 59.0322 73.2717 59.194 73.2476 59.3525C73.1536 61.4113 72.6451 63.43 71.7528 65.2878C71.6381 65.5206 71.5267 65.7534 71.3884 66.0402L75.1 69.3605C76.1899 70.3289 77.2865 71.2905 78.3696 72.2623C80.2828 73.9832 80.5291 76.7635 78.9298 78.5485C77.273 80.4009 74.5163 80.492 72.5694 78.7543C70.2783 76.7095 67.9838 74.6647 65.7096 72.5997C65.5825 72.4448 65.4027 72.3423 65.2047 72.3118C65.0067 72.2813 64.8044 72.3249 64.6366 72.4344C61.6921 73.8833 58.357 74.3376 55.1323 73.7292C51.9075 73.1207 48.9673 71.4823 46.7532 69.0602C46.615 68.8944 46.4398 68.7635 46.2417 68.6779C46.0436 68.5923 45.8281 68.5545 45.6127 68.5675C44.1854 68.5945 42.7547 68.5675 41.2262 68.5675V72.097C41.2262 74.0945 40.602 74.7322 38.6348 74.7322C26.6091 74.7322 14.5823 74.7379 2.55428 74.7491C1.34969 74.7491 0.489262 74.3948 0 73.2746V13.7567C0.576992 12.6702 1.49141 12.2957 2.69938 12.3665C3.82974 12.4306 4.96685 12.3665 6.17145 12.3665C6.17145 11.0978 6.17145 9.9337 6.17145 8.7696C6.17145 6.82267 6.79231 6.19844 8.72911 6.19507H12.3395C12.3395 4.91961 12.3935 3.75213 12.3395 2.58803C12.2855 1.42392 12.6769 0.529753 13.7634 0L58.4179 0.0101227ZM14.7285 2.39232V60.0071C16.753 60.0071 18.7303 60.0274 20.7076 60.0071C22.1163 60.0032 23.4777 59.4984 24.5483 58.5829C25.619 57.6674 26.3291 56.4009 26.5517 55.0099C26.7407 53.8391 26.6597 52.6277 26.7002 51.4332C26.7306 50.5593 27.1254 50.1274 27.9959 50.124C30.4152 50.1072 32.8345 50.124 35.2572 50.124C36.0772 50.124 36.5496 50.5593 36.5631 51.2544C36.5765 51.9495 36.0907 52.4489 35.2336 52.4556C33.4621 52.4759 31.6941 52.4556 29.9226 52.4556H29.0115C29.2376 55.3406 28.5324 57.8375 26.4876 59.9565H42.6839C42.4943 57.3924 42.9224 54.8201 43.9324 52.4556C42.7885 52.4556 41.756 52.4556 40.7201 52.4556C39.8057 52.4556 39.3063 51.9934 39.3265 51.2375C39.3468 50.4817 39.8192 50.1274 40.7235 50.1207C41.9989 50.1207 43.2744 50.0903 44.5465 50.1207C44.7619 50.1388 44.9781 50.0959 45.1702 49.9968C45.3624 49.8978 45.5228 49.7466 45.633 49.5605C47.3383 47.1363 49.7576 45.3044 52.5535 44.3204C54.109 43.7839 55.7556 43.5004 57.409 43.0888V2.39232H14.7285ZM8.50641 8.59076V9.77512C8.50641 21.3352 8.50641 32.8941 8.50641 44.452C8.52033 44.7902 8.50339 45.1291 8.4558 45.4642C8.42437 45.7415 8.28485 45.9951 8.06753 46.1701C7.85021 46.3451 7.57263 46.4273 7.29506 46.3989C7.02998 46.4082 6.77116 46.3171 6.57034 46.1438C6.36953 45.9705 6.24153 45.7278 6.21194 45.4642C6.16912 45.1286 6.15333 44.7901 6.1647 44.452C6.1647 34.8962 6.1647 25.3415 6.1647 15.788V14.7757H2.38557V72.3399H38.7968V68.5675H8.60089C6.89016 68.5675 6.17482 67.8589 6.1647 66.155C6.1647 64.6973 6.1647 63.2396 6.1647 61.7685C6.1647 57.9961 6.1647 54.2203 6.1647 50.4446C6.1647 49.5032 6.59997 49.0173 7.35243 49.0308C8.10488 49.0443 8.46929 49.5133 8.50304 50.4108C8.50304 50.6437 8.50304 50.8799 8.50304 51.1127C8.50304 55.8366 8.50304 60.5493 8.50304 65.2507C8.50304 65.551 8.5334 65.8513 8.55027 66.1651H44.533C44.0201 64.8728 43.5207 63.6277 43.0213 62.3387H14.165C12.6196 62.3387 12.3463 62.0654 12.3463 60.5301V8.56715L8.50641 8.59076ZM67.4102 70.9868C69.6304 72.9743 71.9249 75.0359 74.2396 77.0942C74.4966 77.3385 74.8133 77.5111 75.1579 77.5946C75.5025 77.6781 75.8631 77.6696 76.2034 77.5699C76.5347 77.4934 76.8374 77.3243 77.0764 77.0824C77.3153 76.8404 77.4806 76.5356 77.5531 76.2034C77.6559 75.8101 77.6418 75.3953 77.5123 75.0099C77.3828 74.6245 77.1437 74.2852 76.8242 74.0338C74.6513 72.0947 72.476 70.1602 70.2985 68.2301C70.2189 68.173 70.1328 68.1254 70.0421 68.0884L70.1804 68.274L67.4102 70.9868Z" fill="white"/>
<path id="Vector_2" d="M57.9723 68.6484C56.6548 68.6484 55.3502 68.3883 54.1333 67.8831C52.9165 67.3779 51.8114 66.6374 50.8813 65.7042C49.9512 64.771 49.2145 63.6634 48.7134 62.4449C48.2122 61.2263 47.9566 59.9209 47.961 58.6033C47.961 53.2383 52.4757 48.6494 57.8137 48.6224C59.1424 48.5899 60.4643 48.8221 61.7023 49.3057C62.9404 49.7892 64.0697 50.5144 65.0247 51.4388C65.9796 52.3633 66.7409 53.4686 67.2643 54.6903C67.7877 55.912 68.0627 57.2257 68.0732 58.5548C68.0837 59.8838 67.8296 61.2017 67.3256 62.4315C66.8216 63.6614 66.0779 64.7786 65.1377 65.7181C64.1976 66.6576 63.0798 67.4005 61.8496 67.9036C60.6194 68.4067 59.3014 68.6599 57.9723 68.6484ZM57.9352 66.2864C59.941 66.2443 61.8505 65.418 63.2541 63.9846C64.6578 62.5511 65.4439 60.6248 65.4439 58.6185C65.4439 56.6123 64.6578 54.6859 63.2541 53.2525C61.8505 51.819 59.941 50.9927 57.9352 50.9506C55.9294 50.9927 54.0199 51.819 52.6162 53.2525C51.2126 54.6859 50.4264 56.6123 50.4264 58.6185C50.4264 60.6248 51.2126 62.5511 52.6162 63.9846C54.0199 65.418 55.9294 66.2443 57.9352 66.2864Z" fill="white"/>
<path id="Vector_3" d="M52.3309 21.0754V9.56926H40.7809C40.7809 10.2913 40.7809 11.037 40.7809 11.7794C40.7809 12.6938 40.3322 13.2067 39.5932 13.1898C38.8543 13.1729 38.4595 12.66 38.4595 11.7996C38.4595 10.9392 38.4359 10.0821 38.4595 9.22172C38.4932 7.95638 39.2524 7.17357 40.5211 7.16682C44.5702 7.14882 48.6305 7.14882 52.7021 7.16682C53.9471 7.16682 54.7266 7.92939 54.7266 9.16773C54.7446 13.255 54.7446 17.3412 54.7266 21.4263C54.7266 22.7051 53.9438 23.4508 52.6582 23.4508C48.6271 23.4508 44.5927 23.4508 40.5549 23.4508C39.2862 23.4508 38.5033 22.6781 38.473 21.4263C38.4426 20.2284 38.4527 19.0306 38.473 17.8327C38.473 17.0297 38.9386 16.5438 39.6236 16.5303C40.3085 16.5168 40.7978 17.0027 40.8079 17.8597C40.8079 18.9192 40.8079 19.9787 40.8079 21.0787L52.3309 21.0754Z" fill="white"/>
<path id="Vector_4" d="M30.5334 44.4419H19.2264C18.9145 44.4545 18.6023 44.433 18.2951 44.3778C17.7451 44.2529 17.3706 43.8379 17.4785 43.3149C17.6159 42.8733 17.8871 42.4854 18.2546 42.2048C18.4469 42.0394 18.8518 42.1035 19.1623 42.1035H42.0361C42.2956 42.0961 42.5552 42.1108 42.8122 42.1474C43.082 42.1892 43.3279 42.3261 43.5056 42.5335C43.6832 42.7408 43.7808 43.0048 43.7808 43.2778C43.7808 43.5508 43.6832 43.8148 43.5056 44.0221C43.3279 44.2294 43.082 44.3663 42.8122 44.4081C42.529 44.4424 42.2436 44.4549 41.9585 44.4452L30.5334 44.4419Z" fill="white"/>
<path id="Vector_5" d="M28.0971 37.9025C25.13 37.9025 22.1663 37.9025 19.206 37.9025C18.8686 37.9025 18.4401 37.9666 18.2241 37.7912C17.8572 37.5091 17.591 37.1163 17.4649 36.6709C17.3637 36.1479 17.7416 35.7397 18.295 35.6182C18.5756 35.5697 18.8607 35.5516 19.1453 35.5642C25.0974 35.5642 31.0495 35.5642 37.0016 35.5642C37.2608 35.5551 37.5203 35.5664 37.7777 35.5979C38.04 35.6406 38.2791 35.7735 38.4538 35.9737C38.6284 36.1739 38.7278 36.4288 38.7346 36.6944C38.7414 36.96 38.6552 37.2197 38.491 37.4285C38.3268 37.6374 38.0948 37.7824 37.8351 37.8384C37.529 37.8937 37.2179 37.9152 36.9072 37.9025H28.0971Z" fill="white"/>
<path id="Vector_6" d="M36.0769 29.1331H43.5002C43.7595 29.1234 44.0191 29.1358 44.2763 29.1702C44.4219 29.1794 44.5641 29.2179 44.6945 29.2833C44.8249 29.3487 44.9408 29.4397 45.0352 29.5509C45.1297 29.662 45.2008 29.7911 45.2443 29.9303C45.2879 30.0695 45.3029 30.2161 45.2886 30.3613C45.2925 30.638 45.1894 30.9055 45.0007 31.1079C44.8121 31.3104 44.5526 31.4321 44.2763 31.4478C44.0431 31.4708 43.8087 31.4787 43.5745 31.4714C38.5761 31.4714 33.5789 31.4714 28.5828 31.4714C28.3233 31.4823 28.0633 31.4676 27.8067 31.4275C27.5518 31.3774 27.3215 31.2417 27.1542 31.0429C26.9869 30.8441 26.8924 30.5942 26.8865 30.3344C26.8806 30.0746 26.9636 29.8206 27.1217 29.6144C27.2799 29.4082 27.5037 29.2622 27.7561 29.2006C28.0372 29.146 28.3236 29.1234 28.6098 29.1331H36.0769Z" fill="white"/>
<path id="Vector_7" d="M26.5786 21.5714H18.936C17.9507 21.5714 17.4243 21.1563 17.4243 20.4039C17.4243 19.6514 17.9676 19.2432 18.9427 19.2432H34.2279C35.1423 19.2432 35.6856 19.6717 35.7092 20.3803C35.7328 21.0889 35.193 21.5781 34.2988 21.5815C31.7108 21.5781 29.1531 21.5714 26.5786 21.5714Z" fill="white"/>
<path id="Vector_8" d="M26.5921 9.04953C29.1396 9.04953 31.6871 9.04953 34.2347 9.04953C35.166 9.04953 35.689 9.46118 35.7092 10.1799C35.7295 10.8986 35.1592 11.3879 34.2111 11.3879C29.0935 11.3879 23.9737 11.3879 18.8516 11.3879C17.7651 11.3879 17.1375 10.5983 17.5019 9.74124C17.7449 9.19799 18.2105 9.0394 18.7808 9.04278C21.3958 9.05627 23.9939 9.0529 26.5921 9.04953Z" fill="white"/>
<path id="Vector_9" d="M26.6259 14.1379C29.0722 14.1379 31.5185 14.1379 33.9682 14.1379C34.253 14.1258 34.5383 14.1462 34.8185 14.1986C35.0711 14.2596 35.2952 14.4049 35.4539 14.6106C35.6126 14.8163 35.6963 15.07 35.6912 15.3297C35.6861 15.5895 35.5924 15.8397 35.4258 16.039C35.2591 16.2383 35.0294 16.3747 34.7746 16.4256C34.491 16.4679 34.2042 16.4848 33.9176 16.4762H19.2262C17.9508 16.4762 17.4042 16.1118 17.421 15.2818C17.4379 14.4517 17.9744 14.1345 19.1992 14.1345L26.6259 14.1379Z" fill="white"/>
<path id="Vector_10" d="M48.187 35.5641C49.9821 35.5641 51.7772 35.5473 53.5858 35.5641C53.7424 35.5559 53.8991 35.5795 54.0463 35.6335C54.1935 35.6876 54.3283 35.7708 54.4424 35.8784C54.5566 35.9859 54.6478 36.1155 54.7105 36.2592C54.7732 36.403 54.8061 36.5579 54.8073 36.7147C54.7997 37.0176 54.6767 37.3061 54.4634 37.5212C54.2502 37.7363 53.9628 37.8619 53.66 37.8721C53.4267 37.8936 53.1924 37.9015 52.9582 37.8957H43.3417C43.1864 37.8957 43.0312 37.8957 42.8726 37.8957C41.9852 37.8485 41.5229 37.4436 41.5229 36.7181C41.5229 35.9927 41.9852 35.5675 42.8726 35.5608C44.6441 35.5608 46.4122 35.5608 48.1837 35.5608L48.187 35.5641Z" fill="white"/>
</g>
</g>
</svg>
