<svg width="76" height="80" viewBox="0 0 76 80" fill="none" xmlns="http://www.w3.org/2000/svg">
<g id="Capa 2">
<g id="Capa 1">
<path id="Vector" d="M72.2091 0C72.9227 0.35681 73.7077 0.62054 74.3314 1.09525C74.8553 1.489 75.2771 2.00284 75.5611 2.59353C75.8451 3.18422 75.983 3.83448 75.9634 4.48961C75.9634 11.2887 75.9634 18.0856 75.9634 24.8805C75.9634 25.7617 75.5476 26.2519 74.8309 26.2675C74.1142 26.283 73.6271 25.771 73.6271 24.8588C73.6271 18.2708 73.6271 11.6827 73.6271 5.09463C73.6271 3.12752 72.8483 2.34564 70.8998 2.34254H5.12256C3.11821 2.34254 2.35805 3.11201 2.35805 5.13497V74.8216C2.35805 76.9004 3.1027 77.6575 5.15048 77.6575H70.8532C72.8607 77.6575 73.6271 76.888 73.6271 74.865V31.2783C73.6271 30.0372 74.0025 29.4601 74.8309 29.4756C75.6593 29.4912 75.9696 30.0155 75.9696 31.2504V74.9209C75.9696 78.1818 74.1514 80 70.8967 80H5.02948C1.8337 80 0 78.1632 0 74.955V5.50419C0 2.28669 0.775675 1.148 3.76047 0H72.2091Z" fill="white"/>
<path id="Vector_2" d="M32.3022 41.93C36.1309 40.0498 39.8914 40.0684 43.6612 41.93C43.897 41.5111 44.1049 41.1264 44.3283 40.751C45.66 38.5137 47.6843 36.7712 50.0947 35.7873C52.5052 34.8033 55.1707 34.6314 57.6876 35.2976C60.2045 35.9639 62.4358 37.4319 64.0438 39.4796C65.6518 41.5272 66.549 44.043 66.5994 46.6461C66.6274 48.2843 66.5994 49.9256 66.5994 51.567C66.5994 54.0926 65.0915 55.6005 62.5659 55.6005C58.6855 55.6005 54.8051 55.6005 50.9246 55.6005H49.9938C49.9938 56.2521 49.9938 56.8416 49.9938 57.4311C49.9504 59.6433 48.3928 61.2195 46.1775 61.2257C40.7105 61.2443 35.2415 61.2443 29.7704 61.2257C27.5675 61.2257 26.013 59.6247 25.9727 57.4094C25.9727 56.8416 25.9727 56.2738 25.9727 55.6005H21.8058C21.4955 55.6005 21.1852 55.6191 20.875 55.6005C20.5723 55.5881 20.2857 55.4615 20.0727 55.2462C19.8597 55.0308 19.7361 54.7428 19.727 54.4401C19.7264 54.2829 19.7577 54.1272 19.8191 53.9825C19.8805 53.8378 19.9707 53.7071 20.0842 53.5983C20.1976 53.4895 20.332 53.4049 20.4791 53.3496C20.6263 53.2943 20.7831 53.2694 20.9401 53.2766C22.4232 53.2548 23.9094 53.2766 25.3925 53.2766C25.5476 53.2766 25.7028 53.2766 25.8765 53.2579C25.9975 52.2123 26.0596 51.1822 26.2457 50.1552C26.6959 47.704 27.9399 45.469 29.7859 43.7947C30.1986 43.41 30.2761 43.1276 30.0248 42.6219C28.0825 38.697 23.6209 36.5065 19.395 37.4342C17.2599 37.8739 15.3375 39.0258 13.9429 40.7012C12.5483 42.3766 11.7641 44.476 11.7189 46.6554C11.6879 48.3464 11.7003 50.0404 11.7189 51.7314C11.7189 52.7615 12.2277 53.2486 13.2703 53.2828C14.0273 53.2828 14.7844 53.2611 15.5352 53.3045C15.6802 53.3005 15.8245 53.3265 15.959 53.3809C16.0935 53.4353 16.2152 53.5169 16.3166 53.6206C16.418 53.7244 16.4969 53.848 16.5482 53.9837C16.5996 54.1193 16.6223 54.2642 16.615 54.409C16.6361 54.5537 16.6263 54.7012 16.586 54.8417C16.5458 54.9822 16.4761 55.1126 16.3816 55.2241C16.2871 55.3356 16.17 55.4258 16.0379 55.4885C15.9059 55.5513 15.762 55.5852 15.6159 55.5881C14.5271 55.6757 13.4322 55.6497 12.3487 55.5105C11.5131 55.3866 10.7515 54.9615 10.2075 54.3152C9.66347 53.6688 9.37449 52.8459 9.39498 52.0014C9.39498 49.6867 9.25846 47.3473 9.56563 45.0637C10.2389 39.8698 14.3003 35.889 19.426 35.0358C21.9004 34.6412 24.4363 35.0295 26.6793 36.1465C28.9222 37.2635 30.7601 39.0534 31.9361 41.266C32.0447 41.4677 32.1595 41.6694 32.3022 41.93ZM37.9895 58.9018C40.6785 58.9018 43.3602 58.9018 46.0348 58.9018C47.0462 58.9018 47.642 58.4208 47.642 57.4931C47.642 55.3616 47.7226 53.2114 47.4992 51.0985C47.0059 46.4786 42.7273 42.8515 37.9801 42.8546C33.233 42.8577 28.9823 46.4817 28.4673 51.1078C28.2501 53.1183 28.3401 55.163 28.3183 57.1922C28.3183 58.4146 28.8024 58.8987 30.0186 58.9018C32.6745 58.9059 35.3315 58.9059 37.9895 58.9018ZM50.1117 53.2114C50.1673 53.2381 50.2272 53.2549 50.2886 53.2611C54.4772 53.2611 58.6658 53.2766 62.8545 53.2611C63.7357 53.2611 64.2507 52.7181 64.2569 51.8307C64.2755 50.0342 64.2972 48.2378 64.2569 46.4444C64.1421 42.0789 60.8812 38.3122 56.4753 37.4032C54.377 37.0079 52.2069 37.3146 50.3002 38.2758C48.3935 39.237 46.8564 40.7992 45.9262 42.7212C45.8731 42.7979 45.8358 42.8844 45.8166 42.9757C45.7974 43.0669 45.7966 43.1611 45.8142 43.2527C45.8318 43.3443 45.8675 43.4315 45.9193 43.5091C45.971 43.5867 46.0377 43.6532 46.1154 43.7047C47.8924 45.2925 49.1262 47.3978 49.6432 49.724C49.8945 50.8534 49.9535 52.0262 50.1117 53.2114Z" fill="white"/>
<path id="Vector_3" d="M45.3491 31.843C45.3332 33.2976 44.8869 34.7149 44.0665 35.9162C43.2461 37.1175 42.0884 38.049 40.7394 38.5932C39.3903 39.1374 37.9103 39.27 36.486 38.9742C35.0617 38.6785 33.7569 37.9676 32.7361 36.9312C31.7153 35.8948 31.0242 34.5794 30.75 33.1508C30.4758 31.7222 30.6307 30.2444 31.1952 28.9037C31.7598 27.5631 32.7086 26.4196 33.9222 25.6174C35.1358 24.8153 36.5596 24.3905 38.0143 24.3965C38.9853 24.4022 39.9457 24.5995 40.8403 24.9771C41.735 25.3547 42.5462 25.9052 43.2277 26.597C43.9091 27.2888 44.4472 28.1083 44.8113 29.0086C45.1753 29.9088 45.3581 30.872 45.3491 31.843ZM43.0066 31.7903C43.0053 30.796 42.709 29.8244 42.1552 28.9986C41.6014 28.1729 40.815 27.53 39.8955 27.1515C38.9761 26.773 37.965 26.6758 36.9903 26.8724C36.0157 27.0689 35.1212 27.5503 34.4203 28.2556C33.7194 28.9608 33.2436 29.8582 33.0531 30.8341C32.8626 31.81 32.966 32.8204 33.3502 33.7375C33.7343 34.6546 34.3821 35.437 35.2112 35.9857C36.0404 36.5344 37.0138 36.8247 38.0081 36.8198C39.3366 36.8116 40.6079 36.2781 41.5444 35.3357C42.481 34.3934 43.0066 33.1188 43.0066 31.7903Z" fill="white"/>
<path id="Vector_4" d="M21.3592 33.5087C19.8973 33.5087 18.4684 33.0746 17.2536 32.2615C16.0387 31.4483 15.0927 30.2927 14.5354 28.9413C13.9781 27.5898 13.8347 26.1033 14.1233 24.6702C14.4119 23.2371 15.1195 21.922 16.1565 20.8916C17.1935 19.8611 18.513 19.1618 19.9479 18.8823C21.3828 18.6028 22.8684 18.7556 24.2163 19.3214C25.5642 19.8872 26.7138 20.8406 27.5192 22.0605C28.3247 23.2805 28.7497 24.7121 28.7405 26.174C28.7186 28.1205 27.9324 29.9804 26.5515 31.3526C25.1707 32.7247 23.3058 33.4991 21.3592 33.5087ZM21.3592 21.0979C20.3646 21.098 19.3923 21.3924 18.5647 21.944C17.7371 22.4956 17.0913 23.2799 16.7086 24.1979C16.3259 25.1159 16.2234 26.1266 16.4141 27.1028C16.6048 28.0789 17.0801 28.9768 17.7801 29.6833C18.4802 30.3898 19.3736 30.8733 20.348 31.073C21.3223 31.2726 22.3339 31.1794 23.2554 30.8052C24.1769 30.4309 24.967 29.7923 25.5263 28.9699C26.0855 28.1474 26.3888 27.1778 26.398 26.1833C26.3988 24.8413 25.8689 23.5534 24.9237 22.6007C23.9786 21.648 22.695 21.1078 21.353 21.0979H21.3592Z" fill="white"/>
<path id="Vector_5" d="M54.6075 33.5087C53.1462 33.5062 51.7185 33.0701 50.5053 32.2554C49.2921 31.4408 48.348 30.2844 47.7926 28.9327C47.2372 27.581 47.0956 26.0949 47.3856 24.6626C47.6756 23.2303 48.3842 21.9164 49.4216 20.8872C50.4591 19.858 51.7787 19.1599 53.2132 18.8814C54.6478 18.6029 56.1327 18.7564 57.4799 19.3226C58.8271 19.8888 59.9759 20.8421 60.7808 22.0618C61.5857 23.2815 62.0105 24.7126 62.0013 26.1739C61.9801 28.1229 61.1924 29.9851 59.8087 31.3578C58.4251 32.7304 56.5566 33.5031 54.6075 33.5087ZM54.6075 21.0979C53.6132 21.1016 52.6422 21.3994 51.8168 21.9538C50.9914 22.5082 50.3484 23.2945 49.9689 24.2135C49.5894 25.1326 49.4903 26.1434 49.6841 27.1186C49.8779 28.0939 50.3558 28.99 51.0579 29.6942C51.7599 30.3983 52.6545 30.8791 53.6292 31.0758C54.6039 31.2726 55.615 31.1766 56.5352 30.7999C57.4554 30.4232 58.2436 29.7827 58.8005 28.9589C59.3574 28.1352 59.6582 27.1651 59.6649 26.1708C59.6625 24.8289 59.1294 23.5423 58.1819 22.5919C57.2344 21.6415 55.9495 21.1045 54.6075 21.0979Z" fill="white"/>
<path id="Vector_6" d="M62.147 13.0005C63.0623 12.9137 63.9807 12.8237 64.8991 12.7399C65.2604 12.6925 65.6238 12.6635 65.9881 12.653C66.2902 12.6385 66.586 12.7432 66.8117 12.9446C67.0374 13.1459 67.1751 13.4279 67.1951 13.7297C67.2132 14.0347 67.112 14.3348 66.9128 14.5664C66.7136 14.7981 66.432 14.9431 66.1277 14.9707C65.1969 15.1011 64.2661 15.1817 63.3353 15.281C61.9112 15.4206 60.487 15.5634 59.0598 15.6844C58.0142 15.7712 57.4774 15.2283 57.5829 14.2075C57.8166 11.9322 58.0524 9.65686 58.2903 7.38155C58.3834 6.48797 58.886 6.01946 59.6307 6.11564C60.3195 6.20562 60.698 6.77962 60.6173 7.62976C60.4718 8.82697 60.4024 10.0322 60.4095 11.2382L64.5764 7.06507C64.8711 6.7548 65.1504 6.44453 65.4669 6.19011C65.5711 6.08124 65.6963 5.9946 65.835 5.93541C65.9736 5.87622 66.1228 5.8457 66.2736 5.8457C66.4243 5.8457 66.5735 5.87622 66.7121 5.93541C66.8508 5.9946 66.976 6.08124 67.0803 6.19011C67.1895 6.29355 67.2774 6.41752 67.3387 6.55493C67.4 6.69233 67.4337 6.84049 67.4377 6.99091C67.4418 7.14133 67.4161 7.29107 67.3622 7.43157C67.3083 7.57207 67.2273 7.70057 67.1237 7.80972C66.5869 8.41164 65.9974 8.96392 65.4265 9.53482L62.0756 12.8454L62.147 13.0005Z" fill="white"/>
<path id="Vector_7" d="M13.8814 12.8203L9.51595 8.4765C9.35151 8.30896 9.18086 8.14762 9.01952 7.98007C8.43621 7.35953 8.38036 6.68004 8.87059 6.18361C9.36082 5.68718 10.0341 5.69649 10.6546 6.31082C12.1191 7.75875 13.5753 9.21288 15.0232 10.6732C15.2001 10.8501 15.3335 11.058 15.5104 11.2503L15.7089 11.1479C15.6003 10.0527 15.47 8.95742 15.3987 7.85907C15.3707 7.45882 15.3335 6.92826 15.5476 6.67384C15.8509 6.34689 16.2717 6.15381 16.7173 6.13707C17.2944 6.13707 17.6109 6.60868 17.6729 7.18888C17.8839 9.20874 18.0856 11.2224 18.2935 13.2454C18.2935 13.2981 18.2935 13.3508 18.2935 13.4036C18.6999 15.2869 18.1508 15.8858 16.0657 15.622C14.0521 15.3676 12.0322 15.2032 10.0093 15.0015C9.2243 14.9177 8.73717 14.4244 8.7682 13.7604C8.79923 13.0964 9.34841 12.6062 10.1861 12.6683C11.3962 12.7582 12.6031 12.8947 13.8132 13.0127L13.8814 12.8203Z" fill="white"/>
<path id="Vector_8" d="M15.5383 68.8053L11.0797 73.2763C10.9153 73.4407 10.7539 73.6145 10.5802 73.7696C9.98136 74.3064 9.3391 74.3126 8.85198 73.8006C8.74372 73.6867 8.65972 73.552 8.60509 73.4046C8.55046 73.2573 8.52632 73.1004 8.53416 72.9434C8.54199 72.7864 8.58163 72.6327 8.65066 72.4915C8.71969 72.3503 8.81668 72.2246 8.93575 72.1221C10.1551 70.881 11.3962 69.6399 12.6311 68.4174C13.0935 68.0082 13.4975 67.5374 13.8318 67.0181L11.0983 67.2726C10.7353 67.3067 10.3723 67.3625 10.0093 67.3625C9.7065 67.3842 9.40724 67.2866 9.17537 67.0907C8.9435 66.8948 8.79739 66.616 8.76821 66.3138C8.75768 66.1573 8.77818 66.0002 8.82851 65.8516C8.87885 65.703 8.95804 65.5658 9.06153 65.4479C9.16503 65.33 9.29079 65.2337 9.4316 65.1645C9.57241 65.0954 9.7255 65.0547 9.88208 65.0448C10.8625 64.9207 11.8492 64.8338 12.8327 64.7345C14.2041 64.6011 15.5755 64.4553 16.95 64.3467C17.9553 64.266 18.5014 64.8121 18.3866 65.7926C18.1611 68.0575 17.9274 70.3277 17.6854 72.603C17.5923 73.509 17.1083 73.9837 16.376 73.9061C15.6438 73.8286 15.2684 73.2452 15.3583 72.3548C15.4731 71.1944 15.5972 70.0371 15.7152 68.8766L15.5383 68.8053Z" fill="white"/>
<path id="Vector_9" d="M62.0881 67.1669L66.6056 71.672C66.7983 71.8464 66.9796 72.033 67.1486 72.2305C67.3478 72.4595 67.4489 72.7576 67.4304 73.0606C67.4118 73.3635 67.275 73.6471 67.0493 73.8501C66.9489 73.9544 66.8284 74.0374 66.6951 74.0941C66.5619 74.1508 66.4185 74.1801 66.2737 74.1801C66.1288 74.1801 65.9855 74.1508 65.8522 74.0941C65.7189 74.0374 65.5984 73.9544 65.498 73.8501C64.9736 73.3847 64.4927 72.8665 63.9963 72.3701L60.2451 68.6065C60.363 69.8724 60.4592 70.9118 60.5554 71.9512C60.574 72.1591 60.6174 72.3639 60.6236 72.5718C60.6485 73.3071 60.2358 73.8314 59.5904 73.8997C58.9451 73.968 58.3773 73.5274 58.2935 72.7517C58.0763 70.707 57.8747 68.6624 57.673 66.6177C57.673 66.5649 57.673 66.5122 57.673 66.4594C57.5085 64.452 57.7381 64.2007 59.727 64.3744C61.8275 64.5606 63.9249 64.784 66.0192 64.995C66.7887 65.0787 67.2603 65.6155 67.2045 66.2795C67.1486 66.9435 66.6056 67.3747 65.8083 67.3158C64.5951 67.2258 63.3819 67.0893 62.1688 66.9714L62.0881 67.1669Z" fill="white"/>
</g>
</g>
</svg>
