<svg width="74" height="80" viewBox="0 0 74 80" fill="none" xmlns="http://www.w3.org/2000/svg">
<g id="Capa 16">
<g id="Group">
<path id="Vector" d="M28.4518 79.9999C27.0255 79.5023 25.921 78.6769 25.5811 77.1111C25.5022 76.7348 25.484 76.3342 25.484 75.9519C25.4779 73.1905 25.484 70.4351 25.484 67.5827C25.0713 67.5645 24.695 67.5523 24.3188 67.522C23.6451 67.4674 23.2567 67.0729 23.2324 66.4174C23.202 65.7559 23.5844 65.2886 24.2338 65.234C25.0895 65.1611 25.9574 65.149 26.8071 65.234C27.59 65.3128 27.8388 65.9076 27.8388 66.648C27.8267 69.6947 27.8388 72.7414 27.8388 75.788C27.8388 77.2324 28.2576 77.6512 29.6898 77.6512C37.9498 77.6512 46.2098 77.6512 54.4637 77.6512C55.8595 77.6512 56.2965 77.2203 56.2965 75.8487C56.2965 72.1769 56.2965 68.5052 56.2965 64.8334C56.2965 64.5967 56.2844 64.36 56.3086 64.1294C56.3754 63.4679 56.8791 62.9945 57.486 63.0005C58.099 63.0005 58.5967 63.48 58.6331 64.1537C58.6634 64.6756 58.6452 65.1975 58.6452 65.7134C58.6452 68.9421 58.5724 72.1769 58.6695 75.3996C58.7363 77.6998 57.8927 79.2595 55.6714 79.9999H28.47H28.4518Z" fill="white"/>
<path id="Vector_2" d="M17.4485 11.8022C19.2631 11.8022 20.9261 11.8144 22.5829 11.784C22.7771 11.784 22.9956 11.5959 23.1534 11.4442C23.9727 10.643 24.7738 9.82372 25.5931 9.01653C26.6552 7.97266 27.7295 7.85735 28.9797 8.64025C29.1557 8.7495 29.362 8.84053 29.4955 8.98619C30.327 9.92689 31.1827 9.41102 32.0021 9.0044C32.1781 8.91336 32.3116 8.59777 32.3419 8.36715C32.8214 5.21125 33.841 4.88959 36.5113 4.98669C37.2396 5.01704 37.974 4.96849 38.7023 4.99883C39.995 5.04738 40.8264 5.74532 41.1481 7.00768C41.1966 7.20796 41.2816 7.41431 41.2755 7.61459C41.2452 8.82233 42.0524 9.2593 43.0234 9.5142C43.2055 9.56275 43.4665 9.48385 43.6425 9.38675C44.1158 9.11364 44.5528 8.78591 45.0262 8.50674C46.0458 7.91197 47.12 8.00301 47.9818 8.81019C48.9104 9.68413 49.8147 10.5884 50.6886 11.517C51.4958 12.3727 51.5868 13.4469 51.0042 14.4726C50.8768 14.6972 50.7614 14.9521 50.5794 15.1281C49.7418 15.9292 49.9361 16.7788 50.4641 17.6285C50.5794 17.8166 50.8221 17.9805 51.0406 18.0473C51.4837 18.1869 51.957 18.2354 52.4122 18.3446C53.802 18.6784 54.4757 19.516 54.5121 20.9604C54.5243 21.4763 54.5121 21.9982 54.5121 22.5687H59.3188C59.3977 21.7737 59.3795 20.9604 59.5737 20.1957C59.7922 19.3278 60.5387 18.9576 61.5643 18.7634C60.8967 17.4646 60.2716 16.2266 59.6283 14.9945C59.4705 14.6972 59.2642 14.424 59.1003 14.1267C58.718 13.4409 58.8454 12.7611 59.422 12.4152C59.9925 12.0693 60.6722 12.2574 61.097 12.9068C62.5172 15.0795 63.5732 17.4161 64.3864 19.874C64.52 20.2807 64.8052 20.7176 65.1451 20.9725C67.603 22.86 70.0913 24.705 72.5736 26.5682C74.1697 27.7638 74.1697 29.2689 72.5736 30.4645C70.0124 32.3884 67.4392 34.3001 64.8962 36.2422C64.5867 36.4789 64.3136 36.8431 64.1922 37.2072C63.027 40.5937 61.3155 43.6586 59.0335 46.42C58.7968 46.7053 58.6512 47.1604 58.6451 47.5367C58.6148 51.1296 58.633 54.7285 58.6208 58.3214C58.6208 58.6491 58.6208 59.0982 58.4206 59.2742C58.1111 59.5534 57.6012 59.8447 57.2432 59.7719C56.8851 59.6991 56.5756 59.2257 56.3207 58.8676C56.2054 58.7098 56.2843 58.4124 56.2782 58.1757C56.2782 54.4493 56.2903 50.723 56.2661 47.0026C56.2661 46.3047 56.4603 45.7585 56.9215 45.2426C58.7483 43.1791 60.1745 40.8608 61.2852 38.2268C59.161 37.7595 59.3734 36.0723 59.4098 34.4155C58.8575 34.4155 58.3659 34.4155 57.8804 34.4155C55.4589 34.4155 53.0313 34.3973 50.6097 34.4337C50.2638 34.4337 49.8693 34.6279 49.5962 34.8524C49.0743 35.2773 48.6312 35.8053 48.1457 36.2726C47.1443 37.2254 46.0397 37.3468 44.8745 36.6307C44.6985 36.5214 44.4921 36.4304 44.3586 36.2847C43.5514 35.3986 42.6896 35.7203 41.8582 36.1998C41.6579 36.3151 41.488 36.6246 41.4515 36.8673C40.9539 40.1507 39.819 40.3206 37.27 40.2357C36.566 40.2114 35.862 40.2539 35.158 40.2235C33.756 40.1689 32.9549 39.4892 32.6211 38.1236C32.5786 37.9476 32.5058 37.7656 32.5119 37.5896C32.5543 36.3697 31.7168 35.9631 30.7518 35.69C30.588 35.6414 30.3513 35.7021 30.1935 35.7931C29.7201 36.0662 29.2831 36.394 28.8158 36.6792C27.7901 37.2982 26.6674 37.2133 25.7874 36.394C24.8588 35.52 23.9545 34.6157 23.0806 33.6872C22.2734 32.8254 22.1945 31.7512 22.7832 30.7316C22.9106 30.507 23.0259 30.2521 23.208 30.0822C24.0637 29.275 23.8028 28.4253 23.3112 27.5817C23.2202 27.4239 23.0381 27.2843 22.8682 27.2054C22.6861 27.1205 22.4615 27.1205 22.2612 27.0719C19.7547 26.5257 19.4998 26.2344 19.1903 23.649H14.3654C14.3654 24.0677 14.3654 24.5047 14.3654 24.9356C14.3533 26.6774 13.4369 27.4907 11.689 27.3208C11.6162 27.3147 11.5373 27.3268 11.2763 27.345C11.2763 28.7955 11.3491 30.2521 11.2581 31.7026C11.1064 34.197 10.2203 36.4607 8.90936 38.5728C7.44066 40.9397 5.99016 43.3127 4.52145 45.6796C4.20586 46.1833 3.95096 46.6931 4.27869 47.2818C4.60642 47.8644 5.18297 47.913 5.77167 47.913C7.15541 47.9069 8.53308 47.9009 9.91682 47.913C10.9425 47.9191 11.2884 48.2771 11.3916 49.3149C11.7922 53.3569 12.1624 57.3989 12.6115 61.4409C12.8603 63.6925 14.5232 65.1187 16.793 65.1794C17.4424 65.1976 18.0979 65.1673 18.7473 65.1915C19.5605 65.2219 20.0218 65.671 20.0218 66.3689C20.0218 67.0729 19.5605 67.516 18.7351 67.516C17.23 67.516 15.7067 67.6677 14.2683 67.0305C11.604 65.847 10.3963 63.7228 10.1535 60.9007C9.86827 57.5567 9.50413 54.2127 9.20068 50.8686C9.15819 50.4074 9.01861 50.2314 8.54522 50.2435C7.53169 50.2738 6.51209 50.2678 5.49856 50.2435C2.43977 50.1889 0.813268 47.294 2.39122 44.6782C3.84172 42.2688 5.32256 39.8776 6.82162 37.5046C8.32674 35.1255 9.06109 32.5462 9.03681 29.7362C9.02468 28.5164 9.12785 27.2904 9.11571 26.0705C9.11571 25.8035 8.89723 25.4515 8.67267 25.2816C6.19044 23.388 3.68392 21.5188 1.18348 19.6434C-0.400539 18.4539 -0.39447 16.9488 1.20169 15.7471C4.32724 13.4045 7.45886 11.0679 10.5723 8.70702C11.3795 8.10011 12.1988 7.76024 13.1698 8.23363C14.1409 8.71308 14.414 9.56882 14.3594 10.5823C14.3412 10.9101 14.3594 11.2439 14.3594 11.7658C14.6203 11.4563 14.7599 11.2864 14.8934 11.1164C20.9928 3.50585 28.8947 -0.329782 38.6476 0.0222223C45.8334 0.277122 52.0238 3.08102 57.1764 8.11225C57.8258 8.7495 57.9168 9.44744 57.4374 9.96331C56.9397 10.4913 56.2054 10.4246 55.5256 9.7691C50.191 4.62862 43.8124 2.07963 36.4203 2.3588C28.9008 2.63798 22.6739 5.76353 17.7155 11.4138C17.6488 11.4866 17.6002 11.5837 17.4485 11.8083V11.8022ZM24.7192 13.1678C25.229 13.9567 25.7691 14.6365 26.1333 15.4012C26.3275 15.8139 26.3518 16.4026 26.2304 16.8456C26.0119 17.6406 25.6842 18.4235 25.2836 19.1397C25.053 19.5463 24.6342 19.9408 24.2033 20.1107C23.56 20.3717 22.8439 20.4627 22.152 20.5659C21.715 20.6327 21.5997 20.833 21.6058 21.2396C21.624 22.1499 21.6361 23.0603 21.6058 23.9706C21.5876 24.438 21.7697 24.6079 22.2188 24.6747C22.8864 24.7778 23.5782 24.8628 24.1912 25.1177C24.6221 25.2937 25.053 25.67 25.2776 26.0766C25.6842 26.7927 26.0058 27.5757 26.2243 28.3707C26.3457 28.8198 26.3214 29.3964 26.1394 29.8212C25.8663 30.4584 25.3625 30.9925 25.0348 31.6055C24.9316 31.7997 24.9559 32.2124 25.0955 32.3702C25.7388 33.0863 26.4185 33.7721 27.1408 34.4094C27.2985 34.549 27.7112 34.5611 27.9115 34.4519C28.5245 34.1181 29.0646 33.6265 29.6958 33.3412C30.0964 33.1652 30.6547 33.1288 31.0735 33.2502C31.8928 33.4869 32.7 33.8146 33.4404 34.2273C33.841 34.4519 34.2173 34.8949 34.3872 35.3258C34.6421 35.9691 34.6724 36.6974 34.8788 37.365C34.9455 37.5774 35.2611 37.8445 35.4796 37.8566C36.4142 37.9112 37.3549 37.8627 38.2896 37.8869C38.7083 37.8991 38.8843 37.7413 38.9511 37.3225C39.0603 36.6307 39.1574 35.9206 39.4063 35.2712C39.5641 34.8646 39.9343 34.4458 40.3166 34.2334C41.0388 33.8328 41.8521 33.6022 42.6047 33.2563C43.1509 33.0074 43.6425 32.9953 44.1462 33.3412C44.7045 33.7236 45.2872 34.0695 45.8395 34.464C46.1733 34.7007 46.4099 34.7189 46.7073 34.3973C47.3506 33.7114 48.0122 33.0499 48.698 32.4066C49.0257 32.1032 48.9771 31.8604 48.7526 31.5387C48.3642 30.9865 47.9211 30.4463 47.6602 29.8333C47.4781 29.4085 47.4295 28.8319 47.557 28.3889C47.7816 27.5696 48.1214 26.7624 48.5341 26.022C48.7465 25.6396 49.1714 25.2755 49.578 25.1177C50.2516 24.8628 51.0042 24.8203 51.6961 24.62C51.8903 24.5654 52.1452 24.268 52.1573 24.0677C52.2059 23.1088 52.2119 22.1378 52.1573 21.1789C52.1452 20.9665 51.8721 20.6569 51.6597 20.5902C50.9921 20.3838 50.2638 20.3535 49.6205 20.0986C49.1896 19.9287 48.7526 19.5524 48.522 19.1518C48.1153 18.4357 47.8847 17.6224 47.5388 16.8638C47.29 16.3115 47.3021 15.826 47.6541 15.3223C48.0547 14.7457 48.4491 14.1631 48.7951 13.5501C48.8861 13.3862 48.8861 13.0282 48.7708 12.9007C48 12.0571 47.1929 11.256 46.3735 10.4124C45.5663 10.9344 44.8866 11.4745 44.1219 11.8386C43.7092 12.0328 43.1205 12.0632 42.6775 11.9357C41.8824 11.7173 41.142 11.3106 40.3652 11.0193C39.8008 10.8069 39.4609 10.4549 39.3638 9.84799C39.2546 9.1804 39.0603 8.53101 38.9572 7.86342C38.8904 7.43252 38.7023 7.30507 38.2835 7.31114C37.3489 7.33541 36.4082 7.28686 35.4735 7.34148C35.2611 7.35362 34.9516 7.62673 34.8848 7.83914C34.6785 8.50674 34.6542 9.23502 34.3933 9.87834C34.2233 10.3092 33.847 10.7462 33.4465 10.9768C32.7303 11.3835 31.9171 11.6141 31.1585 11.96C30.6062 12.2149 30.1206 12.1906 29.6169 11.8447C29.0404 11.4442 28.4577 11.0497 27.8448 10.7037C27.6809 10.6127 27.3228 10.6127 27.2014 10.728C26.3639 11.4988 25.5628 12.3181 24.7253 13.1435L24.7192 13.1678ZM54.4757 24.966C54.1176 26.1858 53.2983 26.7745 52.1513 26.9687C51.7932 27.0294 51.4351 27.1023 51.0831 27.1812C50.3548 27.339 49.7601 28.7834 50.1485 29.4206C50.5248 30.0397 51.0528 30.6284 51.2227 31.302C51.4048 32.0243 51.7446 32.0971 52.3515 32.091C54.852 32.0667 57.3464 32.0789 59.8468 32.0789C61.4976 32.0789 61.7646 32.3398 61.7646 33.9603C61.7646 34.4701 61.7646 34.9738 61.7646 35.6475C65.0055 33.2138 68.1068 30.8893 71.2687 28.5164C68.0764 26.1252 64.9873 23.8068 61.8921 21.4823C61.8253 21.5916 61.7767 21.628 61.7767 21.6644C61.7707 22.2349 61.7707 22.8115 61.7646 23.3819C61.7585 24.5775 61.3762 24.9538 60.1624 24.9599C58.2931 24.9599 56.4178 24.9599 54.4818 24.9599L54.4757 24.966ZM12.0349 24.8385C12.0349 23.9585 12.0228 23.2606 12.0349 22.5687C12.0531 21.7494 12.4658 21.3245 13.2791 21.2639C13.5886 21.2396 13.9042 21.2578 14.2137 21.2578C15.8766 21.2578 17.5395 21.2578 19.1842 21.2578C19.5241 19.0547 19.8883 18.6784 22.067 18.2111C22.3219 18.1565 22.5829 18.1262 22.8257 18.0412C22.9895 17.9866 23.1716 17.9016 23.2687 17.7742C23.8938 16.9002 23.8938 16.2205 23.3112 15.3344C23.1959 15.1584 23.0624 14.9945 22.9774 14.8064C22.7528 14.2845 22.3887 14.1388 21.8182 14.1449C19.0568 14.1813 16.2954 14.1631 13.534 14.157C12.4294 14.157 12.0349 13.7443 12.0289 12.6398C12.0289 12.0086 12.0289 11.3713 12.0289 10.5823C8.78192 13.016 5.68671 15.3344 2.52474 17.7135C5.68064 20.0804 8.78192 22.4048 12.0289 24.8446L12.0349 24.8385Z" fill="white"/>
<path id="Vector_3" d="M36.9061 13.8415C41.7795 13.8476 45.6819 17.7621 45.6759 22.6295C45.6759 27.4847 41.7431 31.4053 36.8818 31.3993C32.0205 31.3993 28.106 27.4665 28.1121 22.6052C28.1181 17.7378 32.0387 13.8294 36.9061 13.8355V13.8415ZM43.3332 22.6416C43.3393 19.0488 40.4868 16.1842 36.9 16.1842C33.3072 16.1842 30.4547 19.0427 30.4608 22.6356C30.4669 26.1859 33.3132 29.0384 36.8576 29.0566C40.4444 29.0748 43.3271 26.2224 43.3332 22.6416Z" fill="white"/>
</g>
</g>
</svg>
