<svg width="76" height="80" viewBox="0 0 76 80" fill="none" xmlns="http://www.w3.org/2000/svg">
<g id="Capa 2">
<g id="Capa 1">
<path id="Vector" d="M38.4085 80C37.2537 79.3672 36.9216 78.3675 37.0291 77.1241C37.0797 76.5325 37.0291 75.9314 37.0291 75.1973H36.0072C24.8865 75.1973 13.7689 75.172 2.65128 75.2227C0.661246 75.2227 -0.00315256 74.1501 1.1237e-05 72.5967C0.0316492 49.6549 0.0411406 26.7142 0.0284854 3.77459C0.0284854 1.83201 0.718194 1.13598 2.64811 1.13598C17.6445 1.13598 32.643 1.14125 47.6437 1.1518C48.5158 1.16044 49.3828 1.01807 50.2063 0.731011C58.0715 -1.99618 66.4841 3.19877 67.6484 11.4721C68.0548 14.1688 67.5881 16.9248 66.3164 19.3373C66.038 19.872 66.0665 20.1947 66.5189 20.6028C67.1833 21.1881 67.7844 21.8367 68.4172 22.4726C69.0499 23.1086 69.1069 23.8362 68.5975 24.3266C68.0881 24.817 67.4301 24.7885 66.7498 24.1052C66.0696 23.4218 65.3926 22.672 64.7408 21.9791L63.314 23.3901C66.1698 26.2502 69.0215 29.105 71.8689 31.9545L73.2483 30.515C72.5902 29.8823 71.8246 29.1514 71.0684 28.4143C70.8354 28.2045 70.6235 27.9724 70.4357 27.7214C70.273 27.513 70.1928 27.252 70.2103 26.9883C70.2278 26.7245 70.3418 26.4764 70.5306 26.2913C70.9577 25.8358 71.5525 25.7124 72.0049 26.1395C73.2135 27.2785 74.3968 28.4522 75.4851 29.6956C75.7305 29.978 75.8632 30.3409 75.858 30.715C75.8527 31.0891 75.7098 31.4482 75.4566 31.7236C74.6867 32.6375 73.8468 33.49 72.9446 34.2736C72.2106 34.9064 71.1317 34.7007 70.3439 33.9193C67.8825 31.4663 65.4242 29.0059 62.9691 26.5381C62.5104 26.0762 62.0737 25.589 61.5739 25.1745C61.4646 25.0934 61.3381 25.0386 61.2042 25.0145C61.0703 24.9903 60.9326 24.9974 60.8019 25.0353C57.6764 26.6959 54.0242 27.064 50.6303 26.0604C50.5257 26.0404 50.4201 26.0266 50.3139 26.0193V32.7012H62.02C63.9182 32.7012 64.6301 33.4131 64.6301 35.2702V47.609C64.6301 47.8147 64.6301 48.0266 64.6301 48.2418C64.5573 48.9884 64.0954 49.4409 63.4373 49.4282C62.7793 49.4156 62.3142 48.9473 62.3047 48.1943C62.2826 46.6346 62.3047 45.0717 62.3047 43.5087V40.9777H39.4336V70.2682H62.3015V54.2435C62.3015 53.9556 62.2161 53.6107 62.3553 53.4019C62.5963 53.008 62.9486 52.6942 63.3677 52.5003C63.9182 52.3262 64.3802 52.6838 64.5447 53.2564C64.6236 53.5846 64.6566 53.9221 64.6428 54.2593C64.6428 61.9126 64.6238 69.5689 64.6649 77.2253C64.6649 78.4624 64.377 79.4084 63.2507 80H38.4085ZM37.026 72.8182V35.3968C37.026 33.3719 37.703 32.7012 39.75 32.7012H47.8715C47.8971 32.5768 47.9161 32.4511 47.9284 32.3247C47.9284 30.0088 47.9442 27.6897 47.9126 25.3643C47.8704 25.0777 47.7212 24.8177 47.495 24.6367C46.6281 23.8963 45.6315 23.2857 44.85 22.4663C39.9335 17.2967 39.905 9.49473 44.7361 4.23017C44.9323 4.01503 45.1221 3.79673 45.3689 3.52148H2.44246V72.8087L37.026 72.8182ZM43.4991 13.3388C43.501 15.5078 44.1459 17.6276 45.3523 19.4302C46.5587 21.2327 48.2725 22.6372 50.2769 23.4659C52.2814 24.2947 54.4866 24.5105 56.6137 24.0862C58.7408 23.6619 60.6944 22.6165 62.2275 21.0821C63.7606 19.5477 64.8043 17.5932 65.2268 15.4657C65.6493 13.3382 65.4315 11.1332 64.601 9.12946C63.7705 7.12571 62.3646 5.41316 60.561 4.2083C58.7574 3.00344 56.637 2.36037 54.468 2.36037C53.0271 2.3566 51.5996 2.63784 50.2678 3.18791C48.936 3.73797 47.7262 4.54599 46.7079 5.56546C45.6896 6.58493 44.883 7.79573 44.3344 9.12816C43.7859 10.4606 43.5063 11.8883 43.5117 13.3293L43.4991 13.3388ZM56.5972 72.6979C56.5782 72.9099 56.5687 73.0365 56.5593 73.1662C56.439 74.9885 55.4329 75.9693 53.6106 75.982C51.6585 76.001 49.7033 76.0136 47.7512 75.982C46.2389 75.9472 45.1949 74.862 45.1063 73.3465C45.1063 73.1472 45.0842 72.9479 45.0747 72.7296H39.4494V77.6113H62.2509V72.6885L56.5972 72.6979ZM62.2699 35.1183H39.4336V38.5163H62.2699V35.1183ZM54.1643 72.6979H47.5203C47.3558 73.3687 47.5741 73.6471 48.2511 73.6471C49.9891 73.626 51.7271 73.626 53.4651 73.6471C54.1421 73.6503 54.3351 73.3529 54.1643 72.6979Z" fill="white"/>
<path id="Vector_2" d="M42.4519 52.1428C42.5025 51.0229 42.2431 49.713 43.6194 49.4156C44.6842 49.1903 45.7861 49.2076 46.8433 49.4663C48.1404 49.8016 47.7007 51.2348 47.9126 52.2378L48.21 52.1745C48.2353 51.9435 48.2765 51.7126 48.2796 51.4784C48.2796 50.1528 48.2796 48.824 48.2796 47.4952C48.2796 46.0557 48.8934 45.4482 50.3108 45.4261C50.8297 45.4261 51.3517 45.4103 51.8705 45.4261C53.0222 45.4767 53.6264 46.0589 53.6644 47.2484C53.7024 48.438 53.6644 49.5897 53.6644 50.7603C53.6422 50.9939 53.6422 51.229 53.6644 51.4626C53.7275 51.7049 53.8122 51.941 53.9175 52.1681C54.04 51.9515 54.1266 51.7165 54.1738 51.4721C54.1928 49.4663 54.1738 47.4636 54.1738 45.4609C54.1738 43.879 54.7749 43.2969 56.3442 43.2905C56.709 43.2905 57.0729 43.2905 57.4357 43.2905C58.9574 43.2905 59.5491 43.8853 59.5554 45.4261C59.5554 47.4066 59.5554 49.384 59.5554 51.3645C59.5554 51.8265 59.6092 52.146 60.0869 52.4276C60.2443 52.5633 60.3682 52.7336 60.4489 52.9251C60.5296 53.1167 60.5649 53.3243 60.552 53.5317C60.514 53.8481 60.1281 54.1961 59.818 54.4144C59.5544 54.5251 59.2658 54.5623 58.9828 54.522C53.5452 54.522 48.1046 54.522 42.6607 54.522C42.4495 54.5333 42.2376 54.5248 42.028 54.4967C41.43 54.3828 41.0282 54.0538 40.9966 53.4084C40.9692 53.1321 41.0473 52.8557 41.2151 52.6345C41.3828 52.4133 41.628 52.2637 41.9014 52.2156C42.0831 52.1791 42.267 52.1548 42.4519 52.1428ZM57.0528 52.2472L57.249 52.0922C57.249 50.0705 57.249 48.0489 57.2269 46.0272C57.2269 45.8722 56.9105 45.7108 56.746 45.5653L56.5561 45.7203C56.5561 47.742 56.5561 49.7637 56.5783 51.7853C56.5814 51.9404 56.8883 52.0954 57.0528 52.2472ZM50.6303 52.0985C51.1334 52.2631 51.3517 52.1713 51.3422 51.6746C51.3232 50.5356 51.3422 49.3903 51.32 48.2514C51.32 48.09 51.0986 47.935 50.9815 47.7768C50.8645 47.935 50.6651 48.0932 50.6462 48.2514C50.6303 49.52 50.6303 50.7887 50.6303 52.0985Z" fill="white"/>
<path id="Vector_3" d="M54.4015 64.5416C52.845 64.5416 51.2852 64.5416 49.7286 64.5416C48.7637 64.5416 48.2226 64.0829 48.2448 63.3331C48.2669 62.5833 48.7858 62.2036 49.7191 62.2004C52.8618 62.2004 56.0045 62.2004 59.1472 62.2004C60.0616 62.2004 60.5931 62.6434 60.5963 63.3616C60.5994 64.0797 60.0616 64.5322 59.1567 64.5385C57.5717 64.5417 55.9866 64.5416 54.4015 64.5416Z" fill="white"/>
<path id="Vector_4" d="M54.3764 61.4379C52.8166 61.4379 51.26 61.4379 49.7003 61.4379C48.7511 61.4379 48.2513 61.0203 48.2449 60.2989C48.2386 59.5776 48.7511 59.1062 49.6686 59.103C52.8324 59.0903 55.9962 59.0903 59.16 59.103C60.0744 59.103 60.5932 59.5776 60.5806 60.3052C60.5679 61.0329 60.0554 61.4347 59.1157 61.4379C57.5433 61.4442 55.9583 61.4379 54.3764 61.4379Z" fill="white"/>
<path id="Vector_5" d="M54.4458 56.0501C56.0055 56.0501 57.5621 56.0501 59.1218 56.0501C60.071 56.0501 60.5772 56.455 60.593 57.1764C60.6088 57.8977 60.1026 58.3786 59.1788 58.3818C56.015 58.3987 52.8512 58.3987 49.6874 58.3818C48.713 58.3818 48.1403 57.8186 48.2732 57.0435C48.4061 56.2684 48.9281 56.0437 49.6304 56.0469L54.4458 56.0501Z" fill="white"/>
<path id="Vector_6" d="M44.002 62.1782C44.3184 62.1782 44.6347 62.1782 44.9353 62.1782C45.9098 62.232 46.5172 62.7192 46.6058 63.6842C46.6833 64.4838 46.6833 65.2891 46.6058 66.0887C46.6033 66.4736 46.4491 66.842 46.1766 67.1139C45.9041 67.3858 45.5354 67.5392 45.1504 67.5409C44.3519 67.6184 43.5477 67.6184 42.7491 67.5409C41.8759 67.4554 41.395 66.9651 41.3064 66.0792C41.2284 65.3052 41.2231 64.5256 41.2906 63.7506C41.3824 62.7477 41.9898 62.232 42.9927 62.1687C43.3249 62.1624 43.6698 62.1782 44.002 62.1782Z" fill="white"/>
<path id="Vector_7" d="M43.9482 61.4348C43.6318 61.4348 43.3154 61.4348 43.0148 61.4348C41.9929 61.3905 41.3823 60.9001 41.3001 59.8972C41.2352 59.0463 41.2543 58.1911 41.357 57.344C41.3818 57.0001 41.5359 56.6785 41.7883 56.4437C42.0407 56.2089 42.3727 56.0784 42.7174 56.0785C43.4934 56.0221 44.2722 56.0147 45.0492 56.0563C45.9603 56.1133 46.4982 56.591 46.5963 57.499C46.6806 58.298 46.6859 59.1034 46.6121 59.9035C46.514 60.9033 45.9097 61.3873 44.8846 61.4285C44.5714 61.4474 44.2614 61.4348 43.9482 61.4348Z" fill="white"/>
<path id="Vector_8" d="M52.5793 65.2694C53.5442 65.2694 54.506 65.2694 55.4678 65.2694C56.4296 65.2694 56.8472 65.6712 56.8694 66.3894C56.8915 67.1076 56.398 67.5916 55.4678 67.6043C53.5158 67.6233 51.5637 67.6264 49.6116 67.6043C48.7321 67.6043 48.2449 67.136 48.2449 66.4305C48.2449 65.725 48.7321 65.2915 49.6116 65.2757C50.6019 65.2536 51.5795 65.2694 52.5793 65.2694Z" fill="white"/>
<path id="Vector_9" d="M38.0037 23.1338C36.9913 23.1338 35.9789 23.1085 34.9728 23.1591C34.8083 23.1591 34.5646 23.4945 34.5204 23.7065C33.7168 27.3417 31.5622 29.8411 28.0567 30.9832C24.5512 32.1253 21.3241 31.3976 18.6539 28.854C15.9172 26.247 15.0029 22.9851 16.0596 19.3626C17.1163 15.74 19.603 13.5159 23.2857 12.6553C23.4376 12.6173 23.6021 12.592 23.7413 12.5509C23.8141 12.5288 23.8837 12.4876 23.9786 12.4465V9.11185C22.6585 9.19045 21.3626 9.50103 20.1504 10.0294C19.8625 10.1464 19.5872 10.3014 19.2962 10.4122C18.5875 10.6779 17.9579 10.4723 17.6858 9.89964C17.4137 9.32699 17.6446 8.63412 18.347 8.2861C19.9973 7.44549 21.7926 6.92688 23.6369 6.75798C30.3726 6.18217 36.2573 9.6054 39.1174 15.74C43.2936 24.6872 37.3077 35.634 27.5568 37.0672C19.3278 38.2821 11.8865 32.9036 10.2572 25.2377C9.26374 20.568 10.2572 16.3095 13.1679 12.5129C13.7215 11.7884 14.4112 11.6302 14.9744 12.0637C15.5376 12.4971 15.6072 13.1742 15.0282 13.9177C12.5636 17.1226 11.7157 20.7262 12.5161 24.6588C13.7279 30.5814 18.9007 34.7639 25.0384 34.8968C31.6476 35.0423 37.5608 29.7208 38.0037 23.1338ZM24.0102 15.0155C20.9034 15.1104 17.961 18.5653 17.999 21.9759C18.0116 23.8415 18.7497 25.6291 20.0571 26.9601C21.3645 28.2911 23.1385 29.0611 25.0036 29.1071C28.4838 29.2431 31.8881 26.421 32.1285 23.1338C29.9666 23.1338 27.8099 23.1338 25.6586 23.1338C24.3424 23.1338 24.0007 22.7921 23.9976 21.4696C24.007 19.3372 24.0102 17.2048 24.0102 15.0155ZM26.3514 9.07705C26.3514 9.97873 26.3926 10.833 26.3514 11.6809C26.3135 12.3136 26.4653 12.63 27.1519 12.7028C27.6174 12.7465 28.0699 12.8808 28.4838 13.0982C29.7272 13.769 30.9389 14.4998 32.2614 15.2623L34.8272 13.364C32.6456 10.9148 29.6171 9.38305 26.3514 9.07705ZM38.0322 20.7831C37.8682 18.8206 37.238 16.9257 36.194 15.2559L33.5839 17.2017C33.9192 18.3343 34.2166 19.3784 34.533 20.4098C34.5762 20.5029 34.6414 20.5841 34.723 20.6463C34.8046 20.7086 34.9001 20.7501 35.0013 20.7673C35.9978 20.8053 36.985 20.7863 38.0322 20.7863V20.7831ZM26.4147 14.9427V19.5809L30.1385 16.8252C29.1226 15.8266 27.8212 15.1687 26.4147 14.9427ZM31.5907 18.6665L28.8002 20.7451H32.2487C32.0336 20.0681 31.8343 19.4417 31.5907 18.6665Z" fill="white"/>
<path id="Vector_10" d="M22.6496 65.1745H23.8772C23.8772 64.567 23.8772 64.0007 23.8772 63.4344C23.8772 62.4409 24.2885 61.8968 25.0256 61.881C25.7628 61.8651 26.212 62.4315 26.2184 63.4629C26.2184 63.9564 26.2184 64.4531 26.2184 64.9467C26.2299 65.0171 26.249 65.086 26.2753 65.1523H27.3953C27.3953 64.8834 27.4333 64.6113 27.4333 64.3392C27.4333 62.6466 27.4333 60.954 27.4333 59.2771C27.4333 58.3976 27.8541 57.8851 28.5469 57.8503C29.2398 57.8155 29.7618 58.3691 29.7682 59.2645C29.7871 61.2102 29.7682 63.1591 29.7682 65.2251C30.2554 65.2251 30.6857 65.2251 31.1159 65.2251C32.0081 65.2662 32.4764 65.6807 32.4732 66.3989C32.47 67.117 32.0081 67.5473 31.1096 67.5536C28.8949 67.5726 26.6803 67.5536 24.4656 67.5536H8.80482C7.4697 67.5536 6.88123 67.1866 6.90654 66.3672C6.93185 65.5478 7.49185 65.2156 8.77635 65.2093H9.65272C9.65272 64.2158 9.65272 63.2888 9.65272 62.3619C9.65272 61.4349 10.0419 60.9065 10.7727 60.8844C11.5035 60.8622 11.9781 61.3874 11.9908 62.3619C11.9908 63.2699 11.9908 64.1779 11.9908 65.146H13.2057C13.2057 64.3508 13.2057 63.5567 13.2057 62.7637C13.2057 61.9316 13.2057 61.0995 13.2057 60.2643C13.2215 59.3594 13.6106 58.888 14.3288 58.869C15.047 58.85 15.5247 59.3373 15.5374 60.2706C15.5595 61.7259 15.5374 63.1844 15.5374 64.643C15.5374 64.7948 15.5595 64.9593 15.5722 65.1523H16.7365V63.6622C16.7365 61.7892 16.7365 59.9162 16.7365 58.0433C16.7365 57.034 17.1509 56.5183 17.9007 56.5152C18.6506 56.512 19.0682 57.0119 19.0745 58.0243C19.0745 60.1061 19.0745 62.1878 19.0745 64.2696V65.1745H20.2831V64.1304C20.2831 62.8301 20.2673 61.5266 20.2831 60.2263C20.2831 59.3562 20.7513 58.869 21.4663 58.8722C22.1814 58.8753 22.6085 59.3689 22.6148 60.2421C22.6591 61.8525 22.6496 63.4629 22.6496 65.1745Z" fill="white"/>
<path id="Vector_11" d="M14.2022 43.1924C14.2022 43.6353 14.2022 44.0782 14.2022 44.5212C14.1737 45.6823 13.5694 46.3372 12.4463 46.3846C11.4971 46.4258 10.5164 46.4258 9.55772 46.3846C8.45356 46.3372 7.84294 45.6981 7.80498 44.5908C7.77334 43.6416 7.77334 42.7178 7.80498 41.7813C7.84611 40.6392 8.48836 40.0254 9.64315 40.0033C10.5543 39.9843 11.4655 39.9843 12.3767 40.0033C13.5663 40.0286 14.1769 40.6582 14.2053 41.8699C14.2117 42.3065 14.2022 42.7494 14.2022 43.1924ZM11.8167 44.0149V42.3951H10.1936V44.0244L11.8167 44.0149Z" fill="white"/>
<path id="Vector_12" d="M14.1994 50.5673C14.1994 51.0608 14.2215 51.5576 14.1994 52.0511C14.1487 53.0351 13.5666 53.6741 12.5922 53.7279C11.5513 53.7817 10.5072 53.7786 9.46948 53.7279C9.2523 53.7335 9.03623 53.695 8.83433 53.6148C8.63244 53.5345 8.44892 53.4142 8.29485 53.261C8.14078 53.1078 8.01937 52.925 7.93795 52.7236C7.85653 52.5221 7.81679 52.3063 7.82114 52.0891C7.76736 51.0767 7.77052 50.0579 7.82114 49.0423C7.81504 48.8201 7.85432 48.5989 7.93658 48.3923C8.01885 48.1857 8.14237 47.9981 8.29961 47.8408C8.45684 47.6836 8.64448 47.5601 8.85107 47.4778C9.05765 47.3955 9.27884 47.3563 9.50112 47.3624C10.4882 47.3181 11.4785 47.3212 12.4656 47.3624C13.5603 47.4003 14.1646 48.0552 14.1994 49.1657C14.1994 49.634 14.1994 50.1149 14.1994 50.5705V50.5673ZM11.8139 51.3677V49.7415H10.1972V51.3677H11.8139Z" fill="white"/>
<path id="Vector_13" d="M22.9884 42.7938C21.0901 42.7938 19.1918 42.7938 17.2936 42.7938C16.9772 42.7938 16.5437 42.7938 16.3223 42.623C16.0059 42.3699 15.6579 41.9206 15.6895 41.5884C15.7211 41.2562 16.1546 40.8639 16.4425 40.5286C16.5058 40.4558 16.6893 40.4653 16.8158 40.4653C20.9288 40.4653 25.0417 40.4653 29.1388 40.4653C29.2895 40.46 29.4397 40.4857 29.5801 40.5409C29.7205 40.5961 29.848 40.6795 29.9548 40.786C30.0616 40.8925 30.1454 41.0198 30.2009 41.16C30.2565 41.3002 30.2826 41.4503 30.2778 41.6011C30.2833 41.7525 30.2582 41.9035 30.2038 42.045C30.1495 42.1865 30.0671 42.3155 29.9615 42.4243C29.856 42.5331 29.7296 42.6193 29.5898 42.678C29.45 42.7366 29.2999 42.7663 29.1483 42.7654C28.3985 42.8255 27.6423 42.7907 26.8894 42.7907C25.589 42.797 24.2887 42.7938 22.9884 42.7938Z" fill="white"/>
<path id="Vector_14" d="M23.02 44.0496C24.9436 44.0496 26.8672 44.0496 28.7908 44.0496C29.7399 44.0496 30.2525 44.4577 30.2809 45.1664C30.3094 45.8751 29.7494 46.3877 28.8003 46.3908C24.9025 46.3908 21.0005 46.3908 17.0942 46.3908C16.1894 46.3908 15.6294 45.9194 15.6294 45.2139C15.6294 44.5084 16.1736 44.0559 17.0847 44.0528C19.0684 44.0465 21.0427 44.0496 23.02 44.0496Z" fill="white"/>
<path id="Vector_15" d="M23.0262 51.2537C24.9498 51.2537 26.8733 51.2537 28.7969 51.2537C29.7271 51.2537 30.2586 51.6713 30.2808 52.3831C30.3029 53.095 29.7492 53.5854 28.8001 53.5885C24.9276 53.5885 21.0541 53.5885 17.1795 53.5885C16.2082 53.5885 15.645 53.1393 15.645 52.4084C15.645 51.6776 16.1987 51.2537 17.1763 51.2537H23.0262Z" fill="white"/>
<path id="Vector_16" d="M23.023 47.647C24.9466 47.647 26.8702 47.647 28.7938 47.647C29.7429 47.647 30.2555 48.0615 30.2808 48.7733C30.3061 49.4852 29.7493 49.9882 28.8001 49.9882C24.9023 49.9882 21.0003 49.9882 17.0941 49.9882C15.9646 49.9882 15.2654 49.096 15.8096 48.3083C15.9704 48.1214 16.1675 47.9691 16.3887 47.8603C16.61 47.7516 16.851 47.6887 17.0972 47.6755C19.0714 47.6091 21.0488 47.647 23.023 47.647Z" fill="white"/>
<path id="Vector_17" d="M54.4678 22.5359C52.6412 22.5315 50.857 21.9854 49.3409 20.9666C47.8248 19.9479 46.645 18.5022 45.9508 16.8127C45.2566 15.1232 45.0792 13.2657 45.441 11.4754C45.8028 9.68497 46.6876 8.04214 47.9833 6.75477C49.2791 5.4674 50.9277 4.59335 52.7204 4.24322C54.5131 3.89309 56.3694 4.08263 58.0543 4.78784C59.7393 5.49305 61.1772 6.68225 62.1861 8.20494C63.1949 9.72763 63.7294 11.5154 63.7219 13.3419C63.7215 14.5543 63.4814 15.7545 63.0155 16.8738C62.5496 17.993 61.8669 19.009 61.0069 19.8635C60.1469 20.7179 59.1264 21.3939 58.0042 21.8525C56.8819 22.3112 55.6801 22.5434 54.4678 22.5359ZM54.4931 20.1852C55.8534 20.1815 57.1821 19.7746 58.3113 19.0161C59.4405 18.2575 60.3195 17.1813 60.8373 15.9235C61.3551 14.6656 61.4885 13.2824 61.2206 11.9487C60.9527 10.6151 60.2955 9.39073 59.3321 8.43039C58.3687 7.47005 57.1422 6.81681 55.8077 6.55318C54.4732 6.28956 53.0905 6.42739 51.8342 6.94925C50.578 7.47112 49.5046 8.3536 48.7497 9.48522C47.9948 10.6168 47.5922 11.9468 47.5929 13.3071C47.5996 15.1331 48.3294 16.882 49.6226 18.1711C50.9159 19.4602 52.6671 20.1844 54.4931 20.1852Z" fill="white"/>
<path id="Vector_18" d="M50.8169 37.8329C50.0101 37.8329 49.2065 37.8329 48.4029 37.8329C47.5993 37.8329 47.1216 37.3773 47.1184 36.6844C47.1153 35.9915 47.5772 35.5201 48.3839 35.5043C50.0165 35.4758 51.6521 35.479 53.2878 35.5043C54.0851 35.5043 54.5818 36.0042 54.5882 36.6686C54.5945 37.333 54.082 37.8171 53.2277 37.8329C52.4241 37.8455 51.6205 37.8329 50.8169 37.8329Z" fill="white"/>
<path id="Vector_19" d="M60.0142 12.9306C60.049 14.7055 59.5365 16.0026 58.5273 17.1068C58.3311 17.3542 58.0451 17.5141 57.7315 17.5514C57.418 17.5887 57.1024 17.5006 56.8536 17.3061C56.3537 16.8917 56.3094 16.2494 56.7365 15.6293C58.0369 13.731 58.0337 12.9401 56.7207 10.9849C56.3063 10.3679 56.3632 9.71933 56.8663 9.30804C57.3693 8.89674 58.0179 8.99166 58.5336 9.53267C59.4141 10.4541 59.9389 11.6583 60.0142 12.9306Z" fill="white"/>
</g>
</g>
</svg>
