<svg width="79" height="80" viewBox="0 0 79 80" fill="none" xmlns="http://www.w3.org/2000/svg">
<g id="Capa 2">
<g id="Capa 1">
<path id="Vector" d="M43.3974 0C45.8212 1.03653 45.1788 3.21822 45.2843 5.24473H58.7034C58.9893 5.23589 59.2755 5.2473 59.5599 5.27887C59.8382 5.30188 60.0964 5.43304 60.2792 5.64421C60.4619 5.85539 60.5546 6.12976 60.5375 6.4085C60.5565 6.67334 60.4741 6.9355 60.307 7.14182C60.1398 7.34814 59.9005 7.48317 59.6375 7.51951C59.2783 7.57548 58.9146 7.59731 58.5513 7.58469H5.50193C4.11782 7.58469 4.11472 7.58469 4.11472 8.9719V55.0572C5.88675 54.6383 7.5781 54.2566 9.26014 53.8159C9.54196 53.7183 9.78615 53.5349 9.9584 53.2914C10.2342 52.9125 10.4771 52.5107 10.6846 52.0904C11.5442 50.4363 12.857 49.7132 14.7966 50.0918C14.7966 49.0491 14.8152 48.0374 14.7966 47.0257C14.743 46.8077 14.6089 46.618 14.4211 46.495C12.7592 45.259 11.5028 43.5564 10.8118 41.604C10.7457 41.4799 10.6536 41.3714 10.5416 41.2863C10.4296 41.2011 10.3005 41.1412 10.1632 41.1106C8.94239 40.9166 7.82948 40.2972 7.02132 39.3618C6.21316 38.4264 5.76181 37.2354 5.7471 35.9993C5.72538 34.9814 5.70365 33.9728 6.28088 33.0511C6.39571 32.8649 6.28088 32.5049 6.21882 32.2473C5.12642 28.3702 5.72641 24.7785 8.01878 21.4724C8.56808 20.6841 9.26014 20.4917 9.85599 20.9324C10.4518 21.373 10.4767 22.0465 9.94288 22.7944C9.11375 23.9355 8.53503 25.239 8.24463 26.6193C7.95423 27.9996 7.9587 29.4258 8.25774 30.8043C8.36947 31.3722 8.59291 31.5956 9.226 31.5832C11.7522 31.5366 14.2783 31.5832 16.8045 31.5615C18.4276 31.5615 19.852 30.888 20.6744 29.8763C19.9824 28.9453 19.2127 28.0795 18.682 27.0833C18.3516 26.3515 18.1621 25.564 18.1234 24.7619C18.1016 24.5986 18.1152 24.4326 18.1632 24.275C18.2112 24.1174 18.2926 23.972 18.4019 23.8486C18.5111 23.7253 18.6456 23.6269 18.7962 23.5601C18.9468 23.4933 19.11 23.4597 19.2748 23.4616C19.8955 23.4616 20.3641 23.9302 20.4417 24.6782C20.6837 27.0057 22.0616 28.2905 24.3985 28.334C25.466 28.3557 26.5336 28.334 27.6012 28.334C29.7735 28.334 30.928 29.3208 31.257 31.5087H33.0321C33.6785 29.5877 33.6643 27.5057 32.9918 25.5937C31.5208 21.4475 28.4143 19.0734 24.265 17.9997C20.8797 17.096 17.2776 17.5097 14.1852 19.1572C13.3628 19.5762 12.7546 19.511 12.3635 18.971C11.9228 18.3503 12.1184 17.6117 12.8663 17.2052C15.5758 15.7176 18.6549 15.038 21.7389 15.247C25.7919 15.4983 29.3049 16.9973 32.1911 19.902C32.2705 19.9623 32.3546 20.0163 32.4425 20.0634C32.4611 19.7903 32.4859 19.57 32.4859 19.3496C32.4859 17.6583 32.4859 15.9638 32.4859 14.2725C32.4859 12.9908 33.2152 12.2274 34.441 12.2149C36.8865 12.1901 39.3341 12.1901 41.7837 12.2149C42.9909 12.2149 43.7109 12.9722 43.7202 14.1887C43.7347 16.6093 43.7347 19.031 43.7202 21.4537C43.7202 22.7199 42.994 23.443 41.7309 23.4523C39.4189 23.4523 37.1038 23.4523 34.7576 23.4523L35.7879 26.8909C37.6717 26.8909 39.5709 26.8909 41.4702 26.8909C43.0499 26.8909 43.7202 27.5488 43.7233 29.1036C43.7233 31.3939 43.7233 33.6852 43.7233 35.9776C43.7233 37.4455 43.0343 38.1283 41.5757 38.1314C39.6734 38.1314 37.7741 38.1469 35.8717 38.1314C35.6961 38.1115 35.5186 38.1468 35.364 38.2325C35.2093 38.3181 35.0853 38.4498 35.009 38.6093C34.6236 39.2746 34.0945 39.8455 33.4605 40.2803C32.8264 40.7152 32.1033 41.0031 31.3439 41.123C31.2093 41.1598 31.0841 41.2251 30.977 41.3145C30.8699 41.4039 30.7833 41.5154 30.7232 41.6413C30.0323 43.5371 28.8212 45.1999 27.2288 46.4391C26.9459 46.708 26.7715 47.0713 26.7384 47.4601C26.6671 48.3074 26.7167 49.1639 26.7167 49.9956C27.3058 49.989 27.8948 50.0222 28.4794 50.0949C29.6898 50.3246 30.4315 51.1718 30.9001 52.2301C31.409 53.3814 32.1942 53.999 33.4759 54.1107C34.3071 54.1809 35.1231 54.3754 35.8965 54.6879C36.8927 55.1007 37.9386 55.5476 38.7361 56.2396C39.0563 56.5263 39.4302 56.7466 39.8361 56.8877C40.2421 57.0289 40.6719 57.0882 41.1009 57.062C52.3269 57.0372 63.5519 57.032 74.7758 57.0465C75.9147 57.0465 75.9799 56.9876 75.9799 55.8765C75.9799 40.1734 75.9799 24.4692 75.9799 8.76397C75.9799 7.65606 75.9085 7.59089 74.7727 7.58779C71.6693 7.58779 68.5659 7.58779 65.4625 7.58779C65.1768 7.59786 64.8908 7.5781 64.6091 7.52882C64.333 7.49245 64.0825 7.3484 63.9121 7.12807C63.7418 6.90774 63.6655 6.62901 63.6998 6.35264C63.6916 6.08556 63.7856 5.82541 63.9626 5.62528C64.1397 5.42515 64.3865 5.30014 64.6525 5.27576C64.8839 5.24461 65.1174 5.23215 65.3508 5.23852H75.0396C77.1809 5.23852 78.3137 6.36195 78.3137 8.52191C78.3137 24.3802 78.3137 40.2396 78.3137 56.1C78.3137 58.2724 77.1716 59.3834 75.0427 59.3834H62.3778C62.3778 59.9606 62.3778 60.4727 62.3778 60.9847C62.3467 62.6605 61.4126 63.5947 59.7554 63.6102C58.9764 63.6102 58.2037 63.6102 57.2727 63.6102V64.9446C57.2727 66.1674 57.2727 67.3932 57.2727 68.616C57.2727 69.457 56.7792 69.9846 56.0841 69.9814C55.3889 69.9783 54.9482 69.4446 54.9389 68.5942C54.9234 67.0084 54.9203 65.4195 54.911 63.8305C54.911 63.7871 54.8676 63.7405 54.8241 63.6536H52.8876V78.0937C52.8876 78.3296 52.8876 78.5654 52.8876 78.7951C52.8162 79.5368 52.3445 80.0023 51.6959 79.993C51.0473 79.9837 50.588 79.5026 50.5601 78.7516C50.5383 78.0999 50.5601 77.4482 50.5601 76.7996V74.8848H41.4919V77.802C41.4919 78.0627 41.4919 78.3234 41.4919 78.584C41.4609 79.4747 40.9861 80.0147 40.2506 79.9868C39.5151 79.9588 39.1427 79.4437 39.1396 78.5685C39.1396 73.3072 39.1396 68.047 39.1396 62.7878C39.1396 59.2872 37.6593 57.4313 34.2579 56.671C33.5473 56.5127 32.8211 56.4072 32.1321 56.1869C31.5487 55.9976 31.1732 56.1683 30.7511 56.5624C29.3825 57.8472 27.9394 59.0451 26.5988 60.3578C25.4257 61.5061 24.1781 61.7947 22.7071 61.0499C22.5423 60.9726 22.3734 60.9042 22.2013 60.8451C22.1133 60.8288 22.0239 60.8216 21.9344 60.8233V77.7399C21.9344 77.9478 21.9344 78.1558 21.9344 78.3606C21.9344 79.4189 21.5278 79.9713 20.7675 79.9837C20.0072 79.9961 19.5944 79.4406 19.5913 78.3916V60.7427L18.35 61.2454C17.8497 61.4778 17.2903 61.5512 16.747 61.4558C16.2037 61.3604 15.7028 61.1006 15.3117 60.7116C13.7601 59.2965 12.1773 57.8875 10.6287 56.4569C10.4901 56.3062 10.311 56.1987 10.113 56.1469C9.91488 56.0952 9.7061 56.1015 9.51151 56.1651C8.48119 56.4351 7.42604 56.6151 6.40812 56.8851C5.32045 57.1466 4.34614 57.752 3.62994 58.6113C2.91374 59.4706 2.49386 60.5381 2.43268 61.655C2.34268 63.2378 2.39854 64.8298 2.38303 66.4188C2.39252 66.7044 2.37381 66.9902 2.32717 67.2722C2.28937 67.5346 2.15328 67.7729 1.94644 67.9389C1.73961 68.1048 1.47746 68.186 1.21305 68.166C0.620301 68.166 0.117552 67.8556 0.111345 67.2815C0.0834142 64.715 -0.273476 62.1268 0.458924 59.5851C0.596029 59.055 0.83072 58.5551 1.15098 58.111C1.70649 57.4003 1.77166 56.6338 1.77166 55.7803C1.75924 40.1786 1.75924 24.5788 1.77166 8.98121C1.76256 8.56687 1.7781 8.15235 1.81821 7.73985C1.89634 7.1031 2.18918 6.51199 2.64842 6.06403C3.10766 5.61608 3.70587 5.33803 4.34437 5.27576C4.65471 5.24473 4.96505 5.24783 5.27539 5.24783H34.7886C34.9252 3.28028 34.2269 1.04584 36.6755 0.00310339L43.3974 0ZM12.6304 33.9076C12.6304 35.5028 12.6025 37.011 12.6304 38.51C12.6293 39.6072 12.873 40.6909 13.3438 41.682C13.8147 42.6731 14.5008 43.5466 15.3521 44.2388C16.1497 44.9061 16.9752 45.5422 17.8069 46.166C18.6372 46.8312 19.6683 47.1957 20.7321 47.2002C21.796 47.2047 22.8301 46.8489 23.6661 46.1909C24.504 45.5702 25.3295 44.9495 26.124 44.2668C26.9877 43.5721 27.6828 42.6907 28.1569 41.6887C28.631 40.6868 28.8718 39.5904 28.8612 38.482C28.8798 36.3097 28.8612 34.1125 28.8612 31.9246C28.8612 30.9284 28.6377 30.7174 27.6012 30.708C26.3009 30.708 24.9974 30.6584 23.7002 30.6894C23.3645 30.7077 23.0474 30.8491 22.8095 31.0867C22.0708 31.9839 21.1404 32.7041 20.0867 33.1945C19.033 33.6848 17.8828 33.9327 16.7207 33.9201C15.4049 33.9138 14.0797 33.9076 12.6304 33.9076ZM34.8817 14.5859V21.0348H41.3399V14.5859H34.8817ZM41.5199 68.2404H50.4949V63.6785H41.5199V68.2404ZM20.7582 57.0465C21.9499 55.4793 23.0516 54.0331 24.1471 52.5807C24.2508 52.4658 24.3197 52.3237 24.3457 52.1711C24.3457 51.0135 24.3457 49.8591 24.3457 48.5867C21.8971 49.8839 19.5324 49.828 17.1396 48.5867C17.1396 49.7722 17.1396 50.8366 17.1396 51.9011C17.1298 52.0803 17.1729 52.2584 17.2638 52.4132C18.4027 53.9307 19.551 55.4328 20.7582 57.0341V57.0465ZM41.3368 35.7542V29.2774H35.9462C35.6669 30.4474 35.4031 31.5522 35.1424 32.657C35.1161 32.7588 35.1161 32.8655 35.1424 32.9673C35.4093 33.8673 35.6824 34.7642 35.9772 35.7604L41.3368 35.7542ZM59.9819 59.4485H41.0513C41.194 60.0692 41.3244 60.6496 41.4547 61.233H59.9726L59.9819 59.4485ZM11.9787 54.5266C13.6204 56.0162 15.1938 57.4562 16.789 58.8713C16.8839 58.947 16.9939 59.0017 17.1116 59.0316C17.2294 59.0616 17.3521 59.0662 17.4717 59.0451C17.9595 58.8812 18.4363 58.6864 18.8993 58.4617C17.4034 56.4941 15.9759 54.5855 14.5049 52.7049C14.058 52.1339 13.4156 52.199 13.0059 52.8073C12.6428 53.3411 12.3387 53.9152 11.9787 54.5266ZM29.5346 54.5266C29.2242 54.0145 28.9729 53.5428 28.6936 53.0804C28.1008 52.0966 27.4801 52.0625 26.7757 52.9842C25.4971 54.6569 24.2309 56.3327 22.9616 58.0117C22.8616 58.1646 22.7724 58.3243 22.6947 58.4896C23.0828 58.6851 23.4841 58.8531 23.8957 58.9923C24.0221 59.0334 24.1556 59.0482 24.2879 59.0359C24.4202 59.0237 24.5487 58.9846 24.6654 58.921C26.2915 57.4872 27.896 56.0131 29.5346 54.5297V54.5266ZM42.9226 5.18266C42.9226 4.35406 42.9071 3.60304 42.9226 2.84891C42.9226 2.42685 42.7395 2.32134 42.3547 2.32444C40.803 2.32444 39.2513 2.32444 37.6748 2.34927C37.5593 2.37833 37.4531 2.43631 37.3663 2.51775C37.2794 2.59919 37.2147 2.70141 37.1782 2.81477C37.1224 3.58442 37.1534 4.36647 37.1534 5.18266H42.9226ZM41.523 72.4331H50.4794V70.6518H41.523V72.4331ZM10.2656 33.9138C9.81254 33.9138 9.38738 33.8114 9.05532 33.9418C8.72325 34.0721 8.18637 34.4166 8.15533 34.7083C8.06747 35.4776 8.12431 36.2565 8.32292 37.0048C8.5805 37.9017 9.27566 38.4696 10.2656 38.7117V33.9138ZM31.2725 33.9418V38.6807C31.8903 38.5347 32.4389 38.1803 32.8261 37.6773C33.2132 37.1743 33.4153 36.5532 33.3983 35.9186C33.448 33.9914 33.2711 33.827 31.2725 33.9418Z" fill="white"/>
<path id="Vector_2" d="M38.1434 52.8166C36.9206 52.8166 35.6979 52.8166 34.4751 52.8166C33.2524 52.8166 32.5138 52.0842 32.4983 50.8739C32.4693 48.4284 32.4693 45.9819 32.4983 43.5344C32.4983 42.324 33.2648 41.5916 34.4689 41.5823C36.9144 41.5637 39.3609 41.5637 41.8085 41.5823C42.0636 41.565 42.3194 41.6024 42.559 41.6919C42.7985 41.7814 43.0161 41.921 43.1974 42.1014C43.3786 42.2818 43.5193 42.4988 43.61 42.7378C43.7007 42.9769 43.7393 43.2326 43.7232 43.4878C43.7419 45.9705 43.7419 48.4429 43.7232 50.9049C43.7232 52.0718 42.9784 52.7949 41.8116 52.8135C40.5888 52.8321 39.3661 52.8166 38.1434 52.8166ZM41.3243 50.4487V43.9657H34.8972V50.4487H41.3243Z" fill="white"/>
<path id="Vector_3" d="M56.7918 21.0571C53.8042 21.0571 50.8146 21.0571 47.823 21.0571C47.5383 21.0662 47.2536 21.0391 46.9757 20.9764C46.7152 20.9251 46.4836 20.7774 46.3271 20.5628C46.1707 20.3483 46.1008 20.0826 46.1316 19.8188C46.1281 19.5406 46.2331 19.272 46.4243 19.0698C46.6154 18.8676 46.8778 18.7478 47.1557 18.7357C47.3621 18.7172 47.5693 18.711 47.7764 18.7171H65.8723C66.0794 18.7089 66.2869 18.7162 66.493 18.7388C66.7563 18.7596 67.0025 18.8775 67.1837 19.0696C67.365 19.2617 67.4683 19.5144 67.4736 19.7785C67.5152 20.0399 67.4564 20.3073 67.3091 20.5271C67.1617 20.747 66.9367 20.903 66.6792 20.964C66.3744 21.0364 66.0613 21.0677 65.7482 21.0571C62.7565 21.0612 59.771 21.0612 56.7918 21.0571Z" fill="white"/>
<path id="Vector_4" d="M56.8413 47.9196H65.7326C65.9916 47.9081 66.2511 47.9185 66.5084 47.9506C66.7656 47.99 67.0015 48.1163 67.1769 48.3084C67.3524 48.5005 67.4568 48.7469 67.4727 49.0065C67.4887 49.2662 67.4153 49.5235 67.2647 49.7357C67.1141 49.9478 66.8954 50.102 66.645 50.1726C66.3147 50.2436 65.9769 50.2728 65.6395 50.2595C59.7409 50.2595 53.8445 50.2595 47.9501 50.2595C47.6381 50.2703 47.3258 50.2464 47.0191 50.1881C46.7506 50.1306 46.5119 49.9779 46.347 49.7583C46.1822 49.5387 46.1022 49.2669 46.1218 48.993C46.1415 48.7191 46.2594 48.4615 46.454 48.2677C46.6485 48.0739 46.9065 47.9568 47.1805 47.9382C47.5963 47.9072 48.0122 47.9196 48.4218 47.9196H56.8413Z" fill="white"/>
<path id="Vector_5" d="M55.8079 33.4018H63.765C63.998 33.3914 64.2315 33.3997 64.4633 33.4266C64.7265 33.4469 64.9724 33.5653 65.1524 33.7585C65.3323 33.9516 65.4331 34.2054 65.4346 34.4694C65.4765 34.7309 65.417 34.9987 65.2682 35.2178C65.1194 35.437 64.8925 35.5911 64.6339 35.6486C64.3053 35.7233 63.9683 35.7546 63.6315 35.7418H47.9532C47.7453 35.7418 47.5343 35.7418 47.3325 35.7418C46.5722 35.6735 46.0633 35.1521 46.0912 34.5004C46.1191 33.8487 46.6219 33.4204 47.376 33.4173C50.1908 33.3956 52.9993 33.4018 55.8079 33.4018Z" fill="white"/>
<path id="Vector_6" d="M54.1784 16.9446C51.9905 16.9446 49.8058 16.9695 47.6179 16.9229C47.1633 16.9159 46.7249 16.7526 46.3765 16.4605C45.7931 15.8833 46.1469 14.8902 46.9537 14.6761C47.233 14.6164 47.5187 14.5924 47.8041 14.6047C52.0743 14.6047 56.3446 14.6047 60.6149 14.6047C60.7421 14.6047 60.8755 14.6047 61.0028 14.6047C61.7848 14.6574 62.2969 15.1291 62.2876 15.7902C62.2783 16.4512 61.7724 16.9291 60.9749 16.9353C58.7094 16.9539 56.4439 16.9353 54.1784 16.9353V16.9446Z" fill="white"/>
<path id="Vector_7" d="M34.1867 73.2028C34.1867 74.9996 34.1867 76.7965 34.1867 78.5903C34.1867 79.4499 33.7522 79.9744 33.0633 79.9992C32.3743 80.024 31.8499 79.4809 31.8499 78.5934C31.8499 74.9748 31.8499 71.3542 31.8499 67.7315C31.8499 66.8377 32.3278 66.307 33.0602 66.3288C33.7926 66.3505 34.1836 66.8594 34.1867 67.7284C34.1898 69.5594 34.1867 71.378 34.1867 73.2028Z" fill="white"/>
<path id="Vector_8" d="M9.66034 73.2059C9.66034 74.9997 9.66034 76.7965 9.66034 78.5934C9.66034 79.453 9.22586 79.9744 8.53691 79.9992C7.84796 80.024 7.32349 79.4809 7.32349 78.5934C7.32349 74.9748 7.32349 71.3542 7.32349 67.7315C7.32349 66.8408 7.80762 66.3071 8.53691 66.3319C9.26621 66.3567 9.65724 66.8533 9.66034 67.7315C9.66344 69.5625 9.66034 71.378 9.66034 73.2059Z" fill="white"/>
<path id="Vector_9" d="M52.2109 46.1351C50.6592 46.1351 49.0889 46.1351 47.5279 46.1351C46.6248 46.1351 46.0817 45.6757 46.1003 44.9589C46.1189 44.242 46.6496 43.8044 47.4968 43.8013C50.6706 43.7889 53.8443 43.7889 57.018 43.8013C57.8808 43.8013 58.3866 44.2668 58.3959 44.9682C58.4053 45.6695 57.8901 46.1319 56.9684 46.1351C55.3826 46.1413 53.7967 46.1351 52.2109 46.1351Z" fill="white"/>
<path id="Vector_10" d="M51.4352 31.6302C50.1348 31.6302 48.8345 31.6302 47.5311 31.6302C46.6187 31.6302 46.0849 31.1585 46.1004 30.4416C46.1159 29.7247 46.6404 29.3026 47.5001 29.2964C50.1028 29.284 52.7065 29.284 55.3113 29.2964C56.2423 29.2964 56.7357 29.7433 56.7233 30.4881C56.7109 31.2329 56.2361 31.6178 55.3423 31.6302C54.0389 31.655 52.7386 31.6302 51.4352 31.6302Z" fill="white"/>
<path id="Vector_11" d="M2.3862 75.6418C2.3862 76.6039 2.3862 77.5659 2.3862 78.528C2.3862 79.49 1.95173 79.9835 1.23795 79.999C0.524168 80.0145 0.055556 79.4807 0.0493492 78.5714C0.0369357 76.6225 0.0369357 74.6725 0.0493492 72.7215C0.0493492 71.8495 0.490031 71.3498 1.18829 71.3343C1.88656 71.3188 2.36758 71.8402 2.37999 72.7557C2.39862 73.7177 2.3862 74.6798 2.3862 75.6418Z" fill="white"/>
<path id="Vector_12" d="M54.9295 76.5827C54.9295 75.8285 54.9109 75.0713 54.9295 74.3172C54.9267 74.1652 54.9538 74.0141 55.0093 73.8726C55.0649 73.731 55.1477 73.6018 55.2532 73.4923C55.3587 73.3828 55.4847 73.2951 55.624 73.2343C55.7634 73.1735 55.9133 73.1408 56.0654 73.1379C56.2174 73.135 56.3685 73.1622 56.51 73.2177C56.6515 73.2732 56.7807 73.3561 56.8902 73.4616C56.9998 73.5671 57.0874 73.6931 57.1482 73.8324C57.209 73.9718 57.2418 74.1217 57.2447 74.2737C57.285 75.782 57.2819 77.2933 57.2447 78.8016C57.2502 78.9591 57.2235 79.116 57.1662 79.2628C57.109 79.4097 57.0223 79.5432 56.9116 79.6554C56.8009 79.7675 56.6685 79.8559 56.5225 79.9151C56.3764 79.9742 56.2198 80.003 56.0623 79.9995C55.4105 79.9995 54.945 79.5092 54.9233 78.7581C54.9016 78.0071 54.9295 77.312 54.9295 76.5827Z" fill="white"/>
<path id="Vector_13" d="M17.6022 70.447C17.5995 70.6028 17.5655 70.7565 17.5022 70.8989C17.439 71.0414 17.3478 71.1696 17.2341 71.2762C17.1203 71.3827 16.9863 71.4652 16.8401 71.519C16.6938 71.5728 16.5382 71.5966 16.3826 71.5891C16.0821 71.5786 15.7977 71.4509 15.5901 71.2335C15.3824 71.016 15.2681 70.7259 15.2716 70.4253C15.2776 70.1236 15.3985 69.8356 15.6095 69.62C15.8206 69.4043 16.1059 69.2772 16.4074 69.2646C16.7217 69.2662 17.0228 69.3909 17.2461 69.612C17.4695 69.833 17.5973 70.1328 17.6022 70.447Z" fill="white"/>
<path id="Vector_14" d="M16.4133 64.0724C16.7236 64.0679 17.023 64.1868 17.2456 64.403C17.4683 64.6192 17.5959 64.915 17.6004 65.2253C17.6049 65.5356 17.486 65.835 17.2698 66.0576C17.0536 66.2802 16.7578 66.4078 16.4475 66.4123C16.138 66.4177 15.8391 66.2999 15.6165 66.0848C15.3938 65.8698 15.2658 65.5751 15.2604 65.2656C15.2551 64.9562 15.3729 64.6572 15.5879 64.4346C15.803 64.212 16.0977 64.0839 16.4071 64.0786L16.4133 64.0724Z" fill="white"/>
<path id="Vector_15" d="M16.4042 76.7595C16.1032 76.7578 15.8151 76.6371 15.6029 76.4237C15.3906 76.2103 15.2715 75.9215 15.2715 75.6205C15.2711 75.4659 15.3012 75.3128 15.3602 75.1699C15.4191 75.027 15.5058 74.8972 15.6151 74.7879C15.7244 74.6786 15.8542 74.592 15.9971 74.533C16.14 74.4741 16.2931 74.4439 16.4477 74.4443C16.7482 74.4582 17.0326 74.5846 17.2442 74.7985C17.4558 75.0124 17.5791 75.2981 17.5897 75.5988C17.5898 75.7533 17.5589 75.9063 17.4991 76.0488C17.4392 76.1912 17.3515 76.3203 17.241 76.4284C17.1306 76.5365 16.9997 76.6215 16.856 76.6783C16.7123 76.7352 16.5587 76.7628 16.4042 76.7595Z" fill="white"/>
<path id="Vector_16" d="M20.7923 43.0844C19.8396 42.7958 18.9055 42.5816 18.0303 42.2278C17.2576 41.9175 17.0186 41.2099 17.3321 40.5861C17.6455 39.9624 18.2631 39.7824 19.0048 40.1299C19.5502 40.4062 20.153 40.5501 20.7644 40.5501C21.3758 40.5501 21.9786 40.4062 22.524 40.1299C23.2564 39.7824 23.874 39.9872 24.1843 40.6048C24.2642 40.7489 24.3111 40.909 24.3216 41.0735C24.3321 41.238 24.306 41.4028 24.2452 41.556C24.1843 41.7092 24.0902 41.8469 23.9697 41.9593C23.8492 42.0718 23.7052 42.1561 23.5481 42.2061C22.673 42.5568 21.7451 42.7833 20.7923 43.0844Z" fill="white"/>
</g>
</g>
</svg>
