<svg width="80" height="80" viewBox="0 0 80 80" fill="none" xmlns="http://www.w3.org/2000/svg">
<g id="Capa 2">
<g id="Capa 1">
<path id="Vector" d="M40.32 0C41.449 0.497562 41.0911 1.57125 41.2337 2.50818C51.0773 2.96792 59.5649 6.5556 66.5337 13.5273C73.5025 20.499 77.0465 28.9488 77.5033 38.7604C78.4723 38.9903 79.9679 38.4345 79.9533 40.0232C79.9533 41.5566 78.4985 41.0445 77.5063 41.2424C77.0553 51.0423 73.4763 59.5475 66.5133 66.5104C59.5504 73.4734 51.0918 77.0436 41.1988 77.5033C41.1988 77.902 41.1988 78.2541 41.1988 78.609C41.158 79.482 40.7187 79.9912 40.0349 79.9999C39.3511 80.0086 38.8972 79.4907 38.8535 78.6352C38.8535 78.3006 38.8535 77.9631 38.8535 77.5121C29.0128 77.0582 20.5223 73.4879 13.5389 66.5337C6.5556 59.5795 2.96792 51.0773 2.50818 41.2337C1.56834 41.0911 0.497562 41.4461 0 40.32V39.6944C0.497562 38.5684 1.56834 38.9204 2.51109 38.7808C2.95919 28.9488 6.54688 20.4495 13.5011 13.504C20.4553 6.55851 28.9488 2.96501 38.7808 2.50818C38.9204 1.56834 38.5655 0.497562 39.6944 0H40.32ZM38.8361 4.92034C18.6397 5.52847 4.81559 22.9868 4.9989 38.8331C5.5663 38.8331 6.13951 38.8331 6.70982 38.8331C6.99556 38.8278 7.28134 38.8414 7.56528 38.8739C7.70979 38.8795 7.85162 38.9147 7.98208 38.9771C8.11254 39.0395 8.22888 39.1279 8.32396 39.2369C8.41904 39.3459 8.49086 39.4731 8.53502 39.6108C8.57918 39.7485 8.59475 39.8938 8.58077 40.0378C8.59032 40.1772 8.57118 40.317 8.52451 40.4487C8.47785 40.5804 8.40466 40.7011 8.30948 40.8034C8.21429 40.9057 8.09914 40.9873 7.97113 41.0433C7.84312 41.0993 7.70499 41.1284 7.56528 41.1289C6.69236 41.1755 5.81944 41.1289 4.94653 41.1289C5.26369 59.8792 21.4708 74.9573 38.8448 75.0301C38.8448 74.2299 38.8157 73.4297 38.8448 72.6296C38.8739 71.8294 39.3365 71.4133 39.9941 71.4104C40.6517 71.4075 41.126 71.8789 41.158 72.6994C41.19 73.5199 41.158 74.2881 41.158 75.0825C61.3573 74.4714 75.1785 57.0014 74.9981 41.1667C74.3754 41.1667 73.7527 41.1667 73.13 41.1667C72.8441 41.1758 72.5581 41.1524 72.2775 41.0969C72.0142 41.0558 71.7768 40.9151 71.6143 40.7039C71.4519 40.4927 71.3768 40.2271 71.4046 39.9621C71.3963 39.8238 71.4162 39.6852 71.463 39.5548C71.5099 39.4243 71.5827 39.3048 71.6771 39.2033C71.7715 39.1018 71.8855 39.0206 72.0122 38.9645C72.1389 38.9083 72.2757 38.8785 72.4143 38.8768C73.2872 38.8273 74.1601 38.8768 75.033 38.8768C74.7158 20.1207 58.5058 5.04546 41.1464 4.97271C41.1464 5.69724 41.1464 6.42758 41.1464 7.14046C41.1231 8.08321 40.707 8.59532 39.9825 8.59532C39.258 8.59532 38.8332 8.09194 38.8186 7.14046C38.8215 6.42176 38.8361 5.69724 38.8361 4.92034Z" fill="white"/>
<path id="Vector_2" d="M39.9997 68.7418C28.323 68.2035 19.4745 63.0359 14.2079 52.4765C8.52523 41.0849 11.2516 27.4238 20.6588 18.8401C25.1606 14.6624 30.9014 12.0658 37.0114 11.4436C41.9541 10.8827 46.9569 11.6532 51.5018 13.6753C52.3049 14.0274 52.6221 14.5337 52.4446 15.1564C52.2263 15.9129 51.5717 16.1806 50.6813 15.8809C49.1566 15.3717 47.6552 14.7519 46.0956 14.3795C40.5176 13.0481 34.6575 13.5747 29.4063 15.8794C24.1552 18.1841 19.8004 22.1406 17.0042 27.1473C14.5341 31.5674 13.3905 36.6057 13.7105 41.659C14.0304 46.7123 15.8003 51.5662 18.8082 55.6393C22.5908 60.7401 27.5635 64.1881 33.7612 65.5877C43.6747 67.8253 52.2584 65.2269 59.3144 57.9002C63.2878 53.835 65.7246 48.5151 66.2076 42.8511C67.1008 33.1588 63.6528 25.2124 56.0672 19.0874C55.8053 18.8721 55.5231 18.6859 55.2554 18.4793C54.4901 17.8973 54.3068 17.2077 54.7491 16.62C55.1913 16.0322 55.913 16.0031 56.6142 16.5792C57.9061 17.6267 59.2533 18.6335 60.4114 19.8177C65.7245 25.2444 68.6023 31.7883 68.6954 39.3769C68.8176 48.979 65.0058 56.8003 57.4697 62.7565C53.2418 66.0969 48.3739 67.9475 43.0403 68.576C42.0336 68.6923 41.0268 68.6894 39.9997 68.7418Z" fill="white"/>
<path id="Vector_3" d="M32.3997 52.4686C32.3997 52.9429 32.4142 53.3037 32.3997 53.6616C32.356 54.5025 31.9865 54.9447 31.1514 54.9564C28.7033 54.9874 26.2563 54.9874 23.8102 54.9564C22.9983 54.9564 22.6143 54.4821 22.5444 53.6528C22.5444 53.4986 22.5444 53.3415 22.5444 53.1844C22.5444 46.0788 22.5444 38.9713 22.5444 31.8619C22.5444 30.4071 22.8965 30.055 24.3368 30.0521C26.3678 30.0521 28.3978 30.0521 30.4269 30.0521C32.1261 30.0521 32.3764 30.2907 32.4142 31.9638C32.4142 32.118 32.4317 32.2693 32.4433 32.4904H36.3336V31.2451C36.3336 29.2664 36.3336 27.2878 36.3336 25.3092C36.3336 24.2064 36.7526 23.8224 37.8525 23.7903C40.6836 23.706 43.0056 24.64 44.2539 27.3111C44.6903 28.2422 44.7718 29.3479 44.9231 30.3983C44.9777 31.1168 44.9835 31.8381 44.9406 32.5573H45.8804C49.2149 32.5573 52.5466 32.5573 55.8782 32.5573C58.1856 32.5573 59.7743 33.8347 59.8994 35.9326C59.9431 36.7066 59.5823 37.5301 59.2942 38.2895C59.1662 38.627 59.0469 38.8162 59.2942 39.1624C60.4057 40.8588 60.1206 42.7006 58.6279 44.0798C58.5388 44.1816 58.4745 44.3026 58.4402 44.4334C58.4059 44.5641 58.4024 44.7011 58.43 44.8335C58.9887 46.4978 58.6386 47.9149 57.3796 49.0846C57.2895 49.1858 57.2242 49.3065 57.1888 49.4373C57.1535 49.5681 57.1491 49.7054 57.1759 49.8382C58.0489 52.3609 56.6493 54.6509 53.9927 54.9156C53.0878 55.0058 52.1712 54.9564 51.2605 54.9564C47.3294 54.9564 43.4042 54.9418 39.4674 54.9564C38.6556 54.9564 37.9543 54.8022 37.4771 54.1242C36.4616 52.6897 35.1086 52.1398 33.3831 52.4337C33.0566 52.4695 32.7279 52.4812 32.3997 52.4686ZM32.3997 34.9113V48.5928C32.3997 50.1088 32.3997 50.0913 33.9214 50.1117C37.4364 50.1612 36.2492 49.6781 38.705 52.0845C38.8687 52.2624 39.0689 52.4028 39.2918 52.4963C39.5148 52.5897 39.7553 52.6338 39.9969 52.6257C44.3615 52.6053 48.7465 52.6257 53.1198 52.6257C53.3804 52.6326 53.6411 52.619 53.8996 52.585C54.2469 52.5711 54.5744 52.4198 54.8101 52.1644C55.0459 51.909 55.1705 51.5705 55.1566 51.2232C55.1427 50.8759 54.9914 50.5484 54.7361 50.3127C54.4807 50.0769 54.1421 49.9523 53.7948 49.9662C53.2769 49.9226 52.7503 49.9487 52.244 49.8556C51.9807 49.8168 51.7436 49.6753 51.5844 49.4621C51.4252 49.2489 51.3569 48.9814 51.3943 48.7179C51.3849 48.4537 51.4766 48.1959 51.6507 47.997C51.8248 47.798 52.0682 47.6729 52.3313 47.6472C52.6674 47.6097 53.0057 47.5942 53.3438 47.6006C53.9927 47.5744 54.6474 47.6006 55.2904 47.5162C55.9859 47.4289 56.3059 46.9168 56.3467 46.2592C56.3568 45.9423 56.2451 45.6336 56.0346 45.3966C55.824 45.1595 55.5307 45.0121 55.2148 44.9848C54.6503 44.9237 54.0713 44.9557 53.501 44.9353C53.0853 44.938 52.67 44.9098 52.2585 44.8509C52.0066 44.7911 51.783 44.6465 51.625 44.4414C51.467 44.2363 51.3844 43.9831 51.3908 43.7243C51.3973 43.4655 51.4926 43.2167 51.6606 43.0198C51.8286 42.8228 52.0592 42.6896 52.3138 42.6424C52.6493 42.5968 52.9879 42.5773 53.3264 42.5842C54.3652 42.5639 55.4097 42.5842 56.4456 42.5231C57.1818 42.4795 57.5426 41.9645 57.6095 41.2691C57.62 40.9395 57.5021 40.6187 57.2806 40.3744C57.0591 40.1301 56.7514 39.9814 56.4223 39.9597C56.1383 39.9286 55.8526 39.915 55.5669 39.9189C54.6037 39.9189 53.6406 39.9393 52.6775 39.9189C51.8395 39.8898 51.3972 39.4534 51.4031 38.7551C51.4089 38.0567 51.8512 37.6377 52.6891 37.5912C53.2362 37.5621 53.7832 37.5912 54.3302 37.5912C55.0315 37.5912 55.7385 37.6057 56.4369 37.5475C56.753 37.5271 57.0499 37.3887 57.2687 37.1596C57.4876 36.9306 57.6123 36.6276 57.6182 36.3109C57.6248 35.9961 57.5169 35.6896 57.3147 35.4482C57.1124 35.2069 56.8295 35.0471 56.5183 34.9986C56.2074 34.9414 55.8917 34.9141 55.5756 34.9171C51.825 34.9171 48.0743 34.9171 44.3237 34.9171C42.9038 34.9171 42.6041 34.5971 42.5779 33.1713C42.5779 31.923 42.607 30.666 42.4877 29.4265C42.3102 27.5323 40.477 26.057 38.6556 26.2956C38.6556 28.2335 38.6556 30.183 38.6556 32.1151C38.6556 33.9947 37.7448 34.8938 35.8797 34.9113C34.774 34.9171 33.6567 34.9171 32.4026 34.9171L32.3997 34.9113ZM29.9875 52.5762V32.4555H24.9304V52.5762H29.9875Z" fill="white"/>
</g>
</g>
</svg>
