<svg width="70" height="80" viewBox="0 0 70 80" fill="none" xmlns="http://www.w3.org/2000/svg">
<g id="Capa 1">
<g id="Group">
<path id="Vector" d="M14.1157 80C13.4665 79.5571 13.2724 79.0111 13.4422 78.1981C14.2613 74.2547 15.0136 70.293 15.7962 66.3374C16.5849 62.3393 15.4322 59.045 12.2107 56.5091C9.19543 54.1369 6.65341 51.334 4.62708 48.0761C-1.8584 37.6533 -1.49439 24.1545 5.51891 14.0956C5.80405 13.6831 5.92539 13.1128 5.97999 12.5971C6.07706 11.6689 5.95572 10.7103 6.11346 9.80027C6.46534 7.73147 8.20046 6.18442 10.2753 6.29362C12.2956 6.40282 13.9215 5.8022 15.6324 4.75264C21.7842 0.972978 28.5487 -0.428469 35.738 0.111482C40.9616 0.505829 45.8636 1.89514 50.3531 4.6313C50.4623 4.69803 50.5775 4.7587 50.6867 4.83151C51.342 5.27439 51.524 5.92354 51.166 6.4999C50.8081 7.08231 50.165 7.17938 49.4491 6.82751C47.6108 5.92354 45.8272 4.83151 43.8979 4.18842C35.2466 1.28845 26.7529 1.67673 18.5141 5.77187C18.3079 5.87501 18.1077 5.99635 17.9014 6.25115H18.684C26.0795 6.25115 33.475 6.25115 40.8706 6.25115C43.5096 6.25115 44.9657 7.38566 45.6816 9.91554C45.7604 10.1885 46.0577 10.4373 46.3186 10.6072C52.2945 14.5264 56.0802 19.9683 57.4938 26.9756C60.1389 40.0679 51.7727 53.0934 38.7835 56.2179C27.8814 58.8388 16.7608 54.0641 11.1004 44.3329C10.9002 43.981 10.7182 43.7505 10.2268 43.7323C7.75152 43.6534 5.98606 41.7848 5.98606 39.2549C5.97392 33.2426 5.98606 27.2243 5.98606 21.2121C5.98606 20.1807 5.98606 19.1493 5.98606 18.124C5.94359 18.1119 5.90112 18.0997 5.85259 18.0876C5.73125 18.3 5.58564 18.5002 5.48251 18.7186C0.295335 29.8027 1.39951 40.2317 8.86175 49.9205C10.1358 51.5767 11.695 53.0692 13.3391 54.3614C17.6405 57.7589 19.133 62.0421 17.9924 67.3566C17.2098 71.015 16.5303 74.7036 15.8144 78.3741C15.687 79.0232 15.5535 79.6542 14.8983 79.9939H14.1157V80ZM45.718 13.1067C45.718 14.8115 45.718 16.395 45.718 17.9723C45.718 20.1564 45.724 22.3466 45.7119 24.5306C45.7119 25.2829 45.2508 25.7561 44.5956 25.7804C43.9404 25.7986 43.4611 25.3436 43.3883 24.6095C43.364 24.379 43.3762 24.1423 43.3762 23.9057C43.3762 19.6347 43.3762 15.3697 43.3762 11.0986C43.3762 9.30279 42.6663 8.59903 40.8706 8.59903C30.8724 8.59903 20.8742 8.59903 10.876 8.59903C9.05589 8.59903 8.34607 9.32099 8.34607 11.1653C8.34607 20.3809 8.34607 29.5965 8.34607 38.812C8.34607 40.711 9.03769 41.4087 10.9124 41.4087C12.8659 41.4087 14.8194 41.3965 16.7729 41.4087C17.6708 41.4147 18.2108 42.0032 18.0713 42.7737C17.9378 43.4835 17.4585 43.7505 16.7729 43.7444C15.7294 43.7444 14.6799 43.7444 13.5636 43.7444C17.6769 50.6849 26.3101 55.7629 36.2294 54.325C45.9303 52.9175 53.5564 45.4856 55.3097 35.6209C56.972 26.3082 52.4886 17.5477 45.724 13.0946L45.718 13.1067Z" fill="white"/>
<path id="Vector_2" d="M43.4916 80.0001C42.8121 79.4662 42.7029 78.8231 42.9699 78.0041C43.4188 76.6209 43.7646 75.2073 44.1832 73.8119C44.6565 72.2103 45.8092 71.458 47.4351 71.731C48.6909 71.9433 49.9346 72.2103 51.1783 72.4833C51.9488 72.6531 52.3492 73.2416 52.1915 73.8908C52.0277 74.5521 51.4392 74.8979 50.6809 74.7523C49.5585 74.5399 48.4361 74.3155 47.3198 74.0728C46.7859 73.9575 46.5129 74.1031 46.3673 74.6613C46.0276 75.9717 45.6636 77.27 45.2389 78.5562C45.069 79.0719 44.7111 79.5208 44.438 80.0001H43.4977H43.4916Z" fill="white"/>
<path id="Vector_3" d="M65.6051 63.6376C66.867 65.7489 66.7093 67.1503 64.9256 68.9097C64.3614 69.4679 64.3068 70.1231 64.2764 70.839C64.1612 74.0362 61.516 76.4448 58.3309 76.2264C57.609 76.1778 56.887 76.014 56.1832 75.8381C55.5038 75.6743 55.1397 75.0979 55.255 74.5095C55.3764 73.8906 55.886 73.5024 56.5776 73.5752C57.069 73.6237 57.5483 73.745 58.0336 73.836C60.0782 74.2182 61.8861 72.8107 61.9225 70.7298C61.9468 69.2374 62.3836 67.9997 63.5302 66.9926C64.2582 66.3495 64.24 65.7914 63.6212 65.0209C62.7355 63.9106 62.7961 62.9035 63.87 61.945C64.4706 61.4111 64.5859 60.8347 64.2097 60.1431C64.0095 59.7791 63.8154 59.409 63.6273 59.0389C62.7112 57.2189 63.2633 55.4534 65.053 54.4585C65.4595 54.234 65.8842 54.0216 66.2906 53.7911C67.4494 53.1359 67.7346 52.238 67.14 51.0368C65.9084 48.5433 64.6951 46.0377 63.3968 43.5745C62.1955 41.2934 62.0924 39.0486 63.1662 36.6886C64.3493 34.0799 64.4827 31.3558 63.6698 28.6075C62.4321 24.4396 61.1459 20.2959 58.8466 16.5527C57.3784 14.1623 55.6797 11.9722 53.6291 10.0551C53.2044 9.66071 52.9678 9.18143 53.2165 8.66574C53.3622 8.35633 53.7565 7.97412 54.0416 7.97412C54.4785 7.97412 55.0123 8.16826 55.3339 8.4716C58.6828 11.5839 61.2733 15.2726 62.9599 19.4951C64.2946 22.8379 65.3806 26.3021 66.2846 29.7906C66.9701 32.4418 66.4666 35.1355 65.3199 37.635C64.5677 39.2852 64.6101 40.8141 65.4474 42.4157C66.7457 44.9031 67.9772 47.427 69.227 49.9447C70.4222 52.3533 69.7245 54.6283 67.3341 55.8902C65.0045 57.1158 65.2593 57.1036 66.3149 59.1299C67.1461 60.7255 66.9459 61.8843 65.6051 63.6437V63.6376Z" fill="white"/>
<path id="Vector_4" d="M17.1189 23.566C15.9966 23.566 14.8803 23.5721 13.7579 23.566C12.1987 23.5539 11.4464 22.8137 11.4403 21.2788C11.4343 19.0158 11.4343 16.7529 11.4403 14.4839C11.4403 12.9854 12.1926 12.2331 13.6972 12.221C15.8085 12.2028 17.9137 12.1846 20.025 12.2331C20.7712 12.2513 21.3415 12.13 21.6812 11.408C21.7601 11.2442 21.8875 11.1047 22.0088 10.9772C22.4699 10.504 23.0159 10.413 23.5559 10.7892C24.1019 11.1653 24.205 11.7053 23.9017 12.3059C23.8532 12.3969 23.8046 12.494 23.7257 12.5668C22.749 13.4647 22.6701 14.6052 22.7065 15.8429C22.7672 17.6872 22.7308 19.5376 22.7186 21.388C22.7065 22.7955 21.9542 23.5478 20.5406 23.5721C19.394 23.5903 18.2474 23.5721 17.1068 23.5721L17.1189 23.566ZM13.855 14.587V21.1514H20.3344V17.1533C19.7823 17.8813 19.3394 18.482 18.8783 19.0705C18.4536 19.6165 17.8834 19.7863 17.2949 19.4163C16.6821 19.028 16.1058 18.5669 15.584 18.0694C15.1411 17.6447 15.1229 17.0805 15.5173 16.583C15.9056 16.0977 16.4091 15.9763 16.9794 16.2736C17.2221 16.401 17.4405 16.5709 17.7074 16.7408C18.2352 16.0249 18.7388 15.3575 19.3091 14.587H13.855Z" fill="white"/>
<path id="Vector_5" d="M11.4463 32.7027C11.4463 31.556 11.4402 30.4094 11.4463 29.2688C11.4584 27.8249 12.2107 27.0605 13.6728 27.0544C15.9115 27.0423 18.1502 27.0362 20.3889 27.0605C20.8803 27.0605 21.2322 26.9634 21.4809 26.5205C21.6326 26.2536 21.8328 25.9988 22.0512 25.7804C22.5183 25.3132 23.0704 25.2525 23.5982 25.6469C24.0957 26.017 24.1989 26.5327 23.9258 27.109C23.8834 27.2 23.8348 27.3031 23.756 27.3699C22.7671 28.286 22.6639 29.4508 22.7185 30.7127C22.7913 32.5085 22.7428 34.3043 22.7367 36.1001C22.7307 37.6229 22.0087 38.3812 20.5102 38.3934C18.2169 38.4116 15.9297 38.4176 13.6364 38.3934C12.1804 38.3812 11.4524 37.6047 11.4463 36.1426C11.4402 34.9959 11.4463 33.8493 11.4463 32.7087V32.7027ZM19.2968 29.4387H13.8488V35.9909H20.3464V31.9746C19.7943 32.7087 19.3514 33.3033 18.8964 33.8918C18.4717 34.4439 17.9075 34.6198 17.319 34.2558C16.7063 33.8736 16.1239 33.4125 15.6021 32.915C15.1532 32.4903 15.1289 31.9322 15.5172 31.4286C15.9236 30.9069 16.4575 30.8037 17.04 31.1374C17.2584 31.2587 17.4586 31.4165 17.7012 31.5803C18.223 30.8826 18.7205 30.2213 19.2968 29.4448V29.4387Z" fill="white"/>
<path id="Vector_6" d="M35.4285 46.9841C35.4285 45.9649 35.4164 45.1459 35.4285 44.3208C35.4528 42.4643 36.5023 41.4208 38.3467 41.4087C39.1778 41.4087 40.015 41.4087 40.8462 41.4087C42.6905 41.4087 43.364 40.7292 43.37 38.8545C43.37 36.1184 43.37 33.3883 43.37 30.6521C43.37 30.4155 43.3579 30.1789 43.4004 29.9544C43.5217 29.3114 43.91 28.9352 44.5773 28.9231C45.1962 28.9109 45.6694 29.3963 45.7058 30.0758C45.7361 30.6461 45.7179 31.2224 45.7179 31.7927C45.7179 34.2377 45.724 36.6887 45.7179 39.1336C45.7058 41.9668 43.9039 43.7444 41.0646 43.7505C40.2031 43.7505 39.3477 43.7808 38.4862 43.7384C37.928 43.7141 37.7521 43.9446 37.7703 44.4725C37.7946 45.4371 37.7703 46.4017 37.7824 47.3603C37.7946 48.3007 37.4609 49.0469 36.5812 49.4594C35.7258 49.8598 34.9674 49.6232 34.2637 49.059C32.6863 47.7789 31.0846 46.5291 29.5254 45.2308C28.2878 44.1995 26.8985 43.6898 25.2908 43.7444C24.3807 43.7748 23.4707 43.7626 22.5546 43.7444C21.7477 43.7323 21.2624 43.2955 21.2502 42.6039C21.2381 41.9122 21.7234 41.4208 22.5061 41.4087C23.7558 41.3905 25.0056 41.3662 26.2554 41.4269C27.8813 41.5118 29.3434 42.0882 30.6235 43.1135C32.1645 44.3511 33.7055 45.5827 35.4346 46.972L35.4285 46.9841Z" fill="white"/>
<path id="Vector_7" d="M32.3833 16.8863C30.454 16.8863 28.5308 16.8924 26.6015 16.8863C25.6733 16.8863 25.1698 16.4495 25.1758 15.7093C25.1819 14.9692 25.6976 14.5384 26.6198 14.5505C30.5025 14.5869 34.3793 14.6355 38.2621 14.6901C39.0629 14.7022 39.5604 15.1512 39.5786 15.8246C39.5968 16.5344 39.075 17.0198 38.2439 17.0258C36.2903 17.038 34.3368 17.0258 32.3833 17.0258C32.3833 16.9834 32.3833 16.9348 32.3833 16.8924V16.8863Z" fill="white"/>
<path id="Vector_8" d="M32.3588 29.5114C34.288 29.5114 36.2112 29.5054 38.1405 29.5114C39.0626 29.5114 39.5844 29.9543 39.5844 30.6763C39.5844 31.4043 39.0444 31.8593 38.1405 31.8472C34.2577 31.8108 30.381 31.7622 26.4982 31.7137C25.6488 31.7016 25.1634 31.2344 25.1816 30.5064C25.1998 29.8087 25.6791 29.384 26.4982 29.378C28.4517 29.3658 30.4052 29.378 32.3588 29.378C32.3588 29.4204 32.3588 29.469 32.3588 29.5114Z" fill="white"/>
<path id="Vector_9" d="M29.0339 19.5983C29.9197 19.5983 30.7994 19.568 31.6791 19.6044C32.486 19.6408 32.9713 20.1201 32.9653 20.7814C32.9653 21.473 32.4253 21.9341 31.5881 21.928C29.95 21.9098 28.3181 21.8795 26.68 21.837C25.679 21.8127 25.1815 21.4002 25.1876 20.6358C25.1876 19.8592 25.6911 19.4891 26.7043 19.4952C27.4808 19.4952 28.2635 19.4952 29.04 19.4952C29.04 19.5255 29.04 19.5619 29.04 19.5923L29.0339 19.5983Z" fill="white"/>
<path id="Vector_10" d="M29.1192 36.6644C28.2335 36.6644 27.3538 36.6948 26.468 36.6584C25.6065 36.622 25.1515 36.1427 25.1818 35.4146C25.2122 34.717 25.6793 34.3226 26.5166 34.3287C28.1789 34.3469 29.8412 34.3651 31.5035 34.4318C31.8675 34.444 32.3529 34.5471 32.5592 34.7898C32.7958 35.081 32.9717 35.6452 32.8443 35.9546C32.7048 36.3004 32.2133 36.6766 31.8372 36.719C30.9393 36.8282 30.0232 36.7554 29.1132 36.7554C29.1132 36.7251 29.1132 36.6948 29.1132 36.6644H29.1192Z" fill="white"/>
</g>
</g>
</svg>
