<svg width="74" height="80" viewBox="0 0 74 80" fill="none" xmlns="http://www.w3.org/2000/svg">
<g id="Capa 2">
<g id="Capa 1">
<path id="Vector" d="M63.9308 0C64.3186 0.130313 64.7096 0.251319 65.0943 0.397146C66.2874 0.840229 67.313 1.64382 68.0285 2.69635C68.7441 3.74887 69.1142 4.9981 69.0875 6.27056C69.0875 13.4316 69.0875 20.5926 69.0875 27.7536V28.6472C69.1774 28.7093 69.2147 28.7558 69.255 28.7589C72.2305 28.9637 73.7632 30.6205 73.7632 33.6146C73.7632 38.3028 73.7632 42.991 73.7632 47.6761C73.8188 51.7169 72.4969 55.6563 70.0152 58.8458C69.587 59.4043 69.1774 59.9752 68.7741 60.543C67.6291 62.0161 67.0521 63.8519 67.1483 65.7152C67.2289 67.1114 67.1483 68.5076 67.1483 69.9721C67.3717 70 67.5423 70.031 67.713 70.0434C68.6934 70.1148 69.075 70.4964 69.0782 71.4614C69.0782 73.8277 69.0782 76.1971 69.0782 78.5697C69.0782 79.5718 68.6562 79.9876 67.6478 79.9876C63.6122 79.9876 59.5787 79.9876 55.5473 79.9876C54.6351 79.9876 54.0952 79.547 54.089 78.8272C54.0828 78.1074 54.6258 77.6482 55.5225 77.6482C59.2209 77.6482 62.9193 77.6482 66.6922 77.6482V72.4635H46.6301V77.6575C47.623 77.6575 48.6034 77.6575 49.5839 77.6575C50.4961 77.6575 51.0235 78.1043 51.0173 78.8334C51.0111 79.5625 50.4899 79.9938 49.5715 80C48.2725 80 46.9704 80 45.6652 80C44.6537 80 44.2379 79.5873 44.2348 78.5821C44.2348 76.4102 44.2348 74.26 44.2348 72.1005C44.2348 70.3227 44.3372 70.2048 46.1399 69.9907C46.174 68.7062 46.2609 67.4155 45.7365 66.1775C43.5057 60.9029 44.7033 55.6004 48.9851 51.7965C49.0626 51.7282 49.134 51.6506 49.2178 51.5886C51.6844 49.7952 53.0682 47.4186 53.1427 44.3283C53.1743 43.9401 53.2261 43.5538 53.2978 43.171C53.2978 43.1244 53.273 43.0748 53.2451 42.9879H49.708C49.708 43.202 49.708 43.3788 49.708 43.5526C49.6677 45.1319 48.9975 45.982 47.4616 46.4164C46.0096 46.8228 46.0313 46.6708 46.807 48.0391C47.5826 49.4074 47.4275 50.5213 46.3416 51.6506C46.1058 51.8927 45.8638 52.1316 45.6217 52.3674C44.4241 53.5433 43.3661 53.6829 41.8985 52.8545C40.7133 52.1874 40.7133 52.1874 40.3472 53.475C39.8848 55.1474 39.0409 55.7927 37.3127 55.7958H36.3819C34.8057 55.7958 33.8997 55.1101 33.4716 53.624C33.0434 52.1378 33.1985 52.1378 31.8209 52.9196C30.4433 53.7015 29.3388 53.5402 28.2125 52.4356C27.9891 52.2153 27.7688 51.995 27.5485 51.7716C26.3261 50.5306 26.1833 49.4912 27.0273 47.9832C27.685 46.8104 27.685 46.8104 26.4067 46.4505C24.753 45.9913 24.1014 45.1319 24.0952 43.4068C24.0952 43.0965 24.0952 42.7862 24.0952 42.476C24.0952 40.9091 24.7964 39.9938 26.3012 39.578C27.806 39.1623 27.7812 39.3205 26.9807 37.915C26.2144 36.5715 26.3602 35.4639 27.4337 34.3686C27.744 34.0583 28.0543 33.7481 28.3645 33.4378C29.3481 32.507 30.4589 32.3705 31.6596 33.0003C33.0558 33.7294 33.0558 33.7294 33.5212 32.2619C33.9339 30.9091 34.8647 30.2017 36.295 30.2079C37.0224 30.1641 37.7523 30.2142 38.4669 30.3568C39.0316 30.5057 39.5125 30.9556 40.0834 31.2876C40.0834 31.0549 40.1176 30.785 40.1176 30.515C40.1176 27.8871 40.1176 25.2405 40.1176 22.6249C40.1027 22.3122 40.1309 21.999 40.2013 21.6941C40.2783 21.4608 40.4282 21.2585 40.6289 21.117C40.8297 20.9755 41.0706 20.9023 41.3161 20.9082C41.5617 20.9141 41.7988 20.9988 41.9925 21.1499C42.1862 21.3009 42.3262 21.5101 42.3918 21.7468C42.4467 22.0539 42.4675 22.366 42.4539 22.6776C42.4539 25.7245 42.4539 28.7713 42.4539 31.8182V32.7893C44.6258 32.0633 45.7086 33.5464 46.7977 34.8557C47.533 35.74 47.4492 36.7856 46.9094 37.7909C46.1833 39.1375 46.1957 39.1188 47.6881 39.6215C48.1112 39.8128 48.5198 40.0347 48.9106 40.2854C49.1615 40.4422 49.4409 40.5477 49.7328 40.5957C50.5892 40.6361 51.4486 40.5957 52.3081 40.5957C53.3071 40.5957 54.2007 40.5957 55.1005 39.8232C56.3416 38.7279 58.3397 39.0506 59.6149 40.1924C59.8716 40.4262 60.1994 40.5671 60.5457 40.5926C61.6596 40.5926 62.7766 40.5244 63.8904 40.453C64.362 40.422 64.573 40.1613 64.6227 39.6463C64.843 37.3937 65.1284 35.1474 65.3611 32.8948C65.4321 31.9024 65.8106 30.9567 66.444 30.1893C66.6264 29.9819 66.7355 29.7202 66.7542 29.4446C66.7728 23.0117 66.7728 16.5808 66.7542 10.152C66.7464 10.0353 66.7309 9.91921 66.7077 9.80453H42.4787C42.4787 10.0807 42.4353 10.3537 42.4353 10.6298C42.4353 12.4915 42.4353 14.3779 42.4353 16.2519C42.4353 17.2696 41.6565 17.9057 40.8839 17.493C40.6838 17.3715 40.5129 17.2073 40.3836 17.012C40.2544 16.8168 40.1699 16.5954 40.1362 16.3636C40.0834 12.8514 40.0369 9.33292 40.1362 5.81446C40.2355 2.94756 42.1746 0.803599 44.9888 0.139621C45.1068 0.101306 45.2218 0.0546474 45.3332 0L63.9308 0ZM64.8119 70.0124C64.8119 69.426 64.8119 68.911 64.8119 68.3959C64.8926 63.0748 64.0332 62.9662 68.439 57.04C70.4279 54.3676 71.4773 51.1125 71.4238 47.7816C71.4238 43.0448 71.4238 38.308 71.4238 33.5712C71.4348 33.2852 71.4224 32.9988 71.3866 32.7149C71.3572 32.4408 71.2611 32.1781 71.1068 31.9497C70.9524 31.7213 70.7445 31.5342 70.5011 31.4048C70.2578 31.2753 69.9865 31.2074 69.7108 31.207C69.4352 31.2066 69.1636 31.2737 68.9199 31.4024C68.1225 31.7592 67.7781 32.4263 67.6788 33.264C67.1576 37.8902 66.6674 42.5194 66.1058 47.1424C65.7272 50.2823 64.0952 52.6559 61.1414 53.7915C59.7514 54.339 58.5098 55.2064 57.5175 56.3233C57.2072 56.6646 56.8659 56.9966 56.5277 57.3193C55.9072 57.9181 55.2432 57.9398 54.7375 57.4403C54.2317 56.9407 54.2845 56.2737 54.8895 55.6531C55.7086 54.8154 56.6053 54.0459 57.3499 53.1461C57.7905 52.6125 58.2559 51.9051 58.2808 51.2535C58.3831 48.4611 58.3428 45.6345 58.3242 42.8235C58.3276 42.6596 58.2978 42.4967 58.2366 42.3445C58.1754 42.1924 58.0841 42.0543 57.9682 41.9384C57.8523 41.8224 57.7141 41.7311 57.562 41.67C57.4099 41.6088 57.247 41.579 57.0831 41.5824C56.9269 41.5626 56.7683 41.5746 56.6168 41.6177C56.4654 41.6609 56.3242 41.7342 56.2019 41.8334C56.0795 41.9325 55.9785 42.0554 55.905 42.1947C55.8314 42.3339 55.7868 42.4866 55.7738 42.6435C55.5969 43.5743 55.4356 44.5392 55.3177 45.4918C55.0726 47.4806 54.6971 49.4074 53.1954 50.8998C52.184 51.9113 51.1477 52.901 50.13 53.9063C46.9032 57.0897 46.1399 61.1232 47.8991 65.3273C48.1987 66.1263 48.3937 66.9606 48.4793 67.8095C48.5323 68.5416 48.5385 69.2764 48.4979 70.0093L64.8119 70.0124ZM44.9205 49.4787C44.7282 49.1343 44.4924 48.7341 44.2752 48.3214C43.5771 46.9904 43.9649 45.4235 45.206 44.7161C45.6361 44.4723 46.1072 44.3093 46.596 44.2352C47.5516 44.1049 47.3127 43.4192 47.3593 42.8266C47.4058 42.2339 47.3003 41.8151 46.6084 41.7282C44.1076 41.4179 43.0961 38.9699 44.6413 36.9625C44.7414 36.8418 44.8144 36.7011 44.8554 36.5498C44.8862 36.4045 44.8688 36.2531 44.8057 36.1185C44.1852 35.0419 43.5305 34.8774 42.4415 35.4701C42.3298 35.5352 42.215 35.5973 42.0971 35.6531C41.7509 35.8212 41.3729 35.9134 40.9883 35.9235C40.6036 35.9337 40.2213 35.8616 39.8667 35.7121C39.5122 35.5626 39.1937 35.3391 38.9325 35.0566C38.6713 34.7741 38.4734 34.439 38.3521 34.0738C38.2516 33.7786 38.1707 33.4769 38.1101 33.171C38.0139 32.7025 37.7998 32.4232 37.2631 32.5008C37.0035 32.5334 36.7408 32.5334 36.4812 32.5008C35.9972 32.4387 35.7986 32.6714 35.6652 33.1213C34.7747 36.0813 33.4685 36.6212 30.7784 35.1877C30.6655 35.1194 30.5396 35.0753 30.4088 35.0582C30.2779 35.0411 30.1449 35.0514 30.0183 35.0884C28.9013 35.7307 28.7772 36.3295 29.3977 37.4403C29.4474 37.5303 29.5001 37.6202 29.5467 37.7133C29.7342 38.0642 29.8407 38.4526 29.8583 38.85C29.876 39.2474 29.8044 39.6438 29.6487 40.0099C29.493 40.3759 29.2573 40.7025 28.9588 40.9655C28.6603 41.2285 28.3067 41.4213 27.9239 41.5296C27.5921 41.5863 27.2682 41.6821 26.959 41.8151C26.7198 41.9875 26.539 42.2289 26.4409 42.507C26.3571 42.7366 26.4409 43.0251 26.4191 43.2796C26.3447 43.8225 26.5557 44.1266 27.0986 44.1917C29.6677 44.502 30.6853 47.0152 29.1247 48.9947C29.0381 49.0923 28.9763 49.2094 28.9447 49.336C28.9071 49.5017 28.9212 49.675 28.9851 49.8325C29.6428 50.9401 30.2261 51.0735 31.3462 50.453C33.2078 49.4198 34.9391 50.1582 35.5225 52.2215C35.5938 52.4729 35.6559 52.7242 35.7427 52.9693C35.7955 53.1089 35.8824 53.3416 35.9661 53.3478C36.5566 53.4191 37.1535 53.4191 37.744 53.3478C37.9302 53.3168 38.0915 52.8173 38.1597 52.5101C38.4452 51.238 39.0906 50.3196 40.434 50.0279C41.3835 49.82 42.1498 50.2637 42.9162 50.7229C43.484 51.0797 44.9205 50.2203 44.9205 49.4787ZM42.5066 7.34719H66.686C67.1855 4.06454 64.9857 2.24015 62.2522 2.30841C57.1017 2.43252 51.945 2.34254 46.7915 2.34254C43.726 2.34564 42.1095 4.20106 42.5066 7.34719ZM60.7443 42.9196V51.4148C61.8633 50.8306 62.7513 49.8846 63.2637 48.731C64.0859 46.8694 63.8842 44.8247 64.2597 42.9196H60.7443Z" fill="white"/>
<path id="Vector_2" d="M30.6419 0C33.1024 1.01148 33.6981 1.91747 33.6981 4.62923C33.6981 9.68249 33.6981 14.7347 33.6981 19.7859C33.6981 22.7459 32.246 24.1886 29.2829 24.1917C24.1262 24.1917 18.9696 24.1359 13.8129 24.2135C11.219 24.2507 9.44428 22.4697 9.49702 19.9069C9.59941 14.8309 9.5901 9.74868 9.49702 4.67267C9.45669 2.34254 10.2727 0.760161 12.5159 0H30.6419ZM11.8706 12.0788C11.8706 14.7306 11.8706 17.3855 11.8706 20.0434C11.8706 21.3621 12.3453 21.843 13.6546 21.843C17.1452 21.843 20.6326 21.843 24.1231 21.8275C24.4989 21.8147 24.8573 21.6658 25.1315 21.4086C27.0924 19.3919 29.0285 17.3524 30.9398 15.2901C31.1836 15.0057 31.3236 14.6468 31.3369 14.2724C31.368 10.9153 31.3586 7.55507 31.3369 4.19795C31.3369 2.82966 30.8591 2.35495 29.5156 2.35495H13.6764C12.3236 2.35495 11.8737 2.81725 11.8706 4.19795C11.8685 6.82284 11.8685 9.44979 11.8706 12.0788ZM27.9705 21.843C28.7679 21.843 29.3388 21.8647 29.9066 21.843C30.5581 21.8089 31.129 21.5327 31.2438 20.8594C31.3373 20.076 31.3808 19.2873 31.3742 18.4983L31.1849 18.4518L27.9705 21.843Z" fill="white"/>
<path id="Vector_3" d="M25.2867 70.0004C25.2461 69.2933 25.2523 68.5844 25.3053 67.8781C25.3896 67.0026 25.5888 66.1419 25.8979 65.3184C26.818 63.2296 27.0357 60.8986 26.5185 58.6755C26.3261 57.8316 26.6208 57.2266 27.2879 57.0497C27.955 56.8729 28.5693 57.2607 28.7865 58.1388C29.4711 60.7581 29.2333 63.5332 28.1132 65.9979C27.5268 67.2979 27.5237 68.6042 27.6447 70.0035C27.9023 70.0221 28.1288 70.0345 28.3553 70.0593C29.134 70.1431 29.5343 70.5434 29.5405 71.3314C29.5529 73.7784 29.5529 76.2265 29.5405 78.6755C29.5405 79.5722 29.0937 79.9911 28.1722 79.9973C26.6612 79.9973 25.1502 79.9973 23.6423 79.9973H6.4595C4.99813 79.9973 4.69717 79.687 4.69717 78.2039V72.0358C4.69717 70.3386 4.83369 70.1741 6.58051 69.9942C6.59602 69.7832 6.62705 69.5598 6.62705 69.3333C6.62705 68.2412 6.55569 67.1397 6.64567 66.0537C6.83493 63.7578 6.05305 61.8186 4.66614 60.0562C3.08377 58.0426 1.56344 55.9607 0.924289 53.4475C0.442063 51.7765 0.153685 50.0556 0.064841 48.3187C-0.0468561 43.2706 0.0183006 38.2163 0.024506 33.1651C0.024506 31.561 0.62643 30.2579 2.0878 29.4915C2.79448 29.0884 3.59894 28.8886 4.41213 28.9143C5.22533 28.9401 6.01554 29.1903 6.69531 29.6374C7.79987 30.3169 8.28389 31.3811 8.42351 32.6346C8.9489 37.392 9.4774 42.1495 10.009 46.907C10.2324 48.8896 11.5045 50.7233 13.1117 51.3439C13.1117 49.3488 13.1117 47.3817 13.1117 45.4146C13.1117 44.5024 13.09 43.5902 13.1272 42.6811C13.1546 41.7749 13.5203 40.9117 14.1525 40.2618C14.7846 39.6118 15.6372 39.2222 16.5424 39.1696C17.4475 39.1171 18.3395 39.4054 19.0426 39.9778C19.7457 40.5503 20.2089 41.3653 20.341 42.2623C20.5985 43.8136 20.856 45.3401 21.0794 46.8853C21.2104 47.7671 21.6344 48.5792 22.2833 49.1906C23.3444 50.23 24.39 51.2818 25.4356 52.3367C26.0841 52.9914 26.1616 53.6647 25.6652 54.1828C25.1688 54.701 24.449 54.6513 23.7633 53.9718C22.8324 53.041 21.9606 52.0885 20.9925 51.2228C19.615 50.0005 18.7635 48.2928 18.6159 46.4571C18.4763 45.1912 18.2436 43.9346 18.0202 42.6811C17.8743 41.8713 17.4151 41.5083 16.6891 41.5517C16.5187 41.5533 16.3505 41.59 16.1949 41.6594C16.0393 41.7288 15.8997 41.8295 15.7847 41.9553C15.6697 42.081 15.5819 42.2291 15.5266 42.3903C15.4714 42.5514 15.4499 42.7223 15.4635 42.8921C15.448 45.6256 15.417 48.3622 15.5008 51.0925C15.5687 51.7553 15.8383 52.3813 16.2733 52.8859C17.0645 53.8508 17.9984 54.6917 18.8672 55.5914C19.5095 56.2554 19.5653 56.9256 19.0409 57.4531C18.5166 57.9805 17.8681 57.903 17.1793 57.2452C16.8442 56.9163 16.5154 56.5843 16.1865 56.2492C15.2235 55.1745 14.0244 54.3376 12.6835 53.8043C9.70183 52.6687 8.0667 50.2641 7.67266 47.0932C7.13589 42.4701 6.62705 37.8533 6.09959 33.1993C6.08328 32.806 5.95446 32.4256 5.72842 32.1033C5.50239 31.781 5.18862 31.5304 4.82438 31.3811C4.58321 31.2616 4.31692 31.2016 4.0478 31.2062C3.77869 31.2107 3.51458 31.2797 3.2776 31.4073C3.04061 31.5349 2.83765 31.7174 2.68571 31.9396C2.53376 32.1618 2.43726 32.4171 2.40428 32.6842C2.37011 32.9423 2.35765 33.2028 2.36704 33.463C2.36704 38.2536 2.36704 43.0441 2.36704 47.8347C2.31989 51.1441 3.36576 54.3766 5.34253 57.0311C9.73906 62.9262 8.89823 63.0472 8.97269 68.3901C8.97269 68.9051 8.97269 69.4202 8.97269 69.9911L25.2867 70.0004ZM27.1762 72.4608H7.10487V77.6144H27.1762V72.4608Z" fill="white"/>
<path id="Vector_4" d="M44.8211 25.6095C44.8211 24.9052 44.8056 24.204 44.8211 23.5028C44.8428 22.6216 45.2493 22.1965 46.1056 22.1872C47.5535 22.1707 49.0108 22.1707 50.4773 22.1872C51.3368 22.1872 51.7525 22.6216 51.7618 23.4997C51.7618 24.9548 51.7805 26.4131 51.7618 27.8683C51.7618 28.7029 51.3523 29.1342 50.5208 29.1528C49.0377 29.1879 47.5556 29.1879 46.0746 29.1528C45.2338 29.1342 44.849 28.7091 44.8335 27.8714C44.8056 27.1174 44.8211 26.3728 44.8211 25.6095ZM49.3852 24.5763H47.2133V26.7761H49.3852V24.5763Z" fill="white"/>
<path id="Vector_5" d="M44.8213 15.9258C44.8213 15.1967 44.8026 14.4675 44.8213 13.7539C44.8461 12.9255 45.2587 12.5128 46.0872 12.5128C47.5702 12.4973 49.0533 12.4942 50.5333 12.5128C51.3183 12.5128 51.7434 12.941 51.7558 13.7229C51.7775 15.2308 51.7558 16.7418 51.7558 18.2497C51.7558 19.0006 51.3338 19.4412 50.6047 19.4567C49.0471 19.4898 47.4875 19.4898 45.9258 19.4567C45.2308 19.438 44.8337 19.0006 44.8213 18.2901C44.8026 17.5113 44.8213 16.7387 44.8213 15.9506V15.9258ZM47.1917 17.0645H49.3791V14.8926H47.1917V17.0645Z" fill="white"/>
<path id="Vector_6" d="M59.0068 24.5269C57.8092 24.5269 56.6115 24.5269 55.417 24.5269C54.5172 24.5269 53.9711 24.0584 53.9773 23.3417C53.9836 22.625 54.5265 22.1906 55.4387 22.1875C57.8588 22.1875 60.2789 22.1875 62.699 22.1875C63.6298 22.1875 64.1263 22.6219 64.1201 23.3634C64.1139 24.105 63.605 24.5114 62.6742 24.5114C61.4517 24.5331 60.2293 24.5269 59.0068 24.5269Z" fill="white"/>
<path id="Vector_7" d="M59.0315 17.1488C57.8338 17.1488 56.6393 17.1488 55.4417 17.1488C54.5357 17.1488 53.9865 16.6927 53.9803 15.9822C53.9741 15.2717 54.5077 14.8156 55.4199 14.8125C57.8628 14.8125 60.3067 14.8125 62.7516 14.8125C63.6452 14.8125 64.1106 15.2283 64.1168 15.9605C64.123 16.6927 63.6359 17.1333 62.7764 17.1457C61.526 17.1612 60.2788 17.1488 59.0315 17.1488Z" fill="white"/>
<path id="Vector_8" d="M57.3563 26.829C58.0575 26.829 58.7587 26.8073 59.4599 26.829C60.2325 26.8569 60.6669 27.2789 60.6762 27.9584C60.687 28.1158 60.6642 28.2736 60.6093 28.4215C60.5544 28.5694 60.4686 28.7039 60.3576 28.816C60.2467 28.9281 60.1131 29.0154 59.9658 29.0718C59.8185 29.1283 59.6609 29.1528 59.5034 29.1436C58.0513 29.1808 56.5931 29.1808 55.141 29.1436C54.9894 29.1416 54.8397 29.1097 54.7005 29.0498C54.5612 28.9899 54.4351 28.9032 54.3294 28.7946C54.2237 28.686 54.1403 28.5576 54.0842 28.4168C54.0281 28.2759 54.0003 28.1255 54.0023 27.9739C54.0043 27.8223 54.0362 27.6726 54.0961 27.5334C54.156 27.3941 54.2427 27.268 54.3513 27.1623C54.4599 27.0565 54.5883 26.9732 54.7291 26.9171C54.87 26.861 55.0204 26.8332 55.172 26.8352C55.9012 26.8073 56.6272 26.829 57.3563 26.829Z" fill="white"/>
<path id="Vector_9" d="M36.8566 37.4493C37.9519 37.442 39.0248 37.7601 39.939 38.3634C40.8533 38.9667 41.5678 39.828 41.9918 40.838C42.4158 41.848 42.5302 42.9612 42.3206 44.0363C42.111 45.1114 41.5868 46.1001 40.8144 46.8768C40.042 47.6535 39.0563 48.1833 37.9824 48.399C36.9085 48.6147 35.7947 48.5065 34.7823 48.0882C33.77 47.6699 32.9047 46.9603 32.2962 46.0494C31.6878 45.1386 31.3636 44.0675 31.3648 42.9722C31.3623 42.2488 31.5025 41.5321 31.7772 40.8629C32.052 40.1938 32.4559 39.5854 32.9659 39.0725C33.476 38.5595 34.0821 38.1522 34.7497 37.8737C35.4173 37.5952 36.1332 37.451 36.8566 37.4493ZM36.8566 39.795C36.2259 39.8006 35.6112 39.9934 35.0903 40.3489C34.5694 40.7044 34.1659 41.2067 33.9309 41.7919C33.6958 42.3771 33.6399 43.0189 33.7702 43.636C33.9005 44.253 34.2112 44.8174 34.6627 45.2577C35.1143 45.6979 35.6865 45.9941 36.3066 46.1086C36.9268 46.2232 37.567 46.151 38.146 45.9012C38.7251 45.6513 39.2169 45.2351 39.559 44.7054C39.9012 44.1756 40.0783 43.5562 40.0679 42.9256C40.065 42.5093 39.9798 42.0976 39.817 41.7144C39.6542 41.3312 39.4171 40.984 39.1194 40.6929C38.8217 40.4018 38.4692 40.1726 38.0824 40.0185C37.6957 39.8644 37.2822 39.7884 36.8659 39.795H36.8566Z" fill="white"/>
<path id="Vector_10" d="M21.5695 8.6316C19.981 8.6316 18.3955 8.6316 16.8069 8.6316C15.9288 8.6316 15.4231 8.21274 15.3983 7.51463C15.3735 6.81652 15.9133 6.30147 16.8007 6.29837C20.0027 6.28596 23.2036 6.28596 26.4036 6.29837C27.2971 6.29837 27.8401 6.7948 27.8184 7.51153C27.7967 8.22825 27.2785 8.6285 26.4098 8.6347C24.7964 8.64091 23.183 8.6316 21.5695 8.6316Z" fill="white"/>
<path id="Vector_11" d="M19.9377 11.8709C20.9523 11.8709 21.97 11.8709 22.9845 11.8709C23.8254 11.8709 24.359 12.3487 24.3497 13.0406C24.3404 13.7325 23.8037 14.2042 22.9597 14.2104C20.9016 14.2104 18.8455 14.2104 16.7916 14.2104C15.9383 14.2104 15.4078 13.7512 15.3891 13.0624C15.3705 12.3736 15.9073 11.8771 16.8102 11.8709C17.8558 11.8647 18.8952 11.8709 19.9377 11.8709Z" fill="white"/>
</g>
</g>
</svg>
