<svg width="54" height="67" viewBox="0 0 54 67" fill="none" xmlns="http://www.w3.org/2000/svg">
<g id="Capa 8">
<g id="Capa 1">
<path id="Vector" d="M15.2862 66.5C14.5425 66.1557 14.3996 65.5187 14.5184 64.713H13.742C11.4437 64.713 9.14535 64.713 6.85565 64.713C2.93734 64.6975 0.260281 62.0239 0.236179 58.1107C0.236179 55.8348 0.236179 53.5572 0.236179 51.2812C0.231856 51.1526 0.235305 51.0238 0.246508 50.8956C0.320536 50.2948 0.719942 49.9367 1.27946 49.9694C1.83897 50.0021 2.1523 50.355 2.16607 50.9576C2.18501 51.8735 2.16607 52.7911 2.16607 53.8843C3.69655 52.507 5.4078 52.0232 7.33081 52.1076V13.2257C4.79836 12.6542 2.33823 14.6426 2.18328 17.3833C2.16779 17.6416 2.17468 17.8998 2.17468 18.1563V45.6654C2.17468 45.86 2.17468 46.0528 2.17468 46.2456C2.15402 46.9549 1.79249 47.3664 1.20543 47.3578C0.649358 47.3578 0.284383 46.9429 0.244786 46.2835C0.244786 46.1768 0.244786 46.0683 0.244786 45.9616C0.239048 36.5778 0.236179 27.1935 0.236179 17.8086C0.236179 14.6546 2.05589 12.1825 4.92748 11.4232C5.42488 11.2918 5.93664 11.2224 6.45108 11.2166C8.77005 11.1925 11.089 11.2063 13.408 11.1977C13.9589 11.1977 14.3876 11.3699 14.5236 11.9483C14.6751 12.6111 14.2223 13.119 13.451 13.1293C12.3354 13.1448 11.213 13.1293 10.1008 13.1293H9.36055V52.037H41.3113V51.3931C41.3113 42.0725 41.3113 32.7525 41.3113 23.433C41.325 23.2438 41.2948 23.0541 41.2231 22.8785C41.1515 22.7029 41.0403 22.5463 40.8982 22.4207C40.3507 21.9362 39.8332 21.4187 39.3487 20.8713C38.7324 20.1534 38.0248 19.6954 37.047 19.6662C36.6201 19.627 36.1969 19.5539 35.7816 19.4475C35.5444 19.4197 35.323 19.3143 35.1518 19.1478C34.9806 18.9812 34.8692 18.7628 34.8348 18.5265C34.7938 18.3821 34.7644 18.2348 34.747 18.0857C34.6953 16.569 34.0205 15.4311 32.9135 14.374C31.9804 13.484 31.1093 13.0484 29.7871 13.0828C26.053 13.1827 22.3154 13.119 18.5779 13.1155C18.3222 13.1287 18.0659 13.1049 17.8169 13.045C17.6127 12.9792 17.4368 12.8462 17.3179 12.6676C17.199 12.489 17.1441 12.2754 17.1623 12.0616C17.1805 11.8478 17.2706 11.6465 17.418 11.4905C17.5653 11.3346 17.7612 11.2332 17.9736 11.2029C18.187 11.1816 18.4016 11.1759 18.6158 11.1857C22.3309 11.1857 26.0461 11.1857 29.7613 11.1943C29.978 11.211 30.1955 11.1755 30.3956 11.0907C30.5957 11.0059 30.7725 10.8743 30.9113 10.7071C31.8478 9.67411 32.8653 8.7238 33.9068 7.68396C32.9823 6.7612 32.0888 5.87458 31.1988 4.98281C30.3879 4.17194 30.3845 3.65375 31.1798 2.85149C31.7537 2.27074 32.331 1.69688 32.9118 1.12991C33.7484 0.296667 34.2615 0.288059 35.0913 1.11614C37.7207 3.74212 40.3461 6.37097 42.9675 9.00269C43.243 9.27987 43.453 9.40726 43.8868 9.26782C44.1571 9.18002 44.6305 9.33668 44.8526 9.55016C46.2764 10.9274 47.6967 12.3047 49.0275 13.7543C49.4992 14.2707 49.7161 15.0162 50.0604 15.648C50.2326 15.9785 50.3686 16.3538 50.6165 16.6172C51.4773 17.5228 52.3725 18.3836 53.2471 19.2719C53.9357 19.9795 53.9357 20.5545 53.2471 21.2655C52.6755 21.8474 52.1125 22.4413 51.51 22.9871C51.1657 23.3056 50.7353 23.5466 50.2067 23.9185C50.2067 24.8516 50.1964 25.9844 50.2222 27.1137C50.2222 27.2514 50.3944 27.4322 50.5424 27.5131C51.5272 28.0864 51.9834 28.9489 51.9989 30.0662C51.9989 30.5379 52.0144 31.0114 51.9989 31.4831C51.9714 32.2199 51.5702 32.6606 50.8403 32.6796C49.7672 32.7071 48.694 32.7071 47.6209 32.6796C47.0098 32.6624 46.5639 32.3112 46.5329 31.7C46.484 30.8871 46.5129 30.0714 46.619 29.264C46.7257 28.5082 47.2164 27.9315 47.8947 27.5768C48.22 27.4047 48.2855 27.1981 48.282 26.8692C48.2682 25.4524 48.2992 24.0338 48.2579 22.6169C48.2269 22.2726 48.0938 21.9453 47.8757 21.677C47.4764 21.2125 47.0541 20.7684 46.6104 20.3462C45.784 21.1794 45.0523 22.0247 44.2105 22.7375C43.4375 23.3934 43.2189 24.1233 43.2223 25.1201C43.2567 37.7691 43.2642 50.4176 43.2447 63.0655C43.2447 64.3945 42.9434 64.6992 41.6247 64.701H23.5326C23.6015 65.4739 23.4775 66.1264 22.7613 66.488H22.1157C21.1826 66.0128 20.2547 65.5273 19.313 65.0694C19.2313 65.0296 19.1425 65.0064 19.0518 65.0011C18.9611 64.9957 18.8703 65.0084 18.7845 65.0384C17.8256 65.5032 16.8804 66.0007 15.9301 66.488L15.2862 66.5ZM41.2821 54.0323H15.2139C12.4227 54.0323 9.63141 54.0323 6.84016 54.0323C5.36304 54.0323 4.08563 54.5006 3.1577 55.6782C2.06794 57.0554 1.8493 58.6169 2.58441 60.2145C3.31953 61.8121 4.65031 62.7349 6.44247 62.7642C8.97492 62.8072 11.5091 62.7797 14.0432 62.7779C14.1769 62.768 14.3094 62.7461 14.4392 62.7125V61.1631H8.92671C8.75455 61.1631 8.5824 61.1631 8.41024 61.1631C7.77325 61.1218 7.40139 60.7826 7.37729 60.2352C7.36007 59.655 7.73366 59.2556 8.39991 59.247C10.1611 59.2246 11.9223 59.2367 13.6817 59.2349H14.4392V57.6115H8.84408C7.84384 57.6115 7.39623 57.3205 7.38073 56.6646C7.36696 55.976 7.81974 55.6782 8.86473 55.6782H41.2804L41.2821 54.0323ZM48.1116 19.2358L48.2837 19.1359C48.2605 18.7983 48.2605 18.4595 48.2837 18.1219C48.3905 17.3524 48.0926 16.8204 47.5417 16.2746C43.193 11.9741 38.8644 7.65298 34.5559 3.31115C34.3916 3.11849 34.2414 2.91424 34.1065 2.69999L32.7912 4.06176C33.0041 4.17132 33.2049 4.30288 33.3904 4.45428C36.402 7.45327 39.4101 10.4569 42.4149 13.465C42.9761 14.028 43.0278 14.6116 42.587 15.0351C42.1463 15.4586 41.6195 15.3898 41.0634 14.8371C39.5473 13.3382 38.0403 11.8324 36.5426 10.3197C36.138 9.91169 35.7575 9.47785 35.408 9.10082L32.8429 11.6694C33.485 12.3047 34.1341 13.0243 34.8657 13.6458C35.8281 14.4635 36.4789 15.4104 36.4789 16.7102C36.4789 17.4711 36.8232 17.8051 37.5962 17.8172C38.8013 17.8361 39.743 18.3612 40.5229 19.2977C41.1753 20.0845 41.9397 20.7766 42.6232 21.4773L45.2056 18.8777C45.0833 18.7882 44.906 18.6642 44.7407 18.5334C44.6267 18.4354 44.5207 18.3283 44.424 18.2131C44.0332 17.7569 44.0263 17.1991 44.4033 16.8256C44.7803 16.452 45.3329 16.4158 45.7806 16.8548C46.5742 17.6278 47.3334 18.4387 48.1099 19.2358H48.1116ZM16.4776 57.627V64.0123C17.1214 63.6973 17.7068 63.4373 18.2628 63.1257C18.4924 62.9867 18.756 62.9141 19.0244 62.9159C19.2927 62.9177 19.5553 62.9939 19.783 63.136C20.3546 63.4476 20.9502 63.7145 21.5614 64.014V57.627H16.4776ZM41.2838 57.6494H23.5619V59.1885H41.2821L41.2838 57.6494ZM41.2838 61.2148H23.5687V62.7315H41.2735L41.2838 61.2148ZM50.0776 30.7428C50.0535 30.1695 50.2498 29.5687 49.6335 29.2708C49.5006 29.2191 49.358 29.1967 49.2157 29.2053C49.0733 29.2139 48.9345 29.2533 48.8088 29.3208C48.301 29.6651 48.4197 30.2022 48.4869 30.7428H50.0776ZM50.3032 19.1049V21.3912C50.7284 20.9763 51.0899 20.6268 51.4411 20.2825L50.3032 19.1049Z" fill="#0CB2D5"/>
<path id="Vector_2" d="M25.2298 48.7116H14.2203C13.0754 48.7116 12.707 48.35 12.707 47.2224C12.707 42.8221 12.707 38.4228 12.707 34.0248C12.707 32.9195 13.0686 32.5391 14.1618 32.5391C21.5439 32.5391 28.9266 32.5391 36.3099 32.5391C37.3807 32.5391 37.7543 32.9126 37.756 33.9663C37.756 38.4079 37.756 42.8502 37.756 47.293C37.756 48.3414 37.3669 48.7116 36.303 48.7116C32.6119 48.7116 28.9209 48.7116 25.2298 48.7116ZM14.6714 46.7473H35.7779V34.5051H14.6714V46.7473Z" fill="#0CB2D5"/>
<path id="Vector_3" d="M25.2703 21.8803H36.2161C37.4212 21.8803 37.7552 22.2022 37.7655 23.3918C37.7655 25.4072 37.7655 27.4243 37.7655 29.4432C37.7655 30.5484 37.392 30.922 36.3056 30.922C28.9247 30.922 21.5431 30.922 14.161 30.922C13.1056 30.922 12.7166 30.5364 12.7148 29.4931C12.7148 27.4123 12.7148 25.3309 12.7148 23.2489C12.7148 22.2694 13.0953 21.8837 14.0766 21.882C17.8044 21.8786 21.5356 21.878 25.2703 21.8803ZM14.6688 28.9525H35.7771V23.8515H14.6688V28.9525Z" fill="#0CB2D5"/>
<path id="Vector_4" d="M25.274 39.6726C27.8719 39.6726 30.468 39.6726 33.0642 39.6726C33.7666 39.6726 34.2004 40.0445 34.2056 40.6143C34.2108 41.1842 33.77 41.5664 33.0814 41.6008C32.9316 41.6008 32.7818 41.6008 32.6321 41.6008H17.7628C17.5059 41.6121 17.2486 41.5918 16.9967 41.5405C16.7705 41.4998 16.5695 41.3716 16.4371 41.1838C16.3047 40.996 16.2515 40.7636 16.2891 40.5369C16.2891 40.4225 16.3119 40.3093 16.3561 40.2038C16.4003 40.0984 16.4651 40.0028 16.5467 39.9226C16.6283 39.8425 16.725 39.7794 16.8312 39.7371C16.9375 39.6948 17.0511 39.674 17.1654 39.6761C17.6819 39.6468 18.1983 39.6623 18.7148 39.6623L25.274 39.6726Z" fill="#0CB2D5"/>
<path id="Vector_5" d="M25.2185 38.0254H19.3014C18.4906 38.0254 18.043 37.681 18.043 37.0664C18.043 36.4518 18.5026 36.0955 19.2997 36.0938C23.2662 36.0938 27.2328 36.0938 31.1993 36.0938C31.9826 36.0938 32.4405 36.4811 32.4199 37.0957C32.3992 37.7103 31.9637 38.0219 31.1993 38.0236L25.2185 38.0254Z" fill="#0CB2D5"/>
<path id="Vector_6" d="M25.252 45.1393C24.3912 45.1393 23.5407 45.1513 22.6851 45.1393C22.0206 45.1289 21.616 44.7622 21.6057 44.2062C21.5953 43.6501 21.9947 43.2283 22.6386 43.2197C24.3717 43.2002 26.1053 43.2002 27.8395 43.2197C28.4885 43.2283 28.8725 43.6501 28.8415 44.2268C28.8105 44.8036 28.4576 45.1203 27.8085 45.1341C26.9649 45.153 26.1076 45.1393 25.252 45.1393Z" fill="#0CB2D5"/>
</g>
</g>
</svg>
