<svg width="40" height="67" viewBox="0 0 40 67" fill="none" xmlns="http://www.w3.org/2000/svg">
<g id="Capa 9">
<g id="Capa 1">
<path id="Vector" d="M2.91618 25.0762L2.05682 30.5272H10.7437C3.9066 36.7041 0.207031 46.3159 0.207031 52.5281C0.207031 57.1198 1.66115 60.6858 4.59964 63.1303C6.94589 65.1137 10.1843 66.2024 14.214 66.467L14.6096 66.4998V64.5844L14.3198 64.5114C10.653 63.6847 4.54168 61.2352 4.47615 53.8083C4.44339 48.264 10.1565 37.8861 16.7644 33.5262L15.0003 43.6068H20.5874L23.7275 25.1089L2.91618 25.0762Z" fill="#0CB2D5"/>
<path id="Vector_2" d="M8.33136 0.5C6.95151 0.505741 5.62886 1.05196 4.64704 2.02153C3.66523 2.99109 3.10245 4.30679 3.07938 5.68645L2.88281 20.2856L5.88934 20.3209H8.86059L9.02692 6.47778H33.6033L33.7671 43.9724H25.9119L24.8862 49.9502H34.5005C37.3735 49.9502 39.7525 47.3419 39.7928 44.4664L39.6819 0.5H8.33136Z" fill="#0CB2D5"/>
</g>
</g>
</svg>
