<svg width="60" height="61" viewBox="0 0 60 61" fill="none" xmlns="http://www.w3.org/2000/svg">
<g id="Capa 1">
<g id="Group">
<path id="Vector" d="M59.9942 3.19336V48.0751C59.4892 49.9358 58.1698 50.8412 55.9996 50.8003C51.8276 50.7229 47.6557 50.7775 43.4837 50.7775C43.2562 50.7775 43.0287 50.7775 42.8286 50.7775C42.7831 50.8776 42.7512 50.9095 42.7512 50.9459C42.7421 52.0196 42.7376 53.0887 42.733 54.1624C42.7285 55.5546 42.2235 56.0505 40.8222 56.055C39.9896 56.055 39.1616 56.055 38.2972 56.055C38.2972 56.9013 38.2653 57.6656 38.3063 58.4208C38.3609 59.3762 38.0287 60.0814 37.1461 60.5H11.9596C11.0542 60.1497 10.7357 59.4854 10.7494 58.5255C10.7858 56.1642 10.763 53.803 10.763 51.4372C10.763 51.2325 10.763 51.0232 10.763 50.7775C10.4582 50.7775 10.2489 50.7775 10.0351 50.7775C7.85131 50.7775 5.66295 50.7821 3.47915 50.7775C1.35449 50.773 0.0078125 49.4172 0.0078125 47.2925C0.0078125 32.8658 0.0078125 18.439 0.0078125 4.01228C0.0078125 3.73931 0.0078125 3.46178 0.057858 3.19791C0.36723 1.56005 1.67296 0.5 3.39726 0.5C21.1361 0.5 38.8795 0.5 56.6229 0.5C56.7003 0.5 56.7776 0.5 56.8549 0.5C58.2517 0.60919 59.2298 1.29618 59.7712 2.59281C59.8531 2.78844 59.9214 2.99318 59.9942 3.19336ZM15.1943 25.2361C15.1943 24.3171 15.1898 23.4436 15.1943 22.5701C15.2034 21.3553 15.7403 20.8003 16.9368 20.8003C24.9396 20.8003 32.9468 20.8003 40.9496 20.8003C42.1734 20.8003 42.7194 21.3644 42.7239 22.611C42.7285 24.1351 42.7239 25.6592 42.7239 27.1788C42.7239 27.3653 42.7421 27.5473 42.7558 27.7839C42.9605 27.5974 43.1243 27.4654 43.2608 27.3153C44.9532 25.45 46.6366 23.5755 48.3427 21.7193C49.4027 20.5637 50.8586 20.4909 52.046 21.51C52.5328 21.9286 53.0014 22.3744 53.4791 22.8066C54.8076 24.0077 54.8713 25.4682 53.6566 26.8103C50.1261 30.7002 46.5956 34.5855 43.0833 38.4891C42.8877 38.7075 42.7421 39.0669 42.7421 39.3581C42.7194 42.3835 42.7285 45.4136 42.7285 48.439C42.7285 48.6256 42.7512 48.8076 42.7649 49.0214H43.4064C47.7194 49.0214 52.0369 49.0214 56.3499 49.0214C57.7012 49.0214 58.2289 48.4936 58.2289 47.1515C58.2289 37.2106 58.2289 27.2698 58.2289 17.3335C58.2289 17.1288 58.2289 16.924 58.2289 16.6829H57.4464C49.1479 16.6829 40.8495 16.6829 32.551 16.6829C32.3554 16.6829 32.1598 16.692 31.9641 16.6738C31.4955 16.6283 31.2044 16.3644 31.1589 15.8958C31.1088 15.3908 31.3727 15.0723 31.8504 14.9586C32.0733 14.904 32.3145 14.9222 32.551 14.9222C40.8677 14.9222 49.1843 14.9222 57.501 14.9222C57.7285 14.9222 57.9559 14.9222 58.2198 14.9222V14.3308C58.2198 10.914 58.2198 7.49727 58.2198 4.08053C58.2198 2.81574 57.6648 2.26069 56.4045 2.26069C38.7931 2.26069 21.1816 2.26069 3.57014 2.26069C2.30536 2.26069 1.75031 2.81119 1.75031 4.07598C1.75031 7.49272 1.75031 10.9095 1.75031 14.3262C1.75031 14.5127 1.7685 14.7038 1.7776 14.9222H2.46459C10.7812 14.9222 19.0979 14.9222 27.4145 14.9222C27.6466 14.9222 27.8923 14.904 28.1152 14.9586C28.5929 15.0723 28.8613 15.3908 28.8113 15.8958C28.7658 16.3644 28.4791 16.6328 28.006 16.6738C27.8104 16.692 27.6147 16.6829 27.4191 16.6829C19.1024 16.6829 10.7858 16.6829 2.46914 16.6829H1.77305C1.76395 16.8922 1.75031 17.0287 1.75031 17.1606C1.75031 27.2197 1.75031 37.2743 1.75031 47.3335C1.75031 48.4436 2.3372 49.0214 3.4564 49.0259C5.7221 49.0305 7.98779 49.0259 10.2489 49.0259C10.3991 49.0259 10.5492 49.0032 10.7448 48.985C10.7448 48.5619 10.7448 48.1752 10.7448 47.7884C10.7448 45.5227 10.7448 43.257 10.7448 40.9914C10.7448 40.3681 11.0588 40.0132 11.5683 39.9904C12.1097 39.9677 12.46 40.3317 12.4964 40.9686C12.5055 41.146 12.4964 41.3189 12.4964 41.4964C12.4964 47.0014 12.4964 52.5109 12.4964 58.0159V58.6984H36.4728V56.0596C36.218 56.0596 36.0087 56.0596 35.7949 56.0596C32.9241 56.0596 30.0533 56.0596 27.1825 56.0596C23.7248 56.0596 20.2717 56.0596 16.814 56.0596C15.7539 56.0596 15.1989 55.5 15.1716 54.4399C15.167 54.2261 15.1716 54.0123 15.1716 53.7939C15.1716 45.1224 15.1716 36.4509 15.1716 27.7839V27.0423H12.4964C12.4964 27.2971 12.4964 27.5064 12.4964 27.7202C12.4964 30.6092 12.4964 33.5027 12.4964 36.3917C12.4964 37.247 12.2189 37.652 11.632 37.6656C11.0224 37.6793 10.7403 37.2743 10.7403 36.3735C10.7403 33.3253 10.7403 30.2816 10.7403 27.2334C10.7403 25.7684 11.2771 25.2452 12.7649 25.2452C13.5428 25.2452 14.3208 25.2452 15.1716 25.2452L15.1943 25.2361ZM40.9359 40.6183C38.8932 41.7011 36.9505 42.7293 34.9987 43.753C34.7394 43.8894 34.4755 44.0259 34.198 44.0987C33.3609 44.3171 32.7603 43.7621 32.9014 42.9022C32.9423 42.6565 33.0333 42.4154 33.1288 42.1788C33.9023 40.2816 34.6484 38.3799 35.4764 36.5055C35.7767 35.823 36.1998 35.1633 36.6866 34.5946C37.9696 33.0978 39.3345 31.6692 40.6357 30.1906C40.8222 29.9813 40.9541 29.6492 40.9541 29.3717C40.9814 27.2834 40.9678 25.1952 40.9678 23.1024C40.9678 22.934 40.945 22.7611 40.9268 22.5837H16.9823V54.2534H40.9314V40.6137L40.9359 40.6183ZM40.6766 38.5118C43.7294 35.1406 46.7503 31.8103 49.7894 28.4618C48.8158 27.5792 47.8877 26.7466 46.9368 25.8867C43.8841 29.2534 40.8631 32.5883 37.8286 35.9368C38.7885 36.8057 39.6984 37.6292 40.6766 38.5164V38.5118ZM50.9678 27.156C51.5183 26.551 52.0233 26.0096 52.5101 25.4545C52.8422 25.0769 52.865 24.6629 52.501 24.308C51.955 23.7803 51.3863 23.2707 50.8131 22.7748C50.4446 22.4563 50.0442 22.4927 49.7166 22.8339C49.1798 23.3935 48.6702 23.9804 48.1288 24.581C49.0842 25.4454 50.0033 26.278 50.9723 27.156H50.9678ZM39.198 39.54C38.4064 38.8303 37.6966 38.1888 36.9414 37.5109C36.3772 38.894 35.8449 40.1906 35.258 41.6374C36.6502 40.8958 37.8832 40.2407 39.198 39.54Z" fill="#0CB2D5"/>
<path id="Vector_2" d="M15.4207 11.7511C12.8638 11.7511 10.3069 11.7647 7.75008 11.7465C6.23961 11.7329 4.94753 10.6046 4.7064 9.15325C4.44707 7.60638 5.29785 6.12777 6.77191 5.62731C7.13588 5.50447 7.53169 5.43623 7.91841 5.43168C12.9366 5.41803 17.9548 5.41348 22.9685 5.43168C24.7428 5.43623 26.0622 6.67827 26.2032 8.41621C26.3261 9.95397 25.2023 11.3916 23.619 11.701C23.337 11.7556 23.0367 11.7556 22.7455 11.7556C20.3069 11.7556 17.8638 11.7556 15.4252 11.7556L15.4207 11.7511ZM15.4525 9.99492C17.8729 9.99492 20.2933 9.99492 22.7137 9.99492C22.9457 9.99492 23.1868 9.99492 23.4098 9.94032C24.0877 9.76289 24.5199 9.10775 24.4289 8.42986C24.3288 7.65643 23.751 7.18782 22.8502 7.18782C17.9093 7.18327 12.973 7.18327 8.03215 7.18782C7.04489 7.18782 6.43524 7.73377 6.43069 8.58455C6.43069 9.46262 7.03579 9.99492 8.0731 9.99492C10.5344 9.99492 12.9912 9.99492 15.4525 9.99492Z" fill="#0CB2D5"/>
<path id="Vector_3" d="M37.5104 8.62522C37.5013 10.3723 36.0818 11.7644 34.3302 11.7508C32.6014 11.7417 31.1728 10.2904 31.1956 8.56152C31.2138 6.83268 32.6651 5.41321 34.3939 5.42686C36.1364 5.44505 37.5241 6.86453 37.515 8.62067L37.5104 8.62522ZM34.3803 9.9901C35.1583 9.97645 35.7634 9.3395 35.7497 8.55242C35.7315 7.80174 35.1082 7.18755 34.3621 7.18755C33.5978 7.18755 32.9426 7.84269 32.9517 8.59792C32.9608 9.36225 33.6114 9.99919 34.3803 9.98555V9.9901Z" fill="#0CB2D5"/>
<path id="Vector_4" d="M46.417 8.60296C46.417 10.3546 45.0112 11.7558 43.2596 11.7558C41.5262 11.7558 40.0931 10.3182 40.0977 8.58931C40.0977 6.86502 41.5444 5.42735 43.2733 5.4319C45.0158 5.4319 46.417 6.84682 46.417 8.60296ZM44.6564 8.58476C44.6564 7.80678 44.0149 7.17439 43.2414 7.19259C42.4953 7.20624 41.872 7.83408 41.8584 8.57566C41.8447 9.33544 42.4908 9.99059 43.2596 9.99513C44.0422 9.99513 44.6564 9.37639 44.6564 8.58931V8.58476Z" fill="#0CB2D5"/>
<path id="Vector_5" d="M55.3268 8.56665C55.3359 10.3273 53.9528 11.7423 52.2058 11.7514C50.4679 11.7605 49.0347 10.3592 49.012 8.62125C48.9892 6.90605 50.4224 5.44563 52.1512 5.43198C53.8937 5.41833 55.3177 6.81961 55.3268 8.56665ZM53.5661 8.57575C53.557 7.81142 52.9428 7.19722 52.1876 7.19267C51.4187 7.19267 50.759 7.85237 50.7772 8.6167C50.7909 9.36738 51.4187 9.99067 52.174 9.99522C52.961 9.99977 53.5798 9.37193 53.5707 8.57575H53.5661Z" fill="#0CB2D5"/>
<path id="Vector_6" d="M27.791 25.5003C29.8019 25.5003 31.8083 25.5003 33.8192 25.5003C35.1431 25.5003 35.6572 26.0189 35.6618 27.3383C35.6618 28.3119 35.6754 29.2901 35.6618 30.2637C35.6436 31.2919 35.084 31.8652 34.0558 31.8652C29.8792 31.8788 25.7073 31.8743 21.5308 31.8652C20.4661 31.8652 19.9111 31.2919 19.8974 30.2319C19.8884 29.2173 19.8884 28.2028 19.8974 27.1882C19.9065 26.0508 20.4434 25.5048 21.5899 25.4957C23.66 25.4866 25.7255 25.4957 27.7955 25.4957L27.791 25.5003ZM33.8692 27.2974H21.6945V30.0863H33.8692V27.2974Z" fill="#0CB2D5"/>
<path id="Vector_7" d="M25.7811 49.5994C27.3416 49.5994 28.9066 49.5994 30.4671 49.5994C31.1951 49.5994 31.6182 49.9269 31.6136 50.4774C31.6136 51.0279 31.1951 51.351 30.4626 51.3555C27.3188 51.3555 24.1751 51.3555 21.0313 51.3555C20.2897 51.3555 19.8984 51.0461 19.8984 50.4774C19.8984 49.9087 20.2897 49.5994 21.0313 49.5994C22.6145 49.5994 24.1932 49.5994 25.7765 49.5994H25.7811Z" fill="#0CB2D5"/>
<path id="Vector_8" d="M25.4886 44.6631C26.99 44.6631 28.4959 44.6631 29.9972 44.6631C30.707 44.6631 31.0755 44.9679 31.0709 45.5321C31.0709 46.0871 30.6888 46.4147 29.9972 46.4192C26.99 46.4238 23.9872 46.4238 20.98 46.4192C20.2884 46.4192 19.9062 46.0871 19.9062 45.5321C19.9062 44.9679 20.2702 44.6676 20.98 44.6631C22.4813 44.6631 23.9872 44.6631 25.4886 44.6631Z" fill="#0CB2D5"/>
<path id="Vector_9" d="M25.5393 39.7174C27.0225 39.7174 28.5057 39.7174 29.9888 39.7174C30.7077 39.7174 31.0671 40.0131 31.0716 40.5772C31.0716 41.1368 30.7031 41.4689 30.0025 41.4689C26.9952 41.478 23.9925 41.478 20.9852 41.4689C20.2755 41.4689 19.9069 41.1505 19.9024 40.5909C19.8978 40.0222 20.2527 39.7219 20.9715 39.7174C22.4957 39.7128 24.0152 39.7174 25.5393 39.7174Z" fill="#0CB2D5"/>
<path id="Vector_10" d="M28.7768 36.5053C28.017 36.5053 27.2572 36.5144 26.502 36.5053C25.8787 36.4962 25.5375 36.1914 25.5238 35.6637C25.5102 35.1222 25.8696 34.7628 26.5111 34.7583C28.0488 34.7446 29.5866 34.7446 31.1198 34.7583C31.7476 34.7628 32.1253 35.145 32.1071 35.6727C32.0889 36.1778 31.7204 36.4962 31.1107 36.5053C30.3327 36.5144 29.5547 36.5053 28.7768 36.5053Z" fill="#0CB2D5"/>
<path id="Vector_11" d="M35.811 51.3553C35.3833 51.3553 34.9556 51.3735 34.528 51.3553C33.9911 51.328 33.6317 50.9549 33.6408 50.4681C33.6499 50.0041 33.9957 49.6264 34.5007 49.6128C35.3969 49.5901 36.2932 49.5855 37.1849 49.6128C37.6899 49.631 38.0175 50.0223 38.0084 50.4954C37.9993 50.9686 37.6626 51.3234 37.1531 51.3507C36.7072 51.3735 36.2568 51.3553 35.811 51.3553Z" fill="#0CB2D5"/>
<path id="Vector_12" d="M21.6979 36.4964C21.3658 36.4964 21.0337 36.5146 20.7061 36.4918C20.2375 36.4554 19.9509 36.187 19.9145 35.7139C19.8735 35.2134 20.1238 34.8403 20.6106 34.7948C21.3431 34.7311 22.0892 34.7311 22.8217 34.7948C23.3085 34.8358 23.5815 35.2089 23.5405 35.7002C23.4996 36.187 23.1993 36.4736 22.6943 36.4964C22.3622 36.51 22.0346 36.4964 21.7025 36.4964H21.6979Z" fill="#0CB2D5"/>
</g>
</g>
</svg>
