<svg width="92" height="80" viewBox="0 0 92 80" fill="none" xmlns="http://www.w3.org/2000/svg">
<g id="Group 76">
<g id="Group 74">
<g id="Group 72">
<g id="Capa 2">
<g id="Capa 1">
<path id="Vector" d="M91.8088 77.0333C91.0917 79.2158 89.5547 80.0213 87.2981 79.9974C80.5596 79.9305 73.821 79.9759 67.0824 79.9735C64.1972 79.9735 62.8155 78.5847 62.8155 75.6971C62.8155 73.3067 62.7869 70.9163 62.8155 68.5402C62.8535 67.3758 62.6416 66.2167 62.1943 65.141C61.7469 64.0652 61.0744 63.0978 60.222 62.3036C57.5574 59.6981 54.9216 57.063 52.3145 54.3985C50.0053 52.0392 50.5527 48.3938 53.3949 46.9046C55.2379 45.9484 57.3582 46.2998 58.9646 47.8966C62.1152 51.028 65.2681 54.1619 68.3804 57.3315C68.6761 57.6695 69.0609 57.9173 69.4908 58.0467C69.9208 58.176 70.3785 58.1817 70.8115 58.063C70.931 56.9276 70.9573 55.9977 69.8195 55.1348C67.6896 53.5188 66.5446 51.2121 66.3653 48.5229C66.186 45.8337 66.0713 43.1588 67.3215 40.6345C69.3199 36.5876 73.9334 34.3191 78.2959 35.2752C82.8591 36.2744 86.1412 40.1397 86.2344 44.7221C86.2989 46.299 86.2374 47.8785 86.0504 49.4456C85.7229 51.7715 84.5085 53.6742 82.7348 55.2113C81.5396 56.2415 81.4871 56.3849 81.7978 58.1443H84.5157C88.3834 58.1443 90.6256 59.8391 91.6869 63.5538C91.7195 63.6369 91.7595 63.7169 91.8065 63.7928L91.8088 77.0333ZM85.1874 77.2198C85.3177 77.2469 85.4494 77.2669 85.5818 77.2795C86.2655 77.2795 86.9515 77.2939 87.6376 77.2795C88.8686 77.2795 89.122 77.0261 89.122 75.8214C89.122 72.2135 89.122 68.6055 89.122 64.9976C89.122 62.4972 87.4918 60.8646 84.9842 60.8215C83.942 60.8048 82.8926 60.769 81.8552 60.8431C81.4078 60.8815 80.9865 61.0702 80.66 61.3785C78.2696 63.8645 74.4043 63.9386 72.0401 61.4502C71.8553 61.2241 71.6173 61.0475 71.3473 60.9361C71.0774 60.8247 70.784 60.7821 70.4936 60.812C68.8705 60.9435 67.5773 60.3339 66.4299 59.1626C63.5614 56.2128 60.6259 53.33 57.7144 50.4233C57.3883 50.0744 57.0385 49.7485 56.6674 49.448C56.0411 48.9699 55.2619 48.8551 54.669 49.3189C54.179 49.699 53.6674 50.3659 53.634 50.9324C53.6005 51.4989 54.0164 52.2424 54.4563 52.6941C56.9853 55.3093 59.5622 57.879 62.1558 60.4271C63.253 61.4638 64.1184 62.721 64.6952 64.116C65.272 65.511 65.5471 67.0122 65.5024 68.5211C65.4737 70.9115 65.5024 73.3019 65.5024 75.678C65.5024 77.0811 65.6984 77.2795 67.1039 77.2795H81.5086C81.8217 77.2795 82.1349 77.2485 82.5054 77.2269V76.1656C82.5054 73.6628 82.5054 71.1457 82.5054 68.6525C82.5054 67.6199 83.0289 67.0008 83.8536 67.0079C84.6783 67.0151 85.1755 67.6342 85.185 68.6812C85.185 69.5155 85.185 70.3545 85.185 71.1864L85.1874 77.2198ZM83.5739 46.5699C83.5739 45.8528 83.5739 45.3747 83.5739 44.8966C83.495 41.3301 80.7699 38.2513 77.3277 37.833C73.5389 37.374 70.08 39.5612 69.2888 43.1875C68.9278 44.8416 68.9613 46.6225 69.0665 48.3293C69.2529 51.3292 71.4569 53.8535 74.3254 54.6399C75.7557 55.036 77.2727 54.9872 78.6746 54.5C80.0764 54.0128 81.2967 53.1103 82.1731 51.9125C83.3994 50.2392 83.703 48.3388 83.5739 46.5699ZM73.6059 57.3268C73.4601 58.4837 73.4194 59.5618 74.6696 60.1761C75.2205 60.4799 75.8462 60.6211 76.4741 60.5834C77.102 60.5458 77.7064 60.3308 78.217 59.9634C79.252 59.2773 79.0178 58.3021 78.9341 57.3339C78.0257 57.4152 77.1724 57.5515 76.319 57.5491C75.4656 57.5467 74.5429 57.42 73.6059 57.3363V57.3268Z" fill="white"/>
<path id="Vector_2" d="M42.8991 65.0506C42.8991 66.9629 42.8704 68.7486 42.9326 70.5342C42.9326 70.7924 43.3485 71.1127 43.6497 71.2728C44.7442 71.8117 45.5799 72.7634 45.9728 73.9184C46.3658 75.0734 46.2838 76.3372 45.7449 77.4317C45.206 78.5263 44.2544 79.362 43.0994 79.7549C41.9443 80.1478 40.6805 80.0658 39.586 79.5269C37.8768 78.6951 36.9565 77.2728 36.9565 75.3867C36.9565 73.539 37.8147 72.1047 39.4975 71.292C40.088 71.0051 40.2433 70.6729 40.229 70.0681C40.1931 68.4354 40.229 66.8004 40.229 65.0482H10.0142C6.96642 65.0482 5.39831 63.4729 5.39831 60.4132V11.7157C4.94413 11.7157 4.53776 11.7301 4.13378 11.7157C3.09352 11.6924 2.10283 11.2666 1.36997 10.5279C0.63711 9.78926 0.21915 8.79525 0.203947 7.75484C0.182434 6.50226 0.182434 5.26164 0.201557 3.99711C0.244584 1.8553 1.8103 0.117471 3.93299 0.0553207C6.91144 -0.0307341 9.89468 0.00273163 12.8779 0.0290262C13.7169 0.033807 14.2859 0.612287 14.2859 1.34136C14.2859 2.07044 13.7074 2.67521 12.8038 2.68477C10.1481 2.71107 7.4947 2.68477 4.84135 2.69912C3.26128 2.69912 2.8836 3.07919 2.88121 4.63774C2.88121 5.53175 2.88121 6.42577 2.88121 7.31978C2.88121 8.57714 3.34495 9.0361 4.61665 9.03849C9.38791 9.03849 14.1592 9.03849 18.9304 9.03849C29.7861 9.03849 40.6409 9.03849 51.495 9.03849C51.793 9.01847 52.0922 9.02487 52.389 9.05761C53.0846 9.18669 53.5077 9.60262 53.5316 10.3341C53.5555 11.0656 53.1492 11.5126 52.4655 11.6775C52.1415 11.7292 51.8127 11.7436 51.4854 11.7205H8.08274V60.418C8.08274 61.9765 8.47477 62.3662 10.0381 62.3662H55.4009C56.7802 62.3662 57.4256 62.7821 57.4471 63.6809C57.4686 64.5797 56.8017 65.0482 55.3675 65.0482H42.8991V65.0506ZM41.5079 77.2728C41.8852 77.2783 42.2557 77.1721 42.5728 76.9675C42.8899 76.7629 43.1394 76.469 43.2898 76.1229C43.4402 75.7768 43.4849 75.3939 43.4182 75.0225C43.3514 74.6511 43.1763 74.3077 42.9148 74.0356C42.6533 73.7635 42.3172 73.5749 41.9487 73.4934C41.5802 73.4119 41.1959 73.4413 40.8441 73.5779C40.4923 73.7144 40.1887 73.952 39.9717 74.2607C39.7546 74.5694 39.6337 74.9354 39.6242 75.3126C39.6152 75.822 39.8084 76.3142 40.1614 76.6816C40.5144 77.0489 40.9985 77.2615 41.5079 77.2728Z" fill="white"/>
<path id="Vector_3" d="M75.0018 11.7155H63.7908C61.943 11.7155 60.0952 11.7155 58.2474 11.7155C57.2124 11.7155 56.5741 11.1848 56.5908 10.3649C56.6076 9.54499 57.2195 9.03822 58.2641 9.03583H78.2982C79.8113 9.03583 80.2105 8.6438 80.2105 7.14023C80.2105 6.18407 80.2105 5.2279 80.2105 4.27174C80.1938 3.16259 79.7492 2.72514 78.6233 2.69168C78.3245 2.69168 78.0281 2.69168 77.7293 2.69168H19.7546C19.3385 2.7066 18.9219 2.68661 18.5092 2.63192C18.1908 2.60098 17.8975 2.44593 17.6926 2.20033C17.4877 1.95472 17.3878 1.63832 17.4144 1.31958C17.4018 1.00121 17.5139 0.690502 17.7268 0.453478C17.9398 0.216455 18.2367 0.0718055 18.5546 0.0502726C18.8507 0.0187512 19.1486 0.00756973 19.4462 0.0168069H78.2982C81.3197 0.0168069 82.8758 1.56579 82.8806 4.55859C82.8806 5.54344 82.8806 6.52829 82.8806 7.51075C82.8519 10.0422 81.1834 11.6892 78.6496 11.7155C78.3579 11.7155 78.0663 11.7155 77.6767 11.7155V30.4563C77.6919 30.7241 77.6855 30.9927 77.6575 31.2595C77.5332 32.0077 77.0647 32.4547 76.3165 32.438C75.5994 32.438 75.1548 32.0053 75.0209 31.3049C74.985 31.0091 74.9754 30.7107 74.9922 30.4133V11.7155H75.0018Z" fill="white"/>
<path id="Vector_4" d="M19.8655 32.8212C20.7882 32.8212 21.7109 32.7973 22.6336 32.8212C23.4173 32.8246 24.1689 33.1329 24.7293 33.6808C25.2897 34.2287 25.6149 34.9732 25.636 35.7566C25.6862 36.9159 25.6886 38.0801 25.636 39.237C25.6098 40.0223 25.2776 40.7661 24.7104 41.3097C24.1431 41.8533 23.3858 42.1535 22.6002 42.1462C20.785 42.1764 18.9699 42.1764 17.1548 42.1462C16.3702 42.1561 15.6127 41.8589 15.0442 41.318C14.4757 40.7772 14.1411 40.0355 14.1118 39.2514C14.0461 38.0627 14.0461 36.8712 14.1118 35.6825C14.1491 34.9153 14.4793 34.1916 15.0343 33.6606C15.5894 33.1296 16.3269 32.8317 17.095 32.8283C18.0201 32.7973 18.9428 32.8212 19.8655 32.8212ZM19.8655 39.4713C20.6687 39.4713 21.4719 39.457 22.2751 39.4713C22.7531 39.4833 22.9922 39.2777 22.9922 38.7876C22.9826 37.9271 22.9826 37.0649 22.9922 36.2012C22.9922 35.7231 22.8177 35.4841 22.3109 35.4841C20.7046 35.4984 19.0982 35.4984 17.4918 35.4841C17.0138 35.4841 16.7747 35.6801 16.7747 36.1677C16.7747 37.0307 16.7747 37.8936 16.7747 38.7542C16.7747 39.2992 17.0329 39.4833 17.5492 39.4713C18.3118 39.445 19.0839 39.4713 19.8583 39.4713H19.8655Z" fill="white"/>
<path id="Vector_5" d="M19.8584 28.798C18.9643 28.798 18.0703 28.8243 17.1787 28.798C15.3907 28.7311 14.1668 27.5335 14.0927 25.7526C14.0497 24.6531 14.0449 23.5487 14.0927 22.4515C14.1065 21.6498 14.4352 20.8857 15.0077 20.3244C15.5802 19.7631 16.3506 19.4495 17.1524 19.4515C18.9357 19.4085 20.7237 19.4157 22.5069 19.4515C24.2902 19.4874 25.581 20.7567 25.6408 22.5591C25.6742 23.5989 25.6718 24.6435 25.6408 25.6833C25.5858 27.5096 24.3643 28.7311 22.5332 28.7909C21.644 28.8243 20.75 28.798 19.8584 28.798ZM19.8584 26.1136C20.6615 26.1136 21.4647 26.1136 22.2679 26.1136C22.746 26.1136 22.985 25.9248 22.985 25.4275C22.985 24.5646 22.985 23.7017 22.985 22.8411C22.985 22.363 22.8033 22.124 22.3037 22.124C20.6974 22.124 19.091 22.124 17.4847 22.124C17.0066 22.124 16.7676 22.3367 16.7676 22.8196C16.7676 23.6825 16.7676 24.5455 16.7676 25.406C16.7676 25.9582 17.0424 26.1232 17.5468 26.1232C18.3094 26.104 19.0839 26.116 19.856 26.1136H19.8584Z" fill="white"/>
<path id="Vector_6" d="M19.8874 55.5363C19.0244 55.5363 18.1615 55.5602 17.2986 55.5363C15.3862 55.4741 14.1384 54.2263 14.0858 52.314C14.0572 51.3028 14.0524 50.2893 14.0858 49.2782C14.1528 47.5188 15.3002 46.2615 17.0356 46.1921C18.9479 46.1156 20.8603 46.1156 22.7487 46.1921C24.4411 46.2686 25.5813 47.5332 25.6411 49.2351C25.6769 50.275 25.6746 51.3196 25.6411 52.3594C25.5933 54.1737 24.3718 55.4311 22.5575 55.5219C21.6682 55.5673 20.7742 55.5219 19.8802 55.5219L19.8874 55.5363ZM19.9352 48.8431C19.132 48.8431 18.3288 48.8431 17.5233 48.8431C17.0141 48.8431 16.7464 49.0296 16.7583 49.5746C16.7751 50.4064 16.7751 51.2479 16.7583 52.0749C16.7583 52.651 17.0093 52.8709 17.5711 52.8638C19.12 52.8494 20.6786 52.8518 22.2156 52.8638C22.7367 52.8638 22.983 52.6534 22.9734 52.1204C22.9734 51.2885 22.9519 50.4471 22.9734 49.62C22.9925 49.0272 22.7176 48.8288 22.1654 48.8431C21.4268 48.8551 20.681 48.8407 19.9352 48.8431Z" fill="white"/>
<path id="Vector_7" d="M38.6427 22.123C35.7527 22.123 32.8627 22.123 29.9727 22.123C28.8325 22.123 28.2468 21.6449 28.254 20.7796C28.2611 19.9143 28.8611 19.4434 29.9942 19.4434C35.7774 19.4434 41.559 19.4434 47.339 19.4434C48.4506 19.4434 49.1247 20.0553 49.0123 20.9326C48.9239 21.6832 48.3526 22.1278 47.394 22.1278C44.4849 22.1278 41.5638 22.123 38.6427 22.123Z" fill="white"/>
<path id="Vector_8" d="M38.6685 32.8154C41.5585 32.8154 44.4485 32.8154 47.3385 32.8154C48.3974 32.8154 49.0118 33.2935 49.0309 34.1086C49.0524 34.9596 48.4118 35.4927 47.3194 35.4927C41.5075 35.4927 35.6964 35.4927 29.8861 35.4927C28.6024 35.4927 27.8781 34.5174 28.3945 33.5326C28.7148 32.9182 29.2694 32.8154 29.9076 32.8154C32.8239 32.8226 35.745 32.8154 38.6685 32.8154Z" fill="white"/>
<path id="Vector_9" d="M38.6681 48.8389C35.7494 48.8389 32.8283 48.8389 29.9096 48.8389C28.8793 48.8389 28.3606 48.4541 28.2626 47.6987C28.232 47.5293 28.2358 47.3554 28.274 47.1875C28.3122 47.0196 28.3839 46.8612 28.4848 46.7217C28.5857 46.5822 28.7137 46.4645 28.8612 46.3756C29.0087 46.2868 29.1726 46.2287 29.3431 46.2047C29.4593 46.1794 29.5779 46.1658 29.6968 46.1641C35.6553 46.1641 41.6138 46.1641 47.5723 46.1641C48.464 46.1641 49.0424 46.7641 49.0257 47.5242C49.009 48.2844 48.4353 48.8198 47.515 48.8246C44.5676 48.8437 41.6178 48.8246 38.6705 48.8246L38.6681 48.8389Z" fill="white"/>
<path id="Vector_10" d="M36.0373 42.1552C34.0126 42.1552 31.9879 42.1552 29.9608 42.1552C28.8302 42.1552 28.2421 41.6772 28.2541 40.8023C28.266 39.9274 28.8493 39.4756 29.913 39.4756C33.9927 39.4756 38.0723 39.4756 42.1519 39.4756C43.175 39.4756 43.8037 40.023 43.7894 40.8429C43.775 41.6628 43.1679 42.1505 42.1161 42.1528C40.0842 42.16 38.0596 42.1552 36.0373 42.1552Z" fill="white"/>
<path id="Vector_11" d="M35.9576 55.5371C33.9042 55.5371 31.8485 55.5562 29.7951 55.5371C28.6549 55.5227 27.976 54.6789 28.3202 53.7395C28.5592 53.1037 29.0517 52.855 29.721 52.8574C33.9209 52.8574 38.1185 52.8574 42.3185 52.8574C43.2173 52.8574 43.7957 53.4096 43.7909 54.1841C43.7862 54.9586 43.1957 55.5132 42.2993 55.5251C40.1862 55.5538 38.0731 55.5371 35.9576 55.5371Z" fill="white"/>
<path id="Vector_12" d="M35.9846 28.7999C33.9599 28.7999 31.9353 28.7999 29.913 28.7999C28.8086 28.7999 28.2636 28.3457 28.254 27.4876C28.2445 26.6294 28.7967 26.1298 29.8723 26.125C33.9504 26.1107 38.0284 26.1107 42.1065 26.125C43.1606 26.125 43.7798 26.6366 43.7798 27.4493C43.7798 28.262 43.1654 28.7951 42.0491 28.7999C40.0316 28.8047 38.0093 28.7999 35.9846 28.7999Z" fill="white"/>
</g>
</g>
</g>
</g>
</g>
</svg>
