<svg width="82" height="80" viewBox="0 0 82 80" fill="none" xmlns="http://www.w3.org/2000/svg">
<g id="Capa 2">
<g id="Capa 1">
<path id="Vector" d="M81.6974 44.2999C81.3033 44.7534 80.9621 45.2661 80.5087 45.6496C77.2394 48.4041 73.9404 51.1585 70.6626 53.8939C70.4825 54.0444 70.3108 54.2054 70.0269 54.4554C70.6117 54.627 71.1012 54.7775 71.5927 54.911C73.0441 55.3093 74.4934 55.7119 75.949 56.0933C76.7563 56.3051 77.3453 56.7289 77.5064 57.587C77.6674 58.4452 77.2521 58.9918 76.6228 59.4813C68.0727 66.1315 59.5268 72.7881 50.9851 79.4511C50.3007 79.9829 49.5846 80.2139 48.79 79.752C48.4668 79.5894 48.2066 79.3242 48.0502 78.9979C47.8937 78.6716 47.8499 78.3027 47.9255 77.9489C48.0108 77.5906 48.1609 77.2509 48.3684 76.9467C49.6757 74.8109 50.9999 72.6815 52.4386 70.3571C52.0255 70.5118 51.803 70.5945 51.5784 70.6813C37.3929 76.0885 24.4575 74.0269 12.7828 64.2465C12.5977 64.0966 12.4222 63.9353 12.2574 63.7634C11.7849 63.2464 11.77 62.598 12.2065 62.1213C12.3069 62.0061 12.4293 61.9122 12.5665 61.8449C12.7036 61.7776 12.8529 61.7384 13.0054 61.7295C13.1579 61.7206 13.3107 61.7423 13.4548 61.7932C13.5988 61.8441 13.7313 61.9232 13.8444 62.026C14.7724 62.7675 15.6496 63.5748 16.5988 64.2931C27.4684 72.5565 42.5946 73.4888 54.4303 66.6238C54.6857 66.4922 54.9081 66.3046 55.0808 66.075C55.977 64.6745 56.8415 63.2549 57.7802 61.7399C56.4072 61.3585 55.0829 61.0386 53.7925 60.6148C53.4184 60.4716 53.0168 60.4147 52.6176 60.4484C52.2184 60.4822 51.832 60.6057 51.4873 60.8098C49.8346 61.723 48.0124 62.0111 46.1288 61.9518C45.7899 61.931 45.45 61.9697 45.1245 62.0662C42.1751 63.0557 39.6155 62.4773 37.4586 60.2144C37.3875 60.1568 37.3125 60.1044 37.234 60.0576C36.1483 61.3687 34.6076 62.2215 32.9201 62.4455C32.3988 62.5133 31.831 62.6213 31.3458 62.4879C29.5808 62.0005 27.7544 62.0302 25.9682 61.7569C22.0971 61.1636 18.1985 58.0828 17.4633 53.5613C17.3611 53.0483 17.1045 52.5789 16.7281 52.2158C13.9355 49.5355 13.1748 46.4548 14.7364 42.8528C14.7696 42.7387 14.7781 42.6188 14.7613 42.5011C14.7445 42.3835 14.7028 42.2707 14.6389 42.1705C12.2955 38.7486 12.4078 35.4284 14.9716 32.1739C15.0462 32.0653 15.098 31.9426 15.1239 31.8133C15.1497 31.684 15.1491 31.5508 15.122 31.4218C13.9969 27.4172 15.5966 23.883 19.3596 22.099C19.5037 22.0311 19.6436 21.9591 19.7622 21.9019C19.8109 21.0904 19.7622 20.2874 19.9232 19.5225C20.2238 18.089 20.967 16.7861 22.0478 15.7977C23.1286 14.8093 24.4925 14.1852 25.947 14.0135C26.8518 13.9097 27.3688 13.6661 27.8222 12.7634C29.4134 9.60217 33.9668 8.91567 36.5941 11.3438C36.8122 11.5684 37.0181 11.8047 37.2107 12.0515C38.1959 10.9646 39.2829 10.2336 40.6686 9.98143C43.3425 9.49622 45.9444 10.829 46.989 13.3482C47.1861 13.8228 47.4721 13.8716 47.8832 13.914C50.93 14.2318 53.2141 15.6514 54.3201 18.5669C54.693 19.55 54.7058 20.6709 54.8986 21.8171C55.5554 22.2685 56.422 22.7388 57.1318 23.3787C59.5261 25.5336 60.3778 28.1736 59.4625 31.3285C59.4278 31.4811 59.4247 31.6391 59.4535 31.7929C59.4823 31.9467 59.5423 32.093 59.6299 32.2227C62.1131 35.3119 62.2403 38.8991 59.9816 42.0985C59.8341 42.37 59.7969 42.688 59.8778 42.9863C60.0685 43.7215 60.3397 44.4355 60.6045 45.2386C60.7448 45.1256 60.8772 45.0031 61.0008 44.872C61.6979 44.0435 62.3949 43.213 63.0772 42.3718C63.289 42.1017 63.5636 41.8875 63.8772 41.7479C64.1907 41.6083 64.5337 41.5475 64.8761 41.5709C66.9949 41.5984 69.0989 41.5709 71.3724 41.5709C71.4635 40.3759 71.6415 39.0283 71.6605 37.6659C71.7919 28.644 68.9167 20.7154 62.9607 13.9203C62.8399 13.7805 62.7043 13.6512 62.5878 13.5093C62.0708 12.8842 62.075 12.2189 62.5878 11.7464C63.1005 11.2739 63.7934 11.3332 64.34 11.918C66.6857 14.4343 68.6515 17.2795 70.1752 20.3636C73.3637 26.7102 74.6282 33.8501 73.8133 40.9056C73.7899 41.1175 73.7751 41.3293 73.7666 41.5412C73.7789 41.6697 73.8001 41.7971 73.8302 41.9226C74.4658 41.9226 75.1121 41.9078 75.7626 41.9226C76.9767 41.9565 78.1929 42.0646 79.4048 42.0391C80.4748 42.0137 81.2439 42.376 81.708 43.3465L81.6974 44.2999ZM17.7472 49.7177C17.8341 49.4741 17.8934 49.294 17.9591 49.1287C18.5591 47.3919 19.6893 45.8874 21.1903 44.8275C21.3152 44.7277 21.459 44.6542 21.6131 44.6115C21.7672 44.5689 21.9283 44.5579 22.0868 44.5793C22.2452 44.6007 22.3977 44.654 22.535 44.736C22.6722 44.818 22.7914 44.927 22.8854 45.0563C23.2604 45.5755 23.1714 46.209 22.6502 46.6857C22.5336 46.7938 22.398 46.8785 22.2772 46.9823C20.1796 48.7833 19.4084 51.0738 19.9953 53.7414C20.7581 57.2035 24.1863 59.5957 28.0828 59.583C28.9176 59.5795 29.7478 59.7075 30.5428 59.9622C32.7845 60.7038 36.3589 59.405 36.0941 55.8877C35.9945 54.5465 36.0813 53.1926 36.0686 51.845C36.0559 50.4572 35.3037 49.4931 34.0791 49.2686C32.9074 49.0567 31.8395 49.7622 31.3712 51.0632C31.0767 51.8832 30.4983 52.2518 29.8287 52.0463C29.1592 51.8408 28.871 51.1755 29.0829 50.3513C29.4057 49.2098 30.1427 48.2298 31.1498 47.6028C32.1568 46.9759 33.3615 46.7471 34.5283 46.9612C35.0262 47.0629 35.5114 47.2324 36.0114 47.3743C36.0361 47.2805 36.0531 47.1849 36.0623 47.0883C36.0623 38.9478 36.0573 30.8073 36.0474 22.6668C36.0141 22.3106 35.8467 21.9804 35.5792 21.743C34.6935 20.9696 33.6723 20.9866 32.6022 21.3468C32.3131 21.4592 31.9912 21.4521 31.7073 21.3271C31.4234 21.2022 31.2007 20.9695 31.0884 20.6804C30.976 20.3913 30.983 20.0694 31.108 19.7854C31.233 19.5015 31.4656 19.2789 31.7547 19.1665C32.2863 18.9357 32.8543 18.8002 33.4328 18.7661C34.2804 18.7661 35.1279 18.9144 36.0072 19.0055C36.0072 17.696 36.0898 16.3485 35.986 15.0136C35.8864 13.6279 34.6511 12.5007 33.2718 12.2888C31.8924 12.0769 30.2737 12.8397 29.8096 14.1216C29.2778 15.5921 28.3455 16.3188 26.7903 16.2828C26.5524 16.2922 26.316 16.3255 26.0848 16.3824C24.091 16.7489 22.4362 18.3804 22.2179 20.1963C22.0908 21.1994 22.2861 22.217 22.7756 23.1018C23.265 23.9867 24.0233 24.6929 24.9406 25.1183C25.2372 25.2518 25.6652 25.1712 26.0148 25.1013C26.6505 24.9721 27.2692 24.703 27.9218 24.6309C28.221 24.6084 28.5173 24.7026 28.7486 24.8937C28.9799 25.0849 29.1282 25.3581 29.1625 25.6562C29.1967 25.9543 29.1143 26.2541 28.9323 26.4928C28.7504 26.7314 28.4832 26.8903 28.1866 26.9362C26.9408 27.0506 26.3772 27.7117 26.2267 28.9067C26.2155 29.0616 26.1708 29.2122 26.0958 29.3481C26.0207 29.4841 25.9171 29.6021 25.792 29.6941C25.667 29.7862 25.5234 29.85 25.3713 29.8812C25.2192 29.9125 25.0621 29.9103 24.9109 29.875C24.2287 29.767 23.9087 29.3178 23.913 28.6546C23.9329 28.2361 23.9739 27.8188 24.0359 27.4045L23.8854 27.5528L20.419 24.2856C17.9718 25.1945 16.4929 27.9045 17.3637 30.4301C17.8489 31.837 17.6074 32.8668 16.6348 33.9622C15.8309 34.8573 15.3703 36.0084 15.335 37.2111C15.2997 38.4137 15.6919 39.5898 16.442 40.5305C17.3616 41.698 17.5014 42.7532 16.8404 44.0923C15.853 46.1115 16.2471 48.2197 17.7472 49.7177ZM50.6419 27.5549L50.5084 27.4129C50.5508 27.8367 50.6228 28.2435 50.6292 28.6609C50.6292 29.3347 50.2965 29.7754 49.6206 29.8644C48.9447 29.9534 48.4129 29.6335 48.3493 28.9703C48.2073 27.6863 47.5802 27.0443 46.2898 26.9065C45.6287 26.8345 45.3003 26.3048 45.3851 25.6353C45.4698 24.9657 45.9169 24.5525 46.5801 24.6352C47.2433 24.7178 47.9383 24.989 48.6226 25.1543C48.8811 25.2179 49.1926 25.309 49.4193 25.2263C51.5699 24.4297 52.8687 21.7472 52.195 19.5627C51.6314 17.7427 49.9045 16.4332 47.6628 16.3019C46.222 16.215 45.3088 15.6323 44.7982 14.2572C44.3024 12.9202 43.173 12.3503 41.8106 12.2909C41.1826 12.2415 40.5551 12.3933 40.0191 12.7244C39.4831 13.0554 39.0665 13.5485 38.8295 14.1322C38.1154 15.7319 38.5794 17.4248 38.4481 19.1644C38.8019 19.0521 38.9735 18.9928 39.1494 18.9525C40.295 18.5953 41.5289 18.6463 42.6412 19.0966C43.3807 19.3996 43.6858 20.0225 43.4421 20.6751C43.2154 21.2811 42.5946 21.5396 41.8678 21.3319C41.692 21.2811 41.5182 21.209 41.3403 21.1688C39.6198 20.8001 38.4608 21.7218 38.4608 23.4529V47.4294L39.3083 47.1328C39.9131 46.9209 40.5545 46.8338 41.1939 46.8765C41.8332 46.9193 42.4573 47.091 43.0285 47.3815C43.5997 47.6719 44.1062 48.075 44.5174 48.5665C44.9286 49.058 45.236 49.6276 45.4211 50.2411C45.6902 51.1204 45.4423 51.7836 44.7579 52.023C44.0735 52.2624 43.4739 51.8853 43.1688 51.0123C42.745 49.7707 41.6644 49.063 40.5076 49.2516C39.3507 49.4402 38.4926 50.4064 38.4671 51.7137C38.4375 53.2731 38.4459 54.8326 38.4671 56.392C38.482 58.0701 39.3825 59.1592 40.8656 59.797C41.9505 60.2631 43.0586 60.2377 44.1943 59.8796C44.8299 59.6783 45.5292 59.6571 46.1987 59.5554C47.3662 59.3817 48.5294 59.2206 49.699 59.0278C50.1927 58.9452 50.4173 58.6613 50.4512 58.1061C50.5135 57.6927 50.6946 57.3063 50.9724 56.9938C52.0763 55.6102 53.2438 54.2753 54.3328 52.8811C54.5938 52.5362 54.7285 52.1121 54.7142 51.6798C54.6589 50.739 54.3998 49.8214 53.9549 48.9906C53.5101 48.1598 52.89 47.4356 52.1377 46.8679C51.3707 46.2683 51.2245 45.6496 51.6758 45.0479C52.1272 44.4461 52.8518 44.4334 53.6252 45.0203C54.9902 46.0788 56.0203 47.5091 56.5915 49.1393C56.6593 49.3215 56.7377 49.4995 56.8225 49.7071C58.3522 48.0757 58.6616 46.0352 57.6403 43.927C57.0661 42.7405 57.1636 41.751 57.9878 40.7085C59.6998 38.5431 59.6023 35.8056 57.7463 33.7546C56.886 32.8032 56.6869 31.8476 57.1212 30.6378C58.0683 27.985 56.6169 25.1289 54.1252 24.294L50.6419 27.5549ZM78.2352 44.4461C77.9238 44.3995 77.7733 44.3635 77.6229 44.3593C73.5293 44.2279 69.4337 44.0902 65.3337 43.9927C64.9866 44.0272 64.6669 44.197 64.4438 44.4652C60.8984 48.7028 57.367 52.9504 53.8498 57.2078C53.6548 57.4408 53.4726 57.6845 53.2247 57.996L58.7442 59.5257C60.4859 60.0067 60.9393 61.1466 59.9901 62.6828C57.5365 66.6605 55.0815 70.6354 52.6251 74.6075C52.4831 74.8363 52.3581 75.0736 52.2246 75.3088L52.3412 75.3851L74.4489 58.1612C72.4254 57.6019 70.5757 57.0679 68.7111 56.5848C67.889 56.3729 67.2068 56.0403 66.9907 55.1567C66.7639 54.2287 67.2682 53.6164 67.942 53.0591C70.7092 50.7666 73.4686 48.4641 76.2202 46.1518C76.8538 45.6178 77.4873 45.0775 78.2352 44.4461Z" fill="white"/>
<path id="Vector_2" d="M0.500261 38.6554C0.436696 19.9378 12.0012 5.06366 28.5915 1.10359C39.9103 -1.5979 50.3243 0.688301 59.6788 7.65497C60.5264 8.29062 60.6683 9.06187 60.0645 9.65302C59.575 10.134 59.0051 10.1276 58.2868 9.57674C56.0853 7.88844 53.6921 6.46604 51.157 5.33911C31.8143 -3.21456 9.26157 7.6465 4.01114 28.1567C1.28634 38.7995 3.31617 48.6223 9.80611 57.5065C9.93112 57.676 10.0625 57.8413 10.1769 58.0193C10.6007 58.6697 10.535 59.2906 10.0032 59.7143C9.47134 60.1381 8.73187 60.0745 8.27632 59.4177C7.29743 58.0405 6.28887 56.6738 5.44134 55.2182C2.15294 49.58 0.542637 43.4566 0.500261 38.6554Z" fill="white"/>
<path id="Vector_3" d="M28.7666 38.1384C29.2157 38.952 29.6395 39.5919 29.934 40.2869C30.2285 40.9819 29.934 41.6429 29.3429 41.8866C28.6966 42.1514 28.0716 41.8633 27.7432 41.145C27.0312 39.6089 26.243 39.1893 24.5226 39.4266C23.7767 39.5305 23.2216 39.1957 23.0627 38.5495C22.9038 37.9032 23.2915 37.3544 24.0056 37.1277C24.0778 37.0952 24.154 37.0724 24.2323 37.0599C25.0184 37.0451 25.8723 37.221 26.563 36.9731C27.2537 36.7252 27.8046 36.0387 28.4339 35.5704C28.6343 35.4422 28.856 35.3511 29.0886 35.3013C29.7539 35.1191 30.3769 35.4115 30.5887 35.9878C30.8133 36.598 30.5633 37.1786 29.9404 37.5049C29.5399 37.7146 29.1331 37.9414 28.7666 38.1384Z" fill="white"/>
<path id="Vector_4" d="M45.7457 38.1384C45.4427 37.971 45.0698 37.7422 44.6863 37.5494C43.9786 37.1977 43.6947 36.5768 43.9723 35.937C44.0328 35.7887 44.1238 35.6549 44.2394 35.5442C44.355 35.4335 44.4927 35.3484 44.6434 35.2944C44.7941 35.2405 44.9545 35.2189 45.1141 35.231C45.2738 35.2431 45.429 35.2887 45.5699 35.3649C46.2628 35.6735 46.9056 36.0842 47.4768 36.5832C47.6354 36.744 47.8291 36.8659 48.0426 36.9394C48.2562 37.013 48.4839 37.0361 48.7078 37.007C49.3637 36.9682 50.0217 37.0246 50.6614 37.1744C51.297 37.3248 51.5937 37.8418 51.475 38.5113C51.3564 39.1809 50.8055 39.5135 50.1232 39.4415C48.1421 39.2296 47.6866 39.4754 46.7564 41.2679C46.4471 41.8654 45.8029 42.143 45.2224 41.876C44.6418 41.609 44.3176 41.0793 44.5698 40.45C44.8664 39.7127 45.2923 39.0156 45.7457 38.1384Z" fill="white"/>
</g>
</g>
</svg>
