<svg width="56" height="55" viewBox="0 0 56 55" fill="none" xmlns="http://www.w3.org/2000/svg">
<g id="Capa 7">
<g id="Capa 1">
<path id="Vector" d="M20.978 54.9614C20.3928 54.785 20.1934 54.3949 20.2077 53.7881C20.2422 52.4485 20.2178 51.106 20.2192 49.7649C20.2192 47.0871 21.4039 45.4865 24.0244 44.6861C22.8081 43.2389 22.2918 41.621 22.7852 39.7622C23.0827 38.6075 23.7832 37.5972 24.7602 36.9137C25.7341 36.2126 26.9233 35.8761 28.1201 35.9629C29.3169 36.0496 30.4452 36.5542 31.3077 37.3884C33.2942 39.3032 33.3674 41.8247 31.4942 44.689L32.0349 44.8668C32.9593 45.1673 33.7671 45.7485 34.3457 46.5295C34.9244 47.3104 35.2452 48.2524 35.2635 49.2242C35.2836 50.7446 35.2463 52.2649 35.2807 53.7838C35.2951 54.3934 35.0943 54.7807 34.5105 54.9585L20.978 54.9614ZM33.6543 53.279C33.6543 51.8949 33.6758 50.5538 33.6543 49.2171C33.6407 48.4383 33.326 47.695 32.7761 47.1433C32.2263 46.5916 31.4841 46.2743 30.7053 46.2581C28.7404 46.2251 26.7725 46.2309 24.8061 46.2581C24.1397 46.2716 23.4965 46.5057 22.9774 46.9238C22.4583 47.342 22.0926 47.9205 21.9375 48.5687C21.9183 48.6188 21.9044 48.6707 21.8959 48.7237C21.8959 50.234 21.8959 51.7443 21.8959 53.2804L33.6543 53.279ZM27.765 37.5634C27.0648 37.5597 26.3792 37.7641 25.7954 38.1507C25.2115 38.5373 24.7556 39.0887 24.4856 39.7348C24.2156 40.3809 24.1436 41.0926 24.2788 41.7797C24.414 42.4668 24.7502 43.0982 25.2449 43.5939C25.7395 44.0896 26.3703 44.4271 27.0571 44.5637C27.7439 44.7003 28.4558 44.6297 29.1025 44.361C29.7491 44.0924 30.3014 43.6376 30.6892 43.0545C31.0769 42.4714 31.2828 41.7863 31.2805 41.086C31.2752 40.1546 30.9034 39.2628 30.2455 38.6035C29.5875 37.9442 28.6964 37.5706 27.765 37.5634Z" fill="white"/>
<path id="Vector_2" d="M0.25 48.6267C0.314543 48.4259 0.381955 48.2265 0.44363 48.0243C0.997267 46.2458 2.22359 45.1873 4.06666 44.6924C2.80735 43.2094 2.31395 41.537 2.84607 39.6595C3.16809 38.5099 3.89046 37.5134 4.88277 36.8497C5.85851 36.1828 7.0343 35.8726 8.21205 35.9713C9.3898 36.0701 10.4975 36.5718 11.3486 37.3919C13.3336 39.3124 13.4039 41.7722 11.525 44.7068C11.634 44.7369 11.7287 44.7598 11.8219 44.7885C13.9647 45.4268 15.28 47.1594 15.3015 49.3998C15.3158 50.8671 15.2828 52.3343 15.3158 53.8016C15.3287 54.4112 15.1251 54.7985 14.5341 54.9648H11.8491C11.3945 54.7483 11.056 54.4471 11.2094 53.8877C11.3629 53.3283 11.8147 53.3011 12.2837 53.3068C12.7527 53.3125 13.1988 53.3068 13.6893 53.3068C13.6893 51.9012 13.7108 50.5816 13.6893 49.2578C13.6863 48.4609 13.3676 47.6978 12.8031 47.1354C12.2386 46.573 11.4742 46.2572 10.6773 46.2572C8.76397 46.2314 6.84775 46.2343 4.94014 46.2572C3.37819 46.2745 2.05434 47.3746 1.92812 48.9164C1.81195 50.3507 1.90374 51.8037 1.90374 53.3082H8.08555C8.49289 53.3082 8.89592 53.4244 8.94612 53.8576C8.98198 54.1444 8.80269 54.4686 8.67074 54.754C8.62484 54.8573 8.43838 54.8974 8.31647 54.9648H0.25V48.6267ZM7.78004 37.564C7.0818 37.5634 6.39904 37.7697 5.81792 38.1568C5.23681 38.5439 4.78339 39.0945 4.51488 39.7391C4.24638 40.3836 4.17482 41.0933 4.30924 41.7784C4.44366 42.4636 4.77803 43.0936 5.27016 43.589C5.76229 44.0843 6.39013 44.4227 7.07442 44.5616C7.75872 44.7005 8.46882 44.6335 9.11509 44.3692C9.76137 44.1048 10.3149 43.655 10.7057 43.0764C11.0966 42.4978 11.3073 41.8164 11.3113 41.1182C11.3124 40.1792 10.9415 39.2779 10.2797 38.6118C9.61783 37.9457 8.71904 37.5689 7.78004 37.564Z" fill="white"/>
<path id="Vector_3" d="M40.9544 54.9616C40.362 54.7967 40.1569 54.4109 40.1727 53.7999C40.2057 52.4229 40.1813 51.046 40.1828 49.6691C40.1828 47.0874 41.4507 45.415 43.9937 44.6921C42.6885 43.1646 42.2166 41.4449 42.8118 39.5186C43.1576 38.395 43.8923 37.4314 44.8844 36.8006C45.8785 36.1456 47.0693 35.8563 48.2531 35.9822C49.437 36.108 50.5403 36.6412 51.3745 37.4905C52.8261 38.9549 53.754 41.8881 51.4477 44.6792C51.6198 44.7394 51.7761 44.7982 51.9339 44.8499C52.8812 45.1422 53.7111 45.7278 54.304 46.5223C54.8969 47.3168 55.2222 48.2791 55.2328 49.2704C55.2529 50.7721 55.217 52.2752 55.25 53.7769C55.2629 54.3793 55.0592 54.7709 54.487 54.9616H51.3717C51.1365 54.6977 50.7908 54.4697 50.6933 54.1627C50.5498 53.7124 50.9801 53.328 51.5438 53.3122C52.2294 53.2936 52.9178 53.3122 53.6178 53.3122C53.6178 51.8349 53.6665 50.458 53.6049 49.0839C53.5612 48.3333 53.2367 47.6266 52.696 47.1042C52.1552 46.5818 51.4378 46.2819 50.6861 46.2641C48.701 46.2297 46.716 46.234 44.7309 46.2641C43.3138 46.2856 41.9914 47.357 41.8623 48.7626C41.7289 50.2471 41.8322 51.7531 41.8322 53.3079H44.1471C45.3261 53.3079 46.5066 53.3079 47.687 53.3194C48.0871 53.3194 48.3783 53.5187 48.4687 53.9218C48.5191 54.0963 48.5059 54.283 48.4316 54.4487C48.3573 54.6144 48.2266 54.7484 48.0628 54.8268C47.9506 54.8817 47.8351 54.9296 47.7171 54.9703L40.9544 54.9616ZM47.7042 37.5637C46.7794 37.5823 45.8988 37.9628 45.2514 38.6234C44.6039 39.284 44.2413 40.1721 44.2413 41.097C44.2413 42.022 44.6039 42.9101 45.2514 43.5707C45.8988 44.2313 46.7794 44.6118 47.7042 44.6304C48.1742 44.6399 48.6414 44.5555 49.0783 44.3822C49.5153 44.2089 49.9133 43.9501 50.2491 43.6211C50.5848 43.292 50.8515 42.8993 51.0336 42.4659C51.2157 42.0325 51.3095 41.5671 51.3095 41.097C51.3095 40.627 51.2157 40.1616 51.0336 39.7282C50.8515 39.2948 50.5848 38.9021 50.2491 38.573C49.9133 38.244 49.5153 37.9852 49.0783 37.8119C48.6414 37.6386 48.1742 37.5542 47.7042 37.5637Z" fill="white"/>
<path id="Vector_4" d="M31.0982 13.9939C32.3432 14.2449 32.8409 14.843 32.8495 16.075C32.8495 16.6301 32.8495 17.1852 32.8495 17.7388C32.8501 18.0549 32.7698 18.3658 32.6161 18.642C32.4624 18.9182 32.2406 19.1504 31.9717 19.3165C31.7901 19.4433 31.6507 19.6217 31.5715 19.8286C31.3205 20.5343 31.1212 21.2629 30.8831 21.97C30.5575 22.941 29.9164 23.4344 28.8937 23.4717C28.1264 23.4989 27.3547 23.5004 26.5859 23.4717C25.5719 23.4315 24.9379 22.9281 24.6109 21.9528C24.456 21.4952 24.324 21.0334 24.1806 20.573C23.997 19.9864 23.8493 19.4255 23.2526 19.0282C22.9443 18.8246 22.7707 18.2867 22.7076 17.8722C22.6158 17.2784 22.6732 16.6602 22.676 16.0521C22.676 14.8516 23.1809 14.2506 24.4158 14.0025C24.1907 13.2309 23.7575 12.5362 23.1637 11.9945C21.6204 10.5387 20.8545 8.75727 20.9004 6.63451C20.9122 6.36673 20.9404 6.09992 20.985 5.83561C21.0639 5.30062 21.4153 4.98651 21.8771 5.03958C22.3562 5.09408 22.6043 5.50142 22.5943 6.06223C22.5756 6.7177 22.5412 7.38895 22.6531 8.02864C22.8245 9.00767 23.3122 9.90349 24.0415 10.5788C24.9548 11.4149 25.6341 12.4749 26.0122 13.6539C26.0983 13.9279 26.2259 14.0541 26.54 14.0455C27.3447 14.0197 28.1507 14.0197 28.9539 14.0455C29.2724 14.0555 29.3928 13.9193 29.4775 13.6482C29.8518 12.462 30.5474 11.4968 31.4267 10.6161C32.4047 9.65844 32.9688 8.3558 32.998 6.98728C33.0272 5.61876 32.5193 4.29322 31.583 3.29468C30.6467 2.29614 29.3566 1.70402 27.989 1.64518C26.6215 1.58635 25.2852 2.06548 24.2667 2.97993C23.9669 3.24241 23.6657 3.44177 23.2541 3.31125C22.6588 3.12336 22.5369 2.40334 23.0289 1.92572C24.0231 0.955917 25.2961 0.321916 26.6691 0.112777C30.8874 -0.545564 34.7126 2.78773 34.6008 7.05619C34.5853 7.95313 34.391 8.83797 34.0292 9.65885C33.6674 10.4797 33.1454 11.2201 32.4938 11.8367C31.6619 12.6499 31.3521 13.1376 31.0982 13.9939ZM31.2416 17.9296C31.2416 17.221 31.2603 16.5985 31.2259 15.9775C31.1987 15.8993 31.152 15.8293 31.0903 15.774C31.0286 15.7188 30.9538 15.6803 30.873 15.662C28.799 15.6419 26.7251 15.6519 24.6525 15.6447C24.3742 15.6447 24.2667 15.7451 24.2738 16.0205C24.2853 16.5025 24.2982 16.9872 24.2738 17.4677C24.2509 17.8593 24.4173 17.9454 24.7744 17.9425C26.3306 17.9267 27.8854 17.9425 29.4402 17.9425L31.2416 17.9296ZM25.5532 19.5604C25.7684 20.2574 25.9362 20.8943 26.1743 21.5024C26.2296 21.596 26.3057 21.6756 26.3968 21.735C26.4878 21.7945 26.5913 21.8322 26.6992 21.8452C27.3949 21.8811 28.0919 21.8811 28.7876 21.8452C28.9683 21.8366 29.2465 21.7018 29.301 21.5583C29.5477 20.9172 29.7313 20.2503 29.9493 19.5503L25.5532 19.5604Z" fill="white"/>
<path id="Vector_5" d="M26.9395 29.8615H8.59628V31.4392C8.59628 32.0129 8.60776 32.5866 8.59628 33.1603C8.58481 33.7341 8.24058 34.0926 7.76296 34.0769C7.28534 34.0611 6.99274 33.7341 6.99274 33.1689C6.9827 31.8781 6.99274 30.5872 6.99274 29.3035C6.99274 28.4774 7.25092 28.2292 8.09428 28.2292H26.9395C26.9395 27.5279 26.9294 26.8738 26.9395 26.2212C26.9395 25.9932 26.9395 25.6891 27.0657 25.5586C27.2708 25.3578 27.5935 25.1685 27.866 25.1685C28.2518 25.1685 28.51 25.474 28.5287 25.8856C28.5516 26.4392 28.543 26.9943 28.5473 27.5494C28.5473 27.7588 28.5473 27.9682 28.5473 28.2321H47.2792C48.2947 28.2321 48.5026 28.4415 48.5041 29.4541C48.5041 30.636 48.5041 31.8169 48.5041 32.9968C48.5041 33.714 48.2172 34.0969 47.6923 34.0869C47.1673 34.0769 46.8962 33.6925 46.8948 32.9681C46.8948 31.9512 46.8948 30.9329 46.8948 29.8801H28.5516V32.2237C28.5516 32.5278 28.5588 32.8319 28.5516 33.136C28.5315 33.7298 28.2332 34.0812 27.7556 34.0855C27.278 34.0898 26.9552 33.7427 26.9466 33.1503C26.9323 32.2381 26.9466 31.3259 26.9466 30.4137C26.938 30.2487 26.9395 30.0895 26.9395 29.8615Z" fill="white"/>
<path id="Vector_6" d="M16.8247 8.26261C16.36 8.26261 15.8953 8.27552 15.432 8.26261C14.9214 8.24539 14.6073 7.93272 14.6059 7.47231C14.6024 7.36441 14.6213 7.25695 14.6614 7.15672C14.7015 7.05648 14.7619 6.96564 14.8388 6.88991C14.9158 6.81418 15.0076 6.75521 15.1084 6.71671C15.2093 6.67822 15.317 6.66103 15.4249 6.66624C16.3528 6.64616 17.2894 6.64472 18.2103 6.66624C18.3179 6.66526 18.4246 6.68587 18.5241 6.72686C18.6236 6.76786 18.7138 6.82839 18.7895 6.90488C18.8652 6.98138 18.9248 7.07228 18.9648 7.17221C19.0047 7.27214 19.0242 7.37906 19.0221 7.48665C19.0063 7.92842 18.6707 8.23249 18.1615 8.26117H16.8219L16.8247 8.26261Z" fill="white"/>
<path id="Vector_7" d="M38.6894 8.26441C38.2247 8.26441 37.76 8.27589 37.2967 8.26441C36.8033 8.24577 36.4634 7.90584 36.4648 7.46695C36.4648 7.25655 36.5478 7.05464 36.6958 6.90506C36.8438 6.75548 37.0448 6.67031 37.2551 6.66804C38.1999 6.64223 39.146 6.64223 40.0936 6.66804C40.2017 6.66532 40.3092 6.68531 40.4091 6.72671C40.509 6.76812 40.5991 6.83002 40.6736 6.90842C40.748 6.98682 40.8053 7.07998 40.8415 7.18187C40.8777 7.28376 40.8922 7.39211 40.8839 7.49993C40.8681 7.96034 40.5569 8.24864 40.0319 8.26441C39.5816 8.27445 39.1341 8.26441 38.6894 8.26441Z" fill="white"/>
<path id="Vector_8" d="M16.5406 2.34435C17.1502 2.48778 17.8186 2.6097 18.4654 2.80189C18.5631 2.82371 18.6551 2.86573 18.7355 2.92524C18.816 2.98475 18.8831 3.06044 18.9325 3.14744C18.982 3.23444 19.0127 3.33082 19.0226 3.43039C19.0326 3.52996 19.0216 3.63051 18.9904 3.72558C18.8842 4.15587 18.5601 4.4126 18.1183 4.33802C17.4506 4.22534 16.7897 4.07497 16.139 3.88765C15.7001 3.76287 15.5179 3.4043 15.6155 2.96253C15.713 2.52077 16.0372 2.32284 16.5406 2.34435Z" fill="white"/>
<path id="Vector_9" d="M38.9769 2.33423C39.4976 2.35287 39.7945 2.55368 39.8791 2.97536C39.9637 3.39704 39.8017 3.75131 39.3871 3.87036C38.704 4.07252 38.0083 4.22968 37.3046 4.34081C36.8915 4.40248 36.5874 4.12853 36.4942 3.71258C36.4009 3.29664 36.5673 2.95815 36.9402 2.84053C37.6316 2.62252 38.3516 2.48483 38.9769 2.33423Z" fill="white"/>
<path id="Vector_10" d="M18.0234 10.5965C18.5971 10.5836 18.884 10.793 18.9901 11.2075C19.0963 11.622 18.9141 11.9863 18.5154 12.1054C17.8326 12.3059 17.1374 12.4616 16.4342 12.5715C16.0154 12.6389 15.7056 12.3965 15.6152 11.972C15.5249 11.5474 15.6741 11.1903 16.0871 11.067C16.767 10.8619 17.4626 10.7285 18.0234 10.5965Z" fill="white"/>
<path id="Vector_11" d="M37.5034 10.6035C38.0441 10.7326 38.7283 10.8646 39.3924 11.0625C39.8055 11.1859 39.9661 11.5459 39.8743 11.9618C39.7825 12.3778 39.4827 12.6374 39.0639 12.5714C38.3605 12.4623 37.6649 12.308 36.9813 12.1096C36.5797 11.9919 36.3961 11.6377 36.4951 11.216C36.5941 10.7943 36.9067 10.5677 37.5034 10.6035Z" fill="white"/>
</g>
</g>
</svg>
