<svg width="75" height="81" viewBox="0 0 75 81" fill="none" xmlns="http://www.w3.org/2000/svg">
<g id="Group 209">
<g id="Capa 2">
<g id="Capa 1">
<path id="Vector" d="M11.7299 80.0077C10.3492 79.405 9.8827 78.328 9.82321 76.8518C9.6244 71.9348 9.32541 67.0225 9.06241 62.1101C9.04404 61.9981 9.01895 61.8873 8.98727 61.7782C8.33605 61.7782 7.66761 61.7782 6.9976 61.7782C4.49291 61.7782 3.30318 60.5885 3.30161 58.1042C3.30161 55.1909 3.30161 52.276 3.30161 49.3784C0.925279 48.4533 -0.0218086 46.1442 1.0239 43.7914C1.51388 42.6815 2.42027 42.1492 3.63192 42.1477C5.42904 42.1477 7.22616 42.1477 9.02328 42.1477H9.96254V41.2084C9.96254 38.5002 9.96254 35.792 9.96254 33.0838C9.9735 29.6211 11.5389 27.359 14.7841 26.1035C17.0874 25.2112 19.3906 24.3195 21.6939 23.4282C22.414 23.148 22.6676 22.0992 22.0868 21.5497C20.9563 20.5356 20.1618 19.201 19.8091 17.7238C19.759 17.514 19.4647 17.2886 19.2346 17.2056C16.5014 16.2209 15.6685 13.5754 17.2982 11.1787C17.5424 10.8218 17.5267 10.2394 17.5236 9.76979C17.5111 7.12733 18.322 4.80736 20.1582 2.88187C21.5271 1.44971 23.3166 0.490737 25.2671 0.143968C27.2177 -0.2028 29.228 0.0806596 31.0067 0.953255C31.3777 1.13485 31.8379 1.15363 32.259 1.1959C32.5721 1.22564 32.8852 1.15207 33.1983 1.15207C45.5955 1.15207 57.9922 1.15207 70.3883 1.15207C70.909 1.13877 71.4293 1.18818 71.9381 1.29922C73.3689 1.67336 74.3739 2.97267 74.3849 4.55376C74.4099 8.69433 74.4006 12.8349 74.3849 16.9755C74.3849 17.8302 73.9153 18.3296 73.1983 18.3186C72.4813 18.3077 72.0524 17.8067 72.0508 16.9379C72.0435 12.9795 72.0435 9.02099 72.0508 5.06252C72.0508 3.81957 71.7628 3.51118 70.5543 3.50961C58.6778 3.50961 46.8019 3.50961 34.9265 3.50961C34.7481 3.50961 34.5712 3.5284 34.3849 3.53779C34.8545 4.97329 35.1175 5.16584 36.5405 5.16584H67.9494C69.8201 5.16584 70.3836 5.72157 70.3836 7.57505C70.3836 15.803 70.3836 24.0314 70.3836 32.2604C70.3836 34.0857 69.7888 34.6727 67.9463 34.6743H43.9387V36.2976H70.4228C71.8145 36.2976 72.0524 36.0581 72.0524 34.6633C72.0524 30.8614 72.0524 27.0595 72.0524 23.2576C72.039 22.9963 72.0495 22.7343 72.0837 22.4749C72.1995 21.8565 72.6097 21.5059 73.2249 21.5027C73.8057 21.5027 74.208 21.8315 74.3442 22.4075C74.3904 22.6657 74.4072 22.9283 74.3943 23.1903C74.3943 27.0715 74.3943 30.9517 74.3943 34.8308C74.3943 37.3183 73.0778 38.6427 70.5934 38.6442C62.0263 38.6442 53.4582 38.6442 44.889 38.6442H43.9387V42.1492H46.7753C47.9212 42.1492 49.0687 42.1273 50.2193 42.1586C51.9303 42.204 52.9729 43.2623 53.023 44.9592C53.0324 45.2973 53.023 45.637 53.023 45.9752C53.023 47.9821 52.4892 48.7131 50.5183 49.3565V52.9132C50.5183 54.7369 50.5277 56.5591 50.5183 58.3828C50.5042 60.5337 49.2863 61.7516 47.1228 61.7876C46.5765 61.797 46.027 61.8189 45.4838 61.7876C44.9406 61.7563 44.7559 61.9238 44.7293 62.4764C44.5305 66.7673 44.3035 71.0581 44.0812 75.3474C44.0515 75.9188 43.9622 76.4918 43.9826 77.0616C44.0327 78.5127 43.3987 79.4911 42.0587 80.0249H29.233C29.2017 79.9858 29.1783 79.9342 29.136 79.9091C28.61 79.596 28.3423 79.1483 28.5255 78.5347C28.718 77.8866 29.2236 77.6799 29.8577 77.6799C33.4519 77.6799 37.0461 77.6799 40.6404 77.6799H41.5984C41.8786 72.3418 42.1526 67.1211 42.4281 61.8581H11.4419C11.4325 62.0491 11.4153 62.179 11.4231 62.3058C11.6814 67.2369 11.9506 72.1806 12.1886 77.1179C12.2183 77.7363 12.5799 77.6721 12.9713 77.6721C16.5405 77.6721 20.1081 77.6721 23.6773 77.6721C24.3379 77.6721 24.9453 77.741 25.2224 78.4548C25.4995 79.1687 25.0377 79.6164 24.5367 80.0203L11.7299 80.0077ZM36.2493 7.5453C36.2493 8.62858 36.2337 9.63985 36.2634 10.6511C36.2985 10.8778 36.398 11.0897 36.5499 11.2616C37.8695 13.0071 37.605 15.1048 35.9128 16.5356C35.6772 16.7485 35.5326 17.0439 35.5089 17.3606C35.476 19.6258 35.5089 21.891 35.4791 24.1561C35.4791 24.6038 35.6357 24.7995 36.0317 24.9389C37.2277 25.3756 38.4237 25.8218 39.5978 26.3133C41.9162 27.2823 43.2922 29.0513 43.7431 31.4965C43.8636 32.1461 44.0421 32.3402 44.7074 32.3371C52.2089 32.3121 59.7089 32.3214 67.2105 32.3214H67.9932V7.5453H36.2493ZM48.1607 49.3503H5.64507V57.9351C5.64507 59.3315 5.75621 59.441 7.16041 59.441H46.6986C46.9068 59.441 47.115 59.441 47.3248 59.4332C47.8523 59.4113 48.1592 59.1452 48.1607 58.6082C48.1639 55.5353 48.1607 52.4655 48.1607 49.3503ZM41.5233 42.0992C41.5233 38.8117 41.5608 35.6057 41.5061 32.4091C41.4794 30.9141 40.7938 29.6054 39.471 28.926C37.7803 28.0572 35.9644 27.4326 34.233 26.7156C34.1716 26.793 34.1141 26.8734 34.0608 26.9567C33.5234 28.0254 32.9875 29.094 32.4531 30.1627C31.6516 31.7641 31.3495 31.927 29.3927 31.6624C29.806 35.1705 30.2146 38.6255 30.6247 42.0992H35.8267V34.6618C35.8186 34.4278 35.8254 34.1936 35.847 33.9605C35.9472 33.2404 36.4732 32.7598 37.0994 32.8349C37.7991 32.9179 38.1639 33.3499 38.167 34.0481C38.1779 36.4417 38.167 38.8352 38.1779 41.2288C38.1779 41.5059 38.2014 41.7829 38.2139 42.0992H41.5233ZM17.9807 42.143C19.6416 42.143 21.1992 42.1618 22.7553 42.1164C22.9353 42.1164 23.2249 41.7563 23.2578 41.5372C23.6491 38.519 24.0076 35.4961 24.3536 32.4733C24.3849 32.1993 24.3051 31.9113 24.2753 31.606C22.8101 32.0068 22.1651 31.725 21.5483 30.5008C20.9221 29.2485 20.296 27.9961 19.651 26.725C18.0417 27.3512 16.4685 27.8975 14.9547 28.5754C13.3642 29.2876 12.3843 30.5603 12.3498 32.3324C12.2856 35.5055 12.3185 38.6818 12.317 41.8565C12.3354 41.9383 12.3672 42.0166 12.4109 42.0882H15.6325V34.9498C15.6325 34.6367 15.6169 34.3236 15.6325 34.0105C15.6889 33.2826 16.1773 32.8067 16.8254 32.8224C17.4516 32.8365 17.8993 33.292 17.9588 33.9871C17.9823 34.2454 17.9682 34.5068 17.9682 34.7698L17.9807 42.143ZM26.8896 46.9332H44.1532C46.0536 46.9332 47.9541 46.9332 49.8561 46.9238C50.0987 46.9238 50.5433 46.8315 50.5527 46.7469C50.6415 46.0844 50.6468 45.4133 50.5684 44.7494C50.548 44.6148 49.8999 44.5005 49.5414 44.5005C34.4653 44.488 19.3891 44.4844 4.31288 44.4896C4.1041 44.4803 3.89495 44.4845 3.68671 44.5021C3.53956 44.5209 3.28282 44.5882 3.27813 44.6586C3.19641 45.3176 3.17859 45.9828 3.2249 46.6452C3.23899 46.7751 3.83073 46.927 4.15634 46.927C11.7341 46.9384 19.3118 46.9405 26.8896 46.9332ZM31.7565 13.901H31.816C31.816 13.4313 31.7644 12.9617 31.827 12.4921C31.96 11.5012 31.6047 10.7701 30.8877 10.0907C30.4807 9.70717 30.2271 9.69308 29.7637 9.93416C27.5424 11.1466 25.0868 11.8683 22.5627 12.0506C22.1495 12.0772 21.9522 12.2072 21.9616 12.6518C21.9882 13.9041 21.9287 15.1564 22.0007 16.3963C22.1573 19.0074 24.2393 20.8844 26.9444 20.911C29.5133 20.936 31.5029 19.1483 31.7377 16.5403C31.8176 15.6683 31.7565 14.7839 31.7565 13.901ZM33.6961 9.72908L33.8996 9.61481C33.8026 7.03027 32.8664 4.83553 30.5824 3.43917C28.0355 1.89252 25.4024 1.95513 22.9384 3.61449C20.811 5.04687 19.8717 7.16177 19.8984 9.72908C23.2453 9.9185 26.3245 9.29389 29.1657 7.62201C30.4885 6.83929 31.1225 6.94261 32.1651 8.07755C32.6723 8.62963 33.1805 9.18014 33.6898 9.72908H33.6961ZM28.2703 42.1054C27.9118 39.1546 27.5706 36.3008 27.2105 33.4486C27.1823 33.2357 27.0226 33.0384 26.9256 32.8333C26.8144 33.0337 26.6313 33.2231 26.6031 33.4345C26.3777 35.1314 26.1773 36.8315 25.9769 38.5315C25.8407 39.7056 25.7171 40.8797 25.5824 42.1054H28.2703ZM26.9334 26.3509C27.6817 25.2253 28.7196 24.4113 29.2268 23.2059H24.4538C25.2318 24.3393 26.0771 25.2801 26.9334 26.3509ZM32.0461 25.7137C31.42 25.6903 30.7656 25.4695 30.5198 25.6934C29.8076 26.3415 29.2675 27.168 28.6116 27.968L30.3163 29.1765L32.0461 25.7137ZM25.2005 27.9633C24.7042 27.3465 24.2534 26.7798 23.7916 26.2194C23.0214 25.2707 23.0198 25.2723 21.899 25.9642C22.425 27.0146 22.9525 28.0666 23.5067 29.1765L25.2005 27.9633ZM33.1091 20.0171C32.6097 20.5603 32.187 21.0096 31.7722 21.4683C31.3573 21.927 31.3793 23.0854 31.8426 23.303C32.2324 23.4861 32.6457 23.6161 33.1091 23.7976V20.0171ZM34.1955 14.8402C34.8076 14.4614 35.1347 14.0575 35.0126 13.5033C34.9234 13.0963 34.6244 12.7347 34.4209 12.3528L34.1955 12.4655V14.8402ZM19.5743 12.4921L19.233 12.4028C19.0765 12.8521 18.8151 13.3045 18.8198 13.7523C18.8198 14.0857 19.1783 14.4144 19.3771 14.7463L19.5727 14.6305L19.5743 12.4921ZM26.0583 30.3913H27.7036C27.0007 29.5162 26.9272 29.5131 26.0583 30.3913Z" fill="white"/>
<path id="Vector_2" d="M57.7428 19.9783C57.74 21.8223 57.1907 23.6242 56.1644 25.1562C55.138 26.6882 53.6806 27.8817 51.9762 28.5858C50.2719 29.2899 48.3971 29.4731 46.5887 29.1122C44.7803 28.7513 43.1195 27.8625 41.816 26.5582C40.5125 25.2538 39.6248 23.5923 39.2651 21.7837C38.9054 19.9751 39.0899 18.1004 39.7951 16.3965C40.5004 14.6927 41.6948 13.236 43.2275 12.2107C44.7603 11.1854 46.5625 10.6373 48.4065 10.6358C49.6337 10.6337 50.8492 10.874 51.9832 11.3428C53.1173 11.8117 54.1476 12.4999 55.0151 13.3679C55.8825 14.2359 56.57 15.2667 57.0381 16.4011C57.5062 17.5355 57.7457 18.7511 57.7428 19.9783ZM52.4047 25.6874C52.2152 25.4808 52.0509 25.2882 51.8724 25.1082C50.5887 23.8167 49.3192 22.508 48.0058 21.2463C47.7374 21.0033 47.5276 20.7027 47.392 20.3671C47.2565 20.0314 47.1987 19.6694 47.2231 19.3083C47.2638 17.9808 47.234 16.647 47.234 15.3258V13.1545C44.5055 13.5365 42.27 15.6592 41.6078 18.4316C40.9676 21.1038 42.1104 24.0406 44.4366 25.7031C46.7033 27.3264 49.8248 27.3499 52.4047 25.6874ZM49.6307 13.1733V18.7447H55.213C54.9454 16.0365 52.2935 13.3941 49.6307 13.1733ZM54.2566 23.9748C54.6276 23.0575 54.9923 22.1589 55.3868 21.1852H51.4403L54.2566 23.9748Z" fill="white"/>
<path id="Vector_3" d="M62.2365 16.5655C61.795 16.5655 61.352 16.5937 60.9137 16.5655C60.2359 16.5139 59.7396 16.0254 59.7709 15.4196C59.8038 14.7715 60.1686 14.3097 60.8198 14.2706C61.8029 14.208 62.789 14.208 63.7722 14.2706C64.4218 14.3144 64.8054 14.7856 64.7882 15.4353C64.7709 16.0849 64.3702 16.4951 63.7127 16.5546C63.2243 16.5984 62.728 16.5546 62.2365 16.5546V16.5655Z" fill="white"/>
<path id="Vector_4" d="M62.2844 25.6869C61.8147 25.6869 61.3451 25.7104 60.8864 25.6869C60.2133 25.6462 59.8188 25.2345 59.7906 24.5911C59.7624 23.9477 60.1178 23.4593 60.7894 23.4233C61.7963 23.3693 62.8053 23.3693 63.8122 23.4233C64.4478 23.4562 64.7906 23.9243 64.7922 24.5301C64.7922 25.1719 64.4321 25.6134 63.7559 25.6697C63.2674 25.7089 62.7728 25.6775 62.2812 25.6775L62.2844 25.6869Z" fill="white"/>
<path id="Vector_5" d="M62.2814 21.1099C61.7883 21.1099 61.2936 21.1412 60.8052 21.1005C60.1696 21.0489 59.8159 20.6309 59.7798 20.0266C59.747 19.4537 60.0381 18.9308 60.6221 18.8948C61.7279 18.815 62.8381 18.815 63.9439 18.8948C64.5278 18.9371 64.8159 19.4537 64.7814 20.0282C64.7454 20.6372 64.3916 21.0489 63.7576 21.1021C63.2708 21.1475 62.7761 21.1099 62.2814 21.1099Z" fill="white"/>
</g>
</g>
</g>
</svg>
