<svg width="80" height="80" viewBox="0 0 80 80" fill="none" xmlns="http://www.w3.org/2000/svg">
<g id="Group 75">
<g id="Group 71">
<g id="Capa 1">
<path id="Vector" d="M2.83848 79.9998C1.37867 79.3755 0.89363 78.2506 0.940569 76.7C1.0188 74.2576 1.01254 71.8089 0.949957 69.3634C0.860772 65.9822 3.02155 63.2769 6.11329 62.7199C6.23794 62.6883 6.3607 62.6496 6.48098 62.6041C5.12443 60.8126 4.57524 58.8599 5.13382 56.6585C5.50828 55.1276 6.41366 53.7793 7.68888 52.8533C10.136 51.0304 13.6783 51.1885 15.9815 53.2225C18.6555 55.5695 18.9293 58.8192 16.7341 62.6479C18.474 62.9421 19.9244 63.726 21.0431 65.2093C22.201 63.8167 23.6013 62.892 25.4945 62.6651C24.1177 60.955 23.6013 59.0993 23.9862 57.0465C24.2746 55.4148 25.1688 53.9523 26.4897 52.9518C27.7205 52.0133 29.2391 51.5314 30.7859 51.5885C32.3327 51.6456 33.8117 52.2381 34.97 53.2648C37.6174 55.6258 37.874 58.9178 35.6585 62.6385C37.3937 62.9358 38.8457 63.7119 39.9785 65.2046C41.1269 63.8089 42.532 62.903 44.4111 62.6495C42.9701 60.8032 42.4396 58.813 43.0139 56.6021C43.3994 55.0722 44.3153 53.7288 45.5987 52.811C48.0786 50.996 51.6695 51.2088 53.957 53.3023C56.5637 55.6884 56.8078 58.971 54.5985 62.6338C56.3287 62.891 57.8889 63.8169 58.9435 65.2124C59.468 64.5159 60.1252 63.9301 60.8771 63.4886C61.6289 63.0471 62.4607 62.7588 63.3245 62.6401C61.9398 60.8126 61.3703 58.8646 61.9336 56.6694C62.3048 55.1379 63.2053 53.7868 64.4761 52.8548C66.9498 51.0101 70.5469 51.1869 72.836 53.2585C75.4709 55.6446 75.7259 58.8083 73.6809 62.4007C74.7918 63.0266 75.9872 63.5288 76.9886 64.2892C78.2622 65.2562 78.838 66.7019 79.007 68.2869C79.0868 69.0348 78.7081 69.5824 78.0791 69.6951C77.386 69.8124 76.865 69.4166 76.6975 68.6421C76.1139 65.9478 74.8998 64.962 72.1507 64.9605C69.5753 64.9605 66.9999 64.9527 64.4229 64.9605C61.6738 64.9699 60.1217 66.5251 60.1154 69.2632C60.1092 72.0014 60.1154 74.7739 60.1154 77.5903H62.3059C62.3059 76.1524 62.3059 74.7286 62.3059 73.3047C62.3059 72.6288 62.2856 71.9513 62.3216 71.2707C62.3576 70.5901 62.7362 70.202 63.4012 70.1582C64.0662 70.1144 64.473 70.4993 64.6075 71.1377C64.6476 71.3964 64.6607 71.6586 64.6467 71.92C64.6467 73.7976 64.6467 75.6642 64.6467 77.595H72.1679V76.6359C72.1679 74.9711 72.1679 73.3047 72.1679 71.6399C72.1679 70.6714 72.6263 70.1316 73.3789 70.152C74.1002 70.1739 74.5023 70.6886 74.5039 71.6337C74.5039 73.6067 74.5039 75.5797 74.5039 77.6028H76.6944C76.6944 76.6359 76.6944 75.6611 76.6944 74.6847C76.6944 73.4471 77.0997 72.8494 77.9133 72.8776C78.6956 72.9057 79.0367 73.4487 79.0367 74.6816C79.0367 75.3841 78.9882 76.0898 79.0476 76.7876C79.1775 78.3241 78.5782 79.3943 77.1513 79.9951L2.83848 79.9998ZM34.3223 77.631V72.0358C34.3223 71.8543 34.3223 71.6712 34.3223 71.4897C34.3645 70.6495 34.7619 70.1801 35.4394 70.1582C36.1513 70.1348 36.6348 70.6167 36.6489 71.485C36.6786 73.2531 36.6583 75.0243 36.663 76.7939C36.663 77.0661 36.6864 77.3399 36.699 77.5965H38.7737C38.8047 77.4796 38.8261 77.3603 38.8378 77.2398C38.8378 74.4813 38.8926 71.7213 38.8269 68.9644C38.769 66.4844 37.1762 64.9886 34.6853 64.9683C31.98 64.9464 29.2732 64.9558 26.5663 64.9683C23.7953 64.9777 22.237 66.5517 22.2307 69.3493C22.2244 71.8214 22.2244 74.2936 22.2307 76.7657C22.2307 77.0442 22.2573 77.3212 22.2729 77.6247H24.4149V76.822C24.4149 75.1307 24.4149 73.4393 24.4149 71.7479C24.4149 70.7027 24.8468 70.1551 25.6197 70.1676C26.3614 70.1786 26.7494 70.6965 26.7541 71.7104C26.7541 73.142 26.7541 74.5737 26.7541 76.0037V77.6404L34.3223 77.631ZM43.38 77.631V76.7923C43.38 75.2058 43.38 73.6187 43.38 72.0311C43.38 71.8214 43.3722 71.6133 43.38 71.4052C43.4363 70.6323 43.8494 70.177 44.5034 70.1535C45.1856 70.1332 45.6832 70.5979 45.6988 71.4052C45.7348 73.1999 45.7129 74.9961 45.7176 76.7923C45.7176 77.0646 45.7442 77.3368 45.7567 77.5919H53.2576V76.3683C53.2576 74.7035 53.2576 73.0372 53.2576 71.3724C53.2576 70.6808 53.6159 70.2365 54.3231 70.1582C54.9803 70.0878 55.4841 70.5447 55.5748 71.2754C55.5986 71.5605 55.6044 71.8469 55.5921 72.1328C55.5921 73.9457 55.5921 75.7633 55.5921 77.5856H57.7826V76.8283C57.7826 74.3045 57.7826 71.7808 57.7826 69.2554C57.7826 66.5658 56.207 64.9746 53.5283 64.9589C50.8496 64.9433 48.1678 64.9495 45.4876 64.9589C42.7448 64.9683 41.2004 66.5236 41.1895 69.2711C41.1785 71.7964 41.1895 74.3202 41.1895 76.844C41.1895 77.0943 41.2239 77.3431 41.2443 77.6185L43.38 77.631ZM19.8462 77.6388C19.8634 77.3384 19.8884 77.1099 19.8884 76.8815C19.8884 74.3077 19.9009 71.7323 19.8884 69.1584C19.8728 66.5533 18.3081 64.9839 15.7077 64.9667C12.9779 64.949 10.2471 64.949 7.51521 64.9667C4.88504 64.9839 3.3157 66.5815 3.30788 69.2179C3.30788 71.7672 3.30788 74.316 3.30788 76.8643C3.30788 77.1115 3.33291 77.3603 3.34699 77.6138H5.49369V76.7297C5.49369 75.0086 5.48586 73.2969 5.49369 71.5805C5.49369 70.6746 5.96308 70.1441 6.68438 70.1567C7.38378 70.1692 7.81249 70.6793 7.8297 71.5445C7.84222 72.064 7.8297 72.585 7.8297 73.1091V77.6059H15.3243C15.3384 77.4354 15.3588 77.3102 15.3588 77.185C15.3588 75.3075 15.3494 73.4393 15.3682 71.5664C15.3775 70.6433 15.8376 70.1348 16.5745 70.1582C17.2755 70.1754 17.6901 70.673 17.701 71.5539C17.7136 72.6992 17.701 73.843 17.701 74.9867V77.6325L19.8462 77.6388ZM26.2268 58.2372C26.2134 59.3829 26.6546 60.4872 27.4537 61.3084C28.2528 62.1295 29.3448 62.6005 30.4905 62.6182C32.8374 62.6761 34.8355 60.7265 34.8715 58.3592C34.8869 57.787 34.7884 57.2174 34.5819 56.6836C34.3753 56.1497 34.0648 55.6622 33.6682 55.2494C33.2717 54.8365 32.7971 54.5066 32.272 54.2787C31.7469 54.0508 31.1817 53.9295 30.6094 53.9218C30.037 53.9141 29.4688 54.0203 28.9378 54.234C28.4068 54.4478 27.9235 54.7649 27.516 55.1669C27.1086 55.569 26.7851 56.048 26.5643 56.5762C26.3435 57.1043 26.2299 57.671 26.2299 58.2435L26.2268 58.2372ZM15.9486 58.2669C15.9301 57.1297 15.4661 56.0451 14.6563 55.2464C13.8465 54.4477 12.7557 53.9987 11.6183 53.9958C10.4809 53.9929 9.38779 54.4365 8.574 55.2311C7.7602 56.0257 7.2907 57.1079 7.26643 58.245C7.2367 60.6123 9.26604 62.6417 11.6349 62.6135C12.7811 62.5959 13.8747 62.1298 14.6811 61.3152C15.4876 60.5005 15.9426 59.4023 15.9486 58.256V58.2669ZM68.4597 53.9376C67.315 53.9393 66.2163 54.3881 65.3978 55.1885C64.5794 55.9888 64.106 57.0772 64.0787 58.2215C64.0286 60.5795 66.0486 62.6182 68.4284 62.6135C69.5724 62.6002 70.6661 62.141 71.4767 61.3336C72.2873 60.5262 72.7509 59.4344 72.7687 58.2904C72.7844 55.9356 70.816 53.9485 68.4597 53.9266V53.9376ZM53.8131 58.256C53.8173 57.6814 53.7071 57.1117 53.489 56.5801C53.2708 56.0486 52.949 55.5657 52.5424 55.1598C52.1357 54.7539 51.6523 54.4329 51.1203 54.2157C50.5883 53.9985 50.0185 53.8894 49.4439 53.8947C48.8693 53.9 48.3015 54.0196 47.7737 54.2466C47.2458 54.4736 46.7684 54.8033 46.3693 55.2167C45.9702 55.6301 45.6573 56.1187 45.449 56.6542C45.2407 57.1897 45.141 57.7614 45.1559 58.3358C45.1872 60.6999 47.1805 62.6526 49.5259 62.6119C50.6718 62.5959 51.765 62.1281 52.5678 61.3103C53.3706 60.4926 53.8181 59.391 53.8131 58.245V58.256Z" fill="white"/>
<path id="Vector_2" d="M22.2818 44.7188H7.68208C5.99539 44.7188 5.25062 43.9928 5.25218 42.3108C5.25218 39.0063 5.19429 35.6987 5.31477 32.3988C5.42117 29.5058 7.05466 27.5484 9.66292 26.461C12.0819 25.4471 14.5509 24.5537 16.9964 23.6055C17.7365 23.3192 18.0213 22.2896 17.4423 21.7608C16.2638 20.7222 15.4344 19.3453 15.0672 17.8179C15.0218 17.6317 14.7543 17.4252 14.5524 17.3594C11.6469 16.4207 10.9084 13.2069 12.5998 11.2182C12.8736 10.8959 12.8125 10.2372 12.8079 9.73494C12.7828 6.80905 13.792 4.31188 16.0154 2.41083C18.9413 -0.0925995 22.299 -0.690294 25.8413 0.824282C29.3837 2.33886 31.2941 5.18495 31.5648 9.07465C31.5879 9.38708 31.5905 9.70068 31.5726 10.0134C31.5272 10.5772 31.699 11.137 32.053 11.5781C33.5597 13.5918 32.5224 16.4598 30.019 17.2843C29.5245 17.4408 29.3258 17.688 29.21 18.1668C28.9393 19.396 28.2904 20.5094 27.3544 21.3509C26.741 21.8875 26.8975 22.5243 26.9397 23.1408C26.9522 23.3098 27.3325 23.5007 27.5765 23.5961C29.9924 24.549 32.4269 25.4518 34.8349 26.4297C37.6278 27.5625 39.2394 29.6435 39.3286 32.6805C39.424 36.0084 39.3724 39.3411 39.3505 42.6723C39.3411 43.949 38.5025 44.722 37.1991 44.7235C32.2194 44.7256 27.2469 44.724 22.2818 44.7188ZM15.0062 26.8819C13.3336 27.5375 11.6844 28.096 10.1151 28.8283C8.65842 29.5074 7.71963 30.7278 7.67739 32.3753C7.59602 35.6251 7.62575 38.8764 7.6148 42.1278C7.6148 42.1966 7.67113 42.2639 7.70398 42.3359H10.9663V41.4628C10.9663 39.1158 10.9663 36.7783 10.9663 34.436C10.9663 33.5394 11.4654 32.9902 12.1804 33.0278C12.8704 33.0544 13.296 33.5754 13.3007 34.4485C13.3101 36.2963 13.3007 38.1442 13.3007 39.992V42.3187H18.5798C18.9287 38.7951 19.5045 35.356 19.7471 31.8355C17.9634 32.1688 17.5346 31.9529 16.7961 30.4806L15.0062 26.8819ZM31.2785 42.3453V34.871C31.2785 34.6879 31.2707 34.5048 31.2785 34.3233C31.3301 33.5301 31.7948 33.0184 32.4535 33.0184C33.1123 33.0184 33.6051 33.5347 33.6098 34.3233C33.6255 36.7172 33.6176 39.1127 33.6176 41.5066V42.3124H36.9957C36.9957 39.0783 37.0333 35.8974 36.9801 32.7352C36.9519 31.0219 36.1508 29.6341 34.594 28.8924C32.9871 28.1273 31.2894 27.5515 29.5871 26.8756C28.9738 28.1039 28.3933 29.2617 27.8128 30.4211C27.0539 31.9404 26.655 32.1422 24.7774 31.8293C25.1936 35.3701 25.6035 38.8483 26.015 42.3453H31.2785ZM17.2593 12.2243C17.2593 13.731 17.1623 15.1643 17.2796 16.5803C17.5065 19.2934 19.5124 21.0911 22.1957 21.1349C24.7711 21.1741 26.7989 19.37 27.0837 16.6601C27.2167 15.3989 27.0367 14.1034 27.1901 12.847C27.3622 11.4388 26.7207 10.536 25.6677 9.71772C23.0886 11.1739 20.2147 12.0306 17.2593 12.2243ZM15.1783 9.84133C18.5345 10.0087 21.6325 9.37194 24.4958 7.69307C25.8101 6.92483 26.4688 7.03123 27.4967 8.14995C28.0277 8.72678 28.5597 9.30049 29.0927 9.87106C29.2304 7.0813 28.2165 4.90331 25.9024 3.48261C23.3911 1.94144 20.7891 1.98681 18.3311 3.58432C16.1171 5.02535 15.1251 7.16735 15.1783 9.84133ZM23.6712 42.3359C23.3035 39.3036 22.9468 36.3214 22.5759 33.3423C22.5572 33.2015 22.3757 33.081 22.263 32.9496L22.0627 33.0137L20.9362 42.3327L23.6712 42.3359ZM19.8222 23.3317C20.5763 24.4958 21.4697 25.4315 22.2552 26.4532C23.7932 24.9918 24.5943 23.7729 24.4613 23.3317H19.8222ZM25.7271 29.3665L27.4999 25.8054C26.8161 25.8054 26.1762 25.6114 25.9258 25.8414C25.2139 26.4954 24.6632 27.3231 23.9998 28.1414L25.7271 29.3665ZM20.6029 28.1461C20.0678 27.4843 19.6109 26.921 19.1556 26.3546C18.4046 25.4158 18.3733 25.4158 17.2655 26.1355C17.7928 27.1854 18.3201 28.24 18.8818 29.3634L20.6029 28.1461ZM29.8453 12.4293L29.5543 12.5466V14.8247L29.7858 14.9296C29.9924 14.5337 30.3585 14.1378 30.3616 13.7389C30.3647 13.2992 30.0315 12.8658 29.8453 12.4293ZM14.8435 12.6092L14.5837 12.4809C14.4054 12.8861 14.083 13.2992 14.083 13.6951C14.083 14.0909 14.4163 14.4977 14.6025 14.8998L14.8372 14.8059L14.8435 12.6092ZM21.5073 30.5744H23.1017C22.3757 29.6904 22.1973 29.6904 21.5073 30.5744Z" fill="white"/>
<path id="Vector_3" d="M43.1058 18.4481C44.1416 17.1823 45.2071 15.9447 46.2054 14.6444C47.0174 13.5914 48.0172 13.1267 49.3581 13.1346C55.2396 13.169 61.1227 13.1502 67.0042 13.1486C68.658 13.1486 69.0664 12.7356 69.068 11.0645C69.068 8.80102 69.068 6.53698 69.068 4.27242C69.068 2.86424 68.5986 2.39484 67.2014 2.39484C63.4274 2.39484 59.654 2.39484 55.8812 2.39484C55.5955 2.41089 55.3089 2.39038 55.0284 2.33382C54.4651 2.17736 54.0615 1.7549 54.2007 1.19476C54.304 0.787954 54.7014 0.421827 55.0456 0.126109C55.2021 -0.00845055 55.5448 0.0572645 55.8045 0.0556999C59.6034 0.0556999 63.4029 0.0556999 67.2029 0.0556999C69.9113 0.0556999 71.4056 1.54681 71.4103 4.25208C71.4103 6.54115 71.3305 8.83649 71.4322 11.1209C71.5605 13.9372 69.6031 15.5566 67.0621 15.5238C61.2854 15.4487 55.5072 15.5238 49.7305 15.4784C48.8528 15.4784 48.2926 15.746 47.7685 16.4266C46.5606 17.9912 45.2822 19.5027 44.029 21.0329C43.8663 21.2354 43.6912 21.4277 43.5048 21.6087C43.2763 21.8444 42.9811 22.0045 42.6589 22.0677C42.3368 22.131 42.003 22.0942 41.7023 21.9623C41.0421 21.7057 40.6259 21.2206 40.6071 20.4915C40.5789 19.1663 40.5836 17.8316 40.5758 16.5111C40.5758 16.1981 40.5758 15.8993 40.5758 15.5003C39.6182 15.5003 38.742 15.5003 37.8658 15.5003C35.267 15.4862 33.7446 13.9717 33.7336 11.3759C33.7242 8.97678 33.7242 6.58235 33.7336 4.19262C33.743 1.57184 35.2529 0.0525706 37.8455 0.0478767C41.6976 0.0478767 45.5498 0.0291009 49.4004 0.0697817C49.8698 0.0697817 50.4597 0.276315 50.7569 0.603326C51.3515 1.25422 50.8336 2.26498 49.9042 2.36668C49.3834 2.40156 48.8611 2.40887 48.3396 2.38859C44.8786 2.38859 41.4171 2.38859 37.955 2.38859C36.5468 2.38859 36.0774 2.85798 36.0774 4.25208C36.0774 6.62095 36.0774 8.9893 36.0774 11.3571C36.0774 12.6464 36.5797 13.1346 37.8846 13.1455C38.8469 13.1455 39.8107 13.1455 40.7729 13.1455C42.0716 13.1596 42.868 13.9153 42.9087 15.2124C42.9431 16.2701 42.9087 17.3294 42.9087 18.3871L43.1058 18.4481Z" fill="white"/>
</g>
</g>
</g>
</svg>
