<svg width="55" height="56" viewBox="0 0 55 56" fill="none" xmlns="http://www.w3.org/2000/svg">
<g id="Social Icons">
<path id="Vector" d="M0 55.5L3.86604 41.3765C1.48042 37.2423 0.226875 32.5558 0.229167 27.7502C0.236042 12.726 12.4621 0.5 27.484 0.5C34.7738 0.502292 41.6167 3.34167 46.7638 8.49333C51.9085 13.645 54.741 20.4925 54.7388 27.7754C54.7319 42.8019 42.5058 55.0279 27.484 55.0279C22.9235 55.0256 18.4296 53.8821 14.449 51.7096L0 55.5ZM15.1181 46.7756C18.959 49.0558 22.6256 50.4217 27.4748 50.424C39.9598 50.424 50.1302 40.2627 50.1371 27.7708C50.1417 15.2537 40.0194 5.10625 27.4931 5.10167C14.999 5.10167 4.83542 15.2629 4.83083 27.7525C4.82854 32.8515 6.32271 36.6694 8.83208 40.6637L6.54271 49.0238L15.1181 46.7756ZM41.2133 34.254C41.0438 33.9698 40.59 33.8002 39.9071 33.4588C39.2265 33.1173 35.8783 31.4696 35.2527 31.2427C34.6294 31.0158 34.1756 30.9013 33.7196 31.5842C33.2658 32.2648 31.9596 33.8002 31.5631 34.254C31.1667 34.7077 30.7679 34.765 30.0873 34.4235C29.4067 34.0821 27.2113 33.3648 24.6102 31.0433C22.5867 29.2375 21.2185 27.0077 20.8221 26.3248C20.4256 25.6442 20.7808 25.2752 21.12 24.936C21.4271 24.6313 21.8006 24.1408 22.1421 23.7421C22.4881 23.3479 22.6004 23.0638 22.8296 22.6077C23.0565 22.154 22.9442 21.7552 22.7723 21.4138C22.6004 21.0746 21.2392 17.7219 20.6731 16.3583C20.1185 15.0315 19.5571 15.2102 19.14 15.1896L17.8338 15.1667C17.38 15.1667 16.6421 15.3363 16.0187 16.0192C15.3954 16.7021 13.6354 18.3475 13.6354 21.7002C13.6354 25.0529 16.076 28.291 16.4152 28.7448C16.7567 29.1985 21.2162 36.0781 28.0477 39.0275C29.6725 39.7288 30.9421 40.1481 31.9298 40.4621C33.5615 40.98 35.0465 40.9067 36.2198 40.7325C37.5283 40.5377 40.2485 39.0848 40.8169 37.4944C41.3852 35.9017 41.3852 34.5381 41.2133 34.254Z" fill="#0CB2D5"/>
</g>
</svg>
