<svg width="72" height="80" viewBox="0 0 72 80" fill="none" xmlns="http://www.w3.org/2000/svg">
<g id="Capa 3">
<g id="Capa 1">
<path id="Vector" d="M9.2829 80C7.44409 79.3739 6.71357 78.0777 6.77827 76.17C6.84715 74.1956 6.79288 72.2169 6.79288 70.1527C5.8453 70.1527 4.86223 70.1527 3.87081 70.1527C1.7711 70.1381 0.510436 68.9003 0.5 66.8132C0.5 65.1204 0.5 63.4277 0.5 61.7371C0.516698 59.3473 1.21173 58.4414 3.5139 57.8675C3.5139 55.7949 3.53478 53.7181 3.5139 51.6414C3.49512 50.22 3.96474 49.1117 5.25462 48.3958C5.34038 48.3214 5.40903 48.2294 5.45587 48.126C5.5027 48.0226 5.52661 47.9103 5.52596 47.7968C5.53848 45.6365 5.52596 43.4742 5.52596 41.3139C5.5054 41.0804 5.53021 40.8451 5.59901 40.621C5.7639 40.2202 5.67415 39.9698 5.35481 39.6776C4.68482 39.0681 4.41348 38.2708 4.41975 37.365C4.43018 35.4385 4.40931 33.512 4.41975 31.5855C4.43018 29.6591 5.6658 28.4172 7.61315 28.3859C9.35595 28.3546 11.1008 28.3859 12.8457 28.3859H27.7545C28.0664 28.3735 28.3786 28.3896 28.6875 28.4339C28.941 28.4853 29.1695 28.6215 29.3354 28.82C29.5012 29.0185 29.5946 29.2675 29.6002 29.5261C29.6058 29.7847 29.5232 30.0376 29.3661 30.243C29.209 30.4485 28.9866 30.5944 28.7355 30.6567C28.4029 30.7153 28.0649 30.7384 27.7274 30.7256H8.12242C6.84715 30.7256 6.76157 30.8154 6.75949 32.1157V36.5698C6.75949 38.2395 6.75949 38.2395 8.39585 38.2395H40.0293C41.1648 38.2395 41.3213 38.0767 41.3213 36.9225C41.3213 35.2291 41.3213 33.5364 41.3213 31.8443C41.3213 30.9239 41.1376 30.734 40.2297 30.7298C38.1717 30.7298 36.1158 30.7298 34.0579 30.7298C33.7996 30.7355 33.5412 30.7195 33.2856 30.6818C32.6595 30.5774 32.2984 30.1746 32.2963 29.5589C32.2963 28.9077 32.6657 28.4965 33.3399 28.4047C33.495 28.3866 33.6512 28.3789 33.8074 28.3817C35.9948 28.3817 38.1905 28.365 40.3695 28.3817C42.4296 28.4005 43.6673 29.6591 43.6736 31.7087C43.6736 33.583 43.6736 35.4573 43.6736 37.3316C43.6736 38.6402 43.6986 38.6194 44.2997 39.7339C44.5493 40.2427 44.7029 40.7932 44.7526 41.3578C44.7957 42.0011 44.8013 42.6465 44.7693 43.2905C46.2053 42.9044 47.5829 42.4327 48.998 42.1759C53.978 41.268 58.6158 42.201 62.8757 44.9498C63.7106 45.4862 63.9381 46.1291 63.552 46.7552C63.1345 47.419 62.475 47.467 61.5858 46.8993C53.3706 41.6583 42.678 44.2485 37.8774 52.6307C31.9415 63.0061 38.5912 76.1533 50.4695 77.5288C61.0244 78.7498 70.0348 70.0149 69.0997 59.4328C68.8307 56.2745 67.6583 53.2603 65.7226 50.7501C65.5807 50.5644 65.4242 50.389 65.3052 50.1908C64.9337 49.6022 65.0297 48.9823 65.5431 48.5941C65.6608 48.5002 65.7959 48.4306 65.9407 48.3895C66.0854 48.3484 66.237 48.3365 66.3864 48.3546C66.5358 48.3727 66.6801 48.4203 66.8109 48.4947C66.9417 48.5692 67.0564 48.6689 67.1482 48.7882C67.5224 49.2238 67.8709 49.681 68.1918 50.1574C76.1106 61.8143 69.1686 77.6561 55.2032 79.808C54.8484 79.8623 54.4956 79.9353 54.1429 80H50.6928C49.0397 79.5951 47.3888 79.186 45.7336 78.7936C45.5886 78.7875 45.4458 78.8309 45.3287 78.9168C44.7693 79.2695 44.2162 79.639 43.6589 80H9.2829ZM33.0769 60.3199C33.152 60.3199 33.0518 60.3053 32.9537 60.3053C23.2441 60.3053 13.5345 60.3053 3.8249 60.3053C3.1236 60.3053 2.84392 60.6184 2.85018 61.303C2.86688 63.0729 2.85018 64.8512 2.85018 66.6128C2.85018 67.6564 3.01507 67.8213 4.0858 67.8234C7.02734 67.8234 9.96889 67.8234 12.9104 67.8234C13.833 67.8234 14.3715 68.2408 14.3882 68.9567C14.4049 69.6726 13.8392 70.1548 12.8854 70.1631C12.0004 70.1631 11.1155 70.1631 10.2305 70.1631C9.34552 70.1631 9.14097 70.3843 9.13889 71.2818C9.13889 72.9989 9.13889 74.7167 9.13889 76.4351C9.13889 77.4787 9.333 77.6645 10.3662 77.6645H42.3002C42.5089 77.6645 42.7281 77.6332 43.085 77.606L42.2939 77.0947C39.7663 75.5161 37.6473 73.3628 36.1096 70.8101C36.0099 70.5923 35.8458 70.4102 35.6394 70.2885C35.433 70.1668 35.1943 70.1114 34.9554 70.1297C29.5913 70.1548 24.2293 70.1443 18.8673 70.1422C18.5815 70.1624 18.2944 70.1498 18.0115 70.1047C17.3854 69.9523 17.0201 69.5411 17.0744 68.8649C17.1266 68.2387 17.5106 67.886 18.1305 67.8108C18.3639 67.7938 18.598 67.7903 18.8318 67.8004H34.3563C33.9431 65.3417 33.5235 62.8976 33.0769 60.3199ZM25.1456 40.5834H9.2829C7.91788 40.5834 7.849 40.6523 7.849 41.9798V46.198C7.849 48.1077 7.849 48.1077 9.72748 48.1077C18.8673 48.1077 28.0071 48.0952 37.1448 48.1265C37.9797 48.1265 38.5725 47.9324 39.1005 47.2917C39.4627 46.8107 39.9185 46.4082 40.4405 46.1082C42.2501 45.2232 42.6634 43.7893 42.44 41.9171C42.296 40.7003 42.3085 40.5792 41.0792 40.5792L25.1456 40.5834ZM36.4164 50.5101C36.3044 50.4812 36.1908 50.4589 36.0762 50.4433C26.3137 50.4433 16.5533 50.4433 6.79497 50.4433C6.13333 50.4433 5.85156 50.7543 5.85365 51.3992C5.85365 53.0899 5.85365 54.7826 5.85365 56.4732C5.85365 57.8424 5.96218 57.9551 7.30216 57.9551H27.1305C29.057 57.9551 30.9834 57.9676 32.9078 57.9384C33.152 57.9384 33.5778 57.7422 33.607 57.5794C34.0817 55.0647 35.0354 52.6647 36.4164 50.5101Z" fill="white"/>
<path id="Vector_2" d="M38.7307 60.9586C38.691 53.4572 44.8253 47.2624 52.3391 47.2144C55.9736 47.2082 59.4627 48.641 62.0439 51.1996C64.6252 53.7581 66.0887 57.2345 66.1146 60.8688C66.1543 68.4036 59.9762 74.5963 52.4185 74.5984C48.7977 74.5945 45.3256 73.1578 42.7609 70.602C40.1961 68.0463 38.7472 64.5793 38.7307 60.9586ZM52.4498 72.2544C54.6934 72.2491 56.885 71.5789 58.7479 70.3286C60.6109 69.0782 62.0614 67.3038 62.9164 65.2295C63.7713 63.1552 63.9924 60.874 63.5515 58.6742C63.1107 56.4743 62.0278 54.4544 60.4396 52.8697C58.8513 51.285 56.8291 50.2065 54.6283 49.7705C52.4274 49.3346 50.1467 49.5606 48.0743 50.4201C46.0019 51.2797 44.2307 52.7341 42.9845 54.5998C41.7383 56.4655 41.0729 58.6586 41.0725 60.9022C41.0775 63.9158 42.2785 66.8042 44.4118 68.9328C46.5451 71.0614 49.4362 72.2561 52.4498 72.2544Z" fill="white"/>
<path id="Vector_3" d="M55.2474 16.8312L45.7152 5.37456L36.2456 16.7477C36.5483 16.7832 36.7361 16.827 36.9219 16.827C38.145 16.827 39.3702 16.827 40.5933 16.827C41.52 16.8395 41.9374 17.2444 41.9416 18.1607C41.9541 20.3202 41.9541 22.4805 41.9416 24.6414C41.9416 25.4909 41.4824 26.0106 40.7811 26.0148C40.0798 26.019 39.6102 25.493 39.606 24.6498C39.5935 22.859 39.606 21.0661 39.606 19.1625C38.2326 19.1625 36.9156 19.1855 35.6007 19.1625C34.1856 19.1292 33.2943 18.1461 33.5135 16.8499C33.5842 16.4668 33.7508 16.1077 33.9977 15.8063C37.3609 11.7419 40.7407 7.68369 44.1373 3.63175C45.0431 2.55059 46.4019 2.54433 47.3057 3.63175C50.6994 7.68091 54.0807 11.7405 57.4494 15.8105C57.9963 16.4659 58.1444 17.2006 57.7896 17.9916C57.4348 18.7827 56.7711 19.1584 55.9237 19.173C54.5983 19.1939 53.2729 19.173 51.8161 19.173V20.1268C51.8161 26.0085 51.8161 31.8909 51.8161 37.774C51.829 38.0337 51.8221 38.294 51.7952 38.5526C51.7736 38.8167 51.6551 39.0634 51.4624 39.2453C51.2697 39.4272 51.0165 39.5314 50.7516 39.5377C50.4897 39.5787 50.222 39.5196 50.0016 39.3723C49.7812 39.225 49.6242 39.0002 49.5619 38.7425C49.4917 38.4658 49.4622 38.1803 49.4743 37.8951C49.4743 31.4401 49.4743 24.9851 49.4743 18.5301C49.4743 17.1735 49.8124 16.8395 51.1878 16.8353C52.4527 16.827 53.7259 16.8312 55.2474 16.8312Z" fill="white"/>
<path id="Vector_4" d="M5.11048 12.3645C6.40871 12.3645 7.49822 12.3541 8.58774 12.3645C9.63133 12.3645 10.0488 12.8028 10.0488 13.8506C10.0571 17.4155 10.0571 20.9812 10.0488 24.5475C10.0488 25.4617 9.6042 26.0085 8.89038 26.0085C8.13482 26.0231 7.71112 25.4951 7.70903 24.5099C7.70903 21.2852 7.70903 18.0584 7.70903 14.7001C6.53812 14.7001 5.41312 14.7001 4.27351 14.7001C3.43864 14.7001 2.81248 14.3578 2.44513 13.6085C2.04648 12.7736 2.29486 12.0556 2.86257 11.3794C5.49939 8.23329 8.13064 5.07815 10.7563 1.91397C11.0235 1.59254 11.2865 1.27112 11.5578 0.953863C12.6348 -0.310975 13.8412 -0.321411 14.8973 0.943427C16.9525 3.39796 19.0014 5.85737 21.0441 8.32165C21.9082 9.36524 22.7681 10.4088 23.6427 11.4399C24.1999 12.0953 24.3732 12.8175 24.0163 13.6085C23.6593 14.3996 22.9727 14.7231 22.119 14.7105C21.0337 14.6938 19.9483 14.7105 18.7795 14.7105V15.6331C18.7795 18.5218 18.7795 21.4111 18.7795 24.3012C18.7893 24.5864 18.764 24.8716 18.7044 25.1507C18.6354 25.4073 18.4793 25.632 18.2629 25.7863C18.0465 25.9405 17.7832 26.0147 17.518 25.9962C17.2529 25.9777 17.0025 25.8677 16.8096 25.6849C16.6167 25.5021 16.4933 25.2579 16.4606 24.9941C16.4432 24.8389 16.4362 24.6827 16.4398 24.5266C16.4398 20.9867 16.4398 17.4475 16.4398 13.9091C16.4398 12.7528 16.8301 12.3708 17.9864 12.3645C19.0467 12.3645 20.1069 12.3645 21.3572 12.3645L13.2359 2.59857L5.11048 12.3645Z" fill="white"/>
<path id="Vector_5" d="M51.1461 68.1719C50.3113 67.815 49.5327 67.5458 48.8085 67.1596C48.0362 66.7526 47.8192 66.0952 48.1489 65.4899C48.4975 64.8449 49.1925 64.6801 49.9564 65.1559C50.7641 65.6464 51.7217 65.8287 52.6531 65.6694C53.1216 65.6123 53.5567 65.3971 53.8864 65.0594C54.2162 64.7216 54.4209 64.2816 54.4669 63.8118C54.5629 62.8559 54.1726 62.3299 53.1185 61.8937C52.1355 61.4867 51.144 61.088 50.1965 60.6017C48.9901 59.9755 48.3326 58.9465 48.3556 57.5711C48.3806 56.11 48.9817 54.912 50.2862 54.2316C50.9499 53.8914 51.2526 53.5616 51.1879 52.7872C51.1721 52.6304 51.1899 52.4719 51.2402 52.3225C51.2905 52.1731 51.3722 52.0361 51.4796 51.9207C51.5871 51.8053 51.7179 51.7142 51.8634 51.6535C52.0089 51.5927 52.1657 51.5637 52.3233 51.5683C53.0058 51.5683 53.4692 52.0567 53.5047 52.8394C53.5047 52.9688 53.5047 53.1003 53.5047 53.2297C53.5047 53.3591 53.5193 53.5386 53.5276 53.7077C53.7775 53.7865 54.0227 53.8792 54.2623 53.9853C54.8655 54.29 55.0721 54.8097 54.8572 55.4234C54.6484 55.9994 54.1893 56.2582 53.5589 56.181C53.0513 56.103 52.5384 56.0653 52.0248 56.0683C51.2735 56.108 50.8664 56.5985 50.7141 57.3018C50.5617 58.0052 50.9896 58.4289 51.574 58.694C52.3525 59.0488 53.1394 59.389 53.9388 59.6979C55.644 60.3554 56.7189 61.4992 56.8087 63.3902C56.8523 64.293 56.6168 65.1874 56.1343 65.9518C55.6519 66.7162 54.9458 67.3135 54.112 67.6627C53.6111 67.8714 53.4859 68.1281 53.4859 68.6374C53.5151 69.6058 53.0497 70.1589 52.3129 70.1443C51.5761 70.1297 51.1795 69.5954 51.1566 68.6833C51.1628 68.46 51.1503 68.2638 51.1461 68.1719Z" fill="white"/>
</g>
</g>
</svg>
