<svg width="79" height="68" viewBox="0 0 79 68" fill="none" xmlns="http://www.w3.org/2000/svg">
<g id="Group 208">
<path id="Vector" d="M43.5242 0C33.4762 0.464 24.5798 5.34512 18.7398 12.7531H32.0055C35.7175 12.7531 38.7242 15.7599 38.7242 19.4719V31.9531H43.5242V0ZM46.7242 0V31.9531H78.6773C77.8773 14.6731 64.0042 0.8 46.7242 0ZM3.84297 15.9531C1.89897 15.9531 0.324219 17.5279 0.324219 19.4719V47.6344C0.324219 49.5784 1.89897 51.1531 3.84297 51.1531H32.0055C33.9495 51.1531 35.5242 49.5784 35.5242 47.6344V19.4719C35.5242 17.5279 33.9495 15.9531 32.0055 15.9531H3.84297ZM11.3211 23.9531H20.3086C23.5214 23.9531 26.1273 26.5575 26.1305 29.7687V29.8812C26.1305 33.4908 23.2057 36.4156 19.5961 36.4156H15.2148V43.1906H11.3211V23.9531ZM15.2148 26.9875V33.3844H19.043C20.6958 33.3844 22.0367 32.0434 22.0367 30.3906V29.9812C22.0367 28.3284 20.6958 26.9875 19.043 26.9875H15.2148ZM38.7242 35.1531V47.6344C38.7242 51.3464 35.7175 54.3531 32.0055 54.3531H18.7398C24.8838 62.1451 34.4202 67.1531 45.1242 67.1531C63.1402 67.1531 77.8453 52.9771 78.6773 35.1531H38.7242Z" fill="white"/>
</g>
</svg>
