<svg width="56" height="59" viewBox="0 0 56 59" fill="none" xmlns="http://www.w3.org/2000/svg">
<g id="Capa 5">
<g id="Capa 1">
<path id="Vector" d="M39.0069 58.534C37.8617 58.3083 36.6999 58.1447 35.5744 57.8432C33.3779 57.254 31.4102 56.1876 29.6137 54.794C29.3505 54.5977 29.033 54.4877 28.7048 54.4789C21.8883 54.4592 15.0581 54.4789 8.23401 54.4531C6.45032 54.4567 4.71759 53.8584 3.31616 52.755C1.91474 51.6515 0.926601 50.1075 0.511625 48.3728C0.343593 47.6559 0.261219 46.9217 0.26623 46.1854C0.251082 35.5637 0.246538 24.9431 0.252597 14.3234C0.2632 9.51699 3.76539 6.03449 8.58392 6.04813C9.34132 6.04813 9.98207 5.95572 10.6213 5.46796C11.6817 4.66361 12.9586 4.53637 14.2432 4.62574C14.9142 4.6727 15.2914 4.47426 15.6746 3.86835C18.6058 -0.774473 25.4496 -0.636627 28.2474 4.10465C28.4867 4.51062 28.7412 4.62423 29.182 4.62726C29.9734 4.61271 30.7646 4.66694 31.5466 4.78934C32.1072 4.8763 32.6381 5.09886 33.0932 5.43767C33.7673 5.99208 34.4868 6.04358 35.2942 6.04358C39.4098 6.03601 42.6712 8.76111 43.3861 12.7965C43.4682 13.3784 43.4991 13.9664 43.4785 14.5537C43.4846 23.0365 43.4846 31.5193 43.4785 40.0021V40.7837C43.9603 40.9109 44.4283 41.0261 44.8934 41.1594C49.262 42.4136 52.6294 44.9872 55.0258 48.8469C55.1714 49.0443 55.25 49.2832 55.25 49.5286C55.25 49.7739 55.1714 50.0128 55.0258 50.2102C51.9962 54.9969 47.6725 57.7377 42.0546 58.4325C41.9065 58.4567 41.7599 58.489 41.6154 58.5294L39.0069 58.534ZM8.54908 7.82346L8.46274 7.65531C7.70535 7.80679 6.93281 7.87344 6.21328 8.10975C3.56695 9.00499 1.97188 11.3817 1.95976 14.3613C1.94916 18.4815 1.95976 22.6017 1.95976 26.7219C1.95976 33.185 1.95976 39.6481 1.95976 46.1112C1.95976 50.0254 4.64851 52.7414 8.52485 52.749C14.6506 52.7611 20.7759 52.7611 26.9007 52.749C27.0522 52.749 27.2037 52.7248 27.4097 52.7066C27.0446 52.2385 26.7189 51.8462 26.422 51.4326C26.1252 51.0191 25.8661 50.5783 25.5753 50.1587C25.4348 49.9791 25.3568 49.7586 25.3529 49.5306C25.3491 49.3026 25.4197 49.0796 25.5541 48.8954C28.3943 44.3344 32.4509 41.5699 37.7617 40.7231C39.0539 40.5171 40.3823 40.5322 41.782 40.4398V39.8021C41.782 31.391 41.782 22.9799 41.782 14.5688C41.782 14.1719 41.7699 13.7735 41.7381 13.3797C41.4836 10.185 38.3661 7.4902 35.2245 7.76741C35.2337 7.85862 35.251 7.94884 35.276 8.03704C36.5999 11.4771 34.096 15.3656 29.9742 15.3004C26.6099 15.2474 23.244 15.2898 19.8797 15.2883C19.6727 15.2987 19.4653 15.2845 19.2617 15.2459C18.8193 15.1353 18.577 14.8293 18.6118 14.3764C18.6137 14.1744 18.6935 13.9809 18.8346 13.8364C18.9758 13.6919 19.1673 13.6075 19.3692 13.6009C19.5577 13.587 19.7468 13.5829 19.9357 13.5887C23.3395 13.5887 26.7417 13.5887 30.1454 13.5887C32.304 13.5887 33.9142 12.0255 33.9324 9.96991C33.9505 7.91434 32.3661 6.36472 30.1924 6.31776C29.5304 6.30413 28.8684 6.3011 28.208 6.31776C27.6702 6.33139 27.3324 6.11023 27.1037 5.6149C26.0782 3.39422 24.321 2.19148 21.8837 2.18693C19.4465 2.18239 17.6817 3.37756 16.6517 5.5952C16.4108 6.11326 16.0624 6.32988 15.5035 6.31927C14.7279 6.30261 13.9508 6.29201 13.1783 6.34199C12.3022 6.39888 11.4776 6.77589 10.8614 7.40128C10.2453 8.02666 9.88052 8.85676 9.83665 9.7336C9.75334 11.6483 10.9985 13.2691 12.8571 13.513C13.8433 13.6433 14.8551 13.5796 15.8549 13.6024C16.4881 13.6175 16.8622 13.9053 16.8819 14.4128C16.9016 14.9384 16.5108 15.2929 15.864 15.3004C15.0324 15.311 14.1977 15.3232 13.3691 15.3004C10.7576 15.2126 8.66118 13.4282 8.20068 10.8864C8.01982 9.85313 8.14079 8.78967 8.54908 7.82346ZM40.243 56.8601C40.7792 56.8192 41.3033 56.795 41.8335 56.7374C46.6414 56.1997 50.3981 53.9093 53.1732 49.9618C53.4155 49.6179 53.3762 49.3892 53.155 49.0741C50.3405 45.0705 46.5263 42.6984 41.6426 42.3182C35.6683 41.8531 30.9619 44.2298 27.4673 49.0696C27.2113 49.4225 27.24 49.6619 27.4824 50.0057C30.5968 54.4213 34.8836 56.6344 40.243 56.8601Z" fill="white"/>
<path id="Vector_2" d="M11.4615 26.5973C10.7632 26.5973 10.0634 26.6397 9.36809 26.5973C8.59394 26.562 7.86272 26.2315 7.32484 25.6736C6.78696 25.1157 6.48331 24.3729 6.47637 23.598C6.43496 22.2781 6.43496 20.9572 6.47637 19.6353C6.52635 17.8797 7.85634 16.6057 9.62258 16.586C10.8698 16.5719 12.1159 16.5719 13.3611 16.586C15.1303 16.6057 16.4497 17.866 16.5073 19.6353C16.5497 20.9547 16.5512 22.2786 16.5073 23.598C16.4467 25.2839 15.2424 26.4973 13.5595 26.6033C12.8642 26.6457 12.1644 26.6033 11.4661 26.6033L11.4615 26.5973ZM11.4918 24.9128C12.0977 24.9128 12.7037 24.928 13.3096 24.9128C14.2745 24.8825 14.8047 24.3493 14.8244 23.3799C14.8395 22.1908 14.841 21.0032 14.8244 19.8141C14.8107 18.8279 14.2518 18.2902 13.2566 18.2826C12.0871 18.2755 10.9177 18.2755 9.7483 18.2826C8.7546 18.2826 8.19565 18.8325 8.18353 19.8171C8.16838 21.0067 8.16838 22.1953 8.18353 23.3829C8.19565 24.3478 8.72885 24.8825 9.69832 24.9128C10.2906 24.928 10.895 24.9128 11.4979 24.9128H11.4918Z" fill="white"/>
<path id="Vector_3" d="M11.5057 37.8817C10.8634 37.8817 10.2227 37.8938 9.5804 37.8817C7.85203 37.8438 6.53417 36.5714 6.48266 34.8385C6.44328 33.5191 6.44328 32.1952 6.48266 30.8758C6.53265 29.2095 7.74902 27.9447 9.42286 27.8689C10.7983 27.8083 12.1798 27.8083 13.5552 27.8689C15.2578 27.9416 16.4666 29.2065 16.5136 30.9167C16.5499 32.2179 16.553 33.5221 16.5136 34.8233C16.459 36.5926 15.1412 37.8529 13.3749 37.8817C12.7524 37.8968 12.1283 37.8892 11.5057 37.8817ZM11.4633 36.1881H13.3265C14.2217 36.1594 14.7928 35.6398 14.814 34.7491C14.8428 33.4858 14.8443 32.2209 14.814 30.9621C14.7928 30.1184 14.2581 29.5897 13.4098 29.5685C12.1465 29.5362 10.8841 29.5362 9.62282 29.5685C8.7503 29.5882 8.20801 30.1335 8.19134 30.997C8.16509 32.2401 8.16509 33.4847 8.19134 34.7309C8.20952 35.6398 8.78362 36.176 9.7137 36.1912C10.2878 36.1957 10.874 36.1881 11.4633 36.1881Z" fill="white"/>
<path id="Vector_4" d="M11.4629 49.1433C10.8222 49.1433 10.1784 49.16 9.53762 49.1433C7.82743 49.0903 6.53834 47.8451 6.48381 46.1304C6.4414 44.811 6.44443 43.4886 6.48381 42.1677C6.5338 40.4045 7.86529 39.1381 9.63305 39.1381C10.8782 39.1301 12.1239 39.1301 13.37 39.1381C15.1408 39.1487 16.4572 40.3984 16.5147 42.1768C16.5571 43.478 16.5526 44.7807 16.5147 46.0819C16.4647 47.8573 15.1787 49.1024 13.3912 49.1463C12.7505 49.163 12.1082 49.1463 11.4659 49.1463L11.4629 49.1433ZM11.4871 47.4407H13.3049H13.4185C14.2304 47.3937 14.7818 46.906 14.8091 46.094C14.8485 44.7923 14.8485 43.4911 14.8091 42.1904C14.7848 41.3528 14.2032 40.8423 13.3731 40.8347C12.1279 40.8226 10.8833 40.8226 9.63911 40.8347C8.79537 40.8347 8.21521 41.3482 8.19097 42.1768C8.1531 43.478 8.15613 44.7807 8.19097 46.0804C8.21218 46.8893 8.76508 47.4058 9.57094 47.4346C10.2087 47.4589 10.857 47.4407 11.4917 47.4407H11.4871Z" fill="white"/>
<path id="Vector_5" d="M18.3477 7.8675C18.3519 7.17038 18.5626 6.49014 18.9532 5.91273C19.3439 5.33532 19.8969 4.88665 20.5424 4.6234C21.1879 4.36015 21.897 4.29413 22.58 4.43369C23.263 4.57326 23.8893 4.91213 24.3799 5.40751C24.8704 5.90288 25.203 6.53253 25.3359 7.21689C25.4687 7.90126 25.3957 8.60964 25.1261 9.25253C24.8564 9.89542 24.4023 10.444 23.8211 10.8289C23.2399 11.2138 22.5576 11.4178 21.8604 11.4151C20.9252 11.4071 20.0311 11.0297 19.3731 10.3651C18.715 9.70054 18.3464 8.80274 18.3477 7.8675ZM20.0503 7.87961C20.0467 8.36352 20.2354 8.82904 20.575 9.17377C20.9147 9.5185 21.3773 9.71419 21.8612 9.71781C22.3451 9.72142 22.8106 9.53266 23.1554 9.19305C23.5001 8.85343 23.6958 8.39078 23.6994 7.90688C23.7012 7.66728 23.6558 7.42967 23.5657 7.20761C23.4757 6.98556 23.3428 6.78342 23.1746 6.61273C23.0065 6.44204 22.8063 6.30614 22.5857 6.21279C22.365 6.11944 22.1281 6.07048 21.8885 6.06869C21.6489 6.0669 21.4113 6.11232 21.1892 6.20236C20.9672 6.2924 20.765 6.42529 20.5943 6.59345C20.4236 6.76161 20.2877 6.96174 20.1944 7.18242C20.101 7.4031 20.0521 7.64001 20.0503 7.87961Z" fill="white"/>
<path id="Vector_6" d="M23.7495 20.7716C22.1237 20.7716 20.4983 20.7716 18.8735 20.7716C18.1554 20.7716 17.7767 20.4686 17.7813 19.9187C17.7858 19.3689 18.1645 19.0735 18.8871 19.0735C22.156 19.0735 25.4254 19.0735 28.6953 19.0735C29.3633 19.0735 29.7557 19.3764 29.7663 19.9036C29.7769 20.4307 29.4042 20.767 28.7953 20.77C27.1139 20.7761 25.431 20.7716 23.7495 20.7716Z" fill="white"/>
<path id="Vector_7" d="M23.7496 41.6217C25.3931 41.6217 27.0382 41.6217 28.6817 41.6217C29.3921 41.6217 29.7814 41.9398 29.7678 42.4866C29.7527 43.0032 29.3588 43.3198 28.6953 43.3198C25.4062 43.3198 22.1176 43.3198 18.8295 43.3198C18.157 43.3198 17.7858 43.0077 17.7813 42.4715C17.7767 41.9353 18.1403 41.6247 18.8174 41.6217C20.4609 41.6187 22.1045 41.6217 23.7496 41.6217Z" fill="white"/>
<path id="Vector_8" d="M23.8086 32.0443H19.1037C18.9151 32.0498 18.7264 32.0433 18.5386 32.0246C18.0585 31.9594 17.7812 31.6807 17.7812 31.1914C17.7812 30.7022 18.066 30.4341 18.5386 30.3613C18.6698 30.3459 18.802 30.3403 18.934 30.3447H28.5786C28.7305 30.3395 28.8824 30.3465 29.0331 30.3659C29.5163 30.4462 29.7768 30.7506 29.7617 31.2263C29.7679 31.4288 29.6941 31.6256 29.5563 31.7741C29.4186 31.9226 29.2279 32.011 29.0255 32.02C28.8379 32.0397 28.6491 32.0473 28.4605 32.0428C26.9083 32.0458 25.3577 32.0463 23.8086 32.0443Z" fill="white"/>
<path id="Vector_9" d="M21.2063 46.6518C20.3777 46.6518 19.54 46.6624 18.719 46.6518C18.1237 46.6427 17.7889 46.3306 17.7814 45.8262C17.7738 45.3218 18.1116 44.9688 18.6902 44.9628C20.3676 44.9476 22.045 44.9476 23.7224 44.9628C24.2934 44.9628 24.6312 45.3445 24.6055 45.8504C24.5828 46.3306 24.2525 46.6381 23.6966 46.6472C22.865 46.6669 22.0364 46.6518 21.2063 46.6518Z" fill="white"/>
<path id="Vector_10" d="M21.2307 33.6937C22.0229 33.6937 22.8152 33.6937 23.6059 33.6937C24.236 33.6937 24.5966 33.9966 24.6057 34.5207C24.6147 35.0449 24.2406 35.3887 23.5862 35.3902C21.9836 35.3983 20.3814 35.3983 18.7798 35.3902C18.1542 35.3902 17.7906 35.0721 17.7815 34.5571C17.7694 34.0178 18.139 33.6982 18.7995 33.6937C19.6099 33.6891 20.4203 33.6937 21.2307 33.6937Z" fill="white"/>
<path id="Vector_11" d="M21.2063 22.4199C21.9788 22.4199 22.7514 22.4199 23.5239 22.4199C24.2465 22.4274 24.6146 22.7228 24.6055 23.2818C24.5964 23.8407 24.2298 24.1149 23.4951 24.1179C21.9501 24.1179 20.405 24.1179 18.8599 24.1179C18.1373 24.1179 17.7738 23.815 17.7814 23.2545C17.7889 22.694 18.1373 22.4305 18.8326 22.4229C19.6249 22.4123 20.4156 22.4199 21.2063 22.4199Z" fill="white"/>
<path id="Vector_12" d="M39.9613 55.5304C38.7769 55.5318 37.6187 55.1814 36.6337 54.5235C35.6488 53.8655 34.8816 52.9298 34.4293 51.8351C33.9771 50.7404 33.8604 49.536 34.0939 48.3747C34.3273 47.2135 34.9006 46.1479 35.7408 45.313C36.581 44.4781 37.6503 43.9117 38.8129 43.6856C39.9756 43.4595 41.1793 43.5839 42.2711 44.0431C43.3629 44.5023 44.2937 45.2755 44.9454 46.2646C45.597 47.2537 45.9401 48.4141 45.9311 49.5985C45.9203 51.1749 45.2867 52.6832 44.1684 53.7944C43.0501 54.9056 41.5378 55.5296 39.9613 55.5304ZM35.6972 49.5455C35.6981 50.3875 35.9482 51.2104 36.416 51.9106C36.8838 52.6107 37.5484 53.1568 38.326 53.4799C39.1036 53.803 39.9594 53.8887 40.7856 53.7263C41.6119 53.5639 42.3715 53.1606 42.9689 52.5672C43.5664 51.9737 43.9748 51.2168 44.1427 50.3917C44.3107 49.5665 44.2307 48.7102 43.9128 47.9304C43.5949 47.1507 43.0534 46.4825 42.3564 46.01C41.6594 45.5375 40.8382 45.2819 39.9962 45.2753C39.4327 45.2705 38.8739 45.3774 38.352 45.59C37.8301 45.8025 37.3556 46.1164 36.9558 46.5135C36.556 46.9106 36.239 47.383 36.0229 47.9035C35.8069 48.4239 35.6962 48.982 35.6972 49.5455Z" fill="white"/>
<path id="Vector_13" d="M10.9718 22.094C11.5186 21.2276 12.017 20.4278 12.5199 19.6416C12.8956 19.0478 13.3712 18.8842 13.8272 19.1871C14.2831 19.4901 14.3225 19.9657 13.9787 20.5277C13.2803 21.6229 12.5957 22.7333 11.8958 23.8209C11.4156 24.5783 10.8355 24.604 10.2659 23.9193C9.83117 23.3998 9.39794 22.8772 8.9738 22.347C8.58904 21.8683 8.5951 21.3639 8.9738 21.0412C9.3525 20.7186 9.88267 20.8019 10.3008 21.2851C10.5068 21.5214 10.7052 21.7759 10.9718 22.094Z" fill="white"/>
<path id="Vector_14" d="M10.9723 33.3667C11.5328 32.476 12.0539 31.6293 12.5962 30.7916C12.9294 30.2766 13.4308 30.1508 13.8474 30.4644C13.9406 30.523 14.0207 30.6001 14.0828 30.691C14.1449 30.7819 14.1877 30.8846 14.2084 30.9927C14.2291 31.1008 14.2274 31.2121 14.2034 31.3195C14.1793 31.4269 14.1334 31.5282 14.0685 31.6171C13.3218 32.8396 12.5644 34.056 11.7782 35.2526C11.4268 35.7904 10.8178 35.8116 10.3891 35.3253C9.86652 34.73 9.36361 34.1135 8.87434 33.4909C8.79973 33.4044 8.74369 33.3035 8.70969 33.1944C8.67569 33.0853 8.66444 32.9704 8.67666 32.8568C8.68887 32.7432 8.72428 32.6333 8.78069 32.5339C8.8371 32.4345 8.91331 32.3478 9.00461 32.2791C9.36513 31.9989 9.82562 32.0413 10.171 32.4124C10.4391 32.7048 10.6784 33.0153 10.9723 33.3667Z" fill="white"/>
<path id="Vector_15" d="M10.9713 44.6368C11.5151 43.7749 12.0135 42.9781 12.5164 42.1859C12.8891 41.6012 13.3783 41.4285 13.8282 41.7208C14.2781 42.0132 14.3205 42.4964 13.9691 43.0629C13.2824 44.1677 12.5906 45.269 11.8938 46.3667C11.4167 47.115 10.8335 47.1438 10.2624 46.4606C9.82768 45.9395 9.39445 45.4169 8.96879 44.8883C8.58252 44.4096 8.59161 43.9112 8.97788 43.5825C9.36415 43.2538 9.84131 43.3144 10.2594 43.7885C10.4836 44.0415 10.6956 44.3066 10.9713 44.6368Z" fill="white"/>
<path id="Vector_16" d="M39.9673 46.7336C40.7062 46.7517 41.4087 47.0582 41.9246 47.5875C42.4405 48.1169 42.7287 48.8271 42.7277 49.5662C42.7268 50.3054 42.4366 51.0148 41.9193 51.5427C41.402 52.0707 40.6987 52.3753 39.9597 52.3914C39.2208 52.3733 38.5183 52.0668 38.0024 51.5375C37.4865 51.0081 37.1982 50.298 37.1992 49.5588C37.2002 48.8197 37.4904 48.1102 38.0077 47.5823C38.525 47.0543 39.2283 46.7497 39.9673 46.7336ZM41.0731 49.5769C41.0765 49.2858 40.9657 49.0049 40.7643 48.7947C40.5629 48.5844 40.2871 48.4615 39.9961 48.4524C39.7052 48.4433 39.4222 48.5487 39.2081 48.7459C38.9939 48.9431 38.8657 49.2165 38.8509 49.5072C38.8434 49.6549 38.8654 49.8025 38.9156 49.9416C38.9658 50.0806 39.0433 50.2082 39.1435 50.317C39.2436 50.4257 39.3644 50.5134 39.4989 50.5749C39.6333 50.6363 39.7787 50.6704 39.9264 50.675C40.0742 50.6797 40.2214 50.6548 40.3594 50.6018C40.4975 50.5489 40.6236 50.469 40.7303 50.3667C40.8371 50.2645 40.9224 50.1419 40.9813 50.0063C41.0401 49.8707 41.0713 49.7247 41.0731 49.5769Z" fill="white"/>
</g>
</g>
</svg>
