<svg width="81" height="80" viewBox="0 0 81 80" fill="none" xmlns="http://www.w3.org/2000/svg">
<g id="Group 73">
<g id="Capa 2">
<g id="Capa 1">
<path id="Vector" d="M0.519531 16.7203C1.25403 14.6942 2.85866 14.2476 4.88271 14.4834V13.5632C4.88271 10.1258 4.88271 6.68979 4.88271 3.25517C4.88271 1.1873 6.05541 0.0208665 8.12954 0.0208665C17.4735 0.0208665 26.8176 0.0208665 36.1616 0.0208665C38.2816 0.0208665 39.4272 1.1727 39.4293 3.30942C39.4293 8.54135 39.4293 13.7733 39.4293 19.0052V19.9901H41.5764V19.0657C41.5764 13.8338 41.5764 8.60255 41.5764 3.37202C41.5806 1.12679 42.6949 0.0104332 44.9297 0H63.6698C63.8263 0 63.9828 0 64.1393 0C64.9218 0.0459063 65.4143 0.509142 65.4143 1.19774C65.4143 1.88633 64.9072 2.32035 64.1101 2.34957C63.9015 2.34957 63.6928 2.34957 63.4841 2.34957H45.0486C43.9948 2.34957 43.9239 2.41843 43.9218 3.44506V19.9776H45.877C45.877 19.2389 45.877 18.5169 45.877 17.797C45.8895 15.6123 47.0163 14.4584 49.1906 14.4584C51.7154 14.4438 54.2403 14.4584 56.7651 14.4584H57.6937C57.6937 13.5423 57.6937 12.716 57.6937 11.8897C57.7041 10.9904 58.0463 10.6148 58.9248 10.4938C60.158 10.3247 60.9384 9.50051 60.9071 8.40711C60.8908 7.89452 60.6832 7.40661 60.3252 7.03937C59.9672 6.67213 59.4848 6.45215 58.9728 6.4227C57.8272 6.36845 57.0072 7.08626 56.8027 8.32364C56.6441 9.27515 56.2184 9.68413 55.4777 9.59649C54.7369 9.50886 54.3738 8.90581 54.5011 7.94178C54.7724 5.7988 56.4417 4.18999 58.4699 4.06479C60.6588 3.93124 62.5702 5.27922 63.1085 7.33457C63.3675 8.34049 63.2622 9.40561 62.8111 10.3413C62.3601 11.277 61.5925 12.0229 60.6442 12.4469C60.4564 12.5345 60.2623 12.6096 60.0516 12.6973V14.3854H73.7421C73.7567 14.1516 73.7817 13.9263 73.7817 13.6988C73.7817 10.2614 73.7817 6.82543 73.7817 3.3908C73.7817 2.4539 73.6816 2.34748 72.7551 2.34748C71.8286 2.34748 70.8771 2.34748 69.9444 2.34748C69.0826 2.34748 68.5776 1.90511 68.5651 1.19774C68.5526 0.490362 69.0576 0.0229531 69.9047 0.0125199C70.9961 0 72.0916 0 73.1829 0.0125199C74.8897 0.0438196 76.1042 1.27912 76.1209 3.00477C76.1355 6.49156 76.1209 9.98044 76.1209 13.4672V14.4521C76.6008 14.4521 77.0327 14.4354 77.4605 14.4521C79.3385 14.5356 80.482 15.7041 80.4841 17.6092C80.4841 23.5436 80.4841 29.4781 80.4841 35.4125C80.4841 37.5638 79.3114 38.7303 77.1454 38.7365H76.0854C76.0854 39.5065 76.0708 40.2494 76.0854 40.9901C76.1104 41.9458 75.86 42.7554 74.9398 43.1978C74.0196 43.6402 73.2413 43.2938 72.5193 42.6699C71.1199 41.4638 69.7072 40.273 68.2813 39.0975C68.0524 38.8998 67.7669 38.7793 67.4655 38.7532C64.3355 38.7303 61.218 38.7386 58.0943 38.7532C57.9881 38.7676 57.8834 38.7913 57.7813 38.8242C57.7813 39.5608 57.7813 40.3057 57.7813 41.0506C57.7646 43.1185 56.5878 44.3079 54.5428 44.3225C53.4244 44.3225 52.3039 44.3225 51.1854 44.3225C50.2882 44.3121 49.7394 43.8405 49.7519 43.1289C49.7644 42.4174 50.284 42.0001 51.1479 41.9875C52.2663 41.9729 53.3868 41.9688 54.5053 41.9875C55.1668 42.0001 55.4464 41.7184 55.4443 41.0548C55.4359 35.1482 55.4359 29.2402 55.4443 23.3308C55.4443 22.54 55.2356 22.3939 54.2799 22.3939H32.27C30.369 22.3939 28.4681 22.4085 26.5692 22.3939C25.8389 22.3939 25.5426 22.6714 25.5447 23.4122C25.5586 29.2673 25.5586 35.1238 25.5447 40.9818C25.5447 41.7163 25.8201 42.0376 26.5609 41.998C27.0546 41.9719 27.5495 41.9782 28.0424 42.0167C29.1003 42.0981 29.8348 42.7992 29.9204 43.8572C29.9767 44.5729 29.9308 45.297 29.9308 46.2339C31.2559 45.1133 32.4452 44.1952 33.5303 43.1665C33.9524 42.745 34.4592 42.418 35.0171 42.2068C35.575 41.9957 36.1713 41.9053 36.7667 41.9416C39.4439 42.0167 42.1273 41.9646 44.8086 41.9646C45.0423 41.9646 45.2781 41.9646 45.5097 41.9792C46.1712 42.0376 46.5656 42.3965 46.6157 43.0663C46.6331 43.2166 46.619 43.369 46.5742 43.5135C46.5295 43.6581 46.455 43.7917 46.3556 43.9058C46.2562 44.0199 46.1341 44.112 45.9971 44.1762C45.86 44.2404 45.7111 44.2753 45.5598 44.2787C44.8629 44.335 44.1555 44.3058 43.4544 44.3058C41.1382 44.3058 38.82 44.287 36.5038 44.3267C36.0777 44.3405 35.6665 44.4863 35.3269 44.744C33.8662 45.9167 32.4411 47.1353 31.018 48.3518C30.3419 48.9298 29.6032 49.126 28.779 48.7691C27.9548 48.4123 27.623 47.6945 27.6188 46.8181C27.6188 46.0168 27.6188 45.2156 27.6188 44.3141C27.1055 44.3141 26.6736 44.3267 26.2416 44.3141C24.4555 44.2578 23.2765 43.0935 23.216 41.3052C23.1889 40.481 23.216 39.6526 23.216 38.7783C22.8863 38.7637 22.6338 38.7428 22.3813 38.7428C19.5435 38.7428 16.7057 38.7198 13.8699 38.7637C13.3953 38.7868 12.9397 38.9567 12.5657 39.2499C11.1406 40.3829 9.7613 41.5744 8.37576 42.7575C7.68717 43.3439 6.94223 43.6172 6.08045 43.2145C5.21866 42.8118 4.88897 42.0334 4.90149 41.107C4.9161 40.3558 4.90149 39.6046 4.90149 38.7115C2.87953 38.9682 1.21856 38.5362 0.519531 36.4162V16.7203ZM20.9854 14.4459V12.2987C20.9854 10.8735 21.121 10.7108 22.5045 10.4604C23.0086 10.3673 23.4609 10.0918 23.775 9.68655C24.089 9.28129 24.2429 8.77459 24.2072 8.26313C24.1579 7.73909 23.9095 7.25392 23.5131 6.90762C23.1167 6.56132 22.6026 6.38029 22.0767 6.40184C20.9937 6.43522 20.3156 7.12799 20.0944 8.42171C19.9525 9.24385 19.5143 9.6424 18.8153 9.5798C18.1162 9.5172 17.7323 8.98511 17.7719 8.18801C17.824 7.16268 18.2358 6.18852 18.9349 5.43672C19.6341 4.68492 20.5758 4.20358 21.5947 4.07731C22.6383 3.94807 23.694 4.19399 24.5731 4.77115C25.4522 5.34831 26.0976 6.21913 26.394 7.22815C26.6794 8.21258 26.6092 9.26609 26.1956 10.2039C25.782 11.1418 25.0515 11.9041 24.132 12.3571C23.8775 12.4844 23.6187 12.5971 23.3767 12.7098V14.4459H24.2489C26.7737 14.4459 29.2986 14.4459 31.8234 14.4459C33.9977 14.4584 35.1245 15.6102 35.1391 17.7845C35.1391 18.5044 35.1391 19.2264 35.1391 19.965H37.0359C37.0577 19.8702 37.073 19.774 37.0818 19.6771C37.0818 14.185 37.0818 8.69298 37.0943 3.19257C37.0943 2.40591 36.6624 2.32453 36.0385 2.32453C26.7974 2.33287 17.557 2.33287 8.31733 2.32453C7.2907 2.32453 7.22602 2.39339 7.22602 3.45549C7.22602 6.84003 7.22602 10.2239 7.22602 13.607V14.4187H8.65746C8.94333 14.4187 9.23129 14.4187 9.51507 14.4187C10.3059 14.4688 10.813 14.9362 10.8109 15.5935C10.8088 16.2508 10.2892 16.7725 9.49212 16.7808C7.67047 16.7996 5.84883 16.7808 4.02719 16.7808C2.95674 16.7808 2.85658 16.8831 2.85658 17.9306C2.85658 23.3183 2.85658 28.706 2.85658 34.0937C2.85658 36.6415 2.54984 36.3765 5.06008 36.3891C6.42266 36.3995 7.21767 37.2237 7.24062 38.5926C7.24062 39.2039 7.24062 39.8174 7.24062 40.5561C7.49728 40.3704 7.64335 40.2765 7.77481 40.1659C8.95168 39.1789 10.1452 38.2107 11.2908 37.1882C11.5973 36.9095 11.9558 36.694 12.3457 36.554C12.7357 36.414 13.1494 36.3523 13.5632 36.3724C16.4845 36.4057 19.3933 36.3849 22.3083 36.3849H23.1993V35.3687C23.1993 31.3609 23.1993 27.3525 23.1993 23.3433C23.1993 21.24 24.3866 20.0569 26.4941 20.0423C28.2886 20.0297 30.0852 20.0423 31.8818 20.0423C32.1573 20.0423 32.4327 20.0193 32.6748 20.0089C32.7106 19.9379 32.738 19.863 32.7562 19.7856C32.7562 19.1867 32.777 18.5879 32.7749 17.989C32.7749 16.8935 32.6769 16.7954 31.5647 16.7933H15.7062C14.4542 16.7933 13.945 16.4657 13.9262 15.6582C13.9075 14.8507 14.4625 14.4521 15.727 14.4521L20.9854 14.4459ZM73.7609 40.6187C73.7609 40.1847 73.7755 39.9343 73.7609 39.686C73.5814 37.0463 74.4056 36.2326 77.0494 36.3849C78.0615 36.4433 78.1533 36.3035 78.1533 35.2664C78.1533 29.5407 78.1533 23.8156 78.1533 18.0912C78.1533 16.8392 78.1094 16.7892 76.8241 16.7892H49.5724C49.3141 16.7582 49.0524 16.7709 48.7983 16.8267C48.5896 16.906 48.2871 17.1272 48.2766 17.3004C48.2245 18.1914 48.2537 19.0907 48.2537 20.0381C50.3591 20.0381 52.3602 20.0381 54.3613 20.0381C56.6566 20.0381 57.798 21.1899 57.8001 23.5082C57.8001 27.4895 57.8001 31.4708 57.8001 35.4521V36.3911C60.8153 36.3911 63.7032 36.4683 66.5849 36.3619C68.1311 36.3035 69.3413 36.7208 70.4389 37.7955C71.4322 38.7699 72.5548 39.6067 73.7609 40.6187Z" fill="white"/>
<path id="Vector_2" d="M58.6244 79.9793C56.9384 78.5979 55.2711 77.1957 53.5559 75.854C53.1595 75.5463 52.6778 75.3685 52.1766 75.3449C43.8718 75.3136 35.569 75.3219 27.2641 75.3219C26.9786 75.3366 26.6923 75.3262 26.4086 75.2906C26.1593 75.2626 25.9285 75.1458 25.7583 74.9615C25.5882 74.7771 25.4901 74.5377 25.4821 74.2869C25.4279 73.7319 25.6491 73.2979 26.177 73.1101C26.4989 73.0137 26.8345 72.9713 27.1702 72.9849C35.6323 72.9849 44.0923 72.98 52.5501 72.9703C53.3608 72.9418 54.1514 73.2265 54.7578 73.7653C56.0286 74.8795 57.3369 75.95 58.7934 77.179C58.7934 76.5009 58.7934 75.9792 58.7934 75.4575C58.7934 73.7632 59.5801 72.989 61.2974 72.9807C62.1821 72.9807 63.0668 72.9682 63.9537 72.9807C64.5171 72.9807 64.7424 72.7303 64.7424 72.1732C64.7424 66.2387 64.7424 60.3036 64.7424 54.3678C64.7424 53.7689 64.5025 53.4977 63.9078 53.5143C63.7241 53.5143 63.5426 53.5143 63.3611 53.5143H17.676C16.28 53.5143 16.28 53.5143 16.28 54.8894V71.8351C16.28 72.941 16.3176 72.9765 17.4277 72.9786C18.5733 72.9786 19.723 72.9786 20.8644 72.9786C21.77 72.9786 22.3125 73.4397 22.325 74.1555C22.3376 74.8712 21.8034 75.3156 20.8727 75.3282C19.5435 75.3282 18.2164 75.3469 16.8893 75.3282C15.1512 75.299 13.9472 74.1012 13.943 72.363C13.9305 66.2992 13.9305 60.234 13.943 54.1675C13.943 52.4564 15.0886 51.2962 16.808 51.194C17.0667 51.1794 17.3275 51.194 17.5884 51.194C32.8668 51.194 48.1466 51.194 63.4278 51.194C63.9219 51.1762 64.4165 51.2111 64.9031 51.2983C65.5176 51.4436 66.0651 51.7922 66.4567 52.2876C66.8484 52.783 67.0612 53.3962 67.0607 54.0277C67.0774 60.1958 67.0774 66.3646 67.0607 72.5341C67.0574 73.2734 66.7626 73.9816 66.2402 74.5047C65.7178 75.0279 65.0101 75.3238 64.2708 75.3282C63.2609 75.3616 62.251 75.3282 61.1409 75.3282C61.1409 76.0731 61.0908 76.745 61.1513 77.4148C61.264 78.623 60.8112 79.4785 59.722 80.0002L58.6244 79.9793Z" fill="white"/>
<path id="Vector_3" d="M33.0914 67.5214C29.8919 67.5214 26.6923 67.5214 23.4928 67.5214C23.259 67.5294 23.0249 67.5238 22.7917 67.5047C22.1657 67.4296 21.7984 67.0665 21.7484 66.4363C21.7101 66.1605 21.7818 65.8807 21.9482 65.6573C22.1145 65.434 22.362 65.2851 22.6373 65.2428C22.9178 65.1901 23.2035 65.1698 23.4886 65.1823C29.8877 65.1823 36.2867 65.1823 42.6858 65.1823C42.8423 65.1823 42.9988 65.1823 43.1553 65.1823C43.9899 65.2282 44.5012 65.7039 44.4761 66.405C44.4511 67.1061 43.9712 67.5151 43.149 67.5172C39.8041 67.5277 36.4488 67.5214 33.0914 67.5214Z" fill="white"/>
<path id="Vector_4" d="M39.3296 33.5052C39.3296 33.0878 39.3296 32.6705 39.3296 32.2532C39.3421 31.068 39.5883 30.7925 40.7401 30.6193C41.1197 30.5757 41.4802 30.4292 41.7826 30.1956C42.085 29.9621 42.3178 29.6503 42.456 29.2941C42.5941 28.9378 42.6323 28.5506 42.5664 28.1742C42.5005 27.7978 42.333 27.4466 42.082 27.1585C41.831 26.8704 41.5061 26.6563 41.1423 26.5394C40.7785 26.4225 40.3897 26.4072 40.0179 26.4952C39.6461 26.5832 39.3053 26.7711 39.0325 27.0386C38.7597 27.3061 38.5651 27.6431 38.4699 28.0131C38.4281 28.1905 38.4156 28.372 38.3822 28.5515C38.2382 29.3569 37.7667 29.7638 37.0739 29.6845C36.3811 29.6052 36.0306 29.0898 36.0786 28.2614C36.1829 26.1309 37.7479 24.4449 39.9493 24.1152C41.9546 23.8148 44.0287 25.1189 44.711 27.1138C45.0741 28.1578 45.0292 29.3004 44.5854 30.3127C44.1415 31.325 43.3315 32.1322 42.3176 32.5724C41.7835 32.8082 41.6228 33.0899 41.6666 33.6158C41.6876 34.0328 41.6876 34.4507 41.6666 34.8677C41.652 35.8902 41.2722 36.391 40.5148 36.4035C39.7573 36.416 39.3358 35.8965 39.3233 34.8281C39.3296 34.3899 39.3296 33.9475 39.3296 33.5052Z" fill="white"/>
<path id="Vector_5" d="M43.869 61.2745C41.8658 61.2745 39.8647 61.2745 37.8616 61.2745C36.8787 61.2745 36.3508 60.8405 36.3717 60.0872C36.3905 59.3736 36.9226 58.9396 37.8449 58.9375C41.9027 58.9375 45.9612 58.9375 50.0205 58.9375C50.9553 58.9375 51.4561 59.3673 51.4602 60.1081C51.4644 60.8489 50.9845 61.2683 50.0351 61.2725C47.9797 61.2808 45.9244 61.2745 43.869 61.2745Z" fill="white"/>
<path id="Vector_6" d="M27.4573 61.2739C26.0279 61.2739 24.6006 61.2739 23.1734 61.2739C22.2281 61.2739 21.744 60.8566 21.7461 60.1116C21.7482 59.3667 22.2511 58.941 23.1817 58.9389C26.0376 58.9292 28.8936 58.9292 31.7495 58.9389C32.6801 58.9389 33.2101 59.3563 33.2101 60.0845C33.231 60.8503 32.7198 61.2718 31.7349 61.276C30.3118 61.2802 28.8845 61.2739 27.4573 61.2739Z" fill="white"/>
<path id="Vector_7" d="M59.2712 61.3949C59.2712 62.4862 59.2816 63.5754 59.2712 64.6667C59.2607 65.4868 58.8413 65.9584 58.1506 65.9792C57.46 66.0001 56.9446 65.4951 56.9383 64.6605C56.9216 62.4528 56.9216 60.2451 56.9383 58.0374C56.9383 57.1819 57.4015 56.6874 58.1173 56.6895C58.833 56.6915 59.2628 57.1715 59.2712 58.0437C59.2795 59.1601 59.2712 60.2785 59.2712 61.3949Z" fill="white"/>
<path id="Vector_8" d="M58.1394 69.9821C57.9838 69.9843 57.8292 69.9558 57.6846 69.8983C57.5399 69.8408 57.408 69.7553 57.2964 69.6468C57.1848 69.5383 57.0957 69.4089 57.0341 69.2659C56.9725 69.1229 56.9397 68.9692 56.9375 68.8136C56.949 68.5128 57.0724 68.2271 57.2835 68.0125C57.4947 67.7979 57.7783 67.6698 58.0789 67.6534C58.2343 67.6515 58.3885 67.6805 58.5325 67.7389C58.6765 67.7973 58.8074 67.8838 58.9176 67.9934C59.0278 68.103 59.115 68.2334 59.1741 68.3771C59.2333 68.5208 59.2631 68.6749 59.262 68.8303C59.2637 69.1312 59.1469 69.4208 58.9368 69.6363C58.7268 69.8519 58.4403 69.9761 58.1394 69.9821Z" fill="white"/>
<path id="Vector_9" d="M41.6573 39.1368C41.6662 39.2957 41.6421 39.4547 41.5864 39.6038C41.5308 39.7529 41.4448 39.8889 41.334 40.0031C41.2232 40.1173 41.09 40.2073 40.9426 40.2675C40.7953 40.3276 40.6371 40.3566 40.478 40.3525C40.3189 40.3485 40.1624 40.3115 40.0183 40.244C39.8742 40.1764 39.7457 40.0797 39.6408 39.96C39.536 39.8403 39.4571 39.7001 39.4091 39.5484C39.3611 39.3967 39.3451 39.2366 39.362 39.0784C39.3531 38.9195 39.3773 38.7605 39.4329 38.6114C39.4886 38.4623 39.5745 38.3264 39.6853 38.2121C39.7961 38.0979 39.9294 38.0079 40.0767 37.9477C40.2241 37.8876 40.3823 37.8586 40.5414 37.8627C40.7005 37.8667 40.857 37.9037 41.0011 37.9713C41.1452 38.0388 41.2737 38.1355 41.3785 38.2552C41.4834 38.3749 41.5623 38.5151 41.6103 38.6668C41.6583 38.8186 41.6743 38.9786 41.6573 39.1368Z" fill="white"/>
<path id="Vector_10" d="M15.078 27.7729C15.078 27.3305 15.078 26.8861 15.078 26.4458C15.0946 25.44 15.3784 25.1166 16.3758 24.9496C18.0681 24.6659 18.8631 23.0091 17.9325 21.7091C17.6997 21.3765 17.3722 21.1218 16.9925 20.9781C16.6129 20.8344 16.1987 20.8085 15.8041 20.9036C15.4048 20.9801 15.0396 21.1803 14.7602 21.4757C14.4809 21.7712 14.3015 22.147 14.2475 22.55C14.2141 22.7295 14.2057 22.9131 14.164 23.0904C14.0158 23.7394 13.5964 24.0753 12.935 24.0482C12.309 24.0232 11.8916 23.5182 11.8916 22.8254C11.8499 21.0017 13.0956 19.3053 14.911 18.7147C15.8208 18.4175 16.8029 18.4263 17.7072 18.7398C18.6116 19.0533 19.3884 19.6542 19.919 20.4508C20.2772 20.973 20.5165 21.5673 20.6201 22.192C20.7237 22.8167 20.689 23.4565 20.5185 24.0663C20.348 24.6761 20.0458 25.2411 19.6333 25.7214C19.2207 26.2018 18.7078 26.5858 18.1307 26.8464C17.5465 27.1093 17.3691 27.4182 17.4192 28.0066C17.4536 28.5005 17.4536 28.9963 17.4192 29.4902C17.3816 30.2038 16.958 30.6295 16.307 30.6483C15.656 30.6671 15.2032 30.2539 15.1009 29.5674C15.0978 29.5153 15.0978 29.463 15.1009 29.4109V27.7729H15.078Z" fill="white"/>
<path id="Vector_11" d="M17.4093 33.4948C17.4136 33.6503 17.3863 33.8051 17.3291 33.9499C17.272 34.0946 17.1862 34.2263 17.0768 34.3371C16.9675 34.4478 16.8368 34.5352 16.6928 34.5942C16.5488 34.6531 16.3943 34.6823 16.2387 34.68C16.0853 34.6774 15.9338 34.6446 15.793 34.5835C15.6523 34.5223 15.5249 34.4341 15.4182 34.3237C15.3116 34.2134 15.2277 34.0831 15.1714 33.9403C15.1151 33.7976 15.0874 33.6451 15.09 33.4916C15.0926 33.3382 15.1254 33.1868 15.1865 33.046C15.2477 32.9052 15.3359 32.7778 15.4463 32.6712C15.5566 32.5645 15.6869 32.4806 15.8297 32.4243C15.9724 32.368 16.1249 32.3403 16.2784 32.3429C16.5799 32.3495 16.8669 32.4736 17.0782 32.6888C17.2895 32.904 17.4083 33.1932 17.4093 33.4948Z" fill="white"/>
<path id="Vector_12" d="M63.5913 27.7944C63.5913 27.3249 63.5913 26.8575 63.5913 26.39C63.6059 25.4072 63.8646 25.1151 64.8433 24.9523C66.0243 24.7583 66.7087 24.0843 66.7734 23.0514C66.8243 22.5399 66.6772 22.0283 66.3625 21.622C66.0477 21.2156 65.5891 20.9453 65.0811 20.8667C64.5759 20.7791 64.0563 20.8856 63.6264 21.165C63.1964 21.4444 62.888 21.876 62.7629 22.3733C62.742 22.4484 62.7232 22.5235 62.7086 22.6007C62.5125 23.715 62.0451 24.1865 61.2897 24.03C60.5343 23.8736 60.2172 23.1954 60.4112 22.1521C60.5844 21.1426 61.1027 20.2246 61.8776 19.5548C62.6524 18.885 63.6357 18.5049 64.6596 18.4796C66.6712 18.4149 68.5805 19.9068 69.0416 21.9058C69.2765 22.9039 69.1495 23.953 68.6834 24.8663C68.2172 25.7795 67.442 26.4977 66.4959 26.8929C66.0118 27.1016 65.897 27.3603 65.9242 27.8277C65.9586 28.3732 65.9586 28.9203 65.9242 29.4658C65.8741 30.2149 65.4067 30.6531 64.7348 30.6447C64.0629 30.6364 63.6414 30.1919 63.5975 29.4282C63.5975 29.376 63.5975 29.3239 63.5975 29.2717C63.5934 28.7813 63.5934 28.2889 63.5913 27.7944Z" fill="white"/>
<path id="Vector_13" d="M63.5977 33.5119C63.5965 33.2111 63.7122 32.9216 63.9206 32.7047C64.1289 32.4878 64.4135 32.3604 64.7141 32.3496C65.0229 32.3496 65.319 32.4723 65.5374 32.6906C65.7558 32.909 65.8784 33.2052 65.8784 33.514C65.8784 33.8228 65.7558 34.1189 65.5374 34.3373C65.319 34.5556 65.0229 34.6783 64.7141 34.6783C64.4124 34.6685 64.1266 34.5409 63.9179 34.3229C63.7093 34.1048 63.5943 33.8137 63.5977 33.5119Z" fill="white"/>
</g>
</g>
</g>
</svg>
