<svg width="65" height="80" viewBox="0 0 65 80" fill="none" xmlns="http://www.w3.org/2000/svg">
<g id="Capa 4">
<g id="Capa 1">
<path id="Vector" d="M31.1242 0C32.7567 0.417515 34.4268 0.7223 36.0092 1.2776C38.3055 2.07922 40.2511 3.47372 41.9462 5.21058C42.6393 5.92245 42.7353 6.58838 42.2301 7.11654C41.6853 7.68645 41.0235 7.59877 40.2762 6.85559C32.2494 -1.1252 18.9641 1.93101 15.4257 12.5735C15.2169 13.1872 15.0854 13.826 14.8871 14.5567C15.2253 14.5754 15.4716 14.5984 15.7221 14.5984H27.0493C28.3938 14.6227 29.7297 14.3802 30.9799 13.885C32.23 13.3898 33.3697 12.6517 34.3328 11.7134C34.9362 11.1393 35.6063 10.8783 36.3933 11.1497C37.1803 11.4211 37.5394 12.0599 37.6041 12.8949C37.6688 13.73 38.0842 14.4544 38.9276 14.5045C40.6832 14.6068 42.4472 14.5358 44.3407 14.5358C44.0192 13.5212 43.7394 12.5818 43.4221 11.6528C43.1257 10.7761 43.3157 10.1247 43.9858 9.87631C44.6559 9.62789 45.3197 9.93059 45.5932 10.8074C46.0375 12.1629 46.4 13.5439 46.6788 14.9429C46.7643 15.4167 46.3823 15.9866 46.1965 16.4981C46.0901 16.7883 45.8625 17.0576 45.8333 17.3519C45.7477 18.1473 45.7414 18.9531 45.6976 19.857C46.1151 19.857 46.4888 19.857 46.8708 19.857C49.4239 19.8946 51.2839 21.7588 51.3194 24.3161C51.3737 28.0006 49.0795 30.8752 45.4742 31.6455L44.8479 31.7666C44.7206 32.5474 44.6392 33.3239 44.4597 34.0755C43.6497 37.3884 41.6227 39.8768 39.0111 41.9435C38.6061 42.265 38.3848 42.5698 38.4287 43.1063C38.4746 43.7013 38.4287 44.3025 38.4412 44.9016C38.4704 46.3086 39.2533 47.1019 40.702 47.1291C42.1842 47.1583 43.6706 47.1541 45.1548 47.1291C47.0879 47.104 49.0001 47.1729 50.8435 47.8702C53.076 48.7069 55.0095 50.1881 56.3988 52.1256C57.7882 54.0631 58.5706 56.3697 58.6468 58.7527C58.6468 58.9823 58.6719 59.2119 58.6886 59.546C59.7762 58.9364 60.4776 59.5042 61.1707 60.2244C62.0725 61.1638 63.0307 62.0469 63.9492 62.9696C64.7655 63.7879 64.7843 64.5248 63.9597 65.3369C62.3543 66.936 60.7156 68.4996 59.127 70.1153C58.8581 70.4095 58.7001 70.7882 58.6802 71.1863C58.6385 73.3198 58.6635 75.4554 58.6572 77.5909C58.6572 79.2234 57.8869 80 56.2816 80C38.4955 80 20.71 80 2.9253 80C1.30951 80 0.512062 79.2109 0.503711 77.6202C0.495361 76.0294 0.503711 74.3907 0.503711 72.7749C0.503711 71.8271 0.979678 71.2572 1.71868 71.2865C2.45768 71.3157 2.84179 71.8501 2.84597 72.7791C2.84597 74.3656 2.84597 75.9522 2.84597 77.5972H10.3612V76.781C10.3612 72.6142 10.3612 68.4474 10.3612 64.2806C10.3425 64.021 10.3565 63.7601 10.403 63.504C10.5616 62.9069 10.9687 62.5583 11.5971 62.5938C11.8759 62.5918 12.1448 62.6971 12.348 62.8879C12.5513 63.0787 12.6733 63.3404 12.6889 63.6188C12.7094 63.852 12.7143 64.0864 12.7035 64.3202V77.6202H23.0057C23.3209 76.186 23.6319 74.7226 23.968 73.2613C24.8323 69.3784 25.6819 65.4914 26.5838 61.6168C26.7549 60.8757 26.709 60.2599 26.2581 59.6482C26.0013 59.2975 25.8072 58.9009 25.4231 58.2537C24.8636 58.9072 24.4085 59.5063 23.8825 60.0386C22.6153 61.3141 21.2124 60.9592 20.701 59.2453C19.7992 56.2309 18.8952 53.2185 18.031 50.1936C17.8744 49.6467 17.651 49.4463 17.0749 49.4713C14.9205 49.5653 12.7265 49.3857 10.6138 49.7218C6.21531 50.4253 2.92112 54.469 2.86267 58.9322C2.82718 61.5354 2.84597 64.1386 2.86267 66.7439C2.86267 67.3472 2.69358 67.8294 2.11323 68.0737C1.42433 68.366 0.541288 67.9088 0.549638 67.1489C0.593477 63.6146 0.359669 60.0261 0.889912 56.5607C1.68528 51.2875 6.5535 47.3879 11.8831 47.1792C13.9706 47.0998 16.0582 47.1541 18.1312 47.1458C19.9975 47.1458 20.6613 46.3901 20.7908 44.5551C20.891 43.1147 20.4839 42.1544 19.3295 41.1962C16.4068 38.7913 14.5844 35.7059 14.3819 31.775C12.8955 31.5662 11.547 31.0652 10.4155 30.084C8.50121 28.4307 7.67661 26.316 7.8812 23.8213C7.98236 22.7586 8.46783 21.7693 9.24651 21.039C10.0252 20.3088 11.0436 19.8877 12.1106 19.8549C12.5448 19.8382 12.9832 19.8549 13.3632 19.8549C13.3632 18.8383 13.3632 17.9093 13.3632 16.9803C13.3558 16.9179 13.3362 16.8575 13.3054 16.8027C13.2745 16.7478 13.2332 16.6997 13.1836 16.6609C12.4112 16.091 12.4258 15.3082 12.5574 14.4752C13.6074 7.14576 19.914 1.01456 27.2581 0.152393C27.4577 0.116052 27.6545 0.0651181 27.8468 0L31.1242 0ZM21.131 16.9448C21.131 17.3811 21.1102 17.6922 21.131 18.0011C21.3502 20.715 20.4651 23.0113 18.342 24.6981C16.7492 25.9694 15.9998 27.4349 16.5655 29.4619C16.612 29.718 16.6261 29.9789 16.6073 30.2385C16.6281 33.1465 17.4089 35.7768 19.3858 37.9938C21.4269 40.3067 24.0349 42.0485 26.9533 43.0479C28.6855 43.6626 30.5774 43.6567 32.3058 43.0312C35.5541 41.9196 38.3915 39.8541 40.4473 37.1045C41.3659 35.8875 42.0903 34.5431 42.2802 33.0192C42.5161 31.1403 42.6247 29.2386 42.7499 27.343C42.7646 27.1343 42.5725 26.8712 42.4076 26.7001C41.5204 25.7836 40.606 24.8922 39.7104 23.9862C39.0554 23.3495 38.537 22.5858 38.1871 21.742C37.8371 20.8981 37.6629 19.9918 37.675 19.0783C37.675 18.402 37.6876 17.7235 37.675 17.0492C37.675 16.8655 37.6082 16.5899 37.4809 16.5169C36.4816 15.9493 35.727 15.0327 35.362 13.9429C32.4018 16.448 29.0095 17.1244 25.3584 16.9553C23.9847 16.8906 22.6069 16.9448 21.131 16.9448ZM48.1797 69.7605L48.6599 69.7291C49.3717 68.9379 50.0564 68.1196 50.8017 67.3618C51.3507 66.8044 52.071 66.8232 52.5344 67.3138C52.9978 67.8044 52.979 68.4599 52.4592 68.9839C51.4739 69.988 50.4719 70.9754 49.4448 71.9336C48.8185 72.5119 48.1213 72.491 47.472 71.9482C47.2132 71.7395 46.9815 71.4827 46.7393 71.2447L42.4013 67.0111L40.5225 68.9588L48.4302 77.33L61.6654 64.314L59.4589 61.8548C58.4777 62.9132 57.5571 63.9424 56.5989 64.9277C56.052 65.4914 55.3464 65.5143 54.86 65.0613C54.7327 64.9468 54.633 64.8049 54.5685 64.6463C54.504 64.4877 54.4764 64.3166 54.4876 64.1457C54.4989 63.9749 54.5488 63.8088 54.6335 63.6601C54.7182 63.5113 54.8356 63.3837 54.9769 63.2869C56.1918 62.3892 56.5154 61.2348 56.3213 59.8257C56.2732 59.4687 56.3213 59.0971 56.3025 58.7339C56.1668 54.3729 52.9227 50.4233 48.6077 49.7281C46.4971 49.3899 44.3031 49.5715 42.1487 49.4692C41.535 49.44 41.297 49.6655 41.1342 50.2312C40.2657 53.254 39.366 56.2664 38.4662 59.2787C37.9694 60.9488 36.5665 61.2974 35.3349 60.0678C34.8005 59.5376 34.3078 58.9635 33.7212 58.3268C33.4039 58.8675 33.2014 59.2892 32.9279 59.6587C32.4791 60.2724 32.4227 60.8799 32.621 61.6231C33.0177 63.1032 33.2995 64.6146 33.6314 66.1114C34.479 69.94 35.3279 73.7714 36.1783 77.6056H45.2884L45.4179 77.4198C45.198 77.2863 44.9886 77.1362 44.7916 76.9709C42.5412 74.7692 40.2915 72.5627 38.0425 70.3512C37.1886 69.5058 37.1866 68.773 38.0299 67.9296C39.0236 66.936 40.034 65.9569 41.0381 64.9757C42.0423 63.9946 42.7082 63.98 43.6873 64.9924C45.2049 66.5602 46.685 68.1718 48.1797 69.7667V69.7605ZM21.3753 48.6405C23.657 50.1018 25.8322 51.634 28.1411 52.92C28.6274 53.1756 29.1718 53.3001 29.7209 53.2815C30.2699 53.2628 30.8046 53.1015 31.2725 52.8135C33.312 51.561 35.3057 50.2458 37.3264 48.9494C37.4893 48.845 37.6354 48.7094 37.8379 48.5486C36.2868 47.3754 36.0113 45.7471 36.0968 43.9163C33.9571 44.9601 31.8987 45.841 29.6066 45.8473C27.3144 45.8536 25.2394 44.9455 23.1831 43.9685C22.8554 46.9579 22.8554 46.9579 21.3753 48.6405ZM29.0158 61.2932C27.805 66.7585 26.6067 72.1716 25.4022 77.616H33.7671C32.5542 72.1465 31.3539 66.7314 30.1473 61.2932H29.0158ZM13.6784 22.2013C13.1711 22.2013 12.7557 22.2013 12.3423 22.2013C11.0376 22.2431 10.2026 23.076 10.1984 24.3808C10.1959 24.8728 10.2519 25.3633 10.3654 25.8421C10.8184 27.6791 12.5887 29.2365 14.1982 29.2135C14.0249 26.8942 13.86 24.5707 13.6784 22.2013ZM45.4972 22.2013C45.3218 24.6167 45.1527 26.936 44.9836 29.2782C47.4324 28.9359 49.1066 26.7481 48.9646 24.2054C48.9041 23.0927 48.1651 22.2995 47.0608 22.2076C46.5744 22.1763 46.0817 22.2097 45.4972 22.2097V22.2013ZM40.0695 16.9824C39.7209 20.262 40.7647 22.6585 43.0318 23.7796C43.1821 21.5124 43.3324 19.2704 43.4848 16.9824H40.0695ZM15.672 16.9928C15.8265 19.1848 15.9747 21.3225 16.1271 23.4643C18.5445 21.8736 19.1311 19.6441 18.699 16.9928H15.672ZM33.1429 54.421L36.4559 57.8091L38.4767 51.0015L33.1429 54.421ZM26.0013 54.3959L20.701 50.9994C21.4149 53.4085 22.0621 55.5921 22.7092 57.7653L26.0013 54.3959ZM31.8799 56.782C31.2286 55.7173 30.3685 55.3687 29.1661 55.4293C28.2664 55.4752 27.8989 56.0806 27.4585 56.5983C27.329 56.7486 27.6672 57.3039 27.805 57.6692C27.8509 57.7882 27.949 57.8884 27.9929 58.0095C28.258 58.7422 28.7548 58.9406 29.5398 58.9489C30.3748 58.9593 30.9071 58.7401 31.2098 57.949C31.4047 57.5443 31.6286 57.1543 31.8799 56.782ZM56.2628 72.944L51.8538 77.6035H56.2649L56.2628 72.944Z" fill="white"/>
<path id="Vector_2" d="M33.326 25.9359C33.326 26.7417 33.3656 27.5517 33.326 28.3533C33.2132 30.2321 31.5327 31.7749 29.6957 31.7477C28.9817 31.7373 28.5079 31.3532 28.4619 30.7165C28.4097 30.0025 28.7772 29.5975 29.4514 29.4389C30.8104 29.1174 31.0046 28.8773 31.0067 27.4828C31.0067 26.2303 31.0067 24.9777 31.0067 23.7377C31.0067 22.815 31.4492 22.3119 32.1924 22.314C32.9356 22.3161 33.3343 22.7962 33.3448 23.7523C33.3448 24.4788 33.3448 25.2136 33.3448 25.9359H33.326Z" fill="white"/>
</g>
</g>
</svg>
