<svg width="56" height="61" viewBox="0 0 56 61" fill="none" xmlns="http://www.w3.org/2000/svg">
<g id="Capa 6">
<g id="Capa 1">
<path id="Vector" d="M44.1482 0.731689C44.5371 0.937039 44.9594 1.0987 45.3133 1.35793C46.0736 1.92446 46.3211 2.74732 46.3328 3.66047C46.3328 4.14108 46.3328 4.62168 46.3328 5.01927C47.2314 5.01927 48.0804 4.92169 48.9048 5.04694C49.6912 5.16637 50.5301 5.37754 51.1942 5.79261C53.0511 6.95771 54.6079 8.43594 55.0827 10.7021C55.5269 12.8211 55.1046 14.7799 53.5987 16.3674C51.4257 18.6452 49.1815 20.8428 46.9445 23.042C46.7281 23.2406 46.5589 23.485 46.449 23.7574C46.3392 24.0297 46.2915 24.3232 46.3095 24.6163C46.3313 31.5735 46.3182 38.5306 46.3328 45.4862C46.3469 45.7158 46.3114 45.9457 46.2287 46.1603C46.146 46.3749 46.0181 46.5692 45.8536 46.73C42.5282 50.0632 39.2091 53.4031 35.8964 56.7499C34.8987 57.7533 33.9128 58.7684 32.8817 59.7369C32.6018 59.9868 32.249 60.14 31.8753 60.1738C30.6971 60.251 29.5145 60.2685 28.3319 60.2685C19.982 60.2685 11.6321 60.2685 3.28219 60.2685C1.77193 60.2569 0.746635 59.5694 0.392734 58.3068C0.298577 57.9317 0.25595 57.5457 0.266029 57.1591C0.260204 39.3913 0.254864 21.6235 0.250009 3.85562C0.247096 2.26089 0.940333 1.25599 2.40254 0.731689H44.1482ZM19.432 48.0786C19.5423 47.894 19.6675 47.7186 19.8063 47.5543C25.3405 42.0142 30.8748 36.4771 36.409 30.9428C36.5541 30.7856 36.7109 30.6395 36.878 30.5059C37.2959 30.1986 37.7285 30.2146 38.0897 30.5787C38.4509 30.9428 38.464 31.3739 38.1683 31.7919C38.0264 31.9754 37.8695 32.1469 37.6994 32.3046C32.6137 37.3873 27.461 42.406 22.4744 47.5849C20.4675 49.669 18.2669 51.1574 15.491 51.9919C12.4006 52.9196 9.38879 54.1109 6.34642 55.1959C5.9095 55.3503 5.51774 55.3838 5.15801 55.0503C4.79828 54.7168 4.86673 54.3148 5.01237 53.8852C6.46875 49.784 7.90037 45.6741 9.36986 41.5773C9.54161 41.0879 9.81624 40.6409 10.1752 40.2666C21.0777 29.3263 32.0006 18.4068 42.9438 7.50823C44.0681 6.39264 44.6128 5.35133 44.438 3.8163C44.3303 2.87402 44.1628 2.61188 43.2132 2.61188H3.34045C2.39234 2.61188 2.14476 2.86383 2.14476 3.82213C2.14476 21.6133 2.14476 39.4044 2.14476 57.1955C2.14476 58.1422 2.39671 58.3898 3.35938 58.3898C12.3889 58.3898 21.4185 58.3937 30.448 58.4014C30.9359 58.4014 31.067 58.2558 31.0641 57.7825C31.0452 54.5653 31.051 51.3482 31.0554 48.131C31.0612 46.0474 32.0981 45.0056 34.1662 45.0056C37.344 45.0056 40.5223 45.0056 43.7011 45.0056H44.3667V25.6198C43.0807 26.9159 41.8908 28.1131 40.7053 29.3059C40.5481 29.4765 40.3723 29.6289 40.181 29.7603C40.0123 29.8809 39.805 29.9349 39.5988 29.9121C39.3927 29.8892 39.2022 29.7911 39.064 29.6365C38.8998 29.494 38.7957 29.2945 38.7727 29.0783C38.7498 28.8621 38.8096 28.6452 38.9402 28.4714C39.076 28.2828 39.2312 28.109 39.4033 27.9529C41.5544 25.8018 43.7069 23.6522 45.9265 21.4356L43.5496 18.1281L17.0173 44.6517C17.7717 45.7222 18.5582 46.8407 19.432 48.0786ZM15.4765 43.1881L42.0263 16.6368L38.898 14.3474L12.2986 40.9467C12.8084 41.2729 13.3924 41.6196 13.9458 42.0099C14.4992 42.4002 15.0177 42.8327 15.4765 43.1881ZM50.0553 17.3344C50.8403 16.5028 51.7491 15.6771 52.4904 14.7217C53.4428 13.4954 53.5783 12.0682 53.0889 10.5928C52.7394 9.53842 51.9588 8.80877 51.1796 8.07913C49.716 6.70867 47.5503 6.35623 45.8828 7.45434C44.7424 8.20438 43.8016 9.25734 42.8346 10.1195C44.2138 11.2686 45.5711 12.2458 46.7377 13.4138C47.9042 14.5819 48.9193 15.9669 50.0553 17.3344ZM42.9656 46.8858H42.4035C39.6529 46.8858 36.9013 46.8858 34.1487 46.8858C33.1758 46.8858 32.953 47.1072 32.9516 48.0815C32.9516 50.8341 32.9516 53.5861 32.9516 56.3377C32.9516 56.5154 32.9734 56.6931 32.9851 56.8693L42.9656 46.8858ZM17.7601 49.1505C16.1697 46.1955 13.9735 43.9876 11.0476 42.4511C10.3413 44.4377 9.64366 46.3834 8.9679 48.3306C8.95634 48.4088 8.96237 48.4886 8.98555 48.5641C9.00873 48.6397 9.04847 48.7092 9.10189 48.7675C9.86794 49.5588 10.6447 50.3355 11.4321 51.0977C11.4902 51.1513 11.5597 51.1911 11.6354 51.214C11.711 51.2369 11.7909 51.2425 11.869 51.2302C13.8162 50.5559 15.7575 49.8612 17.7601 49.1505ZM40.1315 12.9653C43.0297 14.7375 45.4664 17.1717 47.2416 20.068L48.5319 18.7573C46.8419 15.8088 44.3974 13.3633 41.4495 11.672L40.1315 12.9653ZM7.34841 52.8512L9.69172 52.0108L8.19893 50.4714C7.91348 51.2681 7.65425 51.9963 7.34841 52.8512Z" fill="white"/>
<path id="Vector_2" d="M21.6566 12.7537H10.0332C9.80073 12.7591 9.56812 12.7484 9.33709 12.7216C9.12089 12.7077 8.91856 12.6103 8.77288 12.45C8.6272 12.2896 8.54959 12.0789 8.55647 11.8624C8.53127 11.647 8.59045 11.4302 8.7216 11.2575C8.85274 11.0848 9.04567 10.9696 9.2599 10.9361C9.46707 10.8916 9.67866 10.8711 9.89051 10.8749C17.7132 10.8749 25.5354 10.8749 33.3572 10.8749C33.5693 10.8704 33.7813 10.8894 33.9892 10.9317C34.4931 11.0468 34.7582 11.3847 34.7174 11.8959C34.7149 12.113 34.6287 12.3208 34.4768 12.476C34.3249 12.6312 34.1189 12.7218 33.9018 12.7289C33.6709 12.7501 33.439 12.7588 33.2072 12.7551L21.6566 12.7537Z" fill="white"/>
<path id="Vector_3" d="M19.1519 17.543H10.0932C9.91993 17.543 9.74371 17.543 9.5704 17.543C8.91648 17.495 8.54219 17.144 8.55093 16.5949C8.55967 16.0459 8.93833 15.7095 9.59807 15.6614C9.69419 15.6614 9.79031 15.6614 9.88934 15.6614H28.3548C28.5287 15.6609 28.7024 15.6721 28.8747 15.6949C29.3917 15.7663 29.6641 16.0954 29.7063 16.5906C29.7456 17.0537 29.3728 17.444 28.8514 17.5197C28.6403 17.5453 28.4276 17.5555 28.215 17.5503L19.1519 17.543Z" fill="white"/>
<path id="Vector_4" d="M16.5895 20.4279H23.1593C23.334 20.4279 23.5088 20.4206 23.6821 20.4366C24.2938 20.4963 24.6681 20.8575 24.6681 21.3731C24.6681 21.8886 24.2923 22.2469 23.6835 22.3154C23.5289 22.3263 23.3739 22.3292 23.219 22.3241C18.8003 22.3241 14.3826 22.3241 9.9659 22.3241C9.7533 22.3268 9.54085 22.3112 9.33092 22.2775C8.82119 22.1843 8.54593 21.8639 8.55904 21.3483C8.57069 20.859 8.85032 20.5561 9.32947 20.4745C9.55899 20.4412 9.7908 20.4261 10.0227 20.4294C12.2112 20.4255 14.4001 20.425 16.5895 20.4279Z" fill="white"/>
<path id="Vector_5" d="M14.4389 25.2164C15.9287 25.2164 17.4186 25.2164 18.907 25.2164C19.1392 25.2101 19.3714 25.2267 19.6003 25.2659C19.7942 25.3091 19.9687 25.4148 20.0968 25.5667C20.2249 25.7187 20.2995 25.9085 20.3093 26.107C20.3191 26.3055 20.2634 26.5017 20.1508 26.6655C20.0382 26.8293 19.875 26.9515 19.6862 27.0136C19.4638 27.0773 19.2329 27.1062 19.0017 27.0995C15.9452 27.1053 12.8868 27.1053 9.82649 27.0995C9.65302 27.1015 9.4798 27.0858 9.30948 27.0529C8.8012 26.9509 8.52886 26.6291 8.55216 26.1135C8.57546 25.598 8.87257 25.2819 9.38667 25.247C9.94592 25.2076 10.5081 25.2193 11.0673 25.2164C12.1887 25.2135 13.316 25.2164 14.4389 25.2164Z" fill="white"/>
<path id="Vector_6" d="M11.9288 31.8795C11.1744 31.8795 10.42 31.8911 9.66555 31.8795C8.93736 31.8649 8.53248 31.4935 8.55142 30.9008C8.56889 30.3357 8.95775 30.0109 9.67574 30.0066C11.204 29.9978 12.7317 29.9978 14.259 30.0066C14.9566 30.0066 15.3498 30.3677 15.3454 30.9372C15.3411 31.5066 14.9435 31.862 14.2502 31.8765C13.4769 31.8984 12.7021 31.8795 11.9288 31.8795Z" fill="white"/>
</g>
</g>
</svg>
