<svg width="100" height="101" viewBox="0 0 100 101" fill="none" xmlns="http://www.w3.org/2000/svg">
<g id="Group 213">
<g id="Capa 2">
<g id="Capa 1">
<path id="Vector" d="M62.8994 91.1141L54.941 67.8574H45.061L33.9844 100.232H39.6794C40.6091 98.2848 42.0713 96.6401 43.8967 95.4888C45.7221 94.3374 47.8362 93.7264 49.9944 93.7264C52.1526 93.7264 54.2666 94.3374 56.0921 95.4888C57.9175 96.6401 59.3796 98.2848 60.3094 100.232H66.0177L62.8994 91.1141ZM53.6894 87.3991C51.2681 86.7908 48.734 86.7908 46.3127 87.3991L44.6827 87.8158L48.3494 76.9141H51.7677L55.3344 87.8158L53.6894 87.3991Z" fill="white" fill-opacity="0.1"/>
<path id="Vector_2" d="M88.0271 70.0188L65.9538 59.2021L58.9688 66.1871L74.0287 96.9138L78.0554 92.8855C77.3358 90.8508 77.2069 88.654 77.6837 86.5492C78.1605 84.4444 79.2234 82.5175 80.7495 80.9916C82.2757 79.4656 84.2026 78.4029 86.3075 77.9264C88.4124 77.4498 90.6092 77.579 92.6437 78.2988L96.6804 74.2621L88.0271 70.0188ZM78.8871 73.8988C76.7459 75.1825 74.9541 76.9743 73.6704 79.1155L72.8138 80.5655L67.6954 70.2671L70.1154 67.8488L80.3438 73.0388L78.8871 73.8988Z" fill="white" fill-opacity="0.1"/>
<path id="Vector_3" d="M69.7854 12.2041L58.9688 34.2774L65.9538 41.2624L96.6804 26.2024L92.6521 22.1758C90.6174 22.8954 88.4206 23.0243 86.3158 22.5475C84.211 22.0707 82.2841 21.0078 80.7582 19.4817C79.2322 17.9555 78.1695 16.0286 77.693 13.9237C77.2164 11.8188 77.3456 9.62201 78.0654 7.58745L74.0287 3.55078L69.7854 12.2041ZM73.6654 21.3441C74.9491 23.4853 76.7409 25.2771 78.8821 26.5608L80.3304 27.4174L70.0321 32.5358L67.6154 30.1158L72.8054 19.8874L73.6654 21.3441Z" fill="white" fill-opacity="0.1"/>
<path id="Vector_4" d="M37.1027 9.35076L45.061 32.6074H54.941L66.0177 0.232422H60.3227C59.3877 2.17411 57.925 3.81343 56.1021 4.96291C54.2791 6.11239 52.1695 6.7256 50.0144 6.73242C47.8571 6.72771 45.7448 6.11551 43.9193 4.96594C42.0938 3.81636 40.6291 2.1759 39.6927 0.232422L33.9844 0.232422L37.1027 9.35076ZM46.3127 13.0658C48.734 13.6741 51.2681 13.6741 53.6894 13.0658L55.3194 12.6491L51.6527 23.5508H48.2344L44.6677 12.6491L46.3127 13.0658Z" fill="white" fill-opacity="0.1"/>
<path id="Vector_5" d="M90.8817 37.3342L67.625 45.2925V55.1725L100 66.2492V60.5542C98.0523 59.6244 96.4077 58.1623 95.2564 56.3368C94.105 54.5114 93.494 52.3973 93.494 50.2392C93.494 48.081 94.105 45.9669 95.2564 44.1415C96.4077 42.316 98.0523 40.8539 100 39.9242V34.2158L90.8817 37.3342ZM87.1667 46.5442C86.5583 48.9654 86.5583 51.4996 87.1667 53.9208L87.5833 55.5508L76.6817 51.8842V48.4658L87.5833 44.8992L87.1667 46.5442Z" fill="white" fill-opacity="0.1"/>
<path id="Vector_6" d="M30.2153 88.2605L41.032 66.1871L34.047 59.2021L3.32031 74.2621L7.34865 78.2888C9.38329 77.5692 11.5801 77.4403 13.6849 77.9171C15.7898 78.3939 17.7166 79.4568 19.2426 80.9829C20.7685 82.509 21.8312 84.436 22.3078 86.5409C22.7843 88.6458 22.6552 90.8426 21.9353 92.8771L25.972 96.9138L30.2153 88.2605ZM26.3353 79.1205C25.0516 76.9793 23.2598 75.1875 21.1186 73.9038L19.6686 73.0471L29.967 67.9288L32.3853 70.3488L27.1953 80.5771L26.3353 79.1205Z" fill="white" fill-opacity="0.1"/>
<path id="Vector_7" d="M11.9736 30.4458L34.047 41.2624L41.032 34.2774L25.972 3.55078L21.9453 7.57911C22.6649 9.61376 22.7938 11.8106 22.317 13.9154C21.8403 16.0202 20.7773 17.9471 19.2512 19.473C17.7251 20.999 15.7981 22.0617 13.6932 22.5382C11.5883 23.0148 9.39154 22.8856 7.35698 22.1658L3.32031 26.2024L11.9736 30.4458ZM21.1136 26.5658C23.2548 25.2821 25.0466 23.4903 26.3303 21.3491L27.187 19.9008L32.3053 30.1991L29.8853 32.6158L19.657 27.4258L21.1136 26.5658Z" fill="white" fill-opacity="0.1"/>
<path id="Vector_8" d="M9.11833 63.1308L32.375 55.1725V45.2925L0 34.2158V39.9108C1.94169 40.8459 3.58101 42.3085 4.73049 44.1315C5.87996 45.9544 6.49318 48.0641 6.5 50.2192C6.49529 52.3764 5.88309 54.4888 4.73351 56.3142C3.58394 58.1397 1.94347 59.6045 0 60.5408L0 66.2492L9.11833 63.1308ZM12.8333 53.9208C13.4417 51.4996 13.4417 48.9654 12.8333 46.5442L12.4167 44.9142L23.3183 48.5808V51.9992L12.4167 55.5658L12.8333 53.9208Z" fill="white" fill-opacity="0.1"/>
</g>
</g>
</g>
</svg>
