<svg width="227" height="38" viewBox="0 0 227 38" fill="none" xmlns="http://www.w3.org/2000/svg">
<g id="Group 22">
<path id="Star 1" d="M16.6973 3.75131C17.4238 2.23965 19.5763 2.23966 20.3027 3.75132L23.4779 10.359C23.7651 10.9565 24.3297 11.3729 24.9854 11.4708L32.1717 12.5433C33.7956 12.7856 34.4518 14.7732 33.2915 15.9348L28.0244 21.2077C27.5681 21.6645 27.3604 22.3136 27.4668 22.9506L28.7009 30.3404C28.9749 31.9815 27.242 33.2202 25.778 32.4297L19.4502 29.0131C18.8572 28.6929 18.1428 28.6929 17.5498 29.0131L11.222 32.4297C9.75797 33.2202 8.02507 31.9815 8.29914 30.3404L9.53324 22.9506C9.63961 22.3136 9.43191 21.6645 8.97555 21.2077L3.70847 15.9348C2.54815 14.7732 3.2044 12.7856 4.82826 12.5433L12.0146 11.4708C12.6703 11.3729 13.2349 10.9565 13.5221 10.359L16.6973 3.75131Z" fill="#1C1C34"/>
<path id="Star 2" d="M64.2065 3.63397C64.9402 2.14748 67.0598 2.14748 67.7935 3.63397L71.1186 10.3715C71.4099 10.9617 71.9731 11.3709 72.6245 11.4655L80.0597 12.5459C81.7002 12.7843 82.3552 14.8003 81.1682 15.9573L75.788 21.2017C75.3166 21.6612 75.1015 22.3232 75.2128 22.972L76.4829 30.3772C76.7631 32.011 75.0482 33.2569 73.581 32.4856L66.9307 28.9893C66.348 28.683 65.652 28.683 65.0693 28.9893L58.419 32.4856C56.9518 33.2569 55.2369 32.011 55.5171 30.3772L56.7872 22.972C56.8985 22.3232 56.6834 21.6612 56.212 21.2017L50.8318 15.9573C49.6448 14.8003 50.2998 12.7843 51.9403 12.5459L59.3755 11.4655C60.0269 11.3709 60.5901 10.9617 60.8814 10.3715L64.2065 3.63397Z" fill="#1C1C34"/>
<path id="Star 3" d="M111.697 3.75131C112.424 2.23965 114.576 2.23966 115.303 3.75132L118.478 10.359C118.765 10.9565 119.33 11.3729 119.985 11.4708L127.172 12.5433C128.796 12.7856 129.452 14.7732 128.292 15.9348L123.024 21.2077C122.568 21.6645 122.36 22.3136 122.467 22.9506L123.701 30.3404C123.975 31.9815 122.242 33.2202 120.778 32.4297L114.45 29.0131C113.857 28.6929 113.143 28.6929 112.55 29.0131L106.222 32.4297C104.758 33.2202 103.025 31.9815 103.299 30.3404L104.533 22.9506C104.64 22.3136 104.432 21.6645 103.976 21.2077L98.7085 15.9348C97.5482 14.7732 98.2044 12.7856 99.8283 12.5433L107.015 11.4708C107.67 11.3729 108.235 10.9565 108.522 10.359L111.697 3.75131Z" fill="#1C1C34"/>
<path id="Star 4" d="M159.207 3.63397C159.94 2.14748 162.06 2.14748 162.793 3.63397L166.119 10.3715C166.41 10.9617 166.973 11.3709 167.624 11.4655L175.06 12.5459C176.7 12.7843 177.355 14.8003 176.168 15.9573L170.788 21.2017C170.317 21.6612 170.102 22.3232 170.213 22.972L171.483 30.3772C171.763 32.011 170.048 33.2569 168.581 32.4856L161.931 28.9893C161.348 28.683 160.652 28.683 160.069 28.9893L153.419 32.4856C151.952 33.2569 150.237 32.011 150.517 30.3772L151.787 22.972C151.898 22.3232 151.683 21.6612 151.212 21.2017L145.832 15.9573C144.645 14.8003 145.3 12.7843 146.94 12.5459L154.376 11.4655C155.027 11.3709 155.59 10.9617 155.881 10.3715L159.207 3.63397Z" fill="#1C1C34"/>
<path id="Star 5" d="M206.697 3.75131C207.424 2.23965 209.576 2.23966 210.303 3.75132L213.478 10.359C213.765 10.9565 214.33 11.3729 214.985 11.4708L222.172 12.5433C223.796 12.7856 224.452 14.7732 223.292 15.9348L218.024 21.2077C217.568 21.6645 217.36 22.3136 217.467 22.9506L218.701 30.3404C218.975 31.9815 217.242 33.2202 215.778 32.4297L209.45 29.0131C208.857 28.6929 208.143 28.6929 207.55 29.0131L201.222 32.4297C199.758 33.2202 198.025 31.9815 198.299 30.3404L199.533 22.9506C199.64 22.3136 199.432 21.6645 198.976 21.2077L193.708 15.9348C192.548 14.7732 193.204 12.7856 194.828 12.5433L202.015 11.4708C202.67 11.3729 203.235 10.9565 203.522 10.359L206.697 3.75131Z" fill="#1C1C34"/>
</g>
</svg>
