<svg width="47" height="56" viewBox="0 0 47 56" fill="none" xmlns="http://www.w3.org/2000/svg">
<g id="Vector">
<path d="M43.9968 23.9625C43.9968 34.7476 35.0279 44.5136 28.9559 49.8894C26.6136 51.9631 25.4425 53 23.5001 53C21.5577 53 20.3865 51.9631 18.0443 49.8894C11.9723 44.5136 3.00342 34.7476 3.00342 23.9625C3.00342 18.4029 5.16288 13.071 9.00675 9.13978C12.8506 5.20854 18.064 3 23.5001 3C28.9361 3 34.1496 5.20854 37.9934 9.13978C41.8373 13.071 43.9968 18.4029 43.9968 23.9625Z" stroke="#0CB2D5" stroke-width="5" stroke-linecap="round" stroke-linejoin="round"/>
<path d="M23.5001 30.95C27.2734 30.95 30.3323 27.8216 30.3323 23.9625C30.3323 20.1034 27.2734 16.975 23.5001 16.975C19.7268 16.975 16.6679 20.1034 16.6679 23.9625C16.6679 27.8216 19.7268 30.95 23.5001 30.95Z" stroke="#0CB2D5" stroke-width="5" stroke-linecap="round" stroke-linejoin="round"/>
</g>
</svg>
