<svg width="62" height="56" viewBox="0 0 62 56" fill="none" xmlns="http://www.w3.org/2000/svg">
<path id="Vector" d="M58.8301 17.6548C60.0201 16.9548 60.4174 15.4225 59.7173 14.2324C59.0173 13.0424 57.485 12.6451 56.2949 13.3452L58.8301 17.6548ZM5.70505 13.3452C4.51497 12.6451 2.98271 13.0424 2.28266 14.2324C1.58262 15.4225 1.97987 16.9548 3.16995 17.6548L5.70505 13.3452ZM34.1689 29.261L32.9013 27.1061L34.1689 29.261ZM27.8311 29.261L29.0987 27.1061H29.0987L27.8311 29.261ZM56.2949 13.3452L32.9013 27.1061L35.4364 31.4158L58.8301 17.6548L56.2949 13.3452ZM29.0987 27.1061L5.70505 13.3452L3.16995 17.6548L26.5636 31.4158L29.0987 27.1061ZM32.9013 27.1061C31.7278 27.7964 30.2722 27.7964 29.0987 27.1061L26.5636 31.4158C29.3019 33.0266 32.6981 33.0266 35.4364 31.4158L32.9013 27.1061ZM27.875 5.5H34.125V0.5H27.875V5.5ZM34.125 50.5H27.875V55.5H34.125V50.5ZM27.875 50.5C21.9118 50.5 17.6908 50.4947 14.4922 50.0646C11.3655 49.6443 9.59259 48.8597 8.30393 47.5711L4.7684 51.1066C7.1409 53.4791 10.1448 54.5251 13.826 55.0201C17.4352 55.5053 22.0531 55.5 27.875 55.5V50.5ZM0.375 28C0.375 33.8219 0.369691 38.4398 0.854939 42.049C1.34986 45.7302 2.39589 48.7341 4.7684 51.1066L8.30393 47.5711C7.01527 46.2824 6.23073 44.5095 5.81035 41.3828C5.38031 38.1842 5.375 33.9632 5.375 28H0.375ZM56.625 28C56.625 33.9632 56.6197 38.1842 56.1896 41.3828C55.7693 44.5095 54.9847 46.2824 53.6961 47.5711L57.2316 51.1066C59.6041 48.7341 60.6501 45.7302 61.1451 42.049C61.6303 38.4398 61.625 33.8219 61.625 28H56.625ZM34.125 55.5C39.9469 55.5 44.5648 55.5053 48.174 55.0201C51.8552 54.5251 54.8591 53.4791 57.2316 51.1066L53.6961 47.5711C52.4074 48.8597 50.6345 49.6443 47.5078 50.0646C44.3092 50.4947 40.0882 50.5 34.125 50.5V55.5ZM34.125 5.5C40.0882 5.5 44.3092 5.50531 47.5078 5.93535C50.6345 6.35573 52.4074 7.14027 53.6961 8.42893L57.2316 4.8934C54.8591 2.52089 51.8552 1.47486 48.174 0.979939C44.5648 0.494691 39.9469 0.5 34.125 0.5V5.5ZM61.625 28C61.625 22.1781 61.6303 17.5602 61.1451 13.951C60.6501 10.2698 59.6041 7.2659 57.2316 4.8934L53.6961 8.42893C54.9847 9.71759 55.7693 11.4905 56.1896 14.6172C56.6197 17.8158 56.625 22.0368 56.625 28H61.625ZM27.875 0.5C22.0531 0.5 17.4352 0.494691 13.826 0.979939C10.1448 1.47486 7.1409 2.52089 4.7684 4.8934L8.30393 8.42893C9.59259 7.14027 11.3655 6.35573 14.4922 5.93535C17.6908 5.50531 21.9118 5.5 27.875 5.5V0.5ZM5.375 28C5.375 22.0368 5.38031 17.8158 5.81035 14.6172C6.23073 11.4905 7.01527 9.71759 8.30393 8.42893L4.7684 4.8934C2.39589 7.2659 1.34986 10.2698 0.854939 13.951C0.369691 17.5602 0.375 22.1781 0.375 28H5.375Z" fill="#0CB2D5"/>
</svg>
