<svg width="94" height="81" viewBox="0 0 94 81" fill="none" xmlns="http://www.w3.org/2000/svg">
<g id="Capa 2">
<g id="Capa 1">
<path id="Vector" d="M0.58525 3.24825C1.37919 1.13421 2.95767 0.5 5.13279 0.5C29.6181 0.543847 54.0971 0.553243 78.5699 0.528187C81.5624 0.528187 82.8684 1.83419 82.8684 4.83143C82.8684 12.1789 82.8684 19.5232 82.8684 26.8644V28.0013C83.1456 28.0765 83.3993 28.1423 83.6483 28.2174C84.2155 28.3432 84.7232 28.6583 85.0877 29.1107C85.4522 29.5632 85.652 30.1262 85.6543 30.7073C85.6918 34.4656 85.6824 38.2239 85.6543 41.9493C85.6707 42.1294 85.6492 42.3109 85.5911 42.4821C85.5329 42.6533 85.4395 42.8104 85.3169 42.9432C85.1942 43.0761 85.045 43.1817 84.879 43.2533C84.713 43.3248 84.5337 43.3607 84.3529 43.3587C83.5261 43.3587 82.9436 42.8137 82.9436 41.8131C82.9154 39.1541 82.9436 36.4904 82.9436 33.8267V30.8952H80.0544V59.5945H82.9389V57.0295C82.9389 54.3705 82.9389 51.7115 82.9389 49.0431C82.9328 48.6817 82.9771 48.3212 83.0704 47.972C83.1676 47.6963 83.3535 47.4606 83.5991 47.3019C83.8446 47.1433 84.1358 47.0706 84.4271 47.0953C84.7184 47.1201 84.9932 47.2408 85.2085 47.4385C85.4238 47.6363 85.5674 47.8999 85.6167 48.1881C85.6527 48.4574 85.6653 48.7293 85.6543 49.0008C85.6543 52.3551 85.6543 55.7109 85.6543 59.0683C85.6543 61.1354 85.0013 61.9387 82.8355 62.4273V63.3669C82.8355 67.6607 82.8355 71.953 82.8355 76.2437C82.8355 79.1658 81.4966 80.4718 78.5605 80.4718C54.1096 80.4718 29.6588 80.4812 5.20795 80.5C3.01405 80.5 1.37919 79.9081 0.542969 77.7705L0.58525 3.24825ZM50.6504 54.0557C49.8565 54.0557 49.1941 54.0933 48.5364 54.0557C45.37 53.8537 43.1104 51.594 43.0211 48.4464C42.9553 46.215 42.9506 43.9741 43.0211 41.7379C43.0882 40.3659 43.6568 39.0663 44.619 38.0859C45.5812 37.1055 46.8699 36.5127 48.2404 36.4199C49.0109 36.3682 49.7907 36.4199 50.6363 36.4199C50.6363 35.8609 50.6363 35.4803 50.6363 35.081C50.6833 33.3475 51.745 32.2623 53.4551 32.2153C54.3633 32.1903 55.27 32.1903 56.1751 32.2153C57.9321 32.2623 58.961 33.2817 59.0502 35.034C59.0502 35.4427 59.0502 35.8562 59.0502 36.3494C60.7555 36.3494 62.3387 36.4011 63.889 36.3494C64.6648 36.3211 65.4304 36.1623 66.1534 35.8796C69.362 34.5642 72.5378 33.169 75.7371 31.8207C76.5733 31.4683 77.3155 31.21 77.4095 30.0449C77.4847 29.1053 78.2833 28.4946 79.2276 28.2315C79.5094 28.1517 79.7913 28.0859 80.0591 28.0154V12.1554H3.30532V76.2015C3.30532 77.6343 3.44155 77.7752 4.83682 77.7752H78.6544C79.9839 77.7752 80.1577 77.6014 80.1577 76.2531V63.287C80.1577 62.9957 80.1249 62.7045 80.1108 62.4414C78.3491 62.0562 77.4518 61.328 77.339 60.0408C77.3394 59.7918 77.2577 59.5496 77.1065 59.3517C76.9554 59.1538 76.7432 59.0113 76.5028 58.9462C73.3881 57.6355 70.2218 56.4281 67.1916 54.9342C64.5655 53.6376 61.8783 54.3141 59.1019 54.0651V68.6943C59.1019 68.9949 59.1019 69.3003 59.1019 69.6009C59.0908 70.3062 58.8008 70.9784 58.2955 71.4705C57.7902 71.9626 57.1106 72.2346 56.4053 72.2271C55.5268 72.2693 54.6483 72.2271 53.7745 72.2271C51.7075 72.1989 50.6739 71.1512 50.6739 69.0701C50.6739 64.5351 50.6739 59.9938 50.6739 55.4463L50.6504 54.0557ZM13.5373 9.29911H80.1577V4.81734C80.1577 3.40798 80.0121 3.24825 78.6215 3.24825H13.5138L13.5373 9.29911ZM48.7337 39.1869C48.3507 39.1658 47.9674 39.2231 47.6074 39.3553C47.2473 39.4875 46.918 39.6918 46.6396 39.9557C46.3612 40.2195 46.1396 40.5374 45.9883 40.8899C45.8371 41.2424 45.7594 41.6221 45.76 42.0057C45.713 43.9412 45.76 45.8767 45.76 47.8075C45.76 50.2081 46.9015 51.3356 49.3303 51.3403H64.0065V39.1259H61.0139C61.0139 39.8165 61.0139 40.446 61.0139 41.0708C61.0139 41.3762 61.0139 41.6768 61.0139 41.9775C61.0139 42.3338 60.8724 42.6756 60.6204 42.9275C60.3684 43.1795 60.0267 43.3211 59.6703 43.3211C59.314 43.3211 58.9722 43.1795 58.7203 42.9275C58.4683 42.6756 58.3268 42.3338 58.3268 41.9775C58.2704 41.0379 58.3268 40.0983 58.3268 39.1588H56.2691C56.2691 40.0701 56.2691 40.9393 56.2691 41.8084C56.2409 42.8043 55.71 43.3821 54.8597 43.368C54.0094 43.354 53.549 42.7808 53.5302 41.7473C53.5302 40.8829 53.5302 40.0185 53.5302 39.1541H51.4162C51.4162 40.1453 51.4491 41.0802 51.4162 42.0057C51.4269 42.1987 51.3939 42.3916 51.3195 42.57C51.2452 42.7484 51.1315 42.9078 50.987 43.0361C50.8424 43.1644 50.6707 43.2583 50.4847 43.3109C50.2987 43.3636 50.1032 43.3734 49.9129 43.3399C49.0203 43.2271 48.7243 42.5976 48.6961 41.8037C48.6867 40.9346 48.7102 40.0654 48.7102 39.201L48.7337 39.1869ZM77.2592 34.2072C76.9397 34.3153 76.686 34.381 76.4464 34.4844C73.4727 35.7481 70.513 37.0306 67.5205 38.2756C67.2802 38.3417 67.0722 38.4931 66.9356 38.7015C66.799 38.9099 66.743 39.161 66.7782 39.4077C66.8095 43.2788 66.8095 47.1483 66.7782 51.0162C66.7394 51.2625 66.7914 51.5145 66.9245 51.7253C67.0576 51.9361 67.2627 52.0915 67.5017 52.1625C70.513 53.4121 73.5009 54.7087 76.4981 55.9818C76.7283 56.0805 76.9679 56.1369 77.2451 56.2214L77.2592 34.2072ZM56.3302 69.4412V54.1497H53.4363V69.4647L56.3302 69.4412ZM10.7186 3.25295C8.48237 3.25295 6.31195 3.22476 4.14154 3.29053C3.9553 3.33809 3.78462 3.43325 3.64625 3.56667C3.50789 3.7001 3.40659 3.8672 3.35229 4.05159C3.27713 5.7945 3.31471 7.53741 3.31471 9.3226H10.7186V3.25295ZM53.4222 36.2978H56.3114V35.0246H53.4222V36.2978Z" fill="white"/>
<path id="Vector_2" d="M90.3155 31.9052C90.9216 31.9052 91.5276 31.877 92.1289 31.9052C92.2972 31.9021 92.4645 31.9326 92.6208 31.995C92.7772 32.0574 92.9195 32.1504 93.0394 32.2686C93.1593 32.3868 93.2544 32.5277 93.3191 32.6831C93.3838 32.8385 93.4168 33.0053 93.4161 33.1737C93.4392 33.3418 93.4268 33.5129 93.3796 33.6759C93.3324 33.8389 93.2515 33.9902 93.1421 34.12C93.0327 34.2497 92.8973 34.3551 92.7446 34.4292C92.5919 34.5033 92.4254 34.5445 92.2558 34.5501C90.9307 34.6323 89.6018 34.6323 88.2767 34.5501C88.1151 34.5391 87.9574 34.4955 87.8131 34.422C87.6688 34.3485 87.5409 34.2466 87.4369 34.1225C87.3329 33.9983 87.2551 33.8544 87.2081 33.6995C87.161 33.5445 87.1458 33.3816 87.1633 33.2206C87.1562 33.0502 87.184 32.8802 87.2452 32.721C87.3063 32.5618 87.3993 32.4167 87.5186 32.2948C87.6378 32.1729 87.7808 32.0767 87.9386 32.0121C88.0965 31.9476 88.2659 31.916 88.4364 31.9193C89.0565 31.8723 89.6907 31.9099 90.3155 31.9052Z" fill="white"/>
<path id="Vector_3" d="M90.268 58.5703C89.6948 58.5703 89.117 58.5703 88.5486 58.5703C88.192 58.5857 87.8438 58.4595 87.5798 58.2193C87.3158 57.979 87.1575 57.6443 87.1392 57.2878C87.1284 57.1116 87.1528 56.9351 87.211 56.7685C87.2692 56.6018 87.3599 56.4485 87.478 56.3173C87.5961 56.1861 87.7391 56.0797 87.8987 56.0044C88.0583 55.929 88.2313 55.8862 88.4076 55.8784C89.6432 55.8174 90.8881 55.8174 92.1236 55.8784C92.2987 55.8827 92.4711 55.9215 92.6311 55.9926C92.7911 56.0636 92.9354 56.1656 93.0559 56.2926C93.1764 56.4197 93.2706 56.5692 93.3331 56.7328C93.3956 56.8963 93.4252 57.0705 93.4202 57.2455C93.4092 57.5978 93.2612 57.9319 93.0076 58.1767C92.7541 58.4214 92.415 58.5576 92.0626 58.5562C91.48 58.5938 90.874 58.5656 90.268 58.5703Z" fill="white"/>
<path id="Vector_4" d="M90.3141 44.1902C89.7081 44.1902 89.1021 44.2278 88.5007 44.1902C88.1456 44.1796 87.8093 44.0284 87.5657 43.7699C87.3221 43.5113 87.1912 43.1665 87.2018 42.8114C87.2124 42.4563 87.3636 42.12 87.6222 41.8764C87.8807 41.6328 88.2255 41.5019 88.5806 41.5125C89.7269 41.4796 90.8778 41.4796 92.0241 41.5125C92.2 41.506 92.3753 41.5342 92.5403 41.5955C92.7052 41.6568 92.8564 41.75 92.9853 41.8697C93.1142 41.9895 93.2183 42.1334 93.2916 42.2934C93.3648 42.4534 93.4059 42.6262 93.4124 42.802C93.4188 42.9778 93.3906 43.1532 93.3293 43.3181C93.268 43.4831 93.1748 43.6343 93.0551 43.7632C92.9353 43.8921 92.7914 43.9962 92.6314 44.0694C92.4714 44.1427 92.2986 44.1838 92.1228 44.1902C91.5168 44.2372 90.906 44.1902 90.3141 44.1902Z" fill="white"/>
<path id="Vector_5" d="M90.3142 48.9679C89.7082 48.9679 89.1022 48.9679 88.5009 48.9679C88.3325 48.9749 88.1644 48.9477 88.0068 48.888C87.8491 48.8284 87.7052 48.7374 87.5836 48.6207C87.4621 48.5039 87.3654 48.3638 87.2994 48.2087C87.2334 48.0536 87.1994 47.8868 87.1995 47.7183C87.1684 47.5495 87.174 47.3761 87.2159 47.2097C87.2579 47.0433 87.3352 46.8879 87.4427 46.7541C87.5501 46.6204 87.6852 46.5113 87.8386 46.4345C87.9921 46.3577 88.1602 46.3148 88.3317 46.3089C89.6568 46.2243 90.9858 46.2243 92.3108 46.3089C92.4816 46.3163 92.6489 46.3601 92.8014 46.4374C92.9539 46.5148 93.088 46.6239 93.1948 46.7574C93.3016 46.8909 93.3786 47.0457 93.4206 47.2115C93.4626 47.3772 93.4686 47.55 93.4383 47.7183C93.436 47.8869 93.3998 48.0533 93.3319 48.2076C93.264 48.362 93.1658 48.5011 93.0431 48.6168C92.9204 48.7325 92.7758 48.8223 92.6177 48.881C92.4596 48.9397 92.2914 48.9661 92.1229 48.9585C91.5028 48.9867 90.8968 48.9679 90.3142 48.9679Z" fill="white"/>
<path id="Vector_6" d="M90.3149 39.3608C89.6807 39.3608 89.0465 39.389 88.4123 39.3608C88.2515 39.3633 88.0919 39.3338 87.9426 39.274C87.7934 39.2142 87.6576 39.1253 87.543 39.0125C87.4285 38.8997 87.3375 38.7653 87.2754 38.617C87.2134 38.4687 87.1814 38.3095 87.1814 38.1488C87.149 37.9903 87.1506 37.8267 87.1861 37.6688C87.2217 37.511 87.2904 37.3626 87.3876 37.2333C87.4849 37.104 87.6086 36.9969 87.7504 36.919C87.8922 36.8412 88.049 36.7944 88.2102 36.7817C89.5917 36.6971 90.977 36.6971 92.3585 36.7817C92.5201 36.7918 92.6778 36.8359 92.8213 36.9111C92.9647 36.9864 93.0907 37.0911 93.1909 37.2183C93.2911 37.3456 93.3633 37.4926 93.4028 37.6497C93.4424 37.8068 93.4483 37.9704 93.4202 38.13C93.421 38.2983 93.3876 38.465 93.3221 38.6201C93.2566 38.7751 93.1604 38.9153 93.0392 39.0321C92.918 39.1489 92.7743 39.2399 92.617 39.2997C92.4596 39.3594 92.2917 39.3866 92.1236 39.3796C91.5222 39.3796 90.9162 39.3796 90.3149 39.3796V39.3608Z" fill="white"/>
<path id="Vector_7" d="M90.3145 53.7785C89.7132 53.7785 89.1072 53.8161 88.5058 53.7785C88.3242 53.7829 88.1436 53.7503 87.9749 53.6826C87.8063 53.6149 87.6532 53.5136 87.525 53.3849C87.3968 53.2561 87.2961 53.1026 87.2291 52.9337C87.1621 52.7648 87.1302 52.584 87.1353 52.4024C87.1404 52.2208 87.1824 52.0421 87.2588 51.8772C87.3352 51.7123 87.4443 51.5647 87.5796 51.4434C87.7148 51.3221 87.8734 51.2295 88.0455 51.1714C88.2177 51.1133 88.3999 51.0909 88.581 51.1055C89.7273 51.0679 90.8783 51.0679 92.0246 51.1055C92.2056 51.0952 92.3868 51.122 92.5571 51.1842C92.7275 51.2464 92.8833 51.3426 93.0152 51.467C93.1471 51.5914 93.2523 51.7414 93.3243 51.9079C93.3963 52.0743 93.4336 52.2536 93.4339 52.435C93.4383 52.6106 93.4074 52.7854 93.3429 52.9488C93.2784 53.1123 93.1817 53.2611 93.0586 53.3865C92.9354 53.5118 92.7883 53.6111 92.626 53.6785C92.4637 53.7458 92.2895 53.7799 92.1138 53.7785C91.5172 53.8208 90.9112 53.7785 90.3145 53.7785Z" fill="white"/>
<path id="Vector_8" d="M11.7241 21.1237V27.1369H72.3266V21.1237H46.5259C46.1341 21.1356 45.7421 21.1073 45.3561 21.0391C45.0587 20.9776 44.792 20.8143 44.602 20.5774C44.412 20.3405 44.3104 20.0447 44.3149 19.741C44.3193 19.4374 44.4295 19.1447 44.6264 18.9135C44.8233 18.6823 45.0946 18.5269 45.3937 18.4741C45.7216 18.424 46.0533 18.4019 46.3849 18.4083H72.0494C74.2292 18.4083 75.1218 19.3056 75.1265 21.476C75.1265 23.4115 75.1265 25.347 75.1265 27.2779C75.1265 28.9315 74.1259 29.9416 72.4769 29.9416C52.1946 29.9416 31.9108 29.9416 11.6254 29.9416C9.98117 29.9416 8.99461 28.9409 8.97582 27.2779C8.95077 25.2202 8.95077 23.1641 8.97582 21.1096C8.97582 19.3995 9.96707 18.4177 11.6959 18.413C20.7628 18.413 29.8312 18.413 38.9012 18.413C39.6012 18.413 40.3106 18.5069 40.5126 19.2774C40.5617 19.515 40.5616 19.7601 40.5124 19.9977C40.4631 20.2352 40.3656 20.4601 40.226 20.6586C39.8625 20.9628 39.4034 21.1291 38.9294 21.1284C37.9335 21.1894 36.9328 21.1284 35.9369 21.1284H11.7241V21.1237Z" fill="white"/>
<path id="Vector_9" d="M28.4204 59.7213H11.198C9.65243 59.7213 8.97124 59.2938 8.99473 58.3119C9.01822 57.33 9.69471 56.9683 11.1698 56.9683C22.6796 56.9683 34.1894 56.9683 45.6992 56.9683C46.1173 56.9683 46.6387 56.8978 46.93 57.1092C47.3852 57.4057 47.7187 57.8558 47.8696 58.3777C47.8885 58.5294 47.8761 58.6834 47.8331 58.8301C47.7901 58.9768 47.7176 59.1132 47.6198 59.2307C47.5221 59.3483 47.4012 59.4445 47.2648 59.5136C47.1284 59.5826 46.9793 59.6229 46.8267 59.632C46.4687 59.6813 46.1073 59.7002 45.7462 59.6884L28.4204 59.7213Z" fill="white"/>
<path id="Vector_10" d="M28.3321 65.5138H11.3916C11.1473 65.5138 10.9218 65.5138 10.6635 65.5138C9.59705 65.4809 8.98163 64.9736 9.00042 64.142C9.01921 63.3105 9.62054 62.8501 10.6306 62.7984C10.8091 62.7984 10.9923 62.7984 11.1755 62.7984H45.6861C46.0781 62.792 46.4699 62.8234 46.8558 62.8924C47.1611 62.9379 47.4374 63.0986 47.6279 63.3415C47.8184 63.5844 47.9086 63.8911 47.88 64.1984C47.894 64.5221 47.7794 64.8382 47.5611 65.0777C47.3427 65.3171 47.0385 65.4604 46.7149 65.4762C46.3856 65.5099 46.0545 65.5225 45.7237 65.5138C39.9296 65.5201 34.1324 65.5201 28.3321 65.5138Z" fill="white"/>
<path id="Vector_11" d="M28.3355 71.3204H10.7514C9.60979 71.2969 8.98028 70.8037 8.99437 69.9486C9.00847 69.0936 9.64738 68.6191 10.7984 68.6191C18.5655 68.6191 26.3295 68.6191 34.0904 68.6191H45.6002C45.8445 68.6191 46.07 68.6191 46.3236 68.6191C47.3149 68.6802 47.9209 69.2205 47.9021 70.0285C47.8833 70.8365 47.2867 71.3439 46.2767 71.3486C42.3211 71.3486 38.3639 71.3486 34.4051 71.3486L28.3355 71.3204Z" fill="white"/>
<path id="Vector_12" d="M24.8781 36.5092H11.2026C10.9019 36.5092 10.5966 36.5092 10.2959 36.4857C9.95816 36.487 9.63356 36.355 9.39256 36.1184C9.15157 35.8818 9.01362 35.5597 9.00867 35.222C8.99724 35.0468 9.02073 34.8711 9.07779 34.7051C9.13485 34.5391 9.22433 34.3861 9.34104 34.2549C9.45774 34.1238 9.59935 34.0172 9.75762 33.9412C9.9159 33.8653 10.0877 33.8216 10.263 33.8126C10.5327 33.7812 10.8043 33.7687 11.0757 33.775H38.7039C40.1414 33.775 40.8461 34.2448 40.8226 35.1844C40.7992 36.124 40.1367 36.5092 38.7368 36.5092H24.8781Z" fill="white"/>
<path id="Vector_13" d="M24.882 42.3111H11.2065C10.873 42.3111 10.5394 42.3111 10.2106 42.2735C9.88499 42.2454 9.58137 42.0976 9.3585 41.8585C9.13563 41.6195 9.00934 41.3063 9.00408 40.9795C8.99882 40.6527 9.11495 40.3356 9.33002 40.0896C9.54508 39.8435 9.84378 39.6859 10.1683 39.6474C10.4673 39.6076 10.7687 39.5887 11.0703 39.591C20.2781 39.591 29.4875 39.591 38.6985 39.591C40.1407 39.591 40.8407 40.0608 40.8219 41.0004C40.8031 41.9399 40.1313 42.3111 38.7408 42.3111H24.882Z" fill="white"/>
<path id="Vector_14" d="M24.891 48.1128H10.8538C9.62292 48.1128 8.97461 47.643 8.97461 46.7551C8.97461 45.8672 9.64171 45.3975 10.8538 45.3975C20.2119 45.3975 29.5716 45.3975 38.9329 45.3975C39.2289 45.3975 39.6282 45.3552 39.8067 45.5196C40.24 45.8386 40.5674 46.2806 40.7463 46.788C40.7666 46.9397 40.7555 47.094 40.7137 47.2412C40.672 47.3884 40.6004 47.5255 40.5036 47.644C40.4067 47.7625 40.2865 47.8598 40.1505 47.9299C40.0144 48.0001 39.8655 48.0415 39.7128 48.0518C39.3552 48.1051 38.9935 48.1256 38.6323 48.1128H24.891Z" fill="white"/>
<path id="Vector_15" d="M24.9105 53.9148H11.0518C9.64247 53.9148 8.99886 53.4873 8.99416 52.5665C8.98947 51.6457 9.66596 51.1947 11.0424 51.1947H38.8538C40.141 51.1947 40.8222 51.6645 40.8222 52.5618C40.8222 53.4591 40.1598 53.9148 38.8585 53.9148H24.9105Z" fill="white"/>
</g>
</g>
</svg>
