<svg width="100" height="81" viewBox="0 0 100 81" fill="none" xmlns="http://www.w3.org/2000/svg">
<g id="Capa 2">
<g id="Capa 1">
<path id="Vector" d="M99.3858 55.7331C98.9959 57.5742 98.7107 59.4441 98.1981 61.2527C97.1395 64.9012 95.2907 68.272 92.7832 71.1259C92.285 71.7071 91.6316 72.0031 91.0035 71.6132C90.7835 71.4525 90.5976 71.2498 90.4563 71.0168C90.315 70.7839 90.2213 70.5253 90.1804 70.2559C90.1335 69.8732 90.5017 69.3751 90.7941 69.0213C93.0222 66.3544 94.662 63.247 95.6062 59.9026C99.5482 45.9501 90.0829 31.467 75.7298 29.5068C69.4068 28.5916 62.978 30.2088 57.8407 34.0071C52.7034 37.8053 49.2727 43.4776 48.2942 49.7911C46.2293 62.9097 55.5755 75.5048 68.7301 77.335C74.772 78.2548 80.9371 76.8346 85.9676 73.3641L86.2059 73.2052C87.0939 72.6276 87.9242 72.7034 88.4224 73.4002C88.9205 74.0969 88.7292 74.9524 87.8087 75.5986C85.5471 77.1898 83.0533 78.422 80.4155 79.2519C76.7125 80.4155 72.803 80.7712 68.9509 80.295C65.0987 79.8187 61.3936 78.5216 58.0855 76.4912C54.7774 74.4608 51.9434 71.7443 49.7748 68.5251C47.6062 65.306 46.1534 61.659 45.5145 57.8305C45.2294 56.1446 45.2294 56.1446 43.4858 56.1446H28.8294C28.5079 56.1598 28.1858 56.1513 27.8655 56.1194C27.5396 56.0763 27.2386 55.9216 27.0139 55.6816C26.7891 55.4417 26.6544 55.1312 26.6327 54.8032C26.611 54.4751 26.7036 54.1497 26.8948 53.8822C27.086 53.6147 27.364 53.4217 27.6814 53.3361C28.0263 53.2615 28.3799 53.236 28.7319 53.2603H45.0561L45.5795 48.1197H11.8085C11.8085 49.524 11.7363 50.9283 11.8374 52.3181C11.8915 53.0798 12.5594 53.2675 13.2813 53.2639C15.9816 53.2639 18.6963 53.2639 21.3857 53.2639C21.642 53.2639 21.8983 53.2639 22.1546 53.2639C23.0968 53.3253 23.7358 53.9534 23.6997 54.7692C23.6636 55.5851 23.0607 56.1266 22.1402 56.141C20.3713 56.1627 18.6024 56.141 16.8371 56.141C15.5484 56.141 14.2633 56.1627 12.9781 56.141C12.4402 56.1454 11.9067 56.0423 11.4091 55.8379C10.9115 55.6335 10.4596 55.3319 10.0801 54.9506C9.7005 54.5694 9.40083 54.1162 9.19863 53.6177C8.99642 53.1191 8.89574 52.5853 8.90248 52.0473C8.88443 50.7694 8.90248 49.4879 8.90248 48.0764C7.79423 48.0764 6.73652 48.015 5.70046 48.0764C3.12657 48.2497 1.40824 47.2281 0.599609 44.7661V3.74988C1.5021 1.28429 3.32151 0.468438 5.86652 0.500928C11.3933 0.594786 16.9238 0.529807 22.4723 0.529807C41.1646 0.540637 59.8749 0.602006 78.5744 0.500928C83.8702 0.472048 85.9098 1.22292 85.5164 7.41036C85.4947 7.77136 85.5164 8.15762 85.5164 8.62691C86.7943 8.62691 87.9458 8.62691 89.0974 8.62691C92.1948 8.62691 93.7904 10.2297 93.7904 13.3198C93.7904 20.926 93.7904 28.5285 93.812 36.1347C93.8307 36.695 94.0085 37.2384 94.3246 37.7014C96.2002 40.3139 97.5905 43.2425 98.4291 46.3472C98.8298 47.9212 99.0789 49.5312 99.4002 51.1268L99.3858 55.7331ZM82.6284 28.33V5.38518C82.6284 3.71378 82.3468 3.42859 80.6682 3.42859H5.52358C3.77636 3.42859 3.48757 3.70656 3.48757 5.42128V43.1597C3.48757 44.9285 3.72582 45.1776 5.46943 45.1776H44.7348C46.3737 45.1776 46.3593 45.1776 46.9946 43.6289C47.4387 42.546 47.9296 41.4991 48.4386 40.38H47.2509C39.8866 40.38 32.5224 40.38 25.1581 40.38C24.1311 40.3905 23.1047 40.3302 22.086 40.1995C18.4503 39.6856 15.1012 37.9389 12.5989 35.2517C10.0967 32.5644 8.59299 29.0994 8.33935 25.4363C8.0857 21.7732 9.09748 18.134 11.2055 15.1275C13.3134 12.121 16.3898 9.92942 19.92 8.91932C22.9813 7.99517 26.1111 8.29841 29.2193 8.25148C30.3419 8.25148 31.0242 8.82185 31.0242 9.69546C31.0242 10.5691 30.3672 11.1178 29.2193 11.1394C27.6128 11.1394 26.0064 11.1142 24.3964 11.1394C15.6747 11.3452 9.59559 19.1066 11.5883 27.4564C12.9492 33.1493 18.1439 37.3982 24.0137 37.4451C32.4393 37.5137 40.8613 37.4451 49.2833 37.492C49.6256 37.5125 49.9673 37.4441 50.2753 37.2936C50.5833 37.143 50.8472 36.9155 51.0414 36.6329C55.2434 31.4021 60.6402 28.0592 67.2645 26.886C69.6795 26.4528 72.1704 26.4456 74.7443 26.2362C75.086 24.1782 74.9022 22.0673 74.21 20.0993C72.3581 14.6194 67.3836 11.1503 61.3586 11.1358C52.9655 11.1178 44.5724 11.1358 36.1792 11.1358C35.8262 11.1515 35.4724 11.1382 35.1215 11.0961C34.7963 11.0677 34.4943 10.9163 34.2769 10.6728C34.0595 10.4293 33.9433 10.112 33.9519 9.78571C33.9085 9.46051 33.9896 9.13092 34.1791 8.86309C34.3686 8.59526 34.6524 8.40902 34.9735 8.34173C35.2532 8.27234 35.541 8.24077 35.8291 8.24787C44.446 8.24787 53.0666 8.1865 61.6835 8.24787C69.2175 8.31646 75.4663 13.1177 77.246 20.2546C77.773 22.3591 77.7297 24.6081 77.968 26.8969L82.6284 28.33ZM85.603 11.5293C85.5691 11.6695 85.545 11.8118 85.5308 11.9553C85.5308 17.7312 85.5127 23.5071 85.5308 29.2578C85.6079 29.6394 85.8323 29.9754 86.1553 30.1927C87.3538 31.1024 88.5993 31.9472 89.8158 32.8352C90.1515 33.0807 90.4475 33.3803 90.8988 33.781V12.8614C90.8988 12.0455 90.4584 11.5726 89.675 11.5438C88.3429 11.4932 87 11.5293 85.603 11.5293Z" fill="white"/>
<path id="Vector_2" d="M92.8448 53.4155C92.8498 57.4882 91.646 61.4709 89.386 64.859C87.126 68.2472 83.9113 70.8884 80.1491 72.4483C76.3869 74.0082 72.2464 74.4166 68.252 73.6217C64.2576 72.8267 60.5889 70.8643 57.7105 67.9829C54.8322 65.1016 52.8736 61.4308 52.0829 57.4355C51.2922 53.4403 51.7049 49.3002 53.2688 45.5397C54.8326 41.7791 57.4773 38.5672 60.8678 36.3108C64.2584 34.0543 68.2423 32.8548 72.315 32.8641C77.7571 32.885 82.9701 35.0577 86.8162 38.9079C90.6624 42.7581 92.8296 47.9733 92.8448 53.4155ZM54.5794 53.4552C54.5794 56.9526 55.6162 60.3716 57.5587 63.2799C59.5012 66.1882 62.2624 68.4555 65.4931 69.795C68.7238 71.1346 72.2791 71.4863 75.7097 70.8059C79.1403 70.1254 82.2922 68.4432 84.767 65.9719C87.2418 63.5006 88.9285 60.3512 89.6138 56.9216C90.2992 53.4919 89.9525 49.9361 88.6176 46.7035C87.2826 43.4709 85.0194 40.7065 82.1138 38.7598C79.2082 36.8131 75.7908 35.7715 72.2934 35.7665C69.9683 35.7631 67.6654 36.2182 65.5164 37.1057C63.3674 37.9931 61.4144 39.2955 59.7692 40.9384C58.124 42.5813 56.8188 44.5324 55.9282 46.6802C55.0377 48.8279 54.5794 51.1302 54.5794 53.4552Z" fill="white"/>
<path id="Vector_3" d="M44.414 19.0741C44.414 19.4676 44.4428 19.8214 44.414 20.1571C44.2696 21.6408 44.3779 22.7671 46.1251 23.5107C47.8723 24.2544 48.4607 26.0088 48.2549 27.8896C48.1744 28.825 47.8428 29.7212 47.2951 30.4837C46.7473 31.2462 46.0039 31.8466 45.1432 32.2215C44.7316 32.4201 44.3887 32.532 44.3959 33.1385C44.3959 34.1276 43.793 34.7341 42.9772 34.7304C42.1614 34.7268 41.6379 34.1456 41.5332 33.2251C41.5152 33.0699 41.5152 32.911 41.5116 32.8172C40.5621 32.4056 39.6308 32.0735 38.7716 31.6078C37.8511 31.1133 37.6128 30.2541 38.0496 29.5177C38.4864 28.7813 39.3059 28.6477 40.2156 29.1567C40.5766 29.3516 40.9376 29.5177 41.4899 29.7776C41.4899 28.0376 41.5152 26.4565 41.461 24.8753C41.461 24.6659 41.1 24.4096 40.8257 24.2797C39.212 23.4494 38.1615 22.2292 38.2373 20.3448C38.2346 19.4505 38.4991 18.5758 38.9969 17.8329C39.4948 17.09 40.2032 16.5128 41.0314 16.1753C41.1575 16.0839 41.264 15.9681 41.3446 15.8348C41.4252 15.7015 41.4783 15.5533 41.5007 15.3992C41.6596 14.457 42.1505 13.9263 42.9736 13.9263C43.7967 13.9263 44.2551 14.4353 44.4176 15.4028C44.4508 15.5521 44.5161 15.6925 44.609 15.814C44.7019 15.9356 44.8201 16.0355 44.9555 16.1067C45.793 16.4425 46.5041 16.8287 46.3308 17.9117C46.1576 18.9947 45.3634 19.121 44.414 19.0741ZM44.4681 25.8861V29.1025C45.681 28.1748 45.7027 26.7886 44.4681 25.8861Z" fill="white"/>
<path id="Vector_4" d="M26.4538 25.7381C25.1037 25.7381 23.7536 25.7381 22.4071 25.7381C21.4432 25.7381 20.8837 25.2291 20.8404 24.406C20.821 24.2045 20.8458 24.0013 20.9129 23.8104C20.9801 23.6195 21.088 23.4455 21.2292 23.3005C21.3704 23.1555 21.5415 23.043 21.7306 22.9708C21.9196 22.8987 22.1222 22.8686 22.3241 22.8826C25.0532 22.8465 27.7835 22.8465 30.515 22.8826C31.4861 22.8826 32.0781 23.5396 32.0456 24.3807C32.0132 25.2218 31.4103 25.7381 30.4031 25.7489C29.0855 25.7489 27.7715 25.7381 26.4538 25.7381Z" fill="white"/>
<path id="Vector_5" d="M59.713 25.7381C58.3954 25.7381 57.0777 25.7381 55.7637 25.7381C54.7241 25.7381 54.0671 25.1569 54.0743 24.2941C54.0815 23.4313 54.7385 22.8501 55.7782 22.8501C58.3821 22.8284 60.9837 22.8284 63.5829 22.8501C64.6947 22.8501 65.3301 23.4494 65.2976 24.3627C65.2651 25.276 64.6731 25.72 63.5684 25.7272C62.2833 25.7453 60.9982 25.7381 59.713 25.7381Z" fill="white"/>
<path id="Vector_6" d="M73.7158 52.004C74.5966 52.004 75.3294 51.9824 76.0622 52.004C77.0802 52.0401 77.6326 52.5708 77.6217 53.448C77.6109 54.3252 77.0839 54.8306 76.1308 54.8667C74.8493 54.91 73.5642 54.9136 72.2826 54.8667C71.326 54.827 70.8387 54.2783 70.8387 53.3036C70.8194 50.8392 70.8194 48.3736 70.8387 45.9068C70.8254 45.7141 70.8515 45.5207 70.9155 45.3385C70.9794 45.1562 71.0798 44.9888 71.2105 44.8466C71.3412 44.7044 71.4995 44.5903 71.6758 44.5113C71.8521 44.4323 72.0426 44.39 72.2357 44.387C73.0768 44.3654 73.7013 44.9718 73.7158 45.9285C73.7338 47.9067 73.7158 49.8922 73.7158 52.004Z" fill="white"/>
<path id="Vector_7" d="M70.8242 67.0214C70.8242 65.9384 71.3549 65.2417 72.2393 65.2164C73.1238 65.1911 73.7122 65.8951 73.7158 66.9636C73.7194 68.0322 73.1707 68.7469 72.2899 68.7686C71.409 68.7903 70.8278 68.108 70.8242 67.0214Z" fill="white"/>
<path id="Vector_8" d="M70.8244 39.8493C70.8244 38.7663 71.4128 38.0913 72.3081 38.1202C73.2033 38.149 73.7268 38.8421 73.7159 39.9251C73.7051 41.0081 73.1023 41.6868 72.2214 41.6579C71.3406 41.629 70.8136 40.9323 70.8244 39.8493Z" fill="white"/>
<path id="Vector_9" d="M62.9002 45.5206C62.0302 45.5206 60.9689 44.4376 60.9906 43.5784C60.9981 43.2081 61.1505 42.8556 61.4151 42.5964C61.6797 42.3372 62.0353 42.1921 62.4057 42.1922C63.2576 42.1922 64.2756 43.1669 64.3045 44.0224C64.3117 44.2133 64.281 44.4037 64.2142 44.5825C64.1473 44.7614 64.0457 44.9253 63.9151 45.0646C63.7845 45.204 63.6275 45.316 63.4533 45.3943C63.2791 45.4725 63.0911 45.5155 62.9002 45.5206Z" fill="white"/>
<path id="Vector_10" d="M62.8647 61.3502C63.2343 61.3496 63.5901 61.4908 63.8587 61.7446C64.1273 61.9985 64.2884 62.3457 64.3087 62.7147C64.3484 63.6064 63.3377 64.6749 62.446 64.6894C62.0776 64.69 61.7228 64.5498 61.4544 64.2975C61.186 64.0452 61.0241 63.6998 61.002 63.332C60.9479 62.4765 61.9947 61.3682 62.8647 61.3502Z" fill="white"/>
<path id="Vector_11" d="M85.8115 52.004C86.9306 52.004 87.5876 52.5022 87.6165 53.3975C87.6454 54.2927 86.9739 54.8739 85.8946 54.8884C84.8152 54.9028 84.1293 54.3866 84.0896 53.4769C84.0499 52.5672 84.7105 52.0112 85.8115 52.004Z" fill="white"/>
<path id="Vector_12" d="M82.109 64.6894C81.2606 64.6894 80.239 63.6894 80.2173 62.8338C80.2121 62.6427 80.2448 62.4524 80.3136 62.2741C80.3825 62.0957 80.4861 61.9327 80.6184 61.7947C80.7507 61.6567 80.9091 61.5463 81.0844 61.47C81.2598 61.3937 81.4485 61.353 81.6397 61.3502C82.4519 61.3502 83.5204 62.397 83.5493 63.2129C83.5536 63.4049 83.5196 63.5959 83.4492 63.7746C83.3788 63.9533 83.2735 64.1162 83.1393 64.2537C83.0052 64.3912 82.845 64.5006 82.668 64.5754C82.4911 64.6502 82.301 64.6889 82.109 64.6894Z" fill="white"/>
<path id="Vector_13" d="M58.6513 52.004C59.7812 52.004 60.4129 52.4986 60.4274 53.4119C60.4418 54.3252 59.8029 54.8775 58.6982 54.8884C57.5936 54.8992 56.9366 54.3685 56.9221 53.4624C56.9077 52.5564 57.5286 52.0112 58.6513 52.004Z" fill="white"/>
<path id="Vector_14" d="M82.1092 42.1922C82.3009 42.1922 82.4908 42.2304 82.6676 42.3045C82.8445 42.3786 83.0048 42.4873 83.1392 42.624C83.2737 42.7608 83.3795 42.923 83.4506 43.1011C83.5216 43.2792 83.5565 43.4697 83.5531 43.6615C83.5243 44.4809 82.4702 45.5206 81.6435 45.5206C81.4526 45.5178 81.2642 45.4772 81.0891 45.4011C80.914 45.325 80.7558 45.2149 80.6235 45.0773C80.4913 44.9396 80.3876 44.7771 80.3185 44.5992C80.2495 44.4212 80.2164 44.2313 80.2212 44.0405C80.2392 43.1813 81.2536 42.1886 82.1092 42.1922Z" fill="white"/>
</g>
</g>
</svg>
