<svg width="80" height="80" viewBox="0 0 80 80" fill="none" xmlns="http://www.w3.org/2000/svg">
<g id="Capa 2">
<g id="Capa 1">
<path id="Vector" d="M57.8216 0C59.3905 0.65252 59.9289 1.82206 59.9182 3.5122C59.8719 14.0809 59.9182 24.6496 59.8897 35.2183C59.8379 37.2402 60.0295 39.261 60.4602 41.2371C61.3873 45.0881 60.8168 48.8392 59.034 52.3799C58.7523 52.9433 58.7701 53.2784 59.2372 53.7206C60.3711 54.7903 61.4515 55.917 62.5854 57.0545C63.7728 55.942 65.1562 55.4464 66.6966 55.8707C67.4652 56.0978 68.1739 56.4924 68.7718 57.026C70.0662 58.1884 71.2678 59.4649 72.4908 60.7058C73.1113 61.3333 73.1576 62.0643 72.637 62.5564C72.1164 63.0484 71.4568 62.97 70.8542 62.3638C69.6882 61.2085 68.5365 60.039 67.3705 58.8873C66.2045 57.7355 65.2311 57.7748 64.1186 58.8873C62.0719 60.9245 60.0288 62.9676 57.9892 65.0167C56.9195 66.0864 56.9195 67.1204 57.9892 68.2008C60.4674 70.6968 62.9419 73.1928 65.4486 75.6531C66.3978 76.6113 67.6177 77.2558 68.9441 77.5C70.2706 77.7443 71.64 77.5765 72.8682 77.0192C74.0965 76.462 75.1246 75.542 75.8145 74.3831C76.5043 73.2241 76.8227 71.8817 76.7269 70.5364C76.6235 68.7927 75.839 67.3665 74.641 66.1149C74.3203 65.7643 74.1367 65.3098 74.1239 64.8348C74.1715 64.6429 74.2657 64.4657 74.3982 64.3189C74.5307 64.1721 74.6974 64.0603 74.8834 63.9933C75.0926 63.9608 75.3062 63.9716 75.5111 64.025C75.7159 64.0783 75.9076 64.1731 76.0744 64.3035C79.4546 67.181 80.0644 72.4547 77.4828 76.1273C76.7443 77.1882 75.7846 78.0762 74.6698 78.7303C73.5549 79.3844 72.3115 79.7889 71.0252 79.916C69.7389 80.0431 68.4404 79.8898 67.2191 79.4666C65.9978 79.0433 64.8828 78.3603 63.951 77.4645C62.6353 76.2094 61.3873 74.8829 59.904 73.6492C59.904 74.4586 59.8505 75.2716 59.904 76.0774C60.1286 78.9763 58.7772 80.0211 55.9817 79.9997C38.7416 79.9355 21.5051 79.9676 4.27931 79.9676C1.93666 79.9783 0.94183 78.9835 0.938264 76.6622C0.938264 74.4491 0.938264 72.236 0.938264 70.0229C0.938264 69.0637 1.31979 68.5717 2.06145 68.5503C2.80312 68.5289 3.27379 69.0495 3.27735 70.0229C3.27735 72.2087 3.27735 74.398 3.27735 76.5838C3.27735 77.6356 3.27735 77.6535 4.3007 77.6535C21.7179 77.6535 39.1362 77.6535 56.5558 77.6535C57.3688 77.6535 57.5863 77.3896 57.5613 76.6194C57.5114 75.0327 57.5257 73.446 57.5613 71.8592C57.588 71.6157 57.5534 71.3695 57.4606 71.1428C57.3678 70.9161 57.2198 70.7162 57.03 70.5613C56.7345 70.305 56.4558 70.0299 56.1957 69.7376C54.4948 67.9905 54.3807 65.7334 55.8926 63.8115C55.971 63.7116 56.0459 63.6082 56.1564 63.4549C54.9512 62.2497 53.7781 61.0338 52.5444 59.8892C52.3733 59.7323 51.8598 59.7858 51.5924 59.9142C48.8175 61.296 45.7223 61.9069 42.6305 61.683C39.5387 61.459 36.5639 60.4085 34.0171 58.6412C33.5943 58.3576 33.0998 58.1994 32.5908 58.1848C26.6825 58.1527 20.7706 58.1634 14.8587 58.1634C14.5732 58.173 14.2874 58.1646 14.0029 58.1385C13.7295 58.1118 13.4748 57.9874 13.2857 57.788C13.0966 57.5887 12.9858 57.3278 12.9737 57.0532C12.9615 56.7787 13.0489 56.5091 13.2196 56.2938C13.3903 56.0785 13.633 55.9321 13.9031 55.8814C14.2117 55.8301 14.5248 55.811 14.8373 55.8243H30.8437C30.6582 55.5498 30.5477 55.3679 30.4158 55.1968C29.1844 53.6442 28.2544 51.8749 27.6738 49.9802C27.5169 49.4525 27.2744 49.3134 26.7467 49.317C22.7638 49.3384 18.7809 49.317 14.7981 49.317C14.4613 49.33 14.1243 49.2977 13.7961 49.2207C13.5369 49.1624 13.3097 49.0075 13.1607 48.7876C13.0117 48.5677 12.952 48.2992 12.9938 48.0369C13.0019 47.773 13.1072 47.5215 13.2895 47.3306C13.4718 47.1397 13.7183 47.023 13.9815 47.0028C14.241 46.9779 14.5019 46.9707 14.7624 46.9814H26.7716C26.9036 44.7743 27.0284 42.6598 27.1603 40.4491H14.6804C14.3961 40.4704 14.1102 40.45 13.8318 40.3885C13.5727 40.3204 13.3455 40.1641 13.1893 39.9466C13.033 39.729 12.9575 39.4638 12.9756 39.1966C12.9938 38.9294 13.1045 38.6768 13.2887 38.4824C13.473 38.288 13.7192 38.1639 13.9851 38.1314C14.2445 38.1046 14.5055 38.0975 14.766 38.11C18.9057 38.11 23.0455 38.11 27.1853 38.11C27.8592 38.11 28.2229 37.9638 28.5438 37.2971C29.0692 36.2246 29.6999 35.2069 30.4265 34.2591C31.1396 33.332 31.9847 32.519 32.8618 31.5599H14.766C14.5284 31.5728 14.2904 31.5728 14.0528 31.5599C13.7719 31.5407 13.5076 31.4195 13.3097 31.2192C13.1118 31.0189 12.9939 30.7531 12.9781 30.4719C12.9623 30.1908 13.0498 29.9135 13.2241 29.6923C13.3984 29.4711 13.6474 29.3212 13.9245 29.2707C14.2073 29.2254 14.4944 29.2122 14.7802 29.2315C21.8617 29.2315 28.9443 29.2315 36.0282 29.2315C36.4396 29.2434 36.8496 29.178 37.2369 29.0389C44.3683 26.1507 52.063 28.0584 57.0158 33.9631L57.4579 34.4766C57.497 34.2691 57.5243 34.0596 57.5399 33.849C57.5399 23.644 57.5399 13.4391 57.5399 3.23408C57.5399 2.45319 57.2048 2.34979 56.5487 2.34979C39.1267 2.36405 21.7072 2.36405 4.29001 2.34979C3.25596 2.34979 3.25596 2.34979 3.25596 3.39453C3.25596 23.6738 3.25596 43.953 3.25596 64.2322C3.27448 64.5438 3.26613 64.8563 3.231 65.1664C3.20561 65.458 3.06558 65.7277 2.84165 65.9162C2.61772 66.1047 2.32816 66.1967 2.0365 66.172C1.8924 66.1744 1.7493 66.1477 1.61578 66.0935C1.48226 66.0392 1.36108 65.9586 1.25951 65.8563C1.15794 65.7541 1.07807 65.6324 1.02471 65.4985C0.971342 65.3646 0.945578 65.2214 0.948962 65.0773C0.927567 64.792 0.948962 64.5032 0.948962 64.218C0.948962 44.0124 0.940642 23.8069 0.924002 3.60134C0.913305 1.91121 1.39467 0.691743 2.9814 0H57.8216ZM60.9059 58.6377C59.797 57.5394 58.7023 56.4626 57.6148 55.3786C56.2242 53.9916 56.078 53.1037 56.9659 51.3351C58.3136 48.6983 58.8119 45.7089 58.3921 42.7775C57.9447 39.4624 56.3783 36.3996 53.9523 34.0965C51.5262 31.7934 48.3862 30.3881 45.0524 30.1135C41.7185 29.8389 38.3909 30.7115 35.6207 32.5866C32.8506 34.4617 30.8041 37.2269 29.8203 40.4242C28.0767 46.1292 29.8952 52.4262 34.5234 56.0525C39.437 59.9071 44.8176 60.4597 50.4906 57.8354C52.2021 57.0402 53.1434 57.1579 54.4841 58.4915L56.3633 60.367L57.7681 61.7648L60.9059 58.6377Z" fill="white"/>
<path id="Vector_2" d="M12.8376 9.49897V14.063C13.1265 14.063 13.3974 14.1094 13.672 14.1094C25.7953 14.1094 37.9258 14.1094 50.0634 14.1094C50.7515 14.1094 50.9762 13.924 50.9334 13.2358C50.8763 12.2739 50.8763 11.3095 50.9334 10.3476C50.9762 9.65943 50.7622 9.46688 50.0669 9.47045C44.9644 9.49897 39.862 9.47045 34.7595 9.47045C34.449 9.48397 34.1381 9.45396 33.8359 9.3813C33.5797 9.31697 33.3563 9.16007 33.2088 8.94084C33.0613 8.7216 33.0002 8.45555 33.0372 8.19393C33.0446 7.92831 33.1505 7.67493 33.3344 7.48312C33.5183 7.29131 33.767 7.17482 34.0321 7.15632C34.2689 7.13126 34.5072 7.12292 34.7452 7.13136H50.2096C52.349 7.13136 53.2725 8.062 53.2761 10.2371V13.3606C53.2761 15.5178 52.3561 16.4271 50.1739 16.4271H13.5329C11.3543 16.4271 10.4665 15.5321 10.4629 13.3499C10.4629 12.1518 10.4629 10.9573 10.4629 9.75927C10.4807 8.19037 11.4827 7.14562 13.0444 7.14205C18.4572 7.12423 23.8734 7.14205 29.2861 7.14205C30.1704 7.14205 30.6482 7.56637 30.6518 8.29377C30.6554 9.02117 30.149 9.47758 29.2255 9.47758C24.2336 9.47758 19.2357 9.47758 14.2318 9.47758L12.8376 9.49897Z" fill="white"/>
<path id="Vector_3" d="M31.8421 22.7027H14.8908C14.6053 22.7105 14.3196 22.7022 14.0351 22.6778C13.7563 22.6703 13.4915 22.5544 13.297 22.3546C13.1026 22.1548 12.9938 21.8869 12.9939 21.6081C12.9745 21.4639 12.9848 21.3173 13.024 21.1772C13.0633 21.0371 13.1307 20.9065 13.2221 20.7933C13.3136 20.6802 13.4272 20.5869 13.5559 20.5192C13.6846 20.4514 13.8258 20.4106 13.9709 20.3993C14.2281 20.3611 14.4884 20.348 14.7482 20.3601H48.9788C49.2642 20.3479 49.5501 20.3683 49.831 20.4207C50.1058 20.4656 50.3523 20.6158 50.5181 20.8395C50.6838 21.0632 50.7559 21.3428 50.7188 21.6188C50.7146 21.8829 50.6128 22.136 50.4331 22.3296C50.2534 22.5231 50.0084 22.6433 49.7454 22.6671C49.4612 22.6974 49.1753 22.7081 48.8896 22.6992L31.8421 22.7027Z" fill="white"/>
<path id="Vector_4" d="M31.7819 67.0349C26.0602 67.0349 20.3373 67.0349 14.6131 67.0349C14.3029 67.0349 13.9 67.0848 13.7075 66.9208C13.3937 66.6533 13.0371 66.2326 13.0371 65.8938C13.1252 65.4631 13.3721 65.0812 13.7289 64.8241C13.9499 64.6494 14.3742 64.6886 14.7058 64.6886H48.9685C49.1218 64.6886 49.2787 64.6886 49.4356 64.6886C50.2165 64.7314 50.7193 65.2021 50.7157 65.876C50.7121 66.5499 50.2129 67.0135 49.4178 67.0242C48.1199 67.0242 46.8184 67.0242 45.5169 67.0242L31.7819 67.0349Z" fill="white"/>
<path id="Vector_5" d="M72.8076 72.5225C72.6044 72.8006 72.451 73.2356 72.123 73.396C71.9446 73.4825 71.7489 73.5274 71.5507 73.5274C71.3525 73.5274 71.1568 73.4825 70.9784 73.396C70.2321 72.7917 69.5455 72.1171 68.9281 71.3814C68.8425 71.2796 68.7778 71.1617 68.7379 71.0348C68.6979 70.9078 68.6835 70.7741 68.6955 70.6416C68.7074 70.509 68.7454 70.3801 68.8074 70.2623C68.8694 70.1445 68.954 70.0401 69.0565 69.9552C69.1443 69.8476 69.2527 69.7587 69.3755 69.6938C69.4982 69.6289 69.6327 69.5893 69.771 69.5774C69.9093 69.5654 70.0487 69.5813 70.1807 69.6241C70.3128 69.667 70.4349 69.7359 70.5398 69.8268C71.2222 70.429 71.8699 71.0694 72.4796 71.7451C72.6258 71.9871 72.7363 72.2489 72.8076 72.5225Z" fill="white"/>
<path id="Vector_6" d="M56.1036 44.7422C56.1042 47.1702 55.3839 49.5438 54.0338 51.5619C52.6837 53.58 50.7647 55.1517 48.5202 56.0777C46.2757 57.0038 43.8067 57.2424 41.4264 56.7634C39.046 56.2844 36.8616 55.1094 35.1499 53.3872C33.4383 51.6651 32.2767 49.4734 31.8123 47.0902C31.3479 44.707 31.6016 42.2395 32.5414 40.0007C33.4812 37.7619 35.0646 35.8526 37.091 34.5149C39.1173 33.1772 41.4952 32.4714 43.9232 32.4869C47.1593 32.5105 50.2551 33.8115 52.5365 36.1069C54.8178 38.4023 56.0999 41.506 56.1036 44.7422ZM34.8806 48.775C36.3711 52.7365 40.9958 55.1932 45.4885 54.4801C47.7164 54.1065 49.7498 52.983 51.2517 51.2956C52.7536 49.6082 53.6339 47.4583 53.7466 45.2021C53.8594 42.946 53.1979 40.719 51.8717 38.8902C50.5456 37.0615 48.6344 35.7408 46.4548 35.1469C41.9621 33.9524 37.644 36.2167 36.2249 38.5878H43.1922C45.2746 38.5878 47.357 38.5878 49.4393 38.5878C49.603 38.5744 49.7676 38.5953 49.9226 38.6493C50.0777 38.7033 50.2197 38.7891 50.3396 38.9013C50.4595 39.0135 50.5546 39.1495 50.6188 39.3006C50.683 39.4517 50.7148 39.6146 50.7123 39.7788C50.7123 40.4634 50.2131 40.902 49.4108 40.9162C48.8118 40.9162 48.2127 40.9162 47.628 40.9162C43.5417 40.9162 39.4518 40.9162 35.3656 40.9162C35.2148 40.9164 35.0661 40.9505 34.9303 41.0159C34.7945 41.0813 34.6752 41.1764 34.5811 41.2942C33.9364 42.9111 33.7826 44.6822 34.139 46.386H35.0981C39.7335 46.386 44.3689 46.386 49.0043 46.386C49.3395 46.386 49.7781 46.3361 49.9813 46.5179C50.3393 46.8143 50.5899 47.2203 50.6944 47.6732C50.7658 48.2009 50.3628 48.586 49.8066 48.6858C49.523 48.724 49.2367 48.7371 48.9508 48.7251H34.8806V48.775Z" fill="white"/>
</g>
</g>
</svg>
