<svg width="53" height="56" viewBox="0 0 53 56" fill="none" xmlns="http://www.w3.org/2000/svg">
<path id="Ellipse 3" d="M3.31006 13.8122C4.26582 22.7489 7.88618 31.4902 14.2555 38.7668C20.6249 46.0433 28.81 50.789 37.5415 52.9194C37.6745 52.9518 37.3422 52.8708 37.9227 52.945C41.9329 53.4578 47.3461 50.3124 48.8864 46.5744C49.1094 46.0333 49.1878 45.7597 49.3444 45.2123C49.4856 44.7188 49.5563 44.4719 49.6003 44.2421C49.9497 42.4162 49.3004 40.5424 47.8963 39.3241C47.7196 39.1708 47.5114 39.0206 47.095 38.7202L40.8119 34.1872C38.7975 32.7339 36.0102 33.0394 34.3585 34.8947C32.4206 37.0713 29.0135 37.057 27.0941 34.8641L19.8234 26.5579C17.9039 24.365 18.3407 20.986 20.7548 19.3534C22.8124 17.9618 23.4842 15.2395 22.3103 13.0504L18.649 6.22252C18.4063 5.77001 18.285 5.54377 18.1565 5.34834C17.1347 3.79526 15.3634 2.90368 13.5073 3.00829C13.2738 3.02145 13.0196 3.05882 12.5117 3.13347C11.9485 3.21627 11.6669 3.25768 11.101 3.40707C7.19206 4.43901 3.35777 9.38818 3.33516 13.431C3.33188 14.0162 3.29551 13.6762 3.31006 13.8122Z" stroke="#0CB2D5" stroke-width="5" stroke-linecap="round"/>
</svg>
