<svg width="66" height="68" viewBox="0 0 66 68" fill="none" xmlns="http://www.w3.org/2000/svg">
<g id="Capa 2">
<g id="Capa 1">
<path id="Vector" d="M21.9948 0.0533447C22.7767 0.436389 23.6567 0.686475 24.3215 1.22464C25.7176 2.33578 26.2462 3.86795 26.0025 5.65655C25.9835 5.8085 25.9772 5.97311 25.955 6.21054H27.3511C28.5445 6.21054 28.7724 6.40997 28.9592 7.62242H29.6651C32.1977 7.62242 34.7492 7.62242 37.2912 7.62242C40.0105 7.62242 41.7769 9.36986 41.7896 12.0955C41.8086 16.0051 41.7896 19.9178 41.7896 23.9572C41.904 23.8393 42.0098 23.7135 42.1062 23.5805C42.6633 22.6308 43.2078 21.6811 43.765 20.7314C44.262 19.8862 44.7147 19.7532 45.5631 20.2375C49.7523 22.6561 53.9362 25.0831 58.1149 27.5185C58.8335 27.9364 59.0266 28.4872 58.6878 29.0412C58.3713 29.5319 57.773 29.6174 57.105 29.2343L45.8353 22.6624C45.6295 22.5421 45.4174 22.4345 45.1642 22.2984C44.0625 24.1978 42.9482 26.0528 41.9194 27.9491C41.7136 28.3289 41.8086 28.8703 41.7674 29.3388L41.9447 29.3894L43.3851 26.9076C43.9866 25.8692 44.1543 25.8028 45.2845 26.1288C45.568 26.2277 45.8755 26.235 46.1634 26.1498C46.4514 26.0646 46.7053 25.8912 46.8895 25.654C47.5542 24.8942 47.8392 24.8594 48.7129 25.3691C52.06 27.3043 55.4051 29.2417 58.748 31.1812C59.5774 31.6624 59.6977 31.9504 59.3811 32.8622C59.2536 33.1578 59.2286 33.4875 59.3101 33.799C59.3915 34.1104 59.5748 34.3857 59.8306 34.5811C60.5809 35.2332 60.6157 35.5118 60.0997 36.4045C58.6182 38.9655 57.1525 41.536 55.6393 44.0781C55.3228 44.5909 55.3481 44.9581 55.7849 45.3791L63.1514 32.6944C62.3663 32.2354 61.6066 31.8333 60.8975 31.3553C60.5894 31.1562 60.36 30.8564 60.2485 30.5069C60.0839 29.7661 60.9481 29.1742 61.6699 29.5572C62.819 30.165 63.9397 30.8235 65.0476 31.5199C65.1527 31.5812 65.2444 31.6629 65.3175 31.7602C65.3905 31.8574 65.4433 31.9683 65.4728 32.0863C65.5023 32.2043 65.5079 32.327 65.4892 32.4472C65.4706 32.5674 65.4281 32.6827 65.3642 32.7862C65.2249 33.0616 65.0698 33.3307 64.9147 33.5966C62.2956 38.1024 59.6755 42.6071 57.0544 47.1108C56.9229 47.3084 56.8376 47.5331 56.8047 47.7682C56.7718 48.0032 56.7922 48.2427 56.8644 48.4688C59.1849 57.0161 53.626 65.9907 44.9268 67.6368C40.0137 68.5675 35.5913 67.3994 31.764 64.1546C31.4098 63.8294 30.9436 63.6536 30.4629 63.6639C22.0423 63.6808 13.6206 63.6808 5.19783 63.6639C3.32376 63.6639 1.79792 63.0308 0.965351 61.2739C0.668454 60.6108 0.516289 59.8921 0.518994 59.1656C0.506331 45.9986 0.5 32.8284 0.5 19.6551C0.5 18.7655 0.851387 18.3065 1.50668 18.316C2.16197 18.3255 2.49436 18.7845 2.49436 19.6804V56.2943C2.49436 57.2883 2.49436 58.2823 2.49436 59.2795C2.49436 60.7041 3.35225 61.5873 4.77363 61.6791C4.95091 61.6791 5.12818 61.6791 5.30546 61.6791H29.3644C28.9244 60.9541 28.5603 60.2925 28.1203 59.6816C28.0253 59.5486 27.674 59.5644 27.4397 59.5644H6.29631C4.73564 59.5644 4.51721 59.3492 4.51721 57.8202V13.061C4.51721 11.5985 4.75464 11.3611 6.20767 11.3611H13.5203V9.63261C13.3146 9.63261 13.1056 9.60728 12.8872 9.60412C10.2787 9.60412 7.6702 9.60412 5.0617 9.60412C3.35225 9.60412 2.49119 10.4683 2.48486 12.1683C2.48486 13.1401 2.48486 14.1152 2.48486 15.087C2.48486 15.9101 2.10499 16.3786 1.47502 16.3533C0.845056 16.328 0.5 15.8816 0.5 15.0554C0.5 14.0392 0.5 13.0325 0.5 12.0037C0.537988 9.42051 2.31075 7.65091 4.90026 7.61925C7.74934 7.60026 10.5984 7.61925 13.4475 7.61925C13.897 6.2232 13.916 6.20737 15.3976 6.20737H16.5435C16.1763 4.22251 16.5625 2.51306 18.0915 1.28478C18.788 0.724463 19.7187 0.455382 20.5417 0.0565104L21.9948 0.0533447ZM26.6071 49.7224H20.2758C20.055 49.7277 19.8341 49.7203 19.6142 49.7003C19.0032 49.6243 18.6645 49.2571 18.6645 48.7126C18.6867 48.0984 19.0571 47.8072 19.6364 47.7471C19.8568 47.7359 20.0776 47.7359 20.298 47.7471C22.3747 47.7471 24.4513 47.7471 26.5312 47.7471C26.7033 47.774 26.8793 47.7347 27.0238 47.6373C27.1682 47.5398 27.2704 47.3913 27.3099 47.2216C27.5624 46.4896 27.8802 45.7819 28.2596 45.1069C28.8358 44.1572 29.491 43.2265 30.159 42.3243C30.2308 42.2109 30.3259 42.114 30.4379 42.04C30.55 41.966 30.6764 41.9166 30.8089 41.8951C30.9415 41.8735 31.077 41.8803 31.2067 41.915C31.3364 41.9497 31.4573 42.0115 31.5614 42.0964C32.0267 42.4478 32.0774 43.0049 31.6848 43.5652C31.5329 43.7805 31.3683 43.9799 31.1942 44.1984C27.0218 49.4945 27.5252 57.4308 32.4161 62.0748C36.2719 65.7343 40.8621 66.9341 45.9398 65.3164C51.0808 63.6798 54.2148 60.0488 55.1993 54.721C56.6555 46.848 50.6218 39.3296 42.6285 38.9497C39.8527 38.8034 37.0986 39.5104 34.7365 40.9757C34.0654 41.3841 33.4703 41.2923 33.1537 40.7541C32.8371 40.216 33.0239 39.6841 33.7077 39.2821C34.2333 38.9579 34.7789 38.6671 35.3412 38.4115C35.5387 38.3521 35.7081 38.2232 35.8181 38.0487C35.928 37.8741 35.9711 37.6657 35.9395 37.4618C35.9247 29.6532 35.9247 21.8531 35.9395 14.0614C35.9395 13.8461 35.9205 13.634 35.9078 13.4029H28.8959C28.8959 13.7195 28.8959 13.9822 28.8959 14.245C28.8769 15.0585 28.5255 15.4352 27.7246 15.4352C23.394 15.4352 19.0676 15.4352 14.7454 15.4352C13.9793 15.4352 13.6343 15.0744 13.5805 14.2956C13.5583 13.998 13.5488 13.7005 13.5362 13.3997H6.56855V57.5289H27.2308C26.3703 55.0205 26.1558 52.3356 26.6071 49.7224ZM54.0217 42.758C54.0859 42.7112 54.1443 42.6571 54.1958 42.5965C55.462 40.4217 56.7283 38.2469 57.9692 36.0595C58.008 35.9679 58.0253 35.8686 58.0198 35.7693C58.0143 35.67 57.9862 35.5732 57.9376 35.4865C57.436 34.776 57.1976 33.913 57.2633 33.0458C57.2586 32.9265 57.2279 32.8097 57.1732 32.7036C57.1185 32.5975 57.0412 32.5046 56.9467 32.4316C54.1377 30.7855 51.3087 29.1531 48.4596 27.5344C48.3501 27.4879 48.2315 27.4665 48.1126 27.472C47.9937 27.4775 47.8775 27.5096 47.7727 27.566C47.1031 28.053 46.2743 28.2689 45.4523 28.1707C45.2919 28.1418 45.1266 28.1708 44.9856 28.2525C44.8447 28.3343 44.7375 28.4635 44.683 28.617C43.9232 29.9624 43.2078 31.3426 42.3499 32.6216C41.4224 34.0018 41.9479 35.4707 41.7896 36.9174C46.823 37.0313 50.8624 38.9909 54.0217 42.7706V42.758ZM26.873 13.4219V8.1954C26.0943 8.1954 25.3504 8.1954 24.6033 8.1954C23.4098 8.17957 23.0743 7.51479 23.5871 6.45113C23.8835 5.87045 24.0324 5.22575 24.0208 4.57389C23.9856 3.99371 23.7603 3.44126 23.3799 3.00185C22.9994 2.56243 22.4848 2.2605 21.9156 2.14267C21.3778 2.00516 20.8114 2.02977 20.2875 2.2134C19.7637 2.39703 19.3058 2.73148 18.9716 3.17468C18.621 3.63411 18.4183 4.18931 18.3906 4.76658C18.3629 5.34386 18.5114 5.91591 18.8165 6.40681C19.4496 7.50845 19.0634 8.18274 17.7813 8.1954C17.0627 8.1954 16.3409 8.1954 15.597 8.1954V13.4219H26.873ZM28.9307 11.3611H36.3763C37.6426 11.3611 37.9243 11.6301 37.9243 12.9186V37.4302L39.7636 37.0535C39.7813 36.9582 39.794 36.862 39.8016 36.7654C39.8016 28.5009 39.8016 20.2344 39.8016 11.9657C39.8016 10.4715 38.8835 9.61361 37.364 9.60728C35.2209 9.60728 33.0777 9.60728 30.9314 9.60728H28.9307V11.3611Z" fill="white"/>
<path id="Vector_2" d="M45.243 14.5171C44.9786 14.4937 44.7168 14.446 44.4611 14.3746C44.3103 14.3182 44.1759 14.225 44.0702 14.1036C43.9645 13.9822 43.8907 13.8363 43.8555 13.6792C43.8203 13.522 43.8248 13.3586 43.8686 13.2037C43.9125 13.0488 43.9942 12.9072 44.1065 12.7918C44.5212 12.3613 45.9648 12.3518 46.3953 12.7918C46.5133 12.9023 46.6011 13.041 46.6505 13.1949C46.6999 13.3488 46.7092 13.5128 46.6775 13.6713C46.6458 13.8298 46.5741 13.9776 46.4694 14.1007C46.3646 14.2237 46.2301 14.318 46.0787 14.3746C45.8056 14.4497 45.5256 14.4975 45.243 14.5171Z" fill="white"/>
<path id="Vector_3" d="M45.2812 17.9837C45.0609 17.9865 44.8407 17.9717 44.6227 17.9394C44.4127 17.9096 44.22 17.8065 44.0787 17.6484C43.9373 17.4902 43.8564 17.2872 43.8503 17.0751C43.8093 16.8533 43.8569 16.6242 43.983 16.4372C44.1091 16.2501 44.3036 16.12 44.5246 16.0748C44.9337 15.9907 45.3532 15.9693 45.7687 16.0115C45.8963 16.0166 46.0215 16.0475 46.1369 16.1021C46.2523 16.1568 46.3555 16.2341 46.4403 16.3296C46.5252 16.4251 46.5899 16.5366 46.6306 16.6577C46.6713 16.7787 46.6871 16.9067 46.6772 17.034C46.6774 17.1628 46.6514 17.2903 46.6007 17.4087C46.55 17.5272 46.4758 17.6341 46.3825 17.7229C46.2892 17.8117 46.1789 17.8807 46.0581 17.9255C45.9373 17.9703 45.8087 17.9901 45.6801 17.9837C45.5471 17.9837 45.4142 17.9837 45.2812 17.9837Z" fill="white"/>
<path id="Vector_4" d="M45.2621 10.9558C45.0505 10.9566 44.8391 10.945 44.6289 10.9209C44.48 10.8987 44.3384 10.8414 44.216 10.7537C44.0935 10.666 43.9937 10.5504 43.9247 10.4165C43.8558 10.2826 43.8196 10.1342 43.8193 9.98356C43.819 9.83294 43.8546 9.6844 43.923 9.55022C44.2395 8.91709 44.8347 8.94875 45.4172 8.94875C45.9332 8.94875 46.3922 9.06904 46.617 9.58188C46.6722 9.715 46.697 9.85881 46.6894 10.0028C46.6818 10.1467 46.6422 10.2871 46.5732 10.4137C46.5043 10.5403 46.4079 10.6499 46.2912 10.7344C46.1744 10.8188 46.0402 10.8761 45.8984 10.902C45.6876 10.9335 45.4751 10.9515 45.2621 10.9558Z" fill="white"/>
<path id="Vector_5" d="M52.7685 52.4321C52.7698 54.5847 52.1325 56.6893 50.9373 58.4796C49.742 60.2699 48.0426 61.6655 46.0541 62.4897C44.0655 63.3139 41.8772 63.5297 39.7659 63.1098C37.6546 62.6899 35.7154 61.6532 34.1935 60.1309C32.6716 58.6086 31.6354 56.669 31.2162 54.5576C30.7969 52.4462 31.0134 50.2579 31.8382 48.2696C32.6629 46.2813 34.059 44.5823 35.8496 43.3876C37.6403 42.1929 39.7451 41.5562 41.8977 41.5581C44.7793 41.5648 47.5409 42.7127 49.5782 44.7506C51.6156 46.7885 52.7627 49.5505 52.7685 52.4321ZM41.885 61.3308C43.6439 61.3314 45.3634 60.8104 46.8262 59.8337C48.2889 58.857 49.4292 57.4684 50.1027 55.8436C50.7762 54.2188 50.9528 52.4307 50.61 50.7056C50.2672 48.9804 49.4206 47.3957 48.1771 46.1518C46.9336 44.9078 45.3492 44.0606 43.6241 43.7172C41.8991 43.3739 40.111 43.5498 38.486 44.2227C36.8609 44.8957 35.4719 46.0354 34.4947 47.4978C33.5175 48.9602 32.9958 50.6796 32.9958 52.4385C32.9975 54.7958 33.9345 57.0561 35.6011 58.7233C37.2677 60.3905 39.5277 61.3283 41.885 61.3308Z" fill="white"/>
<path id="Vector_6" d="M25.5082 36.49C27.3189 36.49 29.1297 36.49 30.9404 36.49C31.286 36.4854 31.6245 36.5883 31.9091 36.7844C32.0337 36.8941 32.1265 37.0353 32.1776 37.1933C32.2288 37.3512 32.2365 37.52 32.1999 37.6819C32.1633 37.8439 32.0838 37.9929 31.9697 38.1135C31.8556 38.2341 31.7111 38.3217 31.5514 38.3672C31.2749 38.4409 30.9888 38.4719 30.703 38.459C27.1912 38.459 23.6805 38.459 20.1709 38.459C20.0379 38.459 19.905 38.459 19.772 38.459C19.0439 38.4052 18.6419 38.0158 18.6704 37.408C18.6989 36.8002 19.0914 36.4836 19.8132 36.4805C21.7094 36.4836 23.6088 36.4931 25.5082 36.49Z" fill="white"/>
<path id="Vector_7" d="M25.4421 25.2393C27.275 25.2393 29.1079 25.2393 30.9408 25.2393C31.7702 25.2393 32.2261 25.6065 32.2071 26.2397C32.1881 26.8728 31.7513 27.221 30.963 27.2242C27.274 27.2242 23.586 27.2242 19.899 27.2242C19.1108 27.2242 18.6708 26.8506 18.6613 26.2365C18.6518 25.6224 19.1045 25.2393 19.9275 25.2393C21.7763 25.2362 23.6092 25.2393 25.4421 25.2393Z" fill="white"/>
<path id="Vector_8" d="M12.8461 49.7034C12.4531 49.7034 12.0639 49.6256 11.701 49.4745C11.3382 49.3234 11.0088 49.102 10.7319 48.8231C10.455 48.5441 10.236 48.2131 10.0876 47.8491C9.93924 47.4851 9.86435 47.0954 9.86727 46.7024C9.87227 45.9086 10.1902 45.1488 10.7522 44.5881C11.3141 44.0273 12.0745 43.711 12.8683 43.7076C13.6623 43.7208 14.4197 44.0436 14.9791 44.6071C15.5385 45.1707 15.8557 45.9305 15.863 46.7245C15.8538 47.5183 15.5319 48.2764 14.967 48.8342C14.4021 49.3919 13.64 49.7043 12.8461 49.7034ZM13.8655 46.7308C13.8586 46.4648 13.7513 46.2112 13.5652 46.0209C13.379 45.8307 13.1278 45.7179 12.862 45.7052C12.6078 45.7102 12.3648 45.8107 12.1812 45.9866C11.9977 46.1626 11.887 46.4011 11.8711 46.6549C11.8612 46.7865 11.8782 46.9187 11.9213 47.0435C11.9643 47.1683 12.0323 47.283 12.1213 47.3805C12.2102 47.478 12.3181 47.5564 12.4384 47.6107C12.5587 47.665 12.6889 47.6942 12.8208 47.6964C13.0882 47.7075 13.349 47.6121 13.5461 47.4311C13.7432 47.25 13.8603 46.9982 13.8718 46.7308H13.8655Z" fill="white"/>
<path id="Vector_9" d="M9.87338 24.2454C9.8675 23.8511 9.94003 23.4597 10.0867 23.0937C10.2335 22.7278 10.4514 22.3946 10.728 22.1136C11.0046 21.8326 11.3342 21.6094 11.6978 21.4569C12.0614 21.3044 12.4517 21.2257 12.8459 21.2253C13.6395 21.2185 14.4037 21.5254 14.9722 22.0791C15.5407 22.6328 15.8676 23.3886 15.8818 24.1821C15.8788 24.9757 15.5667 25.7369 15.0117 26.3043C14.4568 26.8717 13.7026 27.2005 12.9092 27.2211C12.1129 27.2262 11.3469 26.9162 10.7782 26.3588C10.2095 25.8013 9.88422 25.0416 9.87338 24.2454ZM13.8716 24.2264C13.8704 24.0932 13.8428 23.9616 13.7905 23.8392C13.7382 23.7167 13.6622 23.6058 13.5669 23.5128C13.4716 23.4198 13.3588 23.3466 13.235 23.2974C13.1113 23.2482 12.9791 23.2239 12.8459 23.226C12.7186 23.2218 12.5917 23.2432 12.4728 23.289C12.3539 23.3348 12.2454 23.4041 12.1538 23.4927C12.0623 23.5814 11.9895 23.6875 11.9398 23.8048C11.8901 23.9222 11.8645 24.0483 11.8646 24.1757C11.8533 24.4405 11.9466 24.699 12.1242 24.8957C12.3019 25.0923 12.5497 25.2112 12.8143 25.2267C13.0853 25.2279 13.3464 25.1246 13.5433 24.9383C13.7402 24.752 13.8578 24.4971 13.8716 24.2264Z" fill="white"/>
<path id="Vector_10" d="M12.8465 32.46C13.2414 32.4577 13.6329 32.5332 13.9986 32.6823C14.3644 32.8313 14.6972 33.0509 14.9781 33.3285C15.259 33.6062 15.4824 33.9364 15.6356 34.3004C15.7889 34.6644 15.8689 35.055 15.8712 35.45C15.8735 35.8449 15.798 36.2364 15.649 36.6022C15.5 36.9679 15.2804 37.3007 15.0027 37.5816C14.7251 37.8625 14.3948 38.0859 14.0308 38.2392C13.6668 38.3924 13.2762 38.4725 12.8813 38.4747C12.0837 38.4794 11.3169 38.1669 10.7496 37.6062C10.1824 37.0455 9.86111 36.2824 9.8565 35.4848C9.85188 34.6872 10.1643 33.9204 10.725 33.3532C11.2857 32.7859 12.0488 32.4646 12.8465 32.46ZM12.8465 34.467C12.5992 34.4912 12.3698 34.6065 12.2028 34.7906C12.0359 34.9746 11.9435 35.2142 11.9435 35.4626C11.9435 35.7111 12.0359 35.9506 12.2028 36.1347C12.3698 36.3187 12.5992 36.434 12.8465 36.4582C12.9823 36.4642 13.118 36.4424 13.2452 36.3942C13.3724 36.346 13.4884 36.2723 13.5861 36.1778C13.6839 36.0832 13.7613 35.9697 13.8137 35.8442C13.8661 35.7186 13.8923 35.5838 13.8908 35.4478C13.8893 35.3118 13.8601 35.1775 13.8049 35.0532C13.7497 34.9288 13.6698 34.8171 13.57 34.7247C13.4702 34.6323 13.3526 34.5612 13.2243 34.5159C13.0961 34.4705 12.96 34.4517 12.8243 34.4607L12.8465 34.467Z" fill="white"/>
<path id="Vector_11" d="M21.5361 23.1879C20.922 23.1879 20.3015 23.2132 19.6874 23.1879C19.0733 23.1626 18.6681 22.7637 18.6712 22.2129C18.6677 22.0797 18.6922 21.9472 18.7433 21.8241C18.7943 21.7009 18.8706 21.5899 18.9674 21.4983C19.0641 21.4066 19.1791 21.3363 19.3048 21.292C19.4305 21.2477 19.5641 21.2303 19.6969 21.241C20.9505 21.2094 22.2052 21.2094 23.4609 21.241C23.5936 21.2288 23.7274 21.2441 23.8539 21.2862C23.9804 21.3282 24.0968 21.3959 24.1958 21.4851C24.2949 21.5743 24.3743 21.6831 24.4293 21.8045C24.4842 21.926 24.5134 22.0574 24.515 22.1907C24.534 22.7637 24.1288 23.1404 23.4514 23.2101H21.552L21.5361 23.1879Z" fill="white"/>
<path id="Vector_12" d="M21.5485 45.6863C20.9343 45.6863 20.317 45.6863 19.6997 45.6863C19.5727 45.6962 19.4449 45.6804 19.3241 45.6399C19.2033 45.5994 19.0918 45.5349 18.9964 45.4505C18.901 45.366 18.8236 45.2632 18.7688 45.1481C18.7139 45.0331 18.6828 44.9082 18.6772 44.7809C18.6581 44.6469 18.6687 44.5104 18.7081 44.3809C18.7476 44.2515 18.815 44.1323 18.9056 44.0317C18.9961 43.9312 19.1077 43.8518 19.2323 43.7991C19.357 43.7464 19.4917 43.7217 19.6269 43.7267C20.9502 43.6866 22.2713 43.6866 23.5903 43.7267C23.7194 43.7265 23.8472 43.7527 23.9658 43.8035C24.0845 43.8544 24.1915 43.9289 24.2804 44.0225C24.3693 44.1162 24.4382 44.2269 24.4828 44.3481C24.5274 44.4692 24.5469 44.5982 24.54 44.7271C24.5365 44.8592 24.5062 44.9892 24.4511 45.1093C24.3959 45.2294 24.317 45.3371 24.2191 45.4259C24.1211 45.5146 24.0062 45.5826 23.8813 45.6257C23.7564 45.6689 23.624 45.6862 23.4922 45.6768C22.8274 45.7021 22.1879 45.6863 21.5485 45.6863Z" fill="white"/>
<path id="Vector_13" d="M21.574 34.4355C20.9567 34.4355 20.3394 34.4355 19.7253 34.4355C19.1111 34.4355 18.6869 34.0525 18.6711 33.4858C18.6621 33.3526 18.6813 33.219 18.7274 33.0937C18.7735 32.9684 18.8455 32.8543 18.9387 32.7587C19.0319 32.6631 19.1442 32.5882 19.2683 32.539C19.3923 32.4897 19.5254 32.4672 19.6588 32.4728C20.9567 32.4327 22.2557 32.4327 23.5557 32.4728C23.6894 32.4691 23.8224 32.4943 23.9455 32.5466C24.0686 32.599 24.179 32.6772 24.2691 32.7761C24.3592 32.8749 24.427 32.992 24.4678 33.1194C24.5085 33.2468 24.5214 33.3815 24.5054 33.5143C24.5007 33.6419 24.4702 33.7672 24.4159 33.8827C24.3617 33.9983 24.2847 34.1017 24.1895 34.1868C24.0943 34.2719 23.983 34.337 23.8621 34.3781C23.7413 34.4192 23.6134 34.4355 23.4861 34.426C22.8529 34.426 22.2198 34.426 21.5709 34.426L21.574 34.4355Z" fill="white"/>
<path id="Vector_14" d="M52.7557 34.6856C52.7557 35.2351 52.5922 35.7721 52.2861 36.2284C51.98 36.6847 51.5452 37.0397 51.0368 37.2481C50.5285 37.4566 49.9696 37.5092 49.4313 37.3992C48.8929 37.2892 48.3995 37.0216 48.0136 36.6304C47.6278 36.2392 47.367 35.7421 47.2645 35.2023C47.1619 34.6625 47.2222 34.1044 47.4377 33.599C47.6532 33.0936 48.0142 32.6637 48.4746 32.3639C48.9351 32.0642 49.4744 31.9081 50.0238 31.9157C50.7489 31.9344 51.4387 32.2335 51.9481 32.75C52.4575 33.2665 52.747 33.9602 52.7557 34.6856ZM49.837 35.5657H50.1535C50.397 35.3107 50.5989 35.019 50.7519 34.7014C50.8627 34.3057 50.3941 33.8784 49.9731 33.9259C49.5521 33.9733 49.1785 34.2424 49.2577 34.6983C49.2988 35.0117 49.6312 35.2776 49.837 35.5657Z" fill="white"/>
<path id="Vector_15" d="M54.2556 37.5662C54.9141 37.5662 55.6295 38.1994 55.6359 38.7597C55.6365 38.8925 55.6099 39.0241 55.5578 39.1462C55.5056 39.2684 55.4289 39.3785 55.3325 39.4699C55.2361 39.5613 55.122 39.6319 54.9972 39.6775C54.8724 39.723 54.7396 39.7425 54.607 39.7347C53.9391 39.7347 53.2679 39.1016 53.2774 38.5128C53.2778 38.3859 53.3036 38.2603 53.3533 38.1436C53.403 38.0268 53.4755 37.9212 53.5667 37.833C53.6579 37.7448 53.7659 37.6757 53.8842 37.6299C54.0025 37.5841 54.1288 37.5624 54.2556 37.5662Z" fill="white"/>
<path id="Vector_16" d="M55.899 37.598C55.2659 37.6138 54.5283 36.9649 54.5156 36.4046C54.5163 36.1499 54.6156 35.9054 54.7927 35.7225C54.9697 35.5395 55.2108 35.4322 55.4653 35.4232C56.1206 35.4232 56.8487 36.0025 56.874 36.5755C56.8805 36.7075 56.86 36.8394 56.8139 36.9632C56.7678 37.0871 56.697 37.2002 56.6058 37.2959C56.5146 37.3915 56.4049 37.4676 56.2834 37.5195C56.1619 37.5715 56.0312 37.5982 55.899 37.598Z" fill="white"/>
<path id="Vector_17" d="M40.9092 48.2757C41.0612 46.6327 41.2606 46.2623 41.9539 46.2686C42.6471 46.275 42.8213 46.6422 42.9954 48.1997C43.2898 48.244 43.5968 48.2662 43.8912 48.339C44.7048 48.5479 45.3443 49.3741 45.1987 50.1656C45.1586 50.3477 45.0788 50.5188 44.965 50.6666C44.8512 50.8143 44.7061 50.9351 44.5402 51.0203C44.3579 51.0568 44.1693 51.0469 43.9917 50.9916C43.8142 50.9363 43.6534 50.8373 43.524 50.7037C43.2549 50.2194 42.9067 50.2225 42.4857 50.232C42.0906 50.1984 41.6929 50.2143 41.3017 50.2795C41.0485 50.3555 40.6686 50.7037 40.6971 50.8842C40.7388 51.0373 40.8154 51.1787 40.9208 51.2973C41.0263 51.4159 41.1577 51.5086 41.3049 51.5679C41.7179 51.638 42.1382 51.654 42.5553 51.6154C43.9419 51.6661 45.0309 52.5809 45.205 53.8314C45.3158 54.4808 45.1789 55.1482 44.8213 55.7015C44.4637 56.2549 43.9116 56.6539 43.2739 56.8198L42.989 56.9211C42.8402 57.6998 43.2296 58.9312 41.8747 58.8806C40.7193 58.8363 41.0105 57.7663 40.925 56.9812C40.6528 56.9495 40.3932 56.94 40.1431 56.8894C39.7164 56.8068 39.3324 56.5766 39.0586 56.2391C38.7848 55.9016 38.6386 55.4784 38.6458 55.0438C38.6457 54.8321 38.7165 54.6265 38.8466 54.4596C38.9768 54.2927 39.1591 54.1741 39.3644 54.1226C39.5643 54.0467 39.7854 54.0485 39.9841 54.1276C40.1827 54.2067 40.3445 54.3574 40.4375 54.55C40.4895 54.6904 40.5896 54.8078 40.72 54.8814C40.8504 54.9551 41.0027 54.9801 41.1498 54.952C41.5677 54.9267 41.9887 54.952 42.4161 54.952C42.8434 54.952 43.2138 54.7906 43.2233 54.2841C43.2328 53.7776 42.9067 53.6066 42.4382 53.6003C41.9697 53.5939 41.5961 53.6193 41.1719 53.5781C39.7601 53.4388 38.7914 52.5145 38.6616 51.2007C38.5318 49.887 39.2631 48.7853 40.618 48.3516C40.7034 48.3231 40.7984 48.3041 40.9092 48.2757Z" fill="white"/>
</g>
</g>
</svg>
