<svg width="65" height="57" viewBox="0 0 65 57" fill="none" xmlns="http://www.w3.org/2000/svg">
<g id="Capa 2">
<g id="Capa 1">
<path id="Vector" d="M65 50.7232C64.8933 51.1045 64.7932 51.4859 64.6768 51.8641C64.2482 53.215 63.4043 54.3963 62.2654 55.2398C61.1264 56.0834 59.7504 56.5461 58.3332 56.5623C56.916 56.5784 55.5298 56.147 54.372 55.3296C53.2142 54.5122 52.3437 53.3504 51.8845 52.0095C51.7164 51.5215 51.516 51.3631 51.0021 51.3631C50.2038 51.4116 49.3861 51.3631 48.4908 51.3631V53.27C48.4908 53.9487 48.4908 54.6274 48.4908 55.3029C48.496 55.5103 48.4596 55.7167 48.3838 55.9098C48.308 56.1029 48.1943 56.2789 48.0494 56.4274C47.9046 56.5759 47.7314 56.6938 47.5402 56.7744C47.3491 56.8549 47.1437 56.8964 46.9362 56.8963C46.7068 56.8963 46.4708 56.8963 46.2381 56.8963H26.6165C25.7762 56.8963 25.3237 56.5473 25.3431 55.9267C25.3625 55.3062 25.7633 55.0024 26.5907 55.0024H46.5419V45.0574H18.2165V55.0153C19.3994 55.0153 20.5565 55.0153 21.7135 55.0153C22.3599 55.0153 22.7252 55.3385 22.7639 55.8782C22.7786 56.0118 22.7641 56.147 22.7214 56.2744C22.6787 56.4018 22.6089 56.5184 22.5166 56.6162C22.4244 56.7139 22.3121 56.7905 22.1874 56.8405C22.0626 56.8906 21.9285 56.9129 21.7943 56.906C20.4627 56.9319 19.1279 56.9416 17.7963 56.906C16.8526 56.8802 16.2837 56.2273 16.2676 55.2286C16.2482 53.981 16.2676 52.7335 16.2676 51.3825H15.5565C13.8015 51.3825 12.0401 51.2985 10.2916 51.4019C7.51527 51.5667 5.56636 49.5823 5.7926 46.9191C5.84108 46.3567 5.7926 45.7846 5.7926 45.1285C5.18175 45.1285 4.61938 45.1285 4.05701 45.1285C3.55927 45.1285 3.07124 45.1285 2.78682 44.6146C2.5024 44.1007 2.81268 43.645 3.11002 43.2346C3.90187 42.1389 4.70341 41.0497 5.4694 39.9314C5.658 39.659 5.76966 39.3408 5.7926 39.0103C5.83139 38.0407 5.7926 37.0711 5.7926 36.053C4.8771 35.9114 3.9995 35.5868 3.21212 35.0987C2.42473 34.6106 1.74369 33.969 1.2096 33.2121C0.422708 32.1033 0.000260397 30.7773 0.000819191 29.4177C-0.0250487 27.7716 0.562519 26.1748 1.64915 24.9381C2.72745 23.7081 4.20273 22.895 5.81846 22.6401V21.9097C5.81846 18.7132 5.92511 15.5135 5.79583 12.3235C5.56313 6.58021 6.82362 5.31003 12.5637 5.60091C13.7628 5.66232 14.9715 5.60091 16.287 5.60091V4.01722C16.287 3.3191 16.287 2.62099 16.287 1.92287C16.2837 0.659151 16.8752 0.0709229 18.1551 0.0709229H46.5419C47.9252 0.0709229 48.4811 0.636527 48.4811 2.03276C48.4811 3.15427 48.4811 4.27578 48.4811 5.39729C48.4899 5.45484 48.505 5.51121 48.5264 5.56536H51.6097C51.9727 3.95921 52.9006 2.53691 54.2244 1.55765C55.139 0.883633 56.2089 0.45119 57.335 0.30034C58.461 0.14949 59.607 0.285105 60.6667 0.694638C61.7265 1.10417 62.6658 1.77439 63.3978 2.64328C64.1299 3.51217 64.6309 4.55165 64.8546 5.66555C64.8869 5.83038 64.9418 5.98875 64.9838 6.15035V7.80192C64.7917 8.55283 64.5443 9.28851 64.2437 10.0029C63.2192 12.0811 61.4803 13.2511 59.2147 13.6874V25.1999C59.8393 25.1656 60.4655 25.1721 61.0893 25.2193C61.4896 25.2654 61.8635 25.4427 62.1526 25.7235C62.4984 26.1081 62.2431 26.5476 61.9651 26.929C61.1345 28.0764 60.2974 29.2173 59.4991 30.3873C59.3035 30.6742 59.1916 31.01 59.1759 31.3569C59.1468 33.4933 59.1759 35.6296 59.1759 37.766V43.0633L59.7447 43.2152C60.8437 43.4623 61.8624 43.9829 62.7065 44.7287C63.5506 45.4745 64.1927 46.4213 64.5734 47.4814C64.7372 47.9577 64.8764 48.442 64.9903 48.9326L65 50.7232ZM33.3617 19.7863H46.4838C47.9543 19.7863 48.4876 20.3131 48.4876 21.761V35.5359C48.4876 37.0323 47.9737 37.5365 46.4547 37.5365H33.3844V43.1021H34.1116C38.3003 43.1021 42.489 43.1021 46.6777 43.1021C47.8735 43.1021 48.4747 43.7097 48.4844 44.8958C48.4844 45.7846 48.4844 46.6734 48.4844 47.5622V49.4239H51.4611C51.9232 45.9365 53.856 43.8454 57.2399 43.073C57.2577 42.966 57.2696 42.8581 57.2755 42.7498C57.2755 38.8713 57.2755 34.9929 57.2755 31.1339C57.2587 30.8661 57.1643 30.6089 57.004 30.3937C56.183 29.2141 55.3039 28.0699 54.5121 26.8708C54.4023 26.7046 54.3301 26.5163 54.3005 26.3193C54.2709 26.1223 54.2847 25.9211 54.3408 25.7299C54.4862 25.4455 54.9872 25.2581 55.3718 25.2064C55.9987 25.1567 56.6282 25.1491 57.2561 25.1837V13.7165C53.9077 12.9796 51.962 10.7657 51.4805 7.57568H48.4811V8.30288C48.4811 9.59569 48.4811 10.9241 48.4811 12.2363C48.4811 13.1703 47.9285 13.8361 47.0558 13.8781C45.9181 13.9331 44.7708 13.9169 43.6299 13.8781C43.5062 13.8771 43.3841 13.8508 43.271 13.8007C43.1579 13.7507 43.0563 13.678 42.9724 13.5871C42.8885 13.4962 42.8241 13.3891 42.7832 13.2724C42.7423 13.1557 42.7258 13.0319 42.7346 12.9085C42.7342 12.7863 42.7581 12.6653 42.805 12.5525C42.852 12.4397 42.921 12.3374 43.008 12.2516C43.095 12.1658 43.1982 12.0982 43.3117 12.0529C43.4251 12.0075 43.5465 11.9852 43.6687 11.9874C43.9208 11.9874 44.1761 11.9874 44.4314 11.9874H46.5419V2.03599H18.2133V11.9809H38.6655C39.7256 11.9809 40.1555 12.2492 40.1619 12.915C40.1684 13.5808 39.7094 13.8846 38.6267 13.8846H33.3617V19.7863ZM16.274 49.4853C16.274 47.9566 16.274 46.5409 16.274 45.1253C16.274 43.6515 16.8203 43.115 18.3135 43.115C22.4073 43.115 26.5109 43.115 30.6242 43.115H31.3934V37.5624H18.2941C16.7879 37.5624 16.274 37.0485 16.274 35.5456C16.274 30.9755 16.274 26.4054 16.274 21.8354C16.274 20.3195 16.8073 19.7863 18.2973 19.7863H31.387V13.8878H18.1357C16.8655 13.8878 16.2773 13.2964 16.2708 12.0229C16.2644 10.7495 16.2708 9.4858 16.2708 8.21562V7.50457H10.075C8.43639 7.50457 7.71242 8.22531 7.70919 9.85102V22.6272L8.30388 22.7823C9.33981 23.0201 10.3038 23.5024 11.1151 24.189C11.9265 24.8755 12.5617 25.7463 12.9677 26.7286C13.3103 27.5043 13.1842 28.0602 12.6445 28.3123C12.1047 28.5644 11.5908 28.3123 11.2224 27.4655C11.2224 27.4268 11.1933 27.388 11.1739 27.3492C10.7265 26.3662 9.96365 25.5607 9.00638 25.0606C8.04911 24.5605 6.95225 24.3943 5.88981 24.5885C4.82737 24.7827 3.86019 25.3261 3.14172 26.1325C2.42324 26.9389 1.99461 27.9621 1.92383 29.0398C1.85304 30.1175 2.14416 31.188 2.751 32.0815C3.35783 32.9749 4.24563 33.6401 5.27355 33.9716C6.30147 34.3031 7.41064 34.2818 8.42509 33.9112C9.43955 33.5405 10.3012 32.8418 10.8733 31.9257C10.9832 31.748 11.0673 31.5476 11.1965 31.3795C11.256 31.2781 11.3352 31.1896 11.4295 31.1193C11.5238 31.049 11.6312 30.9983 11.7455 30.9703C11.8597 30.9422 11.9784 30.9374 12.0945 30.9561C12.2106 30.9748 12.3218 31.0165 12.4215 31.0789C12.5307 31.1243 12.6292 31.1922 12.7105 31.278C12.7918 31.3639 12.8541 31.466 12.8934 31.5775C12.9327 31.6891 12.9482 31.8076 12.9387 31.9255C12.9292 32.0434 12.895 32.158 12.8384 32.2619C12.629 32.6994 12.3767 33.1151 12.0853 33.503C11.019 34.8888 9.45544 35.8056 7.72535 36.0595C7.72535 37.181 7.72535 38.2766 7.72535 39.3723C7.76364 39.5776 7.85502 39.7692 7.99038 39.9282C8.82424 41.1176 9.69688 42.2456 10.4887 43.4446C10.5972 43.6121 10.6684 43.801 10.6974 43.9984C10.7264 44.1958 10.7126 44.3972 10.6568 44.5888C10.5114 44.87 10.0104 45.0607 9.62901 45.1124C8.99135 45.1622 8.35108 45.1698 7.71242 45.135C7.71242 45.9592 7.71242 46.6961 7.71242 47.4362C7.73505 48.6644 8.51396 49.4594 9.73567 49.4788C11.0285 49.4982 12.3213 49.4788 13.6141 49.4788L16.274 49.4853ZM46.5419 21.7416H18.2197V35.6005H46.5419V21.7416ZM53.3938 6.97129C53.3938 7.93014 53.6781 8.86746 54.2108 9.66471C54.7436 10.462 55.5007 11.0834 56.3866 11.4503C57.2724 11.8172 58.2472 11.9132 59.1876 11.7262C60.1281 11.5391 60.9919 11.0774 61.6699 10.3994C62.3479 9.72136 62.8097 8.85752 62.9967 7.91709C63.1838 6.97667 63.0878 6.00189 62.7208 5.11603C62.3539 4.23017 61.7325 3.47301 60.9353 2.9403C60.138 2.40759 59.2007 2.12326 58.2418 2.12326C56.9583 2.12668 55.7285 2.63896 54.8221 3.54777C53.9157 4.45659 53.4067 5.68775 53.4067 6.97129H53.3938ZM58.2418 44.9702C56.9561 44.9612 55.7194 45.4633 54.8038 46.3661C53.8883 47.2689 53.3689 48.4985 53.3599 49.7843C53.3509 51.07 53.853 52.3067 54.7558 53.2223C55.6587 54.1378 56.8882 54.6572 58.174 54.6662C58.8106 54.6707 59.4419 54.5497 60.0318 54.3102C60.6217 54.0707 61.1587 53.7173 61.612 53.2703C62.0653 52.8232 62.4262 52.2913 62.6739 51.7048C62.9217 51.1183 63.0515 50.4888 63.0559 49.8521C63.0604 49.2155 62.9394 48.5842 62.6999 47.9943C62.4604 47.4044 62.107 46.8675 61.66 46.4141C61.2129 45.9608 60.681 45.5999 60.0945 45.3522C59.508 45.1044 58.8785 44.9746 58.2418 44.9702ZM56.9749 27.1294C57.4241 27.75 57.8023 28.2671 58.2289 28.8521L59.47 27.1294H56.9749ZM5.52111 43.1926H7.98391L6.74928 41.4731L5.52111 43.1926Z" fill="white"/>
<path id="Vector_2" d="M24.1217 53.6966C23.4235 53.6966 22.7254 53.6966 22.0305 53.6966C21.0221 53.674 20.5438 53.2085 20.5341 52.2163C20.5212 50.777 20.5212 49.3387 20.5341 47.9016C20.5341 46.9675 21.048 46.4504 21.9918 46.4342C23.4289 46.4148 24.8661 46.4148 26.3033 46.4342C27.2729 46.4504 27.7738 46.9901 27.7835 47.9597C27.7835 49.356 27.7835 50.7522 27.7835 52.1614C27.7835 53.2118 27.2793 53.6966 26.2128 53.7127C25.534 53.7224 24.8198 53.6966 24.1217 53.6966ZM25.8572 48.4122H22.4895V51.7541H25.8572V48.4122Z" fill="white"/>
<path id="Vector_3" d="M36.9363 52.5169H30.9086C30.0876 52.5169 29.6793 52.2013 29.6836 51.5699C29.6836 50.9559 30.1135 50.6003 30.915 50.6003H43.0286C43.5846 50.6003 44.0467 50.7425 44.1954 51.3469C44.357 51.9933 43.9142 52.5008 43.1515 52.504C41.0797 52.5234 39.008 52.5169 36.9363 52.5169Z" fill="white"/>
<path id="Vector_4" d="M36.9943 49.2526C35.0292 49.2526 33.0631 49.2526 31.0958 49.2526C30.8634 49.263 30.6305 49.2489 30.4009 49.2106C30.1995 49.1806 30.0159 49.078 29.8849 48.922C29.7539 48.766 29.6845 48.5674 29.6899 48.3638C29.6599 48.1509 29.7121 47.9346 29.8357 47.7587C29.9594 47.5829 30.1453 47.4606 30.3557 47.4168C30.6028 47.3626 30.856 47.3408 31.1088 47.3521H42.7796C42.9056 47.3521 43.0317 47.3521 43.1577 47.3521C43.8559 47.3974 44.2469 47.7626 44.2243 48.3476C44.2017 48.9326 43.8203 49.2461 43.1448 49.2493C41.0957 49.259 39.0434 49.2526 36.9943 49.2526Z" fill="white"/>
<path id="Vector_5" d="M32.3602 6.03398H22.2117C22.0016 6.03398 21.7333 6.10508 21.5911 6.00166C21.2693 5.81014 21.0074 5.53252 20.8348 5.20011C20.6765 4.75733 20.9544 4.37595 21.4101 4.21112C21.6112 4.15081 21.821 4.1246 22.0307 4.13355C28.9257 4.13355 35.8206 4.13355 42.7156 4.13355C42.9456 4.1254 43.1752 4.15711 43.3943 4.22728C43.4933 4.25191 43.5862 4.29629 43.6676 4.35776C43.749 4.41924 43.817 4.49652 43.8678 4.58498C43.9185 4.67344 43.9508 4.77125 43.9627 4.87251C43.9747 4.97378 43.9661 5.07642 43.9373 5.17426C43.7724 5.51168 43.5174 5.79692 43.2004 5.99842C43.0647 6.10185 42.79 6.03398 42.5799 6.03398H32.3602Z" fill="white"/>
<path id="Vector_6" d="M32.3891 9.60215C30.5533 9.60215 28.7175 9.60215 26.8947 9.60215C26.1158 9.60215 25.66 9.23046 25.6762 8.63254C25.6924 8.03462 26.1351 7.69849 26.8785 7.69849C30.5738 7.69849 34.2691 7.69849 37.9643 7.69849C38.5041 7.69849 38.9857 7.87948 39.06 8.43539C39.0564 8.79388 38.9219 9.13869 38.6818 9.40499C38.5461 9.56983 38.1809 9.58599 37.9191 9.58922C36.0639 9.60861 34.2281 9.60215 32.3891 9.60215Z" fill="white"/>
<path id="Vector_7" d="M6.78805 25.5458C7.29052 25.5452 7.78806 25.645 8.25152 25.8391C8.71499 26.0332 9.13509 26.3178 9.48722 26.6762C9.83935 27.0347 10.1164 27.4598 10.3023 27.9266C10.4881 28.3935 10.579 28.8927 10.5695 29.3951C10.5619 30.399 10.159 31.3595 9.44819 32.0685C8.73737 32.7776 7.77584 33.178 6.77189 33.183C5.75611 33.1746 4.78418 32.768 4.06498 32.0507C3.34579 31.3333 2.93675 30.3624 2.92578 29.3466C2.92831 28.843 3.03038 28.3449 3.22613 27.8809C3.42188 27.4169 3.70744 26.9961 4.06639 26.6429C4.42534 26.2897 4.85059 26.0109 5.31768 25.8226C5.78476 25.6343 6.28447 25.5402 6.78805 25.5458ZM6.76219 27.4527C6.50834 27.4518 6.25686 27.5015 6.02244 27.5989C5.78803 27.6963 5.57539 27.8395 5.39694 28.0201C5.2185 28.2006 5.07783 28.4149 4.98317 28.6505C4.8885 28.886 4.84173 29.138 4.8456 29.3919C4.86207 29.8925 5.07006 30.3678 5.42668 30.7196C5.7833 31.0714 6.26134 31.2729 6.76219 31.2826C7.01471 31.2809 7.2644 31.2293 7.49692 31.1309C7.72944 31.0324 7.94021 30.8889 8.11711 30.7087C8.29401 30.5285 8.43355 30.3151 8.52772 30.0808C8.6219 29.8465 8.66884 29.5959 8.66585 29.3434C8.66719 29.0925 8.61834 28.8439 8.52217 28.6122C8.426 28.3806 8.28446 28.1704 8.10587 27.9943C7.92729 27.8181 7.71527 27.6794 7.48229 27.5864C7.24931 27.4934 7.00008 27.4479 6.74926 27.4527H6.76219Z" fill="white"/>
<path id="Vector_8" d="M32.4369 24.1591H42.5208C42.7365 24.1504 42.9525 24.1569 43.1672 24.1785C43.3759 24.2069 43.5687 24.3052 43.7143 24.4574C43.8599 24.6096 43.9495 24.8066 43.9687 25.0163C43.9878 25.226 43.9353 25.436 43.8196 25.612C43.704 25.788 43.5321 25.9196 43.332 25.9852C43.0871 26.0468 42.8346 26.0729 42.5822 26.0628C35.795 26.0628 29.0077 26.0628 22.2205 26.0628C21.9888 26.076 21.7564 26.0597 21.5288 26.0143C21.3144 25.9606 21.1259 25.8328 20.9965 25.6536C20.8672 25.4743 20.8054 25.2551 20.822 25.0346C20.8386 24.8142 20.9326 24.6068 21.0874 24.4489C21.2422 24.2911 21.4477 24.193 21.6678 24.1721C21.8831 24.1603 22.0989 24.1603 22.3142 24.1721L32.4369 24.1591Z" fill="white"/>
<path id="Vector_9" d="M32.302 29.6342H22.1535C21.9438 29.6501 21.733 29.6382 21.5264 29.5986C21.3084 29.5473 21.1157 29.4202 20.9829 29.2399C20.85 29.0596 20.7856 28.8379 20.8011 28.6145C20.8166 28.391 20.9111 28.1804 21.0677 28.0203C21.2243 27.8601 21.4327 27.7608 21.6557 27.7402C21.8247 27.7288 21.9942 27.7288 22.1632 27.7402H42.6509C42.7984 27.7321 42.9462 27.7321 43.0937 27.7402C43.2096 27.7427 43.3238 27.7681 43.4299 27.8147C43.536 27.8614 43.6319 27.9286 43.712 28.0123C43.7922 28.096 43.855 28.1947 43.897 28.3028C43.939 28.4108 43.9592 28.5261 43.9567 28.642C43.9764 28.8778 43.9023 29.112 43.7504 29.2936C43.5985 29.4751 43.3811 29.5894 43.1454 29.6116C42.957 29.6375 42.7664 29.644 42.5766 29.6309L32.302 29.6342Z" fill="white"/>
<path id="Vector_10" d="M32.3788 33.1991C30.3943 33.1991 28.4088 33.1991 26.4222 33.1991C25.9212 33.1991 25.4946 33.0019 25.4299 32.5107C25.4235 32.1511 25.5373 31.7996 25.7531 31.512C25.863 31.3536 26.2089 31.3051 26.448 31.3019C30.3933 31.3019 34.3417 31.3019 38.2934 31.3019C38.9818 31.3019 39.3858 31.6865 39.3729 32.2715C39.36 32.8565 38.9592 33.1991 38.2578 33.1991C36.3057 33.2023 34.3406 33.1991 32.3788 33.1991Z" fill="white"/>
<path id="Vector_11" d="M54.4377 6.95831C54.4407 5.94597 54.8457 4.97629 55.5636 4.26258C56.2816 3.54888 57.2537 3.1496 58.266 3.1526C59.2783 3.1556 60.248 3.56063 60.9617 4.27858C61.6754 4.99653 62.0747 5.9686 62.0717 6.98093C62.0649 7.99602 61.6584 8.96755 60.9404 9.68504C60.2223 10.4025 59.2504 10.8082 58.2353 10.8141C57.7325 10.8112 57.2353 10.709 56.772 10.5134C56.3088 10.3179 55.8888 10.0329 55.536 9.67464C55.1832 9.31642 54.9045 8.89208 54.7161 8.42595C54.5276 7.95983 54.433 7.46108 54.4377 6.95831ZM56.3446 7.01325C56.3561 7.51249 56.5598 7.98804 56.9132 8.34085C57.2666 8.69366 57.7425 8.89653 58.2418 8.90722C58.7548 8.903 59.2456 8.69733 59.6083 8.33457C59.9711 7.97181 60.1767 7.48101 60.181 6.96801C60.1677 6.4677 59.9615 5.99191 59.6055 5.64014C59.2495 5.28836 58.7713 5.08784 58.2708 5.08051C58.0166 5.0779 57.7644 5.12615 57.5291 5.22244C57.2938 5.31873 57.0801 5.4611 56.9006 5.64118C56.7212 5.82126 56.5795 6.03542 56.484 6.27105C56.3885 6.50668 56.3411 6.75903 56.3446 7.01325Z" fill="white"/>
<path id="Vector_12" d="M54.4412 49.7439C54.4453 49.242 54.5495 48.746 54.7475 48.2849C54.9456 47.8238 55.2336 47.4068 55.5947 47.0583C55.9559 46.7098 56.3829 46.4368 56.8507 46.2553C57.3186 46.0738 57.818 45.9874 58.3197 46.0012C59.3252 46.0182 60.2835 46.4314 60.9861 47.151C61.6887 47.8705 62.079 48.8383 62.072 49.844C62.055 50.8594 61.6382 51.827 60.912 52.5368C60.1859 53.2466 59.209 53.6413 58.1936 53.6352C57.6914 53.6272 57.1957 53.5201 56.7349 53.32C56.2742 53.1199 55.8575 52.8308 55.5089 52.4692C55.1602 52.1076 54.8864 51.6807 54.7032 51.213C54.52 50.7453 54.4309 50.2461 54.4412 49.7439ZM58.2582 47.9048C58.0104 47.9006 57.7642 47.9453 57.5337 48.0365C57.3032 48.1277 57.093 48.2636 56.9152 48.4363C56.7374 48.609 56.5955 48.8151 56.4976 49.0428C56.3997 49.2706 56.3478 49.5154 56.3449 49.7632C56.3385 50.0168 56.3824 50.2692 56.4742 50.5056C56.566 50.7421 56.7039 50.958 56.8798 51.1408C57.0556 51.3235 57.266 51.4696 57.4988 51.5705C57.7315 51.6713 57.982 51.725 58.2356 51.7283C58.7484 51.7233 59.2387 51.5173 59.6013 51.1548C59.9639 50.7922 60.1698 50.3019 60.1748 49.7891C60.1672 49.2861 59.9618 48.8064 59.6031 48.4538C59.2444 48.1011 58.7613 47.9039 58.2582 47.9048Z" fill="white"/>
</g>
</g>
</svg>
