<svg width="65" height="91" viewBox="0 0 65 91" fill="none" xmlns="http://www.w3.org/2000/svg">
<g id="Capa 2">
<g id="Capa 1">
<path id="Vector" d="M0.876876 90.9667C0.579724 90.757 0.343038 90.4728 0.190625 90.1425C0.0382124 89.8123 -0.0245515 89.4478 0.00864668 89.0856C0.00864668 60.033 0.00864668 30.9865 0.00864668 1.94606C0.00864668 0.404048 0.415629 0.00158691 1.97121 0.00158691C6.00034 0.00158691 10.0249 0.00158691 14.0541 0.00158691C14.8364 0.00158691 15.4649 0.191512 15.6956 1.03261C15.9398 1.93702 15.2705 2.66506 14.14 2.66506C10.6761 2.66506 7.21224 2.66506 3.73932 2.66506H2.72186V88.2309H62.2499V19.7674H49.1902C47.7884 19.7674 47.3814 19.374 47.3814 17.9902C47.3814 13.2511 47.3814 8.51355 47.3814 3.77748V2.67863H21.3391C21.0382 2.70455 20.7356 2.70455 20.4347 2.67863C20.2706 2.66884 20.1102 2.62676 19.9625 2.55482C19.8148 2.48287 19.6827 2.38247 19.5739 2.25937C19.4651 2.13627 19.3817 1.9929 19.3284 1.83747C19.2751 1.68205 19.253 1.51764 19.2635 1.35367C19.2531 1.18568 19.2767 1.01732 19.3331 0.858725C19.3894 0.700125 19.4773 0.55456 19.5913 0.430787C19.7054 0.307013 19.8433 0.207589 19.9968 0.138492C20.1503 0.0693962 20.3161 0.0320564 20.4844 0.0287191C20.7208 0.0128096 20.958 0.0128096 21.1944 0.0287191C30.1661 0.0287191 39.1363 0.0287191 48.105 0.0287191C48.4852 0.0109417 48.8643 0.0836531 49.2109 0.240877C49.5576 0.398102 49.862 0.635351 50.0992 0.933125C54.7961 6.35956 59.5095 11.7543 64.2396 17.1175C64.7435 17.6593 65.0161 18.3764 64.9993 19.1162C64.9812 42.4137 64.9812 65.7112 64.9993 89.0087C64.9993 89.8317 64.8591 90.5281 64.131 90.9984L0.876876 90.9667ZM50.1082 4.97582V17.0406H60.6445L50.1082 4.97582Z" fill="white"/>
<path id="Vector_2" d="M16.3876 45.6108H19.1008C19.4942 43.3498 19.4942 43.3498 21.8773 43.3498H30.9983V37.4712C26.7521 35.7709 24.88 32.8813 25.599 29.1778C25.9316 27.5818 26.8168 26.1543 28.0986 25.1469C29.3804 24.1395 30.9767 23.6168 32.6061 23.6708C34.2355 23.7249 35.7936 24.3522 37.0059 25.4423C38.2181 26.5325 39.0068 28.0154 39.2329 29.63C39.6851 33.1346 37.6095 36.413 33.7703 37.3988V43.3272H43.5379C45.1658 43.3272 45.4326 43.585 45.514 45.2039C45.5264 45.336 45.546 45.4673 45.5728 45.5973H48.3945V37.3988C47.3465 37.1654 46.365 36.6975 45.5238 36.0302C44.6826 35.3628 44.0036 34.5135 43.5379 33.5461C42.83 32.1195 42.6537 30.4874 43.0404 28.9426C43.4118 27.3833 44.313 26.0013 45.5902 25.0327C46.8673 24.0641 48.4412 23.5691 50.0429 23.6321C51.6445 23.6951 53.1746 24.3122 54.3718 25.3781C55.5689 26.4441 56.3588 27.8926 56.6065 29.4762C57.2261 32.9401 55.2997 35.7709 51.1168 37.4441V45.5837C51.1168 48.1974 50.9992 48.2969 48.3493 48.2969H45.5683V50.6484H49.2582C50.6872 50.6484 51.1168 51.0735 51.1168 52.5024C51.1168 55.4915 51.1168 58.4805 51.1168 61.4696V62.5142C52.6407 62.5142 54.0561 62.5142 55.4715 62.5142C56.7422 62.5142 57.1899 62.9664 57.1944 64.21C57.1944 66.7287 57.1944 69.243 57.1944 71.7617C57.1944 72.8063 56.6879 73.3942 55.8378 73.3897C54.9877 73.3851 54.5264 72.7973 54.5219 71.7437C54.5219 69.5912 54.5219 67.4342 54.5219 65.2319H45.5457V81.6876H54.5309C54.5309 80.6927 54.5309 79.6708 54.5309 78.6488C54.5309 77.6268 55.0555 76.9214 55.8875 76.9485C56.7196 76.9756 57.1763 77.5906 57.1808 78.6397C57.1808 79.9994 57.1808 81.356 57.1808 82.7096C57.1808 83.926 56.7286 84.3918 55.5348 84.3918C51.8328 84.3918 48.1307 84.3918 44.4287 84.3918C43.2937 84.3918 42.8234 83.917 42.8189 82.7593C42.8189 76.543 42.8189 70.3252 42.8189 64.1059C42.8189 62.9709 43.3027 62.5142 44.4604 62.5006C45.7311 62.5006 47.0017 62.5006 48.3584 62.5006V53.3616H45.6451C45.5999 53.4249 45.5457 53.4701 45.5411 53.5199C45.3829 55.4734 45.2201 55.6181 43.2123 55.6181H33.7703V62.5232C35.1269 62.5232 36.4519 62.5232 37.7723 62.5232C39.0927 62.5232 39.5811 62.9483 39.5811 64.332C39.5811 70.4338 39.5811 76.5325 39.5811 82.6282C39.5811 83.9848 39.1289 84.4099 37.7723 84.4099H26.9963C25.6397 84.4099 25.2146 84.0029 25.2146 82.601C25.2146 76.5054 25.2146 70.4066 25.2146 64.3049C25.2146 62.9212 25.6171 62.5187 27.0234 62.4961C28.3258 62.4961 29.6236 62.4961 31.0028 62.4961V55.6497C30.7315 55.6497 30.424 55.6136 30.0984 55.6136H21.5699C19.5395 55.6136 19.3088 55.4236 19.1687 53.3119H16.374V62.5187C17.7623 62.5187 19.1144 62.5187 20.4665 62.5187C21.7281 62.5187 22.1758 62.9709 22.1803 64.2326C22.1803 70.3916 22.1803 76.5506 22.1803 82.7096C22.1803 83.9622 21.7281 84.4099 20.462 84.4099H9.53221C8.26604 84.4099 7.81836 83.9577 7.81836 82.7051C7.81836 76.5521 7.81836 70.3946 7.81836 64.2326C7.81836 62.9709 8.27056 62.5278 9.52316 62.5187C10.8526 62.5187 12.1866 62.5187 13.6246 62.5187C13.6246 62.1705 13.6653 61.8585 13.6653 61.5465C13.6653 58.4986 13.6653 55.4508 13.6653 52.3984C13.6653 51.0915 14.1175 50.6619 15.4335 50.6529C16.6454 50.6529 17.8573 50.6529 19.1415 50.6529V48.3241C17.9613 48.3241 16.7584 48.3241 15.5556 48.3241C14.0768 48.3241 13.6653 47.908 13.6653 46.4248C13.6653 43.4357 13.6653 40.4467 13.6653 37.4079C12.649 37.1913 11.6923 36.7553 10.862 36.1304C10.0317 35.5055 9.34793 34.7069 8.85843 33.7903C8.09658 32.3633 7.87654 30.709 8.23891 29.1326C8.58189 27.5485 9.47082 26.1354 10.7502 25.1404C12.0297 24.1454 13.6181 23.6318 15.2379 23.6895C16.8576 23.7471 18.4056 24.3724 19.611 25.4558C20.8164 26.5393 21.6026 28.012 21.8321 29.6164C22.2843 33.3109 20.2585 36.2141 16.3831 37.4034L16.3876 45.6108ZM21.9271 52.9094H42.7917V46.0585H21.9271V52.9094ZM19.4535 81.7012V65.2274H10.518V81.7012H19.4535ZM36.8453 81.7012V65.2274H27.9414V81.7193L36.8453 81.7012ZM36.6373 30.5706C36.6385 29.4506 36.1973 28.3756 35.4096 27.5794C34.6219 26.7833 33.5516 26.3306 32.4318 26.3199C31.8502 26.2819 31.2671 26.3637 30.7184 26.5601C30.1698 26.7566 29.6673 27.0635 29.242 27.4619C28.8167 27.8604 28.4777 28.3418 28.2459 28.8765C28.0142 29.4112 27.8946 29.9878 27.8946 30.5706C27.8946 31.1533 28.0142 31.7299 28.2459 32.2646C28.4777 32.7993 28.8167 33.2808 29.242 33.6792C29.6673 34.0776 30.1698 34.3846 30.7184 34.581C31.2671 34.7775 31.8502 34.8592 32.4318 34.8213C32.987 34.8183 33.5362 34.706 34.0481 34.4908C34.5599 34.2756 35.0244 33.9616 35.4149 33.5669C35.8054 33.1722 36.1143 32.7044 36.3241 32.1903C36.5338 31.6762 36.6402 31.1258 36.6373 30.5706ZM54.029 30.5706C54.0315 29.4501 53.5924 28.3738 52.807 27.5748C52.0215 26.7758 50.9529 26.3184 49.8325 26.3018C49.2618 26.2832 48.6931 26.3795 48.1603 26.5851C47.6275 26.7907 47.1415 27.1013 46.7311 27.4985C46.3208 27.8957 45.9945 28.3713 45.7717 28.8971C45.5488 29.4229 45.434 29.9882 45.434 30.5593C45.434 31.1303 45.5488 31.6956 45.7717 32.2214C45.9945 32.7472 46.3208 33.2229 46.7311 33.62C47.1415 34.0172 47.6275 34.3278 48.1603 34.5334C48.6931 34.739 49.2618 34.8354 49.8325 34.8168C50.9441 34.8002 52.0048 34.3478 52.7863 33.5571C53.5677 32.7663 54.0075 31.7004 54.0109 30.5887L54.029 30.5706ZM19.25 30.6927C19.2715 29.8573 19.0458 29.0343 18.6012 28.3268C18.1565 27.6193 17.5129 27.0589 16.7509 26.7159C15.9889 26.3729 15.1426 26.2626 14.3182 26.3988C13.4938 26.5351 12.728 26.9118 12.1169 27.4817C11.5058 28.0516 11.0766 28.7893 10.8832 29.6022C10.6899 30.4151 10.7409 31.2671 11.03 32.0511C11.3191 32.8351 11.8333 33.5163 12.5081 34.0091C13.1829 34.5019 13.9882 34.7845 14.823 34.8213C15.3831 34.8436 15.942 34.7548 16.4675 34.5598C16.993 34.3649 17.4747 34.0677 17.8847 33.6855C18.2947 33.3032 18.6248 32.8435 18.8561 32.333C19.0873 31.8224 19.2151 31.271 19.232 30.7108L19.25 30.6927Z" fill="white"/>
<path id="Vector_3" d="M50.0355 69.9665C49.6244 69.9913 49.2121 69.9913 48.801 69.9665C48.6307 69.9551 48.4644 69.9098 48.3119 69.8332C48.1594 69.7567 48.0238 69.6504 47.913 69.5206C47.8022 69.3908 47.7184 69.2402 47.6667 69.0776C47.6149 68.9149 47.5962 68.7436 47.6117 68.5737C47.6135 68.4102 47.6476 68.2487 47.712 68.0984C47.7765 67.9482 47.8701 67.8122 47.9874 67.6983C48.1047 67.5843 48.2433 67.4948 48.3954 67.4347C48.5474 67.3746 48.7099 67.3452 48.8734 67.3482C49.6104 67.312 50.3521 67.3211 51.0846 67.3482C51.4324 67.3344 51.7715 67.4593 52.0271 67.6955C52.2828 67.9317 52.4342 68.2598 52.448 68.6076C52.4618 68.9554 52.3369 69.2944 52.1007 69.5501C51.8645 69.8058 51.5364 69.9572 51.1886 69.971C50.8046 69.9936 50.4196 69.9936 50.0355 69.971V69.9665Z" fill="white"/>
<path id="Vector_4" d="M49.9727 72.1415C50.3525 72.1415 50.7414 72.1189 51.1213 72.1415C51.2911 72.1421 51.4592 72.1762 51.6159 72.2417C51.7725 72.3072 51.9148 72.403 52.0345 72.5235C52.1541 72.644 52.2489 72.7869 52.3133 72.9441C52.3778 73.1012 52.4107 73.2695 52.4101 73.4393C52.4205 73.6119 52.3958 73.7847 52.3376 73.9474C52.2794 74.1102 52.1888 74.2594 52.0713 74.3862C51.9538 74.513 51.8119 74.6147 51.6541 74.6851C51.4962 74.7555 51.3258 74.7932 51.1529 74.7959C50.3879 74.8412 49.6208 74.8412 48.8557 74.7959C48.6839 74.7907 48.5148 74.7513 48.3584 74.68C48.2019 74.6087 48.0613 74.5069 47.9447 74.3806C47.828 74.2543 47.7378 74.106 47.6791 73.9444C47.6205 73.7827 47.5946 73.6111 47.6031 73.4393C47.6091 73.0963 47.7492 72.7692 47.9935 72.5282C48.2378 72.2873 48.5669 72.1517 48.91 72.1506C49.2627 72.1189 49.6154 72.1415 49.9727 72.1415Z" fill="white"/>
<path id="Vector_5" d="M49.9909 79.5892C49.6083 79.6096 49.2249 79.6096 48.8423 79.5892C48.5072 79.5696 48.1923 79.4226 47.9621 79.1784C47.7318 78.9342 47.6035 78.6112 47.6035 78.2756C47.6035 77.9399 47.7318 77.617 47.9621 77.3728C48.1923 77.1286 48.5072 76.9816 48.8423 76.9619C49.637 76.9009 50.4352 76.9009 51.23 76.9619C51.3943 76.9671 51.5559 77.0051 51.7053 77.0738C51.8547 77.1425 51.9888 77.2405 52.0997 77.3619C52.2106 77.4833 52.296 77.6257 52.3509 77.7807C52.4057 77.9357 52.429 78.1001 52.4192 78.2643C52.4228 78.4345 52.3928 78.6038 52.3308 78.7623C52.2689 78.9209 52.1762 79.0657 52.0581 79.1884C51.9401 79.3111 51.7989 79.4092 51.6429 79.4772C51.4868 79.5452 51.3188 79.5818 51.1486 79.5847C50.7687 79.6164 50.3843 79.5847 50 79.5847L49.9909 79.5892Z" fill="white"/>
<path id="Vector_6" d="M14.9861 69.9754C14.6035 69.9958 14.2201 69.9958 13.8375 69.9754C13.4928 69.9602 13.1682 69.8087 12.9351 69.5544C12.7019 69.3 12.5792 68.9636 12.594 68.6188C12.5927 68.4485 12.6257 68.2797 12.691 68.1223C12.7563 67.965 12.8525 67.8224 12.974 67.703C13.0955 67.5837 13.2397 67.4899 13.3982 67.4274C13.5566 67.3649 13.726 67.3348 13.8963 67.3391C14.6334 67.3074 15.3705 67.312 16.1076 67.3391C16.2713 67.3337 16.4344 67.3606 16.5877 67.4184C16.7409 67.4762 16.8812 67.5638 17.0006 67.6759C17.1199 67.7881 17.2159 67.9228 17.283 68.0722C17.3502 68.2216 17.3872 68.3828 17.3918 68.5465C17.4105 68.7162 17.395 68.8879 17.346 69.0515C17.2971 69.2151 17.2158 69.3672 17.107 69.4988C16.9982 69.6304 16.8641 69.7388 16.7126 69.8175C16.5611 69.8963 16.3954 69.9438 16.2251 69.9573C15.8125 69.9823 15.3987 69.9823 14.9861 69.9573V69.9754Z" fill="white"/>
<path id="Vector_7" d="M14.972 72.1415C15.3564 72.1415 15.7407 72.1189 16.1251 72.1415C16.4685 72.1475 16.7956 72.2893 17.0346 72.536C17.2737 72.7826 17.4052 73.114 17.4003 73.4574C17.4094 73.6214 17.3858 73.7856 17.3306 73.9403C17.2755 74.095 17.1901 74.2372 17.0793 74.3585C16.9686 74.4798 16.8347 74.5777 16.6856 74.6466C16.5365 74.7156 16.3752 74.754 16.211 74.7598C15.3884 74.8389 14.5601 74.8389 13.7375 74.7598C13.5712 74.7525 13.4084 74.7106 13.2592 74.6369C13.11 74.5632 12.9778 74.4592 12.8711 74.3316C12.7643 74.2039 12.6853 74.0555 12.639 73.8956C12.5928 73.7358 12.5803 73.5681 12.6024 73.4032C12.5976 73.2394 12.6256 73.0763 12.6847 72.9235C12.7437 72.7706 12.8328 72.6311 12.9465 72.5132C13.0602 72.3952 13.1964 72.3012 13.347 72.2366C13.4976 72.172 13.6595 72.1381 13.8234 72.137C14.2061 72.1181 14.5895 72.1196 14.972 72.1415Z" fill="white"/>
<path id="Vector_8" d="M15.0084 79.5892C14.6285 79.5892 14.2396 79.6164 13.8598 79.5892C13.6896 79.5863 13.5216 79.5496 13.3657 79.4812C13.2098 79.4128 13.0691 79.3141 12.9517 79.1908C12.8343 79.0675 12.7426 78.9221 12.6819 78.763C12.6212 78.604 12.5927 78.4344 12.5981 78.2643C12.5878 78.1002 12.6106 77.9358 12.6653 77.7807C12.72 77.6257 12.8054 77.4834 12.9165 77.3622C13.0276 77.241 13.1619 77.1435 13.3116 77.0755C13.4613 77.0075 13.6231 76.9704 13.7874 76.9665C14.5821 76.9054 15.3804 76.9054 16.1751 76.9665C16.5101 76.9861 16.825 77.1331 17.0553 77.3773C17.2856 77.6215 17.4139 77.9444 17.4139 78.2801C17.4139 78.6158 17.2856 78.9387 17.0553 79.1829C16.825 79.4271 16.5101 79.5741 16.1751 79.5937C15.7817 79.6299 15.3837 79.5892 15.0084 79.5892Z" fill="white"/>
<path id="Vector_9" d="M32.3636 67.3345C32.748 67.3345 33.1324 67.3119 33.5122 67.3345C33.6764 67.3303 33.8399 67.3588 33.993 67.4183C34.1461 67.4779 34.2858 67.5673 34.4041 67.6813C34.5223 67.7953 34.6167 67.9317 34.6817 68.0826C34.7468 68.2334 34.7812 68.3957 34.7829 68.56C34.8063 68.7226 34.7958 68.8883 34.752 69.0467C34.7082 69.205 34.6321 69.3526 34.5284 69.48C34.4248 69.6075 34.2958 69.7121 34.1497 69.7872C34.0036 69.8624 33.8435 69.9064 33.6795 69.9166C32.8007 70.0184 31.913 70.0184 31.0342 69.9166C30.8701 69.8997 30.7115 69.8487 30.5684 69.7668C30.4253 69.6848 30.301 69.5738 30.2034 69.4409C30.1058 69.308 30.0372 69.1561 30.0019 68.995C29.9667 68.8339 29.9655 68.6673 29.9986 68.5057C30.0092 68.1922 30.1418 67.8953 30.3682 67.6782C30.5946 67.4611 30.8969 67.341 31.2105 67.3436C31.5949 67.3074 31.9793 67.3345 32.3636 67.3345Z" fill="white"/>
<path id="Vector_10" d="M32.4227 72.1461C32.8053 72.1257 33.1887 72.1257 33.5713 72.1461C33.7354 72.1502 33.8971 72.1867 34.047 72.2536C34.1969 72.3205 34.3321 72.4164 34.4448 72.5358C34.5575 72.6552 34.6454 72.7957 34.7035 72.9492C34.7616 73.1028 34.7887 73.2663 34.7832 73.4304C34.7994 73.5944 34.7818 73.76 34.7315 73.917C34.6812 74.074 34.5994 74.219 34.4909 74.3431C34.3824 74.4673 34.2497 74.5679 34.1009 74.6388C33.9521 74.7096 33.7903 74.7493 33.6256 74.7553C32.803 74.8345 31.9747 74.8345 31.1521 74.7553C30.9878 74.7486 30.8266 74.7086 30.6782 74.6379C30.5298 74.5671 30.3973 74.467 30.2886 74.3436C30.18 74.2202 30.0976 74.076 30.0462 73.9198C29.9949 73.7636 29.9757 73.5987 29.9899 73.4349C29.9869 73.2648 30.0179 73.0958 30.0812 72.9378C30.1445 72.7799 30.2388 72.6362 30.3585 72.5153C30.4781 72.3943 30.6208 72.2986 30.7781 72.2336C30.9353 72.1686 31.104 72.1358 31.2741 72.1371C31.654 72.1099 32.0384 72.1371 32.4227 72.1371V72.1461Z" fill="white"/>
<path id="Vector_11" d="M32.3822 79.5893C31.9712 79.6187 31.5586 79.6187 31.1477 79.5893C30.8326 79.5718 30.5365 79.433 30.3216 79.202C30.1066 78.971 29.9894 78.6657 29.9945 78.3502C29.9711 78.1873 29.9817 78.0212 30.0258 77.8625C30.0699 77.7039 30.1464 77.5561 30.2506 77.4286C30.3547 77.3011 30.4842 77.1966 30.6308 77.1217C30.7775 77.0468 30.9381 77.0032 31.1024 76.9936C31.9532 76.9032 32.8111 76.9032 33.6619 76.9936C33.8267 77.0034 33.9878 77.047 34.135 77.1217C34.2823 77.1965 34.4125 77.3007 34.5177 77.428C34.6229 77.5552 34.7008 77.7028 34.7465 77.8615C34.7922 78.0201 34.8048 78.1865 34.7834 78.3502C34.7851 78.6663 34.6655 78.9709 34.4493 79.2014C34.2331 79.4319 33.9367 79.5707 33.6212 79.5893C33.2086 79.6164 32.7947 79.6164 32.3822 79.5893Z" fill="white"/>
</g>
</g>
</svg>
