<svg width="65" height="72" viewBox="0 0 65 72" fill="none" xmlns="http://www.w3.org/2000/svg">
<g id="Capa 2">
<g id="Capa 1">
<path id="Vector" d="M9.63838 71.6849C8.12329 71.2414 6.95592 70.404 6.53722 68.8037C6.42376 68.307 6.37369 67.798 6.3882 67.2887C6.3882 61.1076 6.3882 54.929 6.3882 48.7527V47.823C6.14337 47.9579 5.9908 48.0359 5.84532 48.1211C5.04876 48.6057 4.1033 48.7844 3.18482 48.6241C2.26634 48.4637 1.43737 47.9752 0.85212 47.2494C0.266871 46.5236 -0.0348089 45.6099 0.00319952 44.6783C0.0412079 43.7467 0.416317 42.8606 1.05875 42.1849C1.6584 41.5426 2.31837 40.9536 2.96415 40.3291C1.84646 39.0802 1.47744 37.707 2.00258 36.2025C2.24593 35.5787 2.61421 35.0112 3.08479 34.5349C4.25216 33.2646 5.50824 32.0759 6.73593 30.8625C8.59875 28.9996 10.5503 28.8683 12.5054 30.3692C13.3428 30.0585 14.1983 29.799 15.0672 29.5922C15.5972 29.5269 16.1352 29.6003 16.6284 29.8051C16.7936 29.9005 16.9881 29.9316 17.1748 29.8923C17.3615 29.853 17.527 29.7461 17.6397 29.5922C18.0264 29.1628 18.4841 28.8009 18.9383 28.3858C17.8738 27.002 17.0365 25.6004 16.7242 23.986C16.5154 22.8487 16.3968 21.6966 16.3694 20.5406C16.3446 19.6323 16.8484 19.1213 17.519 19.1994C18.1896 19.2775 18.4806 19.7387 18.4416 20.6435C18.3001 22.8463 18.972 25.0244 20.3297 26.7648C21.6875 28.5051 23.6367 29.6867 25.8077 30.0854C30.0656 30.9405 34.4264 28.4319 35.9237 24.2947C36.656 22.2649 36.6357 20.0397 35.8666 18.0236C35.0974 16.0075 33.6304 14.3342 31.7321 13.308C29.8339 12.2818 27.6305 11.9707 25.5224 12.4313C23.4142 12.8919 21.5413 14.0936 20.2441 15.8179C20.1199 15.9847 20.0063 16.1728 19.8892 16.3289C19.4635 16.8824 18.8673 17.003 18.3741 16.6447C18.2607 16.5628 18.165 16.4587 18.0929 16.3388C18.0207 16.2189 17.9736 16.0857 17.9544 15.9471C17.9352 15.8085 17.9442 15.6674 17.981 15.5324C18.0177 15.3974 18.0815 15.2712 18.1683 15.1615C18.988 13.9162 20.0411 12.8414 21.2695 11.9965C21.5531 11.7848 21.7589 11.4855 21.855 11.1449C23.4126 4.66582 28.8876 0.333428 35.5441 0.315687C39.1467 0.315687 42.747 0.315687 46.3449 0.315687C48.1904 0.298214 50.0209 0.648295 51.7298 1.34552C53.4386 2.04275 54.9915 3.07317 56.298 4.37671C57.6045 5.68025 58.6385 7.23084 59.3396 8.93807C60.0407 10.6453 60.395 12.475 60.3817 14.3206C60.3817 14.8315 60.3817 15.3425 60.3817 15.8534C60.3569 17.0527 60.4349 18.1633 61.0736 19.3023C62.0387 21.0196 61.7549 22.8505 60.7685 24.543C60.5453 24.9338 60.4233 25.3741 60.4136 25.824C60.3853 29.7696 60.4136 33.7188 60.3959 37.668C60.3959 40.2085 58.8063 41.8052 56.2658 41.8123C53.3385 41.8123 50.4112 41.8123 47.4839 41.8123H46.6181C46.5934 42.3493 46.6029 42.8874 46.6465 43.4232C46.6642 43.5722 46.9836 43.7496 47.1929 43.778C51.0297 44.5799 54.8689 45.37 58.7105 46.1483C60.1564 46.4207 61.4944 47.1002 62.5674 48.1069C63.1281 48.6356 63.199 49.2281 62.7768 49.6965C62.3545 50.1649 61.7549 50.1755 61.1801 49.6575C60.353 48.9024 59.332 48.3925 58.2315 48.1849C55.2971 47.5995 52.3662 46.9927 49.4354 46.4108C49.3538 46.4108 49.2686 46.4108 49.0274 46.3753C50.0528 47.3511 50.9682 48.2311 51.8908 49.1039C53.4733 50.6084 53.3598 52.1945 51.5821 53.4434L50.0989 54.4902L51.2344 55.9095C52.5117 57.5168 52.1995 59.0674 50.3828 60.0573C47.7961 61.4766 45.213 62.8959 42.605 64.2585C42.399 64.3428 42.2267 64.4929 42.115 64.6855C42.0033 64.8781 41.9585 65.1022 41.9877 65.3229C42.0231 66.7103 41.9877 68.1012 41.9877 69.5808H60.623C62.2481 69.5808 62.9045 68.9279 62.9045 67.3099C62.9045 62.9456 62.9045 58.5789 62.9045 54.2099C62.8914 53.9332 62.9238 53.6563 63.0003 53.3902C63.0259 53.2771 63.0741 53.1704 63.1422 53.0765C63.2103 52.9827 63.2967 52.9037 63.3963 52.8442C63.4958 52.7848 63.6064 52.7463 63.7214 52.731C63.8363 52.7156 63.9531 52.7238 64.0648 52.7551C64.4308 52.9482 64.7346 53.241 64.9412 53.5996C65.0512 53.7557 64.9731 54.0502 64.9731 54.2844V66.8274C64.9731 69.6979 64.3593 70.624 61.7513 71.6707H25.5416C25.3038 71.3159 24.9206 70.9611 24.8639 70.5672C24.7681 69.9392 25.3074 69.5844 26.159 69.5808H39.9048C39.9048 68.0373 39.9048 66.579 39.9048 65.1207C39.9222 64.9514 39.8837 64.7811 39.7953 64.6357C39.7069 64.4903 39.5734 64.3778 39.4152 64.3152C36.7185 62.8723 34.0266 61.4163 31.3394 59.9473C29.7782 59.0922 29.4517 57.4813 30.541 56.0727C30.9491 55.544 31.3749 55.0082 31.8113 54.4724C31.204 54.0967 30.621 53.6831 30.0656 53.2341C29.6279 52.8652 29.2796 52.4018 29.0472 51.8787C28.6924 50.9206 29.0153 50.0549 29.7569 49.3559L32.9503 46.2973C29.7179 46.9608 26.6983 47.5569 23.6894 48.2027C20.6805 48.8485 18.9844 50.9881 18.9809 54.0502C18.9809 58.9751 18.9809 63.8977 18.9809 68.8179V69.5808C19.5451 69.5808 20.0099 69.5808 20.4711 69.5808C21.0673 69.5595 21.603 69.6482 21.8372 70.2905C22.0714 70.9327 21.6811 71.3336 21.2127 71.6778L9.63838 71.6849ZM38.1662 18.1314C39.8729 24.9404 35.576 31.0753 29.3346 32.225C29.3661 32.3336 29.404 32.4402 29.4482 32.5443C31.013 35.6739 33.5216 37.5367 37.0201 37.7957C39.3513 37.966 41.7073 37.8844 44.0527 37.8525C49.3751 37.7815 53.2781 33.8039 53.2781 28.4745C53.2781 25.2243 53.2781 21.9741 53.2781 18.7239V18.0569C51.8458 17.8675 50.4779 17.3444 49.2848 16.5296C48.0916 15.7149 47.1065 14.6313 46.4088 13.3661C44.514 16.4566 41.7961 18.0569 38.1662 18.1314ZM24.2145 10.5204C25.1513 10.3927 25.9709 10.2188 26.8012 10.1656C27.6312 10.1187 28.4638 10.1603 29.285 10.2898C30.8849 10.5444 32.4082 11.1515 33.7448 12.0671C35.0813 12.9827 36.1976 14.1838 37.013 15.5837C37.0828 15.693 37.1743 15.7868 37.2816 15.8594C37.389 15.932 37.5101 15.9819 37.6375 16.006C41.1148 16.2011 44.4288 14.0474 45.1882 10.6198C45.3124 10.0591 45.3159 9.47014 45.4082 8.89887C45.4361 8.64736 45.5563 8.41514 45.7456 8.24718C45.9348 8.07922 46.1797 7.98746 46.4327 7.98967C46.6858 7.99187 46.929 8.08789 47.1153 8.25913C47.3016 8.43037 47.4178 8.66465 47.4413 8.91661C47.4874 9.27144 47.5016 9.65819 47.5406 10.0272C47.8564 13.0077 50.4644 15.6334 53.4449 15.9137C55.0416 16.0628 56.6383 16.1195 58.2812 16.2189C58.2812 15.6299 58.2812 14.9344 58.2812 14.239C58.2831 12.6815 57.9769 11.139 57.3804 9.70034C56.7838 8.26165 55.9087 6.95513 54.8052 5.85598C53.7018 4.75683 52.3919 3.88675 50.9509 3.29581C49.5099 2.70487 47.9662 2.40474 46.4088 2.41269C42.7399 2.3985 39.0734 2.3985 35.4092 2.41269C33.8708 2.40055 32.3454 2.69523 30.9223 3.27949C29.4991 3.86375 28.2067 4.72587 27.1205 5.81545C25.7748 7.11703 24.7759 8.73438 24.2145 10.5204ZM16.8413 69.5844C16.8592 69.4869 16.8723 69.3886 16.8803 69.2899C16.8803 63.9297 16.8803 58.5659 16.8803 53.1986C16.8803 52.0703 16.2097 51.4245 15.0282 51.389C14.0063 51.3606 12.9844 51.389 11.9625 51.389H8.47456V66.838C8.47456 67.1928 8.47456 67.5477 8.4923 67.8812C8.49893 68.3177 8.67121 68.7354 8.97427 69.0497C9.27732 69.3639 9.68849 69.5513 10.1245 69.5737C12.3492 69.6127 14.574 69.5844 16.8413 69.5844ZM20.276 29.8441C19.8396 30.3018 19.3783 30.7347 18.9844 31.2173C18.9109 31.3182 18.8606 31.4342 18.8373 31.557C18.814 31.6797 18.8182 31.806 18.8496 31.9269C19.0572 32.4587 19.1508 33.0281 19.1245 33.5984C19.0983 34.1686 18.9526 34.727 18.697 35.2374C18.5904 35.4579 18.5605 35.7076 18.6119 35.9471C18.9113 36.9346 18.838 37.9976 18.4061 38.9347C17.6964 40.5811 17.1358 42.2842 16.3233 43.8703C15.4823 45.5167 15.571 47.2305 15.6136 48.962C15.6278 49.0523 15.6623 49.1382 15.7146 49.2132C15.7668 49.2882 15.8354 49.3503 15.9152 49.3949C16.5149 49.6717 17.1358 49.8987 17.7816 50.1578C17.8172 50.1305 17.8473 50.0968 17.8703 50.0584C18.4419 49.0305 19.2364 48.1436 20.1954 47.4627C21.1544 46.7818 22.2537 46.3242 23.4126 46.1234C26.897 45.4422 30.3672 44.7041 33.8445 43.9945C35.3418 43.6858 35.3418 43.6822 35.2637 42.1671C35.2637 42.0784 35.2354 41.9897 35.207 41.8336H34.4618C31.5097 41.8336 28.5611 41.8336 25.5913 41.8336C23.1075 41.8336 21.493 40.2156 21.4859 37.7354C21.4859 35.7377 21.4185 33.7365 21.5108 31.7424C21.5711 30.756 21.2056 30.2202 20.276 29.8264V29.8441ZM55.4035 27.2468C55.6306 33.4314 52.8559 37.6218 46.8097 39.7366C50.1947 39.7366 53.413 39.765 56.6277 39.7366C57.6673 39.7366 58.2812 38.9595 58.2883 37.8738C58.2883 35.9471 58.2883 34.0204 58.2883 32.0937V26.7997L55.4035 27.2468ZM42.5057 61.9698L49.5631 58.1377C49.9605 57.9213 49.918 57.6658 49.6767 57.3536C49.219 56.7965 48.7648 56.2394 48.3284 55.6682C47.5655 54.6676 47.7145 53.6457 48.74 52.8935C49.2615 52.5102 49.8044 52.1519 50.3367 51.7793C51.0463 51.2896 51.0463 51.2258 50.4396 50.651L46.9623 47.3405L46.1604 46.5811L42.5057 61.9698ZM35.764 46.6805C35.6783 46.7072 35.5961 46.7441 35.5192 46.7905C34.0999 48.1317 32.7019 49.4801 31.2826 50.8177C30.9278 51.1513 30.9952 51.3926 31.3678 51.6445C31.9816 52.0596 32.599 52.4748 33.1951 52.9183C34.178 53.6457 34.327 54.6676 33.5925 55.6433C33.1786 56.1992 32.7433 56.7421 32.2868 57.272C31.932 57.7049 31.9923 57.9816 32.4961 58.2265C33.7522 58.8793 34.9799 59.5677 36.2253 60.2419L39.3974 61.9557C38.152 56.7575 36.9527 51.7261 35.7499 46.6628L35.764 46.6805ZM35.026 39.7472C34.8734 39.6266 34.8415 39.584 34.7989 39.5698C33.086 39.1007 31.5079 38.2342 30.1929 37.0406C28.8778 35.847 27.8629 34.36 27.2305 32.7004C27.1929 32.6109 27.1372 32.5301 27.067 32.463C26.9968 32.3958 26.9136 32.3438 26.8225 32.3101C25.758 32.1114 24.6936 31.9553 23.6007 31.7779C23.6007 33.8607 23.5688 35.9719 23.6007 38.0796C23.622 39.066 24.36 39.7118 25.4138 39.7224C28.586 39.7437 31.7404 39.7295 35.0118 39.7295L35.026 39.7472ZM37.4069 40.0027C37.4069 41.383 37.0946 42.8413 37.5062 44.0264C37.8362 44.9773 39.0391 45.6373 39.8765 46.4002C40.5861 47.0531 41.2957 47.0424 42.0515 46.4002C42.8073 45.758 43.5276 45.0589 44.2514 44.3741C44.3895 44.2578 44.4803 44.095 44.5069 43.9164C44.5282 42.6249 44.5069 41.3333 44.5069 40.0134L37.4069 40.0027ZM12.147 33.6939C12.0841 33.2607 11.9151 32.8497 11.6552 32.4975C11.3952 32.1453 11.0522 31.8628 10.6567 31.675C10.3093 31.5042 9.91709 31.4466 9.53523 31.5103C9.15337 31.5739 8.80105 31.7556 8.52779 32.0298C7.14752 33.3782 5.7779 34.7336 4.43667 36.1209C3.60638 36.9761 3.69154 38.0618 4.58924 38.9595C4.7662 39.1535 4.98055 39.3097 5.21942 39.4188C5.45828 39.5278 5.71672 39.5874 5.97922 39.5941C6.24171 39.6007 6.50283 39.5542 6.74689 39.4573C6.99096 39.3605 7.21292 39.2153 7.39945 39.0305C8.76197 37.6999 10.1174 36.3587 11.4302 34.9784C11.7238 34.5831 11.9648 34.1514 12.147 33.6939ZM13.5166 49.2459C13.4102 46.8969 13.3073 44.5764 14.6804 42.6036C13.7969 42.561 13.0234 42.4971 12.2463 42.4971C11.9517 42.4799 11.66 42.5637 11.4196 42.7349C10.5361 43.558 9.69516 44.4238 8.84713 45.2825C8.7052 45.428 8.4923 45.6089 8.4923 45.7792C8.46037 46.9289 8.47456 48.0785 8.47456 49.2459H13.5166ZM40.8842 59.2164H41.0048C41.899 55.4588 42.7789 51.7048 43.7227 47.7769C41.8031 49.2955 40.029 49.2565 38.1698 47.8017C39.0958 51.6906 39.99 55.4446 40.8842 59.2164ZM55.4035 24.9759C56.0977 25.0973 56.8123 25.0093 57.4562 24.723C58.1002 24.4368 58.6443 23.9653 59.0192 23.3686C59.3902 22.7742 59.567 22.0791 59.525 21.3797C59.4831 20.6803 59.2244 20.0113 58.785 19.4655C57.9654 18.4294 56.4538 17.8653 55.4035 18.2165V24.9759ZM9.54613 39.9176C9.42199 40.0097 9.3035 40.1092 9.19131 40.2156C8.04523 41.4504 6.67561 41.9897 4.99019 41.5852C4.90492 41.5668 4.81667 41.5671 4.73152 41.5861C4.64637 41.6051 4.56635 41.6423 4.49699 41.6952C3.78734 42.3729 3.10608 43.0577 2.4532 43.7816C2.26151 44.0168 2.13869 44.3005 2.09838 44.6012C2.04665 44.958 2.10947 45.322 2.2778 45.6408C2.44614 45.9597 2.7113 46.2168 3.03512 46.3753C3.36486 46.5554 3.74522 46.6203 4.11602 46.5599C4.48682 46.4995 4.82689 46.3172 5.08245 46.0418C6.47336 44.6757 7.84298 43.2919 9.22324 41.9152C10.0784 41.092 10.0748 41.092 9.54613 39.9176ZM13.5521 40.5491C13.904 40.4329 14.2373 40.2668 14.542 40.0559C15.156 39.5254 15.7322 38.9528 16.2665 38.3421C16.5758 37.9889 16.7372 37.5303 16.7174 37.0612C16.6976 36.5922 16.498 36.1487 16.16 35.8229C15.8444 35.5063 15.4209 35.3206 14.9742 35.3028C14.5275 35.285 14.0906 35.4366 13.7508 35.7271C13.0854 36.3032 12.4628 36.927 11.888 37.5935C11.654 37.8565 11.5105 38.1876 11.4786 38.5382C11.4467 38.8888 11.528 39.2404 11.7106 39.5414C12.037 40.205 12.6047 40.5066 13.5521 40.5491ZM14.1127 33.0766L16.969 33.6443C17.0261 33.3959 17.0235 33.1375 16.9615 32.8903C16.8995 32.643 16.7798 32.414 16.6123 32.2219C16.4448 32.0298 16.2342 31.8801 15.9977 31.7851C15.7612 31.69 15.5056 31.6523 15.2517 31.675C14.1872 31.6892 13.8324 32.1398 14.1127 33.0766Z" fill="white"/>
<path id="Vector_2" d="M40.9121 34.1056C40.1423 34.1064 39.3841 33.9186 38.7037 33.5586C38.0233 33.1986 37.4415 32.6774 37.009 32.0405C36.5726 31.4231 36.6542 30.8128 37.1687 30.4509C37.6832 30.089 38.2332 30.2416 38.6803 30.8057C40.0392 32.4699 41.8488 32.4699 43.2114 30.8057C43.6691 30.2451 44.2368 30.1174 44.7229 30.4509C45.209 30.7845 45.3226 31.416 44.8861 32.0405C44.4489 32.6893 43.8561 33.2181 43.1619 33.5788C42.4678 33.9396 41.6943 34.1207 40.9121 34.1056Z" fill="white"/>
<path id="Vector_3" d="M41.9844 25.1178C41.9844 25.6749 41.9844 26.232 41.9844 26.789C41.9844 27.0638 41.8752 27.3274 41.6809 27.5217C41.4866 27.716 41.2231 27.8251 40.9483 27.8251C40.6735 27.8251 40.4099 27.716 40.2156 27.5217C40.0213 27.3274 39.9122 27.0638 39.9122 26.789C39.8873 25.6536 39.8873 24.5146 39.9122 23.3792C39.9159 23.1081 40.0257 22.8493 40.2181 22.6582C40.4105 22.4672 40.6701 22.3591 40.9412 22.3573C41.081 22.3573 41.2194 22.3848 41.3485 22.4383C41.4777 22.4918 41.595 22.5702 41.6939 22.6691C41.7927 22.7679 41.8711 22.8853 41.9246 23.0144C41.9781 23.1436 42.0056 23.282 42.0056 23.4218C42.0056 23.4679 42.0056 23.514 42.0056 23.5637V25.1178H41.9844Z" fill="white"/>
</g>
</g>
</svg>
