<svg width="66" height="66" viewBox="0 0 66 66" fill="none" xmlns="http://www.w3.org/2000/svg">
<g id="Capa 2">
<g id="Capa 1">
<path id="Vector" d="M43.1611 65.4645C41.9071 65.2835 40.6144 65.2512 39.4153 64.8924C37.8285 64.4206 36.3192 63.6869 34.7679 63.0858C34.4301 62.9323 34.068 62.8394 33.6981 62.8111C31.4552 62.7852 29.2154 62.8111 26.9725 62.7949C26.2712 62.7949 25.8607 62.4394 25.851 61.8641C25.8413 61.2889 26.2486 60.8946 26.937 60.8946C28.4818 60.8946 30.0234 60.8946 31.7137 60.8946C27.8613 57.1843 25.8543 52.7631 25.9674 47.5016C26.0805 42.24 28.2588 37.9254 32.3084 34.3413H7.25467C7.02266 34.3543 6.78993 34.3446 6.55982 34.3122C6.32614 34.2877 6.11148 34.1722 5.96213 33.9909C5.81279 33.8095 5.74074 33.5766 5.76154 33.3426C5.75968 33.2247 5.7819 33.1077 5.82685 32.9987C5.8718 32.8897 5.93853 32.7911 6.02295 32.7088C6.10736 32.6265 6.2077 32.5623 6.31779 32.5201C6.42789 32.4779 6.54544 32.4587 6.66324 32.4635C7.16741 32.4441 7.66836 32.4635 8.24364 32.4635V30.8056C8.24364 29.3254 8.24364 27.8451 8.24364 26.3649C8.24364 25.6054 8.56683 25.1885 9.17442 25.1756C9.78202 25.1627 10.144 25.5957 10.144 26.3876C10.144 28.3752 10.144 30.3596 10.144 32.3924H12.7812V19.5941H10.1472C10.1472 20.2405 10.1472 20.8869 10.1472 21.5009C10.1472 22.1925 9.76909 22.6062 9.17766 22.603C8.58622 22.5998 8.25656 22.1796 8.25656 21.4945C8.25656 20.7317 8.25656 19.9722 8.25656 19.2095C8.27272 18.2787 8.81568 17.6905 9.7497 17.6614C10.91 17.6291 12.0767 17.6291 13.2369 17.6614C14.2065 17.6905 14.7365 18.2884 14.7365 19.3258C14.7365 23.4196 14.7365 27.5026 14.7365 31.5748V32.3827H17.419V10.506C17.419 8.93852 17.8876 8.47312 19.4616 8.47312H21.8758C23.4917 8.47312 23.9216 8.89974 23.9248 10.5512V32.4021H26.6235V31.662C26.6235 27.495 26.6235 23.328 26.6235 19.161C26.6235 17.7422 27.1147 17.2477 28.5206 17.2445H31.1061C32.5928 17.2445 33.1002 17.7455 33.1002 19.2127V32.4151C33.8047 32.4151 34.477 32.4603 35.1395 32.4151C35.5629 32.3763 35.8021 32.1209 35.7859 31.5941C35.7471 29.4579 35.7665 27.3216 35.7859 25.1853C35.7859 24.0283 36.345 23.4691 37.4891 23.4627C38.5492 23.4627 39.606 23.4627 40.6628 23.4627C41.7197 23.4627 42.2626 24.038 42.2788 25.0786C42.2788 26.8109 42.2788 28.5432 42.2788 30.2206L48.1156 30.8023V3.29885C48.1156 2.4327 48.1156 2.42947 47.2301 2.42947H3.31175C2.40359 2.42947 2.40359 2.42947 2.40359 3.34733V59.9573C2.40359 60.8913 2.40359 60.8946 3.34407 60.8946H21.8758C22.0915 60.8775 22.3085 60.8862 22.5222 60.9204C22.7418 60.9632 22.939 61.0827 23.0787 61.2574C23.2184 61.4322 23.2915 61.6509 23.2849 61.8745C23.2783 62.0982 23.1924 62.3122 23.0427 62.4784C22.8929 62.6446 22.689 62.7522 22.4672 62.782C22.2786 62.8052 22.0881 62.8106 21.8984 62.7982H3.08552C1.3306 62.7982 0.5 61.9514 0.5 60.1868V3.13402C0.5 1.37264 1.34029 0.525879 3.10491 0.525879H47.4014C49.2015 0.525879 50.016 1.35971 50.016 3.1825C50.016 12.4042 50.016 21.627 50.016 30.8508C49.9846 31.0717 50.0322 31.2966 50.1505 31.4858C50.2688 31.675 50.45 31.8164 50.6623 31.885C52.7851 32.8284 54.6967 34.1884 56.2839 35.8844C57.8712 37.5805 59.1016 39.578 59.9024 41.7585C60.0769 42.2109 60.2837 42.3758 60.762 42.3467C61.4601 42.3079 62.1582 42.3273 62.8563 42.3467C63.9325 42.3661 64.5498 42.9607 64.5789 44.037C64.6048 44.9678 64.5789 45.8985 64.5789 46.7259L65.5 47.5727V48.2191L64.5724 49.0044C64.5724 49.8706 64.5951 50.8013 64.5724 51.7289C64.5401 52.7954 63.9034 53.3966 62.8369 53.4062C62.1388 53.4062 61.4375 53.4418 60.7426 53.4062C60.2579 53.3739 60.0704 53.5614 59.8927 54.0042C57.6303 59.6406 53.6131 63.325 47.7278 64.8698C46.4092 65.2156 45.0194 65.2803 43.6653 65.4742L43.1611 65.4645ZM55.1191 46.8907C54.8477 41.4838 49.9061 35.7471 42.6505 36.135C36.2868 36.4776 31.2322 42.2982 31.7331 48.7943C32.234 55.2905 38.087 60.2223 44.4345 59.5921C50.1905 59.0201 55.6395 53.5323 55.061 48.8299H53.2059C53.1832 48.9979 53.1735 49.082 53.1574 49.1531C52.5336 52.8956 50.5137 55.5878 46.9715 56.9581C43.4293 58.3284 40.1522 57.7079 37.2112 55.3422C35.72 54.1475 34.6369 52.5189 34.1118 50.6818C34.0232 50.4525 34.0293 50.1974 34.1287 49.9726C34.2281 49.7477 34.4126 49.5716 34.6418 49.4827C34.8818 49.3924 35.1479 49.4009 35.3817 49.5063C35.6155 49.6117 35.798 49.8054 35.8893 50.0451C35.9475 50.1808 35.983 50.3263 36.0348 50.4652C37.1595 53.3998 39.2667 55.2161 42.3758 55.6363C45.585 56.0855 48.1738 54.8574 50.0321 52.1846C50.7236 51.1995 51.1459 50.0509 51.257 48.8525H49.3179C48.3677 52.8374 45.0938 54.0235 42.8541 53.7359C41.4653 53.5814 40.1763 52.9396 39.216 51.9246C38.2556 50.9096 37.6861 49.5871 37.6086 48.1919C37.5311 46.7968 37.9506 45.4193 38.7926 44.3042C39.6346 43.1891 40.8446 42.4085 42.2077 42.1011C43.5849 41.7911 45.028 41.997 46.2637 42.6796C47.0541 43.1064 47.7381 43.7057 48.2652 44.4331C48.7922 45.1604 49.1487 45.9971 49.3082 46.881H51.2473C50.9952 43.0028 47.0458 39.6998 43.0997 39.9906C41.4284 40.0748 39.827 40.6877 38.5264 41.7408C37.2259 42.7939 36.2934 44.2328 35.8635 45.8501C35.6275 46.6613 35.188 46.9812 34.5707 46.7938C34.0084 46.6225 33.8209 46.1151 34.031 45.3233C34.586 43.2401 35.8142 41.3989 37.5244 40.0863C39.2345 38.7738 41.3307 38.0635 43.4865 38.0661C45.6423 38.0686 47.7368 38.7839 49.4438 40.1006C51.1509 41.4173 52.3747 43.2614 52.9247 45.3459C53.054 45.8501 53.1444 46.3672 53.2479 46.8778L55.1191 46.8907ZM56.6446 51.6578C54.56 59.0912 46.7388 62.7852 40.1813 61.1499C33.9825 59.6018 29.6873 53.9686 29.8101 47.3788C29.9265 41.2672 34.603 35.7439 40.6499 34.4964C47.7601 33.0356 54.7572 37.3857 56.6349 44.1048L58.0085 42.2627C55.8237 36.122 49.0108 31.1061 40.7727 32.47C33.2747 33.7143 27.5898 40.6823 27.8193 48.2158C28.0617 56.0952 34.0181 62.6236 41.8296 63.4058C50.7302 64.2978 56.5056 58.1345 57.9891 53.4515C57.5172 52.8051 57.0841 52.2363 56.6575 51.6578H56.6446ZM19.3581 10.4058V32.3827H21.9695V10.4058H19.3581ZM28.5497 32.3989H31.1643V19.1933H28.5497V32.3989ZM47.2947 46.9231C46.9715 45.0324 45.0679 43.6912 43.0351 43.8883C42.0381 44.0001 41.1194 44.4817 40.4603 45.238C39.8012 45.9943 39.4497 46.9702 39.4753 47.9731C39.5009 48.9759 39.9016 49.9327 40.5984 50.6544C41.2952 51.3762 42.2373 51.8103 43.2387 51.8711C45.1778 51.9745 47.0394 50.5783 47.2785 48.8299C46.7726 48.8024 46.2655 48.8024 45.7595 48.8299C45.4867 48.8608 45.2313 48.9799 45.0324 49.1692C44.8515 49.3769 44.631 49.5463 44.3837 49.6675C44.1364 49.7886 43.8673 49.8591 43.5924 49.8748C43.3175 49.8904 43.0422 49.851 42.7827 49.7587C42.5233 49.6663 42.2849 49.5231 42.0816 49.3373C41.8803 49.1495 41.7193 48.9226 41.6087 48.6705C41.4981 48.4183 41.4401 48.1463 41.4383 47.8709C41.4365 47.5956 41.4909 47.3228 41.5982 47.0692C41.7055 46.8157 41.8634 46.5867 42.0623 46.3963C42.9219 45.5657 44.2018 45.6465 45.0453 46.5708C45.166 46.7299 45.3368 46.8438 45.5301 46.894C46.1151 46.9489 46.7162 46.9231 47.2979 46.9231H47.2947ZM40.3687 25.4115H37.7218V31.258C38.5266 31.0609 39.3022 30.8799 40.0682 30.6601C40.1435 30.6256 40.2092 30.573 40.2593 30.5071C40.3095 30.4411 40.3426 30.3638 40.3558 30.282C40.3752 28.6628 40.3687 27.0436 40.3687 25.4115ZM62.6268 46.9198V44.2535C61.4278 44.2535 60.2708 44.2535 59.117 44.2535C59.0571 44.2515 58.9975 44.262 58.9418 44.2842C58.8862 44.3065 58.8358 44.34 58.7938 44.3828C58.3026 45.2005 57.8242 46.0311 57.3201 46.9134L62.6268 46.9198ZM57.3233 48.859C57.8275 49.7316 58.2735 50.5169 58.7389 51.2926C58.7778 51.3499 58.8285 51.3983 58.8875 51.4345C58.9466 51.4707 59.0127 51.494 59.0814 51.5027C60.2579 51.5188 61.4343 51.5027 62.6365 51.5027V48.8493L57.3233 48.859Z" fill="white"/>
<path id="Vector_2" d="M14.779 39.1827C17.4227 39.1827 20.0664 39.1827 22.7101 39.1827C23.169 39.1827 23.6053 39.2958 23.7185 39.7644C23.7623 39.9278 23.7711 40.0987 23.7444 40.2658C23.7177 40.4328 23.656 40.5924 23.5633 40.734C23.2746 40.9662 22.9124 41.0877 22.5421 41.0766C17.7653 41.096 12.9853 41.0766 8.20534 41.0766C7.78519 41.0766 7.36181 41.0766 6.93843 41.0766C6.19833 41.0766 5.75556 40.7146 5.74909 40.1361C5.74263 39.5576 6.17894 39.1665 6.91581 39.1665C9.53365 39.173 12.1547 39.1784 14.779 39.1827Z" fill="white"/>
<path id="Vector_3" d="M14.788 50.6204C12.2024 50.6204 9.58783 50.6204 6.98614 50.6204C6.63479 50.6315 6.29101 50.5169 6.01657 50.2972C5.91957 50.1695 5.85311 50.0212 5.82229 49.8638C5.79148 49.7063 5.79713 49.544 5.83882 49.3891C5.93255 49.1273 6.27513 48.9269 6.54984 48.7685C6.69204 48.6845 6.92151 48.7394 7.11219 48.7394H22.4766C22.6241 48.7314 22.7719 48.7314 22.9194 48.7394C23.1578 48.7518 23.3832 48.8516 23.5525 49.0197C23.7219 49.1879 23.8233 49.4126 23.8373 49.6508C23.8356 49.8978 23.7372 50.1342 23.5632 50.3095C23.3892 50.4847 23.1534 50.5847 22.9065 50.5881C22.147 50.6204 21.3843 50.5881 20.6248 50.5881L14.788 50.6204Z" fill="white"/>
<path id="Vector_4" d="M34.4611 14.7722C32.2634 14.7722 30.0658 14.7883 27.8681 14.7722C27.4971 14.7732 27.1369 14.6478 26.8468 14.4166C26.3458 13.948 26.6561 13.0786 27.3316 12.9267C27.5449 12.8899 27.7617 12.8769 27.9779 12.888H40.9055C41.0122 12.888 41.1189 12.888 41.2287 12.888C41.8977 12.9203 42.2791 13.2564 42.2888 13.8155C42.2985 14.3746 41.901 14.7851 41.1997 14.7851C38.9406 14.7786 36.6976 14.7722 34.4611 14.7722Z" fill="white"/>
<path id="Vector_5" d="M12.313 53.4742H17.5713C17.7846 53.4742 18.0626 53.4192 18.1886 53.5291C18.4698 53.7683 18.835 54.0882 18.8544 54.3856C18.8738 54.6829 18.5312 55.061 18.2468 55.284C18.069 55.4263 17.72 55.3745 17.4453 55.3745H7.24541C6.22736 55.3745 5.75227 55.0675 5.74904 54.405C5.74581 53.7424 6.21443 53.4613 7.24541 53.4613L12.313 53.4742Z" fill="white"/>
<path id="Vector_6" d="M18.3305 45.8437C16.8923 45.8437 15.4541 45.8437 14.0159 45.8437C13.2435 45.8437 12.833 45.5205 12.8168 44.9226C12.8007 44.3247 13.2338 43.953 14.0288 43.953C16.9052 43.953 19.7816 43.953 22.658 43.953C23.5597 43.953 24.0542 44.5832 23.7439 45.2781C23.5306 45.7596 23.1201 45.8566 22.6451 45.8534L18.3305 45.8437Z" fill="white"/>
<path id="Vector_7" d="M31.5808 8.4732C32.8477 8.4732 34.1146 8.4732 35.3815 8.4732C36.0731 8.4732 36.503 8.83194 36.5256 9.39106C36.5482 9.95018 36.099 10.3606 35.3815 10.3606C32.8283 10.3606 30.2751 10.3606 27.7219 10.3606C27.027 10.3606 26.623 9.99542 26.623 9.41368C26.623 8.83194 27.027 8.46673 27.7187 8.4635C29.0082 8.46673 30.2945 8.4732 31.5808 8.4732Z" fill="white"/>
<path id="Vector_8" d="M10.2729 8.47302C11.3749 8.47302 12.4738 8.47302 13.5726 8.47302C14.3127 8.47302 14.7329 8.84145 14.7232 9.44259C14.7135 10.0437 14.2998 10.3701 13.5985 10.3734C11.3599 10.3734 9.11908 10.3734 6.87614 10.3734C6.18451 10.3734 5.7579 10.0017 5.7482 9.43612C5.73851 8.87054 6.18128 8.46655 6.91169 8.46655C8.03316 8.46655 9.15463 8.47302 10.2729 8.47302Z" fill="white"/>
<path id="Vector_9" d="M10.2156 14.3293C9.11674 14.3293 8.01789 14.3293 6.91904 14.3293C6.17571 14.3293 5.74263 13.9641 5.74909 13.3791C5.75556 12.7941 6.20156 12.4321 6.9352 12.4321C9.1329 12.4321 11.3317 12.4321 13.5315 12.4321C14.291 12.4321 14.7079 12.7715 14.7241 13.3629C14.7402 13.9544 14.3169 14.3325 13.5154 14.3325C12.4165 14.3357 11.3177 14.3293 10.2156 14.3293Z" fill="white"/>
<path id="Vector_10" d="M39.0115 19.1449C38.2746 19.1449 37.5345 19.1449 36.7976 19.1449C36.67 19.155 36.5416 19.1391 36.4204 19.098C36.2991 19.057 36.1874 18.9917 36.0922 18.9061C35.997 18.8205 35.9201 18.7164 35.8664 18.6002C35.8127 18.484 35.7832 18.358 35.7797 18.2301C35.7761 18.1021 35.7987 17.9747 35.846 17.8557C35.8933 17.7367 35.9643 17.6286 36.0546 17.5379C36.145 17.4472 36.2529 17.3759 36.3718 17.3282C36.4906 17.2806 36.6179 17.2576 36.7459 17.2607C38.2541 17.2349 39.772 17.2349 41.2997 17.2607C41.4274 17.2539 41.5552 17.2738 41.6748 17.3191C41.7945 17.3643 41.9034 17.4341 41.9946 17.5237C42.0858 17.6134 42.1573 17.7212 42.2046 17.84C42.2519 17.9589 42.2739 18.0863 42.2692 18.2141C42.2692 18.7765 41.8749 19.1352 41.2253 19.1449C40.4885 19.1546 39.7484 19.1449 39.0115 19.1449Z" fill="white"/>
<path id="Vector_11" d="M8.63814 45.8372C7.99176 45.8372 7.37123 45.8566 6.73778 45.8372C6.60985 45.8447 6.48174 45.826 6.36131 45.7822C6.24087 45.7384 6.13066 45.6705 6.03743 45.5826C5.9442 45.4946 5.86992 45.3886 5.81915 45.2709C5.76838 45.1533 5.74219 45.0265 5.74219 44.8983C5.74219 44.7702 5.76838 44.6434 5.81915 44.5257C5.86992 44.4081 5.9442 44.302 6.03743 44.2141C6.13066 44.1262 6.24087 44.0582 6.36131 44.0144C6.48174 43.9707 6.60985 43.9519 6.73778 43.9595C8.00253 43.9336 9.26836 43.9336 10.5353 43.9595C10.6674 43.9478 10.8006 43.9645 10.9258 44.0086C11.051 44.0526 11.1653 44.1228 11.2611 44.2147C11.3569 44.3065 11.4319 44.4177 11.4812 44.5409C11.5305 44.6641 11.5529 44.7965 11.5468 44.929C11.5307 45.4655 11.1623 45.8178 10.5385 45.8404C9.91474 45.863 9.27482 45.8404 8.64137 45.8404L8.63814 45.8372Z" fill="white"/>
<path id="Vector_12" d="M40.2076 10.3736C39.8263 10.3736 39.4449 10.3897 39.0668 10.3736C38.9428 10.3736 38.8201 10.3492 38.7056 10.3018C38.5911 10.2543 38.4871 10.1848 38.3995 10.0972C38.3118 10.0096 38.2423 9.90552 38.1949 9.79102C38.1475 9.67652 38.123 9.5538 38.123 9.42987C38.123 9.30594 38.1475 9.18323 38.1949 9.06873C38.2423 8.95423 38.3118 8.8502 38.3995 8.76257C38.4871 8.67494 38.5911 8.60542 38.7056 8.558C38.8201 8.51057 38.9428 8.48616 39.0668 8.48616C39.8079 8.46246 40.547 8.46246 41.2838 8.48616C41.4112 8.48081 41.5384 8.50168 41.6573 8.54749C41.7763 8.5933 41.8846 8.66306 41.9755 8.75245C42.0664 8.84185 42.138 8.94896 42.1858 9.06716C42.2336 9.18536 42.2566 9.31211 42.2534 9.43957C42.2527 9.56657 42.2263 9.69212 42.1759 9.80868C42.1255 9.92525 42.052 10.0304 41.96 10.118C41.868 10.2055 41.7592 10.2735 41.6402 10.318C41.5213 10.3625 41.3946 10.3825 41.2677 10.3768C40.9251 10.3897 40.5761 10.3736 40.2076 10.3736Z" fill="white"/>
</g>
</g>
</svg>
