<svg width="68" height="80" viewBox="0 0 68 80" fill="none" xmlns="http://www.w3.org/2000/svg">
<g id="Capa 26">
<g id="Capa 1">
<path id="Vector" d="M6.04429 79.9949C5.15348 79.6493 4.19357 79.4189 3.38724 78.9377C1.3215 77.6988 0.279667 75.7866 0.113281 73.3932C0.113281 73.1859 0.113281 72.976 0.113281 72.7686C0.113281 53.6556 0.113281 34.5426 0.113281 15.4296C0.113281 12.2555 1.70034 9.72898 4.48538 8.70507C5.44337 8.38045 6.44835 8.21612 7.45984 8.21871C10.9488 8.16496 14.448 8.19311 17.9268 8.19311H18.8816C18.92 7.93714 18.9558 7.77843 18.9712 7.6018C19.0991 5.97891 20.1103 4.90124 21.7383 4.75277C22.2118 4.71438 22.3833 4.60942 22.4678 4.09747C22.658 2.95684 23.2453 1.92017 24.126 1.1707C25.0066 0.421227 26.1238 0.00720965 27.2802 0.00182418C28.2427 0.00182418 29.2077 0.00182418 30.1702 0.00182418C32.8221 0.0146231 34.7778 1.65544 35.2437 4.27153C35.2641 4.39696 35.2769 4.52751 35.2897 4.62478C36.0884 4.9038 36.6567 4.68622 37.2864 4.1717C48.3651 -4.85663 65.2775 1.58121 67.6197 15.6907C68.2739 19.5285 67.7184 23.4748 66.0301 26.9828C64.3419 30.4909 61.6045 33.3872 58.1972 35.2704C57.9786 35.3686 57.7971 35.5341 57.6792 35.7427C57.5613 35.9513 57.5132 36.1921 57.5419 36.43C57.5624 41.1682 57.5547 45.9012 57.5547 50.6445C57.5547 51.9858 57.204 52.5745 56.3977 52.5976C55.5913 52.6206 55.2099 52.0293 55.2099 50.6214V36.7039L53.0623 37.2722V72.6151C53.0623 74.6398 52.1996 75.5025 50.1621 75.5025H7.51616C5.46834 75.5025 4.61593 74.6629 4.61593 72.6304V15.6165C4.61593 13.5226 5.4581 12.6778 7.5392 12.6778H18.943V10.5865C18.6333 10.5711 18.3568 10.5455 18.0804 10.5455C14.512 10.5455 10.9454 10.5455 7.38049 10.5455C4.30876 10.5455 2.45804 12.4065 2.45804 15.4526C2.45804 34.5657 2.45804 53.6787 2.45804 72.7917C2.45804 75.784 4.34203 77.6552 7.34209 77.6552C13.2757 77.6552 19.2109 77.6552 25.1479 77.6552C25.3322 77.6552 25.514 77.6552 25.6957 77.6552C26.3664 77.6143 26.9756 77.7372 27.2316 78.4488C27.4875 79.1604 27.0601 79.6237 26.5148 80L6.04429 79.9949ZM16.2015 15.0533C16.2015 17.2778 16.2015 19.4331 16.2015 21.591C16.2015 23.3624 15.2876 24.266 13.5009 24.2736C12.0162 24.2736 10.5316 24.2736 9.04946 24.2736H7.02468V73.1065H50.6561V37.7816C39.1038 37.5256 32.323 31.7866 30.1062 20.4903C28.3144 20.4903 26.4688 20.4903 24.6206 20.4903C22.4883 20.4903 21.2468 19.2411 21.2314 17.0909C21.2314 16.4228 21.2314 15.7547 21.2314 15.0431L16.2015 15.0533ZM49.0818 35.3268C52.3471 35.3231 55.5377 34.3502 58.2494 32.5313C60.9611 30.7124 63.0718 28.1294 64.3139 25.1097C65.556 22.0899 65.8737 18.7694 65.2266 15.5689C64.5796 12.3684 62.9969 9.43209 60.6793 7.13204C58.3616 4.832 55.4133 3.27179 52.208 2.64916C49.0026 2.02653 45.6846 2.36951 42.6744 3.63463C39.6643 4.89975 37.0974 7.03005 35.2993 9.75554C33.5011 12.481 32.5525 15.679 32.5738 18.9442C32.5866 27.9853 40.0023 35.3421 49.0818 35.3268ZM34.0585 7.07961C34.1199 7.13081 34.102 7.10265 34.0841 7.10265L22.0813 7.07961C21.5258 7.07961 21.3134 7.38678 21.3134 7.92434C21.3236 9.223 21.3236 10.5225 21.3134 11.8229C21.3134 12.4014 21.5412 12.6804 22.1453 12.6778C25.0302 12.6778 27.915 12.6778 30.7973 12.6574C30.9128 12.6468 31.0244 12.6102 31.1237 12.5504C31.223 12.4905 31.3074 12.4089 31.3707 12.3118C32.2692 10.5993 33.1344 8.86889 34.0585 7.07961ZM30.549 15.0661H23.5813C23.5813 15.8622 23.5583 16.602 23.5813 17.3699C23.6018 17.8819 23.9039 18.1634 24.444 18.1583C25.432 18.1583 26.4201 18.1583 27.4082 18.1583H30.1702C30.3187 17.0653 30.4262 16.09 30.549 15.0661ZM32.8784 4.70414C32.6916 3.36281 31.811 2.43617 30.59 2.37218C29.4209 2.3133 28.2496 2.3133 27.0805 2.37218C25.816 2.43361 24.7767 3.55736 24.8791 4.70414H32.8784ZM11.9651 15.0815H7.02468V20.0346L11.9651 15.0815ZM13.8183 17.0218L8.95475 21.8854H13.8183V17.0218Z" fill="white"/>
<path id="Vector_2" d="M31.194 79.995C30.682 79.5982 30.2315 79.1681 30.508 78.4335C30.7844 77.6988 31.3783 77.6451 32.0438 77.6476C38.1071 77.6476 44.1695 77.6476 50.2311 77.6476C53.3719 77.6476 55.2098 75.802 55.2124 72.6407C55.2124 67.6184 55.2124 62.597 55.2124 57.5764C55.203 57.3161 55.2089 57.0554 55.2303 56.7957C55.2575 56.5245 55.3803 56.2719 55.5768 56.0831C55.7733 55.8942 56.0306 55.7816 56.3027 55.7652C56.5747 55.7489 56.8437 55.83 57.0613 55.994C57.279 56.1579 57.4312 56.3941 57.4906 56.66C57.5446 56.9675 57.5652 57.2799 57.552 57.5918C57.552 62.5612 57.552 67.5305 57.552 72.4999C57.552 76.5009 55.6808 78.8994 51.7823 79.9028C51.7362 79.9156 51.7004 79.9617 51.6594 79.9924L31.194 79.995Z" fill="white"/>
<path id="Vector_3" d="M32.0917 65.4526C36.021 65.4526 39.9502 65.4526 43.8667 65.4526C44.5502 65.4526 45.0442 65.683 45.2234 66.3665C45.2603 66.5192 45.2653 66.6778 45.2379 66.8325C45.2106 66.9872 45.1516 67.1346 45.0645 67.2653C44.9775 67.3961 44.8644 67.5075 44.7322 67.5924C44.6001 67.6774 44.4518 67.7341 44.2967 67.759C44.0429 67.7991 43.7855 67.8128 43.5288 67.7999H20.4908C20.3347 67.7999 20.1785 67.7999 20.0224 67.7999C19.2544 67.7385 18.7758 67.2624 18.8039 66.5636C18.8321 65.8648 19.2852 65.4706 20.0582 65.4654C22.6333 65.4654 25.2085 65.4654 27.7862 65.4654L32.0917 65.4526Z" fill="white"/>
<path id="Vector_4" d="M32.0903 40.5974H43.4865C43.7427 40.5872 43.9994 40.5958 44.2544 40.623C44.5179 40.6432 44.7645 40.7604 44.9465 40.9519C45.1285 41.1434 45.2331 41.3956 45.2399 41.6597C45.282 41.9213 45.2236 42.1891 45.0764 42.4094C44.9292 42.6297 44.7042 42.7862 44.4464 42.8475C44.1707 42.9186 43.8861 42.9488 43.6017 42.9371C35.8745 42.9371 28.1474 42.9371 20.4203 42.9371C20.1097 42.9479 19.7996 42.9046 19.5039 42.8091C19.2645 42.7311 19.0621 42.5677 18.9356 42.35C18.809 42.1323 18.7671 41.8756 18.8179 41.629C18.8284 41.3789 18.9277 41.1408 19.098 40.9573C19.2683 40.7739 19.4985 40.6572 19.7471 40.6281C20.006 40.596 20.2672 40.5858 20.5278 40.5974H32.0903Z" fill="white"/>
<path id="Vector_5" d="M31.9718 55.3392H20.5757C20.3195 55.3511 20.0629 55.3442 19.8077 55.3187C19.5579 55.3003 19.3229 55.1928 19.1458 55.0156C18.9686 54.8385 18.861 54.6035 18.8427 54.3537C18.7659 53.77 18.9912 53.3118 19.5594 53.1224C19.8828 53.0295 20.219 52.9889 20.5552 53.0021C28.2038 53.0021 35.8533 53.0021 43.5036 53.0021C43.7891 52.989 44.0753 53.0096 44.356 53.0635C44.6283 53.1237 44.8695 53.2807 45.0345 53.5055C45.1996 53.7303 45.2773 54.0074 45.2532 54.2852C45.2291 54.5631 45.1048 54.8226 44.9034 55.0156C44.7021 55.2086 44.4375 55.3217 44.1589 55.3341C43.7954 55.3545 43.4319 55.3341 43.0659 55.3341L31.9718 55.3392Z" fill="white"/>
<path id="Vector_6" d="M32.0156 46.8074H43.4092C43.6954 46.7979 43.982 46.8091 44.2667 46.8407C44.5447 46.8585 44.8044 46.9856 44.9891 47.1942C45.1737 47.4028 45.2683 47.676 45.2522 47.9542C45.2745 48.2314 45.1877 48.5063 45.0103 48.7205C44.833 48.9347 44.579 49.0712 44.3025 49.101C44.0981 49.1368 43.8906 49.1523 43.6831 49.147H20.4249C20.1916 49.1549 19.9581 49.1369 19.7287 49.0933C19.4529 49.0551 19.2032 48.9098 19.0337 48.689C18.8641 48.4682 18.7883 48.1895 18.8225 47.9132C18.8142 47.6488 18.907 47.3912 19.082 47.1929C19.2571 46.9946 19.5011 46.8704 19.7645 46.8458C20.0488 46.8099 20.3356 46.7971 20.622 46.8074H32.0156Z" fill="white"/>
<path id="Vector_7" d="M32.0102 61.5644C28.1065 61.5644 24.2028 61.5644 20.3017 61.5644C19.713 61.5644 19.2036 61.462 18.9195 60.8963C18.8394 60.7313 18.7994 60.5497 18.8029 60.3664C18.8065 60.183 18.8533 60.0031 18.9397 59.8413C19.0261 59.6795 19.1495 59.5405 19.3 59.4355C19.4504 59.3306 19.6235 59.2628 19.8051 59.2376C20.0379 59.2106 20.2725 59.2029 20.5065 59.2145H43.5445C43.7784 59.1995 44.0133 59.2064 44.2459 59.235C44.8858 59.3579 45.2698 59.7469 45.2698 60.415C45.2698 61.0832 44.8577 61.4594 44.2049 61.5465C43.9714 61.5618 43.7371 61.5618 43.5036 61.5465L32.0102 61.5644Z" fill="white"/>
<path id="Vector_8" d="M26.8215 34.3772H33.3003C34.2833 34.3772 34.808 34.7996 34.7978 35.5624C34.7875 36.3252 34.2654 36.7194 33.2619 36.7194H20.312C19.3291 36.7194 18.8069 36.2945 18.8145 35.5317C18.8222 34.7688 19.3265 34.3798 20.3504 34.3772H26.8215Z" fill="white"/>
<path id="Vector_9" d="M24.7145 30.4912C23.2093 30.4912 21.7016 30.4912 20.1939 30.4912C19.3031 30.4912 18.8321 30.0868 18.8167 29.3598C18.8014 28.6329 19.3108 28.1593 20.2169 28.1593C23.2033 28.1491 26.1898 28.1491 29.1762 28.1593C30.09 28.1593 30.5994 28.6098 30.5943 29.3496C30.5892 30.0894 30.1028 30.4938 29.1531 30.4964C27.6761 30.4964 26.1966 30.4912 24.7145 30.4912Z" fill="white"/>
<path id="Vector_10" d="M12.9359 47.7853C13.5554 47.1018 14.0596 46.5054 14.6049 45.9576C15.209 45.3458 15.8848 45.2946 16.3967 45.7656C16.9087 46.2366 16.8908 46.961 16.2534 47.6163C15.4854 48.415 14.6842 49.2111 13.8779 49.9893C13.174 50.6676 12.6287 50.6548 11.9171 49.9713C11.4871 49.5567 11.0545 49.1394 10.6372 48.6914C10.1253 48.1437 10.1253 47.4884 10.5681 47.0148C11.0109 46.5412 11.7302 46.5387 12.3036 47.0609C12.4828 47.2247 12.621 47.4192 12.9359 47.7853Z" fill="white"/>
<path id="Vector_11" d="M12.9784 53.9005C13.562 53.2759 14.0791 52.6923 14.6295 52.1445C15.2208 51.5583 15.9401 51.5225 16.4213 52.0165C16.9025 52.5106 16.8769 53.1812 16.2677 53.8084C15.4878 54.6087 14.6969 55.4005 13.8948 56.1838C13.1678 56.8929 12.6149 56.8775 11.8803 56.1608C11.5065 55.7973 11.1405 55.4287 10.777 55.055C10.1473 54.4074 10.0833 53.7162 10.6004 53.2094C11.1174 52.7025 11.7471 52.7665 12.3922 53.3604L12.9784 53.9005Z" fill="white"/>
<path id="Vector_12" d="M12.958 41.4702C13.5749 40.8252 14.1124 40.2287 14.6884 39.6784C15.2643 39.128 15.9248 39.105 16.4137 39.5888C16.9026 40.0726 16.8949 40.7407 16.342 41.3192C15.5161 42.1725 14.673 43.0172 13.8129 43.8534C13.2191 44.4217 12.6073 44.4217 12.0211 43.8713C11.5271 43.4131 11.0458 42.937 10.5953 42.4378C10.4827 42.3292 10.3938 42.1984 10.3341 42.0538C10.2744 41.9092 10.2451 41.7538 10.2483 41.5974C10.2514 41.4409 10.2868 41.2868 10.3522 41.1447C10.4177 41.0026 10.5118 40.8755 10.6286 40.7714C10.8499 40.5667 11.1421 40.4561 11.4434 40.4627C11.7448 40.4694 12.0318 40.593 12.2438 40.8072C12.4588 40.9736 12.6559 41.1733 12.958 41.4702Z" fill="white"/>
<path id="Vector_13" d="M12.9475 28.9939C13.5312 28.3975 14.0789 27.8139 14.6523 27.2559C15.2257 26.6978 15.8938 26.6517 16.3879 27.1125C16.8819 27.5733 16.8998 28.2951 16.3008 28.9043C15.4843 29.744 14.66 30.5759 13.8153 31.3899C13.1907 31.9914 12.6071 31.9761 11.9722 31.3694C11.5371 30.9581 11.1105 30.5315 10.6924 30.0895C10.1369 29.5059 10.0959 28.8532 10.5669 28.3617C11.0379 27.8702 11.7188 27.8728 12.3588 28.4538L12.9475 28.9939Z" fill="white"/>
<path id="Vector_14" d="M12.867 60.2077C13.5428 59.4987 14.0676 58.9278 14.6205 58.3749C15.2323 57.7683 15.9004 57.7247 16.4123 58.2213C16.9243 58.7179 16.891 59.3912 16.2869 60.0132C15.4883 60.8323 14.6794 61.6463 13.8577 62.4424C13.1973 63.0824 12.6162 63.0721 11.9532 62.4424C11.5206 62.0277 11.0957 61.6054 10.6733 61.1625C10.1281 60.584 10.105 59.9134 10.5888 59.4321C11.0726 58.9509 11.7254 58.9637 12.3193 59.5166C12.5187 59.7331 12.7018 59.9641 12.867 60.2077Z" fill="white"/>
<path id="Vector_15" d="M12.8814 66.4178C13.5495 65.7165 14.0871 65.1226 14.6554 64.562C15.2671 63.9605 15.9352 63.94 16.4344 64.4647C16.9336 64.9895 16.8849 65.6089 16.3192 66.1926C15.5069 67.0322 14.6827 67.8581 13.8465 68.6704C13.2116 69.2848 12.5896 69.2669 11.942 68.6448C11.512 68.2302 11.087 67.8104 10.6775 67.365C10.1348 66.789 10.1143 66.1286 10.5981 65.6422C11.0819 65.1559 11.7372 65.1763 12.3208 65.719C12.5229 65.9394 12.7101 66.1728 12.8814 66.4178Z" fill="white"/>
<path id="Vector_16" d="M12.9396 35.2143C13.5232 34.6204 14.0735 34.0393 14.6444 33.4838C15.2638 32.8797 15.9243 32.849 16.4234 33.3661C16.9226 33.8832 16.8816 34.5308 16.2749 35.1579C15.4789 35.9745 14.6725 36.786 13.8534 37.5795C13.2135 38.199 12.594 38.1887 11.9489 37.5795C11.5189 37.1674 11.0965 36.7476 10.687 36.2996C10.1392 35.7237 10.111 35.0658 10.5897 34.5769C11.0684 34.088 11.7262 34.1059 12.315 34.6357C12.5044 34.8149 12.6887 34.9788 12.9396 35.2143Z" fill="white"/>
<path id="Vector_17" d="M52.7366 25.4615C53.1769 25.4615 53.5046 25.4615 53.845 25.4615C54.5579 25.4656 55.2402 25.7516 55.7429 26.2571C56.2455 26.7627 56.5277 27.4466 56.5277 28.1595C56.5865 29.8694 55.578 31.2133 54.0217 31.2312C50.7195 31.2927 47.4123 31.2876 44.1102 31.2312C42.5743 31.2057 41.5018 29.8566 41.5504 28.2465C41.5991 26.6364 42.71 25.5127 44.2331 25.4641C44.594 25.4641 44.9524 25.4641 45.3594 25.4641V19.231L44.6938 19.1133C43.222 18.8573 42.3235 17.7156 42.3593 16.167C42.3951 14.6183 43.3602 13.4638 44.8628 13.387C46.4986 13.2927 48.1389 13.3098 49.7724 13.4382C51.7281 13.6072 52.729 14.8308 52.729 16.7659C52.7366 19.6303 52.7366 22.4896 52.7366 25.4615ZM50.3919 21.4145V16.9656C50.3919 15.9903 50.2306 15.7676 49.2477 15.7139C48.1572 15.655 47.0616 15.655 45.9712 15.6985C45.5078 15.7164 44.7194 15.3555 44.7348 16.277C44.7501 17.1166 45.4874 16.789 45.9404 16.8171C47.1179 16.8863 47.7451 17.4545 47.7528 18.609C47.7681 21.08 47.7681 23.5545 47.7528 26.0323C47.7528 27.1202 47.0923 27.7653 46.0019 27.8242C45.5085 27.8074 45.0146 27.8177 44.5223 27.8549C44.3909 27.888 44.269 27.9516 44.1668 28.0405C44.0645 28.1295 43.9846 28.2413 43.9336 28.3669C43.8389 28.7687 44.123 28.9556 44.5428 28.953C47.5608 28.953 50.5787 28.953 53.5942 28.9249C53.7227 28.8915 53.8413 28.8274 53.9398 28.7383C54.0383 28.6492 54.1138 28.5375 54.1599 28.4129C54.27 27.9778 53.9525 27.837 53.5481 27.8498C53.1436 27.8626 52.665 27.8626 52.2221 27.8498C51.0344 27.8114 50.4047 27.1791 50.397 25.9888C50.3842 24.4325 50.3919 22.9222 50.3919 21.4145Z" fill="white"/>
<path id="Vector_18" d="M52.8296 8.47734C52.8439 8.98188 52.757 9.48418 52.574 9.9546C52.3911 10.425 52.1158 10.8541 51.7644 11.2164C51.413 11.5787 50.9926 11.867 50.528 12.0643C50.0634 12.2616 49.564 12.3638 49.0593 12.365C48.5545 12.3662 48.0547 12.2664 47.5891 12.0713C47.1236 11.8762 46.7019 11.5899 46.3487 11.2292C45.9956 10.8686 45.7183 10.4408 45.5331 9.97129C45.348 9.50174 45.2587 8.99986 45.2706 8.49526C45.2938 7.50977 45.701 6.57231 46.4053 5.88268C47.1097 5.19306 48.0556 4.80581 49.0414 4.80348C50.0271 4.80114 50.9748 5.1839 51.6825 5.87018C52.3901 6.55645 52.8017 7.49197 52.8296 8.47734ZM49.0386 9.96969C49.4171 9.95622 49.7764 9.79929 50.0436 9.53072C50.3107 9.26215 50.4657 8.90205 50.4772 8.52342C50.4794 8.14451 50.3339 7.77964 50.0715 7.50627C49.8091 7.2329 49.4505 7.07254 49.0718 7.05922C48.6933 7.07049 48.333 7.22453 48.0633 7.49041C47.7937 7.7563 47.6345 8.11435 47.6179 8.4927C47.6313 8.8706 47.7837 9.23026 48.0459 9.50279C48.308 9.77532 48.6615 9.94157 49.0386 9.96969Z" fill="white"/>
</g>
</g>
</svg>
