<svg width="80" height="80" viewBox="0 0 80 80" fill="none" xmlns="http://www.w3.org/2000/svg">
<g id="Capa 23">
<g id="Capa 1">
<path id="Vector" d="M73.2698 79.9974C71.2937 79.5956 69.8986 78.372 68.7007 76.8336C68.0787 76.0375 67.3798 75.2977 66.7245 74.5503C65.1605 75.2542 65.1605 75.2542 62.9796 73.5853C62.9796 74.7499 62.9796 75.8583 62.9796 76.9667C62.9796 78.8814 62.0069 79.872 60.1178 79.8771C57.6451 79.8874 55.1707 79.8874 52.6945 79.8771C51.6706 79.8771 51.1023 79.1758 51.3993 78.3413C51.6245 77.6988 52.1672 77.5401 52.7739 77.5426H60.5402C60.9548 74.4351 60.1229 71.284 61.1392 68.0946L58.5666 65.115V66.0237C58.5666 68.6262 58.5666 71.2294 58.5666 73.8335C58.5666 75.0801 58.1826 75.4667 56.936 75.4667H6.08649C4.77846 75.4667 4.43033 75.0929 4.43033 73.7004C4.43033 52.69 4.43033 31.6803 4.43033 10.6716V9.51713H2.34413V10.4412C2.34413 32.4653 2.34413 54.4903 2.34413 76.5162C2.34413 77.5401 2.34413 77.5401 3.34499 77.5401H46.3054C46.6425 77.5235 46.9803 77.5485 47.3114 77.6143C47.5687 77.6817 47.7944 77.8366 47.9499 78.0524C48.1054 78.2682 48.1808 78.5314 48.1632 78.7968C48.1457 79.0622 48.0362 79.3132 47.8536 79.5066C47.6711 79.7 47.4268 79.8238 47.1629 79.8567C46.9034 79.881 46.6426 79.8887 46.3822 79.8797H3.12229C0.913226 79.8797 0.00195312 78.9582 0.00195312 76.7389V10.2723C0.00195312 8.05295 0.915786 7.13144 3.11462 7.12888C7.21022 7.12888 11.2879 7.12888 15.3758 7.12888C15.6002 7.15796 15.8277 7.10895 16.0203 6.99009C16.2128 6.87123 16.3585 6.68976 16.433 6.47614C17.137 5.02732 18.3452 4.25683 19.9757 4.19796C20.3622 4.1826 20.7437 4.19796 21.1763 4.19796C21.2479 3.77304 21.2889 3.39419 21.3759 3.02303C21.5613 2.19088 22.0185 1.44411 22.6752 0.900464C23.3319 0.356813 24.1509 0.0471998 25.0031 0.0204361C26.0935 -0.0128407 27.1891 -4.19043e-05 28.2821 0.0204361C29.0808 0.0332349 29.562 0.486312 29.5774 1.17233C29.5927 1.85834 29.0833 2.34469 28.2335 2.35749C27.2454 2.37029 26.2548 2.35749 25.2667 2.35749C24.1916 2.38053 23.6259 2.99999 23.649 4.20052C24.1788 4.20052 24.7164 4.18772 25.2514 4.20052C26.0526 4.22099 26.5492 4.66895 26.5543 5.34729C26.5594 6.02562 26.0628 6.5171 25.2744 6.52989C23.5568 6.55549 21.8367 6.5171 20.1191 6.55037C18.7752 6.57597 17.9561 7.83025 18.4911 8.99494C18.629 9.32207 18.8658 9.59789 19.1683 9.78378C19.4707 9.96967 19.8238 10.0563 20.1779 10.0316H42.1918C42.4785 10.0316 42.7652 10.0316 43.0494 10.0137C43.4821 9.98118 43.887 9.78794 44.1844 9.47199C44.4819 9.15605 44.6504 8.74026 44.6569 8.30637C44.67 7.85793 44.505 7.42254 44.198 7.0954C43.891 6.76826 43.467 6.57598 43.0186 6.56061C41.3778 6.51965 39.737 6.54525 38.0988 6.53757C37.841 6.54737 37.5831 6.52501 37.3309 6.47102C37.0557 6.42321 36.8097 6.27066 36.6446 6.04539C36.4794 5.82012 36.408 5.53964 36.4452 5.26281C36.4479 4.98309 36.5611 4.71578 36.7601 4.51917C36.9591 4.32257 37.2278 4.21263 37.5075 4.21332C38.1014 4.18004 38.6978 4.21332 39.2814 4.21332C39.435 3.11006 38.8462 2.39077 37.7814 2.36517C36.5834 2.33701 35.3855 2.36517 34.1977 2.36517C33.2813 2.36517 32.7515 1.93257 32.7438 1.20816C32.7361 0.483752 33.2557 0.0306752 34.1721 0.0255556C35.3445 0.0255556 36.516 0.0255556 37.6867 0.0255556C39.9751 0.0409142 41.5493 1.52301 41.7311 3.81655C41.7311 3.91638 41.7618 4.01621 41.7951 4.21588C42.179 4.21588 42.563 4.21588 42.9444 4.21588C44.6415 4.25171 45.8779 5.05036 46.6023 6.56573C46.6683 6.75646 46.798 6.91863 46.9696 7.02492C47.1412 7.13122 47.3441 7.17517 47.5443 7.14935C51.6399 7.13144 55.7201 7.20055 59.8055 7.11352C61.82 7.07 63.0359 8.20141 63.0155 10.3618C62.9438 18.5096 62.9822 26.6572 63.0001 34.8075C62.9952 35.2134 63.0976 35.6135 63.297 35.9671C67.536 42.7675 67.7715 49.6993 64.0035 56.7625L63.7603 57.2182L68.3218 61.2319C69.8065 60.3564 70.4131 60.4102 71.6956 61.5186C72.3867 62.1124 73.0727 62.714 73.7639 63.3104C75.1333 64.4879 75.2792 65.0689 74.583 66.6893C76.5617 68.7371 79.4056 70.0963 79.9969 73.2934V75.0008C79.6615 76.145 79.2545 77.2431 78.4124 78.1416C77.473 79.1476 76.2775 79.6416 74.9977 80L73.2698 79.9974ZM56.1911 9.55553C56.0918 9.52366 55.9899 9.50054 55.8865 9.48641C53.0222 9.48641 50.1604 9.46593 47.296 9.48641C47.1592 9.51737 47.0308 9.57785 46.9198 9.66363C46.8088 9.74941 46.7179 9.85841 46.6535 9.983C45.8677 11.4625 44.6876 12.3533 42.9905 12.3585C35.3368 12.3755 27.6831 12.3755 20.0295 12.3585C19.2667 12.3835 18.5141 12.1767 17.8712 11.7655C17.2282 11.3542 16.725 10.7577 16.4279 10.0547C16.1719 9.51201 15.8596 9.42754 15.3528 9.4301C12.8801 9.44546 10.4074 9.4301 7.92952 9.4301H6.83138V73.0759H56.1707V64.4469C56.0939 64.4316 56.0657 64.4162 56.0452 64.4264C55.9019 64.4853 55.7585 64.5468 55.6178 64.6107C49.6433 67.3881 43.6919 67.365 37.8223 64.3548C36.8502 63.8256 35.7546 63.5649 34.6482 63.5996C32.8564 63.6508 31.0646 63.5996 29.2728 63.5996C28.6456 63.5996 28.1285 63.3104 28.1055 62.6986C28.1374 62.2345 28.3292 61.7958 28.6482 61.4571C28.8197 61.2626 29.2779 61.2703 29.6055 61.2651C30.8163 61.2447 32.0245 61.2651 33.4016 61.2651C28.7147 56.4656 26.6106 50.893 27.4604 44.3887C28.3103 37.8843 31.7916 33.0797 37.336 29.6547C35.5954 29.5907 33.9085 29.5933 32.2165 29.5907C31.2027 29.6296 30.1875 29.6134 29.1755 29.5421C28.9594 29.5013 28.7552 29.4125 28.578 29.2822C28.4008 29.152 28.255 28.9836 28.1516 28.7895C28.0185 28.4798 28.1772 27.8936 28.4076 27.6223C28.6379 27.3509 29.1473 27.2639 29.5364 27.2639C35.289 27.2383 41.0417 27.2306 46.7943 27.2409C49.617 27.2276 52.41 27.8185 54.9855 28.9738C55.3771 29.1479 55.7534 29.3348 56.1937 29.537L56.1911 9.55553ZM29.5978 46.9459C29.6043 51.5447 31.4373 55.9525 34.6937 59.1998C37.9501 62.4471 42.3632 64.2678 46.9619 64.2613C51.5607 64.2549 55.9686 62.4218 59.2159 59.1654C62.4632 55.909 64.2839 51.496 64.2774 46.8972C64.2313 37.3186 56.4497 29.56 46.9172 29.5831C42.3233 29.606 37.9248 31.444 34.6806 34.6965C31.4363 37.9489 29.6093 42.352 29.5978 46.9459ZM68.4242 72.9146C69.3099 73.9385 70.216 74.9854 71.1094 76.0273C71.2783 76.2218 71.4473 76.4215 71.6214 76.6032C72.2554 77.2544 73.119 77.6321 74.0276 77.6555C74.9362 77.6789 75.8181 77.3463 76.4849 76.7286C77.8672 75.4488 78.1078 73.3011 76.8407 71.9572C75.6197 70.662 74.2169 69.5383 72.9447 68.3736L68.4242 72.9146ZM60.6374 32.7264V11.1835C60.6374 9.3917 60.6374 9.37634 58.8456 9.48641C58.7785 9.50092 58.7138 9.52506 58.6536 9.55808C58.625 9.60926 58.6042 9.6645 58.5922 9.72191C58.5922 16.6998 58.5922 23.6768 58.5922 30.653C58.6004 30.876 58.6917 31.0879 58.8482 31.2469C59.3729 31.7409 59.9437 32.171 60.6374 32.7392V32.7264ZM70.0522 63.1875C67.7126 65.4913 65.4447 67.7464 63.1562 70.017L65.1861 72.3489L72.3944 65.2149L70.0522 63.1875ZM62.5701 59.289L59.3524 62.4273L62.9003 66.5229L66.6042 62.8343L62.5701 59.289Z" fill="white"/>
<path id="Vector_2" d="M18.5418 36.9041C20.1801 36.9041 21.8158 36.9041 23.454 36.9041C23.6661 36.8845 23.8624 36.7836 24.0018 36.6225C24.3474 36.2027 24.6289 35.7292 24.9668 35.3017C25.4353 34.7001 26.0547 34.5824 26.6051 34.9587C27.1554 35.335 27.2808 36.0287 26.8457 36.6763C26.3337 37.4442 25.7347 38.1865 25.2356 38.9801C25.0167 39.3204 24.8914 39.7124 24.8721 40.1166C24.8388 42.4844 24.8567 44.8521 24.8542 47.2199C24.8542 48.8582 24.1579 49.5672 22.5504 49.5698C19.8456 49.5698 17.1391 49.5698 14.4309 49.5698C12.8541 49.5698 12.1476 48.8658 12.1424 47.2839C12.1322 44.5535 12.1322 41.8231 12.1424 39.0927C12.1424 37.5568 12.8592 36.8734 14.4053 36.8657C15.785 36.8657 17.1647 36.8657 18.5444 36.8657L18.5418 36.9041ZM19.6476 42.748L22.1306 39.254H14.5409V47.1636H22.4429V42.8709C21.8567 43.69 21.3729 44.4067 20.8559 45.08C20.3388 45.7532 19.6553 45.8479 18.9744 45.2822C18.1604 44.5996 17.3609 43.8948 16.5759 43.1678C15.9923 42.6328 15.9437 41.9622 16.4096 41.4477C16.8754 40.9331 17.5026 40.9357 18.0836 41.3965C18.5879 41.8035 19.0666 42.2361 19.6476 42.748Z" fill="white"/>
<path id="Vector_3" d="M23.7753 19.7741C24.1567 19.2443 24.5432 18.6862 24.9477 18.1512C25.4238 17.5267 26.0996 17.4038 26.6474 17.8108C27.1952 18.2178 27.254 18.8347 26.8649 19.4772C26.7936 19.6132 26.7078 19.7411 26.609 19.8586C25.1218 21.3996 24.6226 23.2068 24.8325 25.3416C24.9886 26.967 24.8735 28.6181 24.8607 30.2589C24.8607 31.6309 24.1132 32.3886 22.7386 32.3963C19.9024 32.4116 17.0662 32.4116 14.23 32.3963C12.8989 32.3963 12.1617 31.6463 12.154 30.2998C12.1336 27.4636 12.1336 24.6266 12.154 21.7887C12.154 20.4448 12.922 19.6999 14.2326 19.6948C17.0944 19.6948 19.9587 19.6948 22.8205 19.6948C23.12 19.682 23.4246 19.7383 23.7753 19.7741ZM19.649 25.5822L22.155 22.0625H14.5474V29.9978H22.4596V25.6948C21.8606 26.5293 21.3794 27.2307 20.87 27.9014C20.3606 28.572 19.6592 28.6923 18.9886 28.1266C18.1746 27.4406 17.3759 26.7341 16.5901 26.0148C15.9988 25.4747 15.9399 24.8143 16.3981 24.2972C16.8563 23.7801 17.5167 23.7648 18.1311 24.2665C18.6277 24.6761 19.1063 25.1087 19.649 25.5822Z" fill="white"/>
<path id="Vector_4" d="M14.469 64.0373H22.4656V56.1021H14.4766C14.4766 56.5168 14.4946 56.9468 14.4766 57.382C14.4357 58.196 13.998 58.6618 13.3094 58.6618C12.6208 58.6618 12.1754 58.2036 12.1473 57.382C12.1293 56.87 12.1319 56.3401 12.1473 55.8205C12.1831 54.4715 12.8742 53.7369 14.2207 53.7061C15.7821 53.6703 17.3436 53.7061 18.905 53.6933C20.1567 53.6933 21.4059 53.678 22.6551 53.6933C24.1397 53.7189 24.8564 54.4459 24.859 55.9152C24.859 58.6746 24.859 61.4349 24.859 64.196C24.859 65.6679 24.1192 66.4128 22.6602 66.4179C19.8752 66.4179 17.0893 66.4179 14.3026 66.4179C12.928 66.4179 12.1831 65.6756 12.1473 64.3061C12.1345 63.8121 12.1293 63.318 12.1473 62.824C12.1831 62.1226 12.6208 61.6593 13.2377 61.626C13.8546 61.5928 14.3947 62.0638 14.4613 62.783C14.4971 63.167 14.469 63.5586 14.469 64.0373Z" fill="white"/>
<path id="Vector_5" d="M37.2994 22.4799H45.0273C45.9949 22.4799 46.5632 22.9329 46.5325 23.6676C46.5017 24.4022 45.9616 24.8297 45.0529 24.8297C39.8498 24.8297 34.6449 24.8297 29.4384 24.8297C28.8497 24.8297 28.2814 24.6787 28.1432 24.0618C28.0995 23.8572 28.0981 23.6459 28.1391 23.4408C28.18 23.2357 28.2624 23.0411 28.3812 22.8689C28.6014 22.613 29.1133 22.5029 29.4973 22.4978C32.0954 22.4645 34.6987 22.4799 37.2994 22.4799Z" fill="white"/>
<path id="Vector_6" d="M32.293 46.9255C32.3494 40.3597 36.2325 35.2812 42.4578 32.898C42.9248 32.7409 43.4139 32.6597 43.9066 32.6574C44.5722 32.6344 45.1072 32.9313 45.2019 33.6378C45.2966 34.3443 44.8794 34.7615 44.2164 34.9177C42.3782 35.3261 40.6643 36.1677 39.2172 37.3725C35.2393 40.7667 33.7444 45.0927 35.0806 50.1175C36.4168 55.1423 39.8238 58.1782 44.9408 59.0767C48.0836 59.6033 51.3081 58.8898 53.9354 57.0866C56.5628 55.2833 58.3879 52.5309 59.0264 49.409C59.665 46.287 59.0673 43.039 57.3591 40.3489C55.6509 37.6589 52.9655 35.7366 49.8683 34.9868C48.6294 34.6822 48.1994 34.2189 48.4093 33.3972C48.6115 32.6293 49.2565 32.4014 50.4827 32.7112C53.8412 33.5673 56.7921 35.5765 58.8195 38.3877C60.847 41.1988 61.8219 44.6331 61.5741 48.0902C61.1517 54.6867 55.8351 60.464 49.0876 61.447C47.0023 61.7578 44.8745 61.6145 42.8498 61.0268C40.8251 60.4392 38.9512 59.421 37.3564 58.0421C35.7616 56.6631 34.4835 54.9559 33.6096 53.0372C32.7357 51.1186 32.2866 49.0338 32.293 46.9255Z" fill="white"/>
<path id="Vector_7" d="M44.4874 46.8436C46.4635 44.8879 48.2988 43.0859 50.1188 41.2659C51.0582 40.3239 52.1666 39.9322 53.4465 40.242C55.8834 40.8333 56.8894 43.864 55.1615 45.6814C52.4405 48.5458 49.6273 51.3129 46.7937 54.08C46.1879 54.6505 45.3846 54.9639 44.5525 54.9544C43.7205 54.9448 42.9245 54.6131 42.332 54.0288C41.0112 52.7771 39.7185 51.4921 38.4719 50.1661C37.897 49.5346 37.5851 48.7071 37.6001 47.8532C37.6152 46.9992 37.956 46.1833 38.5529 45.5724C39.1497 44.9615 39.9575 44.6017 40.8109 44.5668C41.6642 44.5319 42.4987 44.8244 43.1435 45.3845C43.6192 45.8445 44.0679 46.3317 44.4874 46.8436ZM53.6513 43.6618C53.6282 42.7045 52.8014 42.2386 52.1333 42.6379C51.9198 42.7846 51.7247 42.9565 51.5523 43.1498C49.8611 44.841 48.1726 46.5347 46.4865 48.231C44.6077 50.1149 44.6077 50.1149 42.6981 48.2079C42.4216 47.9315 42.1529 47.6499 41.8713 47.3811C41.2646 46.8001 40.6912 46.7463 40.2356 47.2147C39.78 47.6832 39.8849 48.2719 40.4609 48.853C41.5411 49.9409 42.6213 51.0288 43.7143 52.1039C44.3389 52.7208 44.8611 52.7387 45.4626 52.1371C48.0582 49.5518 50.6453 46.9562 53.2238 44.3504C53.3984 44.1387 53.5424 43.9034 53.6513 43.6516V43.6618Z" fill="white"/>
</g>
</g>
</svg>
