<svg width="80" height="80" viewBox="0 0 80 80" fill="none" xmlns="http://www.w3.org/2000/svg">
<g id="Capa 25">
<g id="Capa 1">
<path id="Vector" d="M22.4856 0C23.5237 0.207109 24.5719 0.373806 25.5998 0.626378C29.4892 1.5973 33.0079 3.6888 35.7194 6.64139C38.4309 9.59397 40.2158 13.2777 40.8527 17.2355C40.9739 17.9932 40.6203 18.5994 39.9636 18.7509C39.3069 18.9025 38.7007 18.4706 38.5593 17.6447C37.9506 14.1794 36.5867 11.0525 34.1822 8.47378C29.1156 3.03086 22.8695 1.05575 15.7344 3.07127C8.59924 5.08679 4.17419 10.017 2.79767 17.3567C1.66867 23.3932 3.46446 28.6719 7.642 33.15C7.75246 33.2638 7.8688 33.3717 7.99054 33.4733C8.08979 33.5468 8.19449 33.6127 8.30373 33.6703C8.32141 33.3066 8.33657 33.0162 8.35172 32.7257C8.41739 31.4629 8.32899 30.1545 8.58156 28.922C9.09933 26.3963 10.6804 24.6737 13.0824 23.7291C13.7997 23.4437 14.5574 23.2366 15.2798 22.9562C15.7091 22.8247 16.0834 22.5556 16.3449 22.1905C16.6063 21.8254 16.7406 21.3845 16.727 20.9357C16.727 20.7791 16.727 20.62 16.727 20.4659C16.8457 19.4329 16.6664 18.6398 15.6283 18.0235C14.6635 17.4477 14.1861 16.3818 14.1735 15.22C14.1457 12.8256 14.1078 10.4211 14.1735 8.03431C14.2125 6.93971 14.6684 5.90141 15.4478 5.13187C16.2272 4.36233 17.2712 3.91973 18.3662 3.89466C19.8488 3.84162 21.3364 3.84414 22.819 3.89466C23.9534 3.9081 25.0382 4.36145 25.8449 5.15914C26.6515 5.95683 27.117 7.03654 27.1431 8.1707C27.2062 10.4615 27.1936 12.7574 27.1431 15.0482C27.1446 15.7452 26.9576 16.4296 26.6019 17.029C26.2462 17.6283 25.735 18.1203 25.1225 18.4529C24.6527 18.7257 24.4405 19.0464 24.5264 19.5718C24.5302 19.6239 24.5302 19.6762 24.5264 19.7284C24.5264 22.2996 24.7108 22.4359 27.1203 23.3755C28.4211 23.8807 29.4213 23.8125 30.6917 23.1457C37.9809 19.3167 46.9649 20.4179 53.2009 25.7623C56.9884 28.9412 59.4749 33.4017 60.187 38.2949C60.2224 38.5248 60.2754 38.7546 60.2982 38.8809C62.0939 39.2648 63.8821 39.5022 65.5794 40.0351C68.3802 40.9241 70.9566 42.4059 73.1333 44.3797C75.3101 46.3536 77.036 48.7732 78.1938 51.474C79.3516 54.1747 79.9141 57.0931 79.8428 60.0307C79.7716 62.9682 79.0685 65.856 77.7812 68.4975C77.2962 69.4926 76.68 69.826 75.9778 69.4698C75.2757 69.1137 75.1999 68.4596 75.6469 67.5074C78.155 62.1832 78.1575 56.8438 75.6292 51.5373C72.3963 44.7481 64.6525 40.5933 57.3936 41.4723C49.1698 42.4826 42.853 48.6984 41.5396 56.2073C40.4839 62.2539 42.1029 67.5351 46.2425 72.0587C46.4352 72.3032 46.6043 72.5654 46.7477 72.8417L47.0785 72.6321C47.0785 71.8743 47.0785 71.104 47.0785 70.3387C47.0785 66.2092 48.8263 63.7718 52.721 62.4458C52.7463 62.4458 52.769 62.4206 52.7942 62.4155C55.9388 61.582 55.4564 60.5541 55.4665 58.1698C55.4405 58.0512 55.3897 57.9395 55.3175 57.842C55.2452 57.7444 55.1531 57.6634 55.0472 57.604C53.5166 56.6796 52.8523 55.3309 52.8751 53.5629C52.9003 51.6105 52.8751 49.6556 52.8751 47.7032C52.8978 44.7961 54.686 42.965 57.583 42.9044C58.9368 42.8766 60.2956 42.8564 61.6444 42.9372C64.0791 43.0862 65.8194 44.8643 65.8876 47.3016C65.9507 49.5394 65.933 51.7823 65.8876 54.02C65.8949 54.7294 65.7096 55.4275 65.3516 56.04C64.9935 56.6524 64.4761 57.1563 63.8544 57.498C63.6606 57.5912 63.5002 57.7418 63.3949 57.9293C63.2897 58.1168 63.2446 58.3321 63.2659 58.5461C63.2659 61.4381 63.329 61.5543 66.2589 62.5115C68.9361 63.3854 70.7369 65.0953 71.4517 67.8458C71.5994 68.5052 71.6789 69.1781 71.6891 69.8538C71.727 70.763 71.6891 71.6748 71.6891 72.7962C72.1387 72.3517 72.4746 72.0259 72.8055 71.695C73.4193 71.0863 74.0684 71.0156 74.5962 71.5081C75.1241 72.0006 75.1014 72.6598 74.5104 73.2988C69.8529 78.224 64.1549 80.5477 57.3835 79.891C48.5813 79.0373 41.5902 72.92 39.4509 64.3982C39.2747 63.799 39.1572 63.184 39.0998 62.562C39.067 61.9331 38.774 61.8043 38.2259 61.7639C33.369 61.3724 29.2116 59.4251 25.6832 56.0861C25.1781 55.5961 24.534 55.1869 24.1299 54.6186C21.4375 50.825 19.5078 46.7258 19.4775 41.9522C19.4775 41.644 19.4775 41.3359 19.4775 41.0808C17.9141 40.7651 16.4163 40.5605 14.9742 40.1564C10.4685 38.8605 6.54377 36.0583 3.8552 32.2175C1.16663 28.3767 -0.123047 23.7299 0.201505 19.0528C0.526057 14.3758 2.44519 9.95164 5.63849 6.51902C8.83178 3.0864 13.106 0.853084 17.7474 0.191955C18.1288 0.136389 18.5051 0.0656686 18.8915 0H22.4856ZM38.7765 59.4503C39.1326 57.9475 39.1023 56.6392 37.7864 55.687C37.6829 55.6138 37.6223 55.4824 37.5212 55.4016C36.2862 54.4141 36.074 53.275 36.6372 51.757C37.3268 49.8955 37.7485 47.9356 38.3194 45.8923C37.544 45.814 36.8292 45.5892 36.1877 45.718C35.2779 45.9363 34.3964 46.2593 33.5609 46.6803C32.857 47.0034 32.1877 47.3969 31.5631 47.8548C30.8053 48.4079 30.1865 48.5014 29.694 47.9836C29.2015 47.4658 29.2748 46.7561 29.982 46.0868C30.972 45.1472 32.1793 44.6345 33.4574 44.2203C35.9022 43.4247 36.0715 43.1696 36.0715 40.611C36.0677 40.5589 36.0677 40.5065 36.0715 40.4544C36.1397 39.9493 35.973 39.6108 35.488 39.3254C34.1191 38.5248 33.4675 37.272 33.4498 35.6934C33.4371 33.5567 33.4245 31.4199 33.4498 29.2857C33.4826 26.7297 35.3087 24.8354 37.8572 24.7394C39.2615 24.6864 40.6708 24.6864 42.0751 24.7394C44.5402 24.8329 46.3688 26.6034 46.437 29.0634C46.5128 31.3543 46.4749 33.6476 46.437 35.9384C46.4514 36.5954 46.2893 37.2442 45.9677 37.8172C45.646 38.3903 45.1767 38.8666 44.6084 39.1966C43.9997 39.5628 43.785 39.972 43.8507 40.6388C43.8987 41.0757 43.7976 41.5379 43.886 41.9623C43.9655 42.4165 44.144 42.8477 44.4089 43.2251C45.0529 44.0485 45.8334 44.0914 46.6467 43.455C48.9093 41.6408 51.5437 40.3473 54.3627 39.6664C55.5195 39.3936 56.699 39.2168 57.8684 38.9971C57.1789 31.0486 50.0387 24.0953 41.767 23.2997C37.5314 22.8858 33.2846 23.9675 29.7631 26.3572C26.2417 28.747 23.6679 32.294 22.4882 36.383C20.364 43.8414 23.5136 51.2847 27.6507 54.4999C27.6507 53.5578 27.6507 52.6511 27.6507 51.7444C27.6507 50.8376 28.0725 50.3022 28.81 50.2921C29.5475 50.282 29.987 50.7972 29.9895 51.709C29.9895 53.1436 29.9895 54.5757 30.0072 56.0027C30.0077 56.1349 30.0356 56.2655 30.0891 56.3863C30.1425 56.5072 30.2204 56.6156 30.3179 56.7049C32.8506 58.3404 35.7661 59.2867 38.7765 59.4503ZM57.7472 64.0446C56.9465 63.9739 56.2317 63.7643 55.5902 63.8905C54.7113 64.0673 53.8929 64.522 53.0317 64.8175C50.7131 65.6106 49.4376 67.3432 49.4123 69.8058C49.3972 71.2101 49.435 72.6194 49.3946 74.0237C49.3702 74.24 49.4163 74.4583 49.526 74.6463C49.6356 74.8342 49.8031 74.9817 50.0033 75.0668C56.305 78.6256 62.5814 78.565 68.8553 74.9961C69.0268 74.9122 69.1677 74.7767 69.2583 74.6087C69.3489 74.4407 69.3846 74.2485 69.3604 74.0591C69.3352 72.6017 69.3604 71.1419 69.3478 69.6845C69.3639 68.6206 69.0392 67.5794 68.4211 66.7133C67.8031 65.8471 66.9241 65.2014 65.9128 64.8705C65.1778 64.618 64.3545 64.4891 63.7205 64.0774C62.69 63.4132 61.8085 63.8931 60.821 64.1229C61.5509 66.4617 62.243 68.75 62.983 71.0232C63.1 71.3127 63.1225 71.6318 63.0472 71.9348C62.9719 72.2378 62.8027 72.5093 62.5637 72.7104C61.806 73.4529 61.0483 74.2258 60.2906 74.9835C59.4925 75.774 58.8838 75.7412 58.1185 74.8926C57.5249 74.2359 56.9718 73.5363 56.3378 72.9225C55.7039 72.3088 55.5523 71.6243 55.8327 70.7428C56.5045 68.5833 57.0829 66.3961 57.7472 64.0446ZM19.6088 38.598C19.7402 37.9666 19.8816 37.4362 19.9448 36.8982C19.9635 36.6577 19.8914 36.4189 19.7427 36.2289C19.033 35.3979 18.3132 34.572 17.5428 33.7966C17.2754 33.5531 17.0883 33.2341 17.0062 32.8818C16.9242 32.5296 16.951 32.1607 17.0831 31.824C17.6918 29.8035 18.2424 27.7829 18.8107 25.7623C18.8713 25.5502 18.8941 25.3304 18.9496 25.0198C18.2071 24.944 17.515 24.7167 16.9013 24.848C15.9491 25.0526 15.0474 25.5072 14.123 25.8431C12.062 26.6009 10.8042 28.2299 10.7208 30.4273C10.6628 32.0135 10.6931 33.6021 10.7208 35.1908C10.7209 35.3129 10.7463 35.4336 10.7954 35.5453C10.8445 35.6571 10.9163 35.7574 11.0063 35.8399C13.5866 37.4887 16.5509 38.4391 19.6088 38.598ZM63.5563 52.8607C63.5399 52.6793 63.5399 52.4967 63.5563 52.3152C63.7154 51.5145 63.3442 51.1811 62.5915 50.9766C61.2125 50.6027 59.8562 50.1456 58.5049 49.6783C57.972 49.4914 57.5552 49.6101 57.0349 49.7819C55.5195 50.287 55.1002 51.2342 55.1457 52.8128C55.1886 54.3433 55.6028 55.3157 56.9768 56.076C59.5682 57.5106 59.1313 57.5914 61.7883 56.0583C63.0941 55.3132 63.8821 54.4292 63.5563 52.8607ZM44.1235 34.7362C44.1058 34.5286 44.1058 34.3199 44.1235 34.1123C44.2523 33.3546 43.9214 33.0187 43.1889 32.8166C41.7367 32.4176 40.3147 31.9099 38.8801 31.4502C38.4027 31.2962 36.0588 32.2307 35.8315 32.6626C35.799 32.7338 35.7834 32.8116 35.7861 32.8899C35.7506 33.9552 35.7708 35.0217 35.8467 36.0849C35.8947 36.5092 36.3064 36.9235 36.6271 37.2745C36.8834 37.4953 37.1701 37.6782 37.4783 37.8176C40.1429 39.4366 39.6984 39.429 42.4034 37.8681C43.689 37.128 44.4366 36.2668 44.126 34.7362H44.1235ZM16.578 13.553C16.0728 15.374 16.9366 16.4576 18.5051 17.1446C18.6713 17.2189 18.8275 17.3139 18.9698 17.4275C20.0711 18.3241 21.099 18.2483 22.3038 17.4729C25.1099 15.6645 24.7941 16.1823 24.8295 12.8357C24.8549 12.661 24.8102 12.4833 24.7052 12.3414C24.6001 12.1995 24.4433 12.1048 24.2688 12.078C22.8266 11.636 21.3844 11.2016 19.9751 10.6939C19.3083 10.4565 18.7855 10.5524 18.1414 10.8303C16.8735 11.3657 16.0425 12.0603 16.578 13.553ZM63.5285 48.8347C63.5595 48.2745 63.5595 47.7129 63.5285 47.1526C63.4124 46.1423 62.7456 45.3644 61.801 45.3189C60.1919 45.2217 58.5784 45.2217 56.9693 45.3189C55.7064 45.4099 54.9866 46.7333 55.3781 48.0038C55.6408 47.901 55.8943 47.776 56.1358 47.63C57.0678 46.9657 58.0048 46.948 59.0707 47.3623C60.4825 47.923 61.9601 48.3296 63.5285 48.8347ZM44.1083 30.6723C44.1083 30.099 44.1336 29.6342 44.1083 29.1746C44.0275 27.9698 43.2925 27.154 42.1004 27.0984C40.6701 27.0235 39.2369 27.0235 37.8066 27.0984C36.3594 27.1818 35.5335 28.4244 35.9149 29.8767C36.2693 29.7201 36.6135 29.5412 36.9454 29.3413C37.7258 28.8033 38.4987 28.8184 39.3726 29.1341C40.8931 29.6822 42.4338 30.1343 44.1083 30.6723ZM24.8118 9.79726C24.8118 9.18856 24.8396 8.71878 24.8118 8.25657C24.736 7.17304 23.991 6.29914 22.9731 6.25873C21.4132 6.18043 19.8503 6.18043 18.2904 6.25873C17.0048 6.3345 16.2395 7.67818 16.6563 8.96377C16.9184 8.85557 17.1717 8.72721 17.414 8.57986C18.3207 7.94086 19.2275 7.89792 20.2756 8.30456C21.7203 8.87537 23.2257 9.28706 24.8118 9.79726ZM23.3671 29.1746L26.6657 25.6386C25.1503 25.2723 23.8142 23.9994 22.1194 25.1738C22.5159 26.4367 22.9302 27.7627 23.3671 29.1746ZM22.4225 22.6683C22.3063 21.7414 22.2154 21.0291 22.1346 20.3952H19.1466C19.0557 21.115 18.9623 21.8702 18.8612 22.6683H22.4225ZM60.8816 59.4327H57.8785C57.7952 60.1121 57.6992 60.8925 57.6007 61.6856H61.1367C61.0432 60.8016 60.9599 60.0893 60.8816 59.4327ZM38.183 43.5206H41.719C41.6255 42.6366 41.5472 41.9016 41.4664 41.2727H38.476C38.3926 41.9269 38.2992 42.6846 38.183 43.5232V43.5206ZM59.4344 72.6472C59.6617 72.382 59.9269 72.0941 60.1693 71.7885C60.3209 71.5965 60.5937 71.3338 60.5482 71.1747C60.1895 69.8942 59.7703 68.6313 59.3055 67.1689C59.0025 68.2373 58.8484 69.1264 58.4998 69.927C57.9997 71.0762 58.2523 71.9147 59.4344 72.6497V72.6472ZM20.7505 33.6375C21.0712 33.0465 21.7153 32.4151 21.6521 31.8695C21.5132 30.6799 21.0106 29.5332 20.657 28.3689C20.2605 29.2352 20.114 30.0964 19.7781 30.8744C19.2856 32.0034 19.4851 32.8571 20.7505 33.6375ZM39.562 54.0504C39.8752 53.1916 40.3349 52.4061 40.4182 51.5827C40.4965 50.8124 40.1657 49.9991 40.0368 49.206L39.8196 49.2288C39.5292 50.239 39.2918 51.2872 38.9255 52.2798C38.6401 53.0805 38.8548 53.6008 39.562 54.0504ZM41.3603 45.862C41.6533 46.7763 41.8882 47.5087 42.1483 48.3271C42.8252 47.4506 43.4112 46.6753 44.0224 45.8923C43.1309 45.0386 42.3226 45.9403 41.3704 45.8595L41.3603 45.862Z" fill="white"/>
<path id="Vector_2" d="M67.4844 30.4627C67.1687 30.4629 66.8653 30.3401 66.6385 30.1204C66.4117 29.9007 66.2794 29.6013 66.2695 29.2858C66.2739 28.9834 66.3948 28.6943 66.607 28.4789C66.8192 28.2634 67.1064 28.138 67.4086 28.129C67.5652 28.1231 67.7213 28.1492 67.8675 28.2055C68.0137 28.2618 68.1469 28.3472 68.2591 28.4566C68.3713 28.5659 68.4601 28.6969 68.5201 28.8416C68.5801 28.9863 68.6102 29.1417 68.6083 29.2984C68.6067 29.5997 68.4889 29.8889 68.2796 30.1057C68.0703 30.3225 67.7855 30.4504 67.4844 30.4627Z" fill="white"/>
<path id="Vector_3" d="M3.82119 44.5562C3.66483 44.561 3.50912 44.534 3.36348 44.4769C3.21784 44.4198 3.08529 44.3338 2.97385 44.224C2.86241 44.1142 2.7744 43.983 2.71514 43.8382C2.65587 43.6934 2.62659 43.5381 2.62905 43.3817C2.63077 43.0793 2.74912 42.7891 2.95943 42.5718C3.16975 42.3544 3.45581 42.2265 3.75805 42.2148C4.07413 42.2161 4.37718 42.341 4.60233 42.5629C4.82749 42.7847 4.95688 43.0859 4.96281 43.4019C4.95835 43.7045 4.83702 43.9936 4.62423 44.2088C4.41145 44.4239 4.12369 44.5484 3.82119 44.5562Z" fill="white"/>
<path id="Vector_4" d="M42.3531 4.55902C42.3574 4.71382 42.3309 4.86794 42.275 5.01235C42.219 5.15676 42.1349 5.28857 42.0274 5.40005C41.9199 5.51153 41.7913 5.60046 41.649 5.66161C41.5067 5.72277 41.3537 5.75493 41.1988 5.75621C40.8862 5.7504 40.588 5.62381 40.3667 5.40298C40.1454 5.18215 40.0182 4.88422 40.0117 4.57165C40.0174 4.2724 40.1382 3.98685 40.3489 3.77427C40.5596 3.56169 40.8441 3.43841 41.1432 3.43002C41.298 3.41966 41.4532 3.44115 41.5993 3.49317C41.7455 3.54518 41.8793 3.62661 41.9927 3.73243C42.1061 3.83825 42.1966 3.9662 42.2586 4.10837C42.3206 4.25055 42.3527 4.40392 42.3531 4.55902Z" fill="white"/>
<path id="Vector_5" d="M37.9683 77.133C37.9735 77.2878 37.9471 77.442 37.8907 77.5863C37.8344 77.7306 37.7493 77.8619 37.6406 77.9722C37.5319 78.0825 37.4019 78.1696 37.2585 78.2281C37.1151 78.2866 36.9613 78.3153 36.8065 78.3125C36.5074 78.3119 36.2196 78.198 36.0012 77.9936C35.7828 77.7893 35.6499 77.5097 35.6295 77.2113C35.6198 76.8984 35.7331 76.5941 35.9451 76.3637C36.1571 76.1333 36.4509 75.9951 36.7635 75.9787C37.0762 75.9726 37.3785 76.0907 37.6043 76.307C37.8301 76.5234 37.961 76.8204 37.9683 77.133Z" fill="white"/>
<path id="Vector_6" d="M55.4559 18.304C55.4534 18.5336 55.3833 18.7575 55.2544 18.9475C55.1255 19.1376 54.9434 19.2855 54.731 19.3728C54.5186 19.46 54.2852 19.4828 54.0599 19.4383C53.8346 19.3938 53.6274 19.2839 53.4641 19.1224C53.3009 18.9608 53.1888 18.7548 53.1419 18.53C53.0949 18.3052 53.1152 18.0715 53.2003 17.8582C53.2853 17.6448 53.4312 17.4613 53.6199 17.3303C53.8086 17.1994 54.0317 17.1269 54.2613 17.122C54.4177 17.1196 54.5731 17.1485 54.7183 17.2069C54.8635 17.2653 54.9955 17.3521 55.1068 17.4621C55.218 17.5722 55.3062 17.7034 55.3661 17.8479C55.4261 17.9925 55.4566 18.1475 55.4559 18.304Z" fill="white"/>
<path id="Vector_7" d="M54.7746 22.0444C54.931 22.0454 55.0856 22.0776 55.2293 22.1394C55.373 22.2011 55.5028 22.291 55.6112 22.4038C55.7195 22.5166 55.8041 22.65 55.8599 22.7961C55.9158 22.9422 55.9418 23.098 55.9364 23.2543C55.9298 23.5562 55.8054 23.8436 55.5897 24.0551C55.374 24.2665 55.0842 24.3852 54.7822 24.3858C54.4792 24.3861 54.1879 24.2693 53.969 24.0598C53.7502 23.8504 53.6207 23.5645 53.6077 23.2618C53.6043 23.1053 53.6319 22.9496 53.6887 22.8037C53.7455 22.6577 53.8306 22.5244 53.9389 22.4114C54.0473 22.2983 54.1769 22.2077 54.3202 22.1448C54.4636 22.0818 54.618 22.0477 54.7746 22.0444Z" fill="white"/>
<path id="Vector_8" d="M71.287 31.1143C71.6039 31.1222 71.9052 31.2536 72.1265 31.4806C72.3478 31.7076 72.4717 32.0121 72.4716 32.3291C72.46 32.631 72.333 32.9169 72.1168 33.1279C71.9007 33.3389 71.6118 33.4589 71.3097 33.4632C70.9996 33.4662 70.7009 33.3459 70.4795 33.1287C70.2581 32.9115 70.132 32.6153 70.129 32.3051C70.1259 31.995 70.2463 31.6963 70.4634 31.4749C70.6806 31.2535 70.9769 31.1274 71.287 31.1244V31.1143Z" fill="white"/>
<path id="Vector_9" d="M37.4704 3.85433C37.4693 4.1563 37.3515 4.44615 37.1415 4.66318C36.9315 4.88021 36.6457 5.0076 36.344 5.01869C36.188 5.02984 36.0313 5.0086 35.8839 4.9563C35.7365 4.904 35.6015 4.82178 35.4874 4.7148C35.3734 4.60782 35.2826 4.4784 35.2209 4.33466C35.1593 4.19093 35.128 4.03599 35.1291 3.87959C35.1235 3.57695 35.2363 3.28408 35.4434 3.06332C35.6505 2.84255 35.9355 2.71132 36.2379 2.69755C36.5539 2.69067 36.8599 2.80796 37.0904 3.02424C37.3208 3.24053 37.4573 3.53856 37.4704 3.85433Z" fill="white"/>
<path id="Vector_10" d="M74.2435 37.3479C74.0876 37.3453 73.9338 37.3116 73.7912 37.2486C73.6486 37.1856 73.5201 37.0947 73.4132 36.9812C73.3063 36.8678 73.2232 36.734 73.1689 36.5879C73.1145 36.4418 73.09 36.2862 73.0968 36.1305C73.1041 35.8288 73.2298 35.5421 73.4467 35.3322C73.6636 35.1224 73.9543 35.0063 74.2561 35.0091C74.4097 35.0099 74.5616 35.041 74.7031 35.1005C74.8447 35.16 74.9732 35.2469 75.0812 35.3561C75.1892 35.4652 75.2746 35.5946 75.3326 35.7368C75.3906 35.879 75.42 36.0312 75.4192 36.1848C75.4184 36.3384 75.3873 36.4903 75.3278 36.6318C75.2682 36.7734 75.1814 36.9018 75.0722 37.0098C74.963 37.1179 74.8337 37.2033 74.6915 37.2613C74.5493 37.3193 74.3971 37.3487 74.2435 37.3479Z" fill="white"/>
<path id="Vector_11" d="M12.7309 54.5404C12.4156 54.5305 12.1168 54.397 11.899 54.1688C11.6811 53.9406 11.5618 53.6359 11.5665 53.3205C11.5839 53.0191 11.7157 52.7358 11.9349 52.5283C12.1541 52.3209 12.4442 52.2049 12.7461 52.2041C13.0465 52.2199 13.3292 52.3508 13.5356 52.5697C13.742 52.7886 13.856 53.0787 13.8541 53.3795C13.8521 53.6803 13.7343 53.9688 13.5251 54.185C13.3159 54.4012 13.0315 54.5285 12.7309 54.5404Z" fill="white"/>
<path id="Vector_12" d="M25.627 58.8492C25.6334 58.9986 25.6101 59.1478 25.5585 59.2882C25.5069 59.4286 25.4279 59.5574 25.3262 59.6671C25.2245 59.7768 25.1021 59.8652 24.966 59.9273C24.8299 59.9893 24.6828 60.0238 24.5333 60.0287C24.3774 60.0375 24.2213 60.015 24.0742 59.9623C23.9271 59.9097 23.7921 59.8281 23.6772 59.7224C23.5622 59.6166 23.4697 59.4889 23.405 59.3467C23.3404 59.2045 23.3049 59.0508 23.3008 58.8946C23.3027 58.5785 23.4283 58.2758 23.6506 58.0511C23.8729 57.8264 24.1744 57.6977 24.4904 57.6924C24.7922 57.7021 25.0787 57.8277 25.2904 58.0431C25.502 58.2585 25.6226 58.5472 25.627 58.8492Z" fill="white"/>
<path id="Vector_13" d="M26.0677 63.5193C26.0729 63.8211 25.9617 64.1134 25.7571 64.3353C25.5525 64.5573 25.2703 64.692 24.9691 64.7114C24.8135 64.7231 24.6572 64.703 24.5097 64.6522C24.3622 64.6015 24.2267 64.5211 24.1113 64.4162C23.9959 64.3112 23.9032 64.1838 23.8387 64.0417C23.7743 63.8997 23.7395 63.746 23.7365 63.59C23.7338 63.4334 23.7622 63.2778 23.8201 63.1323C23.878 62.9867 23.9641 62.8541 24.0736 62.742C24.183 62.63 24.3136 62.5407 24.4578 62.4795C24.602 62.4183 24.7569 62.3862 24.9135 62.3853C25.2121 62.3979 25.4955 62.5208 25.7087 62.7303C25.9219 62.9398 26.0499 63.2209 26.0677 63.5193Z" fill="white"/>
<path id="Vector_14" d="M50.7679 9.66081C50.754 9.96123 50.6248 10.2447 50.4072 10.4524C50.1897 10.66 49.9005 10.7759 49.5998 10.7759C49.299 10.7759 49.0099 10.66 48.7923 10.4524C48.5748 10.2447 48.4456 9.96123 48.4316 9.66081C48.4332 9.35844 48.5506 9.06817 48.7597 8.8497C48.9687 8.63124 49.2536 8.50121 49.5556 8.48635C49.8712 8.48427 50.1751 8.60615 50.4018 8.82578C50.6285 9.04542 50.76 9.34526 50.7679 9.66081Z" fill="white"/>
<path id="Vector_15" d="M52.4989 12.4999C52.6552 12.4978 52.8103 12.527 52.9552 12.5855C53.1001 12.6441 53.2318 12.7309 53.3428 12.841C53.4538 12.951 53.5417 13.082 53.6015 13.2264C53.6613 13.3708 53.6918 13.5256 53.6911 13.6819C53.6805 13.9838 53.5561 14.2705 53.343 14.4846C53.1299 14.6986 52.8437 14.8242 52.5419 14.8361C52.3857 14.8362 52.2311 14.8051 52.0871 14.7446C51.9431 14.6842 51.8126 14.5956 51.7033 14.4842C51.5939 14.3727 51.5079 14.2405 51.4502 14.0954C51.3925 13.9503 51.3644 13.7951 51.3674 13.639C51.3664 13.4897 51.3949 13.3418 51.4514 13.2036C51.5078 13.0655 51.591 12.9398 51.6961 12.8339C51.8013 12.7281 51.9264 12.644 52.0642 12.5867C52.2019 12.5294 52.3497 12.4999 52.4989 12.4999Z" fill="white"/>
<path id="Vector_16" d="M47.2634 78.0447C47.2614 78.2013 47.2286 78.3559 47.1669 78.4998C47.1051 78.6437 47.0157 78.774 46.9035 78.8833C46.7914 78.9926 46.6589 79.0787 46.5135 79.1368C46.3681 79.1949 46.2127 79.2237 46.0561 79.2217C45.8276 79.2138 45.6065 79.1389 45.4202 79.0064C45.234 78.8739 45.0907 78.6896 45.0082 78.4764C44.9258 78.2632 44.9078 78.0305 44.9564 77.8071C45.0051 77.5838 45.1183 77.3796 45.282 77.22C45.4457 77.0604 45.6527 76.9525 45.8772 76.9095C46.1017 76.8665 46.3339 76.8904 46.545 76.9783C46.756 77.0661 46.9366 77.214 47.0643 77.4036C47.1921 77.5932 47.2613 77.8162 47.2634 78.0447Z" fill="white"/>
<path id="Vector_17" d="M3.86393 38.9719C3.85277 39.2868 3.71944 39.585 3.49219 39.8033C3.26495 40.0216 2.96163 40.1428 2.64653 40.1413C2.34481 40.1263 2.06059 39.9951 1.85343 39.7753C1.64627 39.5554 1.53223 39.2639 1.53522 38.9618C1.53363 38.806 1.56396 38.6516 1.62431 38.5079C1.68467 38.3643 1.77378 38.2346 1.88617 38.1267C1.99856 38.0188 2.13184 37.935 2.2778 37.8806C2.42377 37.8261 2.57934 37.8021 2.73493 37.8101C3.0363 37.8217 3.32163 37.9489 3.53181 38.1652C3.74199 38.3815 3.86091 38.6703 3.86393 38.9719Z" fill="white"/>
<path id="Vector_18" d="M3.86419 34.4054C3.85309 34.7199 3.72064 35.0179 3.49461 35.2368C3.26858 35.4558 2.96654 35.5787 2.65185 35.5798C2.35013 35.5687 2.06467 35.4402 1.85619 35.2218C1.6477 35.0035 1.53264 34.7123 1.53548 34.4104C1.53175 34.2546 1.56033 34.0997 1.61942 33.9554C1.67851 33.8112 1.76683 33.6807 1.87882 33.5723C1.99082 33.4639 2.12405 33.3798 2.27013 33.3254C2.41621 33.271 2.57198 33.2474 2.72762 33.2562C3.02898 33.2633 3.31582 33.3871 3.52779 33.6014C3.73976 33.8158 3.86035 34.104 3.86419 34.4054Z" fill="white"/>
<path id="Vector_19" d="M9.00003 49.6555C9.15599 49.657 9.31005 49.69 9.45297 49.7525C9.5959 49.8149 9.72475 49.9056 9.83181 50.019C9.93887 50.1325 10.0219 50.2663 10.076 50.4126C10.1302 50.5589 10.1542 50.7146 10.1467 50.8704C10.1299 51.1719 9.99777 51.4554 9.77776 51.6623C9.55774 51.8691 9.26664 51.9835 8.96467 51.9817C8.65046 51.9718 8.35268 51.839 8.13541 51.6118C7.91813 51.3846 7.79871 51.0812 7.80284 50.7668C7.81663 50.4616 7.94989 50.1739 8.17386 49.966C8.39783 49.7581 8.69456 49.6466 9.00003 49.6555Z" fill="white"/>
<path id="Vector_20" d="M77.8493 45.5538C77.8462 45.8556 77.7269 46.1445 77.5161 46.3605C77.3053 46.5764 77.0193 46.7028 76.7178 46.7131C76.4022 46.7105 76.1006 46.5831 75.8786 46.3588C75.6567 46.1345 75.5325 45.8315 75.5332 45.516C75.5346 45.3595 75.5679 45.205 75.6308 45.0618C75.6938 44.9186 75.7853 44.7897 75.8996 44.683C76.0139 44.5762 76.1488 44.4938 76.2959 44.4407C76.4431 44.3877 76.5995 44.3651 76.7557 44.3743C76.9053 44.3789 77.0525 44.4131 77.1887 44.4751C77.325 44.537 77.4476 44.6254 77.5493 44.7352C77.6511 44.845 77.73 44.9739 77.7815 45.1144C77.833 45.2549 77.8561 45.4043 77.8493 45.5538Z" fill="white"/>
<path id="Vector_21" d="M17.0294 53.7725C17.1851 53.7764 17.3384 53.811 17.4807 53.8744C17.6229 53.9378 17.7513 54.0287 17.8583 54.1418C17.9653 54.2549 18.0489 54.3881 18.1043 54.5336C18.1597 54.6792 18.1858 54.8342 18.1811 54.9899C18.1692 55.2159 18.0913 55.4335 17.957 55.6157C17.8227 55.7979 17.6379 55.9367 17.4254 56.0148C17.213 56.093 16.9823 56.1072 16.7619 56.0555C16.5415 56.0038 16.3412 55.8887 16.1856 55.7242C16.03 55.5598 15.9261 55.3533 15.8868 55.1304C15.8474 54.9075 15.8743 54.678 15.9641 54.4702C16.0539 54.2624 16.2027 54.0856 16.3921 53.9616C16.5814 53.8375 16.803 53.7718 17.0294 53.7725Z" fill="white"/>
<path id="Vector_22" d="M59.2873 26.6791C59.296 26.9873 59.182 27.2862 58.9703 27.5103C58.7585 27.7343 58.4665 27.8651 58.1583 27.8738C57.8502 27.8825 57.5512 27.7684 57.3272 27.5567C57.1031 27.345 56.9724 27.0529 56.9637 26.7448C56.9526 26.4432 57.0601 26.1493 57.2631 25.926C57.4661 25.7027 57.7485 25.5677 58.0497 25.5501C58.2056 25.5409 58.3617 25.563 58.5089 25.6152C58.6561 25.6673 58.7913 25.7483 58.9067 25.8536C59.022 25.9588 59.1151 26.0861 59.1805 26.2278C59.2459 26.3696 59.2822 26.5231 59.2873 26.6791Z" fill="white"/>
<path id="Vector_23" d="M30.2768 71.8617C30.2777 72.1633 30.1621 72.4536 29.9541 72.672C29.7461 72.8904 29.4617 73.0199 29.1604 73.0336C29.0047 73.0425 28.8488 73.0196 28.7022 72.9664C28.5556 72.9131 28.4214 72.8306 28.3077 72.7237C28.1941 72.6169 28.1033 72.4881 28.0411 72.3451C27.9788 72.2021 27.9463 72.048 27.9455 71.892C27.9398 71.5903 28.0515 71.2983 28.2569 71.0773C28.4623 70.8563 28.7455 70.7237 29.0467 70.7074C29.3615 70.7025 29.6658 70.8202 29.8954 71.0356C30.1249 71.251 30.2617 71.5472 30.2768 71.8617Z" fill="white"/>
<path id="Vector_24" d="M62.9318 26.232C63.0881 26.2253 63.2441 26.251 63.39 26.3073C63.5359 26.3637 63.6686 26.4495 63.7798 26.5596C63.891 26.6696 63.9782 26.8013 64.0362 26.9466C64.0941 27.0919 64.1214 27.2476 64.1164 27.4039C64.1113 27.7059 63.9902 27.9943 63.778 28.2092C63.5659 28.4242 63.2791 28.5491 62.9773 28.5582C62.6615 28.5569 62.3591 28.4308 62.1358 28.2075C61.9125 27.9843 61.7865 27.6818 61.7852 27.366C61.7872 27.0637 61.909 26.7745 62.124 26.5619C62.339 26.3493 62.6295 26.2307 62.9318 26.232Z" fill="white"/>
<path id="Vector_25" d="M27.6385 67.9898C27.6384 68.2192 27.5706 68.4436 27.4437 68.6348C27.3168 68.826 27.1363 68.9755 26.9248 69.0646C26.7134 69.1538 26.4803 69.1786 26.2548 69.136C26.0294 69.0933 25.8214 68.9852 25.6571 68.825C25.4928 68.6648 25.3793 68.4597 25.3309 68.2354C25.2825 68.0111 25.3014 67.7775 25.3851 67.5638C25.4687 67.3501 25.6136 67.1659 25.8014 67.0341C25.9893 66.9023 26.2119 66.8288 26.4413 66.8229C26.5973 66.8178 26.7528 66.8442 26.8983 66.9007C27.0439 66.9571 27.1765 67.0424 27.2884 67.1514C27.4002 67.2603 27.4888 67.3908 27.549 67.5348C27.6091 67.6789 27.6396 67.8336 27.6385 67.9898Z" fill="white"/>
<path id="Vector_26" d="M33.7736 74.9684C33.7828 75.1177 33.7619 75.2673 33.7121 75.4084C33.6623 75.5494 33.5847 75.6791 33.4839 75.7896C33.3831 75.9001 33.2611 75.9892 33.1251 76.0516C32.9892 76.114 32.8421 76.1485 32.6925 76.1529C32.5356 76.1639 32.3781 76.1434 32.2292 76.0927C32.0803 76.042 31.9431 75.962 31.8254 75.8576C31.7078 75.7532 31.6122 75.6263 31.5443 75.4845C31.4763 75.3426 31.4374 75.1886 31.4297 75.0315C31.4297 74.7164 31.5536 74.4139 31.7748 74.1894C31.996 73.9649 32.2966 73.8364 32.6117 73.8318C32.9157 73.8311 33.2079 73.9498 33.4252 74.1624C33.6425 74.375 33.7676 74.6644 33.7736 74.9684Z" fill="white"/>
<path id="Vector_27" d="M42.5546 78.2215C42.5503 78.3741 42.516 78.5243 42.4536 78.6636C42.3912 78.8029 42.302 78.9286 42.1911 79.0334C42.0801 79.1383 41.9497 79.2202 41.807 79.2746C41.6644 79.329 41.5125 79.3548 41.3599 79.3505C41.2074 79.3462 41.0571 79.3119 40.9178 79.2495C40.7785 79.1871 40.6528 79.0979 40.548 78.987C40.4432 78.876 40.3612 78.7455 40.3068 78.6029C40.2524 78.4603 40.2266 78.3084 40.2309 78.1558C40.2396 77.8477 40.3704 77.5556 40.5944 77.3439C40.8185 77.1322 41.1175 77.0181 41.4256 77.0268C41.7337 77.0355 42.0258 77.1663 42.2375 77.3903C42.4492 77.6144 42.5633 77.9134 42.5546 78.2215Z" fill="white"/>
<path id="Vector_28" d="M46.8872 6.5669C46.8893 6.7165 46.8613 6.865 46.8051 7.00365C46.7489 7.1423 46.6655 7.26829 46.5598 7.3742C46.4541 7.48012 46.3283 7.56382 46.1898 7.62036C46.0512 7.67691 45.9028 7.70517 45.7532 7.70347C45.4457 7.71017 45.1482 7.59445 44.926 7.38178C44.7039 7.1691 44.5753 6.87689 44.5686 6.56942C44.5619 6.26196 44.6777 5.96442 44.8903 5.74227C45.103 5.52013 45.3952 5.39156 45.7027 5.38486C45.8591 5.38107 46.0146 5.40903 46.1599 5.46705C46.3051 5.52508 46.4371 5.61197 46.5478 5.72246C46.6586 5.83295 46.7457 5.96476 46.8041 6.1099C46.8624 6.25504 46.8907 6.41051 46.8872 6.5669Z" fill="white"/>
<path id="Vector_29" d="M77.2415 40.6641C77.2459 40.8202 77.2189 40.9757 77.1621 41.1213C77.1052 41.2668 77.0198 41.3995 76.9107 41.5114C76.8016 41.6233 76.6712 41.7121 76.5272 41.7727C76.3831 41.8332 76.2284 41.8642 76.0721 41.8638C75.7702 41.8536 75.4835 41.7284 75.2709 41.5138C75.0582 41.2992 74.9355 41.0115 74.928 40.7095C74.925 40.5576 74.9519 40.4066 75.0073 40.2651C75.0627 40.1236 75.1454 39.9944 75.2507 39.8849C75.356 39.7754 75.4819 39.6877 75.6211 39.6268C75.7603 39.5659 75.9101 39.533 76.062 39.53C76.2139 39.527 76.3649 39.554 76.5064 39.6094C76.6479 39.6647 76.7771 39.7474 76.8866 39.8527C76.9962 39.9581 77.0839 40.0839 77.1448 40.2231C77.2057 40.3623 77.2385 40.5121 77.2415 40.6641Z" fill="white"/>
<path id="Vector_30" d="M5.90376 46.256C6.05968 46.2518 6.21482 46.2795 6.35968 46.3373C6.50453 46.3952 6.63607 46.4819 6.74625 46.5923C6.85642 46.7027 6.94291 46.8345 7.00042 46.9795C7.05794 47.1244 7.08527 47.2796 7.08075 47.4355C7.08478 47.5916 7.05718 47.7469 6.99961 47.892C6.94203 48.0371 6.85568 48.1691 6.74574 48.28C6.6358 48.3908 6.50456 48.4783 6.35992 48.5371C6.21528 48.5959 6.06024 48.6248 5.90413 48.622C5.74803 48.6193 5.59409 48.585 5.45159 48.5212C5.3091 48.4574 5.18099 48.3654 5.075 48.2508C4.969 48.1361 4.88731 48.0012 4.83485 47.8542C4.78238 47.7071 4.76023 47.551 4.76972 47.3951C4.76939 47.2459 4.79845 47.098 4.85527 46.96C4.91208 46.822 4.99552 46.6965 5.10083 46.5907C5.20613 46.4849 5.33124 46.4009 5.46901 46.3435C5.60678 46.2861 5.75451 46.2564 5.90376 46.256Z" fill="white"/>
<path id="Vector_31" d="M22.7174 55.4092C22.7234 55.7167 22.607 56.0139 22.3939 56.2356C22.1807 56.4573 21.8883 56.5852 21.5808 56.5912C21.2733 56.5973 20.9761 56.4809 20.7544 56.2678C20.5327 56.0546 20.4048 55.7621 20.3988 55.4547C20.3951 55.2989 20.4226 55.144 20.4797 54.999C20.5369 54.854 20.6224 54.722 20.7314 54.6106C20.8404 54.4993 20.9706 54.4109 21.1143 54.3507C21.258 54.2905 21.4124 54.2596 21.5682 54.26C21.869 54.2724 22.1541 54.3975 22.367 54.6104C22.5799 54.8233 22.705 55.1084 22.7174 55.4092Z" fill="white"/>
</g>
</g>
</svg>
