<svg width="76" height="80" viewBox="0 0 76 80" fill="none" xmlns="http://www.w3.org/2000/svg">
<g id="Capa 22">
<g id="Capa 1">
<path id="Vector" d="M15.8212 80C13.7501 79.2831 13.023 77.7957 13.0742 75.6477C13.1638 71.9278 13.0972 68.2028 13.0998 64.4803C13.0889 64.1938 13.1027 63.9068 13.1407 63.6226C13.1842 63.3588 13.3191 63.1188 13.5217 62.9444C13.7244 62.77 13.9819 62.6724 14.2492 62.6688C14.5166 62.6651 14.7766 62.7556 14.984 62.9243C15.1913 63.0931 15.3327 63.3294 15.3834 63.5919C15.4318 63.8742 15.4507 64.1608 15.4398 64.447C15.4398 68.3009 15.4398 72.1539 15.4398 76.0061C15.4398 77.3681 15.7265 77.6472 17.0911 77.6472H64.513C65.8622 77.6472 66.1489 77.3579 66.1489 75.9933C66.1489 54.5904 66.1489 33.1874 66.1489 11.7844C66.1489 10.4301 65.8622 10.1434 64.5027 10.1434H17.0808C15.7137 10.1434 15.4346 10.4199 15.4346 11.7896C15.4278 18.3572 15.4244 24.924 15.4244 31.49V32.2785C15.8937 32.1225 16.3726 31.9968 16.8581 31.9022C17.6144 31.8008 18.3825 31.9655 19.0308 32.3681C19.679 32.7707 20.1672 33.3862 20.4116 34.1091C20.6907 34.9002 21.1233 35.2099 21.9707 35.1638C24.4771 35.0256 26.067 36.9329 25.555 39.406C25.4014 40.128 25.6267 40.5812 26.2769 40.9421C28.4684 42.1301 28.8525 44.6851 27.0987 46.4363C26.5483 46.9841 26.4587 47.4859 26.8427 48.1669C28.0178 50.3175 26.9912 52.6754 24.6231 53.2053C23.7885 53.3897 23.4556 53.789 23.3839 54.6211C23.1689 57.0635 21.0132 58.4101 18.727 57.5448C17.9999 57.2683 17.5186 57.4117 17.0527 58.0389C15.5755 60.0307 12.9769 60.0333 11.4946 58.0389C11.0312 57.4142 10.5499 57.2709 9.8202 57.5269C7.51606 58.3922 5.3732 57.0481 5.16071 54.6083C5.08902 53.7788 4.76132 53.3743 3.92415 53.19C1.54063 52.6626 0.511448 50.2995 1.68912 48.1541C2.06035 47.4731 1.97586 46.9688 1.43311 46.4209C-0.325725 44.6672 0.0531791 42.1224 2.24724 40.9293C2.93848 40.553 3.12025 40.0691 2.95128 39.3241C2.41877 36.9892 4.06496 35.0205 6.46383 35.1536C7.32404 35.1997 7.80279 34.9462 8.10489 34.1039C8.7731 32.2325 10.6855 31.4183 12.557 32.1275L13.0947 32.3451V31.3569C13.0947 24.7687 13.0947 18.1814 13.0947 11.595C13.0947 9.18843 14.4874 7.81618 16.8735 7.8085C17.7055 7.8085 18.5401 7.8085 19.3722 7.8085H20.2247C20.2426 7.48592 20.2708 7.21198 20.2734 6.93804C20.2734 5.71429 20.2375 4.48797 20.3041 3.26677C20.4039 1.37225 21.8248 0.0460829 23.7219 0C23.9037 0 24.0854 0 24.2672 0H71.684C74.3491 0 75.6753 1.31336 75.6753 3.96569C75.6753 25.3943 75.6753 46.8237 75.6753 68.254C75.6753 70.8628 74.3466 72.1915 71.7429 72.1941H68.4915V74.4496C68.4915 74.8413 68.4608 75.233 68.4915 75.6221C68.6989 77.7573 67.8514 79.2396 65.8161 80H15.8212ZM22.6338 7.80338H23.6579C37.2524 7.80338 50.846 7.80338 64.4387 7.80338C64.8807 7.78346 65.3234 7.81006 65.7598 7.88274C67.4956 8.25397 68.4761 9.62366 68.4761 11.6334C68.4761 30.6964 68.4761 49.7585 68.4761 68.8198V69.8438H71.5483C73.0716 69.8438 73.3097 69.6057 73.3097 68.085C73.3097 46.7503 73.3097 25.4224 73.3097 4.10138C73.3097 2.58321 73.0537 2.33999 71.5458 2.33999H24.385C24.1776 2.33999 23.9677 2.33999 23.7603 2.33999C23.087 2.37839 22.662 2.73169 22.6466 3.40502C22.6108 4.84127 22.6338 6.2724 22.6338 7.8085V7.80338ZM6.77617 37.5013C5.65482 37.1966 5.0327 37.9903 5.22215 38.8838C5.62922 40.8116 5.07366 41.9841 3.35835 42.98C2.56982 43.4306 2.45717 44.1167 3.06393 44.7721C4.47714 46.2903 4.65123 47.4731 3.72957 49.2908C3.32763 50.087 3.62461 50.7399 4.48226 50.9396C6.38446 51.3876 7.25748 52.3579 7.45205 54.2396C7.5647 55.3482 8.09977 55.681 9.152 55.297C10.7649 54.7081 12.2063 55.128 13.2483 56.4798C13.9523 57.404 14.5872 57.4066 15.2836 56.4798C16.2872 55.151 17.7593 54.703 19.2979 55.256C20.4935 55.6887 20.9595 55.3866 21.09 54.0911C21.1361 53.3455 21.4259 52.6357 21.9148 52.0708C22.4038 51.506 23.0648 51.1175 23.7961 50.9652C25.0071 50.6912 25.2529 50.169 24.6768 49.0886C24.2935 48.4296 24.1438 47.6606 24.2521 46.906C24.3604 46.1514 24.7202 45.4554 25.2734 44.9309C26.1259 44.0655 26.0414 43.4741 24.9636 42.8827C24.2999 42.5358 23.769 41.98 23.453 41.3011C23.1369 40.6222 23.0533 39.8582 23.215 39.127C23.471 37.8597 23.1433 37.468 21.8325 37.5115C20.1607 37.5678 18.9139 36.7435 18.3302 35.2074C17.9334 34.1603 17.3061 33.9631 16.4305 34.6057C15.0097 35.6298 13.5171 35.6298 12.0962 34.6057C11.1976 33.958 10.5883 34.1423 10.1914 35.1869C9.61283 36.7102 8.38907 37.5422 6.77617 37.5038V37.5013Z" fill="white"/>
<path id="Vector_2" d="M31.3954 29.1859C30.9602 29.1603 30.6017 29.1526 30.2459 29.1193C28.5997 28.9683 27.399 27.8623 27.3094 26.2135C27.2172 24.5499 27.2172 22.8824 27.3094 21.2187C27.4015 19.6339 28.5664 18.3206 30.1255 18.4025C32.9852 18.5587 35.4456 17.3784 38.0057 16.4849C40.9525 15.4609 43.8736 14.3728 46.8101 13.3231C49.1143 12.5039 51.1957 13.9401 51.2623 16.3774C51.2776 16.9944 51.2623 17.614 51.2623 18.3257C51.828 18.3257 52.3145 18.3103 52.7984 18.3257C54.3344 18.3794 55.3278 19.3754 55.3406 20.9012C55.356 22.7787 55.356 24.6561 55.3406 26.5336C55.3278 28.0697 54.3677 29.0681 52.8265 29.1398C52.3375 29.1629 51.846 29.1398 51.2571 29.1398C51.2571 29.7773 51.2571 30.3431 51.2571 30.9063C51.2315 33.5484 49.1578 34.9872 46.6847 34.0963C44.1424 33.1798 41.5976 32.276 38.9427 31.3262L38.2515 33.3974C37.9648 34.2601 37.6883 35.1255 37.3887 35.9857C37.1693 36.6877 36.7296 37.3003 36.1347 37.7328C35.5399 38.1653 34.8215 38.3948 34.0861 38.3871C33.5741 38.4025 33.0467 38.3871 32.5244 38.3871C30.2945 38.3871 29.04 36.6667 29.7082 34.4982C30.1742 32.9826 30.676 31.4798 31.1573 29.9693C31.2418 29.7415 31.2981 29.4982 31.3954 29.1859ZM48.9223 23.766C48.9223 21.3953 48.9223 19.0255 48.9223 16.6565C48.9223 15.553 48.4742 15.233 47.4502 15.5991C43.2413 17.1019 39.0375 18.6201 34.8234 20.1101C34.3831 20.2663 34.2244 20.466 34.232 20.9371C34.2576 22.7855 34.2576 24.6339 34.232 26.4824C34.232 26.9714 34.3626 27.2018 34.8465 27.3733C39.0375 28.8505 43.2157 30.3636 47.3913 31.8613C48.4666 32.2479 48.9146 31.9355 48.9274 30.7937C48.9274 28.4571 48.9257 26.1171 48.9223 23.7737V23.766ZM36.7282 30.5325L33.7994 29.4778C33.1645 31.444 32.5423 33.3385 31.9458 35.2381C31.9105 35.5032 31.9105 35.7718 31.9458 36.0369C32.7779 36.0369 33.5126 36.1137 34.2192 36.0062C34.4145 35.9646 34.5981 35.8804 34.757 35.7596C34.9159 35.6387 35.0461 35.4843 35.1383 35.3073C35.7067 33.7635 36.1906 32.1762 36.7282 30.5402V30.5325ZM31.8639 20.6708C31.3877 20.6708 30.9806 20.6708 30.5838 20.6708C29.9515 20.6708 29.6238 21.0062 29.6186 21.636C29.6186 23.0364 29.5777 24.4368 29.6468 25.8321C29.6759 26.0205 29.7497 26.1992 29.8619 26.3533C29.9741 26.5074 30.1216 26.6324 30.292 26.7179C30.7733 26.8664 31.3339 26.7589 31.8741 26.7589L31.8639 20.6708ZM52.9417 26.7486V20.7374H51.293V26.7512L52.9417 26.7486Z" fill="white"/>
<path id="Vector_3" d="M40.9621 63.1208C47.7568 63.1208 54.5515 63.1208 61.3461 63.1208C61.6023 63.1065 61.8592 63.1133 62.1142 63.1413C62.7645 63.2514 63.1382 63.6533 63.1382 64.3164C63.1442 64.5949 63.045 64.8655 62.8605 65.0743C62.6759 65.283 62.4195 65.4146 62.1423 65.4429C61.9097 65.4715 61.6748 65.4783 61.4409 65.4633H20.3682C20.1115 65.4809 19.8537 65.4681 19.6001 65.4249C19.3387 65.3665 19.1055 65.2194 18.9403 65.0085C18.7751 64.7977 18.6879 64.5361 18.6936 64.2683C18.6994 64.0005 18.7976 63.7429 18.9717 63.5393C19.1458 63.3357 19.3851 63.1987 19.6487 63.1515C19.9331 63.1151 20.2203 63.1057 20.5064 63.1233C27.3216 63.1182 34.1401 63.1174 40.9621 63.1208Z" fill="white"/>
<path id="Vector_4" d="M40.8905 70.0692H20.2889C19.2417 70.0692 18.6785 69.6493 18.6836 68.8992C18.6887 68.1491 19.2571 67.7292 20.3017 67.7292C34.0446 67.7292 47.7842 67.7292 61.5203 67.7292C61.8045 67.7292 62.1834 67.678 62.3523 67.8342C62.6826 68.1388 63.1204 68.5792 63.0999 68.9479C63.0794 69.3165 62.6263 69.7159 62.2679 69.9924C62.0579 70.1486 61.6637 70.0667 61.3513 70.0667L40.8905 70.0692Z" fill="white"/>
<path id="Vector_5" d="M35.9824 72.345H51.3689C51.6028 72.3322 51.8373 72.3373 52.0704 72.3604C52.7258 72.4628 53.1175 72.8724 53.1124 73.5227C53.1073 74.173 52.7181 74.5826 52.0576 74.6748C51.8244 74.6957 51.59 74.7 51.3561 74.6876H20.4268C20.2194 74.6876 20.0095 74.6876 19.8021 74.6876C19.4998 74.6745 19.2139 74.5463 19.003 74.3293C18.7921 74.1122 18.6723 73.8227 18.668 73.5201C18.6725 73.2166 18.7946 72.9268 19.0085 72.7114C19.2224 72.4961 19.5115 72.3721 19.8149 72.3655C20.3858 72.3296 20.9593 72.3527 21.5328 72.3527L35.9824 72.345Z" fill="white"/>
<path id="Vector_6" d="M50.0896 52.6575H38.7737C38.5405 52.673 38.3064 52.6653 38.0748 52.6345C37.7957 52.5972 37.5396 52.4598 37.3541 52.2479C37.1686 52.0361 37.0664 51.764 37.0664 51.4824C37.0664 51.2008 37.1686 50.9288 37.3541 50.7169C37.5396 50.505 37.7957 50.3677 38.0748 50.3304C38.3064 50.2995 38.5405 50.2918 38.7737 50.3073H61.4798C61.6881 50.2958 61.897 50.3009 62.1045 50.3227C62.7522 50.4276 63.149 50.8193 63.149 51.4799C63.149 52.1404 62.7548 52.5321 62.1019 52.6345C61.8698 52.6589 61.636 52.664 61.403 52.6499L50.0896 52.6575Z" fill="white"/>
<path id="Vector_7" d="M50.0405 48.0365H38.9498C38.6634 48.0464 38.3767 48.0344 38.0922 48.0006C37.8197 47.9642 37.5696 47.8308 37.3876 47.6248C37.2056 47.4188 37.1041 47.154 37.1016 46.8792C37.0991 46.6043 37.1959 46.3378 37.3741 46.1286C37.5523 45.9193 37.8 45.7813 38.0717 45.74C38.3259 45.703 38.5829 45.6884 38.8397 45.6965H61.4127C61.647 45.6896 61.8816 45.7007 62.1142 45.7298C62.7696 45.8373 63.1536 46.2418 63.1383 46.9023C63.1229 47.5628 62.7235 47.9494 62.0604 48.0185C61.8007 48.0395 61.54 48.0463 61.2796 48.039L50.0405 48.0365Z" fill="white"/>
<path id="Vector_8" d="M41.2823 60.8499H33.2511C32.9947 60.8567 32.7382 60.8473 32.483 60.8217C31.8225 60.7296 31.459 60.3404 31.459 59.6722C31.459 59.004 31.8558 58.6277 32.5061 58.5304C32.6871 58.5095 32.8694 58.5026 33.0514 58.5099H49.5875C49.8213 58.5012 50.0555 58.5158 50.2864 58.5534C50.5622 58.5905 50.8126 58.7339 50.9843 58.9529C51.156 59.1719 51.2354 59.4493 51.2055 59.726C51.2154 59.9906 51.1244 60.2492 50.9509 60.4493C50.7775 60.6494 50.5344 60.7761 50.2711 60.8038C49.9877 60.8422 49.7018 60.8576 49.416 60.8499H41.2823Z" fill="white"/>
<path id="Vector_9" d="M43.113 43.4333C41.5769 43.4333 40.0408 43.4333 38.5047 43.4333C37.6189 43.4333 37.0684 42.9494 37.0864 42.2325C37.1043 41.5157 37.6291 41.0958 38.4791 41.0933C41.5718 41.0933 44.6644 41.0933 47.7571 41.0933C48.625 41.0933 49.1166 41.5311 49.1217 42.2479C49.1268 42.9647 48.6276 43.423 47.7827 43.4307C46.2313 43.4409 44.6721 43.4307 43.113 43.4333Z" fill="white"/>
<path id="Vector_10" d="M59.8001 72.3451C60.4991 72.3451 61.2005 72.3272 61.8995 72.3451C62.6675 72.3682 63.1795 72.8572 63.1591 73.5382C63.1559 73.6946 63.1212 73.8488 63.0569 73.9916C62.9927 74.1343 62.9004 74.2626 62.7854 74.3687C62.6704 74.4749 62.5351 74.5567 62.3877 74.6093C62.2403 74.6619 62.0838 74.6842 61.9276 74.6749C60.4513 74.6954 58.9732 74.6954 57.4934 74.6749C57.3363 74.6839 57.1789 74.661 57.0309 74.6075C56.8828 74.554 56.7471 74.4711 56.632 74.3637C56.5169 74.2564 56.4248 74.1268 56.3611 73.9828C56.2975 73.8388 56.2637 73.6834 56.2618 73.526C56.2599 73.3686 56.2899 73.2125 56.35 73.067C56.4102 72.9215 56.4992 72.7897 56.6116 72.6796C56.7241 72.5695 56.8577 72.4833 57.0045 72.4262C57.1512 72.3692 57.3079 72.3425 57.4653 72.3477C58.241 72.3246 59.0218 72.3477 59.8001 72.3451Z" fill="white"/>
<path id="Vector_11" d="M15.4252 42.8905C15.4252 43.8762 15.4252 44.8644 15.4252 45.8526C15.4073 46.741 14.9951 47.2121 14.2757 47.2198C13.5563 47.2274 13.1031 46.7615 13.0929 45.8859C13.0758 43.9129 13.0758 41.9381 13.0929 39.9617C13.0929 39.081 13.5281 38.5971 14.2398 38.5894C14.9516 38.5818 15.4124 39.0759 15.4252 40.0078C15.438 40.9397 15.4252 41.9279 15.4252 42.8905Z" fill="white"/>
<path id="Vector_12" d="M14.3179 49.2574C14.4729 49.2684 14.6241 49.31 14.7629 49.3798C14.9016 49.4496 15.0251 49.5463 15.1263 49.6641C15.2275 49.7819 15.3043 49.9187 15.3523 50.0664C15.4003 50.2141 15.4186 50.3699 15.406 50.5247C15.3931 50.676 15.3505 50.8233 15.2806 50.9581C15.2107 51.0929 15.115 51.2127 14.9989 51.3105C14.8827 51.4083 14.7485 51.4823 14.6038 51.5282C14.459 51.5742 14.3067 51.5912 14.1554 51.5782C14.0041 51.5653 13.8568 51.5227 13.722 51.4528C13.5872 51.3829 13.4674 51.2872 13.3696 51.1711C13.2718 51.055 13.1978 50.9207 13.1518 50.776C13.1059 50.6312 13.0889 50.4789 13.1019 50.3276C13.1273 50.0268 13.2681 49.7474 13.4948 49.548C13.7214 49.3486 14.0163 49.2445 14.3179 49.2574Z" fill="white"/>
<path id="Vector_13" d="M39.1819 24.89C38.7646 24.89 38.3473 24.9207 37.9325 24.89C37.7877 24.8916 37.6441 24.8635 37.5106 24.8073C37.3771 24.7512 37.2566 24.6682 37.1565 24.5635C37.0564 24.4589 36.9789 24.3348 36.9287 24.1989C36.8786 24.0631 36.8569 23.9184 36.8649 23.7738C36.8496 23.1056 37.2182 22.6601 37.889 22.614C38.7457 22.5564 39.6053 22.5564 40.462 22.614C41.1199 22.655 41.486 23.0876 41.486 23.761C41.497 23.9055 41.4779 24.0508 41.4299 24.1877C41.3819 24.3245 41.3061 24.4499 41.2072 24.556C41.1084 24.6621 40.9886 24.7465 40.8555 24.804C40.7224 24.8615 40.5788 24.8908 40.4338 24.89C40.0165 24.9207 39.5966 24.89 39.1819 24.89Z" fill="white"/>
</g>
</g>
</svg>
