<svg width="68" height="80" viewBox="0 0 68 80" fill="none" xmlns="http://www.w3.org/2000/svg">
<g id="Capa 24">
<g id="Capa 1">
<path id="Vector" d="M18.6811 80C18.4091 79.8222 18.1927 79.5712 18.0569 79.276C17.9211 78.9808 17.8712 78.6532 17.9131 78.331C17.9541 77.6091 17.9131 76.882 17.9131 76.0706C17.588 76.0552 17.3141 76.0296 17.0402 76.0296C15.0102 76.0296 12.9777 76.0296 10.9477 76.0296C9.36053 76.0296 9.10966 75.7736 9.10966 74.1532C9.10966 61.5005 9.10966 48.847 9.10966 36.1926C9.10966 35.6191 8.98167 35.2403 8.48505 34.8973C7.83314 34.4218 7.2171 33.899 6.64193 33.3332C6.02243 32.7521 5.95331 32.0532 6.41409 31.5412C6.91327 30.9909 7.59165 31.0062 8.25978 31.6462C10.955 34.257 14.4291 35.9163 18.1538 36.3718C26.8574 37.5391 35.4151 31.2801 36.9383 22.6354C38.6739 12.9641 32.5506 4.26302 22.846 2.56325C13.8429 0.98124 4.72969 7.53968 3.37038 16.5787C2.79185 20.4339 3.32942 24.0919 5.18023 27.5401C5.51045 28.1519 5.58213 28.7433 4.99847 29.2297C4.80548 29.4122 4.54992 29.5139 4.28426 29.5139C4.01861 29.5139 3.76304 29.4122 3.57005 29.2297C3.35714 29.0368 3.18332 28.8047 3.05808 28.5462C-2.02843 19.159 1.74741 7.00979 11.283 2.16903C15.1318 0.178889 19.5358 -0.466521 23.7939 0.335544C28.0519 1.13761 31.9192 3.34104 34.7803 6.59509C35.0823 6.88687 35.4818 7.05648 35.9015 7.07123C39.4162 7.10706 42.931 7.0917 46.4482 7.09426C46.7335 7.08557 47.0187 7.11048 47.2981 7.1685C47.5592 7.22013 47.7912 7.36806 47.9482 7.5829C48.1052 7.79774 48.1756 8.06376 48.1455 8.32813C48.1481 8.59309 48.0516 8.84947 47.875 9.04696C47.6983 9.24446 47.4542 9.3688 47.1906 9.39561C46.9062 9.4302 46.6195 9.44304 46.3331 9.43401H37.3504C37.2506 9.43401 37.1482 9.45448 36.9511 9.47496C40.7167 16.6119 40.5349 23.5877 36.265 30.3995L39.0348 33.1181C40.3148 32.322 40.4351 32.3502 41.5947 33.4868C46.1615 38.0536 50.7284 42.6187 55.2952 47.1822C55.4872 47.3767 55.6946 47.5559 55.9787 47.8196V9.42121C55.1212 9.42121 54.2713 9.42121 53.4188 9.42121C53.0771 9.43158 52.7351 9.41961 52.3949 9.38537C52.1298 9.36769 51.8817 9.24895 51.7017 9.05366C51.5216 8.85836 51.4234 8.60141 51.4272 8.33581C51.3888 7.7112 51.6986 7.17618 52.3155 7.15314C54.0281 7.08914 55.7458 7.08402 57.4584 7.16594C58.1162 7.19666 58.3518 7.80079 58.3492 8.44589C58.3492 9.29577 58.3492 10.1482 58.3492 11.0749H63.3384C64.196 11.0749 65.0561 11.0621 65.9137 11.0749C66.7098 11.0954 67.104 11.4845 67.1706 12.2678C67.1885 12.4752 67.1706 12.6825 67.1706 12.8924V68.9131C67.1811 69.2247 67.1631 69.5366 67.1168 69.8449C67.0661 70.1074 66.9248 70.3437 66.7174 70.5124C66.5101 70.6811 66.25 70.7716 65.9827 70.7679C65.7154 70.7643 65.458 70.6667 65.2553 70.4924C65.0527 70.318 64.9178 70.0779 64.8744 69.8142C64.8295 69.4525 64.8141 69.0878 64.8283 68.7237C64.8283 50.6816 64.8283 32.6377 64.8283 14.5922V13.4735H58.3594V14.2952C58.3594 26.04 58.3552 37.7831 58.3466 49.5245C58.3385 49.7652 58.3836 50.0047 58.4787 50.226C58.5739 50.4472 58.7167 50.6448 58.897 50.8044C60.3715 52.238 61.8178 53.6997 63.2693 55.1562C64.0859 55.9754 64.0834 56.5232 63.2693 57.3501C61.8178 58.8067 60.3715 60.2684 58.897 61.7019C58.7171 61.8615 58.575 62.0592 58.4812 62.2806C58.3873 62.502 58.344 62.7416 58.3543 62.9818C58.3799 66.7577 58.3671 70.5335 58.3671 74.3068C58.3671 75.661 58.0215 76.0066 56.652 76.0066H20.3118V77.5681H64.8539C64.8539 76.6517 64.818 75.748 64.8539 74.8444C64.8897 73.9407 65.6935 73.3827 66.4103 73.782C66.6055 73.9108 66.7713 74.0792 66.897 74.2764C67.0227 74.4736 67.1055 74.695 67.1399 74.9263C67.2346 76.1729 67.2346 77.4248 67.1399 78.6714C67.1066 79.122 66.7072 79.5443 66.4717 79.9795L18.6811 80ZM11.5134 73.6233H56.0171C56.0171 70.1521 56.0018 66.7449 56.0299 63.3377C56.0409 63.0838 55.9953 62.8306 55.8966 62.5964C55.7979 62.3623 55.6485 62.1529 55.4591 61.9835C48.3989 54.9455 41.3472 47.8998 34.3041 40.8465C33.1138 39.6535 33.0984 39.5435 33.8843 38.2866L31.135 35.5014C24.8965 39.4564 18.3509 39.8711 11.5134 36.8377V73.6233ZM46.717 49.7549L56.9873 60.0738L60.7683 56.234L50.5134 45.9739L46.717 49.7549ZM40.2252 35.5859L36.3853 39.4257L41.0494 44.1077L44.8893 40.2679L40.2252 35.5859ZM42.913 45.9381L44.7792 47.9348L48.6907 44.0335L46.7682 42.0522L42.913 45.9381ZM35.7018 36.4332L37.2378 34.9843L34.7956 32.4782L33.2597 33.9911L35.7018 36.4332Z" fill="white"/>
<path id="Vector_2" d="M5.1797 19.4023C5.18074 16.4283 6.06438 13.5216 7.71871 11.0502C9.37303 8.57882 11.7236 6.65401 14.4727 5.51957C17.2218 4.38513 20.2457 4.09209 23.1615 4.67758C26.0773 5.26307 28.7537 6.70074 30.8517 8.80849C32.9498 10.9162 34.3751 13.5993 34.9472 16.5177C35.5192 19.4361 35.2122 22.4587 34.0651 25.2025C32.918 27.9464 30.9824 30.288 28.5034 31.931C26.0245 33.5739 23.1137 34.4441 20.1397 34.4314C16.1641 34.4186 12.3559 32.8288 9.55119 30.0111C6.74645 27.1934 5.17426 23.378 5.1797 19.4023ZM20.1628 32.0891C22.6721 32.0962 25.1271 31.3584 27.2168 29.9691C29.3065 28.5798 30.9369 26.6016 31.9014 24.285C32.8659 21.9684 33.1212 19.4176 32.6348 16.9559C32.1485 14.4941 30.9425 12.232 29.1695 10.4562C27.3966 8.68032 25.1365 7.47064 22.6755 6.98034C20.2145 6.49003 17.6633 6.74117 15.3451 7.70192C13.027 8.66268 11.0461 10.2898 9.65343 12.3773C8.26077 14.4647 7.51897 16.9185 7.522 19.4279C7.522 22.7823 8.85313 25.9997 11.2231 28.3735C13.5932 30.7474 16.8083 32.0837 20.1628 32.0891Z" fill="white"/>
<path id="Vector_3" d="M43.5169 18.9721C43.5169 17.49 43.5169 16.0052 43.5169 14.5205C43.5169 13.5144 43.924 13.1125 44.9428 13.1074C46.8713 13.1074 48.7972 13.1074 50.7205 13.1074C51.7444 13.1074 52.1233 13.5144 52.1259 14.541C52.1259 17.4831 52.1259 20.4236 52.1259 23.3624C52.1259 24.4196 51.7188 24.8292 50.6642 24.8343C48.7647 24.8445 46.8644 24.8445 44.9633 24.8343C43.9214 24.8343 43.5195 24.4068 43.5144 23.3444C43.5118 21.8879 43.5169 20.4313 43.5169 18.9721ZM49.7349 22.4766V15.506H45.9258V22.4766H49.7349Z" fill="white"/>
<path id="Vector_4" d="M47.8902 26.7388C48.8527 26.7388 49.8152 26.7388 50.7752 26.7388C51.6225 26.7388 52.1268 27.2073 52.1191 27.9215C52.1115 28.6357 51.6072 29.0709 50.7522 29.0734C48.8049 29.0837 46.856 29.0837 44.9054 29.0734C44.0427 29.0734 43.5333 28.6331 43.5179 27.9343C43.5025 27.2354 44.0299 26.7439 44.9284 26.7337C45.9216 26.7311 46.9098 26.7388 47.8902 26.7388Z" fill="white"/>
<path id="Vector_5" d="M25.4744 67.1902C28.2903 67.1902 31.0908 67.1902 33.899 67.1902C34.2446 67.1902 34.708 67.2414 34.9051 67.459C35.1611 67.7457 35.4171 68.2986 35.2993 68.5981C35.2006 68.8087 35.0583 68.9958 34.8817 69.1472C34.7052 69.2986 34.4985 69.4107 34.2754 69.4762C33.6303 69.6221 32.9314 69.5222 32.2556 69.5222H17.4261C17.2162 69.5222 17.0089 69.5222 16.8015 69.5222C15.9644 69.4915 15.4601 69.0256 15.4832 68.3088C15.5062 67.5921 15.9952 67.1902 16.8015 67.1851C19.0901 67.1851 21.3812 67.1851 23.6697 67.1851L25.4744 67.1902Z" fill="white"/>
<path id="Vector_6" d="M25.3625 50.6483H17.0096C16.0061 50.6483 15.4941 50.249 15.4941 49.4913C15.4941 48.7335 16.0317 48.3086 17.007 48.3086C22.6234 48.3086 28.2407 48.3086 33.8588 48.3086C35.0492 48.3086 35.7045 49.1303 35.2514 50.0109C34.9724 50.5511 34.4962 50.656 33.9382 50.6535C31.0788 50.6432 28.2168 50.6483 25.3625 50.6483Z" fill="white"/>
<path id="Vector_7" d="M25.469 60.911C28.2849 60.911 31.0854 60.911 33.8936 60.911C34.8331 60.911 35.3579 61.3154 35.3835 62.0271C35.4091 62.7387 34.8484 63.2482 33.8987 63.2507C28.2567 63.2507 22.6147 63.2507 16.9727 63.2507C16.3891 63.2507 15.8156 63.1381 15.6211 62.5493C15.5085 62.2037 15.5315 61.6354 15.7491 61.4025C16.0831 61.1 16.517 60.9314 16.9676 60.9289C19.8014 60.8931 22.6352 60.911 25.469 60.911Z" fill="white"/>
<path id="Vector_8" d="M25.3906 56.9456C22.66 56.9456 19.9295 56.9456 17.1989 56.9456C16.9148 56.9456 16.5436 57.0199 16.3644 56.8714C16.0163 56.5898 15.5632 56.1828 15.5529 55.8167C15.5427 55.4507 15.9548 54.9873 16.3004 54.716C16.518 54.5419 16.9481 54.6084 17.2834 54.6084C22.7189 54.6084 28.1527 54.6084 33.5848 54.6084C34.7905 54.6084 35.3562 54.9694 35.3767 55.7476C35.3972 56.5258 34.8136 56.9507 33.572 56.9507L25.3906 56.9456Z" fill="white"/>
<path id="Vector_9" d="M47.797 63.0099C46.8114 63.0099 45.8233 63.0099 44.8377 63.0099C44.0262 62.9971 43.5399 62.562 43.5219 61.8836C43.504 61.2052 44.0058 60.6881 44.8531 60.6804C46.8268 60.66 48.8004 60.6625 50.7767 60.6804C51.6368 60.6804 52.1257 61.1489 52.1232 61.8631C52.1206 62.5773 51.6317 63.0023 50.7588 63.0151C49.7732 63.0202 48.7851 63.0099 47.797 63.0099Z" fill="white"/>
<path id="Vector_10" d="M47.8252 67.1903C48.8134 67.1903 49.8015 67.1903 50.787 67.1903C51.6318 67.1903 52.1361 67.6588 52.1233 68.3756C52.1233 69.0539 51.6113 69.5198 50.8254 69.525C48.8253 69.5403 46.8243 69.5403 44.8225 69.525C44.034 69.525 43.5425 69.0488 43.5221 68.373C43.5016 67.6972 44.034 67.2006 44.8634 67.1903C45.8413 67.1801 46.8371 67.1903 47.8252 67.1903Z" fill="white"/>
<path id="Vector_11" d="M9.86523 19.2435C10.1212 13.7372 14.0404 9.62857 19.3087 9.10891C19.5638 9.08336 19.8203 9.07395 20.0766 9.08076C20.8241 9.1038 21.3054 9.53386 21.3387 10.1866C21.372 10.8804 20.9061 11.3872 20.1278 11.4128C18.2383 11.4308 16.4166 12.1193 14.9876 13.3558C14.121 14.0872 13.4244 14.9989 12.9464 16.0273C12.4685 17.0557 12.2207 18.1761 12.2203 19.3101C12.2299 19.5951 12.2136 19.8804 12.1717 20.1625C12.1407 20.4372 12.0038 20.689 11.7902 20.8644C11.5765 21.0398 11.3029 21.1251 11.0274 21.102C10.7497 21.116 10.4777 21.0198 10.2706 20.8342C10.0635 20.6487 9.93807 20.3889 9.92155 20.1113C9.88487 19.8235 9.86607 19.5337 9.86523 19.2435Z" fill="white"/>
</g>
</g>
</svg>
