<svg width="80" height="80" viewBox="0 0 80 80" fill="none" xmlns="http://www.w3.org/2000/svg">
<g id="Capa 25">
<g id="Capa 1">
<path id="Vector" d="M40.471 0C41.1636 0.510992 41.2034 1.23774 41.1864 2.0099C41.1864 2.67987 40.999 3.54288 41.334 3.96303C41.669 4.38318 42.5376 4.17878 43.1792 4.24124C50.3018 4.87964 57.0723 7.62736 62.6253 12.1332C63.335 12.701 63.4883 13.3823 63.0568 13.9444C62.6253 14.5065 61.9213 14.5462 61.1434 13.9444C56.9505 10.5218 51.9806 8.18207 46.671 7.13118C44.9166 6.78484 43.1281 6.62019 41.2545 6.35334V9.14676C49.2373 9.5953 56.1527 12.5534 61.8077 18.2311C67.4627 23.9088 70.4151 30.7731 70.8353 38.7616C71.0453 38.7616 71.2214 38.8241 71.403 38.8297C72.073 38.8297 72.7486 38.8297 73.5889 38.8297C73.4073 37.2513 73.3051 35.7524 73.0212 34.2876C72.0162 28.3034 69.3908 22.709 65.4301 18.1118C64.7545 17.3283 64.7147 16.7094 65.2711 16.1928C65.8275 15.6761 66.5316 15.8067 67.105 16.471C69.5033 19.2205 71.4608 22.3252 72.9076 25.6745C74.6221 29.5625 75.6038 33.7336 75.8033 37.9781C75.8033 38.6424 76.0133 38.9149 76.7117 38.8411C77.3357 38.8042 77.9613 38.8042 78.5853 38.8411C79.4597 38.8411 79.9707 39.2726 79.9877 39.9766C80.0047 40.6807 79.4824 41.1633 78.574 41.186C77.6655 41.2087 76.8707 41.186 75.9168 41.186C75.826 42.1285 75.7578 43.0256 75.6556 43.917C74.839 51.5446 71.5918 58.7077 66.3932 64.3489C61.1947 69.9901 54.3202 73.8106 46.7846 75.2465C45.1684 75.5241 43.5384 75.7136 41.9017 75.8142C41.334 75.8653 41.0842 76.047 41.175 76.6148C41.1807 76.6942 41.1807 76.7739 41.175 76.8532C41.175 79.448 40.9252 80.1634 39.9884 79.9703C38.0409 79.5672 39.1026 77.915 38.8528 76.8135C38.8209 76.5096 38.8209 76.2033 38.8528 75.8994C29.3938 75.4395 21.2804 72.0102 14.6318 65.3502C7.9832 58.6903 4.55387 50.5939 4.12237 41.1746C3.28775 41.1746 2.53261 41.1746 1.78884 41.1746C1.45595 41.2209 1.11673 41.1792 0.804953 41.0537C0.493171 40.9282 0.21969 40.7233 0.0117188 40.4592L0.0117188 39.5224C0.20901 39.2661 0.470226 39.0661 0.769179 38.9425C1.06813 38.8189 1.39431 38.7761 1.71503 38.8184C2.48719 38.8638 3.26504 38.8184 4.10534 38.8184C4.14508 38.4493 4.16779 38.1427 4.20753 37.8418C4.40625 36.201 4.55387 34.5374 4.84344 32.9306C6.36076 25.3343 10.297 18.4336 16.0633 13.261C21.8295 8.08835 29.1157 4.92195 36.8316 4.23556C37.4845 4.17878 38.3929 4.31505 38.6711 3.97439C38.9493 3.63372 38.8358 2.69123 38.8244 2.02126C38.8244 1.24909 38.8244 0.51667 39.5341 0.0113554L40.471 0ZM11.6112 41.1746C11.6112 41.697 11.5772 42.1114 11.6112 42.5146C12.1227 48.1506 14.2964 53.5078 17.8567 57.9068C18.4529 58.6506 18.4245 59.383 17.8567 59.8259C17.2889 60.2687 16.6246 60.1097 16.0398 59.3943C13.1128 55.8251 11.0545 51.625 10.0272 47.1249C9.59566 45.2115 9.37424 43.247 9.04493 41.2598H6.52971C7.09748 60.3368 23.5628 73.5602 38.8301 73.4069C38.8301 72.7596 38.8301 72.1124 38.8301 71.4651C38.8585 70.9712 38.6938 70.8008 38.1772 70.7724C34.1592 70.6061 30.2242 69.5758 26.6401 67.7519C24.4655 66.6164 22.467 65.1345 20.3946 63.7775C20.2755 63.7199 20.169 63.6394 20.0811 63.5405C19.9932 63.4417 19.9257 63.3264 19.8824 63.2014C19.8392 63.0764 19.821 62.944 19.829 62.812C19.837 62.68 19.871 62.5508 19.9291 62.4319C20.1603 62.0478 20.5336 61.7704 20.9681 61.6597C21.375 61.6838 21.7598 61.8531 22.0525 62.1367C25.5611 64.9893 29.7055 66.9544 34.1347 67.8655C35.6449 68.1777 37.1893 68.3254 38.8188 68.5638C38.8188 67.6043 38.8188 66.8605 38.8188 66.1054C38.8043 65.8197 38.8272 65.5334 38.8869 65.2537C38.9389 64.9977 39.0835 64.7699 39.293 64.6138C39.5025 64.4577 39.7622 64.3844 40.0224 64.4078C40.1699 64.406 40.3163 64.4345 40.4523 64.4915C40.5884 64.5486 40.7113 64.6329 40.8135 64.7394C40.9157 64.8458 40.9949 64.972 41.0464 65.1103C41.0978 65.2486 41.1203 65.396 41.1125 65.5433C41.1466 66.4971 41.1125 67.451 41.1125 68.3821C47.1082 68.4219 55.4941 65.5433 61.3933 58.7301C65.6824 53.8526 68.1624 47.6477 68.4166 41.1576C67.3662 41.1576 66.4521 41.1973 65.5437 41.1576C65.368 41.163 65.1934 41.1275 65.0337 41.0539C64.8741 40.9804 64.7337 40.8707 64.6236 40.7337C64.5135 40.5966 64.4368 40.4359 64.3994 40.2641C64.362 40.0924 64.365 39.9143 64.4081 39.7439C64.4721 39.4607 64.6385 39.2112 64.8754 39.0435C65.1124 38.8758 65.403 38.8016 65.6913 38.8354C66.5884 38.8354 67.4854 38.8354 68.3825 38.8354C67.9794 23.4489 54.6425 11.6677 41.2318 11.6393C41.2318 11.6847 41.175 11.7301 41.175 11.7755C41.175 12.3717 41.175 12.9679 41.175 13.5697C41.175 13.882 41.175 14.1942 41.175 14.5065C41.175 14.8077 41.0554 15.0965 40.8424 15.3095C40.6295 15.5224 40.3406 15.642 40.0395 15.642C39.7383 15.642 39.4495 15.5224 39.2365 15.3095C39.0236 15.0965 38.9039 14.8077 38.9039 14.5065C38.8585 13.5583 38.9039 12.5988 38.9039 11.5314C31.0233 12.0083 24.4485 15.0061 19.1626 20.6952C14.5224 25.6352 11.8313 32.0906 11.5885 38.8638C12.5424 38.8638 13.3713 38.8638 14.2003 38.8638C15.1201 38.8638 15.6594 39.301 15.6651 39.9993C15.6708 40.6977 15.1314 41.1349 14.223 41.186C13.3146 41.2371 12.5026 41.1746 11.6112 41.1746ZM38.8301 6.5407C20.3946 6.98924 6.60352 22.7108 6.58081 38.7559H9.17552C9.62973 30.722 12.5821 23.835 18.2598 18.1913C23.9375 12.5477 30.7791 9.61233 38.7677 9.15812C38.7677 8.91398 38.8244 8.71526 38.8301 8.51654C38.8358 7.86928 38.8301 7.22203 38.8301 6.52367V6.5407ZM70.8353 41.2428C70.3811 49.2426 67.4286 56.1297 61.8021 61.7733C56.1755 67.4169 49.2373 70.4034 41.2545 70.8235V73.4693C60.2066 72.9016 73.4754 56.6691 73.4129 41.2257L70.8353 41.2428Z" fill="white"/>
<path id="Vector_2" d="M49.8519 40.0674C49.8374 41.5112 49.5055 42.9341 48.8798 44.2354C48.2541 45.5366 47.3498 46.6842 46.2311 47.597C45.1124 48.5098 43.8066 49.1653 42.4063 49.5171C41.006 49.869 39.5454 49.9085 38.1281 49.6329C36.7108 49.3573 35.3715 48.7734 34.205 47.9224C33.0386 47.0715 32.0736 45.9744 31.3784 44.709C30.6832 43.4435 30.2749 42.0406 30.1823 40.5997C30.0898 39.1589 30.3153 37.7153 30.8429 36.3713C30.8884 36.2539 30.9395 36.1347 30.9962 36.0136C31.3596 35.2471 31.9785 34.9518 32.6201 35.2414C33.2616 35.531 33.432 36.1158 33.1878 36.8993C32.969 37.482 32.7926 38.0797 32.6598 38.6878C32.3875 40.2345 32.6085 41.8277 33.2913 43.242C33.9741 44.6563 35.0843 45.8202 36.4648 46.5689C37.8454 47.3177 39.4264 47.6135 40.9842 47.4145C42.5421 47.2155 43.998 46.5318 45.1459 45.46C46.2939 44.3882 47.0759 42.9827 47.3812 41.4421C47.6866 39.9016 47.4999 38.304 46.8476 36.8754C46.1953 35.4467 45.1103 34.2594 43.7461 33.4811C42.382 32.7029 40.8077 32.3733 39.2459 32.5388C38.3525 32.6933 37.4799 32.9505 36.6455 33.3053C35.7825 33.6289 35.158 33.5324 34.8344 32.8852C34.5107 32.2379 34.7776 31.6247 35.6008 31.1819C42.0564 27.8207 49.8859 32.7035 49.8519 40.0674Z" fill="white"/>
<path id="Vector_3" d="M28.5637 28.5475C28.5637 29.8079 28.5637 30.9491 28.5637 32.0903C28.5637 33.8731 27.5871 34.8383 25.81 34.844C25.2423 34.844 24.6177 34.844 24.0159 34.844C23.6956 34.8656 23.3743 34.8219 23.0715 34.7155C22.7687 34.609 22.4907 34.4422 22.2544 34.225C22.0181 34.0078 21.8284 33.7448 21.6969 33.452C21.5654 33.1592 21.4947 32.8428 21.4893 32.5218C21.4325 30.0009 21.4041 27.4744 21.4893 24.9535C21.5087 24.0133 21.9005 23.1192 22.5786 22.4677C23.2567 21.8162 24.1658 21.4605 25.106 21.4787C27.5247 21.422 29.9434 21.439 32.3621 21.4787C32.6957 21.468 33.0278 21.5267 33.3375 21.6512C33.6472 21.7758 33.9276 21.9633 34.1609 22.2019C34.3942 22.4406 34.5754 22.7252 34.6928 23.0376C34.8103 23.35 34.8615 23.6834 34.8432 24.0167C34.8432 24.6412 34.8432 25.2658 34.8432 25.8903C34.8432 27.5595 33.8496 28.5418 32.1634 28.5588C31.0108 28.5588 29.8412 28.5475 28.5637 28.5475ZM26.2188 32.4537V28.7064C26.2188 26.2083 26.2188 26.2083 28.7454 26.2083H32.4586V23.8123C29.9604 23.8123 27.519 23.8123 25.0776 23.8123C24.2714 23.8463 23.8569 24.4141 23.8115 25.3282C23.8115 26.4183 23.8115 27.5141 23.8115 28.6042V32.4537H26.2188Z" fill="white"/>
<path id="Vector_4" d="M51.445 28.5474H47.9305C46.1023 28.5474 45.1541 27.5822 45.1484 25.7427C45.1484 25.1465 45.1484 24.5503 45.1484 23.9485C45.1354 23.6281 45.1873 23.3083 45.3011 23.0085C45.4148 22.7086 45.5879 22.4348 45.8102 22.2036C46.0324 21.9724 46.299 21.7884 46.5942 21.6629C46.8893 21.5374 47.2067 21.4728 47.5274 21.473C49.9972 21.4219 52.4727 21.4049 54.9084 21.473C55.3807 21.4723 55.8485 21.5652 56.2847 21.7465C56.7209 21.9277 57.1168 22.1937 57.4495 22.529C57.7821 22.8644 58.045 23.2623 58.2228 23.6999C58.4006 24.1375 58.4899 24.606 58.4853 25.0784C58.5535 27.5198 58.5364 29.9669 58.4853 32.414C58.4905 32.7413 58.4282 33.0661 58.3024 33.3683C58.1766 33.6705 57.9898 33.9436 57.7539 34.1705C57.5179 34.3974 57.2378 34.5732 56.9309 34.6872C56.624 34.8011 56.297 34.8506 55.9701 34.8326C55.2964 34.8326 54.6207 34.8326 53.9432 34.8326C53.6157 34.8403 53.29 34.7818 52.9856 34.6607C52.6813 34.5396 52.4044 34.3584 52.1717 34.1278C51.939 33.8972 51.7553 33.622 51.6314 33.3188C51.5075 33.0155 51.446 32.6904 51.4507 32.3629C51.4166 31.1251 51.445 29.8987 51.445 28.5474ZM47.5388 23.7952V26.2082H48.4188C49.7758 26.2082 51.1271 26.2082 52.4783 26.2082C52.655 26.1802 52.8357 26.1943 53.0058 26.2494C53.176 26.3044 53.3307 26.3989 53.4574 26.525C53.5842 26.6512 53.6793 26.8055 53.7351 26.9754C53.7909 27.1453 53.8058 27.326 53.7785 27.5027C53.7785 28.854 53.7785 30.2053 53.7785 31.5623V32.431H56.1802C56.1802 29.9498 56.1802 27.5311 56.1802 25.1181C56.1802 24.2608 55.6124 23.8122 54.6529 23.8009C53.0915 23.8009 51.5302 23.8009 49.9688 23.8009L47.5388 23.7952Z" fill="white"/>
<path id="Vector_5" d="M28.5656 51.4342C29.792 51.4342 30.9332 51.4342 32.0687 51.4342C33.9026 51.4342 34.8508 52.3937 34.8565 54.2276C34.8565 54.7954 34.8565 55.4256 34.8565 56.0217C34.871 56.3426 34.8205 56.6631 34.7078 56.964C34.5952 57.2648 34.4227 57.5397 34.201 57.772C33.9792 58.0044 33.7127 58.1895 33.4174 58.3161C33.1222 58.4426 32.8044 58.5081 32.4832 58.5086C29.985 58.5597 27.4868 58.5881 24.9943 58.5086C24.5219 58.5012 24.0556 58.4002 23.6225 58.2114C23.1894 58.0226 22.7981 57.7497 22.4712 57.4085C22.1443 57.0674 21.8884 56.6648 21.7182 56.224C21.548 55.7832 21.467 55.3131 21.4798 54.8408C21.4231 52.4505 21.4401 50.0545 21.4798 47.6642C21.4661 47.3236 21.5245 46.984 21.6512 46.6676C21.7779 46.3512 21.9701 46.0651 22.2151 45.8282C22.4601 45.5913 22.7524 45.4088 23.0728 45.2927C23.3933 45.1766 23.7346 45.1295 24.0745 45.1546C24.6991 45.1546 25.3236 45.1546 25.9482 45.1546C26.2909 45.1312 26.6347 45.1803 26.9572 45.2986C27.2797 45.4168 27.5737 45.6017 27.8201 45.8411C28.0665 46.0805 28.2597 46.3691 28.3871 46.688C28.5146 47.007 28.5735 47.3493 28.5599 47.6926C28.5826 48.9076 28.5656 50.0999 28.5656 51.4342ZM32.4662 56.2091V53.779H27.924C26.533 53.779 26.2207 53.4781 26.2207 52.0757V47.5336H23.8588C23.8588 47.7493 23.802 47.9481 23.802 48.1524C23.802 50.2589 23.802 52.3653 23.802 54.4717C23.802 55.6981 24.2903 56.175 25.5053 56.175C27.5095 56.175 29.5138 56.175 31.518 56.175L32.4662 56.2091Z" fill="white"/>
<path id="Vector_6" d="M51.4466 51.4342C51.4466 50.1624 51.4466 49.0212 51.4466 47.8799C51.4466 46.1028 52.4288 45.149 54.2116 45.1433C54.8078 45.1433 55.4096 45.1433 56.0058 45.1433C56.3265 45.1232 56.648 45.1687 56.9506 45.2769C57.2532 45.3851 57.5306 45.5537 57.7659 45.7726C58.0012 45.9914 58.1895 46.2559 58.3193 46.5499C58.4492 46.8438 58.5178 47.1611 58.521 47.4825C58.5778 49.9807 58.6005 52.4789 58.521 54.9714C58.5173 55.4438 58.42 55.9107 58.2346 56.3452C58.0492 56.7797 57.7794 57.1731 57.4409 57.5026C57.1024 57.8321 56.7019 58.0912 56.2626 58.2649C55.8233 58.4385 55.3539 58.5233 54.8816 58.5143C52.4629 58.571 50.0442 58.554 47.6255 58.5143C47.292 58.5228 46.9604 58.4618 46.6519 58.3352C46.3433 58.2085 46.0645 58.019 45.8332 57.7786C45.6019 57.5382 45.4232 57.2523 45.3085 56.9391C45.1938 56.6259 45.1457 56.2922 45.1671 55.9593C45.1671 55.3064 45.1671 54.6591 45.1671 54.0062C45.1485 53.6667 45.2012 53.3271 45.3218 53.0092C45.4424 52.6914 45.6282 52.4023 45.8673 52.1606C46.1063 51.9188 46.3934 51.7298 46.7099 51.6057C47.0264 51.4816 47.3653 51.4251 47.705 51.4398C48.9087 51.4171 50.1294 51.4342 51.4466 51.4342ZM53.7858 47.5109C53.7858 48.6464 53.7858 49.7138 53.7858 50.7756C53.8199 53.8415 53.8937 53.8245 50.822 53.7791C49.7376 53.7791 48.6475 53.7791 47.5347 53.7791V56.141C47.8015 56.141 48.0286 56.1864 48.2614 56.1864C50.3167 56.1864 52.372 56.1864 54.4274 56.1864C55.7332 56.1864 56.1931 55.7095 56.1931 54.3752C56.1931 52.3199 56.1931 50.2646 56.1931 48.2092C56.1931 47.9821 56.1931 47.755 56.1477 47.5109H53.7858Z" fill="white"/>
<path id="Vector_7" d="M41.1813 41.1689C41.1813 41.7821 41.1813 42.3045 41.1813 42.8098C41.1813 43.775 40.7157 44.3314 39.9833 44.3144C39.2509 44.2973 38.8478 43.7466 38.8478 42.8439C38.8478 42.3272 38.8478 41.8105 38.8478 41.1746C38.2175 41.1746 37.6554 41.1746 37.0934 41.1746C36.202 41.1405 35.6569 40.6579 35.691 39.9482C35.725 39.2385 36.2587 38.8524 37.1161 38.8411C37.6838 38.8411 38.2005 38.8411 38.8534 38.8411C38.8534 38.1995 38.8534 37.6374 38.8534 37.0753C38.8534 36.2123 39.3077 35.6956 39.989 35.6786C40.6703 35.6616 41.1586 36.2066 41.187 37.1037C41.187 37.5977 41.187 38.0916 41.187 38.5856C41.187 38.6367 41.2267 38.6821 41.3005 38.8411C41.8342 38.8411 42.4361 38.8411 43.0038 38.8411C43.165 38.8255 43.3277 38.8429 43.4819 38.8923C43.6361 38.9416 43.7787 39.0219 43.9009 39.1281C44.0231 39.2344 44.1223 39.3644 44.1926 39.5103C44.2629 39.6562 44.3027 39.8148 44.3097 39.9766C44.307 40.1402 44.271 40.3015 44.2039 40.4507C44.1368 40.5999 44.04 40.7339 43.9194 40.8444C43.7987 40.9549 43.6569 41.0397 43.5024 41.0935C43.3479 41.1474 43.1841 41.1692 43.0209 41.1576C42.4758 41.1916 41.9024 41.1689 41.1813 41.1689Z" fill="white"/>
</g>
</g>
</svg>
