<svg width="80" height="80" viewBox="0 0 80 80" fill="none" xmlns="http://www.w3.org/2000/svg">
<g id="Capa 26">
<g id="Capa 1">
<path id="Vector" d="M0.0136719 35.9495V22.0533C0.723239 20.2823 2.06858 19.6408 3.90778 19.7827C4.51517 19.8338 5.13391 19.7827 5.79239 19.7827C5.79239 16.32 5.79239 12.9709 5.79239 9.62173C5.79239 7.48735 6.86525 6.41449 8.99396 6.40881H12.2012C12.2012 5.34162 12.2466 4.38229 12.2012 3.42863C12.099 1.72567 12.7689 0.59036 14.3923 0.0227062H54.8377C55.3202 0.437093 55.7743 0.86851 55.4791 1.60078C55.1839 2.33306 54.5879 2.40118 53.9408 2.37279H15.8285C15.598 2.32676 15.3608 2.32676 15.1303 2.37279C14.9032 2.492 14.5626 2.73609 14.5626 2.94045C14.5059 4.07575 14.5626 5.21106 14.5626 6.42584H57.886C60.3155 6.42584 61.2919 7.4022 61.2919 9.83176V37.9874L63.8463 35.3762C63.5376 34.9965 63.3763 34.5182 63.3919 34.0291C63.4076 33.5401 63.5992 33.073 63.9315 32.7139C64.2534 32.411 64.5585 32.0908 64.8454 31.7546C65.1196 31.4049 65.2924 30.9866 65.3449 30.5454C65.3847 26.7478 65.3449 22.9446 65.3449 19.147C65.3449 13.8621 65.3449 8.57725 65.3449 3.29239C65.3449 2.5885 65.1292 2.3217 64.4026 2.35009C63.0232 2.40118 61.6438 2.35009 60.2645 2.35009C59.5889 2.35009 58.9816 2.25359 58.7431 1.53834C58.5047 0.823098 58.9021 0.346269 59.4924 0H65.5834C67.1955 0.658478 67.7121 1.87893 67.7007 3.5819C67.6496 11.9605 67.7007 20.3447 67.7007 28.729C67.7007 30.0005 67.7007 30.0005 69.0177 30.5398C69.5853 29.9721 70.153 29.3477 70.7206 28.7687C70.9775 28.4886 71.2898 28.2649 71.6376 28.1119C71.9855 27.9589 72.3614 27.8799 72.7415 27.8799C73.1215 27.8799 73.4974 27.9589 73.8453 28.1119C74.1932 28.2649 74.5055 28.4886 74.7623 28.7687C76.2117 30.1954 77.6479 31.6316 79.0708 33.0772C79.3585 33.3349 79.5886 33.6503 79.7461 34.0029C79.9036 34.3555 79.985 34.7374 79.985 35.1236C79.985 35.5098 79.9036 35.8916 79.7461 36.2442C79.5886 36.5968 79.3585 36.9123 79.0708 37.17C78.5032 37.766 77.8674 38.3053 77.2941 38.8729C78.1399 40.5759 78.0377 41.1436 76.7264 42.4094L75.733 43.4028C74.4444 44.6914 73.8995 44.7879 72.259 43.9705C70.9363 45.3045 69.6137 46.6668 68.2513 47.9895C68.0576 48.1729 67.9065 48.3965 67.8084 48.6446C67.7103 48.8927 67.6678 49.1593 67.6837 49.4256C67.6837 56.3737 67.6837 63.3237 67.6837 70.2755C67.6837 72.5462 66.6506 73.5793 64.4026 73.5793C61.8539 73.5793 59.2938 73.5793 56.7507 73.5793C56.3051 73.6024 55.8806 73.7766 55.5472 74.0731C53.8443 75.6966 52.2151 77.3599 50.5632 79.0231C50.2703 79.3384 49.9141 79.5883 49.5179 79.7565C49.1218 79.9248 48.6946 80.0076 48.2642 79.9995C44.8243 79.9995 41.39 79.9995 37.9557 79.9995C36.9736 79.9995 36.423 79.5794 36.4116 78.8641C36.4003 78.1489 36.9793 77.6777 37.9273 77.6777H47.9747V70.0087C47.9747 67.7381 48.9965 66.705 51.2444 66.6993H58.8623V57.3614C58.0392 58.2129 57.3354 58.9054 56.6712 59.632C55.987 60.3904 55.0778 60.9096 54.077 61.1136C52.7374 61.4145 51.4147 61.8289 50.1034 62.1297C48.4345 62.4987 46.76 63.0493 45.0797 63.089C39.5337 63.2082 33.9878 63.1345 28.4475 63.1345H27.4824C27.4824 63.7362 27.4824 64.23 27.4824 64.7239C27.4484 66.7107 26.2279 67.9198 24.2411 67.9311C22.7312 67.9311 21.2212 67.9311 19.6999 67.9311C19.3242 67.9514 18.9637 68.0861 18.6668 68.3171C17.2136 69.4979 15.7831 70.7126 14.364 71.9388C13.643 72.5632 12.8654 72.9095 11.9458 72.4724C11.0262 72.0353 10.7707 71.2122 10.8104 70.2642C10.8104 69.4922 10.8104 68.7258 10.8104 67.9936H8.13112V76.3154C8.13112 77.655 8.13112 77.655 9.43673 77.655H31.5355C31.7941 77.6296 32.0546 77.6296 32.3132 77.655C32.571 77.713 32.8013 77.8571 32.9664 78.0634C33.1315 78.2697 33.2214 78.5261 33.2214 78.7903C33.2214 79.0546 33.1315 79.311 32.9664 79.5173C32.8013 79.7236 32.571 79.8677 32.3132 79.9257C32.1057 79.9486 31.8963 79.9486 31.6888 79.9257H8.89745C6.90499 79.9257 5.79239 78.8244 5.79239 76.849C5.79239 74.1413 5.79239 71.4335 5.79239 68.7258V67.8744C5.04309 67.8744 4.41299 67.8346 3.79425 67.8744C1.9664 68.0106 0.666474 67.3067 0.0136719 65.5527V51.7246C0.711886 50.0217 2.00046 49.3121 3.82263 49.454C4.4584 49.5164 5.10553 49.454 5.74698 49.454V38.2769C5.06011 38.2769 4.41867 38.2372 3.77722 38.2769C1.94937 38.4075 0.660797 37.7036 0.0136719 35.9495ZM13.1151 69.9293C14.6194 68.6577 15.9988 67.5224 17.3441 66.3474C17.9023 65.8333 18.6407 65.56 19.3991 65.5867C20.909 65.6208 22.419 65.5867 23.9403 65.5867C24.9677 65.5867 25.121 65.4391 25.121 64.423C25.121 60.6387 25.121 56.8392 25.121 53.0245C25.121 51.8892 25.0245 51.8211 23.9176 51.8211C21.4426 51.8211 18.9676 51.8211 16.4927 51.8211C15.8626 51.8211 15.2779 51.7133 15.0281 51.0321C14.7273 50.1976 15.3006 49.4881 16.311 49.4824C18.9601 49.4824 21.6091 49.4824 24.2582 49.4824C26.2166 49.4824 27.403 50.6858 27.4427 52.6499C27.4427 53.2175 27.4427 53.7852 27.4427 54.3528H38.9661C39.2004 54.3358 39.4356 54.3358 39.67 54.3528C39.9551 54.3757 40.221 54.5054 40.4147 54.7159C40.6083 54.9263 40.7154 55.2021 40.7145 55.4882C40.7252 55.7778 40.6207 56.06 40.4239 56.2727C40.2271 56.4855 39.9539 56.6116 39.6643 56.6235C39.4319 56.6405 39.1985 56.6405 38.9661 56.6235H27.4938V60.597C27.602 60.6242 27.712 60.6431 27.823 60.6538C33.3917 60.6538 38.9604 60.6538 44.5348 60.6538C44.9889 60.6538 45.1024 60.4267 45.1705 60.0862C45.7382 57.8155 46.3058 55.6017 46.8735 53.3651C46.9739 52.8559 47.1895 52.3763 47.5036 51.963C48.8149 50.5552 50.1772 49.1872 51.5623 47.8532C51.6949 47.7234 51.8582 47.6292 52.0369 47.5793C52.2157 47.5294 52.4042 47.5256 52.5848 47.5681C52.7655 47.6105 52.9325 47.698 53.0703 47.8223C53.2081 47.9465 53.3123 48.1036 53.3731 48.279C53.4997 48.5388 53.5327 48.8343 53.4665 49.1157C53.4003 49.397 53.239 49.6468 53.0098 49.823C52.0108 50.805 51.0174 51.8041 50.0353 52.7804L51.5169 54.2904L67.0536 38.7651L65.4755 37.1643C65.335 37.4016 65.1736 37.6257 64.993 37.8341C62.4196 40.4188 59.8444 42.996 57.2672 45.5656C56.5861 46.2411 55.8708 46.3092 55.3599 45.7699C54.849 45.2307 54.9228 44.6346 55.5983 43.9251C56.569 42.943 57.5681 41.9894 58.5047 40.9846C58.7575 40.7066 58.9059 40.3495 58.9248 39.9742C58.9248 29.8756 58.9248 19.7771 58.9248 9.6785C58.9248 9.00867 58.7148 8.77025 58.0279 8.77025C41.6795 8.77025 25.3329 8.77025 8.98828 8.77025C8.30142 8.77025 8.09139 9.00867 8.09139 9.68417C8.11977 12.8574 8.09139 16.0362 8.09139 19.2094C8.09139 19.3854 8.09139 19.5613 8.1368 19.7771H13.7509C13.7509 18.4828 13.7509 17.2396 13.7509 15.9908C13.7509 14.8839 14.1483 14.4865 15.2665 14.4865C27.4181 14.4865 39.5735 14.4865 51.7326 14.4865C52.8679 14.4865 53.2199 14.8896 53.2199 16.0078C53.2199 18.2785 53.2199 20.5491 53.2199 22.8197C53.2199 24.4091 52.936 24.6873 51.3636 24.6873H27.5165V28.7744H51.4545C51.7135 28.7602 51.9731 28.7602 52.2321 28.7744C52.4968 28.7852 52.7479 28.894 52.9368 29.0797C53.1256 29.2654 53.2387 29.5147 53.2539 29.7791C53.304 30.0396 53.2525 30.3094 53.11 30.5332C52.9675 30.757 52.7448 30.9177 52.4876 30.9825C52.1354 31.0719 51.7721 31.1101 51.409 31.0961H27.4541C27.4541 32.4811 27.4541 33.7754 27.4541 35.0696C27.4257 37.0621 26.2052 38.2712 24.2184 38.2882C22.7369 38.2882 21.2496 38.2599 19.768 38.2882C19.3422 38.3124 18.9332 38.4626 18.593 38.7197C17.1568 39.855 15.7547 41.0754 14.3526 42.2845C13.6317 42.9146 12.854 43.2609 11.9287 42.8522C11.0035 42.4435 10.7537 41.5977 10.7934 40.6497C10.7934 39.8777 10.7934 39.1113 10.7934 38.3791H8.18789V49.4994C9.06775 49.4994 9.89085 49.4994 10.7196 49.4994C10.9856 49.4915 11.2442 49.587 11.4412 49.766C11.6381 49.9449 11.7579 50.1932 11.7755 50.4587C11.8382 50.7055 11.8081 50.9667 11.6909 51.1928C11.5737 51.4188 11.3775 51.5939 11.1397 51.6849C10.8204 51.7944 10.4837 51.8445 10.1463 51.8325C7.90974 51.8325 5.6675 51.8325 3.43095 51.8325C2.46594 51.8325 2.35808 51.946 2.35808 52.9167V64.3946C2.35808 65.4902 2.46026 65.5981 3.56151 65.5981C6.0081 65.5981 8.45468 65.5981 10.9013 65.5981C12.3431 65.5981 13.1094 66.4098 13.1151 67.8346V69.9293ZM13.1151 40.2637C14.6364 38.9751 16.0158 37.8284 17.3668 36.6591C17.9068 36.1621 18.6202 35.8971 19.3536 35.9211C20.8863 35.9552 22.419 35.9211 23.9573 35.9211C24.9677 35.9211 25.0926 35.7679 25.0926 34.7347V23.3022C25.0926 22.3088 24.9677 22.1669 23.9573 22.1669H3.45933C2.45458 22.1669 2.35808 22.2747 2.35808 23.3022V34.7631C2.35808 35.8076 2.48297 35.9325 3.49339 35.9325C5.93998 35.9325 8.38657 35.9325 10.8332 35.9325C12.3204 35.9325 13.1038 36.7215 13.1038 38.2031L13.1151 40.2637ZM16.1861 19.8281H24.3149C24.9267 19.7846 25.5358 19.9432 26.0486 20.2796C26.5614 20.616 26.9495 21.1116 27.1532 21.6901C27.3746 22.2577 27.6811 22.3372 28.1863 22.3372C35.4674 22.3372 42.7504 22.3372 50.0353 22.3372H50.8698V16.8707H16.1861V19.8281ZM58.5161 71.0532L58.6069 71.2633H64.2834C65.3506 71.2633 65.3677 71.2633 65.3677 70.1677C65.3677 64.0862 65.3677 58.0029 65.3677 51.9176C65.3677 51.6735 65.3393 51.4238 65.3109 50.9299C64.0393 52.2298 62.8984 53.3481 61.8198 54.5288C61.5277 54.8588 61.3522 55.2757 61.3203 55.7152C61.2787 59.405 61.2787 63.0966 61.3203 66.7901C61.3508 67.2835 61.2691 67.7773 61.0813 68.2345C60.8935 68.6917 60.6045 69.1003 60.2361 69.4297C59.6173 69.9463 59.0781 70.4969 58.5161 71.0362V71.0532ZM55.008 57.8496L70.556 42.3072L68.9666 40.7235L53.4469 56.1864L55.008 57.8496ZM75.2902 40.5305L67.468 32.6969L65.941 34.0365L73.8371 41.9326L75.2902 40.5305ZM57.0175 69.0664C54.9909 69.0664 52.919 69.0664 50.8471 69.0664C50.7267 69.1028 50.6176 69.1694 50.5302 69.2598C50.4428 69.3502 50.3799 69.4615 50.3475 69.583C50.3135 71.6493 50.3475 73.7155 50.3475 75.7364L57.0175 69.0664ZM75.75 37.3289C76.2666 36.7613 76.8286 36.1936 77.4076 35.5862C77.7141 35.2683 77.646 35.0186 77.3622 34.7177L73.241 30.5625C73.1889 30.4864 73.119 30.4241 73.0374 30.3811C72.9558 30.3381 72.8649 30.3156 72.7727 30.3156C72.6805 30.3156 72.5896 30.3381 72.508 30.3811C72.4264 30.4241 72.3565 30.4864 72.3044 30.5625C71.7367 31.1301 71.135 31.6978 70.6014 32.1746L75.75 37.3289ZM48.866 55.21C48.4402 56.8789 48.0145 58.5592 47.5604 60.3586L52.7033 59.0644L48.866 55.21Z" fill="white"/>
<path id="Vector_2" d="M33.4587 42.6421H48.0474C48.3539 42.6421 48.7513 42.5854 48.9499 42.75C49.2622 42.9998 49.6368 43.4255 49.6198 43.7661C49.53 44.1987 49.2807 44.5817 48.9216 44.839C48.616 44.9774 48.277 45.0247 47.9452 44.9752H18.9211C18.8189 44.9752 18.7167 44.9752 18.6145 44.9752C17.7347 44.9355 17.1784 44.4473 17.2124 43.7377C17.2465 43.0282 17.7801 42.6365 18.6372 42.6365L33.4587 42.6421Z" fill="white"/>
<path id="Vector_3" d="M13.7239 60.0691C12.0209 60.0691 10.3179 60.0691 8.58091 60.0691C7.6386 60.0691 7.01986 59.2573 7.4456 58.5194C7.56821 58.3193 7.7336 58.1489 7.92989 58.0203C8.12619 57.8917 8.34851 57.8082 8.58091 57.7757C12.0322 57.719 15.4893 57.7303 18.9463 57.7757C19.1028 57.7632 19.2603 57.7832 19.4087 57.8346C19.5571 57.886 19.6932 57.9677 19.8084 58.0744C19.9237 58.1811 20.0155 58.3105 20.0782 58.4545C20.1408 58.5985 20.1729 58.754 20.1724 58.911C20.1732 59.0746 20.1396 59.2366 20.0739 59.3864C20.0081 59.5362 19.9117 59.6706 19.7908 59.7808C19.6699 59.891 19.5272 59.9746 19.3719 60.0262C19.2167 60.0778 19.0523 60.0963 18.8895 60.0804C17.1525 60.0861 15.4382 60.0691 13.7239 60.0691Z" fill="white"/>
<path id="Vector_4" d="M13.7222 30.415H9.12424C8.89172 30.4293 8.65854 30.4293 8.42602 30.415C8.27641 30.4098 8.12928 30.3752 7.99311 30.313C7.85694 30.2508 7.73442 30.1623 7.63259 30.0525C7.53077 29.9428 7.45165 29.814 7.3998 29.6736C7.34794 29.5331 7.32438 29.3838 7.33045 29.2342C7.32042 29.0826 7.34291 28.9305 7.39641 28.7882C7.44992 28.6459 7.5332 28.5167 7.6407 28.4092C7.74819 28.3017 7.87741 28.2184 8.0197 28.1649C8.16199 28.1114 8.31407 28.0889 8.46576 28.0989C11.9663 28.0762 15.4725 28.0762 18.9844 28.0989C19.2855 28.0989 19.5743 28.2186 19.7872 28.4315C20.0001 28.6444 20.1197 28.9331 20.1197 29.2342C20.1203 29.3975 20.0869 29.5592 20.0216 29.7088C19.9562 29.8585 19.8604 29.9929 19.7402 30.1034C19.6201 30.214 19.4782 30.2983 19.3236 30.351C19.169 30.4036 19.0051 30.4235 18.8425 30.4093C17.1395 30.4377 15.4365 30.4093 13.6939 30.4093L13.7222 30.415Z" fill="white"/>
</g>
</g>
</svg>
