<svg width="84" height="80" viewBox="0 0 84 80" fill="none" xmlns="http://www.w3.org/2000/svg">
<g id="Capa 24">
<g id="Capa 1">
<path id="Vector" d="M0.828125 2.33847C1.56474 0.537849 2.9386 0 4.83861 0C15.4845 0.0584619 26.1246 0 36.7705 0.0350771C37.3036 0.0158389 37.8369 0.0709323 38.3548 0.19877C39.7111 0.596311 40.4536 1.73632 40.4594 3.35571C40.4594 6.68219 40.4594 10.0028 40.4594 13.3293V14.1536L46.8435 11.9964C46.8435 9.6579 46.8435 7.2025 46.8435 4.74126C46.8315 4.2065 46.8727 3.67189 46.9662 3.14525C47.1385 2.32115 47.5736 1.57522 48.2061 1.01963C48.8387 0.464034 49.6345 0.128793 50.4739 0.064308C50.6836 0.0413907 50.8944 0.0296816 51.1053 0.0292309C58.4481 0.0292309 65.7929 0.0292309 73.1396 0.0292309C75.3436 0.0292309 76.9104 1.26862 77.3196 3.28556C77.389 3.65358 77.4203 4.02775 77.4132 4.40218C77.4132 11.669 77.4132 18.93 77.4132 26.1968C77.4586 26.9908 77.2778 27.7815 76.8918 28.4769C76.5058 29.1723 75.9305 29.7439 75.2325 30.1254C75.127 30.1991 75.0406 30.297 74.9806 30.4109C74.9206 30.5248 74.8887 30.6514 74.8876 30.7802C76.1957 36.9948 75.0027 43.4745 71.567 48.8157C71.567 48.8157 71.567 48.8683 71.567 48.9735C71.8067 48.9735 72.0581 49.0144 72.3094 49.0144H79.7049C81.9498 49.0144 83.1717 50.2597 83.1717 52.5221C83.1717 60.5158 83.1717 68.5056 83.1717 76.4915C83.1717 78.754 81.9732 79.9524 79.664 79.9583H47.0539C44.7155 79.9583 43.5462 78.7891 43.5462 76.4506C43.5462 74.5973 43.5462 72.7499 43.5462 70.8967C43.5462 69.9145 43.9554 69.4059 44.7155 69.3884C45.4755 69.3708 45.949 69.897 45.9548 70.9142C45.9548 72.7675 45.9548 74.6149 45.9548 76.4623C45.9548 77.4035 46.101 77.5555 47.0188 77.5555H79.6756C80.3713 77.5555 80.7806 77.386 80.7747 76.5675C80.7747 70.8032 80.7747 65.0388 80.7747 59.2745C80.7747 59.1459 80.7747 59.0231 80.7455 58.8126H79.9212C72.9058 58.8126 65.9254 58.8126 58.9334 58.8477C57.7232 58.8477 56.5189 59.2686 55.3087 59.4791C52.4491 59.9685 49.5236 59.9249 46.6798 59.3505C46.4434 59.3173 46.2052 59.2997 45.9665 59.2979V63.7234C45.9665 64.0684 45.9665 64.4191 45.9665 64.7641C45.9139 65.6117 45.4755 66.0853 44.7622 66.0853C44.049 66.0853 43.593 65.6117 43.593 64.7641C43.593 63.0803 43.5228 61.385 43.593 59.7013C43.6398 58.7717 43.3358 58.3859 42.4647 58.0409C40.9037 57.4563 39.4305 56.5911 37.8345 55.8018C36.1216 57.5089 34.3268 59.3096 32.5378 61.1102C32.4923 61.2082 32.4688 61.3149 32.4688 61.423C32.4688 61.531 32.4923 61.6377 32.5378 61.7357C32.7735 62.296 32.8286 62.9158 32.6955 63.5089C32.5624 64.1019 32.2478 64.6388 31.7954 65.0447C27.5218 69.3007 23.2716 73.586 18.9922 77.8303C18.0872 78.8352 16.8936 79.5358 15.5749 79.8362C14.2563 80.1365 12.877 80.022 11.626 79.5081C10.3662 79.0866 9.26593 78.289 8.47355 77.2227C7.68117 76.1565 7.2348 74.8729 7.19462 73.545C7.09979 72.6171 7.21387 71.6798 7.52848 70.8017C7.84309 69.9236 8.35026 69.1271 9.01279 68.4705C13.3974 64.0274 17.8093 59.6058 22.2486 55.2055C22.6436 54.8172 23.1447 54.5544 23.6888 54.4504C24.2329 54.3464 24.7957 54.4057 25.3061 54.6209C25.4398 54.6633 25.5811 54.6763 25.7203 54.6592C25.8596 54.642 25.9934 54.5951 26.1129 54.5215C27.8667 52.8086 29.6206 51.0606 31.4212 49.26C27.8366 43.8902 26.5249 37.3192 27.7732 30.9848H26.8495C22.8566 30.9848 18.8636 30.9848 14.8648 30.9848C14.5197 30.9987 14.1749 30.9492 13.8476 30.8386C13.6036 30.7497 13.4005 30.5746 13.2767 30.3463C13.1528 30.118 13.1168 29.8523 13.1753 29.5992C13.1939 29.3422 13.3036 29.1003 13.4847 28.917C13.6659 28.7337 13.9065 28.6212 14.1633 28.5995C14.4045 28.5789 14.647 28.5789 14.8882 28.5995C19.0682 28.5995 23.2483 28.5995 27.4341 28.5995C27.7253 28.6528 28.0258 28.5896 28.2708 28.4233C28.5158 28.2571 28.6856 28.0012 28.7437 27.7109C29.2289 26.3254 29.9129 25.01 30.5384 23.5251C30.0532 23.5251 29.568 23.5251 29.0827 23.5251C28.2117 23.5251 27.6797 23.0164 27.6972 22.2974C27.7147 21.5783 28.2175 21.1281 29.0594 21.1281C29.9012 21.1281 30.8132 21.1281 31.7135 21.1281C32.0619 21.0857 32.3886 20.9367 32.6489 20.7013C34.3151 19.193 35.9462 17.6555 37.5889 16.1238C37.7526 15.9718 38.0216 15.7847 38.0216 15.6035C38.0566 13.7152 38.0216 11.821 38.0216 9.88005H3.27768C3.27768 10.1782 3.2426 10.4647 3.2426 10.7044V27.2783C3.2426 28.4475 3.35952 28.5469 4.5463 28.5469C5.86169 28.5469 7.17124 28.5469 8.48663 28.5469C9.38694 28.5469 9.88972 28.9854 9.89556 29.7162C9.90141 30.4469 9.37525 30.9263 8.50417 30.938C6.97247 30.938 5.44661 30.938 3.92076 30.938C2.3949 30.938 1.41274 29.9676 0.828125 28.5703V2.33847ZM46.8435 14.7149C37.852 16.2232 28.0947 25.6297 29.9714 38.9239C30.395 41.8172 31.4019 44.5944 32.9309 47.087C34.4599 49.5796 36.4792 51.7357 38.8663 53.4246C41.2535 55.1135 43.9588 56.3 46.8181 56.9122C49.6775 57.5244 52.6315 57.5495 55.5008 56.986C58.3702 56.4225 61.0953 55.2822 63.5108 53.6341C65.9263 51.986 67.982 49.8645 69.5531 47.3983C71.1243 44.932 72.1782 42.1724 72.651 39.2867C73.1238 36.401 73.0056 33.4493 72.3036 30.6106H68.5328C68.6088 30.9322 68.6614 31.1952 68.7257 31.4408C69.7531 35.5494 69.292 39.8891 67.4242 43.6901C65.5563 47.4911 62.4026 50.5077 58.5223 52.2047C54.642 53.9017 50.2861 54.1694 46.2272 52.9605C42.1683 51.7515 38.6688 49.1439 36.3496 45.6003C34.9965 43.5641 34.0954 41.2616 33.7071 38.8479C33.6581 38.3604 33.803 37.8731 34.1105 37.4916C34.2728 37.3621 34.4666 37.2781 34.6721 37.2483C34.8776 37.2185 35.0873 37.2439 35.2797 37.3221C35.6777 37.6399 35.9526 38.0864 36.0572 38.5848C37.4545 45.7113 43.5696 51.0606 50.6026 51.2594C58.2026 51.4757 64.5983 46.7403 66.3873 39.4734C67.1228 36.5426 66.9681 33.459 65.943 30.6165C65.6974 30.8503 65.4986 31.0257 65.3174 31.2011L59.7986 36.7141C58.8925 37.6144 58.0448 37.8482 57.1327 37.4331C56.1097 36.9713 55.8232 36.106 55.8407 35.0596C55.8407 33.5922 55.8407 32.1365 55.8407 30.5931C55.5134 30.5931 55.2561 30.5522 54.9872 30.5522C53.6484 30.5522 52.3096 30.5522 50.9709 30.5522C50.4189 30.5713 49.869 30.4759 49.3558 30.272C48.8425 30.0681 48.3771 29.7601 47.9888 29.3674C47.6004 28.9747 47.2977 28.5058 47.0996 27.9903C46.9014 27.4748 46.8123 26.9238 46.8376 26.3721C46.8376 24.8171 46.8376 23.262 46.8376 21.6952C46.8376 21.473 46.8025 21.2509 46.7616 20.7423C45.2735 21.4575 43.8236 22.2497 42.4179 23.1158C39.1897 25.3166 36.9541 28.6963 36.1917 32.5282C35.952 33.6331 35.4142 34.0891 34.6015 33.8962C33.7889 33.7033 33.4849 33.066 33.8415 32.0137C34.3637 30.1984 35.0566 28.4367 35.9111 26.7521C38.1458 22.7719 41.8632 19.8363 46.253 18.585C46.481 18.5149 46.8376 18.2635 46.8376 18.0881C46.8727 16.9539 46.8435 15.849 46.8435 14.7149ZM58.2611 34.8491C60.3949 32.7211 62.3534 30.7568 64.2826 28.81C64.4898 28.5848 64.7435 28.4074 65.0263 28.2903C65.309 28.1731 65.6138 28.1191 65.9196 28.1318C68.258 28.1318 70.6374 28.1318 72.9993 28.1318C74.4433 28.1318 74.9812 27.5472 74.9812 26.1266V4.42556C74.9812 2.99325 74.4316 2.44371 72.9759 2.44371H51.2632C49.8133 2.44371 49.2638 3.02832 49.2638 4.43141C49.2638 11.669 49.2638 18.9066 49.2638 26.1441C49.2638 27.5823 49.8133 28.1318 51.2632 28.1377C52.9235 28.1377 54.5897 28.1377 56.25 28.1377C58.0038 28.1377 58.2611 28.3832 58.2611 30.1137C58.2669 31.6045 58.2611 33.1011 58.2611 34.8491ZM13.6313 77.5263C14.2984 77.5673 14.9667 77.4649 15.5909 77.2259C16.2152 76.9869 16.7809 76.6169 17.2501 76.1407C21.4554 71.9315 25.6608 67.73 29.8661 63.5364C30.3338 63.0745 30.3689 62.7647 29.8661 62.2911C28.1941 60.6659 26.563 59.0056 24.9144 57.3569C24.1953 56.6437 24.1836 56.6437 23.4529 57.3569L11.1759 69.6339C10.9713 69.8444 10.755 70.049 10.5913 70.277C10.0301 70.919 9.67446 71.7145 9.57024 72.5608C9.46602 73.4071 9.61803 74.2652 10.0066 75.0241C10.3094 75.7434 10.8114 76.3611 11.4536 76.8044C12.0958 77.2477 12.8514 77.4982 13.6313 77.5263ZM38.0508 7.30773C38.0508 6.1385 38.0508 4.96926 38.0508 3.80002C38.0508 2.46124 38.0099 2.41447 36.6419 2.41447H4.65738C4.39239 2.37847 4.12309 2.39035 3.8623 2.44955C3.6226 2.54894 3.27768 2.80032 3.27768 2.99325C3.23091 4.42556 3.27768 5.85788 3.27768 7.2785L38.0508 7.30773ZM80.7747 56.3631C80.7747 55.0243 80.7747 53.744 80.7747 52.4637C80.7747 51.692 80.4532 51.4231 79.7166 51.4231C76.5304 51.4231 73.3442 51.4231 70.1581 51.4231C69.8054 51.4623 69.474 51.6116 69.211 51.8498C67.6091 53.1828 66.0365 54.5449 64.4522 55.8954C64.3002 56.0182 64.1423 56.1351 63.8676 56.3397L80.7747 56.3631ZM35.7299 54.3695L32.8068 51.4464C31.1581 53.0892 29.4043 54.8372 27.7674 56.48L30.6904 59.4031L35.7299 54.3695Z" fill="white"/>
<path id="Vector_2" d="M20.6001 16.3693C16.9287 16.3693 13.2573 16.3693 9.58585 16.3693C9.09518 16.3651 8.62385 16.1774 8.26461 15.8431C8.14934 15.6966 8.07323 15.5232 8.04343 15.3392C8.01363 15.1552 8.03113 14.9666 8.09427 14.7912C8.15741 14.6158 8.26412 14.4594 8.40437 14.3366C8.54462 14.2138 8.7138 14.1287 8.896 14.0892C9.20802 14.0159 9.52875 13.9864 9.84893 14.0016H31.9534C32.1192 13.9929 32.2852 14.017 32.4417 14.0726C32.5983 14.1282 32.7423 14.2141 32.8656 14.3254C32.9888 14.4368 33.0889 14.5713 33.1601 14.7214C33.2313 14.8715 33.2722 15.0341 33.2804 15.2C33.2767 15.3677 33.238 15.5328 33.1667 15.6847C33.0955 15.8366 32.9933 15.9719 32.8667 16.082C32.7401 16.192 32.5919 16.2745 32.4316 16.3239C32.2713 16.3734 32.1024 16.3888 31.9358 16.3693C28.1592 16.3693 24.3825 16.3693 20.6001 16.3693Z" fill="white"/>
<path id="Vector_3" d="M63.4128 62.9928H74.1873C74.4534 62.9634 74.722 62.9634 74.9882 62.9928C75.2537 63.0525 75.491 63.2008 75.661 63.4133C75.831 63.6258 75.9236 63.8899 75.9236 64.162C75.9236 64.4341 75.831 64.6982 75.661 64.9107C75.491 65.1232 75.2537 65.2715 74.9882 65.3312C74.7491 65.3547 74.5082 65.3547 74.2691 65.3312H52.4512C52.2933 65.3312 52.1296 65.3312 51.9718 65.3312C51.807 65.3427 51.6415 65.3202 51.4858 65.2651C51.3301 65.2099 51.1873 65.1233 51.0665 65.0106C50.9457 64.8979 50.8493 64.7616 50.7835 64.61C50.7176 64.4585 50.6836 64.2951 50.6836 64.1299C50.6836 63.9646 50.7176 63.8012 50.7835 63.6497C50.8493 63.4981 50.9457 63.3618 51.0665 63.2491C51.1873 63.1364 51.3301 63.0498 51.4858 62.9947C51.6415 62.9395 51.807 62.917 51.9718 62.9285C52.3752 62.9285 52.7785 62.9285 53.1761 62.9285L63.4128 62.9928Z" fill="white"/>
<path id="Vector_4" d="M67.3105 72.4926C64.8434 72.4926 62.3763 72.5277 59.9151 72.4634C59.6814 72.4276 59.4573 72.3449 59.2564 72.2203C59.0555 72.0957 58.8818 71.9318 58.7458 71.7384C58.678 71.5452 58.6564 71.3388 58.6828 71.1357C58.7092 70.9327 58.7829 70.7386 58.8978 70.5692C59.0275 70.4236 59.1858 70.3064 59.3628 70.225C59.5399 70.1435 59.7319 70.0994 59.9268 70.0957C64.8532 70.0645 69.7815 70.0645 74.7118 70.0957C74.88 70.0801 75.0496 70.1012 75.2089 70.1575C75.3682 70.2138 75.5135 70.3039 75.6346 70.4217C75.7557 70.5395 75.8499 70.6821 75.9106 70.8398C75.9713 70.9975 75.9971 71.1664 75.9862 71.335C75.9862 72.0483 75.4893 72.5043 74.6416 72.5043C72.1862 72.4926 69.7484 72.4926 67.3105 72.4926Z" fill="white"/>
<path id="Vector_5" d="M16.6598 23.4899H9.83145C9.53812 23.5019 9.24432 23.4843 8.95452 23.4373C8.69696 23.3837 8.46499 23.2448 8.29612 23.0431C8.12725 22.8414 8.03134 22.5886 8.0239 22.3256C8.01647 22.0627 8.09794 21.8049 8.25514 21.5939C8.41234 21.383 8.63609 21.2312 8.89022 21.1631C9.20299 21.0948 9.5233 21.0673 9.84314 21.0813C14.4266 21.0813 19.0061 21.0813 23.5817 21.0813C24.8269 21.0813 25.4057 21.4496 25.4291 22.2505C25.4525 23.0515 24.8445 23.4841 23.57 23.4841L16.6598 23.4899Z" fill="white"/>
<path id="Vector_6" d="M53.526 72.4926C52.9882 72.4926 52.4503 72.4926 51.9183 72.4926C51.6028 72.4973 51.2983 72.3764 51.0719 72.1566C50.8455 71.9367 50.7157 71.636 50.7111 71.3205C50.7064 71.0049 50.8273 70.7005 51.0471 70.4741C51.2669 70.2477 51.5677 70.1179 51.8832 70.1132C52.9765 70.0723 54.0755 70.0723 55.1746 70.1132C55.3309 70.1163 55.485 70.1501 55.6281 70.2127C55.7713 70.2753 55.9007 70.3656 56.009 70.4782C56.1173 70.5908 56.2024 70.7237 56.2593 70.8692C56.3163 71.0148 56.344 71.1701 56.3409 71.3263C56.3379 71.4825 56.3041 71.6366 56.2414 71.7798C56.1788 71.923 56.0886 72.0524 55.976 72.1607C55.8633 72.269 55.7304 72.354 55.5849 72.411C55.4394 72.468 55.2841 72.4957 55.1279 72.4926C54.6134 72.4926 54.058 72.4926 53.526 72.4926Z" fill="white"/>
<path id="Vector_7" d="M67.8548 11.9087C67.8312 12.9601 67.513 13.9839 66.9363 14.8634C66.3595 15.743 65.5475 16.443 64.5926 16.8838C64.2452 17.0208 63.9425 17.2511 63.7176 17.5492C63.4927 17.8473 63.3545 18.2017 63.3181 18.5733C63.3201 18.7428 63.2851 18.9107 63.2157 19.0653C63.1463 19.2199 63.0441 19.3576 62.9162 19.4689C62.7883 19.5801 62.6377 19.6622 62.475 19.7094C62.3122 19.7567 62.1411 19.768 61.9735 19.7426C61.2778 19.6607 60.8978 19.1579 60.9563 18.2752C60.9971 17.5195 61.2488 16.7904 61.6827 16.1704C62.1167 15.5505 62.7156 15.0645 63.4117 14.7674C64.1324 14.4691 64.7237 13.9246 65.0802 13.2309C65.4368 12.5371 65.5354 11.7393 65.3584 10.9797C65.1815 10.22 64.7406 9.54791 64.1142 9.08311C63.4878 8.61831 62.7168 8.39106 61.9384 8.44187C61.1839 8.47604 60.4648 8.77192 59.9047 9.27868C59.3446 9.78544 58.9785 10.4714 58.8692 11.2188C58.8692 11.3533 58.8692 11.4877 58.8224 11.6164C58.7055 12.505 58.2027 13.0019 57.5363 12.9376C56.8698 12.8733 56.367 12.277 56.4313 11.4234C56.4908 10.3012 56.8803 9.22141 57.551 8.31968C58.2218 7.41795 59.1439 6.73437 60.2017 6.35472C61.2595 5.97507 62.4058 5.91624 63.4969 6.18563C64.588 6.45501 65.5752 7.04061 66.3348 7.86895C67.3346 8.97452 67.8778 10.4182 67.8548 11.9087Z" fill="white"/>
<path id="Vector_8" d="M60.9277 22.9814C60.9277 21.9115 61.4364 21.3035 62.2607 21.4029C62.9388 21.4847 63.313 21.9875 63.3422 22.8527C63.3422 23.8524 63.0441 24.4078 62.3542 24.5364C61.4948 24.7001 60.9336 24.0804 60.9277 22.9814Z" fill="white"/>
</g>
</g>
</svg>
