<svg width="80" height="80" viewBox="0 0 80 80" fill="none" xmlns="http://www.w3.org/2000/svg">
<g id="Capa 2">
<g id="Capa 1">
<path id="Vector" d="M25.9322 0C26.5744 0.301489 26.7613 0.874317 26.8366 1.52553C26.9783 2.65913 27.1231 3.79574 27.3311 4.92029C27.3717 5.06586 27.4416 5.20162 27.5365 5.31929C27.6313 5.43695 27.7492 5.53406 27.8828 5.60467C28.7008 6.00092 29.5402 6.35119 30.3972 6.65385C30.5408 6.69933 30.6921 6.71503 30.8419 6.7C30.9917 6.68497 31.1369 6.63951 31.2685 6.56642C32.2966 5.85491 33.2734 5.07707 34.2834 4.33842C35.013 3.80177 35.4894 3.83192 36.1436 4.47409C37.5505 5.86697 38.9484 7.26788 40.3373 8.67684C40.9554 9.30394 40.9885 9.82551 40.4639 10.5431C39.7404 11.5289 39.0168 12.5178 38.254 13.4735C38.1239 13.6116 38.0449 13.7901 38.0301 13.9792C38.0153 14.1684 38.0656 14.357 38.1726 14.5137C38.5405 15.2594 38.8607 16.0277 39.1313 16.814C39.1689 17.0118 39.2726 17.1909 39.4255 17.3219C39.5784 17.4528 39.7713 17.5278 39.9725 17.5346C42.2156 17.8361 44.4677 18.0803 46.6806 18.5295C49.2032 19.0859 51.5829 20.1597 53.6691 21.6831C54.3656 20.5856 55.6198 20.1756 56.9192 20.6067C57.1755 20.6723 57.399 20.8291 57.5478 21.0479C57.6966 21.2666 57.7604 21.5322 57.7272 21.7946C57.7233 22.0604 57.6199 22.315 57.4373 22.5081C57.2548 22.7013 57.0064 22.8189 56.7413 22.8378C56.3132 22.892 55.879 22.892 55.3605 22.9192C56.1323 23.7452 56.8679 24.4598 57.5282 25.2587C58.2365 26.1571 58.8986 27.0909 59.512 28.0565C60.115 28.961 60.0094 29.7057 59.3341 30.0825C58.6588 30.4594 58.0498 30.17 57.5252 29.2715C55.3794 25.593 52.0047 22.7894 47.9951 21.3544C36.9094 17.2572 24.6599 25.0748 23.7193 36.8419C23.267 42.525 25.085 47.3669 29.0345 51.4671C30.1506 52.6666 31.1898 53.9353 32.1459 55.2659C33.9548 57.7079 34.4703 60.557 34.5125 63.5236C34.5125 63.7588 34.5125 63.994 34.5336 64.2291C34.5448 64.3012 34.5599 64.3727 34.5789 64.4432H37.8561C37.9284 63.3729 38.0671 62.2725 38.0641 61.169C38.0641 58.2566 37.9857 55.3412 37.9525 52.4258C37.9525 51.8621 37.7083 51.6601 37.1445 51.5214C35.978 51.277 34.8402 50.9112 33.7498 50.43C32.8602 50.0072 32.1505 49.281 31.7482 48.382C31.3459 47.4829 31.2774 46.4698 31.5549 45.5248C31.757 44.8152 32.2073 44.2019 32.8239 43.7968C33.4404 43.3917 34.1821 43.2217 34.9135 43.3179C36.5838 43.535 37.9586 44.2917 38.6912 45.8624C39.1413 46.8815 39.5123 47.9338 39.8007 49.01C39.9152 49.411 40.0509 49.5919 40.4579 49.5858C41.3624 49.5858 42.2668 49.5708 43.1864 49.5858C43.6446 49.5858 43.7743 49.3688 43.9069 48.9678C44.2474 47.7733 44.685 46.6087 45.2154 45.4856C45.9782 44.0384 47.3771 43.4053 48.9599 43.2998C51.3024 43.143 52.84 45.4102 52.0954 47.8613C51.8999 48.5277 51.5465 49.1372 51.0652 49.6379C50.5839 50.1386 49.9889 50.5158 49.3307 50.7375C48.3748 51.0686 47.3991 51.3395 46.4093 51.5485C46.0083 51.645 45.8063 51.7505 45.752 52.2239C45.3631 56.2819 45.5259 60.3309 45.8093 64.4402H49.1257C49.1528 64.009 49.2192 63.5508 49.2101 63.0985C49.1347 59.547 50.3708 56.4658 52.5988 53.7705C53.3254 52.8871 54.1063 52.0369 54.8751 51.2018C59.3492 46.4202 60.8898 40.8185 59.5813 34.4179C59.5331 34.1888 59.4698 33.9627 59.4276 33.7336C59.3861 33.5827 59.3753 33.425 59.396 33.2698C59.4167 33.1147 59.4684 32.9653 59.548 32.8306C59.6276 32.6959 59.7335 32.5785 59.8594 32.4855C59.9853 32.3926 60.1286 32.3259 60.2808 32.2894C60.4319 32.243 60.5912 32.2296 60.748 32.2502C60.9048 32.2707 61.0553 32.3247 61.1894 32.4084C61.3234 32.4922 61.438 32.6038 61.5252 32.7357C61.6123 32.8675 61.6702 33.0166 61.6948 33.1728C61.9631 34.629 62.1681 36.0942 62.352 37.5625C62.4244 38.1443 62.2525 38.7353 63.1781 38.8257C63.4554 38.8528 63.8625 39.5161 63.8534 39.8809C63.8444 40.2457 63.4343 40.6407 63.1118 40.9241C62.9278 41.0869 62.5721 41.0507 62.2435 41.111C61.7048 45.277 59.9036 49.1782 57.082 52.2902C57.685 52.7394 58.2397 53.1946 58.8276 53.5866C58.9859 53.6469 59.1608 53.6469 59.319 53.5866C60.4195 53.261 61.1069 52.7515 61.1943 51.3797C61.333 49.1939 61.4747 49.2029 63.6876 49.2029C64.6493 49.2029 65.6141 49.2029 66.5759 49.2029C67.423 49.2029 67.812 49.5496 67.9476 50.3848C68.0531 51.0511 68.1707 51.7204 68.222 52.3927C68.2551 52.8329 68.5235 52.9504 68.843 53.1494C69.85 53.7524 70.6128 53.5866 71.5173 52.8298C73.2176 51.4038 73.2719 51.4701 74.8336 53.0288C75.515 53.7132 76.2024 54.3855 76.8717 55.0789C77.4747 55.703 77.5139 56.1734 77.0134 56.8879C76.6215 57.4396 76.2235 57.9913 75.7893 58.5069C75.515 58.8355 75.5813 59.1099 75.6718 59.4837C75.9582 60.7409 76.736 61.1992 77.948 61.1419C78.2083 61.1553 78.4668 61.1937 78.7198 61.2564C79.6484 61.3951 79.9981 61.772 80.0042 62.6976C80.0042 63.9729 80.0042 65.2482 80.0042 66.5235C80.0042 67.4008 79.6424 67.7957 78.7681 67.9405C78.4128 68.0182 78.0519 68.0666 77.6887 68.0852C76.6667 68.0852 76.0275 68.453 75.7471 69.5263C75.6115 70.0509 75.506 70.4066 75.9009 70.8408C76.3198 71.3395 76.7122 71.8597 77.0767 72.3995C77.176 72.5134 77.2518 72.6459 77.2997 72.7893C77.3475 72.9327 77.3666 73.0842 77.3556 73.2349C77.3447 73.3857 77.304 73.5329 77.236 73.6678C77.1679 73.8028 77.0738 73.923 76.9591 74.0215C75.9984 75.0104 75.0236 75.9872 74.0347 76.952C73.9355 77.0663 73.8148 77.16 73.6793 77.2275C73.5438 77.2951 73.3964 77.3352 73.2454 77.3456C73.0943 77.3559 72.9428 77.3363 72.7994 77.2879C72.6559 77.2395 72.5235 77.1633 72.4097 77.0635C71.864 76.6625 71.3062 76.2796 70.7907 75.8425C70.4289 75.541 70.1395 75.541 69.6842 75.6797C68.5446 75.9992 68.1768 76.6685 68.0532 77.8323C67.8451 80.009 67.7517 80 65.5297 80C64.6252 80 63.7208 80 62.7952 80C61.7762 80 61.4023 79.6533 61.2666 78.6312C61.2053 78.3513 61.166 78.0671 61.1491 77.781C61.1822 76.6957 60.7692 76.0234 59.6416 75.7219C59.1381 75.5832 58.8035 75.5229 58.3995 75.8786C57.9322 76.2917 57.4076 76.6384 56.9101 77.0153C56.3072 77.4765 55.7042 77.4615 55.1585 76.9188C54.1967 75.9661 53.235 75.0104 52.2883 74.0426C52.1671 73.9417 52.0674 73.8176 51.9952 73.6774C51.9229 73.5372 51.8796 73.384 51.8678 73.2268C51.856 73.0695 51.8759 72.9115 51.9264 72.7621C51.9769 72.6128 52.0569 72.4751 52.1617 72.3573C52.4186 71.966 52.7027 71.5932 53.0119 71.2418C53.636 70.6147 53.7415 70.0358 53.3134 69.1946C52.7737 68.1696 52.834 68.1123 51.4532 68.1816C51.4532 68.5525 51.4532 68.9324 51.4532 69.3122C51.4321 72.0467 50.1749 73.8074 47.6152 74.7601C47.3503 74.8814 47.1427 75.1008 47.0364 75.3721C46.2193 77.7027 44.2778 79.1317 41.8478 79.1468C39.4178 79.1618 37.4581 77.7238 36.623 75.4144C36.4935 75.1046 36.2478 74.8578 35.9386 74.727C33.6262 73.8949 32.2152 71.9744 32.1911 69.5112C32.17 67.5606 32.1187 65.6069 32.167 63.6533C32.2574 60.0716 30.961 57.0537 28.5913 54.4398C27.6326 53.3816 26.6316 52.3505 25.7211 51.247C24.1849 49.3469 23.0135 47.1788 22.2661 44.8525H19.5406C18.5156 44.8525 18.1477 44.5238 17.997 43.4988C17.8282 42.3411 17.6473 41.1833 17.5206 40.0196C17.5294 39.8294 17.4706 39.6422 17.3548 39.491C17.239 39.3399 17.0735 39.2345 16.8875 39.1935C16.1556 38.9865 15.4481 38.7015 14.7771 38.3433C14.1289 37.9634 13.6887 38.0659 13.143 38.5272C12.2898 39.2478 11.3673 39.8839 10.4718 40.5562C10.3516 40.6678 10.2098 40.7536 10.0553 40.8085C9.90069 40.8634 9.73654 40.8862 9.57286 40.8755C9.40918 40.8648 9.24941 40.8208 9.10332 40.7462C8.95722 40.6716 8.82789 40.568 8.72321 40.4417C7.28511 39.0096 5.844 37.5775 4.42097 36.1304C3.81799 35.5274 3.81799 35.036 4.32751 34.3215C5.05108 33.3326 5.77767 32.3497 6.53139 31.388C6.66737 31.2566 6.75253 31.0813 6.77184 30.8932C6.79115 30.7051 6.74336 30.5162 6.63691 30.3599C6.28587 29.7808 6.01699 29.1558 5.83797 28.5027C5.63898 27.6314 5.19881 27.2666 4.31243 27.2244C3.42606 27.1822 2.5638 26.9712 1.68345 26.8837C1.01415 26.8144 0.423231 26.6425 -0.00488281 26.0908V18.7466C0.429261 18.2039 1.02319 18.032 1.68948 17.9627C2.59395 17.8692 3.49841 17.6612 4.40288 17.613C5.22594 17.5647 5.62391 17.221 5.81988 16.407C6.00996 15.7358 6.2845 15.0915 6.63691 14.4895C6.74379 14.3326 6.79154 14.1429 6.77167 13.9541C6.7518 13.7653 6.66558 13.5897 6.52837 13.4585C5.77465 12.4967 5.04807 11.5138 4.32751 10.528C3.79086 9.79536 3.82704 9.32203 4.46619 8.6678C5.85907 7.26085 7.25697 5.86194 8.6599 4.47108C9.30508 3.83493 9.78445 3.80177 10.5171 4.33842C11.524 5.07707 12.5039 5.84586 13.532 6.56944C13.6503 6.64319 13.7828 6.69147 13.9209 6.7112C14.0589 6.73092 14.1996 6.72166 14.3339 6.684C15.2384 6.36442 16.1248 5.99058 16.993 5.5896C17.1121 5.53211 17.2179 5.45039 17.3035 5.34967C17.3892 5.24895 17.4529 5.13146 17.4905 5.00471C17.6865 3.90428 17.8493 2.7948 17.9699 1.68834C18.0422 1.01903 18.208 0.428114 18.7628 0.00301489L25.9322 0ZM21.443 42.4677C21.4219 40.4598 21.2501 38.5272 21.4219 36.6278C21.5938 34.7285 22.1123 32.8683 22.4801 30.9749C22.4198 30.9749 22.245 30.9508 22.0671 30.9418C19.7956 30.8315 17.6434 29.892 16.0181 28.3012C14.3929 26.7104 13.4075 24.5788 13.2486 22.3102C13.1732 21.1313 13.5229 20.5253 14.3128 20.4741C15.1027 20.4228 15.5188 20.9866 15.5972 22.1654C15.6612 23.0963 15.9132 24.0046 16.3379 24.8354C16.7627 25.6662 17.3513 26.4023 18.0684 26.9994C18.7855 27.5964 19.6161 28.042 20.5101 28.3092C21.4041 28.5763 22.343 28.6596 23.27 28.554C23.6114 28.5018 23.9182 28.3164 24.1232 28.0384C25.4218 25.8927 27.0801 23.9866 29.0255 22.4036C29.2513 22.2075 29.3937 21.9325 29.4234 21.6348C29.55 17.5828 25.6307 14.1458 21.6118 14.7729C20.6561 14.9003 19.7367 15.223 18.911 15.7209C18.0853 16.2188 17.3708 16.8813 16.8121 17.6672C16.2845 18.3908 15.5007 18.5235 14.9489 18.0079C14.3972 17.4924 14.4244 16.9346 14.9912 16.199C17.3277 13.163 20.418 11.8455 24.1805 12.5389C27.8406 13.2112 30.2344 15.4754 31.4163 19.0119C31.573 19.4912 31.6635 19.9887 31.769 20.4078L37.2802 18.2672C36.7405 17.0914 36.2401 15.8915 35.6461 14.7458C35.2874 14.0524 35.2994 13.5007 35.7848 12.8856C36.5898 11.8726 37.3435 10.8204 38.046 9.87074L34.9467 6.77746C33.9729 7.51008 32.9418 8.25777 31.9318 9.04767C31.3288 9.53005 30.7681 9.52704 30.0656 9.19239C28.8295 8.58941 27.5512 8.09195 26.2638 7.61862C25.5704 7.36537 25.1996 6.98549 25.1121 6.23478C24.9795 4.94743 24.7594 3.66912 24.5755 2.41191H20.2371C20.0501 3.70228 19.8361 4.92934 19.7064 6.16846C19.622 6.98248 19.221 7.38948 18.4643 7.65479C17.2138 8.08255 15.9906 8.58596 14.8012 9.16224C14.0445 9.54211 13.4626 9.53307 12.8054 9.00546C11.8195 8.21255 10.7884 7.47692 9.91108 6.81967L6.79972 9.90993C7.51424 10.8536 8.26193 11.8907 9.04882 12.8917C9.53422 13.4946 9.51613 14.0584 9.18449 14.7549C8.60769 15.9723 8.0925 17.218 7.64087 18.4873C7.38159 19.2048 7.01377 19.6209 6.22387 19.7083C4.93651 19.85 3.66122 20.0731 2.38592 20.263V24.5924C3.66725 24.7793 4.91843 24.9994 6.17865 25.1321C7.00171 25.2195 7.3846 25.6386 7.64991 26.3923C8.0581 27.6222 8.55174 28.822 9.12721 29.983C9.54628 30.8031 9.50708 31.4151 8.94028 32.1115C8.15641 33.0703 7.43284 34.0833 6.74243 35.0209L9.82063 38.1082C10.8065 37.3665 11.8406 36.6248 12.8355 35.8319C13.4686 35.3254 14.0415 35.3134 14.765 35.6721C15.952 36.249 17.1734 36.7525 18.4221 37.1796C19.212 37.4539 19.6281 37.864 19.7125 38.7141C19.8391 39.9714 20.0652 41.2165 20.2461 42.4586L21.443 42.4677ZM74.5683 72.9904C74.1101 72.3874 73.691 71.7844 73.2388 71.2146C73.0433 70.9871 72.9248 70.7035 72.9005 70.4046C72.8761 70.1056 72.947 69.8066 73.1031 69.5504C73.4906 68.7594 73.828 67.9448 74.1131 67.1114C74.3332 66.4692 74.6919 66.1044 75.3763 66.029C76.118 65.9476 76.8536 65.815 77.5862 65.7034V63.4724C76.8174 63.3578 76.0999 63.2222 75.3763 63.1468C74.6527 63.0714 74.3362 62.7006 74.1131 62.0644C73.8261 61.2317 73.4888 60.4172 73.1031 59.6254C72.9459 59.3701 72.8743 59.0714 72.8987 58.7726C72.9231 58.4738 73.0422 58.1906 73.2388 57.9642C73.7 57.3763 74.1432 56.7582 74.5683 56.1794L73.0247 54.5845C72.4242 55.0939 71.784 55.5546 71.1102 55.9623C70.6612 56.1705 70.1532 56.2143 69.6752 56.0859C68.7707 55.8146 67.9084 55.3533 67.01 55.0187C66.7583 54.9526 66.5325 54.8118 66.3624 54.6148C66.1923 54.4178 66.0859 54.1739 66.0573 53.9152C65.9518 53.1464 65.8251 52.3836 65.7046 51.5907H63.4856C63.368 52.3716 63.2384 53.0982 63.1449 53.8549C63.1223 54.1272 63.016 54.3858 62.8405 54.5952C62.6651 54.8047 62.4292 54.9547 62.1651 55.0247C61.2877 55.3412 60.4255 55.706 59.5783 56.098C59.329 56.239 59.042 56.2994 58.757 56.2708C58.472 56.2422 58.2028 56.126 57.9864 55.9382C57.3985 55.4769 56.7805 55.0337 56.2921 54.681L54.6037 56.1643C55.0891 56.8155 55.5082 57.4064 55.9635 57.9732C56.4187 58.54 56.3765 59.0315 56.078 59.6375C55.7008 60.4059 55.3725 61.1973 55.0952 62.0072C54.8691 62.6644 54.5254 63.0714 53.7927 63.1468C53.0601 63.2222 52.3215 63.3699 51.619 63.4845V65.6974C52.3999 65.815 53.1264 65.9506 53.838 66.029C54.5495 66.1074 54.866 66.4993 55.0831 67.1294C55.3747 67.9613 55.714 68.7756 56.0991 69.5685C56.2473 69.8144 56.3153 70.1004 56.2936 70.3867C56.272 70.673 56.1619 70.9455 55.9785 71.1664C55.5203 71.7694 55.0741 72.3723 54.661 72.9361L56.1685 74.5883C56.7956 74.121 57.3744 73.7019 57.9533 73.2467C58.5321 72.7914 59.0507 72.8065 59.6838 73.123C60.4509 73.5023 61.2426 73.8297 62.0535 74.1029C62.6836 74.323 63.0756 74.6576 63.1509 75.3541C63.2293 76.0987 63.371 76.8344 63.4856 77.5941H65.7015C65.8221 76.8102 65.9548 76.0686 66.0422 75.3239C66.1176 74.6667 66.4794 74.335 67.0884 74.118C67.9214 73.8305 68.7359 73.4922 69.5274 73.1049C69.793 72.9396 70.1053 72.8651 70.4169 72.8929C70.7286 72.9206 71.0227 73.049 71.255 73.2587C71.8187 73.7109 72.4127 74.127 73.0187 74.5822L74.5683 72.9904ZM49.0986 66.9305H34.5457C34.5457 67.9073 34.5095 68.8148 34.5457 69.7192C34.5654 70.4979 34.8897 71.2378 35.4489 71.7801C36.008 72.3224 36.7576 72.6237 37.5365 72.6196C40.3946 72.6577 43.2527 72.6577 46.1108 72.6196C46.5027 72.6228 46.8914 72.5479 47.2541 72.3993C47.6167 72.2507 47.9462 72.0314 48.2232 71.7541C48.5002 71.4768 48.7192 71.1471 48.8674 70.7843C49.0156 70.4215 49.0901 70.0328 49.0865 69.6408C49.1227 68.7394 49.0986 67.8621 49.0986 66.9305ZM43.2889 64.4794V52.0279H40.3705V64.4794H43.2889ZM37.2591 49.2783L37.4701 49.0733C37.1687 48.3347 36.9003 47.587 36.5657 46.8634C36.231 46.1398 35.5647 45.8323 34.8231 45.6876C34.6973 45.6469 34.5636 45.6374 34.4333 45.6598C34.3031 45.6823 34.1802 45.7359 34.0752 45.8163C33.9703 45.8966 33.8864 46.0012 33.8308 46.1211C33.7751 46.241 33.7494 46.3726 33.7558 46.5046C33.7077 46.8982 33.7902 47.2967 33.9907 47.6387C34.1911 47.9808 34.4984 48.2476 34.8653 48.398C35.6281 48.7386 36.4541 48.9738 37.2531 49.2632L37.2591 49.2783ZM46.1802 49.0854L46.4093 49.2783C47.1974 49.0421 47.9698 48.7562 48.7217 48.4221C49.1789 48.1877 49.5418 47.8035 49.7498 47.3337C49.8274 47.1001 49.8554 46.8529 49.832 46.6079C49.8087 46.3629 49.7344 46.1254 49.6141 45.9107C49.4664 45.6906 48.7368 45.7027 48.3599 45.8444C47.8805 46.0218 47.4698 46.3469 47.1871 46.7729C46.7972 47.5146 46.4588 48.2822 46.1741 49.0703L46.1802 49.0854ZM44.5672 75.0315H39.0952C39.3311 75.5591 39.7147 76.0071 40.1996 76.3215C40.6846 76.6359 41.2502 76.8032 41.8282 76.8032C42.4061 76.8032 42.9717 76.6359 43.4567 76.3215C43.9416 76.0071 44.3252 75.5591 44.5612 75.0315H44.5672ZM51.5858 61.0394C53.0601 60.967 53.1656 60.9459 53.5847 59.2304C53.6872 58.8174 53.1837 58.2566 52.9576 57.7652L52.623 57.8104C52.2793 58.8415 51.9416 59.8998 51.5798 61.0243L51.5858 61.0394Z" fill="white"/>
<path id="Vector_2" d="M66.8383 22.9132C66.4741 22.9031 66.1108 22.8729 65.7499 22.8227C65.4888 22.7919 65.2489 22.6642 65.0774 22.4649C64.906 22.2656 64.8157 22.0092 64.8243 21.7464C64.8032 21.1435 65.0896 20.6731 65.6685 20.6159C66.4115 20.5131 67.1668 20.5427 67.8995 20.7033C68.2432 20.7937 68.614 21.3907 68.6683 21.8007C68.7527 22.4037 68.2945 22.8016 67.6915 22.9102C67.4078 22.9381 67.1221 22.9391 66.8383 22.9132Z" fill="white"/>
<path id="Vector_3" d="M9.62423 45.4103C9.57593 45.6225 9.4846 45.8226 9.35591 45.9982C8.87738 46.473 8.35892 46.9057 7.80625 47.2916C7.58985 47.446 7.32105 47.5082 7.05881 47.4647C6.79656 47.4212 6.56228 47.2755 6.40735 47.0594C6.01541 46.5951 5.91291 46.0344 6.35308 45.5731C6.81263 45.0797 7.33341 44.647 7.90273 44.2857C8.6655 43.8154 9.62122 44.4124 9.62423 45.4103Z" fill="white"/>
<path id="Vector_4" d="M76.6482 28.6414C76.2834 28.9881 75.991 29.4373 75.5809 29.6152C75.4583 29.6648 75.3268 29.6891 75.1945 29.6867C75.0622 29.6843 74.9318 29.6552 74.811 29.6011C74.6902 29.547 74.5816 29.4692 74.4917 29.3721C74.4017 29.2751 74.3323 29.1608 74.2875 29.0363C73.9793 28.4659 73.7751 27.8452 73.6846 27.2033C73.6989 26.9715 73.7629 26.7455 73.8721 26.5406C73.9813 26.3356 74.1333 26.1565 74.3177 26.0154C74.4247 25.9372 74.5472 25.8827 74.6769 25.8554C74.8066 25.8282 74.9406 25.8288 75.0701 25.8573C75.1996 25.8858 75.3215 25.9416 75.4277 26.0208C75.534 26.1 75.6222 26.201 75.6865 26.3169C76.0532 27.0718 76.3744 27.848 76.6482 28.6414Z" fill="white"/>
<path id="Vector_5" d="M67.9775 38.5635C68.7614 38.5635 69.2558 38.9313 69.3463 39.5463C69.3904 39.8464 69.314 40.1518 69.1338 40.3958C68.9537 40.6398 68.6843 40.8026 68.3845 40.8488C67.7986 40.9637 67.2028 41.0203 66.6057 41.0176C66.4551 41.0193 66.3057 40.9906 66.1664 40.9332C66.0272 40.8759 65.9009 40.7911 65.7951 40.6839C65.6893 40.5767 65.6062 40.4493 65.5507 40.3093C65.4952 40.1693 65.4685 40.0195 65.4721 39.8689C65.4573 39.578 65.5585 39.293 65.7535 39.0766C65.9485 38.8601 66.2214 38.7298 66.5123 38.7142C67.0278 38.6479 67.5373 38.6087 67.9775 38.5635Z" fill="white"/>
<path id="Vector_6" d="M4.84925 53.7464C5.48238 53.7916 5.84718 54.2047 5.99189 54.8559C6.1758 55.691 6.95063 56.5472 5.95873 57.3432C5.8218 57.4438 5.66399 57.5123 5.497 57.5437C5.33 57.5751 5.15807 57.5686 4.99394 57.5246C4.82981 57.4806 4.67767 57.4003 4.54877 57.2895C4.41988 57.1788 4.31753 57.0405 4.24929 56.8849C3.99003 56.3175 3.78803 55.7257 3.64631 55.1182C3.61532 54.9456 3.6236 54.7683 3.67054 54.5994C3.71748 54.4305 3.80187 54.2744 3.91745 54.1426C4.03303 54.0108 4.17681 53.9067 4.33813 53.8382C4.49945 53.7696 4.67415 53.7382 4.84925 53.7464Z" fill="white"/>
<path id="Vector_7" d="M13.3205 63.011C12.9701 63.0118 12.6202 62.9836 12.2744 62.9266C12.1314 62.907 11.9936 62.8593 11.8691 62.7864C11.7445 62.7135 11.6356 62.6167 11.5485 62.5016C11.4614 62.3865 11.3978 62.2553 11.3615 62.1156C11.3252 61.9759 11.3168 61.8304 11.3367 61.6875C11.3385 61.543 11.3696 61.4003 11.428 61.2682C11.4864 61.136 11.571 61.017 11.6767 60.9184C11.7823 60.8198 11.9068 60.7436 12.0427 60.6944C12.1786 60.6453 12.323 60.6241 12.4673 60.6323C12.9618 60.6172 13.4562 60.6323 13.9476 60.6684C14.7466 60.7227 15.2078 61.178 15.1958 61.8744C15.1837 62.5708 14.7225 62.9929 13.9054 63.014C13.7245 63.011 13.5406 63.011 13.3205 63.011Z" fill="white"/>
<path id="Vector_8" d="M61.2481 22.8619C60.9888 22.8619 60.7265 22.883 60.4702 22.8619C59.7557 22.7925 59.3397 22.3674 59.3457 21.7162C59.3333 21.5722 59.3505 21.4272 59.3962 21.29C59.4419 21.1529 59.5151 21.0265 59.6113 20.9187C59.7076 20.8108 59.8249 20.7238 59.956 20.6629C60.0871 20.602 60.2293 20.5685 60.3738 20.5645C60.9684 20.5088 61.567 20.5088 62.1616 20.5645C62.454 20.5755 62.7302 20.7019 62.9297 20.9161C63.1291 21.1302 63.2356 21.4147 63.2258 21.7072C63.2275 22.0066 63.1116 22.2948 62.9029 22.5096C62.6943 22.7244 62.4097 22.8487 62.1103 22.8558C61.8269 22.883 61.5405 22.8558 61.2541 22.8558L61.2481 22.8619Z" fill="white"/>
<path id="Vector_9" d="M70.9321 21.855C71.7913 21.855 73.4465 22.9464 73.5249 23.5102C73.5792 23.9172 73.4827 24.5292 73.2234 24.7463C73.0264 24.8661 72.8055 24.9412 72.5762 24.9662C72.347 24.9912 72.1151 24.9655 71.8969 24.891C71.3419 24.6664 70.8517 24.3068 70.4708 23.8448C70.3387 23.67 70.2451 23.4692 70.1962 23.2556C70.1474 23.0421 70.1444 22.8205 70.1874 22.6057C70.2809 22.2499 70.7663 22.0087 70.9321 21.855Z" fill="white"/>
<path id="Vector_10" d="M3.5531 50.7376C3.69915 50.155 3.88141 49.5821 4.09879 49.0222C4.14994 48.8936 4.22594 48.7764 4.32245 48.6772C4.41896 48.5781 4.53408 48.4989 4.66122 48.4443C4.78836 48.3897 4.92503 48.3607 5.06339 48.359C5.20175 48.3572 5.33909 48.3828 5.46755 48.4343C5.60269 48.463 5.7307 48.5186 5.84401 48.5977C5.95732 48.6767 6.05363 48.7777 6.12727 48.8946C6.2009 49.0115 6.25036 49.142 6.27272 49.2784C6.29508 49.4147 6.28989 49.5541 6.25745 49.6885C6.14688 50.3001 5.9814 50.9004 5.76301 51.4823C5.67606 51.7474 5.48769 51.9672 5.23911 52.0937C4.99052 52.2203 4.70194 52.2433 4.43646 52.1576C3.82745 52.022 3.54104 51.5848 3.5531 50.7376Z" fill="white"/>
<path id="Vector_11" d="M7.34562 58.3833C8.18678 58.4044 9.86305 59.6104 9.92335 60.1651C9.95096 60.3603 9.93847 60.5592 9.88663 60.7494C9.83479 60.9396 9.7447 61.1173 9.62186 61.2716C9.34148 61.5097 8.73549 61.6665 8.44003 61.5188C7.76447 61.1817 7.15405 60.7274 6.63713 60.1772C6.4291 59.9541 6.41402 59.3541 6.56175 59.0436C6.70948 58.733 7.17981 58.5129 7.34562 58.3833Z" fill="white"/>
<path id="Vector_12" d="M29.652 62.984C29.3678 62.9991 29.083 62.9991 28.7988 62.984C28.521 62.9761 28.2576 62.859 28.0657 62.658C27.8738 62.4571 27.7689 62.1885 27.7737 61.9107C27.7345 61.2806 28.0541 60.8133 28.6782 60.7289C29.3469 60.6444 30.0235 60.6444 30.6921 60.7289C30.8362 60.74 30.9763 60.7808 31.1038 60.8487C31.2314 60.9166 31.3435 61.01 31.4332 61.1232C31.5229 61.2364 31.5883 61.367 31.6252 61.5066C31.6622 61.6463 31.6699 61.792 31.6479 61.9348C31.6463 62.2129 31.536 62.4794 31.3405 62.6772C31.1449 62.8749 30.8798 62.9883 30.6017 62.993C30.2791 63.0111 29.9655 62.984 29.652 62.984Z" fill="white"/>
<path id="Vector_13" d="M76.5969 32.7086C76.4586 33.2702 76.2895 33.8237 76.0904 34.3668C75.976 34.6294 75.7679 34.84 75.5065 34.9575C75.2452 35.0749 74.9495 35.0907 74.6771 35.0018C74.4048 34.9129 74.1753 34.7257 74.0336 34.4767C73.8919 34.2277 73.848 33.9348 73.9107 33.6552C74.0203 33.0948 74.1725 32.5434 74.3659 32.0061C74.405 31.8669 74.472 31.7371 74.5627 31.6245C74.6533 31.5119 74.7659 31.4189 74.8935 31.351C75.0212 31.2831 75.1612 31.2417 75.3053 31.2295C75.4493 31.2172 75.5944 31.2342 75.7316 31.2795C76.3376 31.4242 76.615 31.8765 76.5969 32.7086Z" fill="white"/>
<path id="Vector_14" d="M18.7267 62.9869C18.4253 62.9869 18.1539 63.005 17.8705 62.9869C17.593 62.9862 17.3268 62.8764 17.1295 62.6813C16.9321 62.4861 16.8193 62.2213 16.8153 61.9438C16.7896 61.8008 16.794 61.654 16.8282 61.5128C16.8623 61.3716 16.9255 61.2391 17.0137 61.1236C17.1019 61.0082 17.2132 60.9124 17.3405 60.8423C17.4678 60.7723 17.6082 60.7295 17.7529 60.7167C18.3956 60.6367 19.0458 60.6367 19.6885 60.7167C19.8333 60.7245 19.9749 60.7623 20.1043 60.8277C20.2338 60.8931 20.3482 60.9847 20.4403 61.0967C20.5324 61.2087 20.6003 61.3386 20.6395 61.4782C20.6788 61.6178 20.6886 61.764 20.6683 61.9076C20.6729 62.0518 20.648 62.1954 20.5952 62.3296C20.5423 62.4638 20.4627 62.5859 20.3611 62.6883C20.2596 62.7908 20.1382 62.8714 20.0044 62.9253C19.8706 62.9793 19.7272 63.0053 19.583 63.002C19.2996 63.0261 19.0132 63.002 18.7267 63.002V62.9869Z" fill="white"/>
<path id="Vector_15" d="M24.1927 62.984C23.8912 62.984 23.6199 63.0081 23.3365 62.984C23.059 62.9792 22.7944 62.8656 22.5999 62.6677C22.4053 62.4697 22.2963 62.2033 22.2964 61.9257C22.2511 61.2986 22.5586 60.8162 23.1707 60.7198C23.8633 60.6308 24.5644 60.6308 25.257 60.7198C25.3955 60.7336 25.5298 60.7757 25.6514 60.8434C25.7731 60.9111 25.8795 61.003 25.9643 61.1135C26.0491 61.2239 26.1103 61.3506 26.1442 61.4856C26.1781 61.6206 26.184 61.7612 26.1614 61.8986C26.1663 62.1769 26.061 62.4459 25.8684 62.6469C25.6759 62.848 25.4116 62.9648 25.1334 62.9719C24.8203 62.9928 24.5063 62.9968 24.1927 62.984Z" fill="white"/>
<path id="Vector_16" d="M74.2154 37.1042C74.0526 37.472 74.0043 37.7615 73.8355 37.9243C73.3831 38.3907 72.8897 38.8155 72.3612 39.1935C71.8065 39.5644 71.2427 39.4136 70.8538 38.892C70.7625 38.7884 70.6925 38.6678 70.648 38.5371C70.6034 38.4064 70.585 38.2682 70.594 38.1304C70.603 37.9925 70.6391 37.8579 70.7002 37.734C70.7613 37.6102 70.8463 37.4996 70.9502 37.4087C71.3495 36.966 71.8105 36.5832 72.319 36.2721C72.51 36.1843 72.7164 36.1351 72.9265 36.1273C73.1366 36.1195 73.3461 36.1534 73.543 36.2269C73.8355 36.3505 74.0043 36.8118 74.2154 37.1042Z" fill="white"/>
<path id="Vector_17" d="M13.0373 42.5098C14.183 42.4796 14.7619 42.9168 14.7709 43.6584C14.7799 44.4001 14.2765 44.792 13.3449 44.8644C12.9318 44.8885 12.5218 44.982 12.1088 44.979C11.9643 44.9939 11.8183 44.9801 11.6792 44.9382C11.5401 44.8963 11.4107 44.8272 11.2986 44.7349C11.1864 44.6427 11.0936 44.5291 11.0257 44.4007C10.9578 44.2723 10.916 44.1317 10.9028 43.9871C10.8761 43.8396 10.8791 43.6883 10.9117 43.542C10.9442 43.3957 11.0057 43.2574 11.0925 43.1352C11.1793 43.013 11.2897 42.9094 11.4171 42.8305C11.5445 42.7516 11.6864 42.6989 11.8344 42.6756C12.3047 42.5821 12.772 42.552 13.0373 42.5098Z" fill="white"/>
<path id="Vector_18" d="M64.6856 71.4738C63.0832 71.4989 61.5233 70.9576 60.2809 69.9452C59.5965 69.3965 59.4518 68.679 59.91 68.1363C60.3683 67.5936 61.0014 67.5786 61.719 68.0941C64.4866 70.1171 68.0985 68.9714 68.9818 65.7877C69.1236 65.1986 69.1456 64.587 69.0464 63.9892C68.9472 63.3915 68.7289 62.8197 68.4045 62.308C68.08 61.7962 67.656 61.3549 67.1577 61.0102C66.6594 60.6655 66.0969 60.4245 65.5036 60.3014C64.9102 60.1783 64.2983 60.1757 63.7039 60.2938C63.1096 60.4119 62.5451 60.6482 62.0439 60.9886C61.5426 61.3291 61.1149 61.7669 60.7862 62.2759C60.4574 62.7849 60.2343 63.3547 60.1301 63.9516C60.097 64.2109 60.0789 64.4702 60.0397 64.7265C60.0188 65.0174 59.8845 65.2884 59.6657 65.4813C59.4469 65.6741 59.1611 65.7733 58.8699 65.7576C58.719 65.761 58.5689 65.7334 58.4291 65.6764C58.2893 65.6194 58.1627 65.5342 58.0572 65.4262C57.9517 65.3182 57.8696 65.1896 57.816 65.0485C57.7623 64.9074 57.7383 64.7567 57.7453 64.6059C57.7632 63.8796 57.8767 63.1589 58.083 62.4623C58.4775 61.2632 59.1947 60.1959 60.1559 59.3776C61.1171 58.5593 62.2852 58.0216 63.5319 57.8236C64.7787 57.6256 66.0558 57.7748 67.2233 58.255C68.3908 58.7351 69.4034 59.5276 70.15 60.5455C70.8967 61.5634 71.3485 62.7673 71.4559 64.0251C71.5632 65.2828 71.322 66.5459 70.7587 67.6756C70.1954 68.8053 69.3317 69.7579 68.2625 70.429C67.1933 71.1001 65.9599 71.4637 64.6977 71.4798L64.6856 71.4738Z" fill="white"/>
</g>
</g>
</svg>
