<svg width="81" height="80" viewBox="0 0 81 80" fill="none" xmlns="http://www.w3.org/2000/svg">
<g id="Capa 2">
<g id="ELEMENTS">
<path id="Vector" d="M40.5 80C62.5914 80 80.5 62.0914 80.5 40C80.5 17.9086 62.5914 0 40.5 0C18.4086 0 0.5 17.9086 0.5 40C0.5 62.0914 18.4086 80 40.5 80Z" fill="white" fill-opacity="0.8"/>
<path id="Vector_2" d="M24.47 30.6335H31.3521V52.7233H24.47V30.6335ZM27.8271 19.6557C28.6197 19.6256 29.4031 19.8331 30.0769 20.2515C30.7507 20.6699 31.284 21.2802 31.6084 22.0039C31.9328 22.7277 32.0334 23.5318 31.8974 24.3132C31.7614 25.0946 31.3949 25.8175 30.8451 26.389C30.2952 26.9606 29.5871 27.3548 28.8115 27.5209C28.036 27.6871 27.2285 27.6176 26.4928 27.3215C25.757 27.0253 25.1266 26.516 24.6824 25.8589C24.2382 25.2019 24.0006 24.427 24 23.6339C24 23.1115 24.1029 22.5942 24.3028 22.1115C24.5027 21.6288 24.7958 21.1903 25.1652 20.8209C25.5346 20.4515 25.9731 20.1584 26.4558 19.9585C26.9385 19.7586 27.4558 19.6557 27.9782 19.6557" fill="#1C1C34"/>
<path id="Vector_3" d="M35.75 30.6314H42.3299V33.6528H42.4307C43.0888 32.525 44.0405 31.5969 45.1845 30.9672C46.3284 30.3376 47.6217 30.0301 48.9267 30.0775C55.8759 30.0775 57.1684 34.66 57.1684 40.6021V52.7212H50.2192V41.9617C50.2192 39.4103 50.2192 36.1035 46.6438 36.1035C43.0685 36.1035 42.4642 38.9235 42.4642 41.7938V52.7212H35.75V30.6314Z" fill="#1C1C34"/>
</g>
</g>
</svg>
