<svg width="76" height="80" viewBox="0 0 76 80" fill="none" xmlns="http://www.w3.org/2000/svg">
<g id="Capa 2">
<g id="Capa 1">
<path id="Vector" d="M66.5933 0C67.4682 0.413335 68.0656 1.0258 68.1833 2.04254C68.2044 2.22055 68.4246 2.41364 68.5996 2.52527C68.9285 2.73043 69.3237 2.82697 69.6345 3.06532C70.4038 3.62046 71.1128 4.02776 72.1658 3.65063C72.8808 3.39719 73.5928 3.87389 74.0212 4.53462C74.4859 5.25268 74.9264 5.99789 75.3125 6.7612C75.7892 7.68743 75.5418 8.57143 74.7483 9.37396C74.5439 9.63503 74.4183 9.94905 74.3863 10.2791C74.3754 10.59 74.3824 10.9013 74.4074 11.2113C74.3591 12.1557 74.2415 13.0216 75.1556 13.7819C75.741 14.2555 75.6776 15.1275 75.3246 15.8244C74.9357 16.5897 74.5067 17.3339 74.0393 18.054C73.8053 18.4536 73.4363 18.7564 72.9987 18.908C72.5612 19.0595 72.0839 19.0499 71.6529 18.8807C71.4318 18.7775 71.1841 18.7456 70.9441 18.7894C70.7041 18.8332 70.4837 18.9505 70.3133 19.1251C70.1383 19.2811 69.941 19.4103 69.728 19.5082C68.8681 19.9185 68.0867 20.2866 67.8755 21.4391C67.7277 22.2507 66.8708 22.5886 66.0321 22.6188C65.2778 22.649 64.5236 22.658 63.7663 22.6188C62.6319 22.5645 61.935 21.9852 61.6996 20.8568C61.6751 20.6436 61.5864 20.4429 61.4452 20.2813C61.304 20.1197 61.1171 20.0047 60.9092 19.9517C60.6324 19.8619 60.3732 19.7251 60.1428 19.5474C59.3795 18.9712 58.6343 18.6423 57.6025 18.9621C56.8542 19.2005 56.1422 18.7087 55.7108 18.0057C55.2793 17.3028 54.9052 16.6662 54.5402 15.9783C54.0062 14.9736 54.154 14.0444 55.0229 13.3142C55.2041 13.1924 55.3406 13.015 55.4119 12.8087C55.4832 12.6023 55.4854 12.3784 55.4181 12.1708C55.3589 11.9435 55.3415 11.7073 55.3668 11.4738C55.4905 10.4571 55.4936 9.55499 54.5854 8.75848C54.0393 8.28481 54.1087 7.45512 54.4647 6.78232C54.863 6.02504 55.2884 5.2738 55.753 4.55574C55.9832 4.15471 56.3508 3.85062 56.7879 3.69975C57.225 3.54887 57.7019 3.56143 58.1305 3.7351C58.3502 3.84217 58.5984 3.8762 58.8388 3.83223C59.0793 3.78827 59.2994 3.66861 59.467 3.49072C59.6659 3.31457 59.8948 3.17559 60.1428 3.0804C61.0117 2.70327 61.7358 2.29597 61.9531 1.19173C62.0134 0.733142 62.7284 0.395233 63.1599 0H66.5933ZM57.5964 6.03409C57.2947 6.56509 56.993 7.07196 56.631 7.69045L57.0443 7.95595C57.8619 8.46583 58.0309 9.14768 57.8619 10.0981C57.7267 10.9695 57.7348 11.8571 57.8861 12.7259C58.0128 13.4983 57.8559 14.0443 57.2434 14.4939C57.0564 14.6297 56.8965 14.7956 56.6762 14.9917L57.6055 16.5938C57.7843 16.5462 57.9597 16.4868 58.1305 16.4157C58.9632 15.9753 59.639 16.1744 60.3148 16.7989C60.8206 17.2896 61.4299 17.6607 62.0979 17.885C63.2564 18.2169 63.9081 18.8475 63.9353 20.0573C63.9353 20.1237 64.0016 20.1871 64.0439 20.2685H65.7787C65.8542 20.099 65.9079 19.9206 65.9386 19.7375C65.9748 18.7962 66.4635 18.3105 67.3536 18.0269C68.034 17.8327 68.6627 17.4895 69.194 17.0222C70.0991 16.1502 70.977 15.9451 72.0632 16.5425C72.0964 16.5606 72.1597 16.5425 72.2653 16.5063L73.1523 14.9163C71.8731 14.2887 71.6951 13.3052 72.033 12.0742C72.1718 11.5676 72.1718 11.0331 72.033 10.5265C71.6679 9.31966 71.9546 8.39041 73.0226 7.71157C73.0588 7.69045 73.0618 7.62106 73.089 7.5577C72.9384 7.31766 72.8024 7.06881 72.6817 6.81249C72.4222 6.17288 72.0511 5.94358 71.3753 6.29658C70.7719 6.59828 70.2529 6.44139 69.728 6.01599C69.1457 5.54533 68.5212 5.01131 67.8453 4.80917C66.6385 4.43506 65.9024 3.79544 65.839 2.4951C65.839 2.45889 65.7757 2.42269 65.7575 2.4076H63.9202C63.9986 3.76226 63.2926 4.3898 62.0828 4.76392C61.3677 4.98416 60.7191 5.51214 60.1217 6.00392C59.9005 6.22439 59.6169 6.37158 59.3093 6.42554C59.0018 6.4795 58.685 6.43764 58.402 6.30563C58.1516 6.194 57.8981 6.13667 57.5964 6.03409Z" fill="white"/>
<path id="Vector_2" d="M12.045 0C13.0798 0.322824 14.1569 0.540051 15.1404 0.989591C16.3926 1.56543 17.5168 2.38593 18.4471 3.4028C19.3774 4.41966 20.0948 5.61234 20.5573 6.91063C21.0197 8.20893 21.2177 9.58661 21.1397 10.9626C21.0617 12.3386 20.7092 13.685 20.1031 14.9228C19.4969 16.1605 18.6492 17.2644 17.61 18.1697C16.5708 19.0749 15.361 19.7631 14.0518 20.1937C12.7426 20.6244 11.3605 20.7888 9.98684 20.6773C8.61317 20.5658 7.27568 20.1806 6.0531 19.5444C5.7956 19.4192 5.54666 19.2771 5.30789 19.119C4.71957 18.7147 4.55966 18.1234 4.86439 17.5652C5.16911 17.0071 5.80872 16.82 6.48152 17.1036C7.38664 17.4808 8.29175 17.9544 9.23005 18.1626C13.4539 19.0949 17.7924 16.1895 18.604 11.9535C18.8466 10.7489 18.8081 9.50464 18.4916 8.31733C18.1751 7.13001 17.5891 6.03167 16.7792 5.10764C15.9692 4.18361 14.9571 3.4588 13.8214 2.98951C12.6858 2.52023 11.4573 2.31912 10.2313 2.40181C9.00529 2.48451 7.81487 2.84878 6.75255 3.46631C5.69023 4.08385 4.78461 4.93802 4.10606 5.96245C3.42751 6.98688 2.99431 8.15398 2.84013 9.37304C2.68596 10.5921 2.81494 11.8303 3.21708 12.9914C3.3346 13.28 3.4049 13.5856 3.42525 13.8965C3.43743 14.1587 3.35094 14.416 3.18285 14.6176C3.01475 14.8192 2.77724 14.9505 2.51712 14.9857C1.85337 15.1124 1.3978 14.7835 1.16247 14.1801C0.196707 11.8412 0.155726 9.22272 1.04782 6.85473C2.46282 3.12566 5.17816 0.905114 9.10334 0.138784C9.25316 0.102613 9.40033 0.056244 9.54382 0L12.045 0Z" fill="white"/>
<path id="Vector_3" d="M38.7729 0C39.1591 0.129733 39.5513 0.250415 39.9345 0.389199C44.0497 1.89772 45.5492 7.00558 42.8007 10.4209C41.7115 11.7725 41.084 13.1754 41.265 14.9223C41.3088 15.5723 41.3088 16.2244 41.265 16.8743C41.2682 17.1426 41.2179 17.4087 41.1169 17.6572C41.0159 17.9057 40.8664 18.1316 40.677 18.3215C40.4876 18.5115 40.2622 18.6617 40.014 18.7634C39.7658 18.8652 39.4997 18.9163 39.2315 18.9139C38.2419 18.944 37.2523 18.941 36.2627 18.9139C35.9946 18.9224 35.7274 18.8766 35.4774 18.7792C35.2274 18.6818 34.9997 18.5348 34.8081 18.3471C34.6164 18.1593 34.4647 17.9348 34.3621 17.6868C34.2595 17.4389 34.2082 17.1728 34.2112 16.9045C34.181 16.099 34.1599 15.2874 34.2112 14.4909C34.2986 13.0005 33.7797 11.7755 32.8233 10.6411C32.1952 9.91528 31.7383 9.05756 31.4864 8.13137C31.2344 7.20517 31.1938 6.23419 31.3676 5.2902C31.5414 4.34621 31.9251 3.45335 32.4904 2.67762C33.0557 1.9019 33.7881 1.26314 34.6335 0.808568C35.3167 0.492433 36.0202 0.222308 36.7394 0L38.7729 0ZM36.5433 12.035C37.1467 12.035 37.9493 12.0531 38.7518 12.035C38.8548 12.0231 38.9543 11.9902 39.0441 11.9383C39.1339 11.8864 39.212 11.8166 39.2738 11.7333C39.8772 10.804 40.4202 9.82652 41.0568 8.91839C41.6501 8.09789 41.9241 7.0893 41.8275 6.08137C41.7309 5.07345 41.2703 4.13528 40.5319 3.44245C39.7856 2.74777 38.8078 2.3551 37.7884 2.34063C36.7689 2.32617 35.7804 2.69094 35.0147 3.36417C34.249 4.0374 33.7607 4.97107 33.6445 5.98401C33.5284 6.99694 33.7927 8.01691 34.3861 8.84598C35.1012 9.85971 35.7679 10.8915 36.5433 12.035ZM36.6007 14.4064V16.5183H38.8815V14.4064H36.6007Z" fill="white"/>
<path id="Vector_4" d="M19.5063 73.2719H24.0922V72.4362C24.0922 70.8221 24.0922 69.2049 24.0922 67.5908C24.0922 66.7008 24.581 66.1517 25.2991 66.1758C26.0171 66.2 26.4244 66.7129 26.4274 67.5788C26.4274 70.626 26.4274 73.6742 26.4274 76.7234V77.6285H49.0221V76.7717C49.0221 73.8814 49.0221 70.99 49.0221 68.0977C49.0221 67.8624 49.0221 67.627 49.0221 67.3947C49.0734 66.6555 49.532 66.1879 50.1776 66.1879C50.3338 66.1895 50.4882 66.222 50.6317 66.2837C50.7752 66.3454 50.9051 66.435 51.0137 66.5472C51.1223 66.6595 51.2075 66.7922 51.2645 66.9377C51.3214 67.0832 51.3488 67.2385 51.3452 67.3947C51.3814 68.2546 51.3452 69.1144 51.3603 69.9743V73.2387H55.8225C55.8225 70.8462 56.0277 68.4386 55.7652 66.0853C55.4846 63.5751 53.8554 61.8403 51.481 60.9563C49.532 60.2323 47.5377 59.6349 45.5495 59.0254C45.4102 59.0073 45.2686 59.0209 45.1353 59.0653C45.0021 59.1097 44.8806 59.1838 44.7801 59.2819C44.053 60.0633 43.3862 60.896 42.6833 61.6955C41.5096 63.0441 39.9679 63.0472 38.7883 61.6955C38.4413 61.3093 38.1034 60.9141 37.7202 60.4736C37.328 60.9262 36.9599 61.3606 36.5768 61.78C35.4665 62.9868 33.9127 63.0049 32.8326 61.78C31.8672 60.6848 30.9258 59.5715 29.9875 58.4612C29.3419 57.6979 29.366 57.1941 30.066 56.4881C30.7659 55.7821 31.4599 55.1546 32.1085 54.4456C32.3254 54.1754 32.4669 53.8528 32.5188 53.5103C32.73 52.4181 32.365 51.8418 31.2275 51.344C28.2256 50.0286 26.4365 47.6059 25.7667 44.3807C25.7245 44.1816 25.6701 43.9855 25.6098 43.7441C25.115 43.7441 24.6504 43.7441 24.1827 43.7441C22.5656 43.7079 21.392 42.6459 21.3105 41.0288C21.2472 39.7827 21.2713 38.5306 21.3105 37.2816C21.3311 36.85 21.448 36.4284 21.6526 36.0479C21.8573 35.6673 22.1445 35.3373 22.4932 35.0822C22.7425 34.855 22.8949 34.5406 22.9186 34.2042C22.9669 32.6172 22.9186 31.0272 22.9729 29.4403C23.0276 28.6662 23.162 27.8998 23.3742 27.1534C23.5974 26.2724 24.2008 25.9043 24.9068 26.1095C25.6128 26.3146 25.7335 26.915 25.649 27.7658C25.4288 30.0045 25.3111 32.2522 25.1542 34.4365C25.9145 34.7231 26.2947 34.5481 26.6356 34.0895C27.2088 33.3172 27.8243 32.581 28.4458 31.8298C29.5923 30.448 31.1038 30.1644 32.715 30.9639C36.0639 32.6233 39.4279 32.6142 42.7738 30.9639C44.3789 30.1704 45.9145 30.4631 47.0429 31.8358C47.6463 32.5629 48.2497 33.278 48.7928 34.0383C49.1458 34.524 49.538 34.7292 50.3194 34.4697C50.1776 32.3336 50.2802 30.0859 49.8337 27.9529C49.176 24.8151 46.2374 22.67 43.0332 22.6368C39.5184 22.6006 36.0005 22.6368 32.4736 22.6368C31.1107 22.6437 29.7797 23.0496 28.645 23.8044C28.0928 24.1635 27.5377 24.2902 27.0007 23.8044C26.3731 23.2584 26.4817 22.4226 27.2601 21.9007C28.648 20.9654 30.1776 20.3409 31.8491 20.3167C35.7712 20.2624 39.6662 20.2021 43.5703 20.3167C48.3191 20.4615 52.3439 24.6854 52.5068 29.5278C52.5581 31.0876 52.5068 32.6534 52.546 34.2163C52.5666 34.5522 52.717 34.8671 52.9654 35.0942C53.3226 35.3576 53.6136 35.7006 53.8152 36.096C54.0168 36.4914 54.1235 36.9283 54.1269 37.3721C54.1269 38.5457 54.1541 39.7194 54.1269 40.89C54.0907 42.5825 52.9442 43.7019 51.2517 43.735C50.7871 43.735 50.3224 43.735 49.8307 43.735C49.707 44.266 49.6255 44.7488 49.4837 45.2164C49.078 46.6783 48.3325 48.0235 47.308 49.1424C46.2835 50.2614 45.0089 51.1222 43.5884 51.6548C43.3714 51.7103 43.181 51.8406 43.0507 52.0227C42.9205 52.2049 42.8587 52.4272 42.8764 52.6504C42.8381 53.083 42.9023 53.5184 43.0637 53.9215C43.2252 54.3246 43.4793 54.684 43.8056 54.9705C44.8284 55.9842 45.9175 56.7536 47.3295 57.1096C48.8893 57.4988 50.4099 58.063 51.9335 58.5849C55.8708 59.9305 58.2935 63.3006 58.3146 67.4671C58.3327 70.6199 58.3146 73.7728 58.3146 76.9256C58.3146 78.7931 57.1078 79.9999 55.2282 79.9999C43.5622 79.9999 31.8963 79.9999 20.2304 79.9999C18.39 79.9999 17.1832 78.8203 17.1711 76.9829C17.147 73.7788 17.1259 70.5747 17.1711 67.3706C17.2345 63.1618 19.6481 59.9094 23.6336 58.5548C24.3245 58.3194 25.0155 58.0841 25.7124 57.885C25.9987 57.785 26.3127 57.8006 26.5876 57.9285C26.8625 58.0564 27.0768 58.2865 27.1847 58.5699C27.2405 58.7163 27.2659 58.8727 27.2592 59.0293C27.2525 59.1859 27.214 59.3395 27.1459 59.4807C27.0779 59.6219 26.9817 59.7477 26.8634 59.8505C26.745 59.9533 26.6069 60.0308 26.4576 60.0784C25.7546 60.3499 25.0215 60.546 24.3064 60.7844C22.9396 61.208 21.7413 62.0524 20.8826 63.1972C20.0239 64.3419 19.5486 65.7286 19.5244 67.1594C19.4611 69.1929 19.5063 71.2022 19.5063 73.2719ZM27.9541 39.8853C27.9541 40.899 27.9269 41.9158 27.9541 42.9295C28.0657 46.381 30.7056 49.4644 34.1299 49.8385C36.3348 50.0747 38.5569 50.105 40.7674 49.929C42.4234 49.8234 43.9904 49.1428 45.1979 48.0047C46.4054 46.8667 47.1775 45.3426 47.3808 43.6958C47.5769 42.3442 47.3537 40.9292 47.5407 39.5715C47.8786 37.1006 47.1093 35.1093 45.3111 33.456C45.2925 33.438 45.2763 33.4177 45.2628 33.3956C44.8586 32.8405 44.397 32.7922 43.7724 33.0939C39.7477 35.061 35.7048 35.046 31.6801 33.0939C31.0556 32.7922 30.6272 32.8616 30.1716 33.3956C27.945 36.0386 27.939 36.0355 27.939 39.5021L27.9541 39.8853ZM37.8168 56.7476C38.4202 56.1743 39.099 55.4472 39.8623 54.8287C40.7162 54.1378 40.6377 53.2991 40.4959 52.4151H34.8209C34.9023 53.0668 34.7726 53.818 35.0863 54.1891C35.904 55.1395 36.9117 55.933 37.8168 56.7476ZM24.0319 77.6828V75.6946H19.5063C19.5063 76.1592 19.5063 76.5726 19.5063 76.9859C19.5063 77.4747 19.7688 77.6859 20.2455 77.6828H24.0319ZM51.4176 75.6825V77.5863C51.5081 77.6285 51.5534 77.6678 51.5986 77.6678C52.4826 77.6678 53.3696 77.6828 54.2536 77.6828C56.079 77.6828 56.1333 77.6225 55.9462 75.7791C55.9462 75.758 55.913 75.7399 55.8617 75.6825H51.4176ZM25.5736 41.3667V36.9557C25.2025 36.9557 24.8706 36.9799 24.5448 36.9557C23.8599 36.8984 23.6005 37.2001 23.6397 37.8609C23.6759 38.4824 23.6397 39.1069 23.6397 39.7314C23.6367 41.5326 23.6367 41.5326 25.5736 41.3667ZM49.9212 37.0583V41.4149C50.2468 41.3981 50.5731 41.3981 50.8987 41.4149C51.5866 41.4843 51.837 41.1856 51.8038 40.5098C51.7706 39.834 51.8038 39.1612 51.8038 38.4854C51.8038 36.8592 51.7133 36.7808 50.075 36.9769C50.0188 36.9934 49.9664 37.0211 49.9212 37.0583ZM41.8657 56.3885L39.2951 58.6785L40.7403 60.3861L43.0966 57.6255L41.8657 56.3885ZM34.7273 60.3861L36.1423 58.7086L33.6864 56.4187L32.3891 57.6708L34.7273 60.3861Z" fill="white"/>
<path id="Vector_5" d="M11.9278 8.59848C12.7002 8.29678 13.3217 8.03731 13.9492 7.79896C14.7729 7.48217 15.3703 7.67225 15.6659 8.33298C15.9616 8.99371 15.6659 9.60316 14.8845 9.94107C13.7109 10.4389 12.5312 10.9216 11.3425 11.3742C10.365 11.7483 9.61674 11.2505 9.59562 10.1854C9.56545 8.46875 9.57149 6.74903 9.59562 5.03233C9.59562 4.22376 10.0814 3.74707 10.7693 3.74707C11.4571 3.74707 11.9097 4.22678 11.9248 5.03233C11.9429 6.17579 11.9278 7.31624 11.9278 8.59848Z" fill="white"/>
<path id="Vector_6" d="M43.0396 69.8778C42.4362 69.8778 41.8328 69.8959 41.2475 69.8778C40.9394 69.8778 40.644 69.7554 40.4262 69.5376C40.2083 69.3197 40.0859 69.0243 40.0859 68.7162C40.0859 68.4081 40.2083 68.1127 40.4262 67.8949C40.644 67.677 40.9394 67.5547 41.2475 67.5547C42.4925 67.5225 43.7396 67.5225 44.9886 67.5547C45.1394 67.555 45.2886 67.5853 45.4277 67.6438C45.5667 67.7022 45.6927 67.7876 45.7985 67.8951C45.9043 68.0025 45.9877 68.1299 46.0439 68.2698C46.1001 68.4097 46.1281 68.5594 46.1261 68.7102C46.1266 68.8669 46.0954 69.022 46.0344 69.1663C45.9734 69.3106 45.8838 69.4411 45.7711 69.5499C45.6584 69.6587 45.5248 69.7436 45.3784 69.7994C45.232 69.8552 45.0758 69.8809 44.9192 69.8748C44.2887 69.8959 43.6642 69.8778 43.0396 69.8778Z" fill="white"/>
<path id="Vector_7" d="M64.8882 6.03419C65.9301 6.03658 66.9479 6.34786 67.8128 6.92867C68.6778 7.50949 69.3511 8.33374 69.7475 9.29721C70.144 10.2607 70.2459 11.3201 70.0403 12.3415C69.8347 13.3628 69.3309 14.3003 68.5925 15.0353C67.8541 15.7703 66.9143 16.2699 65.892 16.4708C64.8697 16.6717 63.8108 16.565 62.8491 16.1641C61.8875 15.7632 61.0663 15.0861 60.4895 14.2185C59.9126 13.3509 59.606 12.3317 59.6084 11.2899C59.6124 9.89303 60.1707 8.55489 61.1607 7.56943C62.1507 6.58396 63.4914 6.03178 64.8882 6.03419ZM67.8359 11.2899C67.8331 10.5097 67.5205 9.76262 66.9668 9.21293C66.4132 8.66325 65.6639 8.35602 64.8837 8.35882C64.1036 8.36162 63.3565 8.67423 62.8068 9.22787C62.2571 9.78151 61.9499 10.5308 61.9527 11.311C61.9555 12.0912 62.2681 12.8383 62.8217 13.3879C63.3753 13.9376 64.1247 14.2449 64.9048 14.2421C65.685 14.2393 66.4321 13.9267 66.9818 13.373C67.5315 12.8194 67.8387 12.07 67.8359 11.2899Z" fill="white"/>
<path id="Vector_8" d="M37.7474 47.1957C37.2689 47.1904 36.7964 47.0894 36.3575 46.8988C35.9186 46.7081 35.5224 46.4315 35.192 46.0854C34.9729 45.8779 34.8435 45.5932 34.8311 45.2918C34.8187 44.9904 34.9243 44.696 35.1256 44.4713C35.2202 44.3539 35.338 44.2573 35.4716 44.1875C35.6053 44.1178 35.7519 44.0764 35.9023 44.0659C36.0527 44.0554 36.2036 44.0761 36.3456 44.1266C36.4876 44.1772 36.6177 44.2565 36.7277 44.3596C37.4125 44.9449 38.022 44.9842 38.737 44.4079C38.8525 44.3018 38.9893 44.2214 39.1382 44.1721C39.2872 44.1228 39.4449 44.1057 39.6009 44.122C39.757 44.1382 39.9078 44.1875 40.0434 44.2664C40.1789 44.3453 40.2962 44.4522 40.3873 44.5799C40.8067 45.1531 40.7162 45.7052 40.2244 46.188C39.5588 46.8295 38.6719 47.1903 37.7474 47.1957Z" fill="white"/>
<path id="Vector_9" d="M38.9056 40.3349C38.9056 40.8026 38.9358 41.2732 38.9056 41.7409C38.904 41.8977 38.8702 42.0525 38.8062 42.1957C38.7423 42.3389 38.6496 42.4674 38.5338 42.5732C38.4181 42.6791 38.2818 42.76 38.1335 42.8109C37.9852 42.8618 37.828 42.8817 37.6716 42.8692C37.521 42.8664 37.3726 42.8328 37.2353 42.7708C37.0981 42.7087 36.9749 42.6193 36.8733 42.5081C36.7717 42.3969 36.6938 42.2662 36.6443 42.1239C36.5948 41.9816 36.5748 41.8308 36.5855 41.6805C36.5613 40.7714 36.5613 39.8613 36.5855 38.9501C36.5769 38.7934 36.6001 38.6367 36.6537 38.4892C36.7072 38.3417 36.79 38.2066 36.8971 38.0919C37.0042 37.9772 37.1333 37.8853 37.2768 37.8218C37.4203 37.7583 37.5751 37.7244 37.732 37.7222C38.0478 37.7285 38.3486 37.8584 38.5698 38.0841C38.7909 38.3097 38.9147 38.6131 38.9146 38.929C38.9418 39.3966 38.9146 39.8673 38.9146 40.3349H38.9056Z" fill="white"/>
</g>
</g>
</svg>
