<svg width="66" height="80" viewBox="0 0 66 80" fill="none" xmlns="http://www.w3.org/2000/svg">
<g id="Capa 2">
<g id="Capa 1">
<path id="Vector" d="M30.6537 79.9999C30.3779 79.83 30.1564 79.5846 30.0154 79.2928C29.8745 79.0011 29.82 78.6751 29.8583 78.3533C29.8901 75.4379 29.8583 72.5226 29.8583 69.6032V68.6765H7.00452C5.36587 68.6765 5.10734 68.414 5.10336 66.7674C5.10336 65.6736 5.10336 64.5838 5.07552 63.49C5.07552 63.4463 5.03575 63.3986 4.97609 63.2753C4.18062 63.2753 3.30561 63.2753 2.45446 63.2753C1.38456 63.2753 0.966939 62.8775 0.966939 61.8315C0.961636 44.6282 0.958984 27.421 0.958984 10.2097C0.958984 9.31087 1.43229 8.75006 2.15218 8.77393C2.87208 8.79779 3.30561 9.33871 3.30561 10.341V60.8889H29.8781C29.8781 60.5906 29.8781 60.3122 29.8781 60.0377C29.871 59.8787 29.8963 59.7199 29.9527 59.571C30.009 59.4221 30.0951 59.2863 30.2058 59.1719C30.3165 59.0575 30.4493 58.9669 30.5963 58.9056C30.7432 58.8444 30.9011 58.8138 31.0602 58.8157C31.2194 58.8176 31.3765 58.8519 31.5219 58.9167C31.6673 58.9814 31.798 59.0752 31.9059 59.1922C32.0138 59.3092 32.0967 59.447 32.1495 59.5972C32.2023 59.7474 32.2238 59.9068 32.2128 60.0656C32.2128 60.2724 32.2128 60.4633 32.2128 60.69V77.6016H62.6871C62.6871 76.8061 62.6871 76.0544 62.6871 75.2828C62.6871 74.4118 63.1207 73.9107 63.8326 73.8987C64.5445 73.8868 65.0258 74.3999 65.0258 75.3067C65.0258 76.3249 64.994 77.3391 65.0258 78.3533C65.0703 78.6756 65.0185 79.0039 64.8769 79.2969C64.7354 79.5898 64.5105 79.8344 64.2303 79.9999H30.6537ZM7.50169 66.2742H29.8344V63.3349H7.50169V66.2742Z" fill="white"/>
<path id="Vector_2" d="M60.4996 46.4075C61.5934 46.4075 62.5797 46.4075 63.5661 46.4075C64.6201 46.4075 65.0338 46.8052 65.0338 47.8711C65.0338 55.1364 65.0338 62.4016 65.0338 69.6669C65.0338 70.5896 64.6002 71.1027 63.8604 71.1027C63.1207 71.1027 62.6951 70.5817 62.6951 69.6589C62.6951 63.0301 62.6951 56.3906 62.6951 49.7405V48.7859H32.2168V50.707C32.2168 52.0593 32.2168 53.4155 32.2168 54.7678C32.2168 55.611 31.7395 56.1161 31.0236 56.1002C30.3077 56.0843 29.906 55.5911 29.8821 54.7917C29.8821 54.4616 29.8821 54.1275 29.8821 53.682H10.7909C9.12444 53.682 8.86194 53.4235 8.86194 51.7968V28.5174C8.86194 26.8947 9.10455 26.6521 10.7114 26.6521H39.5391C41.1658 26.6521 41.2056 26.6799 41.6113 28.1078L46.2488 26.7754V2.3864H3.30561C3.30561 3.15402 3.30561 3.92165 3.30561 4.69325C3.30561 5.60008 2.85219 6.12111 2.11241 6.1052C1.37263 6.08929 0.958984 5.58815 0.958984 4.72109C0.958984 3.65119 0.958984 2.58526 0.958984 1.51536C0.958984 0.445461 1.35672 0 2.46241 0H46.8415C48.321 0 48.6273 0.306254 48.6273 1.77787V5.40121H51.1449C52.4296 5.40121 52.7677 5.73531 52.7677 7.02396C52.7677 13.7138 52.7677 20.4077 52.7677 27.1015C52.74 27.377 52.8027 27.6539 52.9462 27.8906C53.0896 28.1274 53.3062 28.3111 53.5631 28.414C57.9899 30.884 60.3246 34.6783 60.5155 39.7494C60.5672 41.933 60.4996 44.1165 60.4996 46.4075ZM34.4083 46.4075C34.4083 44.2359 34.4083 42.1557 34.4083 40.0795C34.3847 38.2252 34.7571 36.3872 35.5006 34.6882C36.2441 32.9893 37.3416 31.4686 38.7197 30.2277C38.9902 29.9732 39.0896 29.5436 39.3362 29.0703H11.2682V51.3075H29.8742C29.8742 50.1143 29.8742 48.9689 29.8742 47.8274C29.8742 46.8649 30.2997 46.4393 31.2503 46.4274C32.2009 46.4154 33.2788 46.4075 34.4083 46.4075ZM39.0976 46.3757C39.0976 44.0887 39.0658 41.8773 39.0976 39.6699C39.164 37.6053 39.9902 35.6379 41.4178 34.145C42.8455 32.652 44.7739 31.7387 46.8335 31.58C51.1409 31.2817 55.0944 34.2806 55.6393 38.5165C55.9296 40.7994 55.7745 43.1381 55.8143 45.4529C55.8143 45.7552 55.8143 46.0575 55.8143 46.3438H58.0257C58.0257 43.6353 58.2564 40.9585 57.974 38.3375C57.4371 33.3618 53.062 29.468 48.0784 29.2294C45.5869 29.0876 43.1242 29.8209 41.1161 31.3025C39.108 32.7841 37.6808 34.9208 37.0811 37.3431C36.8831 38.2045 36.7777 39.0845 36.7669 39.9682C36.7192 42.0921 36.7669 44.2199 36.7669 46.3757H39.0976ZM46.2568 46.3757V34.0976C43.7869 34.4397 41.5954 36.8818 41.5357 39.3159C41.5357 40.1114 41.5357 40.875 41.5357 41.6585V46.3637L46.2568 46.3757ZM50.3813 27.193V7.8075H48.6869V26.8987L50.3813 27.193ZM48.6869 33.9903V46.3637H50.3335C50.3656 46.3077 50.3896 46.2474 50.4051 46.1847C50.4051 42.4898 50.429 38.7988 50.4051 35.1039C50.391 34.9845 50.3501 34.8699 50.2853 34.7687C50.2206 34.6674 50.1337 34.5821 50.0313 34.5192C49.5956 34.3127 49.1465 34.136 48.6869 33.9903ZM53.229 46.491L53.5313 46.3001C53.241 43.4086 53.9291 40.4534 52.9586 37.6017C52.8432 37.6653 52.7915 37.7289 52.7915 37.7886C52.7915 40.5131 52.7915 43.2375 52.7915 45.958C52.7955 46.137 53.062 46.316 53.2211 46.491H53.229Z" fill="white"/>
<path id="Vector_3" d="M48.1938 53.9963C49.107 54.0154 49.9958 54.2951 50.7554 54.8025C51.515 55.3098 52.1139 56.0237 52.4813 56.86C53.3961 58.7333 53.1058 60.5351 51.9086 62.2334C51.6414 62.6227 51.4872 63.0783 51.4631 63.5499C51.4035 64.9022 51.4631 66.2584 51.4393 67.6107C51.4393 69.7545 49.9597 71.3017 47.9392 71.3136C45.9187 71.3256 44.4232 69.7744 44.4113 67.6426C44.4113 66.2624 44.4431 64.8823 44.3875 63.5022C44.3631 63.0565 44.2143 62.6266 43.9579 62.2612C42.7647 60.5669 42.4823 58.785 43.3494 56.8839C44.1568 55.11 45.9386 54.0122 48.1938 53.9963ZM46.754 65.1329C46.754 65.9283 46.754 66.7477 46.754 67.5551C46.754 68.4659 47.2034 68.9869 47.9472 68.975C48.6909 68.963 49.0966 68.442 49.1046 67.5193C49.1046 66.1153 49.1364 64.7073 49.1046 63.3033C49.0654 62.8526 49.1244 62.3987 49.2776 61.973C49.4307 61.5473 49.6742 61.1599 49.9915 60.8373C50.2276 60.5832 50.4109 60.2849 50.531 59.9595C50.651 59.6341 50.7054 59.2882 50.691 58.9416C50.6766 58.5951 50.5936 58.2549 50.4469 57.9406C50.3002 57.6263 50.0927 57.3442 49.8364 57.1106C49.3297 56.6315 48.6606 56.362 47.9634 56.3561C47.2661 56.3502 46.5925 56.6084 46.0778 57.0788C45.818 57.3085 45.6064 57.5875 45.4552 57.8996C45.304 58.2117 45.2162 58.5507 45.197 58.897C45.1777 59.2432 45.2274 59.5899 45.3431 59.9168C45.4588 60.2437 45.6382 60.5445 45.871 60.8015C46.2091 61.1408 46.4662 61.552 46.6232 62.0044C46.7802 62.4569 46.8331 62.9389 46.7778 63.4147C46.7221 63.9715 46.754 64.5482 46.754 65.1209V65.1329Z" fill="white"/>
<path id="Vector_4" d="M25.1891 11.8088H39.7103C39.996 11.798 40.282 11.8113 40.5654 11.8486C40.8287 11.8776 41.071 12.0063 41.2425 12.2081C41.4141 12.41 41.502 12.6698 41.4882 12.9344C41.5173 13.1983 41.4447 13.4634 41.285 13.6755C41.1254 13.8877 40.8907 14.0309 40.6291 14.0759C40.324 14.1359 40.013 14.1599 39.7024 14.1475H10.6679C10.5366 14.1475 10.4053 14.1475 10.2701 14.1475C9.35136 14.1077 8.85021 13.6662 8.87805 12.9264C8.9059 12.1866 9.38715 11.8128 10.2781 11.8128C15.2497 11.8048 20.2201 11.8035 25.1891 11.8088Z" fill="white"/>
<path id="Vector_5" d="M25.1969 17.1024H39.7937C40.104 17.1024 40.5017 17.0348 40.7045 17.1939C41.0347 17.4564 41.4523 17.8859 41.4364 18.232C41.332 18.6812 41.0622 19.0746 40.6807 19.3337C40.4619 19.5087 40.0324 19.4411 39.6943 19.4411H10.2621C9.34331 19.3973 8.84217 18.9519 8.87399 18.2121C8.90581 17.4723 9.38706 17.1064 10.282 17.1024H25.1969Z" fill="white"/>
</g>
</g>
</svg>
