<svg width="73" height="80" viewBox="0 0 73 80" fill="none" xmlns="http://www.w3.org/2000/svg">
<g id="Capa 2">
<g id="Capa 1">
<path id="Vector" d="M53.5136 79.9801C53.1225 79.6176 52.7671 79.2183 52.4524 78.7877C51.0095 76.3472 49.6064 73.8868 48.1914 71.4304C47.5515 70.3214 47.5753 70.0074 48.3901 68.9978C47.6628 67.7458 46.9553 66.446 46.1563 65.2099C45.8728 64.8788 45.4866 64.6521 45.0593 64.566C43.378 64.1168 41.6807 63.7313 39.9915 63.3099C39.0971 63.0874 38.6877 62.5547 38.8467 61.8512C39.0057 61.1477 39.6417 60.8416 40.5161 61.0562C42.2849 61.4815 44.0497 61.9227 45.8224 62.3361C46.3459 62.4453 46.8395 62.6663 47.2697 62.9839C47.6998 63.3015 48.0563 63.7083 48.3146 64.1764C49.0102 65.3927 49.7137 66.605 50.461 67.9048L63.228 60.5276C63.1087 60.2971 63.0133 60.0904 62.902 59.8956C61.8527 58.0712 60.7954 56.2508 59.75 54.4224C57.8183 51.0518 54.9088 49.3824 51.0334 49.3824C42.5711 49.3824 34.1128 49.3585 25.6545 49.3824C22.7608 49.3824 20.682 48.1899 19.2948 45.6779C18.2495 43.7898 17.1842 41.9098 16.0355 40.0854C15.1925 38.7412 13.8836 37.7548 12.3592 37.3149C10.8347 36.8749 9.20159 37.0122 7.77198 37.7005C7.87135 37.8953 7.95879 38.098 8.07009 38.2848C11.2499 43.7779 14.4191 49.2737 17.5777 54.7721C17.7148 55.0326 17.9089 55.2588 18.1457 55.4336C18.3825 55.6084 18.6558 55.7275 18.9451 55.7817C24.152 57.0219 29.351 58.2938 34.554 59.5617C34.6812 59.5896 34.8084 59.6214 34.9515 59.6611C35.108 59.6909 35.2569 59.7523 35.3888 59.8417C35.5207 59.9311 35.633 60.0465 35.7187 60.1809C35.8043 60.3153 35.8616 60.4658 35.887 60.6231C35.9124 60.7805 35.9053 60.9413 35.8662 61.0958C35.8271 61.2503 35.7568 61.3952 35.6596 61.5215C35.5625 61.6479 35.4405 61.753 35.3012 61.8305C35.1619 61.9079 35.0083 61.956 34.8497 61.9719C34.6911 61.9878 34.531 61.9711 34.3791 61.9227C31.6232 61.2682 28.8701 60.6058 26.1195 59.9354C23.4445 59.2835 20.7734 58.6118 18.0905 57.9758C17.5942 57.8715 17.1265 57.6608 16.7195 57.3581C16.3126 57.0555 15.9762 56.6682 15.7334 56.2229C10.8789 47.8547 6.03235 39.4838 1.19374 31.1103C0.533923 29.9656 0.748561 29.2541 1.92112 28.646C6.38876 26.2253 11.556 27.6722 14.1396 32.0961C16.5244 36.1583 18.9093 40.2205 21.1828 44.3304C22.2521 46.2463 23.7188 47.1128 25.9247 47.0651C29.9552 46.9776 33.9896 47.0372 38.1988 47.0372C37.9325 46.6835 37.7696 46.4092 37.5549 46.1827C36.907 45.507 36.2274 44.8591 35.5675 44.1953C34.2288 42.7831 33.3994 40.9648 33.2105 39.0281C33.1483 38.6082 32.9597 38.2173 32.6699 37.9072C27.3994 32.5929 22.0494 27.3423 16.8106 21.9843C14.4381 19.5621 13.1116 16.3052 13.1167 12.9147C13.1217 9.52415 14.4579 6.27119 16.8376 3.85609C19.2172 1.44098 22.4501 0.0568642 25.8402 0.0017133C29.2302 -0.0534376 32.5064 1.22479 34.9634 3.56121C35.4523 4.03023 35.8855 4.55092 36.4102 5.11534L37.861 3.70032C44.6181 -2.83817 55.8826 -0.274445 59.0386 8.57737C60.7477 13.3789 59.909 17.8744 56.4589 21.6504C53.6766 24.703 50.6438 27.541 47.7144 30.4624C47.1103 31.0666 46.4226 31.0706 45.9298 30.5419C45.4369 30.0133 45.5045 29.3734 46.1285 28.7493C48.9108 25.9471 51.7647 23.1846 54.5073 20.3427C55.7598 19.0515 56.6619 17.4619 57.1281 15.7245C57.5943 13.9872 57.6092 12.1595 57.1713 10.4147C56.7335 8.66999 55.8573 7.06594 54.626 5.75458C53.3946 4.44321 51.8488 3.46798 50.1351 2.92127C46.1961 1.64537 42.6387 2.52379 39.5701 5.30613C38.8547 5.95004 38.2108 6.66948 37.5152 7.33724C36.8196 8.005 36.1518 8.04475 35.4125 7.33724C34.7408 6.68538 34.0929 6.00569 33.4251 5.34985C31.4197 3.47653 28.7656 2.45461 26.0216 2.49932C23.2777 2.54402 20.6583 3.65187 18.7149 5.58953C16.7716 7.52719 15.6561 10.1434 15.6034 12.8872C15.5507 15.6309 16.5649 18.2881 18.4323 20.299C24.3269 26.2889 30.3049 32.1994 36.2512 38.1457C36.3296 38.2177 36.4119 38.2854 36.4976 38.3484C36.6924 38.1656 36.8951 37.9787 37.0939 37.784C38.6838 36.1941 40.2737 34.6121 41.8636 33.0381C42.5393 32.3624 43.2587 32.2869 43.7675 32.8195C44.2763 33.3521 44.2127 34.0119 43.5409 34.6638C43.1753 35.0255 42.746 35.3514 42.3485 35.725C42.6188 36.0192 42.7817 36.21 42.9566 36.3888C46.4014 39.8522 49.8648 43.3089 53.3467 46.759C53.6664 47.0742 54.0558 47.3098 54.4835 47.4466C57.4624 48.2581 59.999 50.2159 61.5387 52.8921C62.6755 54.8159 63.7937 56.7516 64.8934 58.6992C64.9715 58.8796 65.1047 59.0306 65.2739 59.1306C65.4432 59.2306 65.6397 59.2744 65.8354 59.2557C66.0951 59.2693 66.349 59.3376 66.5805 59.4561C66.812 59.5746 67.0159 59.7406 67.1789 59.9433C68.8205 62.6541 70.3945 65.4086 71.9486 68.1711C72.4296 69.0177 72.1354 69.7093 71.1537 70.2857C67.3299 72.4996 63.4982 74.6977 59.6745 76.9156C57.9256 77.9291 56.1966 78.9705 54.4596 80L53.5136 79.9801ZM54.2887 77.2971L69.4843 68.5209L65.6128 61.8472L50.4213 70.6235C51.7369 72.8852 52.985 75.0395 54.2887 77.2971ZM50.0278 47.0372L40.6195 37.6329L36.4221 41.6077C37.2171 42.4305 38.1869 43.3844 39.0812 44.4179C39.6305 45.0338 40.0919 45.7226 40.4525 46.4649C40.5096 46.6557 40.6333 46.8196 40.8011 46.9269C40.9689 47.0341 41.1696 47.0775 41.3667 47.0492C43.6045 47.0492 45.8383 47.0492 48.0761 47.0492L50.0278 47.0372ZM3.53885 30.4863L6.53185 35.6535C8.56599 34.6576 10.8974 34.4522 13.0743 35.0772C11.1982 30.5976 7.10819 28.646 3.53885 30.4863Z" fill="white"/>
<path id="Vector_2" d="M45.4568 14.7343L43.6404 12.9775C43.4615 13.1444 43.2429 13.3273 43.0561 13.526L36.6527 19.9254C35.6352 20.9469 35.19 20.9509 34.1884 19.9492L29.8837 15.6525L27.6141 17.9142C27.8685 18.1805 28.1308 18.4269 28.3574 18.7091C28.5692 18.9289 28.6856 19.2235 28.6811 19.5288C28.6766 19.834 28.5517 20.1251 28.3335 20.3386C28.1153 20.552 27.8215 20.6706 27.5163 20.6684C27.211 20.6662 26.919 20.5434 26.7039 20.3268C26.1474 19.8181 25.6148 19.2815 25.114 18.7369C25.0036 18.636 24.9154 18.5132 24.8551 18.3763C24.7948 18.2395 24.7637 18.0916 24.7637 17.942C24.7637 17.7924 24.7948 17.6445 24.8551 17.5076C24.9154 17.3708 25.0036 17.248 25.114 17.147C26.4177 15.8036 27.7426 14.4786 29.0887 13.1723C29.6373 12.6396 30.2494 12.7112 30.8734 13.3273C32.1692 14.6019 33.4557 15.8897 34.7329 17.1908C34.9416 17.4405 35.1304 17.7063 35.2973 17.9857C35.667 17.6359 35.8737 17.4451 36.0923 17.2504C38.2546 15.0431 40.4301 12.8463 42.6189 10.6602C43.3741 9.905 43.9464 9.89308 44.6857 10.6244C45.7788 11.7016 46.8679 12.7867 47.9411 13.8798C48.6009 14.5555 48.6049 15.1755 47.9411 15.8433C43.9928 19.8022 40.0379 23.7557 36.0764 27.704C35.3729 28.4076 34.7727 28.3956 34.0612 27.704C32.9164 26.5712 31.7717 25.4344 30.6429 24.2857C30.0387 23.6736 29.999 23.0019 30.5038 22.4971C31.0086 21.9923 31.6962 22.0519 32.2964 22.6441C33.1987 23.5424 34.0811 24.4606 34.9158 25.3072L45.4568 14.7343Z" fill="white"/>
<path id="Vector_3" d="M56.3753 72.3366C56.3647 72.6413 56.2336 72.9293 56.0107 73.1372C55.7878 73.3452 55.4915 73.4561 55.1868 73.4456C54.8821 73.435 54.5942 73.3039 54.3862 73.081C54.1782 72.8581 54.0673 72.5618 54.0778 72.2571C54.0831 72.1063 54.1179 71.9579 54.1805 71.8205C54.243 71.6832 54.332 71.5595 54.4424 71.4565C54.5528 71.3535 54.6823 71.2733 54.8237 71.2204C54.965 71.1675 55.1154 71.1429 55.2663 71.1481C55.4171 71.1534 55.5655 71.1883 55.7029 71.2508C55.8402 71.3134 55.9639 71.4023 56.0669 71.5127C56.1699 71.6231 56.2501 71.7526 56.303 71.894C56.3559 72.0354 56.3805 72.1858 56.3753 72.3366Z" fill="white"/>
</g>
</g>
</svg>
