<svg width="79" height="80" viewBox="0 0 79 80" fill="none" xmlns="http://www.w3.org/2000/svg">
<g id="Capa 2">
<g id="Capa 1">
<path id="Vector" d="M39.0427 79.9959C38.446 79.5465 38.3267 78.934 38.3267 78.218C38.3479 72.6495 38.3479 67.081 38.3267 61.5125C38.3267 57.7379 36.1669 54.9019 32.7145 54.007C31.2658 53.6391 29.7393 53.7224 28.3392 54.2456C27.7028 54.4763 27.0624 54.6951 26.4419 54.9655C26.1395 55.1188 25.7934 55.1629 25.4622 55.0904C25.131 55.0179 24.835 54.8333 24.6242 54.5678C22.7442 52.6533 20.8469 50.756 18.9324 48.876C18.4766 48.3832 17.8816 48.0408 17.2265 47.8945C16.5714 47.7481 15.8873 47.8047 15.2652 48.0566C14.641 48.264 14.0926 48.6524 13.6896 49.1722C13.2866 49.692 13.0473 50.3199 13.002 50.9761C12.9508 51.5358 13.0322 52.0997 13.2395 52.6221C13.4468 53.1445 13.7742 53.6107 14.1952 53.9831C17.9208 57.6954 21.6424 61.4078 25.3601 65.1201C25.6743 65.4303 25.9885 65.7406 26.2948 66.0628C26.9113 66.7031 26.9709 67.3276 26.4737 67.8487C25.9766 68.3697 25.2805 68.3379 24.6242 67.6975C21.3706 64.436 18.1157 61.1744 14.8594 57.9129C14.0282 57.0855 13.1889 56.2662 12.3735 55.4229C9.46993 52.4 10.3211 47.7503 14.1196 45.9764C14.2858 45.9224 14.4295 45.8153 14.5287 45.6715C14.6279 45.5278 14.6771 45.3553 14.6685 45.1809C15.0504 39.5461 15.4481 33.9113 15.8618 28.2765C15.9582 27.3421 15.694 26.4062 15.1233 25.6602C14.5525 24.9142 13.7182 24.4145 12.7911 24.2632C11.8795 24.115 10.9459 24.3248 10.1854 24.8489C9.42485 25.3729 8.89632 26.1706 8.71023 27.0753C6.92831 34.911 5.16495 42.7506 3.42016 50.5943C3.19277 51.4803 3.05026 52.3859 2.99456 53.299C2.99161 54.7215 3.51593 56.0946 4.46624 57.1532C6.62602 59.7902 8.76989 62.4472 10.9177 65.1082C11.0649 65.2911 11.224 65.4661 11.3592 65.6571C11.7968 66.2815 11.757 66.902 11.2399 67.3316C11.1148 67.4375 10.9689 67.5159 10.8115 67.5617C10.6542 67.6076 10.4889 67.6198 10.3265 67.5977C10.1642 67.5756 10.0082 67.5195 9.86888 67.4333C9.72953 67.347 9.60987 67.2324 9.51766 67.0969C7.06355 64.0382 4.58556 61.075 2.19906 58.0043C1.48351 57.0836 0.988179 56.0114 0.751014 54.8697C0.513849 53.728 0.541142 52.5471 0.830802 51.4176C2.67371 43.1736 4.52988 34.9282 6.3993 26.6815C6.67244 25.3456 7.39173 24.1423 8.43904 23.2692C9.48637 22.3961 10.7995 21.905 12.1627 21.8767C14.9271 21.8767 17.421 23.6706 17.9699 26.3951C18.2443 27.7674 18.1051 29.2391 18.0136 30.659C17.7113 35.4002 17.3533 40.1732 17.0192 44.9144C17.0192 45.0695 17.0192 45.2246 17.0192 45.4832C19.4654 45.6502 20.8575 47.4481 22.4167 48.9993C23.4508 50.0255 24.5089 51.0358 25.4993 52.1017C25.9249 52.5631 26.2948 52.5353 26.7999 52.3245C28.0686 51.7381 29.4482 51.4304 30.8458 51.4222C32.2434 51.4139 33.6266 51.7053 34.9021 52.2767C36.8384 53.1436 38.4468 54.607 39.4921 56.4531C39.6114 56.302 39.691 56.2145 39.7586 56.115C42.4673 51.9466 47.0175 50.3835 51.6593 52.1375C52.6855 52.5353 53.3457 52.4836 54.0458 51.6006C54.7481 50.7961 55.4986 50.035 56.2931 49.3215C56.9692 48.6572 57.6056 48.5856 58.1386 49.0987C58.6716 49.6118 58.604 50.292 57.9756 50.9522C56.7823 52.1733 55.5373 53.3745 54.3322 54.6036C54.1337 54.8471 53.859 55.0168 53.5524 55.0853C53.2458 55.1538 52.925 55.1173 52.6417 54.9814C51.8741 54.6672 51.0945 54.3689 50.303 54.1183C45.7368 52.6785 40.9678 55.8684 40.757 60.6454C40.5979 64.1814 40.7013 67.7293 40.6933 71.2693C40.6933 73.5882 40.6734 75.9031 40.6933 78.222C40.6933 78.9379 40.574 79.5465 39.9813 79.9999L39.0427 79.9959Z" fill="white"/>
<path id="Vector_2" d="M59.6698 79.996C59.0732 79.646 58.9061 79.1329 58.8464 78.4448C58.7351 77.0566 59.1805 75.9986 60.0755 74.9167C64.8883 69.1016 69.6215 63.207 74.3945 57.364C75.102 56.5621 75.6009 55.5982 75.8472 54.5576C76.0935 53.517 76.0795 52.4317 75.8065 51.3978C73.9729 43.3911 72.2029 35.3684 70.409 27.3498C70.055 25.7588 69.1561 24.6769 67.5293 24.315C66.9792 24.2 66.4099 24.2141 65.866 24.356C65.3222 24.4979 64.8187 24.7638 64.3948 25.133C63.971 25.5021 63.6384 25.9643 63.4231 26.4835C63.2079 27.0027 63.1158 27.5647 63.1541 28.1254C63.5518 33.8371 63.9602 39.5488 64.3791 45.2605C64.4051 45.3989 64.4609 45.53 64.5426 45.6447C64.6244 45.7594 64.7301 45.855 64.8525 45.9247C68.7265 47.8101 69.5897 52.4279 66.5707 55.4707C62.5415 59.5437 58.4725 63.5808 54.4195 67.6299C54.3479 67.7015 54.2763 67.7811 54.1967 67.8487C53.969 68.0668 53.6642 68.1858 53.3489 68.1799C53.0337 68.1739 52.7336 68.0434 52.5143 67.8169C52.4073 67.7102 52.3231 67.5828 52.2669 67.4425C52.2107 67.3022 52.1836 67.152 52.1873 67.0009C52.1911 66.8498 52.2255 66.7011 52.2885 66.5638C52.3516 66.4264 52.4419 66.3033 52.554 66.202C53.0632 65.6452 53.612 65.1241 54.145 64.611C57.6983 61.071 61.2382 57.535 64.765 54.003C65.6042 53.1717 66.1253 52.2171 66.0179 51.0199C65.9847 50.5638 65.8616 50.1187 65.6555 49.7104C65.4495 49.3021 65.1646 48.9386 64.8174 48.6409C64.4702 48.3433 64.0675 48.1173 63.6325 47.9761C63.1975 47.8348 62.7388 47.7811 62.283 47.818C62.0507 47.8457 61.8168 47.8577 61.583 47.8538C61.318 47.8496 61.0642 47.7465 60.8714 47.5647C60.6786 47.3829 60.5607 47.1356 60.5408 46.8714C60.4922 46.611 60.5401 46.3418 60.6755 46.1141C60.8109 45.8864 61.0247 45.7159 61.2767 45.6344C61.523 45.553 61.7741 45.4866 62.0284 45.4355C61.8972 43.5183 61.7699 41.6052 61.6307 39.692C61.3602 35.8219 61.05 31.9557 60.8352 28.0856C60.6562 25.0667 62.8558 22.4774 65.9383 21.9563C67.3551 21.7194 68.8094 22.0172 70.019 22.7918C71.2287 23.5664 72.1076 24.7627 72.4853 26.1486C73.4001 29.6965 74.1439 33.3081 74.9474 36.864C76.0253 41.637 77.0793 46.4577 78.1612 51.2506C78.4785 52.5061 78.491 53.8193 78.1976 55.0807C77.9043 56.342 77.3135 57.5149 76.4747 58.5016C71.6222 64.4864 66.7603 70.4646 61.8892 76.4361C61.6461 76.6841 61.4608 76.9828 61.3466 77.3108C61.2325 77.6388 61.1923 77.988 61.229 78.3334C61.2882 78.6554 61.2467 78.9879 61.11 79.2854C60.9733 79.583 60.7482 79.8311 60.4653 79.996H59.6698Z" fill="white"/>
<path id="Vector_3" d="M18.5706 79.9959C18.2877 79.8311 18.0626 79.583 17.9259 79.2854C17.7892 78.9879 17.7477 78.6554 17.807 78.3334C17.8471 77.9878 17.8085 77.6376 17.6942 77.3091C17.5798 76.9805 17.3927 76.6821 17.1467 76.4361C15.7983 74.8451 14.5056 73.2183 13.201 71.5955C12.6282 70.8875 12.6442 70.1994 13.2209 69.7459C13.7976 69.2925 14.442 69.4277 14.9869 70.092C16.5779 72.0409 18.1689 73.9992 19.7599 75.9667C20.5554 76.9373 20.277 79.2999 19.3622 79.9959H18.5706Z" fill="white"/>
<path id="Vector_4" d="M39.3611 21.0335C39.5838 20.8386 39.7827 20.6755 39.9736 20.5044C42.1517 18.5557 44.9983 17.5235 47.9192 17.6233C50.8401 17.7231 53.6096 18.9472 55.6497 21.0401C57.6897 23.1329 58.8425 25.9328 58.8676 28.8554C58.8927 31.7779 57.788 34.5971 55.7842 36.7247C51.8067 40.8533 47.7297 44.8746 43.6369 48.8839C43.0768 49.4451 42.4116 49.8903 41.6792 50.194C40.9469 50.4978 40.1619 50.6541 39.369 50.6541C38.5762 50.6541 37.7912 50.4978 37.0588 50.194C36.3265 49.8903 35.6613 49.4451 35.1012 48.8839C30.9884 44.8746 26.9035 40.8136 22.8823 36.6849C19.7321 33.4393 18.9963 28.4873 20.8617 24.3547C21.7713 22.331 23.2532 20.6177 25.1248 19.4261C26.9963 18.2345 29.1757 17.6166 31.3941 17.6486C32.0862 17.6486 32.6431 17.8475 32.8022 18.5992C32.88 18.8567 32.8556 19.1342 32.7341 19.3742C32.6127 19.6142 32.4034 19.7982 32.1499 19.8879C31.8815 19.98 31.598 20.0205 31.3146 20.0073C26.8996 20.0431 23.3119 22.9029 22.4209 27.2105C22.0849 28.6408 22.1237 30.1337 22.5334 31.5446C22.9431 32.9556 23.7099 34.237 24.7597 35.265C28.6576 39.2425 32.6152 43.1722 36.5768 47.098C38.2235 48.7328 40.5026 48.7248 42.1453 47.098C46.0512 43.2319 49.9492 39.3618 53.7994 35.44C56.2814 32.9142 57.1087 29.8715 56.0904 26.4548C55.1 23.1495 52.8329 21.0454 49.4679 20.2698C48.0329 19.8968 46.5253 19.9065 45.0952 20.2981C43.6652 20.6896 42.3628 21.4492 41.318 22.5012C39.3293 24.4263 39.2736 24.4024 37.3803 22.5012C37.0342 22.1511 36.6166 21.8727 36.2387 21.5585C36.1075 21.4702 35.9951 21.3567 35.9081 21.2246C35.8211 21.0925 35.7613 20.9444 35.732 20.789C35.7028 20.6335 35.7048 20.4738 35.7378 20.3191C35.7709 20.1644 35.8343 20.0179 35.9245 19.8879C36.3223 19.3192 36.9786 19.2237 37.6468 19.6652C37.9491 19.868 38.2315 20.0987 38.5139 20.3294C38.7963 20.5601 39.0628 20.7749 39.3611 21.0335Z" fill="white"/>
<path id="Vector_5" d="M50.0802 13.9973C48.9347 14.0331 48.3978 13.2814 48.6444 12.3705C49.2648 10.0874 49.9052 7.81231 50.5376 5.53321C50.7882 4.63031 51.0229 3.72742 51.2814 2.8285C51.5201 1.99721 52.0769 1.59946 52.7452 1.77049C53.4134 1.94152 53.7833 2.58985 53.5407 3.45297C52.6736 6.63497 51.8065 9.81697 50.8757 12.999C50.7524 13.4285 50.2672 13.7706 50.0802 13.9973Z" fill="white"/>
<path id="Vector_6" d="M26.299 1.73463C27.007 1.79827 27.3013 2.29943 27.4922 2.95572C28.2161 5.61269 28.956 8.26568 29.6878 10.9107C29.827 11.4119 29.9861 11.9091 30.1055 12.4142C30.2884 13.1779 29.9662 13.7626 29.31 13.9456C28.6537 14.1285 28.065 13.7745 27.8502 13.0069C26.9248 9.8116 26.0285 6.60839 25.1614 3.39722C24.9108 2.46251 25.4279 1.71872 26.299 1.73463Z" fill="white"/>
<path id="Vector_7" d="M40.5345 6.32475C40.5345 7.91575 40.5345 9.54653 40.5345 11.1574C40.5345 12.0921 40.1049 12.6172 39.393 12.641C38.681 12.6649 38.1997 12.112 38.1997 11.1495C38.1997 7.92503 38.1997 4.70193 38.1997 1.48016C38.1997 0.541466 38.5975 0.0204135 39.3333 0.000525982C40.0691 -0.0193615 40.5265 0.525556 40.5265 1.49209C40.5464 3.10298 40.5345 4.71386 40.5345 6.32475Z" fill="white"/>
<path id="Vector_8" d="M14.6605 6.659C14.9583 6.84166 15.2199 7.07761 15.4321 7.35506C17.0748 10.2745 18.6818 13.2139 20.2807 16.1573C20.6785 16.8573 20.4836 17.5216 19.883 17.8477C19.741 17.9292 19.5832 17.9795 19.4203 17.9953C19.2573 18.0111 19.0929 17.992 18.9379 17.9393C18.7828 17.8867 18.6408 17.8016 18.5212 17.6898C18.4016 17.578 18.3072 17.442 18.2442 17.2909C16.6188 14.374 15.0065 11.4386 13.4076 8.48467C12.9144 7.55791 13.4434 6.62718 14.6605 6.659Z" fill="white"/>
<path id="Vector_9" d="M59.6698 17.9867C58.4169 17.9867 57.9475 17.0639 58.4566 16.1173C59.3397 14.4706 60.2505 12.8398 61.1494 11.2011C61.8375 9.94815 62.5217 8.69126 63.2177 7.4463C63.6473 6.68262 64.3354 6.44397 64.9559 6.81388C65.5764 7.18379 65.6679 7.84007 65.2542 8.5958C63.6871 11.4676 62.1239 14.3433 60.517 17.1912C60.2835 17.504 59.9967 17.7733 59.6698 17.9867Z" fill="white"/>
</g>
</g>
</svg>
