<svg width="47" height="60" viewBox="0 0 47 60" fill="none" xmlns="http://www.w3.org/2000/svg">
<g id="Capa 8">
<g id="Capa 1">
<path id="Vector" d="M43.7956 0C44.3219 0.191375 44.8307 0.427936 45.3162 0.707035C45.7758 1.00927 46.1564 1.41715 46.4261 1.89657C46.6958 2.376 46.8468 2.91303 46.8665 3.46277C46.8665 3.71406 46.8665 3.96962 46.8665 4.22517C46.8665 18.0734 46.8665 31.9202 46.8665 45.7656C46.8751 46.0002 46.8666 46.235 46.841 46.4684C46.8198 46.6664 46.7256 46.8494 46.5768 46.9817C46.4279 47.114 46.2351 47.1861 46.036 47.1839C45.8396 47.2043 45.6428 47.1498 45.4849 47.0314C45.327 46.9129 45.2196 46.7392 45.1841 46.545C45.1356 46.2768 45.1171 46.0039 45.1288 45.7315C45.1288 31.8833 45.1288 18.0365 45.1288 4.1911C45.1267 3.70688 45.0343 3.2273 44.8562 2.77703C44.7378 2.48214 44.5336 2.22954 44.2702 2.05187C44.0067 1.8742 43.696 1.77963 43.3782 1.78036C40.6267 1.75055 37.8753 1.78036 35.0812 1.78036V3.77795H36.359C37.8455 3.77795 39.3405 3.77795 40.8141 3.77795C42.2878 3.77795 43.1014 4.6298 43.1014 6.06943C43.1014 8.00312 43.1014 9.93682 43.1014 11.8705C43.1014 12.6116 42.7904 13.0077 42.2282 13.0077C41.666 13.0077 41.3466 12.6074 41.3466 11.8705C41.3466 9.95386 41.3466 8.0372 41.3466 6.12906C41.3466 5.70313 41.2103 5.5285 40.7758 5.5285C37.7688 5.5285 34.7618 5.5285 31.7547 5.5285C31.6684 5.54113 31.583 5.55963 31.4992 5.58387C31.4992 6.08646 31.4992 6.60609 31.4992 7.12146C31.4992 8.44182 30.6771 9.31923 29.3696 9.32349C25.4794 9.34337 21.5922 9.34337 17.7077 9.32349C17.4197 9.33557 17.1324 9.28674 16.8646 9.18018C16.5967 9.07362 16.3544 8.91173 16.1534 8.7051C15.9523 8.49847 15.7972 8.25175 15.6981 7.98106C15.599 7.71037 15.5581 7.42181 15.5781 7.13424C15.5781 6.62739 15.5781 6.12054 15.5781 5.55406C15.3566 5.55406 15.1522 5.52424 14.9818 5.52424H6.46333C5.72648 5.52424 5.7137 5.52424 5.7137 6.28665V53.7006C5.7137 54.4502 5.7137 54.463 6.45907 54.463H40.5969C41.3253 54.463 41.3338 54.463 41.3338 53.6878V16.7772C41.3145 16.5632 41.3145 16.348 41.3338 16.134C41.3575 15.9116 41.4677 15.7075 41.6406 15.5656C41.8135 15.4238 42.0353 15.3556 42.258 15.3759C42.368 15.3725 42.4775 15.391 42.5801 15.4305C42.6828 15.47 42.7765 15.5295 42.8559 15.6057C42.9352 15.6819 42.9985 15.7731 43.0422 15.8741C43.0858 15.975 43.1088 16.0837 43.1099 16.1937C43.1099 16.3683 43.1099 16.5472 43.1099 16.7218C43.1099 29.0651 43.1099 41.4084 43.1099 53.7517C43.1099 55.4554 42.3432 56.222 40.648 56.222H6.41648C4.71278 56.222 3.94185 55.4511 3.94185 53.7602V6.2398C3.94185 4.5361 4.71278 3.78221 6.41222 3.77795H11.9492V1.78462C11.7363 1.78462 11.5233 1.75907 11.3231 1.75907H4.18463C2.65982 1.75907 1.91445 2.49592 1.91445 4.02073C1.91445 10.6793 1.91445 17.3394 1.91445 24.0009C1.92542 24.2533 1.90828 24.5061 1.86334 24.7547C1.83273 24.9528 1.72736 25.1317 1.56891 25.2545C1.41046 25.3773 1.21098 25.4347 1.01149 25.4149C0.799711 25.4289 0.591025 25.3583 0.431294 25.2185C0.271563 25.0788 0.173856 24.8813 0.159643 24.6696C0.134044 24.4362 0.125503 24.2013 0.134088 23.9668C0.134088 17.4842 0.172421 11.0016 0.134088 4.5148C0.134088 2.47888 0.700568 0.749627 3.2476 0H43.7956ZM13.7637 1.79314C13.7637 2.30851 13.7637 2.78981 13.7637 3.27536C13.7637 3.65443 13.9255 3.79073 14.2918 3.78221C14.8796 3.78221 15.4631 3.78221 16.0509 3.78221C17.0348 3.78221 17.3287 4.05906 17.3287 5.02591C17.3287 5.69035 17.3287 6.35479 17.3287 7.01498C17.3287 7.4409 17.5076 7.5985 17.9207 7.59424C21.6688 7.59424 25.4156 7.59424 29.1609 7.59424C29.5868 7.59424 29.7997 7.45368 29.7827 6.9809C29.7529 6.32072 29.7827 5.65628 29.7827 4.99184C29.7827 4.06758 30.0723 3.78647 31.0179 3.77795C31.6227 3.77795 32.2275 3.77795 32.8323 3.77795C33.1731 3.77795 33.3392 3.65443 33.3349 3.30092C33.3349 2.79832 33.3349 2.29999 33.3349 1.78888L13.7637 1.79314Z" fill="white"/>
<path id="Vector_2" d="M23.4866 60H4.21351C1.68352 60 0.158709 58.488 0.15445 55.9623V29.0736C0.148361 28.8945 0.155479 28.7151 0.175746 28.537C0.187808 28.3317 0.278768 28.1391 0.429597 27.9994C0.580426 27.8597 0.779439 27.7837 0.985003 27.7874C1.19315 27.7645 1.40193 27.8245 1.56614 27.9545C1.73035 28.0844 1.83678 28.2738 1.86241 28.4816C1.89864 28.7326 1.91148 28.9864 1.90074 29.2398C1.90074 38.1444 1.90074 47.0505 1.90074 55.958C1.90074 57.1847 2.39481 57.93 3.39148 58.1771C3.61947 58.2263 3.85258 58.2478 4.08573 58.241H42.9301C44.3314 58.241 45.1023 57.4743 45.1108 56.0687C45.1108 54.331 45.1108 52.5932 45.1108 50.8554C45.103 50.6603 45.1144 50.4648 45.1449 50.2719C45.1558 50.1639 45.1885 50.0592 45.241 49.9642C45.2934 49.8691 45.3646 49.7857 45.4501 49.7188C45.5357 49.652 45.6338 49.6031 45.7388 49.5752C45.8437 49.5473 45.9532 49.5409 46.0606 49.5564C46.1646 49.5522 46.2684 49.5695 46.3654 49.6074C46.4624 49.6453 46.5505 49.7029 46.6241 49.7766C46.6977 49.8502 46.7553 49.9383 46.7932 50.0352C46.8311 50.1322 46.8485 50.236 46.8443 50.3401C46.8443 52.5293 46.9252 54.7186 46.7889 56.8993C46.6782 58.6669 44.9788 59.9873 43.0962 59.9958C39.6888 59.9958 36.2814 59.9958 32.9038 59.9958L23.4866 60Z" fill="white"/>
<path id="Vector_3" d="M16.8763 29.6868C15.0647 29.6817 13.2952 29.1397 11.7916 28.1292C10.288 27.1186 9.11769 25.685 8.42869 24.0095C7.73969 22.334 7.5629 20.4919 7.92067 18.7159C8.27843 16.9399 9.1547 15.3099 10.4387 14.0319C11.7227 12.7538 13.3568 11.8852 15.1344 11.5356C16.912 11.1861 18.7533 11.3715 20.4256 12.0683C22.0978 12.765 23.526 13.942 24.5295 15.4503C25.533 16.9586 26.0669 18.7305 26.0635 20.5422C26.0556 22.9724 25.0838 25.3003 23.3613 27.0147C21.6389 28.7292 19.3066 29.6902 16.8763 29.6868ZM16.0245 13.2589C13.4263 13.1737 10.4491 15.759 9.71651 18.6851C9.29298 20.3386 9.45077 22.0874 10.1634 23.6383C10.8761 25.1893 12.1003 26.448 13.6308 27.2036C16.412 28.6007 19.9217 27.851 21.3996 26.3007C19.7726 24.6523 18.1498 22.9998 16.51 21.4025C16.344 21.2536 16.2129 21.0699 16.126 20.8645C16.0391 20.6591 15.9986 20.4371 16.0074 20.2142C16.033 18.8896 16.0074 17.5607 16.0074 16.2361L16.0245 13.2589ZM24.1894 19.6477C24.1468 16.6194 20.6926 13.1779 17.8006 13.2589V19.6477H24.1894ZM19.2104 21.4409L22.7498 24.9846C23.5292 24.1327 24.2278 22.429 24.1511 21.4409H19.2104Z" fill="white"/>
<path id="Vector_4" d="M10.5271 39.2998C11.1106 39.2998 11.6941 39.2998 12.2776 39.2998C12.9378 39.2998 13.2572 39.615 13.2658 40.2709C13.2871 41.4805 13.2913 42.6859 13.2658 43.8955C13.2818 44.0245 13.2681 44.1553 13.2257 44.2782C13.1834 44.401 13.1135 44.5125 13.0214 44.6042C12.9293 44.6958 12.8175 44.7652 12.6945 44.807C12.5715 44.8488 12.4405 44.8619 12.3117 44.8453C11.1077 44.8624 9.89954 44.8624 8.68707 44.8453C8.55376 44.8573 8.41947 44.8391 8.2941 44.7923C8.16873 44.7454 8.05548 44.671 7.96269 44.5745C7.86991 44.4781 7.79996 44.362 7.75799 44.2349C7.71603 44.1078 7.70312 43.9729 7.72022 43.8402C7.72022 42.6533 7.72022 41.4649 7.72022 40.2752C7.70658 40.1426 7.72288 40.0087 7.76791 39.8833C7.81293 39.7578 7.88555 39.6441 7.98039 39.5505C8.07523 39.4569 8.18987 39.3858 8.31587 39.3424C8.44187 39.299 8.576 39.2844 8.70837 39.2998C9.31744 39.2828 9.93077 39.2998 10.5271 39.2998ZM11.4897 41.1142H9.52614V43.0522H11.4897V41.1142Z" fill="white"/>
<path id="Vector_5" d="M10.502 37.2684C9.89717 37.2684 9.29236 37.2684 8.69181 37.2684C8.56395 37.2826 8.43453 37.2684 8.31281 37.2267C8.19109 37.1851 8.08007 37.1171 7.98769 37.0276C7.89531 36.938 7.82386 36.8292 7.77844 36.7089C7.73302 36.5885 7.71476 36.4596 7.72496 36.3313C7.70366 35.1047 7.70366 33.8738 7.72496 32.6471C7.71705 32.5243 7.73586 32.4012 7.78009 32.2863C7.82431 32.1714 7.89291 32.0675 7.98116 31.9817C8.06941 31.8959 8.1752 31.8302 8.29127 31.7892C8.40733 31.7482 8.5309 31.7328 8.65347 31.7441C9.88014 31.7441 11.1111 31.7441 12.3377 31.7441C12.4609 31.7282 12.586 31.7402 12.7038 31.7793C12.8217 31.8184 12.9292 31.8835 13.0184 31.9699C13.1076 32.0562 13.1762 32.1616 13.2191 32.2781C13.262 32.3946 13.2781 32.5193 13.2662 32.6428C13.2875 33.8865 13.2918 35.1345 13.2662 36.3825C13.272 36.5059 13.2509 36.6291 13.2043 36.7436C13.1577 36.858 13.0867 36.9609 12.9964 37.0452C12.906 37.1295 12.7984 37.1931 12.681 37.2317C12.5635 37.2702 12.4392 37.2827 12.3164 37.2684C11.7116 37.2812 11.1068 37.2684 10.502 37.2684ZM11.4774 35.4795V33.5288H9.50532V35.4795H11.4774Z" fill="white"/>
<path id="Vector_6" d="M10.5013 52.4144C9.91783 52.4144 9.33005 52.4144 8.74654 52.4144C8.05654 52.4144 7.73284 52.1035 7.72006 51.4263C7.72006 50.2365 7.72006 49.0482 7.72006 47.8613C7.70559 47.7285 7.72132 47.5943 7.76606 47.4685C7.81079 47.3426 7.88339 47.2286 7.97841 47.1348C8.07344 47.041 8.18844 46.9699 8.31481 46.9268C8.44119 46.8837 8.57567 46.8697 8.7082 46.8859C9.89511 46.8859 11.0834 46.8859 12.2732 46.8859C12.4054 46.8684 12.5399 46.8812 12.6665 46.9232C12.7931 46.9652 12.9085 47.0354 13.0041 47.1285C13.0996 47.2215 13.1728 47.3351 13.2181 47.4605C13.2634 47.586 13.2796 47.7201 13.2656 47.8528C13.2656 49.0624 13.2869 50.272 13.2656 51.4774C13.2795 51.6053 13.2642 51.7347 13.2209 51.8559C13.1776 51.9771 13.1074 52.0869 13.0156 52.1771C12.9238 52.2673 12.8128 52.3355 12.6908 52.3766C12.5689 52.4177 12.4392 52.4306 12.3115 52.4144C11.7067 52.4229 11.1062 52.4144 10.5013 52.4144ZM9.50468 50.6213H11.4938V48.6748H9.50468V50.6213Z" fill="white"/>
<path id="Vector_7" d="M21.5968 37.2729H16.4474C15.7106 37.2729 15.3145 36.9619 15.3145 36.3955C15.3145 35.829 15.7148 35.5181 16.4517 35.5181H26.8102C27.5342 35.5181 27.9559 35.8503 27.9559 36.3997C27.9559 36.9492 27.53 37.2516 26.8059 37.2516L21.5968 37.2729Z" fill="white"/>
<path id="Vector_8" d="M21.5844 52.414H16.4349C15.6896 52.414 15.302 52.0989 15.3148 51.5281C15.3275 50.9574 15.7066 50.6763 16.4094 50.6763C19.8963 50.6763 23.386 50.6763 26.8786 50.6763C27.7305 50.6763 28.2331 51.3705 27.8199 51.954C27.705 52.0851 27.5644 52.1912 27.407 52.2659C27.2495 52.3407 27.0784 52.3824 26.9042 52.3885C25.1323 52.4353 23.3562 52.414 21.5844 52.414Z" fill="white"/>
<path id="Vector_9" d="M21.6648 43.0993H26.8143C27.5426 43.0993 27.96 43.4315 27.9515 43.9767C27.943 44.5219 27.5256 44.8541 26.7972 44.8541C23.343 44.8541 19.893 44.8541 16.443 44.8541C16.0711 44.8209 15.7241 44.6527 15.4676 44.3813C15.3929 44.2518 15.3535 44.1049 15.3535 43.9554C15.3535 43.8058 15.3929 43.6589 15.4676 43.5294C15.7146 43.2761 16.0473 43.1242 16.4004 43.1035C18.1552 43.078 19.91 43.0993 21.6648 43.0993Z" fill="white"/>
<path id="Vector_10" d="M33.6592 20.7041H29.3999C29.2249 20.7106 29.0496 20.7021 28.8761 20.6786C28.768 20.6705 28.6626 20.6411 28.5659 20.5922C28.4692 20.5432 28.3832 20.4756 28.3127 20.3933C28.2423 20.311 28.1888 20.2155 28.1553 20.1124C28.1219 20.0093 28.1092 19.9007 28.1179 19.7927C28.1138 19.6839 28.132 19.5755 28.1712 19.474C28.2104 19.3726 28.2699 19.2801 28.346 19.2024C28.4222 19.1247 28.5133 19.0633 28.614 19.022C28.7146 18.9807 28.8226 18.9603 28.9314 18.9621C29.4766 18.9323 30.026 18.9621 30.5712 18.9621H37.8716C38.0505 18.9621 38.2251 18.9621 38.3997 18.9621C38.6307 18.9621 38.8523 19.0539 39.0156 19.2172C39.179 19.3806 39.2707 19.6021 39.2707 19.8331C39.2707 20.0641 39.179 20.2857 39.0156 20.449C38.8523 20.6124 38.6307 20.7041 38.3997 20.7041C37.4244 20.7041 36.4447 20.7041 35.4694 20.7041H33.6592Z" fill="white"/>
<path id="Vector_11" d="M28.2975 31.7397C29.4091 31.7397 30.5208 31.7397 31.6324 31.7397C32.3011 31.7397 32.6632 32.0464 32.6717 32.5915C32.6802 33.1367 32.3012 33.4945 31.6154 33.4945C29.3694 33.4945 27.1247 33.4945 24.8815 33.4945C24.2086 33.4945 23.8252 33.1325 23.8465 32.5745C23.8678 32.0165 24.2171 31.7482 24.8986 31.7227C26.0315 31.7312 27.1645 31.7397 28.2975 31.7397Z" fill="white"/>
<path id="Vector_12" d="M28.2668 41.0548C27.1552 41.0548 26.0435 41.0548 24.9318 41.0548C24.212 41.0548 23.85 40.7524 23.8457 40.2029C23.8415 39.6535 24.212 39.317 24.9106 39.3127H31.5848C32.2961 39.3127 32.6666 39.6237 32.6709 40.1646C32.6752 40.7055 32.3131 41.042 31.6061 41.0463C30.4944 41.0633 29.3785 41.0548 28.2668 41.0548Z" fill="white"/>
<path id="Vector_13" d="M28.3266 46.8772C29.4212 46.8772 30.5116 46.8772 31.6062 46.8772C32.2919 46.8772 32.6795 47.2136 32.671 47.7673C32.6625 48.321 32.2834 48.6192 31.5849 48.6192H24.9064C24.2207 48.6192 23.8373 48.2912 23.8458 47.7333C23.8544 47.1753 24.2334 46.8814 24.932 46.8814C26.0607 46.8729 27.1936 46.8772 28.3266 46.8772Z" fill="white"/>
<path id="Vector_14" d="M18.5262 41.0549C17.7851 41.0549 17.044 41.0549 16.3029 41.0549C15.6811 41.0549 15.3276 40.7227 15.3148 40.203C15.302 39.6834 15.6683 39.3086 16.3114 39.3043C17.7993 39.3043 19.2844 39.3043 20.7666 39.3043C21.4225 39.3043 21.7803 39.6451 21.7803 40.186C21.7803 40.7269 21.4225 41.0378 20.7538 41.0378C20.0127 41.0634 19.2716 41.0549 18.5262 41.0549Z" fill="white"/>
<path id="Vector_15" d="M18.5515 31.7402C19.3139 31.7402 20.0721 31.7402 20.8302 31.7402C20.9446 31.7371 21.0585 31.7566 21.1653 31.7975C21.2722 31.8384 21.3699 31.9 21.453 31.9787C21.536 32.0574 21.6028 32.1517 21.6494 32.2562C21.696 32.3607 21.7216 32.4734 21.7246 32.5878C21.7277 32.7021 21.7082 32.816 21.6673 32.9229C21.6264 33.0297 21.5648 33.1275 21.4861 33.2105C21.4074 33.2936 21.3131 33.3603 21.2086 33.4069C21.1041 33.4535 20.9914 33.4791 20.877 33.4822C19.3224 33.5078 17.7635 33.5078 16.1919 33.4822C16.0739 33.4882 15.956 33.4696 15.8456 33.4276C15.7353 33.3855 15.6348 33.321 15.5507 33.2381C15.4666 33.1552 15.4007 33.0557 15.3571 32.9459C15.3135 32.8362 15.2932 32.7186 15.2974 32.6005C15.2974 32.0852 15.6552 31.7487 16.26 31.7487C17.0352 31.7316 17.7934 31.7402 18.5515 31.7402Z" fill="white"/>
<path id="Vector_16" d="M18.6026 46.8772C19.3224 46.8772 20.0423 46.8772 20.7621 46.8772C21.4052 46.8772 21.7758 47.2179 21.78 47.7546C21.7843 48.2913 21.4095 48.6065 20.7706 48.632C19.2912 48.632 17.8118 48.632 16.3324 48.632C15.6936 48.632 15.3187 48.2955 15.3145 47.7802C15.3102 47.2648 15.6893 46.9283 16.3239 46.8985C17.0821 46.8516 17.8445 46.8772 18.6026 46.8772Z" fill="white"/>
<path id="Vector_17" d="M36.1932 16.9048C35.4733 16.9048 34.7493 16.9048 34.0252 16.9048C33.9029 16.9202 33.7787 16.909 33.6612 16.8718C33.5437 16.8346 33.4357 16.7724 33.3445 16.6893C33.2534 16.6063 33.1814 16.5045 33.1335 16.391C33.0855 16.2774 33.0628 16.1548 33.0669 16.0316C33.0709 15.9102 33.0999 15.791 33.1519 15.6813C33.204 15.5716 33.2781 15.4737 33.3695 15.3939C33.461 15.314 33.5679 15.2537 33.6836 15.2169C33.7994 15.1801 33.9214 15.1674 34.0422 15.1798C35.462 15.1627 36.8817 15.1627 38.3015 15.1798C38.4232 15.1687 38.5458 15.1821 38.6622 15.2192C38.7787 15.2563 38.8865 15.3162 38.9794 15.3956C39.0722 15.475 39.1483 15.5722 39.203 15.6814C39.2578 15.7906 39.2901 15.9097 39.2981 16.0316C39.2981 16.547 38.9106 16.909 38.2844 16.9218C37.6157 16.9133 36.9002 16.9048 36.1932 16.9048Z" fill="white"/>
<path id="Vector_18" d="M31.225 28.2644C30.5009 28.2644 29.7768 28.2644 29.057 28.2644C28.938 28.2751 28.8181 28.2613 28.7046 28.2238C28.5912 28.1863 28.4867 28.126 28.3975 28.0464C28.3083 27.9669 28.2364 27.87 28.1862 27.7615C28.1361 27.6531 28.1086 27.5355 28.1057 27.4161C28.1028 27.2967 28.1244 27.1779 28.1693 27.0672C28.2141 26.9564 28.2812 26.856 28.3663 26.7723C28.4515 26.6885 28.553 26.6231 28.6645 26.5801C28.7759 26.5371 28.895 26.5175 29.0144 26.5224C30.4796 26.5025 31.9433 26.5025 33.4057 26.5224C33.5287 26.5121 33.6525 26.5287 33.7685 26.571C33.8845 26.6134 33.9899 26.6804 34.0774 26.7675C34.1649 26.8546 34.2324 26.9597 34.2753 27.0755C34.3182 27.1913 34.3354 27.315 34.3257 27.4381C34.3227 27.5549 34.2957 27.6699 34.2464 27.7759C34.1971 27.8819 34.1265 27.9766 34.039 28.0541C33.9515 28.1316 33.849 28.1902 33.7378 28.2264C33.6267 28.2626 33.5093 28.2755 33.3929 28.2644C32.6646 28.2729 31.9405 28.2644 31.225 28.2644Z" fill="white"/>
<path id="Vector_19" d="M31.1499 24.4905C30.4685 24.4905 29.787 24.4905 29.1055 24.4905C28.424 24.4905 28.0918 24.1327 28.0918 23.6045C28.0918 23.0764 28.4879 22.7527 29.1183 22.7527C30.521 22.7527 31.9223 22.7527 33.3222 22.7527C33.9568 22.7527 34.3316 23.0934 34.3273 23.6301C34.3231 24.1668 33.9483 24.4819 33.3094 24.5032C32.5896 24.4947 31.8697 24.4905 31.1499 24.4905Z" fill="white"/>
<path id="Vector_20" d="M29.5526 16.8881C29.32 16.903 29.0867 16.903 28.8541 16.8881C28.6413 16.875 28.4423 16.7779 28.301 16.6181C28.1596 16.4584 28.0874 16.2492 28.1002 16.0363C28.0853 15.9376 28.0902 15.837 28.1149 15.7403C28.1395 15.6436 28.1834 15.5528 28.2437 15.4734C28.3041 15.3939 28.3798 15.3274 28.4664 15.2778C28.5529 15.2281 28.6486 15.1964 28.7476 15.1844C29.2878 15.1163 29.8345 15.1163 30.3747 15.1844C30.473 15.1974 30.5677 15.2299 30.6533 15.28C30.7389 15.3301 30.8136 15.3968 30.8731 15.4761C30.9326 15.5554 30.9757 15.6458 30.9998 15.742C31.0239 15.8382 31.0286 15.9382 31.0136 16.0363C31.0205 16.2454 30.9449 16.4489 30.803 16.6027C30.6611 16.7565 30.4644 16.8483 30.2554 16.8583C30.022 16.8831 29.7873 16.8931 29.5526 16.8881Z" fill="white"/>
<path id="Vector_21" d="M37.8229 24.4737C37.5905 24.4949 37.3567 24.4949 37.1244 24.4737C37.0165 24.462 36.9121 24.4292 36.817 24.377C36.722 24.3248 36.6382 24.2543 36.5705 24.1696C36.5028 24.0848 36.4525 23.9876 36.4226 23.8833C36.3926 23.7791 36.3836 23.6699 36.396 23.5622C36.3938 23.4565 36.4126 23.3515 36.4513 23.2532C36.4901 23.1548 36.548 23.0652 36.6217 22.9895C36.6955 22.9138 36.7835 22.8535 36.8808 22.8121C36.9781 22.7708 37.0826 22.7492 37.1883 22.7487C37.5966 22.7189 38.0066 22.7189 38.4149 22.7487C38.6503 22.7395 38.8798 22.8239 39.0531 22.9836C39.2263 23.1433 39.3292 23.3651 39.3392 23.6005C39.3347 23.8378 39.237 24.0638 39.0672 24.2295C38.8975 24.3953 38.6693 24.4876 38.432 24.4865C38.236 24.4865 38.0401 24.4865 37.8442 24.4865L37.8229 24.4737Z" fill="white"/>
</g>
</g>
</svg>
