<svg width="51" height="60" viewBox="0 0 51 60" fill="none" xmlns="http://www.w3.org/2000/svg">
<g id="Capa 7">
<g id="Capa 1">
<path id="Vector" d="M34.8868 0C35.9396 0.177506 36.9829 0.407762 38.0126 0.6899C45.2523 3.04493 49.5109 8.00198 50.7119 15.5398C50.8433 16.6004 50.886 17.6702 50.8396 18.738C50.8385 18.9835 50.7891 19.2264 50.6941 19.4528C50.5991 19.6792 50.4604 19.8847 50.286 20.0575C50.1116 20.2303 49.9049 20.3671 49.6777 20.46C49.4504 20.5529 49.2071 20.6002 48.9616 20.599C48.2419 20.6246 47.5179 20.599 46.7982 20.599C46.5608 20.6087 46.3245 20.5617 46.1089 20.4619C45.8933 20.362 45.7046 20.2122 45.5585 20.0248C45.4124 19.8375 45.313 19.618 45.2686 19.3846C45.2243 19.1512 45.2362 18.9105 45.3034 18.6827C45.7293 16.6726 44.0982 15.0543 42.2074 15.5866C41.601 15.7631 41.0837 16.1622 40.7591 16.704C40.4345 17.2457 40.3266 17.8901 40.4571 18.508C40.7254 19.8878 40.1377 20.6161 38.7536 20.6161C37.3696 20.6161 36.0196 20.6161 34.6568 20.6161C33.1492 20.6161 32.2209 19.6707 32.2166 18.1546C32.2166 16.8301 32.2166 15.5057 32.2166 14.1983C31.6194 14.1873 31.0234 14.1389 30.4322 14.0535C29.516 13.866 28.688 13.3795 28.0783 12.6703C27.4686 11.9612 27.1117 11.0696 27.0636 10.1356C27.0253 9.46696 27.3447 9.03683 27.8898 9.01128C28.4349 8.98573 28.7416 9.33068 28.8139 9.98651C28.98 11.69 30.2789 12.6482 31.9696 12.316C33.1663 12.0775 33.9414 12.7163 33.9456 13.9556C33.9456 15.3226 33.9456 16.6896 33.9456 18.0566C33.9456 18.7125 34.0776 18.8445 34.7335 18.8487H38.6684C38.4725 17.1964 38.8814 15.7697 40.1717 14.6923C40.9849 13.9998 42.0359 13.6515 43.1017 13.7213C45.6143 13.8576 47.0494 15.6846 47.1048 18.8317H48.7785C49.2043 18.8317 49.0851 18.4953 49.0936 18.2696C49.2418 15.087 48.3949 11.9373 46.6704 9.25828C43.8171 4.83356 39.7246 2.34225 34.4609 1.78437C34.2992 1.77539 34.1371 1.77539 33.9754 1.78437C33.9754 1.99304 33.9499 2.21023 33.9499 2.40187C33.9499 3.59429 33.9499 4.78671 33.9499 5.97487C33.9499 7.16303 33.1578 7.69962 32.0548 7.54631C31.536 7.48939 31.0119 7.50085 30.4961 7.58038C30.2682 7.63718 30.0272 7.60549 29.8218 7.4917C29.6163 7.3779 29.4616 7.19046 29.3889 6.96713C29.3551 6.85439 29.3451 6.73587 29.3594 6.61906C29.3737 6.50224 29.4121 6.38967 29.4722 6.28843C29.5322 6.1872 29.6125 6.0995 29.7081 6.03087C29.8037 5.96224 29.9125 5.91417 30.0277 5.8897C30.7048 5.7449 31.4075 5.70658 32.1953 5.60863V3.70502C32.1953 3.27915 32.2251 2.87884 32.1953 2.47427C32.0888 1.3074 32.5147 0.46845 33.6134 0L34.8868 0Z" fill="white"/>
<path id="Vector_2" d="M16.6268 48.0971H22.5634C22.5634 47.8757 22.5889 47.6712 22.5889 47.4668C22.5889 46.0615 22.5889 44.6519 22.5889 43.2465C22.5889 41.9689 23.364 41.3429 24.599 41.5984C24.9263 41.677 25.266 41.6894 25.5982 41.635C25.9304 41.5806 26.2484 41.4605 26.5336 41.2816C26.8188 41.1027 27.0654 40.8687 27.259 40.5933C27.4525 40.3179 27.5892 40.0067 27.6609 39.6778C27.7879 39.0315 27.6548 38.3612 27.2903 37.8126C26.9259 37.264 26.3597 36.8813 25.7147 36.7478C25.3916 36.6819 25.0584 36.6819 24.7353 36.7478C23.4236 37.0119 22.6059 36.3646 22.6059 35.0103C22.6059 33.4474 22.6059 31.8887 22.6059 30.279H17.8703C17.999 30.9961 17.9434 31.7342 17.7088 32.4239C17.4742 33.1137 17.0682 33.7326 16.5289 34.2225C16.11 34.6224 15.6126 34.9309 15.0682 35.1284C14.5237 35.3259 13.9442 35.408 13.3663 35.3695C12.7885 35.3311 12.2249 35.1729 11.7115 34.9051C11.198 34.6372 10.7458 34.2656 10.3836 33.8136C9.98265 33.3265 9.6917 32.7584 9.53073 32.1483C9.36975 31.5382 9.34256 30.9005 9.451 30.279H7.64108C7.84549 31.0498 8.01158 31.7865 8.24581 32.5062C8.90869 34.5337 9.983 36.4025 11.4015 37.9956C11.5224 38.1315 11.6361 38.2736 11.7421 38.4215C11.8941 38.5937 11.9713 38.8193 11.957 39.0485C11.9426 39.2777 11.8377 39.4918 11.6655 39.6437C11.4933 39.7956 11.2677 39.8729 11.0385 39.8585C10.8093 39.8441 10.5952 39.7393 10.4433 39.5671C10.1786 39.308 9.93109 39.032 9.70226 38.7409C1.18498 28.3966 6.92563 12.4566 20.1019 9.96525C20.7918 9.83749 21.4902 9.74806 22.1886 9.67566C22.4612 9.64 22.7383 9.66369 23.001 9.7451C23.2636 9.82652 23.5055 9.96373 23.7102 10.1474C23.9148 10.331 24.0774 10.5567 24.1867 10.809C24.296 11.0613 24.3495 11.3342 24.3435 11.6091C24.3435 12.9335 24.3435 14.2622 24.3435 15.5909C24.3435 16.7833 23.5556 17.4051 22.376 17.1709C20.9366 16.8813 19.6462 17.6223 19.3098 18.9297C19.1995 19.342 19.1964 19.7756 19.3008 20.1894C19.4052 20.6032 19.6136 20.9835 19.9063 21.2941C20.199 21.6047 20.5662 21.8354 20.9731 21.9642C21.38 22.0929 21.8131 22.1156 22.2312 22.03C23.6749 21.7659 24.3605 22.3196 24.3605 23.7718C24.3605 25.3304 24.3605 26.8891 24.3605 28.5074H29.0663C28.7001 25.1005 31.1956 23.3203 33.4016 23.397C34.0179 23.4308 34.6202 23.5945 35.1688 23.8774C35.7174 24.1604 36.1999 24.5561 36.5848 25.0387C36.9696 25.5213 37.2481 26.0798 37.4019 26.6776C37.5557 27.2754 37.5813 27.899 37.4771 28.5074H38.8526C40.39 28.5074 41.229 29.555 40.9181 31.0626C40.2436 34.2177 38.7397 37.1358 36.5615 39.5159C34.3694 41.9549 32.8465 44.9201 32.141 48.1227C32.0266 48.6547 31.9653 49.1968 31.9579 49.7409C31.9579 51.8703 31.9579 53.957 31.9579 56.065C31.9579 58.4243 30.378 59.9957 28.0272 60H18.9393C16.5842 60 15.0085 58.4328 14.9958 56.0735C14.9958 54.3701 14.9319 52.6666 14.9958 50.9632C15.1193 48.2376 14.2718 45.7804 13.1092 43.3871C13.0496 43.2678 12.9814 43.1486 12.9175 43.0251C12.5768 42.3735 12.6663 41.8625 13.1688 41.6069C13.6713 41.3514 14.1866 41.5473 14.4464 42.2244C15.1193 43.8385 15.724 45.478 16.3457 47.1134C16.4594 47.4352 16.5533 47.7638 16.6268 48.0971ZM22.5889 15.3056C22.5889 14.1345 22.5889 13.0059 22.5889 11.8987C22.5889 11.4515 22.4313 11.3919 22.031 11.4345C18.7729 11.7371 15.6838 13.0235 13.1738 15.1228C10.6638 17.2221 8.8515 20.035 7.97751 23.1883C7.49131 24.9109 7.3168 26.7064 7.46222 28.4903H9.54043C10.818 28.4903 11.4611 29.2569 11.2439 30.5302C11.1503 30.9115 11.1486 31.3095 11.2389 31.6916C11.3292 32.0736 11.509 32.4287 11.7634 32.7277C12.1264 33.1556 12.6221 33.4497 13.1716 33.5632C13.7212 33.6767 14.2929 33.6029 14.7956 33.3537C15.2868 33.0885 15.6777 32.6697 15.9084 32.1613C16.1391 31.653 16.197 31.0831 16.0732 30.5387C15.8134 29.2824 16.4565 28.4946 17.7511 28.4903H22.5591V23.7632C21.9391 23.8703 21.3033 23.8436 20.6945 23.6849C20.0856 23.5263 19.5177 23.2393 19.0287 22.8434C18.5291 22.4465 18.1284 21.9393 17.8579 21.3614C17.5875 20.7836 17.4547 20.1509 17.47 19.5131C17.4998 16.9281 19.3268 15.4291 22.5889 15.3311V15.3056ZM24.3733 48.0971C26.3067 48.0971 28.2061 48.0971 30.0841 48.0971C30.1991 48.0971 30.3822 47.8714 30.4163 47.7223C31.2458 44.0924 33.0071 40.7415 35.5267 37.9999C37.2343 36.0821 38.4451 33.7746 39.0528 31.2797C39.1337 30.9689 39.1763 30.6452 39.2487 30.2406H37.1194C36.8543 30.2685 36.5872 30.2108 36.3573 30.076C36.1274 29.9411 35.9468 29.7361 35.8418 29.4911C35.6988 29.018 35.6639 28.5188 35.7396 28.0304C35.8247 27.4267 35.6913 26.8125 35.3633 26.2987C35.0353 25.7848 34.5343 25.4051 33.951 25.2282C33.366 25.0471 32.734 25.0967 32.1845 25.3667C31.6349 25.6367 31.2095 26.1067 30.9955 26.6804C30.8336 27.1937 30.7957 27.7381 30.8847 28.2689C31.0593 29.457 30.4589 30.2321 29.2835 30.2449C28.4318 30.2449 27.6056 30.2449 26.7666 30.2449H24.3477V34.9848C24.9689 34.8604 25.6098 34.8752 26.2245 35.0281C26.8393 35.181 27.4125 35.4682 27.903 35.869C28.3935 36.2698 28.7892 36.7743 29.0615 37.3462C29.3338 37.9181 29.476 38.5433 29.4779 39.1768C29.4799 39.8102 29.3414 40.4362 29.0726 41.0098C28.8038 41.5834 28.4112 42.0903 27.9231 42.494C27.435 42.8978 26.8636 43.1885 26.2498 43.3451C25.636 43.5017 24.9951 43.5204 24.3733 43.3998V48.0971ZM30.1608 49.8985H16.7972V51.4061C17.223 51.4061 17.5807 51.4061 17.947 51.4061C18.6156 51.4061 18.9733 51.7169 18.9818 52.2578C18.9904 52.7986 18.6071 53.1479 17.9214 53.1606C17.5424 53.1606 17.1634 53.1606 16.7972 53.1606V54.8641H30.1608V53.1606H28.4999C26.4472 53.1606 24.3988 53.1606 22.3504 53.1606C21.6137 53.1606 21.158 52.6709 21.3198 52.0789C21.3773 51.8588 21.5147 51.6679 21.7052 51.5435C21.8957 51.4191 22.1257 51.3701 22.3504 51.4061C24.7523 51.4061 27.1499 51.4061 29.5518 51.4061H30.1608V49.8985ZM16.8738 56.7123C16.954 57.1516 17.1915 57.5465 17.5419 57.8232C17.8923 58.1 18.3316 58.2395 18.7774 58.2156C19.9869 58.2156 21.2006 58.2156 22.41 58.2156C24.3222 58.2156 26.2428 58.2156 28.1507 58.2156C29.1983 58.2156 29.9776 57.5726 30.033 56.7123H16.8738Z" fill="white"/>
<path id="Vector_3" d="M37.3565 48.8338C37.3565 49.447 37.1223 49.7579 36.6752 49.8686C36.5819 49.902 36.4828 49.9163 36.3839 49.9107C36.285 49.905 36.1882 49.8796 36.0992 49.836C36.0103 49.7923 35.931 49.7312 35.8661 49.6564C35.8012 49.5815 35.7519 49.4944 35.7212 49.4002C35.3848 48.3057 35.0867 47.1985 34.844 46.0827C34.8277 45.9849 34.8314 45.8848 34.8547 45.7884C34.8781 45.692 34.9207 45.6013 34.9799 45.5218C35.0392 45.4422 35.1139 45.3755 35.1995 45.3255C35.2852 45.2756 35.3801 45.2434 35.4785 45.231C35.6643 45.1585 35.8713 45.1626 36.0541 45.2424C36.2369 45.3223 36.3806 45.4713 36.4537 45.6568C36.7859 46.7513 37.084 47.8628 37.3565 48.8338Z" fill="white"/>
<path id="Vector_4" d="M46.1032 36.1516C45.6135 36.1516 45.128 36.1132 44.6383 36.0834C44.0037 36.0408 43.6417 35.6874 43.6673 35.1465C43.6707 35.0233 43.7008 34.9023 43.7555 34.7919C43.8102 34.6815 43.8883 34.5842 43.9842 34.5069C44.0802 34.4296 44.1918 34.374 44.3113 34.344C44.4309 34.314 44.5555 34.3103 44.6766 34.3331C45.6305 34.3629 46.5887 34.4098 47.5426 34.4737C47.6639 34.4701 47.7846 34.4918 47.8971 34.5372C48.0095 34.5827 48.1114 34.651 48.1961 34.7379C48.2808 34.8247 48.3466 34.9281 48.3893 35.0417C48.432 35.1553 48.4507 35.2764 48.4442 35.3976C48.4377 35.5187 48.4062 35.6372 48.3516 35.7455C48.2969 35.8538 48.2204 35.9497 48.1269 36.0269C48.0334 36.1042 47.9248 36.1612 47.8081 36.1944C47.6915 36.2276 47.5691 36.2362 47.449 36.2197C47.1934 36.2197 46.9379 36.2197 46.6867 36.2197L46.1032 36.1899V36.1516Z" fill="white"/>
<path id="Vector_5" d="M12.6133 5.36598C12.6133 4.70164 12.8816 4.34391 13.3628 4.29707C13.474 4.27582 13.5885 4.27779 13.6989 4.30285C13.8093 4.32791 13.9134 4.37552 14.0046 4.4427C14.0957 4.50987 14.172 4.59517 14.2287 4.69322C14.2853 4.79128 14.3211 4.89998 14.3338 5.01252C14.5212 6.02607 14.6787 7.04389 14.8193 8.0617C14.8355 8.17307 14.8295 8.28654 14.8016 8.39557C14.7737 8.5046 14.7244 8.60702 14.6567 8.69691C14.589 8.7868 14.5041 8.86238 14.4071 8.91928C14.31 8.97618 14.2025 9.01327 14.091 9.02841C13.9857 9.0546 13.8761 9.05885 13.769 9.0409C13.662 9.02296 13.5597 8.9832 13.4687 8.9241C13.3776 8.86499 13.2997 8.78781 13.2397 8.69733C13.1798 8.60685 13.139 8.50501 13.1201 8.39813C12.9071 7.35051 12.7666 6.29011 12.6133 5.36598Z" fill="white"/>
<path id="Vector_6" d="M1.28998 16.7493C2.19281 16.8941 3.23618 17.0389 4.27103 17.2475C4.37888 17.2651 4.48183 17.3052 4.57318 17.3652C4.66454 17.4252 4.74226 17.5037 4.80129 17.5957C4.86033 17.6877 4.89936 17.791 4.91586 17.899C4.93235 18.0071 4.92594 18.1174 4.89705 18.2228C4.88944 18.3312 4.85947 18.4369 4.80904 18.5332C4.75861 18.6294 4.6888 18.7143 4.604 18.7823C4.5192 18.8503 4.42125 18.9 4.31631 18.9283C4.21137 18.9566 4.1017 18.9629 3.99421 18.9467C2.95085 18.8232 1.91174 18.6444 0.87689 18.4485C0.762327 18.4367 0.651537 18.4009 0.551773 18.3434C0.45201 18.2859 0.365525 18.2079 0.297981 18.1146C0.230437 18.0214 0.183358 17.9149 0.159828 17.8021C0.136297 17.6894 0.136846 17.573 0.161438 17.4605C0.246611 16.9835 0.587302 16.7237 1.28998 16.7493Z" fill="white"/>
<path id="Vector_7" d="M5.23677 8.41919C5.49037 8.53661 5.73149 8.67929 5.95648 8.84505C6.62935 9.48811 7.28944 10.1525 7.94101 10.8211C8.03581 10.8982 8.11344 10.9944 8.16892 11.1033C8.22439 11.2122 8.25649 11.3315 8.26315 11.4536C8.26982 11.5757 8.2509 11.6978 8.20761 11.8121C8.16432 11.9264 8.09761 12.0304 8.01177 12.1175C7.92593 12.2045 7.82285 12.2726 7.70914 12.3175C7.59542 12.3624 7.47359 12.383 7.35145 12.378C7.22931 12.373 7.10956 12.3425 6.99987 12.2886C6.89019 12.2346 6.79299 12.1583 6.71452 12.0646C6.02888 11.4002 5.3262 10.7487 4.7087 10.0247C4.61101 9.88107 4.54461 9.71852 4.5138 9.54758C4.48298 9.37664 4.48845 9.20113 4.52984 9.03243C4.59798 8.80247 4.97274 8.64064 5.23677 8.41919Z" fill="white"/>
<path id="Vector_8" d="M41.8117 41.0918C42.0607 41.1956 42.3001 41.321 42.5272 41.4666C43.2299 42.0159 43.924 42.5823 44.6139 43.17C45.142 43.5959 45.2187 44.1069 44.8524 44.5285C44.4862 44.9501 44.0007 44.9288 43.5024 44.5285C42.7742 43.9451 42.0247 43.3829 41.3731 42.7399C41.2566 42.6029 41.1726 42.4413 41.1276 42.2672C41.0826 42.0931 41.0778 41.9111 41.1133 41.7349C41.1815 41.4921 41.5647 41.309 41.8117 41.0918Z" fill="white"/>
</g>
</g>
</svg>
