<svg width="74" height="80" viewBox="0 0 74 80" fill="none" xmlns="http://www.w3.org/2000/svg">
<g id="Capa 6">
<g id="Capa 1">
<path id="Vector" d="M53.6185 0L54.3168 0.295244C55.1005 0.567096 55.7832 1.07028 56.2749 1.73833C56.7666 2.40638 57.044 3.20786 57.0706 4.0369C57.1614 6.00709 57.1103 8.01134 57.0706 9.97018C57.0821 10.128 57.0616 10.2864 57.0101 10.436C56.9587 10.5857 56.8775 10.7233 56.7713 10.8406C56.6651 10.9579 56.5363 11.0524 56.3926 11.1185C56.2488 11.1846 56.0932 11.2208 55.935 11.225C55.7713 11.226 55.6091 11.1935 55.4585 11.1294C55.3078 11.0653 55.1719 10.9711 55.0591 10.8524C54.9463 10.7338 54.8591 10.5933 54.8027 10.4396C54.7463 10.2859 54.722 10.1223 54.7313 9.95882C54.7313 8.25549 54.7313 6.55216 54.7313 4.8034C54.7313 3.05464 54.0557 2.34492 52.2956 2.34492H5.59015C3.79598 2.34492 3.05786 3.066 3.05786 4.83747C3.05786 24.0814 3.05786 43.3214 3.05786 62.5578C3.05786 62.8133 3.05786 63.0688 3.09761 63.4037H3.98902C6.87901 63.4037 9.769 63.4037 12.659 63.4037C15.549 63.4037 17.2977 65.1922 17.3148 68.0311C17.3318 70.87 17.3148 73.8111 17.3148 76.7011V77.6379H28.8463C29.0507 77.6379 29.2608 77.6379 29.4709 77.6379C29.6273 77.6349 29.7828 77.6633 29.9281 77.7214C30.0734 77.7795 30.2056 77.8662 30.3167 77.9763C30.4279 78.0865 30.5159 78.2178 30.5754 78.3625C30.6349 78.5072 30.6648 78.6624 30.6632 78.8189C30.6637 78.9755 30.6317 79.1305 30.5694 79.2741C30.5071 79.4177 30.4157 79.5469 30.3011 79.6536C30.1865 79.7602 30.051 79.842 29.9033 79.8938C29.7555 79.9455 29.5986 79.9662 29.4425 79.9545C27.8016 79.9545 26.1607 79.9545 24.5199 79.9545C21.84 79.9545 19.1544 79.9545 16.4745 79.9545C15.9664 79.9293 15.4827 79.7286 15.1061 79.3867C10.4806 74.8218 5.87972 70.2228 1.30343 65.5897C0.934194 65.1402 0.733391 64.5759 0.735653 63.9942C0.684553 54.149 0.712942 44.2867 0.712942 34.4698C0.712942 24.8176 0.758364 15.1653 0.712942 5.51312C0.684553 2.76508 1.55893 0.851667 4.25588 0H53.6185ZM14.9244 75.6507C14.9244 72.9822 14.9698 70.2057 14.9244 67.435C14.896 66.4016 14.0273 65.7657 12.9202 65.7316C10.3708 65.7316 7.81016 65.7316 5.26652 65.7316C5.15864 65.7316 5.05076 65.7884 5.10754 65.7714C8.35523 69.0815 11.6597 72.3803 14.9244 75.6507Z" fill="white"/>
<path id="Vector_2" d="M54.7659 22.9324V17.9587C54.7659 17.2263 54.7659 16.4995 54.7659 15.7728C54.7659 14.8473 55.2314 14.3476 55.9752 14.3647C56.719 14.3817 57.1108 14.8643 57.1108 15.7614C57.1108 17.8452 57.1108 19.9232 57.1108 22.007V22.8927C58.0136 23.0687 58.8879 23.1766 59.7282 23.4151C65.8943 25.1695 69.846 29.178 71.027 35.4633C72.208 41.7486 70.0504 46.8983 64.9518 50.7479C63.6913 51.7017 62.993 52.7578 63.1179 54.3533C63.1924 54.9904 63.1156 55.6361 62.8936 56.2379C62.6716 56.8397 62.3108 57.3806 61.8404 57.8167C61.6853 58.0136 61.6048 58.2589 61.6133 58.5094C61.6133 59.645 61.6133 60.7464 61.6133 61.865C61.6133 64.3348 60.1484 65.8394 57.6388 65.953L57.071 66.0097V66.8728C57.071 69.6606 57.071 72.4427 57.071 75.2305C57.071 78.217 55.2882 79.9827 52.3074 79.9827H35.4841C35.25 80.0056 35.0142 80.0056 34.7801 79.9827C34.4789 79.9827 34.1901 79.8631 33.9771 79.6502C33.7642 79.4372 33.6445 79.1484 33.6445 78.8472C33.6445 78.546 33.7642 78.2572 33.9771 78.0442C34.1901 77.8313 34.4789 77.7116 34.7801 77.7116C35.0387 77.686 35.2993 77.686 35.5579 77.7116H52.1938C54.0902 77.7116 54.7659 77.0303 54.7659 75.1169V66.0325L53.8801 65.987C52.9483 65.9427 52.0667 65.5518 51.4082 64.8912C50.7496 64.2305 50.3616 63.3476 50.3202 62.4157C50.2691 61.1439 50.3202 59.8664 50.2804 58.5889C50.2736 58.2909 50.1608 58.0051 49.9625 57.7826C49.1796 56.9668 48.7493 55.8756 48.7645 54.745C48.7785 53.9464 48.6634 53.1507 48.4238 52.3888C48.1452 51.8341 47.7238 51.3638 47.2031 51.0261C42.4451 47.4661 40.2308 42.782 40.6396 36.9055C41.1165 30.0921 46.8227 24.0453 53.5906 23.1425L54.7659 22.9324ZM57.1108 56.4313H57.9C58.4224 56.4313 58.9447 56.4313 59.4614 56.4313C59.8067 56.4037 60.1299 56.2503 60.3696 56.0002C60.6093 55.75 60.7488 55.4206 60.7616 55.0743C60.7899 54.7646 60.7899 54.4529 60.7616 54.1432C60.6651 51.9175 61.6303 50.2937 63.4131 48.9821C67.768 45.7798 69.5792 41.4306 68.7559 36.0935C67.6828 28.9566 60.5913 24.0964 53.4543 25.4988C51.7411 25.8391 50.1135 26.5196 48.668 27.5C47.2224 28.4805 45.9882 29.7409 45.0385 31.2069C44.0887 32.6728 43.4427 34.3143 43.1387 36.0343C42.8346 37.7544 42.8787 39.5179 43.2684 41.2206C43.9698 44.3809 45.8423 47.1582 48.509 48.9934C49.1939 49.4226 49.7786 49.9941 50.2234 50.669C50.6681 51.344 50.9625 52.1067 51.0867 52.9054C51.1775 53.5754 51.1264 54.2567 51.1548 54.9324C51.1397 55.2894 51.261 55.6389 51.494 55.9098C51.727 56.1808 52.0543 56.353 52.4096 56.3916C53.1761 56.4484 53.9483 56.3916 54.7148 56.3916C54.7458 56.2953 54.7686 56.1965 54.7829 56.0963C54.7829 52.5818 54.7829 49.0673 54.7829 45.5527C54.7389 45.2587 54.5871 44.9916 54.3571 44.8032C53.3464 43.9459 52.3017 43.0999 51.2684 42.2937C50.5189 41.6861 49.7581 41.1013 49.037 40.4597C48.8457 40.2738 48.726 40.0264 48.6989 39.761C48.6718 39.4957 48.739 39.2292 48.8887 39.0084C49.0383 38.7876 49.261 38.6265 49.5176 38.5535C49.7741 38.4804 50.0482 38.5 50.2918 38.6088C50.5169 38.7381 50.7281 38.8903 50.922 39.063L55.9355 43.0942C56.1683 42.9182 56.3784 42.7649 56.5771 42.6059C58.1555 41.3341 59.7169 40.0339 61.3351 38.8075C61.521 38.6888 61.7304 38.6116 61.9489 38.5812C62.1674 38.5509 62.3899 38.568 62.6012 38.6315C62.7813 38.7362 62.9336 38.8827 63.0452 39.0586C63.1569 39.2345 63.2246 39.4346 63.2428 39.6421C63.1784 40.0677 62.9552 40.4532 62.6182 40.7209C60.9603 42.1063 59.2513 43.4292 57.5991 44.8203C57.3265 45.0685 57.1598 45.4121 57.1335 45.7798C57.0767 47.1311 57.1335 48.4824 57.1335 49.8394L57.1108 56.4313ZM52.6537 58.8103C52.6537 60.0197 52.6537 61.1382 52.6537 62.2511C52.6529 62.4292 52.6878 62.6056 52.7563 62.7701C52.8248 62.9345 52.9255 63.0835 53.0525 63.2084C53.1795 63.3333 53.3302 63.4315 53.4957 63.4972C53.6613 63.5629 53.8383 63.5948 54.0164 63.591C55.3166 63.6251 56.6168 63.591 57.917 63.591C58.2232 63.6028 58.5224 63.4981 58.7542 63.2978C58.9861 63.0976 59.1333 62.8168 59.1661 62.5122C59.2627 61.2858 59.1661 60.0481 59.1661 58.8046L52.6537 58.8103Z" fill="white"/>
<path id="Vector_3" d="M28.9484 10.5948H45.8171C46.1294 10.5948 46.5211 10.5153 46.7312 10.6686C47.0926 10.923 47.3679 11.2815 47.5204 11.6963C47.5504 11.8187 47.5552 11.946 47.5346 12.0704C47.5139 12.1947 47.4683 12.3136 47.4003 12.4198C47.3323 12.5259 47.2435 12.6172 47.1393 12.688C47.035 12.7589 46.9174 12.8078 46.7937 12.8319C46.4677 12.9165 46.131 12.9529 45.7944 12.9397H11.6766C10.8193 12.9114 10.3026 12.4798 10.2856 11.8042C10.2685 11.1285 10.7795 10.6175 11.6937 10.6175L28.9484 10.5948Z" fill="white"/>
<path id="Vector_4" d="M28.853 59.0488H12.0694C11.831 59.0488 11.5982 59.0488 11.3654 59.0488C11.0642 59.0759 10.7646 58.9822 10.5325 58.7884C10.3004 58.5947 10.1547 58.3166 10.1276 58.0154C10.1005 57.7142 10.1942 57.4146 10.388 57.1825C10.5818 56.9504 10.8598 56.8048 11.161 56.7777C11.4658 56.7194 11.7766 56.6984 12.0865 56.7152C23.3058 56.7152 34.5232 56.7152 45.7387 56.7152C46.0523 56.6982 46.3669 56.7191 46.6755 56.7777C46.9767 56.8002 47.2565 56.9415 47.4535 57.1705C47.6505 57.3994 47.7485 57.6972 47.7259 57.9984C47.7033 58.2996 47.562 58.5794 47.3331 58.7764C47.1041 58.9734 46.8063 59.0714 46.5052 59.0488C46.2724 59.0488 46.0339 59.0488 45.8011 59.0488H28.853Z" fill="white"/>
<path id="Vector_5" d="M28.943 16.3634H45.806C46.1183 16.3634 46.5101 16.2782 46.7202 16.4372C47.0852 16.6842 47.3633 17.0397 47.5151 17.4535C47.5468 17.5752 47.5533 17.7021 47.5341 17.8265C47.5149 17.9508 47.4704 18.0698 47.4034 18.1763C47.3363 18.2827 47.2481 18.3742 47.1443 18.4452C47.0405 18.5162 46.9232 18.5652 46.7997 18.5891C46.4736 18.6737 46.1369 18.7101 45.8004 18.6969H11.6826C10.7855 18.6629 10.2632 18.2086 10.2859 17.4762C10.3086 16.7438 10.7969 16.3407 11.6883 16.3407H28.943V16.3634Z" fill="white"/>
<path id="Vector_6" d="M27.6146 53.2974H12.0745C11.8155 53.3145 11.5556 53.3145 11.2966 53.2974C11.0334 53.274 10.7865 53.1594 10.5986 52.9735C10.4107 52.7876 10.2936 52.542 10.2673 52.279C10.2411 52.016 10.3074 51.7521 10.4549 51.5327C10.6024 51.3134 10.8217 51.1523 11.0752 51.0774C11.3505 51.0009 11.6357 50.9665 11.9212 50.9752H43.2285C43.5388 50.9623 43.8493 50.9987 44.1483 51.083C44.392 51.1651 44.6007 51.3275 44.7402 51.5437C44.8796 51.7598 44.9415 52.0169 44.9158 52.2728C44.8901 52.5287 44.7782 52.7684 44.5985 52.9524C44.4189 53.1365 44.1821 53.2541 43.9268 53.286C43.6679 53.306 43.4079 53.306 43.149 53.286L27.6146 53.2974Z" fill="white"/>
<path id="Vector_7" d="M27.6143 22.1434H43.0749C43.3611 22.1321 43.6478 22.1435 43.9322 22.1775C44.2005 22.2039 44.4505 22.3248 44.6378 22.5187C44.825 22.7125 44.9372 22.9667 44.9542 23.2356C44.9713 23.5046 44.8921 23.7709 44.7309 23.9869C44.5697 24.2028 44.3369 24.3544 44.0742 24.4145C43.8215 24.4752 43.5618 24.5019 43.302 24.494H11.9209C11.6342 24.5041 11.3474 24.4735 11.0693 24.4032C10.8131 24.3359 10.5915 24.1749 10.4484 23.9519C10.3054 23.7289 10.2514 23.4604 10.2971 23.1995C10.3026 22.948 10.3997 22.7072 10.5701 22.5222C10.7404 22.3372 10.9724 22.2207 11.2226 22.1945C11.5332 22.1547 11.8463 22.1376 12.1594 22.1434H27.6143Z" fill="white"/>
<path id="Vector_8" d="M33.5762 64.8459H21.4087C21.1743 64.8629 20.939 64.8629 20.7046 64.8459C20.4035 64.87 20.1051 64.7734 19.8751 64.5775C19.6451 64.3816 19.5023 64.1023 19.4782 63.8012C19.4541 63.5 19.5507 63.2016 19.7466 62.9716C19.9425 62.7416 20.2218 62.5989 20.523 62.5748C20.8285 62.5075 21.1418 62.4827 21.4541 62.501H45.7891C46.0488 62.4837 46.3097 62.4951 46.5669 62.535C46.7109 62.5491 46.8506 62.5918 46.978 62.6605C47.1053 62.7292 47.2177 62.8225 47.3086 62.9351C47.3995 63.0476 47.4671 63.1772 47.5074 63.3161C47.5477 63.4551 47.56 63.6007 47.5435 63.7444C47.545 63.8885 47.5177 64.0314 47.4631 64.1647C47.4085 64.298 47.3277 64.4191 47.2256 64.5207C47.1235 64.6223 47.002 64.7024 46.8684 64.7563C46.7348 64.8102 46.5917 64.8368 46.4477 64.8345C46.2149 64.8345 45.9821 64.8345 45.7493 64.8345L33.5762 64.8459Z" fill="white"/>
<path id="Vector_9" d="M33.5764 70.6203C29.4373 70.6203 25.3039 70.6203 21.1705 70.6203C20.6767 70.6058 20.2073 70.4026 19.8589 70.0525C19.3479 69.428 19.8589 68.4968 20.6765 68.3492C20.9354 68.3292 21.1954 68.3292 21.4543 68.3492H45.795C45.9767 68.3492 46.1584 68.3492 46.3628 68.3492C46.5171 68.3439 46.671 68.369 46.8156 68.4233C46.9603 68.4775 47.0928 68.5597 47.2057 68.6651C47.3185 68.7706 47.4094 68.8973 47.4733 69.0379C47.5372 69.1785 47.5727 69.3304 47.5778 69.4847C47.5847 69.6488 47.5558 69.8124 47.4933 69.9643C47.4308 70.1162 47.3361 70.2527 47.2158 70.3644C47.0954 70.4761 46.9523 70.5604 46.7962 70.6114C46.6401 70.6625 46.4748 70.6791 46.3117 70.66C44.1825 70.66 42.0476 70.66 39.9185 70.66L33.5764 70.6203Z" fill="white"/>
<path id="Vector_10" d="M24.0944 35.9971H12.0802C11.7687 36.0099 11.4567 35.9909 11.149 35.9404C11.0249 35.9265 10.9049 35.8877 10.7962 35.8263C10.6875 35.7648 10.5923 35.682 10.5165 35.5828C10.4406 35.4836 10.3856 35.3701 10.3548 35.249C10.324 35.128 10.318 35.002 10.3371 34.8786C10.4653 34.4297 10.7315 34.0324 11.0979 33.7431C11.291 33.5784 11.6998 33.6352 12.0064 33.6352H36.1086C36.3419 33.6266 36.5755 33.638 36.8069 33.6693C36.9515 33.6785 37.0928 33.7167 37.2224 33.7814C37.352 33.8462 37.4673 33.9363 37.5616 34.0464C37.6558 34.1565 37.727 34.2843 37.7709 34.4224C37.8149 34.5605 37.8308 34.7059 37.8176 34.8502C37.8239 34.9951 37.8002 35.1397 37.7482 35.2751C37.6962 35.4105 37.6168 35.5336 37.515 35.637C37.4133 35.7403 37.2914 35.8216 37.1568 35.8757C37.0223 35.9299 36.8781 35.9558 36.7331 35.9517C35.7452 35.9915 34.7572 35.9517 33.7693 35.9517L24.0944 35.9971Z" fill="white"/>
<path id="Vector_11" d="M24.06 47.5288C19.9776 47.5288 15.8953 47.5288 11.813 47.5288C11.4112 47.5387 11.0156 47.428 10.6774 47.2108C10.5367 47.079 10.4319 46.9134 10.3729 46.7298C10.3138 46.5462 10.3025 46.3506 10.34 46.1615C10.3775 45.9723 10.4626 45.7958 10.5872 45.6486C10.7118 45.5014 10.8718 45.3884 11.0522 45.3201C11.3723 45.2235 11.7059 45.1794 12.0401 45.1895C20.0533 45.1895 28.0647 45.1895 36.0741 45.1895C36.2331 45.1895 36.3864 45.1895 36.5454 45.1895C36.7083 45.1796 36.8716 45.2023 37.0257 45.2562C37.1797 45.3102 37.3215 45.3944 37.4426 45.5039C37.5637 45.6133 37.6617 45.7459 37.7309 45.8937C37.8001 46.0416 37.8391 46.2017 37.8456 46.3648C37.8456 47.0575 37.3232 47.5004 36.4829 47.5004C32.3382 47.5269 28.1972 47.5364 24.06 47.5288Z" fill="white"/>
<path id="Vector_12" d="M24.0148 27.895H35.9381C36.1972 27.8807 36.4569 27.8807 36.7159 27.895C37.0043 27.9064 37.2775 28.0273 37.48 28.2329C37.6825 28.4386 37.7991 28.7136 37.8061 29.0021C37.8137 29.1522 37.7915 29.3023 37.7407 29.4437C37.6898 29.5852 37.6115 29.7151 37.5101 29.826C37.4087 29.9369 37.2863 30.0266 37.1499 30.0898C37.0136 30.1531 36.8661 30.1887 36.7159 30.1945C36.4815 30.2086 36.2464 30.2086 36.0119 30.1945H11.6826C10.8026 30.1604 10.3086 29.763 10.2859 29.0589C10.2632 28.3549 10.7685 27.8609 11.6883 27.8552C15.799 27.8893 19.904 27.895 24.0148 27.895Z" fill="white"/>
<path id="Vector_13" d="M24.0989 41.7657H12.0847C11.7985 41.7773 11.5118 41.7659 11.2274 41.7316C10.9772 41.708 10.7446 41.593 10.5739 41.4086C10.4032 41.2243 10.3064 40.9836 10.3019 40.7324C10.2518 40.4718 10.3033 40.2019 10.4458 39.9781C10.5883 39.7543 10.8111 39.5935 11.0684 39.5287C11.3954 39.4506 11.7317 39.4181 12.0677 39.4321H36.0222C37.2657 39.4321 37.8505 39.8296 37.8334 40.6472C37.8164 41.4648 37.2657 41.7827 36.0393 41.7827L24.0989 41.7657Z" fill="white"/>
<path id="Vector_14" d="M65.8433 14.3762C66.8824 14.4046 67.4331 15.1541 67.1663 15.9319C66.857 16.8143 66.4988 17.6786 66.0932 18.521C66.0389 18.6555 65.9578 18.7776 65.8549 18.8797C65.7519 18.9819 65.6292 19.0619 65.4942 19.1151C65.3592 19.1682 65.2149 19.1933 65.0699 19.1888C64.9249 19.1842 64.7824 19.1502 64.651 19.0888C64.5095 19.0381 64.3795 18.9598 64.2685 18.8585C64.1575 18.7572 64.0677 18.6349 64.0044 18.4987C63.941 18.3624 63.9053 18.2149 63.8993 18.0648C63.8934 17.9146 63.9173 17.7648 63.9697 17.6239C64.2723 16.7411 64.6347 15.8799 65.0541 15.0462C65.2301 14.7055 65.6787 14.5068 65.8433 14.3762Z" fill="white"/>
<path id="Vector_15" d="M72.3271 20.3037C72.6848 20.6671 73.1901 20.9453 73.2753 21.3257C73.3112 21.5528 73.2923 21.7851 73.2202 22.0034C73.1481 22.2216 73.0249 22.4195 72.8608 22.5805C71.9453 23.1031 70.9689 23.5112 69.9538 23.7955C69.7271 23.7867 69.5058 23.7239 69.3083 23.6123C69.1108 23.5007 68.9428 23.3436 68.8182 23.154C68.7435 22.95 68.722 22.7303 68.7558 22.5157C68.7896 22.3011 68.8775 22.0987 69.0113 21.9276C69.9822 21.3257 71.0894 20.8828 72.3271 20.3037Z" fill="white"/>
</g>
</g>
</svg>
