<svg width="61" height="60" viewBox="0 0 61 60" fill="none" xmlns="http://www.w3.org/2000/svg">
<g id="Capa 9">
<g id="Capa 1">
<path id="Vector" d="M52.8517 0C53.363 0.115024 53.8827 0.191707 54.3811 0.349332C54.9559 0.53194 55.5168 0.755459 56.0596 1.01818C56.1691 1.06064 56.2687 1.12529 56.352 1.20805C56.4353 1.29082 56.5007 1.38992 56.5439 1.49913C56.5871 1.60835 56.6072 1.72531 56.6031 1.84269C56.5989 1.96006 56.5705 2.07531 56.5197 2.1812C56.4714 2.29435 56.3991 2.39569 56.3079 2.47826C56.2167 2.56082 56.1087 2.62265 55.9913 2.65949C55.8739 2.69633 55.7499 2.7073 55.6278 2.69166C55.5058 2.67602 55.3886 2.63413 55.2843 2.56887C54.0903 1.99482 52.774 1.72134 51.4502 1.77222C37.3263 1.77222 23.2025 1.77222 9.07872 1.77222C6.02419 1.78074 3.58313 3.42942 2.582 6.12183C2.23207 7.09381 2.11756 8.1349 2.24785 9.15971C2.37815 10.1845 2.74954 11.1638 3.33156 12.0173C3.91358 12.8708 4.68965 13.5742 5.5961 14.0697C6.50255 14.5652 7.51356 14.8387 8.5462 14.8679C9.42805 14.8679 9.97761 15.132 10.3184 15.9585C10.632 16.6212 10.9804 17.2668 11.3622 17.8926C11.7882 17.0789 12.1758 16.3718 12.5209 15.6433C12.6222 15.4029 12.7984 15.2017 13.0234 15.0697C13.2483 14.9376 13.5099 14.8818 13.7691 14.9105C15.158 14.9361 16.5468 14.9105 17.9313 14.9105C18.6555 14.9105 19.0773 15.2471 19.073 15.8009C19.0688 16.3547 18.647 16.6529 17.9143 16.6529C16.7598 16.6529 15.6095 16.6529 14.455 16.6529C14.3137 16.6307 14.1692 16.6586 14.0463 16.7318C13.9233 16.8049 13.8299 16.9186 13.7819 17.0534C13.505 17.6541 13.177 18.2334 12.8745 18.8256C12.7454 19.1179 12.5341 19.3664 12.2664 19.5408C11.9986 19.7152 11.686 19.8081 11.3664 19.8081C11.0469 19.8081 10.7342 19.7152 10.4665 19.5408C10.1987 19.3664 9.98745 19.1179 9.85833 18.8256C9.53882 18.2207 9.24061 17.6029 8.88275 17.0236C8.81166 16.922 8.72059 16.8359 8.61511 16.7707C8.50963 16.7055 8.39196 16.6626 8.26929 16.6444C6.21539 16.5043 4.28638 15.6076 2.85516 14.1278C1.42395 12.648 0.592184 10.6902 0.520653 8.63272C0.449122 6.57528 1.14291 4.56438 2.46789 2.98876C3.79288 1.41314 5.65496 0.384697 7.69417 0.102244C7.82118 0.0761537 7.9464 0.0420034 8.06907 0L52.8517 0Z" fill="white"/>
<path id="Vector_2" d="M60.4657 9.2617C60.372 9.68771 60.2868 10.1137 60.176 10.5057C59.717 12.1945 58.7395 13.6967 57.3813 14.8004C56.0231 15.904 54.3527 16.5536 52.6057 16.6573C52.4921 16.6771 52.3836 16.7198 52.2869 16.7828C52.1903 16.8458 52.1074 16.9277 52.0434 17.0237C51.6813 17.6201 51.3788 18.2591 51.0422 18.8726C50.9069 19.1552 50.6936 19.3933 50.4275 19.5588C50.1615 19.7242 49.8536 19.8102 49.5403 19.8067C49.227 19.8031 48.9212 19.7101 48.659 19.5385C48.3967 19.367 48.189 19.1241 48.0601 18.8385L47.9238 18.5786C47.583 17.9481 47.3828 17.0833 46.8545 16.751C46.3262 16.4187 45.4913 16.6616 44.7883 16.6531C43.9363 16.6531 43.0843 16.6531 42.2322 16.6531C41.5549 16.6531 41.1459 16.3037 41.1544 15.7669C41.1629 15.2302 41.5804 14.9149 42.2535 14.9149C43.915 14.9149 45.5722 14.9149 47.2337 14.9149C47.4777 14.8959 47.7215 14.955 47.9298 15.0837C48.1381 15.2123 48.3001 15.4039 48.3924 15.6306C48.7503 16.3634 49.1379 17.0833 49.5725 17.9311C49.9516 17.2282 50.3308 16.6275 50.612 15.98C50.7339 15.6346 50.968 15.34 51.2768 15.1432C51.5856 14.9463 51.9515 14.8584 52.316 14.8936C53.4324 14.8731 54.5249 14.5665 55.489 14.0032C56.4531 13.4398 57.2565 12.6385 57.8224 11.6759C58.3883 10.7134 58.6978 9.6217 58.7213 8.50534C58.7448 7.38898 58.4814 6.28527 57.9564 5.29976L57.9309 5.24864C57.5049 4.45625 57.556 3.97059 58.0885 3.67664C58.621 3.38269 59.1365 3.62978 59.4731 4.44347C59.8778 5.402 60.1547 6.42018 60.4827 7.42558L60.4657 9.2617Z" fill="white"/>
<path id="Vector_3" d="M60.4666 51.5733C60.3502 51.9488 60.1225 52.2802 59.8137 52.5237C59.5048 52.7671 59.1294 52.911 58.737 52.9365L50.877 53.6778C50.6831 53.7144 50.4826 53.6868 50.3057 53.5991C50.1289 53.5115 49.9855 53.3686 49.8972 53.1921C49.5905 52.5872 50.0165 51.9737 50.7748 51.9141C52.4789 51.7948 54.1616 51.6968 55.8529 51.5477C56.7816 51.4668 57.7018 51.2963 58.7072 51.1558C58.7072 50.1546 58.7072 49.1876 58.7072 48.2205C58.7072 48.0842 58.5325 47.9308 58.409 47.8243C57.7955 47.279 57.165 46.755 56.5516 46.214C56.0787 45.788 56.0105 45.2768 56.3556 44.8848C56.4386 44.7947 56.5393 44.7228 56.6515 44.6736C56.7637 44.6244 56.8849 44.599 57.0074 44.599C57.1299 44.599 57.2511 44.6244 57.3633 44.6736C57.4754 44.7228 57.5762 44.7947 57.6592 44.8848C58.3962 45.4983 59.1332 46.1117 59.8276 46.7635C60.0797 47.0527 60.2997 47.3684 60.4837 47.705L60.4666 51.5733Z" fill="white"/>
<path id="Vector_4" d="M38.7591 23.0431C37.1658 22.8641 35.6406 22.6511 34.107 22.5319C30.4022 22.2475 26.6771 22.3904 23.005 22.9579C22.4896 23.0346 22.2851 23.1922 22.3021 23.7503C22.3447 25.1178 22.2766 26.4853 22.3319 27.8528C22.384 28.7662 22.4935 29.6754 22.66 30.575C22.7579 31.197 22.5748 31.6486 22.0593 31.7764C21.9364 31.8125 21.8069 31.8204 21.6804 31.7995C21.554 31.7787 21.4339 31.7296 21.3291 31.6559C21.2243 31.5822 21.1375 31.4858 21.0751 31.3739C21.0127 31.262 20.9763 31.1374 20.9687 31.0096C20.7558 30.0194 20.6247 29.0135 20.5768 28.0019C20.5299 24.7599 20.5768 21.5179 20.5768 18.276C20.5377 17.0989 20.7894 15.9304 21.3095 14.8737C21.8297 13.8171 22.6022 12.905 23.5589 12.218C24.5089 11.5023 25.4759 11.6983 25.9701 12.7719C26.0664 13.0486 26.2571 13.2827 26.5087 13.433C26.7603 13.5834 27.0567 13.6404 27.3461 13.5941C29.4379 13.5387 31.5296 13.5685 33.6171 13.5941C37.6812 13.5941 40.5313 16.4739 40.5355 20.5466C40.5355 23.0303 40.5355 25.5097 40.5355 27.9891C40.5765 29.688 40.1837 31.3694 39.3944 32.8743C38.605 34.3793 37.445 35.6582 36.0241 36.5903C35.833 36.7586 35.7053 36.9871 35.6619 37.2379C35.3467 38.8269 35.9687 39.8749 37.3277 40.8036C39.5174 42.2989 41.5537 44.0158 43.6455 45.6559C44.9715 46.639 46.0423 47.9258 46.768 49.4084C47.4937 50.8909 47.8532 52.526 47.8161 54.1762C47.8161 55.7397 47.8161 57.2989 47.8161 58.8624C47.8161 59.5909 47.4881 60.0084 46.9343 59.9999C46.3805 59.9913 46.0823 59.5738 46.0823 58.8368C46.0823 57.2563 46.0823 55.6716 46.0823 54.091C46.1077 52.7795 45.8262 51.4802 45.2604 50.2968C44.6946 49.1133 43.86 48.0785 42.8232 47.2748C40.4759 45.3918 38.0817 43.577 35.7045 41.7366C35.6279 41.677 35.5469 41.6301 35.4532 41.5705C34.5287 43.7857 32.944 45.1234 30.5072 45.1575C27.9937 45.1916 26.3535 43.8411 25.395 41.5321C22.7026 43.5727 20.0485 45.5835 17.4924 47.7136C16.722 48.4526 16.0824 49.3169 15.6009 50.2697C15.01 51.3587 14.7162 52.5841 14.7489 53.8226C14.7489 55.4628 14.7489 57.1072 14.7489 58.7474C14.7489 58.9561 14.7787 59.2416 14.6637 59.3651C14.4432 59.6336 14.1459 59.8284 13.8116 59.9232C13.7123 59.936 13.6114 59.9273 13.5157 59.8978C13.42 59.8682 13.3318 59.8183 13.2571 59.7517C13.1823 59.685 13.1228 59.6031 13.0825 59.5114C13.0422 59.4197 13.0221 59.3204 13.0235 59.2202C13.0533 56.8005 12.9511 54.3637 13.2365 51.978C13.5475 49.3537 15.0428 47.2918 17.1303 45.6602C19.648 43.7133 22.1573 41.7494 24.6793 39.811C24.8253 39.7005 24.9445 39.5585 25.0279 39.3954C25.1112 39.2324 25.1566 39.0526 25.1607 38.8695C25.3013 37.4722 25.1266 36.2708 23.7335 35.5296C23.4439 35.3287 23.194 35.0759 22.9965 34.784C22.9221 34.6984 22.8654 34.5988 22.83 34.491C22.7946 34.3832 22.781 34.2695 22.7901 34.1564C22.7993 34.0433 22.8309 33.9331 22.8832 33.8324C22.9354 33.7317 23.0073 33.6425 23.0945 33.5699C23.2525 33.4213 23.4612 33.3386 23.6781 33.3386C23.895 33.3386 24.1038 33.4213 24.2618 33.5699C24.3811 33.6721 24.479 33.7999 24.5898 33.9065C27.1246 36.3731 30.128 37.1442 33.4168 35.8959C36.7057 34.6477 38.529 32.0618 38.7335 28.5216C38.8443 26.7537 38.7591 24.9516 38.7591 23.0431ZM24.4407 13.7474C23.4326 14.4505 22.7411 15.5214 22.5151 16.7295C22.3804 18.1071 22.3164 19.4906 22.3234 20.8747C22.3287 21.0189 22.3516 21.162 22.3916 21.3007C27.7948 20.421 33.3047 20.421 38.7079 21.3007C39.134 17.8457 36.9272 15.3365 33.5319 15.3365C31.4018 15.3365 29.2376 15.2683 27.0948 15.362C25.8551 15.4174 24.9647 15.1703 24.5728 13.8838C24.5643 13.8582 24.5217 13.8326 24.4407 13.7474ZM26.9159 37.5702C26.9159 38.4691 26.886 39.2742 26.9159 40.0964C26.9547 40.872 27.253 41.612 27.7629 42.1976C28.2728 42.7832 28.9647 43.1805 29.7276 43.3256C30.4805 43.4686 31.2596 43.3605 31.9452 43.0181C32.6309 42.6756 33.1853 42.1177 33.5233 41.4299C34.1112 40.2328 33.8216 38.9718 33.8769 37.6639C31.6153 38.4369 29.1559 38.4037 26.9159 37.5702Z" fill="white"/>
<path id="Vector_5" d="M13.4277 39.564C12.1017 40.0731 10.6342 40.0731 9.30815 39.564C9.30815 40.2115 9.28259 40.7781 9.30815 41.3362C9.32808 41.5881 9.28383 41.841 9.17953 42.0712C9.07523 42.3014 8.91428 42.5014 8.71173 42.6526C6.71372 44.3566 4.74127 46.0607 2.74752 47.7648C2.60556 47.8657 2.49185 48.0013 2.41727 48.1586C2.34268 48.316 2.30971 48.4899 2.3215 48.6637C2.35133 49.3027 2.35133 49.9417 2.3215 50.5935C2.3215 50.994 2.38967 51.1942 2.84124 51.2325C5.25249 51.4455 7.65947 51.6884 10.0835 51.9227C10.1772 51.9227 10.2795 51.9227 10.3732 51.9227C10.4917 51.9195 10.6095 51.941 10.7192 51.9859C10.8289 52.0308 10.928 52.0981 11.0102 52.1835C11.0924 52.2689 11.1559 52.3706 11.1966 52.4819C11.2372 52.5932 11.2543 52.7118 11.2465 52.8301C11.247 52.9487 11.2227 53.0662 11.1752 53.1749C11.1276 53.2836 11.0579 53.3812 10.9705 53.4614C10.8831 53.5416 10.7798 53.6026 10.6675 53.6407C10.5551 53.6787 10.436 53.6928 10.3178 53.6821C9.32519 53.6821 8.32405 53.648 7.3357 53.5458C5.5862 53.3498 3.84806 53.1269 2.12128 52.8769C1.68402 52.8411 1.2787 52.6337 0.993774 52.3001C0.708845 51.9665 0.567436 51.5337 0.600404 51.0962C0.600404 50.1419 0.600404 49.1834 0.600404 48.2249C0.602697 47.9123 0.676899 47.6045 0.817262 47.3253C0.957626 47.046 1.16038 46.8028 1.40983 46.6145C3.34394 44.9644 5.26527 43.3044 7.17381 41.6344C7.36201 41.4078 7.48824 41.1362 7.54019 40.8463C7.56377 40.6539 7.56377 40.4593 7.54019 40.2669C7.59557 39.2274 7.54019 38.2732 6.7265 37.4211C6.10087 36.7034 5.77321 35.7738 5.81057 34.8224C5.81057 33.4975 5.69128 32.1428 5.92133 30.852C6.17887 29.5523 6.89381 28.388 7.93642 27.5704C8.97903 26.7528 10.2802 26.3361 11.6038 26.3959C12.9274 26.4557 14.1857 26.988 15.1504 27.8963C16.115 28.8045 16.7221 30.0285 16.8614 31.3462C16.965 32.6696 16.9536 33.9994 16.8273 35.3209C16.6925 36.3767 16.2238 37.3619 15.4896 38.1326C15.3363 38.3647 15.2319 38.6256 15.1829 38.8994C15.1743 39.0541 15.1743 39.2091 15.1829 39.3638C15.0082 40.6674 15.2553 41.7537 16.4908 42.495C16.5976 42.558 16.6888 42.6445 16.7575 42.7478C16.8262 42.8512 16.8707 42.9687 16.8875 43.0917C16.9043 43.2147 16.893 43.3398 16.8546 43.4578C16.8161 43.5758 16.7515 43.6836 16.6654 43.773C16.5862 43.8666 16.4882 43.9426 16.3778 43.9958C16.2673 44.0491 16.1469 44.0784 16.0243 44.0821C15.9017 44.0857 15.7798 44.0634 15.6664 44.0168C15.553 43.9702 15.4506 43.9002 15.3661 43.8113C14.8276 43.3899 14.3128 42.939 13.8239 42.4609C13.6099 42.2245 13.4771 41.926 13.4448 41.6088C13.3894 40.9613 13.4277 40.318 13.4277 39.564ZM7.54871 33.1482H7.57001C7.54231 33.6931 7.54231 34.2391 7.57001 34.7841C7.6652 35.7045 8.09292 36.5585 8.77293 37.1859C9.45294 37.8134 10.3385 38.1712 11.2636 38.1922C12.1918 38.2245 13.0988 37.9099 13.8077 37.3097C14.5166 36.7096 14.9765 35.8669 15.0977 34.946C15.2284 33.8142 15.2384 32.6717 15.1275 31.5379C15.039 30.5851 14.5904 29.7021 13.8732 29.0688C13.156 28.4354 12.2242 28.0996 11.2678 28.1297C10.3012 28.1566 9.38036 28.5477 8.68989 29.2248C7.99941 29.9018 7.59028 30.8147 7.54445 31.7807C7.51889 32.245 7.54871 32.6966 7.54871 33.1482Z" fill="white"/>
<path id="Vector_6" d="M51.7748 39.6745C51.0841 39.8094 50.3854 39.899 49.683 39.9429C49.0042 39.8988 48.3294 39.8062 47.6637 39.666C47.6637 40.2497 47.6637 40.8461 47.6637 41.4468C47.6803 41.6611 47.6425 41.8761 47.5539 42.072C47.4652 42.2678 47.3287 42.4381 47.1568 42.5672C46.6711 42.9591 46.2153 43.3851 45.7296 43.7813C45.244 44.1775 44.7285 44.169 44.3877 43.7813C44.2981 43.6878 44.2319 43.5744 44.1945 43.4504C44.1571 43.3264 44.1495 43.1953 44.1723 43.0678C44.1952 42.9403 44.2478 42.8201 44.3259 42.7168C44.4041 42.6135 44.5055 42.5301 44.622 42.4735C46.2834 41.566 45.9 40.0452 45.9 38.6393C45.9 38.4987 45.7509 38.3369 45.6401 38.2133C44.69 37.2096 44.1596 35.8806 44.1576 34.4985C44.0976 33.3303 44.1318 32.1593 44.2599 30.9966C44.4657 29.6284 45.1761 28.3868 46.2514 27.5162C47.3267 26.6456 48.689 26.2089 50.0701 26.2923C51.4511 26.3756 52.751 26.9729 53.7138 27.9665C54.6766 28.9602 55.2326 30.2782 55.2723 31.6612C55.3623 33.0405 55.2937 34.4256 55.0679 35.7893C54.9145 36.62 54.2797 37.3613 53.858 38.1409C53.858 38.175 53.7983 38.1963 53.777 38.2304C53.2658 39.142 53.6492 40.1304 53.5725 41.0804C53.5725 41.2977 53.8282 41.5618 53.9986 41.762C54.169 41.9622 54.5098 42.188 54.7313 42.4309C54.8098 42.506 54.8722 42.5963 54.9149 42.6962C54.9576 42.7962 54.9796 42.9037 54.9796 43.0124C54.9796 43.121 54.9576 43.2286 54.9149 43.3285C54.8722 43.4285 54.8098 43.5187 54.7313 43.5939C54.6661 43.6812 54.5835 43.754 54.4888 43.808C54.3941 43.8619 54.2893 43.8957 54.181 43.9073C54.0726 43.9189 53.9631 43.908 53.8591 43.8753C53.7551 43.8427 53.659 43.7889 53.5768 43.7174C53.0313 43.3059 52.5147 42.8575 52.0304 42.3755C51.8658 42.1633 51.776 41.9027 51.7748 41.6342C51.7535 40.9611 51.7748 40.3178 51.7748 39.6745ZM45.9 33.1778C45.9 33.6251 45.9 34.0767 45.9 34.524C45.9377 35.4686 46.323 36.3659 46.982 37.0436C47.6409 37.7214 48.5269 38.1319 49.47 38.1963C50.4065 38.2662 51.3349 37.9805 52.0701 37.3962C52.8052 36.8119 53.293 35.9719 53.4362 35.0438C53.5783 33.9132 53.5997 32.7707 53.5001 31.6356C53.4223 30.6612 52.9728 29.754 52.2447 29.1018C51.5166 28.4496 50.5655 28.1024 49.5885 28.1319C48.6114 28.1615 47.6831 28.5656 46.9957 29.2606C46.3083 29.9556 45.9145 30.8884 45.8958 31.8657C45.883 32.3173 45.9 32.7475 45.9 33.1778Z" fill="white"/>
<path id="Vector_7" d="M21.3473 56.8643C21.3473 57.5843 21.3473 58.3043 21.3473 59.0242C21.3579 59.1433 21.3439 59.2633 21.3061 59.3768C21.2684 59.4902 21.2078 59.5947 21.128 59.6838C21.0483 59.7729 20.9511 59.8446 20.8425 59.8946C20.7339 59.9446 20.6162 59.9717 20.4966 59.9744C20.3771 59.977 20.2583 59.9551 20.1476 59.9099C20.0369 59.8648 19.9366 59.7973 19.853 59.7119C19.7694 59.6264 19.7043 59.5247 19.6616 59.413C19.6189 59.3013 19.5996 59.182 19.6049 59.0626C19.5822 57.5857 19.5822 56.106 19.6049 54.6235C19.5982 54.5039 19.6161 54.3843 19.6575 54.2719C19.6989 54.1596 19.763 54.057 19.8458 53.9704C19.9286 53.8839 20.0282 53.8153 20.1386 53.769C20.249 53.7226 20.3678 53.6994 20.4875 53.7009C20.6073 53.7023 20.7254 53.7284 20.8347 53.7775C20.9439 53.8265 21.0419 53.8975 21.1225 53.986C21.2031 54.0746 21.2647 54.1787 21.3034 54.2921C21.3421 54.4054 21.357 54.5255 21.3473 54.6448C21.3601 55.3818 21.3473 56.1231 21.3473 56.8643Z" fill="white"/>
<path id="Vector_8" d="M39.4549 56.8005C39.4549 56.0805 39.4549 55.3605 39.4549 54.6406C39.4549 54.4101 39.5465 54.189 39.7094 54.026C39.8724 53.863 40.0935 53.7715 40.324 53.7715C40.5545 53.7715 40.7755 53.863 40.9385 54.026C41.1015 54.189 41.193 54.4101 41.193 54.6406C41.193 56.1188 41.193 57.6227 41.193 59.0796C41.1902 59.1938 41.165 59.3062 41.1187 59.4106C41.0725 59.515 41.0061 59.6092 40.9234 59.6879C40.8408 59.7666 40.7434 59.8283 40.6369 59.8694C40.5304 59.9105 40.4168 59.9302 40.3027 59.9274C40.1885 59.9246 40.0761 59.8993 39.9717 59.8531C39.8673 59.8068 39.7731 59.7405 39.6944 59.6578C39.6157 59.5751 39.554 59.4777 39.5129 59.3712C39.4718 59.2647 39.4521 59.1512 39.4549 59.037C39.4421 58.283 39.4549 57.5417 39.4549 56.8005Z" fill="white"/>
<path id="Vector_9" d="M14.153 7.83446C14.1574 7.53044 14.2808 7.24025 14.4965 7.02605C14.7123 6.81185 15.0034 6.69067 15.3075 6.68848C15.621 6.69832 15.9187 6.8287 16.1385 7.05248C16.3583 7.27626 16.4833 7.57619 16.4875 7.88984C16.4745 8.1932 16.3459 8.48007 16.128 8.69159C15.9102 8.90311 15.6196 9.02322 15.316 9.0273C15.1604 9.02853 15.0061 8.9983 14.8625 8.93841C14.7189 8.87852 14.5889 8.79021 14.4802 8.67879C14.3716 8.56737 14.2866 8.43514 14.2304 8.29005C14.1741 8.14495 14.1478 7.98998 14.153 7.83446Z" fill="white"/>
<path id="Vector_10" d="M24.2266 7.86421C24.2243 7.55825 24.3422 7.26362 24.5549 7.04371C24.7677 6.82381 25.0582 6.69622 25.3641 6.68841C25.5236 6.67878 25.6834 6.70188 25.8336 6.75629C25.9839 6.81071 26.1214 6.89528 26.2378 7.00482C26.3541 7.11435 26.4468 7.24653 26.5102 7.39322C26.5736 7.53992 26.6062 7.69802 26.6062 7.85782C26.6062 8.01762 26.5736 8.17572 26.5102 8.32242C26.4468 8.46911 26.3541 8.60129 26.2378 8.71083C26.1214 8.82036 25.9839 8.90494 25.8336 8.95935C25.6834 9.01376 25.5236 9.03686 25.3641 9.02723C25.213 9.02556 25.0638 8.99415 24.9249 8.9348C24.786 8.87545 24.6601 8.78931 24.5545 8.68132C24.4488 8.57332 24.3655 8.44557 24.3093 8.30537C24.253 8.16517 24.2249 8.01526 24.2266 7.86421Z" fill="white"/>
<path id="Vector_11" d="M36.6894 7.86428C36.6917 8.01584 36.6639 8.16634 36.6076 8.30707C36.5512 8.4478 36.4676 8.57596 36.3614 8.68413C36.2552 8.7923 36.1286 8.87833 35.9889 8.93723C35.8493 8.99614 35.6993 9.02675 35.5477 9.0273C35.391 9.02788 35.2356 8.99722 35.0909 8.93711C34.9461 8.87699 34.8147 8.78863 34.7044 8.67718C34.5942 8.56574 34.5072 8.43344 34.4487 8.28801C34.3901 8.14259 34.3611 7.98695 34.3634 7.8302C34.3775 7.5246 34.5081 7.23601 34.7284 7.02369C34.9486 6.81136 35.2418 6.69142 35.5477 6.68848C35.8547 6.69408 36.147 6.82084 36.3609 7.0411C36.5748 7.26137 36.6929 7.55727 36.6894 7.86428Z" fill="white"/>
<path id="Vector_12" d="M46.764 7.8471C46.7686 8.00116 46.7421 8.15455 46.686 8.29812C46.6299 8.44168 46.5455 8.57246 46.4377 8.68263C46.3299 8.7928 46.201 8.88009 46.0587 8.93929C45.9164 8.99849 45.7636 9.02838 45.6095 9.02716C45.2999 9.02321 45.0046 8.89643 44.7885 8.67473C44.5724 8.45303 44.4532 8.15455 44.4571 7.84497C44.4611 7.53539 44.5879 7.24006 44.8096 7.02395C45.0313 6.80783 45.3297 6.68865 45.6393 6.6926C45.94 6.70144 46.2254 6.82684 46.4353 7.04228C46.6451 7.25772 46.763 7.54633 46.764 7.8471Z" fill="white"/>
</g>
</g>
</svg>
