<svg width="58" height="60" viewBox="0 0 58 60" fill="none" xmlns="http://www.w3.org/2000/svg">
<g id="Capa 27">
<g id="Capa 1">
<path id="Vector" d="M56.4123 0.0170309C57.3362 0.442804 57.6172 1.18791 57.6087 2.19699C57.5704 6.56968 57.6087 10.9424 57.6087 15.3151C57.6087 16.6818 57.0212 17.2694 55.6502 17.2694H22.1333C20.7666 17.2694 20.1875 16.6818 20.1875 15.3023C20.1875 10.9126 20.1875 6.51859 20.1875 2.12887C20.1875 1.13256 20.4983 0.425773 21.3924 0L56.4123 0.0170309ZM21.98 1.79676V15.4726H55.7992V1.79676H21.98Z" fill="white"/>
<path id="Vector_2" d="M38.9045 42.7518H55.5395C57.0382 42.7518 57.5917 43.2968 57.5917 44.7828C57.5917 49.1938 57.5917 53.6048 57.5917 58.0158C57.5917 59.4081 56.9956 59.9999 55.5948 59.9999C44.4481 59.9999 33.2999 59.9999 22.1503 59.9999C20.7878 59.9999 20.1875 59.4038 20.1875 58.0456C20.1875 53.5949 20.1875 49.1441 20.1875 44.6934C20.1875 43.3309 20.7751 42.7518 22.1546 42.7518H38.9045ZM55.7992 58.2244V44.5529H21.98V58.2244H55.7992Z" fill="white"/>
<path id="Vector_3" d="M55.8147 36.8507V23.128H55.1845C53.3665 23.128 51.5527 23.128 49.7346 23.128C49.52 23.1569 49.3019 23.1108 49.1173 22.9975C48.9327 22.8843 48.7928 22.7108 48.7213 22.5064C48.5212 21.9231 48.9682 21.3866 49.6878 21.3738C50.7778 21.3526 51.872 21.3738 52.9662 21.3738C53.9029 21.3738 54.8439 21.3738 55.7806 21.3738C56.9557 21.3738 57.5901 22.0338 57.5901 23.2004C57.5901 27.742 57.5901 32.2722 57.5901 36.7911C57.5901 38.0173 56.9472 38.6475 55.6954 38.6517C52.7462 38.6517 49.7971 38.6517 46.8479 38.6517C38.6432 38.6517 30.4428 38.6517 22.2424 38.6517C21.7056 38.647 21.1817 38.4857 20.7352 38.1876C20.5741 38.0391 20.4447 37.8596 20.3547 37.6599C20.2647 37.4602 20.216 37.2443 20.2115 37.0253C20.1774 32.3418 20.1817 27.6923 20.2115 23.0258C20.194 22.6158 20.338 22.2153 20.6127 21.9103C20.8874 21.6054 21.2708 21.4204 21.6804 21.3951C21.8556 21.3752 22.0321 21.3681 22.2084 21.3738H45.0554C45.2698 21.3644 45.4845 21.383 45.694 21.4292C45.888 21.4655 46.0615 21.5729 46.1804 21.7304C46.2993 21.888 46.3552 22.0842 46.3369 22.2807C46.3406 22.4896 46.2633 22.6918 46.1212 22.845C45.9792 22.9981 45.7834 23.0904 45.5748 23.1025C45.3607 23.1154 45.146 23.1154 44.9319 23.1025H21.9827V36.8507H55.8147Z" fill="white"/>
<path id="Vector_4" d="M0.392583 8.65178C0.390901 7.04312 0.866601 5.47014 1.75945 4.13201C2.6523 2.79388 3.92214 1.75077 5.40818 1.13478C6.89423 0.518788 8.52964 0.357608 10.1073 0.67165C11.6851 0.985691 13.1341 1.76083 14.271 2.89892C15.4079 4.03701 16.1815 5.48686 16.4939 7.06489C16.8063 8.64293 16.6434 10.2782 16.0258 11.7636C15.4083 13.249 14.3638 14.5177 13.0248 15.4092C11.6857 16.3006 10.1122 16.7746 8.50357 16.7713C6.35335 16.7634 4.29357 15.9052 2.77392 14.3839C1.25427 12.8627 0.398191 10.802 0.392583 8.65178ZM14.8689 8.65178C14.8739 7.38755 14.5037 6.15026 13.805 5.09664C13.1063 4.04301 12.1106 3.22045 10.9441 2.73314C9.77754 2.24584 8.49261 2.11571 7.25205 2.35924C6.01149 2.60278 4.87112 3.20902 3.97538 4.10118C3.07964 4.99334 2.46883 6.13127 2.22033 7.37084C1.97182 8.61041 2.0968 9.89585 2.57942 11.0643C3.06205 12.2328 3.88061 13.2318 4.93143 13.9347C5.98225 14.6376 7.21804 15.0128 8.48228 15.0128C10.1717 15.0128 11.7923 14.3435 12.9893 13.1513C14.1863 11.9591 14.8621 10.3412 14.8689 8.65178Z" fill="white"/>
<path id="Vector_5" d="M8.53768 21.8976C10.1427 21.9035 11.7099 22.3852 13.0412 23.2818C14.3724 24.1785 15.4079 25.4497 16.0167 26.9348C16.6255 28.4199 16.7802 30.0522 16.4613 31.6252C16.1424 33.1983 15.3641 34.6414 14.2251 35.7722C13.086 36.9029 11.6371 37.6705 10.0618 37.9779C8.48646 38.2852 6.85536 38.1185 5.37476 37.4989C3.89416 36.8792 2.63056 35.8344 1.74375 34.4966C0.856942 33.1588 0.386749 31.5881 0.392633 29.9831C0.402774 27.8314 1.26607 25.7717 2.79307 24.2559C4.32008 22.7401 6.38606 21.8919 8.53768 21.8976ZM8.53768 23.6603C7.28 23.6561 6.04938 24.0253 5.00173 24.7211C3.95408 25.417 3.13655 26.4081 2.65273 27.569C2.1689 28.7299 2.04056 30.0083 2.28395 31.2422C2.52735 32.4761 3.13153 33.61 4.01995 34.5002C4.90837 35.3904 6.04104 35.9969 7.27445 36.2428C8.50786 36.4887 9.7865 36.3629 10.9484 35.8814C12.1102 35.3999 13.103 34.5844 13.801 33.5381C14.4989 32.4919 14.8706 31.262 14.8689 30.0043C14.8689 28.3262 14.2041 26.7164 13.0198 25.5274C11.8356 24.3384 10.2286 23.6671 8.55045 23.6603H8.53768Z" fill="white"/>
<path id="Vector_6" d="M0.392603 51.391C0.387588 49.3439 1.15561 47.3704 2.54306 45.8651C3.9305 44.3599 5.83507 43.434 7.8758 43.2726C9.91654 43.1112 11.943 43.7262 13.5498 44.9946C15.1566 46.263 16.2253 48.0912 16.5422 50.1137C16.7408 51.3525 16.6415 52.6208 16.2527 53.8136C16.0526 54.4268 15.631 54.7163 15.1371 54.58C14.6432 54.4438 14.3835 53.9541 14.5794 53.3027C15.0356 51.8688 14.9692 50.3196 14.3918 48.9301C13.8144 47.5405 12.7634 46.4005 11.4252 45.7122C10.0871 45.0239 8.54847 44.832 7.08227 45.1703C5.61607 45.5087 4.31716 46.3556 3.41604 47.5607C2.51491 48.7658 2.06985 50.2511 2.15981 51.7532C2.24978 53.2552 2.86896 54.6769 3.90749 55.7658C4.94602 56.8547 6.33673 57.5404 7.83283 57.7014C9.32894 57.8624 10.8337 57.4881 12.0801 56.645L12.3654 56.4407C12.9018 56.0745 13.4 56.1043 13.7151 56.5258C14.0301 56.9473 13.9109 57.471 13.3744 57.8755C12.3317 58.6747 11.1048 59.1989 9.80645 59.3998C8.64652 59.5856 7.46009 59.5178 6.32888 59.2011C5.19767 58.8843 4.14856 58.3261 3.25382 57.5649C2.35908 56.8037 1.63997 55.8576 1.14603 54.7918C0.652083 53.7259 0.395039 52.5657 0.392603 51.391Z" fill="white"/>
<path id="Vector_7" d="M38.832 34.9558H26.0588C25.8288 34.9558 25.5308 35.0154 25.3775 34.8962C25.0967 34.7217 24.8916 34.4482 24.8027 34.1298C24.8254 33.9677 24.8805 33.8118 24.9646 33.6713C25.0487 33.5309 25.1602 33.4088 25.2924 33.3123C25.5395 33.1975 25.8148 33.1576 26.0843 33.1973H51.9713C52.6143 33.2229 53.0017 33.5465 53.0102 34.0489C53.0187 34.5513 52.6313 34.9387 51.9501 34.9387L38.832 34.9558Z" fill="white"/>
<path id="Vector_8" d="M38.9536 29.14H51.6033C51.7976 29.1293 51.9924 29.1293 52.1866 29.14C52.4125 29.131 52.6327 29.212 52.7988 29.3653C52.9648 29.5186 53.0632 29.7316 53.0723 29.9575C53.0813 30.1833 53.0002 30.4035 52.8469 30.5696C52.6936 30.7357 52.4806 30.8341 52.2548 30.8431C52.0431 30.8715 51.8296 30.8829 51.6161 30.8771H26.1421C25.9083 30.8873 25.6741 30.8716 25.4438 30.8303C25.218 30.8247 25.0036 30.7295 24.8479 30.5658C24.6922 30.4022 24.6079 30.1833 24.6135 29.9575C24.6192 29.7316 24.7143 29.5173 24.878 29.3616C25.0417 29.2059 25.2605 29.1216 25.4864 29.1272C25.6997 29.1015 25.9147 29.093 26.1293 29.1017L38.9536 29.14Z" fill="white"/>
<path id="Vector_9" d="M7.8471 52.5062L10.4401 48.7679C10.5508 48.6104 10.6572 48.4444 10.7764 48.2911C10.9074 48.0947 11.1107 47.9581 11.342 47.911C11.5733 47.864 11.8139 47.9103 12.0112 48.0399C12.1104 48.1047 12.195 48.1896 12.2595 48.289C12.324 48.3885 12.3671 48.5003 12.3859 48.6173C12.4047 48.7343 12.3989 48.854 12.3689 48.9686C12.3388 49.0833 12.2851 49.1904 12.2113 49.2831C11.7089 50.0495 11.1766 50.7946 10.6529 51.544C10.01 52.4764 9.37563 53.4089 8.71993 54.3285C8.20475 55.0566 7.62144 55.0609 7.06368 54.3583C6.34838 53.4557 5.63308 52.5531 4.93481 51.6462C4.50903 51.0969 4.5431 50.5988 4.99442 50.2624C5.44574 49.926 5.89706 50.0453 6.3058 50.5562C6.81247 51.1863 7.31062 51.8293 7.8471 52.5062Z" fill="white"/>
<path id="Vector_10" d="M28.8957 25.0696C29.9133 25.0696 30.9266 25.0696 31.9399 25.0696C32.5999 25.0696 32.9703 25.3889 32.9788 25.9211C32.9873 26.4534 32.5999 26.8408 31.9229 26.8408C29.8934 26.8408 27.8625 26.8408 25.8301 26.8408C25.1446 26.8408 24.7614 26.4959 24.7657 25.9424C24.7699 25.3889 25.1446 25.0909 25.8514 25.0909C26.869 25.0653 27.8823 25.0696 28.8957 25.0696Z" fill="white"/>
<path id="Vector_11" d="M38.8955 9.52024H26.1223C25.9052 9.52024 25.6369 9.59262 25.4879 9.49044C25.1873 9.31754 24.9445 9.05984 24.7896 8.74959C24.7603 8.65478 24.7511 8.55487 24.7627 8.4563C24.7742 8.35772 24.8063 8.26267 24.8569 8.17724C24.9074 8.09182 24.9753 8.01792 25.0561 7.9603C25.1369 7.90268 25.2289 7.86262 25.3261 7.84269C25.5508 7.78246 25.7834 7.75662 26.0159 7.76605H51.7241C51.9381 7.75344 52.1528 7.76919 52.3627 7.81289C52.5676 7.85614 52.748 7.97679 52.8662 8.1497C52.9843 8.3226 53.0312 8.53444 52.9971 8.74108C52.9854 8.93833 52.9025 9.12464 52.764 9.26554C52.6254 9.40644 52.4405 9.49238 52.2435 9.50747C52.0479 9.52023 51.8516 9.52023 51.6559 9.50747L38.8955 9.52024Z" fill="white"/>
<path id="Vector_12" d="M38.8949 11.8448H51.7192C51.8949 11.832 52.0714 11.832 52.2471 11.8448C52.473 11.8278 52.6963 11.9013 52.868 12.049C53.0396 12.1967 53.1456 12.4066 53.1625 12.6325C53.1795 12.8583 53.106 13.0816 52.9583 13.2533C52.8106 13.425 52.6007 13.5309 52.3748 13.5479C52.1658 13.5974 51.9504 13.6146 51.7362 13.599H26.0237C25.83 13.6113 25.6356 13.5998 25.4447 13.5649C25.3328 13.5588 25.2233 13.5306 25.1224 13.4822C25.0214 13.4337 24.931 13.3658 24.8563 13.2824C24.7053 13.1139 24.6275 12.8924 24.64 12.6665C24.6524 12.4407 24.754 12.229 24.9225 12.0781C25.091 11.9272 25.3125 11.8494 25.5383 11.8618C25.7141 11.849 25.8905 11.849 26.0663 11.8618L38.8949 11.8448Z" fill="white"/>
<path id="Vector_13" d="M28.8957 5.45836C27.8781 5.45836 26.8647 5.45836 25.8514 5.45836C25.1361 5.45836 24.7699 5.14755 24.7657 4.60681C24.7614 4.06608 25.1318 3.72546 25.8386 3.72546C27.8653 3.72546 29.8934 3.72546 31.9229 3.72546C32.6127 3.72546 32.9916 4.06608 32.9788 4.62385C32.9661 5.18161 32.6042 5.47539 31.9357 5.47539C30.9223 5.46688 29.909 5.45836 28.8957 5.45836Z" fill="white"/>
<path id="Vector_14" d="M38.9559 50.5011H51.6652C51.8824 50.5011 52.1506 50.433 52.2996 50.5352C52.5721 50.731 52.9383 51.0121 52.9681 51.2888C52.9979 51.5656 52.7084 51.9317 52.4657 52.1404C52.3124 52.2766 51.9846 52.2425 51.7334 52.2425C43.164 52.2425 34.5946 52.2425 26.0251 52.2425C25.7912 52.2539 25.557 52.228 25.3311 52.1659C25.234 52.1461 25.142 52.106 25.0614 52.0483C24.9807 51.9907 24.913 51.9166 24.8628 51.8311C24.8126 51.7456 24.781 51.6504 24.77 51.5519C24.759 51.4533 24.7688 51.3535 24.7989 51.259C24.9606 50.9524 25.2095 50.7005 25.5142 50.5352C25.6632 50.433 25.94 50.5011 26.1486 50.5011H38.9559Z" fill="white"/>
<path id="Vector_15" d="M38.8988 54.5669H51.672C52.6129 54.5669 53.043 54.8564 53.0217 55.4695C53.0004 56.0827 52.5959 56.3211 51.6762 56.3211H26.0787C25.903 56.3338 25.7265 56.3338 25.5508 56.3211C25.3249 56.3211 25.1083 56.2314 24.9486 56.0717C24.7889 55.912 24.6992 55.6954 24.6992 55.4695C24.6992 55.2437 24.7889 55.0271 24.9486 54.8674C25.1083 54.7077 25.3249 54.618 25.5508 54.618C25.7649 54.6051 25.9796 54.6051 26.1937 54.618L38.8988 54.5669Z" fill="white"/>
<path id="Vector_16" d="M28.8744 48.1764C27.861 48.1764 26.8477 48.1764 25.8301 48.1764C25.1446 48.1764 24.7614 47.8485 24.7657 47.2908C24.7699 46.733 25.1531 46.4392 25.796 46.4392C27.8454 46.4392 29.8948 46.4392 31.9442 46.4392C32.5871 46.4392 32.9703 46.7756 32.9831 47.2908C32.9959 47.8059 32.6042 48.1764 31.9229 48.1806C30.9053 48.1806 29.892 48.1764 28.8744 48.1764Z" fill="white"/>
<path id="Vector_17" d="M7.84853 9.78442L10.4032 6.07168C10.5054 5.92691 10.599 5.78215 10.7055 5.6459C11.0759 5.13923 11.5826 5.02002 12.0083 5.33083C12.1044 5.40322 12.1847 5.49443 12.2444 5.59888C12.304 5.70333 12.3418 5.81884 12.3553 5.93837C12.3689 6.05789 12.3579 6.17892 12.3232 6.29408C12.2884 6.40923 12.2305 6.51609 12.1531 6.60815C11.5187 7.58743 10.846 8.53265 10.186 9.50767C9.68787 10.2272 9.19823 10.9553 8.68305 11.6663C8.60978 11.8061 8.50067 11.9238 8.36691 12.0075C8.23314 12.0912 8.07953 12.1378 7.92182 12.1426C7.76411 12.1473 7.60797 12.1101 7.4694 12.0346C7.33082 11.9592 7.2148 11.8482 7.13323 11.7132C6.35406 10.7722 5.62599 9.80997 4.8894 8.86475C4.79896 8.78027 4.72802 8.67709 4.68153 8.56239C4.63503 8.4477 4.61409 8.32425 4.62017 8.20063C4.62625 8.07702 4.6592 7.95622 4.71673 7.84664C4.77425 7.73706 4.85498 7.64134 4.95327 7.56614C5.05258 7.48649 5.16775 7.42896 5.29108 7.39741C5.41441 7.36585 5.54306 7.361 5.66841 7.38317C5.79377 7.40534 5.91295 7.45402 6.01798 7.52596C6.12301 7.5979 6.21146 7.69144 6.27743 7.80032C6.77984 8.43472 7.29077 9.08189 7.84853 9.78442Z" fill="white"/>
<path id="Vector_18" d="M7.84779 31.1456L10.4876 27.3136C10.5939 27.1499 10.709 26.9921 10.8325 26.841C10.9585 26.6622 11.1504 26.5407 11.3659 26.5032C11.5814 26.4657 11.803 26.5152 11.982 26.6409C12.0778 26.7 12.1609 26.7776 12.2265 26.869C12.2922 26.9605 12.339 27.064 12.3643 27.1737C12.3897 27.2834 12.393 27.397 12.3742 27.508C12.3553 27.619 12.3147 27.7251 12.2545 27.8203C11.9863 28.2716 11.6712 28.6974 11.3689 29.1274C10.5174 30.382 9.65023 31.6338 8.76746 32.8827C8.20969 33.6789 7.63916 33.7002 7.03882 32.9423C6.33203 32.0567 5.63234 31.1668 4.93975 30.2727C4.51398 29.7235 4.53527 29.2211 4.97807 28.8847C5.42088 28.5483 5.89774 28.6633 6.33629 29.2083C6.82167 29.8214 7.29854 30.4515 7.84779 31.1456Z" fill="white"/>
</g>
</g>
</svg>
